<svg id="carto" width="131" height="51" viewBox="0 0 131 51" fill="none" xmlns="http://www.w3.org/2000/svg">
<path opacity="0.2" d="M104.7 50.9184C118.748 50.9184 130.135 39.5309 130.135 25.4836C130.135 11.4364 118.748 0.0488281 104.7 0.0488281C90.6532 0.0488281 79.2656 11.4364 79.2656 25.4836C79.2656 39.5309 90.6532 50.9184 104.7 50.9184Z" fill="#647083"/>
<path fill-rule="evenodd" clip-rule="evenodd" d="M8.50104 33.9359C12.0698 33.9359 14.1323 32.3833 15.6618 30.2745L12.2784 27.8644C11.3051 29.0463 10.3086 29.8342 8.61691 29.8342C6.34586 29.8342 4.74686 27.9339 4.74686 25.5006V25.4543C4.74686 23.0906 6.34586 21.1439 8.61691 21.1439C10.1696 21.1439 11.2356 21.9087 12.1625 23.0442L15.5459 20.4256C14.1091 18.4558 11.9771 17.0653 8.66325 17.0653C3.75038 17.0653 0.135254 20.7732 0.135254 25.5006V25.547C0.135254 30.3903 3.86625 33.9359 8.50104 33.9359ZM23.3159 33.6115H28.0202L29.1789 30.6916H35.4591L36.6178 33.6115H41.4379L34.5321 17.2739H30.1986L23.3159 33.6115ZM30.4999 27.1923L32.3306 22.6039L34.1382 27.1923H30.4999ZM50.192 33.6115H54.6878V28.6986H56.6807L59.9482 33.6115H65.116L61.246 27.9571C63.2621 27.0996 64.583 25.4543 64.583 22.9515V22.9052C64.583 21.3062 64.0964 20.0779 63.1462 19.1278C62.0571 18.0386 60.3422 17.3898 57.8626 17.3898H50.192V33.6115ZM54.6878 25.1762V21.2598H57.654C59.1372 21.2598 60.0873 21.9087 60.0873 23.2064V23.2528C60.0873 24.4346 59.1835 25.1762 57.6772 25.1762H54.6878ZM77.9951 33.6115H82.4908V21.3293H87.3573V17.3898H73.1517V21.3293H77.9951V33.6115ZM104.7 33.9619C109.383 33.9619 113.179 30.1661 113.179 25.4837C113.179 20.8013 109.383 17.0054 104.7 17.0054C100.018 17.0054 96.2222 20.8013 96.2222 25.4837C96.2222 30.1661 100.018 33.9619 104.7 33.9619Z" fill="#162945"/>
</svg>
