<svg id="noaa" width="65" height="65" viewBox="0 0 65 65" fill="none" xmlns="http://www.w3.org/2000/svg">
<path d="M57.4862 20.5106C57.5014 20.5044 60.8828 27.2009 60.2828 34.3201C59.9565 46.2769 49.3892 59.8407 33.6412 60.2812L31.4454 60.2355C15.2171 59.4289 5.24449 45.6594 5.2902 33.2166C5.33027 30.9034 5.32095 28.3176 6.29663 25.1195L7.2916 25.4168C11.4506 26.9888 15.9376 39.1406 30.5249 39.8323C31.1581 39.8623 32.3745 39.8903 32.3718 39.8954C31.4275 40.8374 26.0588 43.0518 23.6229 43.6351C24.2599 43.4826 23.5731 43.6194 23.6229 43.6351C29.4898 47.2719 35.3567 40.2728 42.9733 39.2435L45.3064 39.1063C44.8604 37.6996 42.8523 37.8183 42.6646 37.8368C37.3947 38.3556 38.7112 37.7512 38.5474 37.8025C46.6445 35.2636 51.3105 28.7791 57.138 20.8935L57.4862 20.5106Z" fill="#007EC6"/>
<path fill-rule="evenodd" clip-rule="evenodd" d="M45.7181 8.39938C45.1523 8.09843 40.4001 5.24291 33.1038 5.12853C17.2865 5.18548 10.3223 16.7937 10.3223 16.7937C13.8218 18.5092 17.4532 23.6754 17.5043 23.7471C21.4207 29.2421 26.8786 37.7591 33.9502 37.9219C36.2144 37.9741 37.7204 36.6196 39.4395 34.9548C45.7173 28.8748 46.5962 17.6342 54.6385 16.0504C54.6385 16.0504 51.6536 11.5558 45.7181 8.39938ZM28.1933 15.8345H30.073C30.8314 15.8345 31.4419 16.445 31.4419 17.2033V21.7278C31.4419 22.4861 30.8314 23.0967 30.073 23.0967H28.1933C27.4349 23.0967 26.8244 22.4861 26.8244 21.7278V17.2033C26.8244 16.445 27.4349 15.8345 28.1933 15.8345ZM28.6941 17.0806H29.5722C29.7471 17.0806 29.8878 17.2213 29.8878 17.3962V21.5349C29.8878 21.7098 29.7471 21.8505 29.5722 21.8505H28.6941C28.5192 21.8505 28.3785 21.7098 28.3785 21.5349V17.3962C28.3785 17.2213 28.5192 17.0806 28.6941 17.0806ZM34.1391 15.836C33.3807 15.836 32.771 16.4457 32.771 17.2041V23.0967H34.3235V20.1804H35.8331V23.0967H37.3856V17.2041C37.3856 16.4457 36.7759 15.836 36.0175 15.836H34.1391ZM34.6408 17.0797H35.5157C35.6906 17.0797 35.8331 17.2222 35.8331 17.3971V18.9367H34.3235V17.3971C34.3235 17.2222 34.466 17.0797 34.6408 17.0797ZM40.0828 15.836C39.3244 15.836 38.7147 16.4457 38.7147 17.2041V23.0967H40.2672V20.1804H41.7768V23.0967H43.3293V17.2041C43.3293 16.4457 42.7196 15.836 41.9612 15.836H40.0828ZM40.5845 17.0797H41.4594C41.6343 17.0797 41.7768 17.2222 41.7768 17.3971V18.9367H40.2672V17.3971C40.2672 17.2222 40.4097 17.0797 40.5845 17.0797ZM20.8764 15.836V23.0967H22.4332V17.3971C22.4332 17.2222 22.5714 17.0797 22.7463 17.0797H23.6255C23.8003 17.0797 23.9428 17.2222 23.9428 17.3971V23.0967H25.4953V17.2041C25.4953 16.4457 24.8856 15.836 24.1272 15.836H20.8764Z" fill="#263F78"/>
<path d="M5.33322 42.4952L2.56331 43.3607L2.43464 42.9489L4.04249 41.0265C4.07736 40.9839 4.1109 40.9459 4.1431 40.9125C4.1753 40.879 4.20637 40.8507 4.2363 40.8276L1.99104 41.5291L1.87881 41.17L4.64873 40.3045L4.77622 40.7126L3.14898 42.672C3.12391 42.7019 3.09709 42.7306 3.06853 42.7581C3.03997 42.7856 3.00923 42.8127 2.97632 42.8395L5.22159 42.138L5.33322 42.4952ZM3.21426 39.4486L3.02736 38.5639L1.86728 39.268L3.21426 39.4486ZM4.56739 40.0206L1.50535 39.566L1.41536 39.14L4.03112 37.482L4.11948 37.9003L3.33487 38.3801L3.57104 39.4981L4.4831 39.6216L4.56739 40.0206ZM3.92141 36.5489L1.39177 36.8651L1.5054 37.7741L1.15547 37.8179L0.879106 35.6069L1.22903 35.5631L1.34266 36.4722L3.87229 36.156L3.92141 36.5489ZM3.75056 34.8892L0.855141 35.0841L0.828677 34.691L3.72409 34.4961L3.75056 34.8892ZM2.21954 33.5723C2.59123 33.5735 2.88209 33.4888 3.09213 33.318C3.30217 33.1473 3.40768 32.9103 3.40865 32.6069C3.40963 32.3048 3.30564 32.0684 3.0967 31.8976C2.88776 31.7268 2.59745 31.6409 2.22575 31.6397C1.85275 31.6385 1.56156 31.7226 1.35218 31.892C1.1428 32.0614 1.03763 32.2972 1.03666 32.5992C1.03568 32.9026 1.13933 33.1404 1.34761 33.3124C1.55589 33.4845 1.84653 33.5711 2.21954 33.5723ZM2.21823 33.9802C1.73884 33.9786 1.36458 33.8556 1.09546 33.6111C0.826343 33.3666 0.692476 33.0289 0.693858 32.5981C0.695243 32.1687 0.830946 31.8332 1.10097 31.5917C1.371 31.3503 1.74636 31.2303 2.22706 31.2319C2.70646 31.2334 3.08071 31.3558 3.34984 31.599C3.61896 31.8422 3.75283 32.1785 3.75145 32.608C3.75007 33.0388 3.61403 33.3755 3.34334 33.6183C3.07266 33.8611 2.69762 33.9817 2.21823 33.9802ZM3.71313 30.7414L0.827341 30.4354L0.872837 30.0063L3.11203 28.8807C3.16093 28.8555 3.2068 28.834 3.24964 28.8161C3.29248 28.7982 3.33223 28.7846 3.36888 28.7752L1.02968 28.5272L1.06936 28.153L3.95515 28.459L3.91007 28.8841L1.63838 30.036C1.60351 30.0534 1.56751 30.0691 1.53038 30.083C1.49324 30.0969 1.45425 30.1096 1.41341 30.1211L3.7526 30.3691L3.71313 30.7414ZM2.97778 27.1042L3.15725 26.2179L1.813 26.404L2.97778 27.1042ZM3.99293 28.1661L1.36257 26.5339L1.44898 26.1072L4.50788 25.6231L4.42304 26.0421L3.51244 26.1713L3.28566 27.2912L4.07387 27.7664L3.99293 28.1661ZM4.6 25.3383L1.81224 24.5322L1.92278 24.1499L4.35852 24.8542L4.76022 23.465L5.11223 23.5668L4.6 25.3383ZM4.36884 21.39C4.7096 21.5385 5.01024 21.576 5.27075 21.5025C5.53126 21.429 5.7221 21.2532 5.84326 20.975C5.96391 20.6981 5.96216 20.4398 5.83804 20.2002C5.71391 19.9606 5.48146 19.7666 5.14069 19.6182C4.79873 19.4692 4.49805 19.431 4.23867 19.5035C3.97929 19.576 3.78928 19.7508 3.66863 20.0277C3.54746 20.3059 3.54838 20.5652 3.67138 20.8058C3.79439 21.0463 4.02687 21.2411 4.36884 21.39ZM4.20597 21.7639C3.76647 21.5725 3.47165 21.3111 3.3215 20.98C3.17136 20.6488 3.18231 20.2858 3.35436 19.8908C3.52588 19.4971 3.78345 19.2429 4.12707 19.1283C4.47069 19.0136 4.86286 19.0523 5.30356 19.2443C5.74307 19.4358 6.03815 19.6965 6.18882 20.0264C6.33949 20.3564 6.32906 20.7182 6.15754 21.1119C5.98549 21.5069 5.72709 21.7622 5.38234 21.8777C5.0376 21.9933 4.64547 21.9554 4.20597 21.7639ZM6.92528 17.0836L7.11321 16.7508C7.41246 16.9394 7.59824 17.1827 7.67054 17.4807C7.74285 17.7787 7.69182 18.0821 7.51745 18.3909C7.3166 18.7466 7.03796 18.9569 6.68152 19.0218C6.32508 19.0868 5.93242 18.9982 5.50354 18.756C5.10784 18.5325 4.85335 18.2493 4.74009 17.9063C4.62683 17.5633 4.67159 17.2122 4.87437 16.8531C5.03583 16.5672 5.24182 16.3747 5.49236 16.2756C5.7429 16.1765 6.00376 16.1847 6.27494 16.3001L6.08507 16.6363C5.90002 16.5741 5.72869 16.5776 5.57111 16.647C5.41352 16.7164 5.28048 16.8472 5.17198 17.0393C5.02732 17.2955 5.00489 17.5449 5.10469 17.7875C5.20449 18.0301 5.41793 18.2438 5.74502 18.4285C6.05381 18.6029 6.3429 18.6692 6.61231 18.6275C6.88171 18.5858 7.08487 18.4438 7.22178 18.2013C7.33867 17.9943 7.37008 17.7884 7.31601 17.5837C7.26194 17.3789 7.13169 17.2122 6.92528 17.0836ZM8.31191 16.8934L5.92913 15.237L7.10989 13.5385L7.40592 13.7442L6.44782 15.1225L7.15958 15.6173L8.04459 14.3442L8.32282 14.5376L7.43781 15.8107L8.23693 16.3662L9.21414 14.9605L9.51179 15.1674L8.31191 16.8934ZM9.21062 13.6242L9.78993 12.9298L8.51889 12.4544L9.21062 13.6242ZM9.59876 15.041L8.06087 12.3545L8.33979 12.0202L11.261 13.0488L10.9871 13.377L10.1246 13.0577L9.39256 13.9351L9.86002 14.7279L9.59876 15.041ZM11.4657 12.8359L9.42033 10.7773L9.7264 10.4732L12.1737 11.0133C12.2275 11.0246 12.2767 11.0368 12.3212 11.05C12.3658 11.0631 12.4052 11.0777 12.4395 11.0936L10.7816 9.42486L11.0485 9.15964L13.0939 11.2183L12.7906 11.5196L10.3015 10.9794C10.2635 10.9709 10.2256 10.9603 10.1881 10.9477C10.1505 10.935 10.1122 10.9203 10.0733 10.9034L11.7312 12.5721L11.4657 12.8359ZM13.5734 10.8163L11.671 8.62488L11.9685 8.36658L13.8709 10.558L13.5734 10.8163ZM15.3145 8.04726L15.6192 7.81653C15.8189 8.10851 15.8927 8.40559 15.8406 8.70779C15.7885 9.00998 15.6211 9.26812 15.3384 9.48219C15.0128 9.72878 14.6735 9.81105 14.3206 9.72902C13.9677 9.64698 13.6426 9.40963 13.3453 9.01698C13.0709 8.65469 12.95 8.29366 12.9823 7.9339C13.0147 7.57414 13.1952 7.26977 13.524 7.02081C13.7858 6.82259 14.0513 6.72778 14.3206 6.73639C14.5899 6.745 14.826 6.85614 15.029 7.06982L14.7212 7.30292C14.5761 7.17225 14.4175 7.10745 14.2453 7.1085C14.0731 7.10956 13.8991 7.17669 13.7232 7.30989C13.4886 7.4875 13.3689 7.70746 13.3641 7.96977C13.3593 8.23208 13.4702 8.51297 13.697 8.81243C13.9111 9.09515 14.15 9.2709 14.4138 9.33968C14.6776 9.40847 14.9205 9.35882 15.1424 9.19073C15.332 9.04722 15.4426 8.87078 15.4743 8.6614C15.5061 8.45203 15.4528 8.24732 15.3145 8.04726ZM17.4446 6.52518L18.2306 6.0781L17.2071 5.18706L17.4446 6.52518ZM17.3112 7.98815L16.8132 4.93287L17.1917 4.71761L19.5665 6.70537L19.1949 6.91673L18.4992 6.31518L17.506 6.88011L17.6657 7.78653L17.3112 7.98815ZM19.8329 6.5779L18.6419 3.93159L19.0354 3.75452L21.1366 5.12053C21.183 5.15005 21.2247 5.17879 21.2618 5.20676C21.2988 5.23472 21.3306 5.26218 21.3572 5.28913L20.3918 3.14406L20.7349 2.98962L21.9259 5.63593L21.5361 5.81138L19.3958 4.43056C19.3632 4.40924 19.3315 4.38605 19.3008 4.36099C19.27 4.33593 19.2394 4.30867 19.2089 4.2792L20.1743 6.42427L19.8329 6.5779ZM22.7025 2.63741L22.0599 2.85281L22.7631 4.95052L23.4056 4.73513C23.6808 4.64288 23.8589 4.48382 23.9397 4.25794C24.0205 4.03207 24.0023 3.74417 23.885 3.39424C23.7727 3.05926 23.6151 2.82673 23.4122 2.69665C23.2093 2.56658 22.9727 2.54683 22.7025 2.63741ZM22.5022 5.41199L21.5799 2.66048L22.6278 2.30921C23.0113 2.18065 23.3433 2.19681 23.6237 2.35769C23.9041 2.51858 24.1168 2.81508 24.2616 3.2472C24.4115 3.69427 24.4225 4.07739 24.2947 4.39659C24.1669 4.71578 23.9137 4.93883 23.5352 5.06573L22.5022 5.41199ZM26.5668 2.9904L27.4546 2.81818L26.7697 1.6466L26.5668 2.9904ZM25.9725 4.33387L26.4778 1.27978L26.9052 1.19686L28.5197 3.83973L28.1 3.92115L27.6332 3.1287L26.5115 3.34632L26.3729 4.25621L25.9725 4.33387ZM29.4545 3.7454L29.1799 1.2109L28.2692 1.30956L28.2312 0.958957L30.4464 0.719008L30.4844 1.06961L29.5736 1.16826L29.8482 3.70276L29.4545 3.7454ZM31.4412 1.095L31.4706 3.56732L31.1081 3.57162L31.0737 0.66985L31.6371 0.663168L32.3825 2.8748C32.4042 2.93759 32.4202 2.98632 32.4305 3.02101C32.4407 3.0557 32.4487 3.08614 32.4542 3.11234C32.4642 3.06363 32.4741 3.02016 32.4842 2.98195C32.4943 2.94374 32.505 2.90749 32.5164 2.87321L33.2347 0.644218L33.8001 0.637512L33.8345 3.53928L33.4524 3.54381L33.423 1.0715C33.4143 1.11364 33.4043 1.15612 33.393 1.19894C33.3817 1.24176 33.3697 1.28426 33.3571 1.32644L32.6368 3.55348L32.2645 3.5579L31.5093 1.34836C31.4957 1.31174 31.4834 1.27249 31.4724 1.23058C31.4614 1.18868 31.451 1.14349 31.4412 1.095ZM34.8806 2.15835C34.8443 2.52826 34.9011 2.82584 35.0512 3.05108C35.2013 3.27633 35.4273 3.40379 35.7293 3.43345C36.0299 3.463 36.2751 3.38184 36.4649 3.18999C36.6546 2.99814 36.7677 2.71726 36.804 2.34734C36.8405 1.97613 36.7843 1.67829 36.6355 1.45382C36.4866 1.22936 36.2619 1.10236 35.9612 1.07281C35.6593 1.04315 35.4128 1.12385 35.2218 1.31491C35.0308 1.50598 34.9171 1.78713 34.8806 2.15835ZM34.4747 2.11847C34.5216 1.64137 34.6795 1.28043 34.9484 1.03564C35.2172 0.790861 35.566 0.689532 35.9948 0.731657C36.4222 0.77366 36.7433 0.940487 36.9581 1.23214C37.173 1.5238 37.2569 1.90882 37.2099 2.38722C37.163 2.86432 37.0058 3.22532 36.7382 3.47024C36.4707 3.71515 36.1232 3.81661 35.6957 3.77461C35.267 3.73248 34.9446 3.5652 34.7285 3.27276C34.5125 2.98033 34.4279 2.59556 34.4747 2.11847ZM37.6153 2.95656L37.9883 3.03075C37.9511 3.23762 37.987 3.41551 38.096 3.56441C38.205 3.71331 38.3709 3.80992 38.5938 3.85426C38.814 3.89808 38.9968 3.88624 39.1422 3.81873C39.2875 3.75123 39.3761 3.63761 39.4079 3.47788C39.4512 3.26018 39.2458 3.04724 38.7917 2.83906C38.7647 2.82698 38.7438 2.81747 38.7291 2.81053C38.3608 2.6422 38.1258 2.4893 38.0239 2.35186C37.922 2.21442 37.8917 2.042 37.9329 1.8346C37.9834 1.58084 38.1167 1.39544 38.3329 1.2784C38.549 1.16137 38.811 1.13348 39.1188 1.19472C39.4331 1.25725 39.6644 1.38729 39.8126 1.58483C39.9608 1.78237 40.0081 2.02245 39.9545 2.30507L39.5851 2.23358C39.6101 2.04037 39.5745 1.88129 39.4782 1.75633C39.3818 1.63138 39.2325 1.54878 39.0303 1.50855C38.8409 1.47088 38.6813 1.48231 38.5514 1.54284C38.4215 1.60338 38.3429 1.70256 38.3155 1.84039C38.2716 2.06067 38.4734 2.27155 38.9208 2.47304C38.987 2.50362 39.0379 2.52714 39.0735 2.54359C39.0809 2.54641 39.0938 2.55233 39.1121 2.56132C39.4041 2.69574 39.5919 2.81545 39.6754 2.92046C39.7386 2.99999 39.781 3.08977 39.8026 3.18982C39.8242 3.28987 39.8238 3.39657 39.8012 3.50993C39.7466 3.78431 39.605 3.98311 39.3762 4.10634C39.1475 4.22957 38.8657 4.25787 38.5307 4.19124C38.1855 4.12256 37.934 3.98179 37.7761 3.76893C37.6183 3.55607 37.5647 3.28528 37.6153 2.95656ZM40.9346 3.0579L41.5698 3.24428C41.7903 3.30899 41.9548 3.31891 42.063 3.27404C42.1713 3.22917 42.2506 3.12103 42.3009 2.94963C42.3494 2.78454 42.3407 2.65332 42.2748 2.55596C42.2089 2.45861 42.0745 2.38017 41.8716 2.32063L41.2081 2.12593L40.9346 3.0579ZM40.1133 4.45739L40.9304 1.67282L41.955 1.97347C42.1213 2.02229 42.2456 2.06764 42.3278 2.10954C42.4099 2.15144 42.4795 2.20128 42.5364 2.25906C42.6317 2.35409 42.6919 2.47098 42.7169 2.60971C42.7419 2.74845 42.7305 2.89911 42.6828 3.06168C42.6373 3.2167 42.5669 3.34456 42.4717 3.44527C42.3764 3.54599 42.2605 3.61462 42.1238 3.65118C42.0452 3.67191 41.9583 3.67756 41.8632 3.66813C41.7681 3.6587 41.6172 3.62367 41.4105 3.56302L40.8359 3.39439L40.4914 4.56833L40.1133 4.45739ZM42.5509 5.19428L43.6268 2.49911L43.9927 2.64519L43.5508 3.75217L44.9487 4.31019L45.3906 3.20322L45.7584 3.35003L44.6825 6.04519L44.3147 5.89838L44.8187 4.63588L43.4208 4.07786L42.9168 5.34036L42.5509 5.19428ZM45.2452 6.31034L46.571 3.72895L48.4111 4.67406L48.2464 4.99476L46.7533 4.22787L46.3572 4.99896L47.7364 5.70734L47.5816 6.00876L46.2024 5.30038L45.7578 6.1661L47.2807 6.94829L47.115 7.27074L45.2452 6.31034ZM49.2229 5.55417L48.6968 6.38462L49.266 6.74521C49.4712 6.87524 49.6374 6.93386 49.7644 6.92106C49.8915 6.90826 50.0042 6.8242 50.1026 6.66887C50.1947 6.52353 50.2198 6.39559 50.1778 6.28507C50.1359 6.17455 50.0073 6.05111 49.7921 5.91475L49.2229 5.55417ZM49.0791 5.0596L50.0294 5.66163C50.1836 5.75933 50.2928 5.83786 50.3571 5.89721C50.4213 5.95657 50.4724 6.02005 50.5105 6.08767C50.5778 6.20962 50.6064 6.33812 50.5962 6.47318C50.5861 6.60823 50.5378 6.74399 50.4513 6.88046C50.3677 7.01249 50.2679 7.10746 50.1519 7.16536C50.0359 7.22327 49.905 7.24335 49.7592 7.22562C49.8378 7.31269 49.8773 7.40068 49.8777 7.48958C49.8781 7.57847 49.8355 7.70153 49.7499 7.85875L49.522 8.28108C49.4727 8.37114 49.4432 8.44297 49.4333 8.49658C49.4234 8.55019 49.4301 8.59676 49.4532 8.63631L49.41 8.70454L49.0256 8.46099C49.0268 8.39027 49.0744 8.26728 49.1684 8.09201C49.1712 8.08757 49.1733 8.08425 49.1747 8.08203L49.3571 7.74984C49.4501 7.57861 49.4826 7.44996 49.4547 7.36388C49.4269 7.27781 49.2953 7.16027 49.0601 7.01126L48.5209 6.66965L47.8556 7.71979L47.5261 7.51103L49.0791 5.0596ZM49.7705 8.98791L51.4763 6.6402L51.7951 6.87181L50.0893 9.21951L49.7705 8.98791ZM52.8609 10.0596L53.1544 10.3044C52.915 10.5647 52.6422 10.7037 52.3361 10.7211C52.0299 10.7385 51.7407 10.6337 51.4683 10.4066C51.1547 10.1449 50.998 9.83296 50.9983 9.47065C50.9986 9.10834 51.1565 8.73807 51.472 8.35983C51.7631 8.01085 52.0875 7.81154 52.4453 7.76192C52.8031 7.7123 53.1403 7.81956 53.457 8.08371C53.7092 8.29403 53.8615 8.53133 53.9138 8.79562C53.9662 9.05992 53.9111 9.31504 53.7488 9.561L53.4522 9.31367C53.5468 9.14285 53.5742 8.97369 53.5343 8.80618C53.4944 8.63867 53.3898 8.48425 53.2203 8.34292C52.9944 8.15448 52.7531 8.08749 52.4965 8.14195C52.2398 8.19641 51.9912 8.36788 51.7506 8.65634C51.5235 8.92867 51.4061 9.20109 51.3986 9.4736C51.3911 9.7461 51.4943 9.97153 51.7081 10.1499C51.8907 10.3021 52.0875 10.3701 52.2986 10.3538C52.5098 10.3375 52.6972 10.2394 52.8609 10.0596ZM54.8241 11.7905L55.4374 12.4551L56.0738 11.2565L54.8241 11.7905ZM53.3689 11.9914L56.2324 10.8153L56.5276 11.1353L55.1285 13.8982L54.8386 13.584L55.2672 12.7703L54.4923 11.9306L53.6454 12.2911L53.3689 11.9914ZM58.0047 13.4246L57.593 12.8862L55.8356 14.2302L56.2473 14.7685C56.4236 14.9991 56.6317 15.1161 56.8715 15.1195C57.1114 15.1229 57.3779 15.0125 57.6711 14.7883C57.9518 14.5737 58.1208 14.3494 58.1782 14.1153C58.2357 13.8812 58.1778 13.651 58.0047 13.4246ZM55.3145 14.1326L57.6198 12.3698L58.2911 13.2477C58.5368 13.5691 58.6289 13.8884 58.5674 14.2058C58.5059 14.5232 58.2941 14.8203 57.9321 15.0972C57.5575 15.3836 57.1986 15.518 56.8552 15.5003C56.5118 15.4826 56.2189 15.3152 55.9763 14.998L55.3145 14.1326ZM59.3333 15.4363L57.2213 16.7218L57.0328 16.4122L59.5117 14.9034L59.8047 15.3847L58.2819 17.1533C58.239 17.2041 58.2052 17.2427 58.1806 17.2692C58.156 17.2957 58.1338 17.318 58.1141 17.3362C58.1611 17.3199 58.2036 17.3063 58.2416 17.2955C58.2796 17.2847 58.3163 17.2754 58.3516 17.2678L60.6354 16.7495L60.9294 17.2325L58.4504 18.7413L58.2517 18.4148L60.3638 17.1293C60.3231 17.1433 60.2814 17.1564 60.2388 17.1685C60.1962 17.1806 60.1536 17.1919 60.1108 17.2026L57.8277 17.7181L57.6341 17.4L59.15 15.624C59.1746 15.5937 59.2021 15.5631 59.2326 15.5323C59.263 15.5014 59.2966 15.4695 59.3333 15.4363ZM58.7198 19.3136L61.3053 17.9957L61.4842 18.3468L58.8988 19.6647L58.7198 19.3136ZM59.197 20.2259L61.8661 19.0869L62.0355 19.4837L60.6287 21.5578C60.5982 21.6036 60.5687 21.6448 60.54 21.6813C60.5113 21.7178 60.4832 21.7491 60.4558 21.7751L62.6193 20.8518L62.767 21.1978L60.0979 22.3369L59.9301 21.9437L61.3525 19.8308C61.3745 19.7986 61.3983 19.7674 61.4239 19.7372C61.4496 19.7069 61.4774 19.6769 61.5075 19.6469L59.344 20.5702L59.197 20.2259ZM60.2934 22.9313L63.0339 21.9768L63.1635 22.3489L60.423 23.3034L60.2934 22.9313ZM61.5224 23.5195L61.6245 23.8857C61.4232 23.946 61.2807 24.0584 61.197 24.2228C61.1134 24.3873 61.1021 24.579 61.1632 24.7978C61.2235 25.0141 61.3166 25.1719 61.4425 25.2711C61.5683 25.3703 61.7097 25.398 61.8666 25.3542C62.0804 25.2946 62.1776 25.0152 62.1583 24.5161C62.1569 24.4865 62.156 24.4635 62.1555 24.4473C62.1395 24.0427 62.1697 23.7639 62.2464 23.611C62.323 23.458 62.4632 23.3531 62.6669 23.2963C62.9161 23.2268 63.1417 23.262 63.3437 23.402C63.5457 23.542 63.6889 23.7631 63.7732 24.0655C63.8594 24.3742 63.8477 24.6392 63.7384 24.8606C63.629 25.082 63.4362 25.2327 63.1598 25.3125L63.0568 24.9506C63.2405 24.8857 63.3664 24.7821 63.4344 24.6397C63.5024 24.4973 63.5087 24.3268 63.4532 24.1282C63.4014 23.9422 63.3191 23.805 63.2064 23.7164C63.0938 23.6278 62.9698 23.6024 62.8344 23.6402C62.6181 23.7006 62.521 23.9758 62.5432 24.466C62.5458 24.5389 62.5478 24.5949 62.5492 24.634C62.5501 24.642 62.5506 24.6562 62.5508 24.6765C62.5627 24.9977 62.5407 25.2193 62.4847 25.3413C62.4423 25.4336 62.3813 25.512 62.3018 25.5764C62.2223 25.6409 62.1269 25.6886 62.0156 25.7197C61.7461 25.7949 61.5047 25.7582 61.2915 25.6098C61.0783 25.4613 60.9258 25.2227 60.834 24.8937C60.7394 24.5547 60.7515 24.2667 60.8701 24.0297C60.9888 23.7928 61.2062 23.6227 61.5224 23.5195ZM61.4264 27.0558L63.9312 26.5811L63.7606 25.681L64.1071 25.6154L64.522 27.8046L64.1755 27.8703L64.0049 26.9702L61.5002 27.4448L61.4264 27.0558ZM64.3045 28.8158L63.3265 28.9157L63.3949 29.5859C63.4195 29.8277 63.4762 29.9945 63.5648 30.0865C63.6534 30.1784 63.7892 30.2151 63.9721 30.1964C64.1432 30.1789 64.2593 30.1195 64.3203 30.0183C64.3812 29.917 64.3987 29.7396 64.3729 29.4861L64.3045 28.8158ZM64.6043 28.3971L64.7185 29.5162C64.7371 29.6978 64.7429 29.8322 64.7359 29.9194C64.729 30.0066 64.7107 30.086 64.681 30.1577C64.6268 30.286 64.5435 30.3879 64.431 30.4634C64.3186 30.5389 64.182 30.5849 64.0213 30.6013C63.8658 30.6172 63.7295 30.5974 63.6123 30.542C63.4951 30.4867 63.3984 30.3962 63.3222 30.2706C63.3023 30.3862 63.2575 30.4716 63.1879 30.5269C63.1183 30.5822 62.9953 30.6248 62.8188 30.6547L62.3459 30.7367C62.2447 30.7536 62.1699 30.7748 62.1217 30.8001C62.0734 30.8255 62.0409 30.8595 62.0242 30.9022L61.9438 30.9104L61.8976 30.4576C61.954 30.4149 62.0801 30.3763 62.2759 30.3418C62.2811 30.3413 62.285 30.3409 62.2877 30.3406L62.6616 30.2787C62.8536 30.2459 62.9748 30.1919 63.0253 30.1168C63.0757 30.0417 63.0868 29.8656 63.0585 29.5886L62.9937 28.9536L61.757 29.0798L61.7173 28.6918L64.6043 28.3971ZM63.171 31.8618L63.1824 32.766L64.4572 32.3008L63.171 31.8618ZM61.9549 31.0377L64.8702 32.0789L64.8756 32.5142L61.9874 33.6321L61.9821 33.2046L62.845 32.8864L62.8307 31.7439L61.96 31.4455L61.9549 31.0377ZM61.9154 34.5688L64.4585 34.7469L64.5225 33.8331L64.8743 33.8577L64.7186 36.0804L64.3668 36.0558L64.4309 35.1419L61.8878 34.9638L61.9154 34.5688ZM61.7628 36.2303L64.6414 36.598L64.5915 36.9888L61.7129 36.6212L61.7628 36.2303ZM63.0107 37.8196C62.6463 37.7463 62.3445 37.7729 62.1053 37.8996C61.8661 38.0263 61.7166 38.2383 61.6567 38.5358C61.5971 38.8319 61.6532 39.084 61.825 39.2921C61.9968 39.5002 62.2649 39.6409 62.6293 39.7143C62.9949 39.7879 63.2969 39.762 63.5352 39.6364C63.7735 39.5109 63.9225 39.3001 63.9821 39.0039C64.042 38.7065 63.9864 38.4532 63.8156 38.2439C63.6447 38.0347 63.3764 37.8933 63.0107 37.8196ZM63.0912 37.4198C63.5612 37.5145 63.9044 37.7078 64.1209 37.9999C64.3374 38.2921 64.4032 38.6493 64.3181 39.0716C64.2334 39.4926 64.0351 39.7954 63.7233 39.9798C63.4115 40.1642 63.02 40.209 62.5488 40.1141C62.0788 40.0195 61.7354 39.8267 61.5187 39.5359C61.3019 39.2451 61.2359 38.8892 61.3207 38.4681C61.4057 38.0458 61.6045 37.7418 61.9172 37.5563C62.2299 37.3707 62.6212 37.3252 63.0912 37.4198ZM60.9947 40.3064L63.7646 41.1719L63.6359 41.5837L61.2196 42.2488C61.1667 42.2639 61.1175 42.276 61.072 42.2852C61.0265 42.2944 60.9848 42.2999 60.947 42.3019L63.1923 43.0034L63.0801 43.3626L60.3102 42.4971L60.4377 42.0891L62.891 41.4046C62.9286 41.3943 62.967 41.386 63.0061 41.3797C63.0453 41.3733 63.086 41.3685 63.1283 41.3652L60.883 40.6637L60.9947 40.3064Z" fill="#263F78"/>
<path d="M5.56914 47.5353L7.11715 46.6154L7.31842 46.9542L5.76702 47.876C5.5333 48.0149 5.39124 48.1692 5.34085 48.3389C5.29045 48.5087 5.32967 48.7019 5.45849 48.9187C5.58596 49.1332 5.7378 49.2596 5.91401 49.2977C6.09022 49.3359 6.29349 49.2865 6.52383 49.1496L8.07523 48.2278L8.27751 48.5682L6.7295 49.4881C6.39528 49.6866 6.0912 49.7508 5.81726 49.6806C5.54332 49.6104 5.30705 49.4082 5.10846 49.074C4.92328 48.7624 4.86909 48.4783 4.94587 48.2219C5.02264 47.9654 5.2304 47.7365 5.56914 47.5353ZM6.21218 50.6662L6.57451 50.4177L6.80291 50.7508L6.44058 50.9992L6.21218 50.6662ZM7.54457 50.9384L7.77826 51.2383C7.61492 51.3706 7.52581 51.5287 7.51094 51.7126C7.49606 51.8965 7.55845 52.0781 7.69811 52.2573C7.83614 52.4345 7.98222 52.5451 8.13633 52.589C8.29044 52.6329 8.43172 52.6048 8.5602 52.5047C8.73529 52.3683 8.71908 52.0729 8.51157 51.6185C8.49899 51.5917 8.48941 51.5709 8.48283 51.556C8.31421 51.1879 8.23628 50.9185 8.24904 50.7479C8.26179 50.5773 8.35157 50.427 8.51838 50.297C8.72247 50.138 8.94455 50.0848 9.1846 50.1376C9.42465 50.1903 9.64114 50.3405 9.83408 50.5881C10.031 50.8409 10.121 51.0904 10.104 51.3368C10.087 51.5832 9.96586 51.7958 9.74059 51.9746L9.50775 51.679C9.65301 51.5492 9.73004 51.4055 9.73884 51.248C9.74762 51.0904 9.68865 50.9303 9.56191 50.7677C9.44325 50.6154 9.31498 50.5197 9.17712 50.4806C9.03926 50.4415 8.9149 50.4651 8.80404 50.5515C8.62688 50.6895 8.6417 50.981 8.84852 51.4259C8.87864 51.4924 8.90178 51.5434 8.91794 51.5791C8.92174 51.5862 8.92763 51.599 8.93559 51.6178C9.06866 51.9104 9.13249 52.1237 9.12708 52.2578C9.1229 52.3593 9.09629 52.455 9.04724 52.5448C8.99818 52.6347 8.92807 52.7151 8.8369 52.7861C8.61622 52.9581 8.37906 53.0159 8.12542 52.9596C7.87177 52.9033 7.64 52.7405 7.43012 52.4711C7.21378 52.1935 7.11546 51.9225 7.13516 51.6583C7.15486 51.394 7.29133 51.154 7.54457 50.9384ZM8.60219 53.7733L8.93172 53.4828L9.19883 53.7857L8.8693 54.0763L8.60219 53.7733ZM12.7452 54.3641L12.2476 53.904L10.7455 55.5283L11.2431 55.9885C11.4562 56.1855 11.6812 56.2653 11.9181 56.2277C12.155 56.19 12.3988 56.0358 12.6494 55.7648C12.8893 55.5054 13.0175 55.2555 13.0341 55.0151C13.0508 54.7746 12.9545 54.5576 12.7452 54.3641ZM10.2154 55.5211L12.1858 53.3906L12.9972 54.141C13.2942 54.4156 13.4395 54.7146 13.4331 55.0378C13.4266 55.361 13.2687 55.6899 12.9593 56.0245C12.6391 56.3707 12.3084 56.5644 11.967 56.6056C11.6257 56.6469 11.3085 56.5319 11.0153 56.2608L10.2154 55.5211ZM12.413 57.5019L14.19 55.2077L15.8254 56.4744L15.6046 56.7594L14.2776 55.7315L13.7468 56.4169L14.9726 57.3663L14.7651 57.6342L13.5393 56.6848L12.9433 57.4542L14.2968 58.5025L14.0749 58.7891L12.413 57.5019ZM15.7406 58.0151L16.2957 58.3758C16.4884 58.501 16.6431 58.5577 16.7597 58.5457C16.8763 58.5338 16.9833 58.4529 17.0806 58.3032C17.1744 58.1589 17.2037 58.0307 17.1685 57.9185C17.1333 57.8064 17.027 57.6927 16.8497 57.5775L16.2699 57.2007L15.7406 58.0151ZM14.5525 59.1203L16.1338 56.687L17.0292 57.2688C17.1745 57.3633 17.2805 57.4424 17.3472 57.506C17.4139 57.5697 17.4663 57.6374 17.5043 57.7091C17.5683 57.8275 17.5924 57.9567 17.5766 58.0968C17.5607 58.2369 17.5066 58.3779 17.4143 58.52C17.3263 58.6555 17.2222 58.7578 17.1021 58.827C16.9819 58.8961 16.8512 58.9286 16.7098 58.9245C16.6285 58.9218 16.5437 58.9023 16.4553 58.866C16.3669 58.8297 16.2324 58.7528 16.0517 58.6355L15.5496 58.3091L14.8829 59.335L14.5525 59.1203ZM17.8171 59.7225L18.6136 60.1507L18.8244 58.8101L17.8171 59.7225ZM16.507 60.387L18.8304 58.3414L19.2139 58.5475L18.7922 61.6157L18.4157 61.4132L18.5555 60.5042L17.5491 59.9631L16.8662 60.5801L16.507 60.387ZM20.5316 59.5837L20.1415 60.4861L20.76 60.7534C20.983 60.8498 21.1563 60.8818 21.2798 60.8493C21.4033 60.8168 21.5015 60.7162 21.5745 60.5474C21.6427 60.3895 21.6475 60.2592 21.5889 60.1566C21.5302 60.054 21.3839 59.9521 21.15 59.851L20.5316 59.5837ZM20.3123 59.1176L21.3449 59.564C21.5125 59.6364 21.6327 59.6969 21.7054 59.7455C21.7781 59.7941 21.8385 59.8488 21.8866 59.9097C21.9721 60.0196 22.0204 60.1421 22.0315 60.2771C22.0425 60.4121 22.016 60.5537 21.9519 60.702C21.8899 60.8455 21.8062 60.9548 21.7006 61.0301C21.5951 61.1054 21.469 61.1457 21.3222 61.1509C21.4134 61.2247 21.4661 61.3054 21.4804 61.3932C21.4947 61.4809 21.4719 61.6091 21.4118 61.7778L21.2526 62.2305C21.218 62.3271 21.2 62.4027 21.1987 62.4572C21.1973 62.5117 21.2111 62.5567 21.2401 62.5921L21.2081 62.6662L20.7904 62.4857C20.7806 62.4156 20.8084 62.2867 20.8738 62.0989C20.8759 62.0941 20.8775 62.0905 20.8785 62.0881L21.0069 61.7315C21.0719 61.5479 21.084 61.4157 21.043 61.335C21.002 61.2544 20.8538 61.1588 20.5982 61.0483L20.0123 60.7951L19.519 61.9362L19.161 61.7814L20.3123 59.1176ZM22.3383 63.0574L23.1561 60.6428L22.2884 60.3489L22.4015 60.0149L24.512 60.7297L24.3988 61.0637L23.5312 60.7698L22.7134 63.1844L22.3383 63.0574ZM24.9429 61.295L24.3683 63.6997L24.0157 63.6155L24.6901 60.793L25.2382 60.9239L25.4215 63.2506C25.4273 63.3168 25.431 63.3679 25.4325 63.4041C25.4339 63.4402 25.4342 63.4717 25.4332 63.4985C25.4547 63.4536 25.475 63.4139 25.4941 63.3793C25.5131 63.3447 25.5324 63.3122 25.5518 63.2817L26.7922 61.2953L27.3421 61.4267L26.6677 64.2492L26.2959 64.1604L26.8706 61.7556C26.8518 61.7943 26.8318 61.8331 26.8104 61.8718C26.7889 61.9106 26.767 61.9489 26.7444 61.9867L25.5026 63.9708L25.1405 63.8843L24.9471 61.5573C24.9428 61.5184 24.9405 61.4774 24.94 61.434C24.9396 61.3907 24.9405 61.3444 24.9429 61.295ZM27.3879 64.3661L27.7886 61.4919L29.8374 61.7775L29.7876 62.1346L28.1251 61.9028L28.0055 62.7614L29.5411 62.9754L29.4943 63.311L27.9587 63.097L27.8243 64.0609L29.5199 64.2972L29.4699 64.6563L27.3879 64.3661ZM30.0448 64.7113L30.1903 61.8129L30.6212 61.8346L31.8692 64.0079C31.8971 64.0553 31.9211 64.0999 31.9414 64.1417C31.9617 64.1835 31.9775 64.2224 31.9888 64.2585L32.1067 61.9092L32.4826 61.928L32.3371 64.8264L31.9101 64.8049L30.634 62.6006C30.6147 62.5667 30.597 62.5317 30.5811 62.4954C30.5652 62.4591 30.5503 62.4208 30.5366 62.3807L30.4186 64.73L30.0448 64.7113ZM33.7 64.7984L33.6158 62.2505L32.7002 62.2807L32.6886 61.9283L34.9156 61.8547L34.9272 62.2071L34.0116 62.2374L34.0958 64.7853L33.7 64.7984ZM36.7199 63.1313C36.7783 63.4984 36.9087 63.7719 37.1109 63.9518C37.3131 64.1317 37.564 64.1978 37.8636 64.1501C38.1619 64.1026 38.3786 63.9621 38.5136 63.7284C38.6487 63.4948 38.6869 63.1944 38.6285 62.8274C38.5698 62.459 38.4401 62.1851 38.2393 62.0056C38.0385 61.8261 37.7889 61.7601 37.4906 61.8076C37.191 61.8554 36.9729 61.9958 36.8365 62.229C36.7001 62.4622 36.6612 62.763 36.7199 63.1313ZM36.3171 63.1955C36.2417 62.722 36.3031 62.3329 36.5013 62.028C36.6994 61.7232 37.0112 61.5369 37.4367 61.4691C37.8608 61.4016 38.2137 61.4817 38.4954 61.7095C38.777 61.9373 38.9556 62.2885 39.0312 62.7632C39.1066 63.2367 39.0459 63.6257 38.849 63.9304C38.6522 64.235 38.3417 64.4211 37.9175 64.4887C37.4921 64.5564 37.1378 64.4762 36.8548 64.2479C36.5717 64.0197 36.3925 63.6689 36.3171 63.1955ZM39.8472 64.0496L39.1376 61.2357L41.0269 60.7593L41.1161 61.1128L39.6088 61.4928L39.8217 62.3372L41.1379 62.0053L41.2246 62.3491L39.9084 62.681L40.2292 63.9533L39.8472 64.0496ZM44.8808 61.3131L45.2371 61.1748C45.3491 61.5103 45.3386 61.8162 45.2057 62.0926C45.0728 62.3689 44.841 62.5713 44.5105 62.6996C44.1297 62.8475 43.7809 62.8336 43.464 62.658C43.1471 62.4823 42.8995 62.1649 42.7212 61.7058C42.5567 61.2822 42.5394 60.9018 42.6691 60.5647C42.7989 60.2276 43.056 59.9844 43.4404 59.8351C43.7465 59.7163 44.0278 59.6979 44.2845 59.78C44.5411 59.8621 44.7377 60.0337 44.8743 60.2949L44.5144 60.4347C44.4107 60.2692 44.2759 60.1634 44.11 60.1172C43.9441 60.071 43.7583 60.0879 43.5527 60.1677C43.2784 60.2742 43.103 60.4529 43.0264 60.7039C42.9499 60.9548 42.9796 61.2554 43.1155 61.6055C43.2439 61.9361 43.4255 62.1706 43.6603 62.3091C43.8951 62.4476 44.1423 62.4664 44.4019 62.3656C44.6235 62.2796 44.7783 62.1402 44.8662 61.9476C44.9541 61.7549 44.959 61.5434 44.8808 61.3131ZM45.7479 60.5253C45.9154 60.8571 46.1229 61.0779 46.3703 61.1877C46.6177 61.2974 46.8768 61.2839 47.1477 61.1472C47.4173 61.011 47.5809 60.8111 47.6383 60.5474C47.6957 60.2838 47.6406 59.986 47.4731 59.6542C47.305 59.3213 47.0979 59.0999 46.852 58.9901C46.606 58.8804 46.3482 58.8936 46.0786 59.0297C45.8077 59.1665 45.6429 59.3667 45.584 59.6304C45.5251 59.894 45.5797 60.1924 45.7479 60.5253ZM45.3838 60.7091C45.1677 60.2812 45.1076 59.8919 45.2035 59.5411C45.2993 59.1904 45.5395 58.9179 45.924 58.7237C46.3074 58.5302 46.668 58.4989 47.0056 58.6301C47.3433 58.7612 47.6205 59.0413 47.8371 59.4704C48.0532 59.8984 48.1139 60.2874 48.0192 60.6376C47.9246 60.9877 47.6856 61.2596 47.3022 61.4532C46.9176 61.6473 46.5558 61.6789 46.2166 61.5477C45.8775 61.4166 45.5999 61.1371 45.3838 60.7091ZM47.9825 58.186L49.3203 60.2654L49.0154 60.4615L47.4453 58.021L47.9192 57.7161L49.7252 59.1943C49.777 59.2359 49.8164 59.2687 49.8436 59.2927C49.8707 59.3166 49.8936 59.3382 49.9122 59.3575C49.8947 59.3109 49.8801 59.2688 49.8683 59.2311C49.8566 59.1933 49.8464 59.1569 49.8379 59.1218L49.2628 56.8516L49.7384 56.5457L51.3085 58.9862L50.9871 59.193L49.6493 57.1137C49.6643 57.154 49.6784 57.1953 49.6916 57.2376C49.7047 57.2799 49.7171 57.3223 49.7288 57.3647L50.3011 59.6343L49.988 59.8358L48.1747 58.3646C48.1438 58.3408 48.1125 58.314 48.0809 58.2844C48.0494 58.2547 48.0166 58.2219 47.9825 58.186ZM50.63 56.4068L52.1825 58.3311L51.9004 58.5587L50.0782 56.3002L50.5167 55.9464L52.4705 57.2228C52.5265 57.2587 52.5692 57.2871 52.5987 57.308C52.6282 57.3289 52.6533 57.3479 52.6739 57.365C52.6515 57.3206 52.6325 57.2803 52.6168 57.2441C52.601 57.2078 52.587 57.1727 52.5748 57.1387L51.7602 54.9431L52.2002 54.588L54.0224 56.8465L53.725 57.0865L52.1724 55.1623C52.1917 55.2008 52.2101 55.2403 52.2277 55.281C52.2453 55.3216 52.2622 55.3624 52.2784 55.4034L53.0902 57.5987L52.8004 57.8325L50.8402 56.5638C50.8068 56.5434 50.7729 56.5201 50.7383 56.494C50.7038 56.4679 50.6676 56.4388 50.63 56.4068ZM54.5555 56.3484L52.5274 54.2728L54.0069 52.8271L54.2589 53.0849L53.0583 54.258L53.6642 54.878L54.7731 53.7944L55.0099 54.0368L53.901 55.1204L54.5812 55.8165L55.8057 54.62L56.059 54.8792L54.5555 56.3484ZM54.7684 52.4867L55.5124 53.1293L55.9528 52.6194C56.1116 52.4355 56.194 52.2798 56.2001 52.1522C56.2061 52.0247 56.1395 51.9008 56.0004 51.7806C55.8702 51.6681 55.7473 51.6245 55.6318 51.6497C55.5163 51.6749 55.3753 51.7839 55.2088 51.9768L54.7684 52.4867ZM54.258 52.5561L54.9933 51.7048C55.1127 51.5666 55.2064 51.4701 55.2746 51.4153C55.3427 51.3605 55.413 51.3193 55.4855 51.2917C55.6161 51.243 55.7474 51.2336 55.8794 51.2635C56.0115 51.2935 56.1387 51.3612 56.261 51.4668C56.3793 51.569 56.4585 51.6817 56.4987 51.8049C56.5389 51.9281 56.5395 52.0606 56.5005 52.2022C56.5982 52.1373 56.6911 52.1112 56.7791 52.1238C56.867 52.1365 56.9825 52.1967 57.1254 52.3045L57.5096 52.5921C57.5914 52.6541 57.6581 52.6939 57.7097 52.7116C57.7613 52.7292 57.8083 52.7295 57.8508 52.7124L57.912 52.7652L57.6145 53.1096C57.5447 53.098 57.4301 53.0328 57.2706 52.9141C57.2666 52.9106 57.2636 52.9081 57.2616 52.9064L56.9599 52.677C56.8042 52.5599 56.6817 52.5088 56.5925 52.5237C56.5033 52.5386 56.3676 52.6514 56.1856 52.8621L55.7684 53.3452L56.7092 54.1578L56.4542 54.453L54.258 52.5561ZM58.5625 50.0499L58.7856 49.7395C59.0625 49.9596 59.2207 50.2216 59.2602 50.5257C59.2996 50.8298 59.2159 51.1259 59.009 51.4138C58.7706 51.7456 58.4708 51.9243 58.1094 51.9501C57.748 51.9759 57.3673 51.8451 56.9673 51.5577C56.5983 51.2925 56.3761 50.9833 56.3008 50.63C56.2255 50.2767 56.3082 49.9326 56.5489 49.5977C56.7405 49.331 56.9662 49.1621 57.226 49.0908C57.4859 49.0195 57.7443 49.056 58.0013 49.2003L57.776 49.5139C57.5988 49.4318 57.4281 49.4167 57.2639 49.4686C57.0997 49.5204 56.9532 49.6359 56.8245 49.8151C56.6528 50.054 56.6034 50.2995 56.6762 50.5516C56.749 50.8036 56.9379 51.0392 57.243 51.2584C57.531 51.4654 57.8111 51.5627 58.0835 51.5506C58.3558 51.5385 58.5732 51.4193 58.7357 51.1932C58.8744 51.0002 58.928 50.7989 58.8966 50.5895C58.8651 50.3801 58.7537 50.2002 58.5625 50.0499ZM59.9623 49.8826L57.4658 48.403L58.5205 46.6235L58.8307 46.8073L57.9749 48.2513L58.7206 48.6932L59.5111 47.3594L59.8026 47.5322L59.0121 48.866L59.8493 49.3622L60.7222 47.8894L61.034 48.0743L59.9623 49.8826Z" fill="#263F78"/>
</svg>
