<svg id="siemens" width="146" height="24" viewBox="0 0 146 24" fill="none" xmlns="http://www.w3.org/2000/svg">
<path fill-rule="evenodd" clip-rule="evenodd" d="M144.041 0.971969V5.30407C141.796 4.45681 139.798 4.02842 138.049 4.02842C137.013 4.02842 136.188 4.22024 135.568 4.5911C134.948 4.96516 134.631 5.42558 134.631 5.96909C134.631 6.69164 135.332 7.33422 136.742 7.90976L140.815 9.89197C144.108 11.4618 145.741 13.5463 145.741 16.1647C145.741 18.342 144.875 20.078 143.126 21.3633C141.39 22.6614 139.053 23.3039 136.144 23.3039C134.801 23.3039 133.596 23.2464 132.525 23.1249C131.454 23.0099 130.223 22.7732 128.857 22.4343V17.9008C131.361 18.7481 133.64 19.1764 135.693 19.1764C138.142 19.1764 139.36 18.4667 139.36 17.0344C139.36 16.3214 138.861 15.7459 137.848 15.2951L133.324 13.3672C131.655 12.6127 130.414 11.6983 129.602 10.6145C128.803 9.52111 128.397 8.26784 128.397 6.83552C128.397 4.83086 129.241 3.21631 130.91 1.98861C132.592 0.770486 134.823 0.159864 137.598 0.159864C138.5 0.159864 139.539 0.23976 140.69 0.386841C141.851 0.54351 142.966 0.735331 144.041 0.971969Z" fill="#009999"/>
<path fill-rule="evenodd" clip-rule="evenodd" d="M15.9123 0.97197V5.30407C13.6679 4.45681 11.6729 4.02842 9.92407 4.02842C8.88499 4.02842 8.06337 4.22024 7.44309 4.5911C6.82288 4.96516 6.50634 5.42558 6.50634 5.96909C6.50634 6.69164 7.21611 7.33422 8.62605 7.90976L12.6992 9.89197C15.9794 11.4618 17.6164 13.5463 17.6164 16.1647C17.6164 18.342 16.7468 20.078 15.0107 21.3633C13.2619 22.6614 10.9376 23.3039 8.01863 23.3039C6.6758 23.3039 5.46726 23.2464 4.39622 23.1249C3.32518 23.0099 2.10706 22.7732 0.732347 22.4343V17.9008C3.24529 18.7481 5.52486 19.1764 7.5646 19.1764C10.0136 19.1764 11.2317 18.4667 11.2317 17.0344C11.2317 16.3214 10.7362 15.7459 9.73225 15.2951L5.20833 13.3672C3.52659 12.6127 2.2861 11.6983 1.48685 10.6145C0.674748 9.52111 0.27832 8.26784 0.27832 6.83552C0.27832 4.83086 1.11599 3.21632 2.79446 1.98861C4.46341 0.770486 6.69817 0.159864 9.47331 0.159864C10.3845 0.159864 11.4108 0.23976 12.5745 0.386841C13.7255 0.54351 14.8413 0.735332 15.9123 0.97197Z" fill="#009999"/>
<path fill-rule="evenodd" clip-rule="evenodd" d="M20.5796 0.565882H27.2137V22.8979H20.5796V0.565882Z" fill="#009999"/>
<path fill-rule="evenodd" clip-rule="evenodd" d="M48.5871 0.565882V4.69345H38.7303V9.64575H47.2795V13.3672H38.7303V18.5658H48.7886V22.8979H32.3457V0.565882H48.5871Z" fill="#009999"/>
<path fill-rule="evenodd" clip-rule="evenodd" d="M79.5576 0.565882V22.8979H73.3644V8.16869L66.9386 23.1025H63.1148L56.9347 8.16869V22.8979H52.4556V0.565882H60.5539L66.0817 14.2369L71.8654 0.565882H79.5576Z" fill="#009999"/>
<path fill-rule="evenodd" clip-rule="evenodd" d="M100.921 0.565882V4.69345H91.1181V9.64575H99.6673V13.3672H91.1181V18.5658H101.122V22.8979H84.6797V0.565882H100.921Z" fill="#009999"/>
<path fill-rule="evenodd" clip-rule="evenodd" d="M124.199 0.565882V22.8979H117.162L109.265 8.57471V22.8979H104.789V0.565882H112.031L119.723 14.6429V0.565882H124.199Z" fill="#009999"/>
</svg>
