<svg id="swisstopo" width="204" height="51" viewBox="0 0 204 51" fill="none" xmlns="http://www.w3.org/2000/svg">
<path d="M39.653 9.08187C40.0529 9.33534 40.5205 9.48174 41.1546 9.48174C41.9937 9.48174 42.6864 9.05259 42.6864 8.08723C42.6864 6.75037 39.5652 6.58474 39.5652 4.80043C39.5652 3.70788 40.5214 3.02526 41.721 3.02526C42.0522 3.02526 42.5885 3.07376 43.057 3.24944L42.9499 3.86435C42.6479 3.69781 42.1694 3.61088 41.7109 3.61088C41.0091 3.61088 40.2387 3.90369 40.2387 4.78121C40.2387 6.14736 43.3598 6.15651 43.3598 8.14671C43.3598 9.522 42.1804 10.0683 41.1262 10.0683C40.4628 10.0683 39.9468 9.93194 39.5853 9.77547L39.653 9.08187Z" fill="#AEB6C7"/>
<path d="M48.646 5.63768C48.3148 5.49128 47.9149 5.38422 47.5827 5.38422C46.3831 5.38422 45.7097 6.25259 45.7097 7.46135C45.7097 8.59324 46.3923 9.53939 47.5141 9.53939C47.9048 9.53939 48.2653 9.45155 48.6359 9.31521L48.6945 9.89076C48.2745 10.0372 47.8847 10.0664 47.4171 10.0664C45.8167 10.0664 45.0371 8.84671 45.0371 7.46226C45.0371 5.93049 46.0226 4.85807 47.4958 4.85807C48.0906 4.85807 48.5197 4.99441 48.6954 5.05298L48.646 5.63768Z" fill="#AEB6C7"/>
<path d="M50.4988 2.63363H51.1137V5.81337H51.1338C51.3973 5.26709 51.9528 4.85716 52.6848 4.85716C54.0217 4.85716 54.3822 5.74474 54.3822 6.97363V9.94841H53.7682V6.98461C53.7682 6.12631 53.6026 5.38513 52.5878 5.38513C51.4953 5.38513 51.1146 6.41912 51.1146 7.28749V9.95024H50.5006V2.63363H50.4988Z" fill="#AEB6C7"/>
<path d="M61.7951 9.94932H61.0539L59.6978 5.64775H59.6777L58.3216 9.94932H57.5804L55.981 4.97428H56.6535L57.9602 9.27677H57.9803L59.3657 4.97428H60.1068L61.4236 9.27677H61.4428L62.8181 4.97428H63.433L61.7951 9.94932Z" fill="#AEB6C7"/>
<path d="M68.3694 9.79377C67.9402 9.96946 67.3839 10.0664 66.9255 10.0664C65.2775 10.0664 64.6626 8.95468 64.6626 7.46226C64.6626 5.94056 65.5017 4.85807 66.7599 4.85807C68.1644 4.85807 68.74 5.98997 68.74 7.32592V7.63795H65.3351C65.3351 8.69207 65.9016 9.54031 66.974 9.54031C67.4223 9.54031 68.0766 9.35455 68.3694 9.16972V9.79377ZM68.0665 7.11089C68.0665 6.24252 67.7152 5.38422 66.7992 5.38422C65.8915 5.38422 65.3361 6.29102 65.3361 7.11089H68.0665Z" fill="#AEB6C7"/>
<path d="M71.2849 3.6484H70.6709V2.82944H71.2849V3.6484ZM70.6709 4.9752H71.2849V9.95024H70.6709V4.9752Z" fill="#AEB6C7"/>
<path d="M73.1387 9.43325L76.1336 5.50134H73.2558V4.9752H76.8455V5.50226L73.8515 9.42318H76.8455V9.95024H73.1396V9.43325H73.1387Z" fill="#AEB6C7"/>
<path d="M82.0247 9.79377C81.5955 9.96946 81.0392 10.0664 80.5808 10.0664C78.9328 10.0664 78.3179 8.95468 78.3179 7.46226C78.3179 5.94056 79.157 4.85807 80.4151 4.85807C81.8197 4.85807 82.3953 5.98997 82.3953 7.32592V7.63795H78.9904C78.9904 8.69207 79.5568 9.54031 80.6292 9.54031C81.0776 9.54031 81.7319 9.35455 82.0247 9.16972V9.79377ZM81.7218 7.11089C81.7218 6.24252 81.3704 5.38422 80.4545 5.38422C79.5468 5.38422 78.9913 6.29102 78.9913 7.11089H81.7218Z" fill="#AEB6C7"/>
<path d="M84.3258 6.08697C84.3258 5.54069 84.3258 5.33572 84.2874 4.9752H84.9013V5.93049H84.9206C85.1447 5.37507 85.5647 4.85807 86.1989 4.85807C86.3453 4.85807 86.521 4.88736 86.628 4.91664V5.56082C86.5008 5.52147 86.3352 5.50226 86.1796 5.50226C85.2042 5.50226 84.9407 6.59481 84.9407 7.49246V9.95115H84.3258V6.08697Z" fill="#AEB6C7"/>
<path d="M88.9496 3.6484H88.3347V2.82944H88.9496V3.6484ZM88.3347 4.9752H88.9496V9.95024H88.3347V4.9752Z" fill="#AEB6C7"/>
<path d="M90.8813 9.22828C91.2518 9.41403 91.7011 9.54031 92.1788 9.54031C92.7644 9.54031 93.2805 9.21821 93.2805 8.65272C93.2805 7.47324 90.8904 7.65808 90.8904 6.21416C90.8904 5.22866 91.6901 4.85807 92.51 4.85807C92.7735 4.85807 93.3006 4.91664 93.7389 5.08317L93.6803 5.61938C93.3583 5.47298 92.9199 5.38513 92.5786 5.38513C91.9445 5.38513 91.5053 5.58004 91.5053 6.21416C91.5053 7.14109 93.9539 7.02396 93.9539 8.65272C93.9539 9.70684 92.9684 10.0664 92.2172 10.0664C91.7396 10.0664 91.261 10.0079 90.8218 9.83312L90.8813 9.22828Z" fill="#AEB6C7"/>
<path d="M99.0542 5.63768C98.723 5.49128 98.3231 5.38422 97.9909 5.38422C96.7913 5.38422 96.1179 6.25259 96.1179 7.46135C96.1179 8.59324 96.8005 9.53939 97.9223 9.53939C98.313 9.53939 98.6736 9.45155 99.0441 9.31521L99.1027 9.89076C98.6836 10.0372 98.2929 10.0664 97.8253 10.0664C96.2249 10.0664 95.4453 8.84671 95.4453 7.46226C95.4453 5.93049 96.4308 4.85807 97.904 4.85807C98.4988 4.85807 98.9279 4.99441 99.1036 5.05298L99.0542 5.63768Z" fill="#AEB6C7"/>
<path d="M100.907 2.63363H101.522V5.81337H101.541C101.805 5.26709 102.361 4.85716 103.092 4.85716C104.429 4.85716 104.79 5.74474 104.79 6.97363V9.94841H104.176V6.98461C104.176 6.12631 104.01 5.38513 102.996 5.38513C101.904 5.38513 101.523 6.41912 101.523 7.28749V9.95024H100.908V2.63363H100.907Z" fill="#AEB6C7"/>
<path d="M110.428 9.79377C109.999 9.96946 109.443 10.0664 108.984 10.0664C107.336 10.0664 106.721 8.95468 106.721 7.46226C106.721 5.94056 107.561 4.85807 108.819 4.85807C110.223 4.85807 110.799 5.98997 110.799 7.32592V7.63795H107.394C107.394 8.69207 107.96 9.54031 109.033 9.54031C109.481 9.54031 110.135 9.35455 110.428 9.16972V9.79377ZM110.125 7.11089C110.125 6.24252 109.774 5.38422 108.858 5.38422C107.95 5.38422 107.395 6.29102 107.395 7.11089H110.125Z" fill="#AEB6C7"/>
<path d="M115.978 3.14147H119.313V3.72709H116.65V6.15651H119.177V6.74213H116.65V9.36645H119.43V9.95207H115.978V3.14147Z" fill="#AEB6C7"/>
<path d="M122.162 3.6484H121.547V2.82944H122.162V3.6484ZM121.548 4.9752H122.162V9.95024H121.548V4.9752Z" fill="#AEB6C7"/>
<path d="M128.414 9.94932H127.799V9.15965H127.78C127.448 9.79377 126.941 10.0664 126.229 10.0664C124.864 10.0664 124.181 8.93547 124.181 7.46226C124.181 5.95062 124.767 4.85807 126.229 4.85807C127.204 4.85807 127.692 5.56997 127.78 5.81428H127.799V2.63363H128.414V9.94932ZM126.327 9.5403C127.419 9.5403 127.799 8.36906 127.799 7.46226C127.799 6.55546 127.419 5.38513 126.327 5.38513C125.157 5.38513 124.854 6.4969 124.854 7.46226C124.854 8.42854 125.156 9.5403 126.327 9.5403Z" fill="#AEB6C7"/>
<path d="M134.598 9.54031C134.598 10.9257 133.973 12.0566 132.266 12.0566C131.613 12.0566 131.018 11.8709 130.764 11.7931L130.812 11.1791C131.192 11.3749 131.739 11.5305 132.275 11.5305C133.856 11.5305 133.992 10.3794 133.992 8.97481H133.972C133.641 9.69678 133.094 9.95024 132.46 9.95024C130.87 9.95024 130.363 8.56488 130.363 7.46318C130.363 5.95154 130.949 4.85899 132.411 4.85899C133.074 4.85899 133.503 4.94683 133.962 5.54161H133.981V4.9752H134.596V9.54031H134.598ZM132.471 9.42318C133.583 9.42318 133.983 8.36906 133.983 7.46226C133.983 6.26265 133.632 5.38513 132.511 5.38513C131.34 5.38513 131.037 6.4969 131.037 7.46226C131.037 8.43769 131.427 9.42318 132.471 9.42318Z" fill="#AEB6C7"/>
<path d="M140.178 9.79377C139.749 9.96946 139.192 10.0664 138.734 10.0664C137.086 10.0664 136.471 8.95468 136.471 7.46226C136.471 5.94056 137.31 4.85807 138.568 4.85807C139.973 4.85807 140.548 5.98997 140.548 7.32592V7.63795H137.143C137.143 8.69207 137.71 9.54031 138.782 9.54031C139.231 9.54031 139.885 9.35455 140.178 9.16972V9.79377ZM139.875 7.11089C139.875 6.24252 139.524 5.38422 138.608 5.38422C137.7 5.38422 137.143 6.29102 137.143 7.11089H139.875Z" fill="#AEB6C7"/>
<path d="M142.479 6.14553C142.479 5.76487 142.479 5.37507 142.44 4.97428H143.035V5.86187H143.055C143.259 5.4135 143.63 4.85716 144.664 4.85716C145.894 4.85716 146.361 5.67611 146.361 6.76867V9.94841H145.747V6.92605C145.747 5.98997 145.416 5.38513 144.567 5.38513C143.445 5.38513 143.094 6.37063 143.094 7.19965V9.95024H142.48V6.14553H142.479Z" fill="#AEB6C7"/>
<path d="M150.604 4.85807C152.213 4.85807 152.925 6.10618 152.925 7.46226C152.925 8.81834 152.213 10.0664 150.604 10.0664C148.995 10.0664 148.282 8.81834 148.282 7.46226C148.282 6.10618 148.995 4.85807 150.604 4.85807ZM150.604 9.54031C151.677 9.54031 152.252 8.61338 152.252 7.46226C152.252 6.31115 151.677 5.38513 150.604 5.38513C149.531 5.38513 148.956 6.31206 148.956 7.46226C148.956 8.61338 149.531 9.54031 150.604 9.54031Z" fill="#AEB6C7"/>
<path d="M154.467 9.22828C154.838 9.41403 155.286 9.54031 155.765 9.54031C156.35 9.54031 156.866 9.21821 156.866 8.65272C156.866 7.47324 154.476 7.65808 154.476 6.21416C154.476 5.22866 155.276 4.85807 156.096 4.85807C156.359 4.85807 156.886 4.91664 157.325 5.08317L157.266 5.61938C156.944 5.47298 156.506 5.38513 156.164 5.38513C155.53 5.38513 155.091 5.58004 155.091 6.21416C155.091 7.14109 157.539 7.02396 157.539 8.65272C157.539 9.70684 156.553 10.0664 155.803 10.0664C155.325 10.0664 154.847 10.0079 154.408 9.83312L154.467 9.22828Z" fill="#AEB6C7"/>
<path d="M159.022 9.22828C159.393 9.41403 159.841 9.54031 160.319 9.54031C160.905 9.54031 161.421 9.21821 161.421 8.65272C161.421 7.47324 159.031 7.65808 159.031 6.21416C159.031 5.22866 159.831 4.85807 160.651 4.85807C160.914 4.85807 161.441 4.91664 161.88 5.08317L161.821 5.61938C161.499 5.47298 161.061 5.38513 160.719 5.38513C160.085 5.38513 159.646 5.58004 159.646 6.21416C159.646 7.14109 162.094 7.02396 162.094 8.65272C162.094 9.70684 161.108 10.0664 160.358 10.0664C159.88 10.0664 159.402 10.0079 158.963 9.83312L159.022 9.22828Z" fill="#AEB6C7"/>
<path d="M167.294 9.79377C166.865 9.96946 166.308 10.0664 165.85 10.0664C164.202 10.0664 163.587 8.95468 163.587 7.46226C163.587 5.94056 164.426 4.85807 165.684 4.85807C167.089 4.85807 167.665 5.98997 167.665 7.32592V7.63795H164.26C164.26 8.69207 164.826 9.54031 165.899 9.54031C166.347 9.54031 167.001 9.35455 167.294 9.16972V9.79377ZM166.991 7.11089C166.991 6.24252 166.64 5.38422 165.724 5.38422C164.816 5.38422 164.261 6.29102 164.261 7.11089H166.991Z" fill="#AEB6C7"/>
<path d="M169.595 6.14553C169.595 5.76487 169.595 5.37507 169.557 4.97428H170.151V5.86187H170.171C170.375 5.4135 170.745 4.85716 171.779 4.85716C173.009 4.85716 173.477 5.67611 173.477 6.76867V9.94841H172.862V6.92605C172.862 5.98997 172.531 5.38513 171.681 5.38513C170.56 5.38513 170.208 6.37063 170.208 7.19965V9.95024H169.593V6.14553H169.595Z" fill="#AEB6C7"/>
<path d="M175.399 9.22828C175.77 9.41403 176.219 9.54031 176.697 9.54031C177.282 9.54031 177.798 9.21821 177.798 8.65272C177.798 7.47324 175.408 7.65808 175.408 6.21416C175.408 5.22866 176.208 4.85807 177.028 4.85807C177.291 4.85807 177.818 4.91664 178.257 5.08317L178.198 5.61938C177.876 5.47298 177.438 5.38513 177.097 5.38513C176.462 5.38513 176.023 5.58004 176.023 6.21416C176.023 7.14109 178.471 7.02396 178.471 8.65272C178.471 9.70684 177.485 10.0664 176.735 10.0664C176.257 10.0664 175.779 10.0079 175.341 9.83312L175.399 9.22828Z" fill="#AEB6C7"/>
<path d="M183.573 5.63768C183.242 5.49128 182.842 5.38422 182.51 5.38422C181.31 5.38422 180.637 6.25259 180.637 7.46135C180.637 8.59324 181.32 9.53939 182.441 9.53939C182.832 9.53939 183.193 9.45155 183.563 9.31521L183.622 9.89076C183.202 10.0372 182.812 10.0664 182.344 10.0664C180.744 10.0664 179.964 8.84671 179.964 7.46226C179.964 5.93049 180.95 4.85807 182.423 4.85807C183.018 4.85807 183.447 4.99441 183.623 5.05298L183.573 5.63768Z" fill="#AEB6C7"/>
<path d="M185.426 2.63363H186.04V5.81337H186.06C186.324 5.26709 186.879 4.85716 187.611 4.85716C188.948 4.85716 189.309 5.74474 189.309 6.97363V9.94841H188.694V6.98461C188.694 6.12631 188.527 5.38513 187.514 5.38513C186.422 5.38513 186.041 6.41912 186.041 7.28749V9.95024H185.427V2.63363H185.426Z" fill="#AEB6C7"/>
<path d="M194.468 9.14959H194.448C194.176 9.74436 193.482 10.0664 192.868 10.0664C191.454 10.0664 191.229 9.11024 191.229 8.66187C191.229 6.99468 193.005 6.9169 194.293 6.9169H194.41V6.66252C194.41 5.81337 194.108 5.38513 193.279 5.38513C192.762 5.38513 192.275 5.50226 191.815 5.79415V5.19938C192.196 5.01363 192.84 4.85807 193.279 4.85807C194.508 4.85807 195.025 5.41442 195.025 6.71193V8.9071C195.025 9.30697 195.025 9.60893 195.074 9.95024H194.468V9.14959H194.468ZM194.409 7.44305H194.234C193.171 7.44305 191.904 7.55102 191.904 8.64357C191.904 9.29691 192.371 9.54122 192.937 9.54122C194.38 9.54122 194.409 8.28305 194.409 7.74592V7.44305Z" fill="#AEB6C7"/>
<path d="M197.668 5.50134H196.664V4.9752H197.668V4.61467C197.668 3.57154 197.707 2.51742 198.985 2.51742C199.179 2.51742 199.444 2.5467 199.56 2.61532L199.521 3.15153C199.393 3.08291 199.209 3.04448 199.033 3.04448C198.194 3.04448 198.283 3.95127 198.283 4.54605V4.9752H199.403V5.50226H198.283V9.95024H197.667V5.50134H197.668Z" fill="#AEB6C7"/>
<path d="M203.402 5.50134H202.271V8.72135C202.271 9.16971 202.438 9.5403 202.935 9.5403C203.169 9.5403 203.325 9.49181 203.5 9.42318L203.539 9.93011C203.393 9.98867 203.091 10.0664 202.788 10.0664C201.696 10.0664 201.657 9.31521 201.657 8.40841V5.50134H200.683V4.9752H201.657V3.77559L202.272 3.56055V4.97428H203.403V5.50134H203.402Z" fill="#AEB6C7"/>
<path d="M44.4321 17.3565C44.003 17.1323 43.3881 17.0637 42.9104 17.0637C41.1453 17.0637 40.1498 18.3127 40.1498 20.0001C40.1498 21.7167 41.1161 22.9355 42.9104 22.9355C43.3588 22.9355 44.0423 22.8769 44.4321 22.6427L44.4706 23.2283C44.1 23.4534 43.3396 23.5211 42.9095 23.5211C40.7638 23.5211 39.4763 22.1065 39.4763 20.0001C39.4763 17.9321 40.8031 16.479 42.9095 16.479C43.3094 16.479 44.1192 16.5476 44.4706 16.7325L44.4321 17.3565Z" fill="#AEB6C7"/>
<path d="M48.6549 18.3127C50.2645 18.3127 50.9773 19.5608 50.9773 20.9169C50.9773 22.273 50.2654 23.5211 48.6549 23.5211C47.0463 23.5211 46.3335 22.273 46.3335 20.9169C46.3335 19.5608 47.0463 18.3127 48.6549 18.3127ZM48.6549 22.995C49.7283 22.995 50.3029 22.068 50.3029 20.9169C50.3029 19.7658 49.7283 18.8398 48.6549 18.8398C47.5825 18.8398 47.007 19.7667 47.007 20.9169C47.007 22.068 47.5825 22.995 48.6549 22.995Z" fill="#AEB6C7"/>
<path d="M52.8981 19.6002C52.8981 19.2195 52.8981 18.8297 52.8596 18.4289H53.4544V19.3165H53.4745C53.6786 18.8682 54.0492 18.3118 55.0832 18.3118C56.313 18.3118 56.7805 19.1308 56.7805 20.2233V23.4031H56.1666V20.3789C56.1666 19.4428 55.8353 18.838 54.9862 18.838C53.8643 18.838 53.513 19.8235 53.513 20.6525V23.4031H52.8981V19.6002Z" fill="#AEB6C7"/>
<path d="M59.502 18.956H58.4973V18.4289H59.502V18.0684C59.502 17.0253 59.5405 15.9712 60.8188 15.9712C61.0146 15.9712 61.2772 16.0004 61.3943 16.0682L61.3559 16.6053C61.2287 16.5367 61.0439 16.4982 60.8682 16.4982C60.03 16.4982 60.1169 17.405 60.1169 17.9998V18.4289H61.2388V18.956H60.1169V23.404H59.5029V18.956H59.502Z" fill="#AEB6C7"/>
<path d="M66.428 23.2475C65.9988 23.4232 65.4425 23.5202 64.9841 23.5202C63.3361 23.5202 62.7212 22.4084 62.7212 20.916C62.7212 19.3943 63.5603 18.3118 64.8184 18.3118C66.223 18.3118 66.7986 19.4437 66.7986 20.7797V21.0917H63.3937C63.3937 22.1458 63.9601 22.9941 65.0326 22.9941C65.4809 22.9941 66.1352 22.8083 66.428 22.6235V23.2475ZM66.1251 20.5656C66.1251 19.6972 65.7737 18.8389 64.8578 18.8389C63.9501 18.8389 63.3937 19.7457 63.3937 20.5656H66.1251ZM65.1012 16.5074H65.8717L64.6418 17.912H64.1935L65.1012 16.5074Z" fill="#AEB6C7"/>
<path d="M72.6702 23.404H72.0553V22.6134H72.0361C71.7039 23.2475 71.197 23.5202 70.4851 23.5202C69.1199 23.5202 68.4373 22.3892 68.4373 20.916C68.4373 19.4044 69.0229 18.3118 70.4851 18.3118C71.4605 18.3118 71.9482 19.0237 72.0361 19.268H72.0553V16.0883H72.6702V23.404ZM70.5821 22.995C71.6746 22.995 72.0544 21.8237 72.0544 20.9169C72.0544 20.0101 71.6737 18.8398 70.5821 18.8398C69.4118 18.8398 69.1089 19.9516 69.1089 20.9169C69.1089 21.8823 69.4118 22.995 70.5821 22.995Z" fill="#AEB6C7"/>
<path d="M78.2493 23.2475C77.8201 23.4232 77.2638 23.5202 76.8054 23.5202C75.1574 23.5202 74.5425 22.4084 74.5425 20.916C74.5425 19.3943 75.3816 18.3118 76.6397 18.3118C78.0443 18.3118 78.6199 19.4437 78.6199 20.7797V21.0917H75.215C75.215 22.1458 75.7814 22.9941 76.8539 22.9941C77.3022 22.9941 77.9565 22.8083 78.2493 22.6235V23.2475ZM77.9464 20.5656C77.9464 19.6972 77.595 18.8389 76.6791 18.8389C75.7714 18.8389 75.2159 19.7457 75.2159 20.5656H77.9464ZM76.9225 16.5074H77.6929L76.4641 17.912H76.0157L76.9225 16.5074Z" fill="#AEB6C7"/>
<path d="M80.5514 19.5407C80.5514 18.9944 80.5514 18.7895 80.5129 18.4289H81.1269V19.3852H81.1461C81.3703 18.8288 81.7903 18.3118 82.4244 18.3118C82.5708 18.3118 82.7465 18.3411 82.8536 18.3704V19.0146C82.7264 18.9752 82.5608 18.956 82.4052 18.956C81.4298 18.956 81.1663 20.0486 81.1663 20.9462V23.4049H80.5514V19.5407Z" fill="#AEB6C7"/>
<path d="M87.4178 22.6042H87.3976C87.1249 23.199 86.4323 23.5211 85.8174 23.5211C84.4036 23.5211 84.1794 22.5649 84.1794 22.1165C84.1794 20.4493 85.9546 20.3716 87.2421 20.3716H87.3592V20.1181C87.3592 19.2689 87.0563 18.8407 86.2273 18.8407C85.7103 18.8407 85.2226 18.9578 84.7642 19.2497V18.655C85.1448 18.4692 85.7881 18.3137 86.2273 18.3137C87.4562 18.3137 87.9732 18.87 87.9732 20.1675V22.3627C87.9732 22.7626 87.9732 23.0645 88.0217 23.4058H87.4168V22.6042H87.4178ZM87.3592 20.8977H87.1835C86.1202 20.8977 84.852 21.0048 84.852 22.0973C84.852 22.7507 85.3205 22.995 85.886 22.995C87.329 22.995 87.3592 21.7368 87.3592 21.1997V20.8977Z" fill="#AEB6C7"/>
<path d="M92.3443 18.956H91.2124V22.1751C91.2124 22.6235 91.3789 22.9941 91.8758 22.9941C92.11 22.9941 92.2665 22.9456 92.4422 22.8769L92.4806 23.3839C92.3342 23.4424 92.0323 23.5202 91.7294 23.5202C90.6368 23.5202 90.5975 22.769 90.5975 21.8622V18.9551H89.6221V18.428H90.5975V17.2284L91.2115 17.0134V18.428H92.3434V18.956H92.3443Z" fill="#AEB6C7"/>
<path d="M94.8215 17.1021H94.2065V16.2832H94.8215V17.1021ZM94.2065 18.4289H94.8215V23.404H94.2065V18.4289Z" fill="#AEB6C7"/>
<path d="M99.0734 18.3127C100.683 18.3127 101.395 19.5608 101.395 20.9169C101.395 22.273 100.683 23.5211 99.0734 23.5211C97.4648 23.5211 96.752 22.273 96.752 20.9169C96.752 19.5608 97.4638 18.3127 99.0734 18.3127ZM99.0734 22.995C100.147 22.995 100.721 22.068 100.721 20.9169C100.721 19.7658 100.147 18.8398 99.0734 18.8398C98.001 18.8398 97.4254 19.7667 97.4254 20.9169C97.4245 22.068 98.0001 22.995 99.0734 22.995Z" fill="#AEB6C7"/>
<path d="M103.317 19.6002C103.317 19.2195 103.317 18.8297 103.278 18.4289H103.873V19.3165H103.892C104.096 18.8682 104.467 18.3118 105.501 18.3118C106.731 18.3118 107.198 19.1308 107.198 20.2233V23.4031H106.583V20.3789C106.583 19.4428 106.252 18.838 105.404 18.838C104.282 18.838 103.931 19.8235 103.931 20.6525V23.4031H103.316V19.6002H103.317Z" fill="#AEB6C7"/>
<path d="M112.495 22.682C112.866 22.8678 113.314 22.9941 113.793 22.9941C114.378 22.9941 114.895 22.672 114.895 22.1065C114.895 20.927 112.504 21.1118 112.504 19.6679C112.504 18.6824 113.304 18.3118 114.124 18.3118C114.388 18.3118 114.915 18.3704 115.353 18.536L115.294 19.0731C114.972 18.9267 114.534 18.8389 114.193 18.8389C113.559 18.8389 113.119 19.0338 113.119 19.6679C113.119 20.5948 115.567 20.4777 115.567 22.1065C115.567 23.1606 114.582 23.5211 113.831 23.5211C113.354 23.5211 112.875 23.4626 112.437 23.2878L112.495 22.682Z" fill="#AEB6C7"/>
<path d="M121.312 22.2337C121.312 22.6143 121.312 23.0041 121.352 23.404H120.756V22.5164H120.737C120.532 22.9648 120.161 23.5202 119.127 23.5202C117.898 23.5202 117.43 22.7003 117.43 21.6087V18.4289H118.044V21.4531C118.044 22.3901 118.376 22.995 119.224 22.995C120.346 22.995 120.697 22.0095 120.697 21.1805V18.4299H121.312V22.2337H121.312Z" fill="#AEB6C7"/>
<path d="M124.229 17.1021H123.615V16.2832H124.229V17.1021ZM123.615 18.4289H124.229V23.404H123.615V18.4289Z" fill="#AEB6C7"/>
<path d="M126.16 22.682C126.531 22.8678 126.979 22.9941 127.458 22.9941C128.043 22.9941 128.56 22.672 128.56 22.1065C128.56 20.927 126.169 21.1118 126.169 19.6679C126.169 18.6824 126.969 18.3118 127.789 18.3118C128.053 18.3118 128.58 18.3704 129.018 18.536L128.959 19.0731C128.637 18.9267 128.199 18.8389 127.858 18.8389C127.224 18.8389 126.784 19.0338 126.784 19.6679C126.784 20.5948 129.233 20.4777 129.233 22.1065C129.233 23.1606 128.247 23.5211 127.496 23.5211C127.019 23.5211 126.54 23.4626 126.101 23.2878L126.16 22.682Z" fill="#AEB6C7"/>
<path d="M130.715 22.682C131.086 22.8678 131.535 22.9941 132.013 22.9941C132.599 22.9941 133.115 22.672 133.115 22.1065C133.115 20.927 130.725 21.1118 130.725 19.6679C130.725 18.6824 131.524 18.3118 132.344 18.3118C132.608 18.3118 133.135 18.3704 133.573 18.536L133.515 19.0731C133.192 18.9267 132.754 18.8389 132.413 18.8389C131.779 18.8389 131.34 19.0338 131.34 19.6679C131.34 20.5948 133.788 20.4777 133.788 22.1065C133.788 23.1606 132.803 23.5211 132.051 23.5211C131.574 23.5211 131.095 23.4626 130.656 23.2878L130.715 22.682Z" fill="#AEB6C7"/>
<path d="M138.986 23.2475C138.557 23.4232 138.001 23.5202 137.542 23.5202C135.894 23.5202 135.28 22.4084 135.28 20.916C135.28 19.3943 136.119 18.3118 137.377 18.3118C138.781 18.3118 139.357 19.4437 139.357 20.7797V21.0917H135.952C135.952 22.1458 136.518 22.9941 137.591 22.9941C138.039 22.9941 138.694 22.8083 138.986 22.6235V23.2475ZM138.684 20.5656C138.684 19.6972 138.333 18.8389 137.417 18.8389C136.509 18.8389 135.953 19.7457 135.953 20.5656H138.684Z" fill="#AEB6C7"/>
<path d="M44.4321 30.8103C44.003 30.5861 43.3881 30.5175 42.9104 30.5175C41.1453 30.5175 40.1498 31.7665 40.1498 33.4538C40.1498 35.1704 41.1161 36.3892 42.9104 36.3892C43.3588 36.3892 44.0423 36.3307 44.4321 36.0964L44.4706 36.6821C44.1 36.9071 43.3396 36.9749 42.9095 36.9749C40.7638 36.9749 39.4763 35.5611 39.4763 33.4538C39.4763 31.3858 40.8031 29.9328 42.9095 29.9328C43.3094 29.9328 44.1192 30.0005 44.4706 30.1862L44.4321 30.8103Z" fill="#AEB6C7"/>
<path d="M48.6549 31.7665C50.2645 31.7665 50.9773 33.0146 50.9773 34.3707C50.9773 35.7268 50.2654 36.9749 48.6549 36.9749C47.0463 36.9749 46.3335 35.7268 46.3335 34.3707C46.3335 33.0146 47.0463 31.7665 48.6549 31.7665ZM48.6549 36.4487C49.7283 36.4487 50.3029 35.5218 50.3029 34.3707C50.3029 33.2196 49.7283 32.2935 48.6549 32.2935C47.5825 32.2935 47.007 33.2205 47.007 34.3707C47.007 35.5218 47.5825 36.4487 48.6549 36.4487Z" fill="#AEB6C7"/>
<path d="M52.8981 33.0539C52.8981 32.6733 52.8981 32.2835 52.8596 31.8827H53.4544V32.7703H53.4745C53.6786 32.3219 54.0492 31.7656 55.0832 31.7656C56.313 31.7656 56.7805 32.5845 56.7805 33.6771V36.8587H56.1666V33.8345C56.1666 32.8984 55.8353 32.2935 54.9862 32.2935C53.8643 32.2935 53.513 33.279 53.513 34.1081V36.8587H52.8981V33.0539Z" fill="#AEB6C7"/>
<path d="M59.502 32.4098H58.4973V31.8827H59.502V31.5222C59.502 30.479 59.5405 29.4249 60.8188 29.4249C61.0146 29.4249 61.2772 29.4542 61.3943 29.5228L61.3559 30.059C61.2287 29.9904 61.0439 29.952 60.8682 29.952C60.03 29.952 60.1169 30.8588 60.1169 31.4535V31.8827H61.2388V32.4098H60.1169V36.8587H59.5029V32.4098H59.502Z" fill="#AEB6C7"/>
<path d="M66.428 36.7022C65.9988 36.8779 65.4425 36.9749 64.9841 36.9749C63.3361 36.9749 62.7212 35.8631 62.7212 34.3707C62.7212 32.849 63.5603 31.7665 64.8184 31.7665C66.223 31.7665 66.7986 32.8984 66.7986 34.2343V34.5464H63.3937C63.3937 35.6005 63.9601 36.4487 65.0326 36.4487C65.4809 36.4487 66.1352 36.263 66.428 36.0781V36.7022ZM66.1251 34.0202C66.1251 33.1518 65.7737 32.2935 64.8578 32.2935C63.9501 32.2935 63.3937 33.2003 63.3937 34.0202H66.1251Z" fill="#AEB6C7"/>
<path d="M72.6702 36.8587H72.0553V36.0681H72.0361C71.7039 36.7022 71.197 36.9749 70.4851 36.9749C69.1199 36.9749 68.4373 35.8439 68.4373 34.3707C68.4373 32.859 69.0229 31.7665 70.4851 31.7665C71.4605 31.7665 71.9482 32.4784 72.0361 32.7227H72.0553V29.543H72.6702V36.8587ZM70.5821 36.4487C71.6746 36.4487 72.0544 35.2775 72.0544 34.3707C72.0544 33.4639 71.6737 32.2935 70.5821 32.2935C69.4118 32.2935 69.1089 33.4053 69.1089 34.3707C69.1089 35.3369 69.4118 36.4487 70.5821 36.4487Z" fill="#AEB6C7"/>
<path d="M78.2493 36.7022C77.8201 36.8779 77.2638 36.9749 76.8054 36.9749C75.1574 36.9749 74.5425 35.8631 74.5425 34.3707C74.5425 32.849 75.3816 31.7665 76.6397 31.7665C78.0443 31.7665 78.6199 32.8984 78.6199 34.2343V34.5464H75.215C75.215 35.6005 75.7814 36.4487 76.8539 36.4487C77.3022 36.4487 77.9565 36.263 78.2493 36.0781V36.7022ZM77.9464 34.0202C77.9464 33.1518 77.595 32.2935 76.6791 32.2935C75.7714 32.2935 75.2159 33.2003 75.2159 34.0202H77.9464Z" fill="#AEB6C7"/>
<path d="M80.5514 32.9954C80.5514 32.4491 80.5514 32.2441 80.5129 31.8836H81.1269V32.8398H81.1461C81.3703 32.2844 81.7903 31.7674 82.4244 31.7674C82.5708 31.7674 82.7465 31.7967 82.8536 31.826V32.4701C82.7264 32.4308 82.5608 32.4116 82.4052 32.4116C81.4298 32.4116 81.1663 33.5041 81.1663 34.4018V36.8587H80.5514V32.9954Z" fill="#AEB6C7"/>
<path d="M87.4178 36.0589H87.3976C87.1249 36.6537 86.4323 36.9758 85.8174 36.9758C84.4036 36.9758 84.1794 36.0196 84.1794 35.5712C84.1794 33.904 85.9546 33.8262 87.2421 33.8262H87.3592V33.5728C87.3592 32.7236 87.0563 32.2954 86.2273 32.2954C85.7103 32.2954 85.2226 32.4125 84.7642 32.7044V32.1096C85.1448 31.9239 85.7881 31.7683 86.2273 31.7683C87.4562 31.7683 87.9732 32.3247 87.9732 33.6213V35.8164C87.9732 36.2163 87.9732 36.5183 88.0217 36.8596H87.4168V36.0589H87.4178ZM87.3592 34.3515H87.1835C86.1202 34.3515 84.852 34.4594 84.852 35.552C84.852 36.2053 85.3205 36.4496 85.886 36.4496C87.329 36.4496 87.3592 35.1915 87.3592 34.6543V34.3515Z" fill="#AEB6C7"/>
<path d="M89.7393 36.3417L92.7342 32.4098H89.8564V31.8827H93.4461V32.4098L90.4521 36.3307H93.4461V36.8587H89.7402V36.3417H89.7393Z" fill="#AEB6C7"/>
<path d="M95.904 30.5568H95.2891V29.7379H95.904V30.5568ZM95.29 31.8836H95.9049V36.8587H95.29V31.8836Z" fill="#AEB6C7"/>
<path d="M100.156 31.7665C101.766 31.7665 102.478 33.0146 102.478 34.3707C102.478 35.7268 101.766 36.9749 100.156 36.9749C98.5475 36.9749 97.8347 35.7268 97.8347 34.3707C97.8347 33.0146 98.5475 31.7665 100.156 31.7665ZM100.156 36.4487C101.229 36.4487 101.804 35.5218 101.804 34.3707C101.804 33.2196 101.229 32.2935 100.156 32.2935C99.0837 32.2935 98.5082 33.2205 98.5082 34.3707C98.5082 35.5218 99.0837 36.4487 100.156 36.4487Z" fill="#AEB6C7"/>
<path d="M104.399 33.0539C104.399 32.6733 104.399 32.2835 104.361 31.8827H104.955V32.7703H104.975C105.179 32.3219 105.549 31.7656 106.583 31.7656C107.813 31.7656 108.281 32.5845 108.281 33.6771V36.8587H107.666V33.8345C107.666 32.8984 107.334 32.2935 106.486 32.2935C105.364 32.2935 105.013 33.279 105.013 34.1081V36.8587H104.398V33.0539H104.399Z" fill="#AEB6C7"/>
<path d="M113.92 36.7022C113.491 36.8779 112.934 36.9749 112.476 36.9749C110.828 36.9749 110.213 35.8631 110.213 34.3707C110.213 32.849 111.052 31.7665 112.31 31.7665C113.715 31.7665 114.291 32.8984 114.291 34.2343V34.5464H110.886C110.886 35.6005 111.452 36.4487 112.525 36.4487C112.973 36.4487 113.627 36.263 113.92 36.0781V36.7022ZM113.617 34.0202C113.617 33.1518 113.266 32.2935 112.35 32.2935C111.442 32.2935 110.886 33.2003 110.886 34.0202H113.617Z" fill="#AEB6C7"/>
<path d="M119.479 35.9903C119.879 36.2437 120.346 36.3902 120.98 36.3902C121.819 36.3902 122.512 35.961 122.512 34.9956C122.512 33.6588 119.391 33.4932 119.391 31.7079C119.391 30.6154 120.347 29.9328 121.547 29.9328C121.878 29.9328 122.414 29.9813 122.883 30.1569L122.776 30.7718C122.473 30.6053 121.995 30.5184 121.537 30.5184C120.835 30.5184 120.064 30.8112 120.064 31.6887C120.064 33.0549 123.186 33.064 123.186 35.0542C123.186 36.4295 122.006 36.9758 120.952 36.9758C120.289 36.9758 119.772 36.8394 119.411 36.683L119.479 35.9903Z" fill="#AEB6C7"/>
<path d="M126.961 36.8587H126.239L124.552 31.8836H125.225L126.601 36.1861H126.62L128.064 31.8836H128.707L126.961 36.8587Z" fill="#AEB6C7"/>
<path d="M130.94 30.5568H130.326V29.7379H130.94V30.5568ZM130.325 31.8836H130.939V36.8587H130.325V31.8836Z" fill="#AEB6C7"/>
<path d="M132.793 36.3417L135.788 32.4098H132.911V31.8827H136.5V32.4098L133.506 36.3307H136.5V36.8587H132.794V36.3417H132.793Z" fill="#AEB6C7"/>
<path d="M137.885 36.3417L140.879 32.4098H138.002V31.8827H141.591V32.4098L138.597 36.3307H141.591V36.8587H137.885V36.3417H137.885Z" fill="#AEB6C7"/>
<path d="M146.771 36.7022C146.341 36.8779 145.785 36.9749 145.327 36.9749C143.679 36.9749 143.064 35.8631 143.064 34.3707C143.064 32.849 143.903 31.7665 145.161 31.7665C146.566 31.7665 147.141 32.8984 147.141 34.2343V34.5464H143.736C143.736 35.6005 144.303 36.4487 145.375 36.4487C145.823 36.4487 146.478 36.263 146.771 36.0781V36.7022ZM146.468 34.0202C146.468 33.1518 146.116 32.2935 145.2 32.2935C144.293 32.2935 143.737 33.2003 143.737 34.0202H146.468Z" fill="#AEB6C7"/>
<path d="M149.073 32.9954C149.073 32.4491 149.073 32.2441 149.034 31.8836H149.648V32.8398H149.668C149.892 32.2844 150.312 31.7674 150.946 31.7674C151.092 31.7674 151.268 31.7967 151.375 31.826V32.4701C151.248 32.4308 151.082 32.4116 150.927 32.4116C149.951 32.4116 149.688 33.5041 149.688 34.4018V36.8587H149.074V32.9954H149.073Z" fill="#AEB6C7"/>
<path d="M155.939 36.0589H155.919C155.646 36.6537 154.954 36.9758 154.339 36.9758C152.925 36.9758 152.701 36.0196 152.701 35.5712C152.701 33.904 154.476 33.8262 155.764 33.8262H155.881V33.5728C155.881 32.7236 155.578 32.2954 154.749 32.2954C154.232 32.2954 153.744 32.4125 153.286 32.7044V32.1096C153.666 31.9239 154.31 31.7683 154.749 31.7683C155.978 31.7683 156.495 32.3247 156.495 33.6213V35.8164C156.495 36.2163 156.495 36.5183 156.543 36.8596H155.938V36.0589H155.939ZM155.881 34.3515H155.705C154.642 34.3515 153.373 34.4594 153.373 35.552C153.373 36.2053 153.842 36.4496 154.407 36.4496C155.85 36.4496 155.881 35.1915 155.881 34.6543V34.3515Z" fill="#AEB6C7"/>
<path d="M44.4321 44.264C44.003 44.0398 43.3881 43.9712 42.9104 43.9712C41.1453 43.9712 40.1498 45.2202 40.1498 46.9076C40.1498 48.6242 41.1161 49.843 42.9104 49.843C43.3588 49.843 44.0423 49.7844 44.4321 49.5502L44.4706 50.1358C44.1 50.3609 43.3396 50.4286 42.9095 50.4286C40.7638 50.4286 39.4763 49.0149 39.4763 46.9076C39.4763 44.8396 40.8031 43.3865 42.9095 43.3865C43.3094 43.3865 44.1192 43.4542 44.4706 43.64L44.4321 44.264Z" fill="#AEB6C7"/>
<path d="M48.6549 45.2202C50.2645 45.2202 50.9773 46.4683 50.9773 47.8244C50.9773 49.1805 50.2654 50.4286 48.6549 50.4286C47.0463 50.4286 46.3335 49.1805 46.3335 47.8244C46.3335 46.4683 47.0463 45.2202 48.6549 45.2202ZM48.6549 49.9025C49.7283 49.9025 50.3029 48.9755 50.3029 47.8244C50.3029 46.6733 49.7283 45.7473 48.6549 45.7473C47.5825 45.7473 47.007 46.6742 47.007 47.8244C47.007 48.9755 47.5825 49.9025 48.6549 49.9025Z" fill="#AEB6C7"/>
<path d="M52.8981 46.5077C52.8981 46.127 52.8981 45.7372 52.8596 45.3364H53.4544V46.224H53.4745C53.6786 45.7757 54.0492 45.2193 55.0832 45.2193C56.313 45.2193 56.7805 46.0392 56.7805 47.1308V50.3106H56.1666V47.2864C56.1666 46.3503 55.8353 45.7455 54.9862 45.7455C53.8643 45.7455 53.513 46.731 53.513 47.5591V50.3097H52.8981V46.5077Z" fill="#AEB6C7"/>
<path d="M59.502 45.8635H58.4973V45.3364H59.502V44.9759C59.502 43.9328 59.5405 42.8787 60.8188 42.8787C61.0146 42.8787 61.2772 42.9079 61.3943 42.9766L61.3559 43.5128C61.2287 43.4442 61.0439 43.4057 60.8682 43.4057C60.03 43.4057 60.1169 44.3125 60.1169 44.9073V45.3364H61.2388V45.8635H60.1169V50.3115H59.5029V45.8635H59.502Z" fill="#AEB6C7"/>
<path d="M66.428 50.1559C65.9988 50.3316 65.4425 50.4286 64.9841 50.4286C63.3361 50.4286 62.7212 49.3168 62.7212 47.8244C62.7212 46.3027 63.5603 45.2202 64.8184 45.2202C66.223 45.2202 66.7986 46.3521 66.7986 47.6881V48.0001H63.3937C63.3937 49.0533 63.9601 49.9025 65.0326 49.9025C65.4809 49.9025 66.1352 49.7176 66.428 49.5319V50.1559ZM66.1251 47.473C66.1251 46.6047 65.7737 45.7464 64.8578 45.7464C63.9501 45.7464 63.3937 46.6532 63.3937 47.473H66.1251Z" fill="#AEB6C7"/>
<path d="M72.6702 50.3124H72.0553V49.5218H72.0361C71.7039 50.1559 71.197 50.4286 70.4851 50.4286C69.1199 50.4286 68.4373 49.2976 68.4373 47.8244C68.4373 46.3128 69.0229 45.2202 70.4851 45.2202C71.4605 45.2202 71.9482 45.9321 72.0361 46.1764H72.0553V42.9967H72.6702V50.3124ZM70.5821 49.9025C71.6746 49.9025 72.0544 48.7312 72.0544 47.8244C72.0544 46.9176 71.6737 45.7473 70.5821 45.7473C69.4118 45.7473 69.1089 46.8591 69.1089 47.8244C69.1089 48.7907 69.4118 49.9025 70.5821 49.9025Z" fill="#AEB6C7"/>
<path d="M78.2493 50.1559C77.8201 50.3316 77.2638 50.4286 76.8054 50.4286C75.1574 50.4286 74.5425 49.3168 74.5425 47.8244C74.5425 46.3027 75.3816 45.2202 76.6397 45.2202C78.0443 45.2202 78.6199 46.3521 78.6199 47.6881V48.0001H75.215C75.215 49.0533 75.7814 49.9025 76.8539 49.9025C77.3022 49.9025 77.9565 49.7176 78.2493 49.5319V50.1559ZM77.9464 47.473C77.9464 46.6047 77.595 45.7464 76.6791 45.7464C75.7714 45.7464 75.2159 46.6532 75.2159 47.473H77.9464Z" fill="#AEB6C7"/>
<path d="M80.5514 46.4491C80.5514 45.9028 80.5514 45.6979 80.5129 45.3374H81.1269V46.2936H81.1461C81.3703 45.7381 81.7903 45.2211 82.4244 45.2211C82.5708 45.2211 82.7465 45.2504 82.8536 45.2797V45.9239C82.7264 45.8845 82.5608 45.8653 82.4052 45.8653C81.4298 45.8653 81.1663 46.9579 81.1663 47.8555V50.3142H80.5514V46.4491Z" fill="#AEB6C7"/>
<path d="M87.4178 49.5117H87.3976C87.1249 50.1065 86.4323 50.4286 85.8174 50.4286C84.4036 50.4286 84.1794 49.4724 84.1794 49.024C84.1794 47.3568 85.9546 47.2781 87.2421 47.2781H87.3592V47.0247C87.3592 46.1764 87.0563 45.7473 86.2273 45.7473C85.7103 45.7473 85.2226 45.8644 84.7642 46.1563V45.5615C85.1448 45.3758 85.7881 45.2202 86.2273 45.2202C87.4562 45.2202 87.9732 45.7766 87.9732 47.0741V49.2693C87.9732 49.6691 87.9732 49.9711 88.0217 50.3124H87.4168V49.5117H87.4178ZM87.3592 47.8052H87.1835C86.1202 47.8052 84.852 47.9132 84.852 49.0057C84.852 49.6591 85.3205 49.9034 85.886 49.9034C87.329 49.9034 87.3592 48.6452 87.3592 48.1081V47.8052Z" fill="#AEB6C7"/>
<path d="M89.7393 49.7954L92.7342 45.8635H89.8564V45.3364H93.4461V45.8635L90.4521 49.7844H93.4461V50.3115H89.7402V49.7954H89.7393Z" fill="#AEB6C7"/>
<path d="M95.904 44.0106H95.2891V43.1916H95.904V44.0106ZM95.29 45.3374H95.9049V50.3124H95.29V45.3374Z" fill="#AEB6C7"/>
<path d="M102.097 49.1412C102.097 49.5218 102.097 49.9116 102.136 50.3115H101.54V49.4239H101.521C101.316 49.8723 100.945 50.4277 99.9115 50.4277C98.6826 50.4277 98.2141 49.6087 98.2141 48.5162V45.3364H98.829V48.3606C98.829 49.2976 99.1612 49.9025 100.009 49.9025C101.131 49.9025 101.482 48.917 101.482 48.088V45.3374H102.096V49.1412H102.097Z" fill="#AEB6C7"/>
<path d="M104.399 46.5077C104.399 46.127 104.399 45.7372 104.361 45.3364H104.955V46.224H104.975C105.179 45.7757 105.549 45.2193 106.583 45.2193C107.813 45.2193 108.281 46.0392 108.281 47.1308V50.3106H107.666V47.2864C107.666 46.3503 107.334 45.7455 106.486 45.7455C105.364 45.7455 105.013 46.731 105.013 47.5591V50.3097H104.398V46.5077H104.399Z" fill="#AEB6C7"/>
<path d="M113.578 49.5904C113.948 49.7762 114.397 49.9025 114.875 49.9025C115.461 49.9025 115.977 49.5804 115.977 49.0149C115.977 47.8345 113.587 48.0202 113.587 46.5763C113.587 45.5908 114.386 45.2202 115.206 45.2202C115.47 45.2202 115.997 45.2788 116.435 45.4444L116.377 45.9806C116.055 45.8342 115.616 45.7464 115.275 45.7464C114.641 45.7464 114.202 45.9413 114.202 46.5754C114.202 47.5023 116.649 47.3852 116.649 49.014C116.649 50.0681 115.664 50.4277 114.914 50.4277C114.436 50.4277 113.957 50.3691 113.519 50.1944L113.578 49.5904Z" fill="#AEB6C7"/>
<path d="M120.239 50.3124H119.517L117.83 45.3374H118.503L119.879 49.6398H119.898L121.342 45.3374H121.985L120.239 50.3124Z" fill="#AEB6C7"/>
<path d="M124.219 44.0106H123.605V43.1916H124.219V44.0106ZM123.604 45.3374H124.218V50.3124H123.604V45.3374Z" fill="#AEB6C7"/>
<path d="M126.073 49.7954L129.067 45.8635H126.19V45.3364H129.779V45.8635L126.785 49.7844H129.779V50.3115H126.073V49.7954H126.073Z" fill="#AEB6C7"/>
<path d="M131.622 46.4491C131.622 45.9028 131.622 45.6979 131.584 45.3374H132.199V46.2936H132.218C132.442 45.7381 132.862 45.2211 133.496 45.2211C133.643 45.2211 133.818 45.2504 133.925 45.2797V45.9239C133.798 45.8845 133.633 45.8653 133.477 45.8653C132.502 45.8653 132.238 46.9579 132.238 47.8555V50.3142H131.623V46.4491H131.622Z" fill="#AEB6C7"/>
<path d="M138.489 49.5117H138.469C138.197 50.1065 137.504 50.4286 136.889 50.4286C135.474 50.4286 135.251 49.4724 135.251 49.024C135.251 47.3568 137.026 47.2781 138.314 47.2781H138.431V47.0247C138.431 46.1764 138.128 45.7473 137.299 45.7473C136.782 45.7473 136.294 45.8644 135.836 46.1563V45.5615C136.217 45.3758 136.86 45.2202 137.299 45.2202C138.528 45.2202 139.045 45.7766 139.045 47.0741V49.2693C139.045 49.6691 139.045 49.9711 139.093 50.3124H138.489V49.5117ZM138.431 47.8052H138.255C137.192 47.8052 135.924 47.9132 135.924 49.0057C135.924 49.6591 136.392 49.9034 136.958 49.9034C138.401 49.9034 138.431 48.6452 138.431 48.1081V47.8052Z" fill="#AEB6C7"/>
<path d="M28.4109 2.84409C28.4109 2.84409 23.2519 0.584866 14.6149 0.584866H14.6122C5.97423 0.584866 0.814352 2.84409 0.814352 2.84409C0.814352 2.84409 0.35226 12.8482 2.31043 18.5049C5.76926 28.4513 14.6103 31.2449 14.6103 31.2449H14.6131H14.6158C14.6158 31.2449 23.455 28.4513 26.9157 18.5049C28.8739 12.8482 28.4109 2.84409 28.4109 2.84409Z" fill="#AEB6C7"/>
<path d="M23.7818 11.4683V16.9804H17.351V23.4113H11.8388V16.9804H5.40796V11.4683H11.8388V5.03925H17.3501L17.351 11.4683H23.7818Z" fill="white"/>
</svg>
