<svg width="211" id="aerodyne" height="60" viewBox="0 0 211 60" fill="none" xmlns="http://www.w3.org/2000/svg">
<path fill-rule="evenodd" clip-rule="evenodd" d="M67.9961 37.2124H81.829H83.7773V39.1607V41.3038V43.2521V45.3952V47.3435H81.829H69.9444H67.9961V45.3952V43.2521V41.3038H69.9444H81.829V39.1607H67.9961V37.2124ZM69.9444 43.2521V45.3952H81.829V43.2521H69.9444Z" fill="#A2ACBA"/>
<path fill-rule="evenodd" clip-rule="evenodd" d="M85.9199 47.3435L85.9199 45.3952V43.2521V41.3038V39.1607V37.2124H87.8682H100.337H102.091H102.286V43.2521H102.091H100.337H87.8682V45.3952H102.091V47.3435H87.8682H85.9199ZM100.337 39.1607H87.8682V41.3038H100.337V39.1607Z" fill="#A2ACBA"/>
<path fill-rule="evenodd" clip-rule="evenodd" d="M104.234 39.1607V47.3435H106.183V39.1607H120.405V37.2124H106.183H104.234V39.1607Z" fill="#A2ACBA"/>
<path fill-rule="evenodd" clip-rule="evenodd" d="M176.711 47.3435V39.1607V37.2124H178.659H190.933H192.882V39.1607V47.3435H190.933V39.1607H178.659V47.3435H176.711Z" fill="#6B7C92"/>
<path fill-rule="evenodd" clip-rule="evenodd" d="M154.695 33.3158V37.2124H142.421H140.473V39.1607V45.3952V47.3435H142.421H154.695H156.643V45.3952V39.1607V37.2124V33.3158H154.695ZM154.695 45.3952V39.1607H142.421V45.3952H154.695Z" fill="#6B7C92"/>
<path fill-rule="evenodd" clip-rule="evenodd" d="M194.83 45.3952V43.2521V41.3038V39.1607V37.2124H196.778H209.053H211.001V39.1607V41.3038V43.2521H209.053H196.778V45.3952H211.001V47.3435H196.778H194.83V45.3952ZM209.053 41.3038H196.778V39.1607H209.053V41.3038Z" fill="#6B7C92"/>
<path fill-rule="evenodd" clip-rule="evenodd" d="M158.592 37.2124V45.3952V47.3435H160.54H172.814V49.2918H158.592V51.2401H172.814H174.763V49.2918V47.3435V45.3952V37.2124H172.814V45.3952H160.54V37.2124H158.592Z" fill="#6B7C92"/>
<path fill-rule="evenodd" clip-rule="evenodd" d="M122.354 39.1607V45.3952V47.3435H124.302H136.576H138.524V45.3952V39.1607V37.2124H136.576H124.302H122.354V39.1607ZM136.576 45.3952V39.1607H124.302V45.3952H136.576Z" fill="#A2ACBA"/>
<path d="M30.1992 0L60.3977 30.0037L30.1992 18.1191V0Z" fill="#D9DDE1"/>
<path d="M30.1992 18.1191L60.3977 30.0037H30.1992V18.1191Z" fill="#CBD0D7"/>
<path d="M30.1992 30.0035H60.3977V59.4227L30.1992 30.0035Z" fill="#8794A6"/>
<path d="M30.1992 30.0035H0.000696182V59.4227L30.1992 30.0035Z" fill="#C4CAD3"/>
<path d="M30.1992 30.0035L46.37 45.2002L60.3977 59.4227L30.1992 38.9657V30.0035Z" fill="#6B7C92"/>
<path d="M30.1992 30.0035L14.0284 45.2002L0.000696182 59.4227L30.1992 38.9657V30.0035Z" fill="#A2ACBA"/>
<path d="M17.2424 12.7614L30.1985 18.0217V30.0037H0L17.2424 12.7614Z" fill="#B0B8C3"/>
<path d="M30.1983 0V18.1191L17.2422 12.7613L30.1983 0Z" fill="#A2ACBA"/>
</svg>
