<svg width="139" id="avav" height="56" viewBox="0 0 139 56" fill="none" xmlns="http://www.w3.org/2000/svg">
<g clip-path="url(#clip0_865_49)">
<mask id="mask0_865_49" style="mask-type:luminance" maskUnits="userSpaceOnUse" x="-3" y="-44" width="144" height="144">
<path d="M-2.72852 -43.8595H140.837V99.6514H-2.72852V-43.8595Z" fill="white"/>
</mask>
<g mask="url(#mask0_865_49)">
<path fill-rule="evenodd" clip-rule="evenodd" d="M129.25 0.0440674C129.25 0.0440674 108.215 25.1373 107.588 25.8712C103.812 30.248 102.406 33.0155 92.53 33.0155H66.1811V0.0440674H83.9445V25.4114H87.2337C89.7271 25.4114 91.7696 25.4291 93.7236 23.422C94.4929 22.6262 95.041 21.9277 95.8987 20.2743L104.139 4.79216C104.935 3.29788 106.067 0.0440674 110.85 0.0440674H129.25ZM37.2947 0.0440674H63.6347V33.0155H45.8625V7.65693H42.5733C40.0887 7.65693 38.0551 7.64809 36.0833 9.6552C35.3229 10.4421 34.7659 11.1495 33.9082 12.8029L31.2468 17.8074H43.3337V25.4114H27.1973L25.6764 28.2851C24.8718 29.7793 23.7578 33.0155 18.9566 33.0155H0.556641C0.556641 33.0155 21.6003 7.93103 22.2369 7.206C25.9948 2.82042 27.4183 0.0440674 37.2947 0.0440674ZM133.512 39.9387H132.363V43.0068H131.841V39.9387H130.683V39.4789H133.512V39.9387ZM138.03 43.0068H137.517V40.0359H137.5L136.306 43.0068H135.979L134.777 40.0359H134.759V43.0068H134.246V39.4612H135.051L136.156 42.1757L137.261 39.4612H138.03V43.0068Z" fill="#6B7C92"/>
<path fill-rule="evenodd" clip-rule="evenodd" d="M6.28616 41.0089H7.66549L13.5807 55.377H11.9008L10.6098 52.1232H3.10308L1.73259 55.377H0.0703125L6.28616 41.0089ZM3.63359 50.7527H10.0882L6.90509 42.7861L3.63359 50.7527ZM15.7647 50.9737C15.8089 53.1223 16.9141 54.6608 18.9477 54.6608C20.4862 54.6608 21.3881 54.1568 21.9098 52.9101H23.3864C22.8382 54.9437 21.1228 55.7483 19.0804 55.7483C16.251 55.7483 14.3323 54.201 14.3323 50.7173C14.3323 47.9586 15.6939 45.7216 19.0362 45.7216C22.3077 45.7216 23.3598 48.0471 23.4571 50.9737H15.7647ZM21.9098 49.895C21.6976 47.8614 20.9195 46.8092 19.0362 46.8092C17.0467 46.8092 15.8973 48.2593 15.7647 49.895H21.9098ZM25.6322 46.0753H27.0646V48.0736H27.0911C27.9576 46.4113 29.3458 45.7216 31.1849 45.7216V46.9241C28.4262 46.9241 27.0646 48.2593 27.0646 50.7527V55.377H25.6322V46.0753ZM31.5916 50.7261C31.5916 47.4104 33.7668 45.7216 36.3574 45.7216C38.9216 45.7216 41.1055 47.4104 41.1055 50.7261C41.1055 54.0595 38.9216 55.7483 36.3574 55.7483C33.7668 55.7483 31.5916 54.0595 31.5916 50.7261ZM39.6731 50.7261C39.6731 48.3123 38.4087 46.8092 36.3574 46.8092C34.3061 46.8092 33.024 48.3123 33.024 50.7261C33.024 53.1488 34.3061 54.6608 36.3574 54.6608C38.4087 54.6608 39.6731 53.1488 39.6731 50.7261ZM41.0613 41.0089H42.7324L47.8077 53.5644L52.936 41.0089H54.5717L48.5592 55.377H47.0473L41.0613 41.0089ZM55.5532 42.5828H57.1005V44.1478H55.5532V42.5828ZM55.6062 46.0842H57.0474V55.3858H55.6062V46.0842ZM60.1421 46.0842H61.5833V48.0824H61.6275C62.4852 46.4113 63.8734 45.7216 65.7125 45.7216V46.933C62.9627 46.933 61.5833 48.2681 61.5833 50.7615V55.3858H60.1421V46.0842ZM66.1015 50.735C66.1015 47.4193 68.3032 45.7216 70.8673 45.7216C73.4403 45.7216 75.6331 47.4193 75.6331 50.735C75.6331 54.0595 73.4403 55.7395 70.8673 55.7395C68.3032 55.7395 66.1015 54.0595 66.1015 50.735ZM74.2007 50.735C74.2007 48.3212 72.9186 46.818 70.8673 46.818C68.816 46.818 67.5339 48.3212 67.5339 50.735C67.5339 53.1577 68.816 54.6608 70.8673 54.6608C72.9186 54.6608 74.2007 53.1577 74.2007 50.735ZM83.9621 55.3858V48.9401C83.9621 47.8172 83.3697 46.818 82.0788 46.818C80.5492 46.818 79.1787 48.0205 79.1787 50.3902V55.3858H77.7463V46.0842H79.1787V47.6757H79.2229C79.8949 46.4378 80.8763 45.7216 82.3529 45.7216C84.2097 45.7216 85.3945 47.0833 85.3945 49.1081V55.3858H83.9621ZM99.9129 55.3858V49.3114C99.9129 47.5342 99.3382 46.818 98.1799 46.818C96.553 46.818 95.5096 48.383 95.5096 49.9392V55.3858H94.0684V49.3114C94.0684 47.5342 93.4937 46.818 92.3531 46.818C90.7085 46.818 89.6828 48.383 89.6828 49.9392V55.3858H88.2416V46.0842H89.6828V47.4281H89.7094C90.3548 46.2875 91.3274 45.7216 92.468 45.7216C93.9446 45.7216 94.82 46.5881 95.2798 47.658C96.1551 46.429 96.9862 45.7216 98.5336 45.7216C100.001 45.7216 101.354 46.6412 101.354 48.7102V55.3858H99.9129ZM104.935 50.9737C104.979 53.1311 106.067 54.6608 108.118 54.6608C109.657 54.6608 110.559 54.1656 111.08 52.9101H112.557C112.009 54.9349 110.276 55.7395 108.251 55.7395C105.421 55.7395 103.503 54.1922 103.503 50.7173C103.503 47.9586 104.864 45.7216 108.207 45.7216C111.478 45.7216 112.53 48.0382 112.628 50.9737H104.935ZM111.08 49.8862C110.85 47.8614 110.081 46.818 108.207 46.818C106.217 46.818 105.05 48.2681 104.935 49.8862H111.08ZM120.886 55.3858V48.9401C120.886 47.8172 120.302 46.818 118.994 46.818C117.473 46.818 116.111 48.0205 116.111 50.3902V55.3858H114.67V46.0842H116.111V47.6757H116.147C116.827 46.4378 117.8 45.7216 119.277 45.7216C121.133 45.7216 122.327 47.0833 122.327 49.1081V55.3858H120.886ZM125.607 43.0249H127.04V46.0842H129.295V47.1717H127.04V53.1311C127.04 53.98 127.27 54.537 127.942 54.537C128.348 54.537 128.941 54.3336 129.339 54.0595V55.4123C128.826 55.5715 128.348 55.7395 127.791 55.7395C126.271 55.7395 125.607 54.9791 125.607 53.2107V47.1717H124.272V46.0842H125.607V43.0249Z" fill="#6B7C92"/>
</g>
</g>
<defs>
<clipPath id="clip0_865_49">
<rect width="138.11" height="55.7923" fill="white"/>
</clipPath>
</defs>
</svg>
