<svg id="carto" width="131" height="52" viewBox="0 0 131 52" fill="none" xmlns="http://www.w3.org/2000/svg">
<path opacity="0.2" d="M105.379 51.8007C119.426 51.8007 130.814 40.4132 130.814 26.3659C130.814 12.3187 119.426 0.931101 105.379 0.931101C91.3316 0.931101 79.9441 12.3187 79.9441 26.3659C79.9441 40.4132 91.3316 51.8007 105.379 51.8007Z" fill="#AEB6C7"/>
<path fill-rule="evenodd" clip-rule="evenodd" d="M9.17927 34.8182C12.7481 34.8182 14.8105 33.2655 16.34 31.1567L12.9566 28.7466C11.9833 29.9285 10.9868 30.7164 9.29514 30.7164C7.02409 30.7164 5.42509 28.8161 5.42509 26.3829V26.3365C5.42509 23.9728 7.02409 22.0262 9.29514 22.0262C10.8478 22.0262 11.9138 22.7909 12.8407 23.9264L16.2241 21.3078C14.7874 19.338 12.6554 17.9476 9.34149 17.9476C4.42861 17.9476 0.813477 21.6554 0.813477 26.3829V26.4292C0.813477 31.2726 4.54448 34.8182 9.17927 34.8182ZM23.9942 34.4937H28.6985L29.8572 31.5738H36.1373L37.296 34.4937H42.1162L35.2104 18.1561H30.8768L23.9942 34.4937ZM31.1781 28.0746L33.0089 23.4861L34.8164 28.0746H31.1781ZM50.8703 34.4937H55.366V29.5809H57.359L60.6265 34.4937H65.7943L61.9243 28.8393C63.9404 27.9819 65.2613 26.3365 65.2613 23.8337V23.7874C65.2613 22.1884 64.7747 20.9602 63.8245 20.01C62.7354 18.9209 61.0205 18.272 58.5409 18.272H50.8703V34.4937ZM55.366 26.0584V22.142H58.3323C59.8154 22.142 60.7656 22.7909 60.7656 24.0886V24.135C60.7656 25.3169 59.8618 26.0584 58.3555 26.0584H55.366ZM78.6734 34.4937H83.1691V22.2116H88.0356V18.272H73.83V22.2116H78.6734V34.4937ZM105.379 34.8442C110.061 34.8442 113.857 31.0483 113.857 26.3659C113.857 21.6835 110.061 17.8876 105.379 17.8876C100.696 17.8876 96.9005 21.6835 96.9005 26.3659C96.9005 31.0483 100.696 34.8442 105.379 34.8442Z" fill="#AEB6C7"/>
</svg>
