<svg id="telekom" width="89" height="67" viewBox="0 0 89 67" fill="none" xmlns="http://www.w3.org/2000/svg">
<rect width="88.1103" height="66.689" fill="#6B7C92"/>
<g clip-path="url(#clip0_865_163)">
<path d="M58.0954 60.3129V56.5511H55.5093C51.0486 56.5511 49.0012 53.8995 49.0012 49.997V10.5685H49.7682C58.1222 10.5685 63.4278 16.1127 63.4278 24.2646V24.995H66.6053V6.8064H21.7559V24.995H24.9334V24.2646C24.9334 16.1127 30.2387 10.5685 38.593 10.5685H39.3599V49.997C39.3599 53.8995 37.3126 56.5511 32.8519 56.5511H30.2658V60.3129H58.0954Z" fill="white"/>
<path d="M66.6041 42.1243H55.9395V31.4232H66.6041V42.1243Z" fill="white"/>
<path d="M32.4186 42.1243H21.7539V31.4232H32.4186V42.1243Z" fill="white"/>
</g>
<defs>
<clipPath id="clip0_865_163">
<rect width="45.5254" height="54.1595" fill="white" transform="translate(21.4219 6.46692)"/>
</clipPath>
</defs>
</svg>
