<svg id="geocaching" width="217" height="32" viewBox="0 0 217 32" fill="none" xmlns="http://www.w3.org/2000/svg">
<path d="M125.223 6.57411L122.502 6.57359L114.599 25.575L118.539 25.5942L120.596 20.6729L127.334 20.6749L129.408 25.5779L133.253 25.5972L125.223 6.57411ZM121.915 17.2014L123.912 11.491L125.961 17.2023L121.915 17.2014ZM65.3798 9.97486L65.3788 14.3833L71.8095 14.3844V17.7966L65.398 17.7951L65.3775 22.1733L72.075 22.1742L72.0932 25.5856L61.8155 25.5836L61.8184 6.56187L72.0776 6.56398L72.0958 9.97623L65.3798 9.97486ZM137.978 11.5161C136.786 12.7977 136.19 14.3304 136.189 16.1172C136.189 17.8173 136.784 19.3278 137.976 20.6537C139.168 21.9781 140.669 22.6398 142.483 22.6402C143.333 22.6407 144.134 22.4921 144.888 22.1951C145.642 21.8979 146.317 21.434 146.913 20.8022L147.238 20.4613L151.325 20.4616L151.096 20.8991C150.246 22.5198 149.05 23.7991 147.509 24.7367C145.968 25.6743 144.315 26.143 142.554 26.1425C139.853 26.1422 137.548 25.1809 135.639 23.258C133.731 21.3376 132.777 18.9559 132.777 16.1142C132.777 13.2861 133.733 10.9249 135.642 9.02944C137.552 7.13316 139.831 6.18488 142.482 6.18526C144.269 6.18574 145.938 6.63637 147.484 7.5376C149.032 8.43895 150.236 9.7013 151.099 11.3242L151.441 11.9723L147.39 11.9715L146.953 11.4974C146.382 10.8766 145.707 10.405 144.928 10.0819C144.148 9.75909 143.335 9.59712 142.486 9.59712C140.673 9.59661 139.17 10.2372 137.978 11.5161V11.5161ZM100.906 11.5089C99.7153 12.7904 99.1183 14.3231 99.1183 16.11C99.1183 17.8101 99.7141 19.3206 100.904 20.6463C102.096 21.9712 103.598 22.6326 105.411 22.633C106.26 22.633 107.063 22.4848 107.817 22.1878C108.57 21.8907 109.246 21.4267 109.842 20.7954L110.166 20.454L114.254 20.455L114.025 20.892C113.174 22.5123 111.979 23.792 110.438 24.729C108.898 25.6671 107.244 26.1354 105.482 26.1354C102.782 26.1349 100.477 25.1736 98.5681 23.2514C96.6603 21.3303 95.7061 18.9492 95.7061 16.1066C95.7071 13.2794 96.6623 10.9175 98.571 9.0227C100.48 7.12629 102.76 6.17762 105.41 6.17814C107.197 6.17865 108.866 6.62899 110.412 7.53047C111.961 8.43196 113.165 9.69395 114.027 11.3174L114.369 11.9651L110.319 11.9642L109.881 11.49C109.311 10.8693 108.636 10.3978 107.856 10.0744C107.078 9.75184 106.263 9.58987 105.414 9.58987C103.601 9.58936 102.099 10.2303 100.906 11.5089ZM164.029 6.58184L167.561 6.58232L167.557 25.6039L164.025 25.6029L164.026 17.7531L157.353 17.7517L157.352 25.6019L153.88 25.6011L153.883 6.57982L157.355 6.58034L157.354 14.3405L164.027 14.3415L164.029 6.58184ZM90.889 8.95993C88.9859 7.04192 86.6306 6.08405 83.8254 6.08306C81.0458 6.08268 78.6773 7.06026 76.7212 9.01411C74.7661 10.9683 73.7879 13.3277 73.7879 16.094C73.787 18.8344 74.7697 21.1838 76.7375 23.138C78.7044 25.0936 81.0544 26.0698 83.7829 26.0703C86.5379 26.0709 88.8866 25.0955 90.8292 23.1402C92.7719 21.187 93.7443 18.8384 93.7443 16.0979C93.7453 13.2553 92.7933 10.8757 90.889 8.95993V8.95993ZM88.2847 20.6074C87.0404 21.8757 85.5367 22.5087 83.7727 22.508C82.0083 22.508 80.4918 21.8873 79.2236 20.6441C77.954 19.4015 77.3193 17.8877 77.3202 16.1009C77.3202 14.339 77.9521 12.8274 79.2149 11.5677C80.4784 10.307 82.0236 9.67571 83.8516 9.67609C85.6284 9.67673 87.1225 10.3205 88.3349 11.6068C89.5463 12.8939 90.152 14.3926 90.151 16.1031C90.151 17.8401 89.529 19.3423 88.2847 20.6074V20.6074ZM170.968 6.58321L174.442 6.58369L174.438 25.6049L170.965 25.6044L170.968 6.58321ZM189.654 6.58656L193.218 6.58708L193.214 25.6087L189.279 25.6077L181.412 11.807L181.409 25.6063L177.877 25.6058L177.88 6.5842L181.799 6.58506L189.651 20.5195L189.654 6.58656ZM59.2401 15.861C59.1893 20.4039 56.4013 26.0564 49.0966 26.0564C42.1534 26.0564 38.9019 20.7651 38.9019 16.1708C38.9019 11.5764 42.3598 6.15581 49.0454 6.15581C53.4323 6.15581 56.8652 8.37593 58.2852 12.118H54.0523C52.5815 9.6922 49.9482 9.58888 49.0454 9.58888C44.5794 9.58888 42.438 13.0473 42.438 16.0415C42.438 19.294 44.8116 22.6235 49.1997 22.6235C51.5225 22.6235 53.7428 21.5651 54.775 19.1903H46.7996V15.861H59.2401ZM216.169 15.861C216.119 20.4039 213.33 26.0564 206.026 26.0564C199.083 26.0564 195.83 20.7651 195.83 16.1708C195.83 11.5764 199.289 6.15581 205.974 6.15581C210.362 6.15581 213.795 8.37593 215.215 12.118H210.982C209.51 9.6922 206.877 9.58888 205.974 9.58888C201.509 9.58888 199.366 13.0473 199.366 16.0415C199.366 19.294 201.741 22.6235 206.129 22.6235C208.452 22.6235 210.672 21.5651 211.703 19.1903H203.728V15.861H216.169ZM34.0027 2.75984e-07C34.7755 2.75984e-07 35.3524 0.576721 35.3524 1.34956C35.3524 2.11489 34.7755 2.69142 34.0027 2.69142C33.2376 2.69142 32.661 2.11489 32.661 1.34956C32.661 0.576721 33.2376 2.75984e-07 34.0027 2.75984e-07ZM34.0027 2.46866C34.6448 2.46866 35.1179 1.9881 35.1179 1.34956C35.1179 0.707508 34.6448 0.226816 34.0027 0.226816C33.3644 0.226816 32.8951 0.707508 32.8951 1.34956C32.8951 1.9881 33.3644 2.46866 34.0027 2.46866ZM33.4759 0.696041H34.0797C34.341 0.696041 34.5602 0.838295 34.5602 1.13427C34.5602 1.35355 34.4065 1.49182 34.2333 1.53424L34.6026 1.94567V2.00334H34.2797L33.8989 1.54945H33.7759V2.00334H33.4759V0.696041ZM33.7759 0.945859V1.33045H34.0682C34.1797 1.33045 34.264 1.25733 34.264 1.13827C34.264 1.01125 34.1797 0.945859 34.0682 0.945859H33.7759ZM31.9065 17.1727V32H23.1516L21.4388 25.0758C22.1306 24.2394 22.8498 23.8543 24.5626 23.587C27.756 23.0887 28.3295 20.3232 28.3295 20.3232C26.838 20.6816 25.6432 20.3246 24.2367 19.9816C22.8498 19.6433 21.5183 19.6736 20.249 20.1162C19.2853 20.4524 19.0527 20.7671 19.0527 20.7671L21.8402 32H17.079V17.1727H31.9065ZM14.8275 0.0935375V14.9209H5.22244C5.27659 12.3728 6.16232 9.62431 7.87083 7.95264C9.55684 9.24994 10.6481 10.9392 11.0777 13.0752C11.4716 13.0752 12.9965 13.0752 13.539 13.0752C12.922 10.0893 11.2546 8.18249 9.25811 6.88133C11.6462 4.98291 12.1103 2.99264 12.1103 1.93919H11.1566C11.0116 2.92926 10.4783 4.43532 7.87083 5.96362C5.10788 4.35983 4.6852 2.93587 4.58537 1.93919H3.63175C3.63175 3.0734 4.10855 5.11468 6.49002 6.88181C4.03417 9.3368 3.02451 12.38 2.80401 14.9209H0V0.0935375H14.8275ZM9.11324 3.56492C9.11324 2.88508 8.55703 2.33414 7.87095 2.33414C7.18472 2.33414 6.6288 2.88508 6.6288 3.56492C6.6288 4.24415 7.18472 4.7951 7.87095 4.7951C8.55703 4.7951 9.11324 4.24415 9.11324 3.56492ZM17.079 0.0935375V2.89894C19.8277 3.1318 22.3334 4.20834 24.3426 5.86653L22.6313 7.57791C21.0714 6.34598 19.1643 5.53509 17.079 5.31847V14.9209H26.6812C26.4662 12.85 25.6645 10.9548 24.4467 9.40082L26.1587 7.68883C27.8023 9.69296 28.8693 12.1865 29.1009 14.9209H31.9065V0.0935375H17.079ZM7.59555 26.2525L9.30789 24.54C10.8619 25.7576 12.7566 26.5591 14.8275 26.7742V17.1727H5.22541C5.44229 19.2577 6.25318 21.1647 7.48498 22.7245L5.77325 24.4364C4.11493 22.4271 3.03824 19.9214 2.80551 17.1727H0V32H14.8275V29.1946C12.0929 28.963 9.59952 27.8959 7.59555 26.2525" fill="#27884A"/>
</svg>
