<svg id="nasa" width="106" height="89" viewBox="0 0 106 89" fill="none" xmlns="http://www.w3.org/2000/svg">
<path d="M48.2145 81.9093C69.542 81.9093 86.8314 64.6199 86.8314 43.2924C86.8314 21.9649 69.542 4.67554 48.2145 4.67554C26.887 4.67554 9.59766 21.9649 9.59766 43.2924C9.59766 64.6199 26.887 81.9093 48.2145 81.9093Z" fill="#6B7C92"/>
<path d="M45.9349 12.5261C46.174 12.5261 46.3678 12.3323 46.3678 12.0932C46.3678 11.8541 46.174 11.6603 45.9349 11.6603C45.6958 11.6603 45.502 11.8541 45.502 12.0932C45.502 12.3323 45.6958 12.5261 45.9349 12.5261Z" fill="white"/>
<path d="M50.3782 13.1032C50.6173 13.1032 50.8112 12.9093 50.8112 12.6702C50.8112 12.4311 50.6173 12.2373 50.3782 12.2373C50.1391 12.2373 49.9453 12.4311 49.9453 12.6702C49.9453 12.9093 50.1391 13.1032 50.3782 13.1032Z" fill="white"/>
<path d="M56.2083 20.9536C56.4474 20.9536 56.6412 20.7598 56.6412 20.5207C56.6412 20.2816 56.4474 20.0878 56.2083 20.0878C55.9692 20.0878 55.7754 20.2816 55.7754 20.5207C55.7754 20.7598 55.9692 20.9536 56.2083 20.9536Z" fill="white"/>
<path d="M24.2298 61.3599C24.4689 61.3599 24.6627 61.166 24.6627 60.9269C24.6627 60.6878 24.4689 60.494 24.2298 60.494C23.9907 60.494 23.7969 60.6878 23.7969 60.9269C23.7969 61.166 23.9907 61.3599 24.2298 61.3599Z" fill="white"/>
<path d="M25.3568 64.8231C25.5958 64.8231 25.7897 64.6293 25.7897 64.3902C25.7897 64.1511 25.5958 63.9573 25.3568 63.9573C25.1177 63.9573 24.9238 64.1511 24.9238 64.3902C24.9238 64.6293 25.1177 64.8231 25.3568 64.8231Z" fill="white"/>
<path d="M19.9883 61.7705C20.1673 61.7705 20.3125 61.6253 20.3125 61.4463C20.3125 61.2672 20.1673 61.1221 19.9883 61.1221C19.8092 61.1221 19.6641 61.2672 19.6641 61.4463C19.6641 61.6253 19.8092 61.7705 19.9883 61.7705Z" fill="white"/>
<path d="M37.5928 68.5753C37.7723 68.5753 37.9179 68.4297 37.9179 68.2501C37.9179 68.0705 37.7723 67.9249 37.5928 67.9249C37.4132 67.9249 37.2676 68.0705 37.2676 68.2501C37.2676 68.4297 37.4132 68.5753 37.5928 68.5753Z" fill="white"/>
<path d="M65.207 62.8385C65.3861 62.8385 65.5312 62.6933 65.5312 62.5143C65.5312 62.3352 65.3861 62.1901 65.207 62.1901C65.028 62.1901 64.8828 62.3352 64.8828 62.5143C64.8828 62.6933 65.028 62.8385 65.207 62.8385Z" fill="white"/>
<path d="M73.2314 54.1232C73.411 54.1232 73.5566 53.9777 73.5566 53.7981C73.5566 53.6185 73.411 53.4729 73.2314 53.4729C73.0518 53.4729 72.9062 53.6185 72.9062 53.7981C72.9062 53.9777 73.0518 54.1232 73.2314 54.1232Z" fill="white"/>
<path d="M33.8984 23.3772C34.0775 23.3772 34.2226 23.232 34.2226 23.053C34.2226 22.8739 34.0775 22.7288 33.8984 22.7288C33.7194 22.7288 33.5742 22.8739 33.5742 23.053C33.5742 23.232 33.7194 23.3772 33.8984 23.3772Z" fill="white"/>
<path d="M42.7305 16.8909C42.9095 16.8909 43.0547 16.7457 43.0547 16.5666C43.0547 16.3876 42.9095 16.2424 42.7305 16.2424C42.5514 16.2424 42.4062 16.3876 42.4062 16.5666C42.4062 16.7457 42.5514 16.8909 42.7305 16.8909Z" fill="white"/>
<path d="M41.7715 16.256C41.9505 16.256 42.0957 16.1108 42.0957 15.9318C42.0957 15.7527 41.9505 15.6075 41.7715 15.6075C41.5924 15.6075 41.4473 15.7527 41.4473 15.9318C41.4473 16.1108 41.5924 16.256 41.7715 16.256Z" fill="white"/>
<path d="M40.9062 15.6207C41.0853 15.6207 41.2305 15.4756 41.2305 15.2965C41.2305 15.1174 41.0853 14.9723 40.9062 14.9723C40.7272 14.9723 40.582 15.1174 40.582 15.2965C40.582 15.4756 40.7272 15.6207 40.9062 15.6207Z" fill="white"/>
<path d="M35.2852 25.0517C35.4642 25.0517 35.6094 24.9066 35.6094 24.7275C35.6094 24.5485 35.4642 24.4033 35.2852 24.4033C35.1061 24.4033 34.9609 24.5485 34.9609 24.7275C34.9609 24.9066 35.1061 25.0517 35.2852 25.0517Z" fill="white"/>
<path d="M48.293 8.17455C48.472 8.17455 48.6172 8.02939 48.6172 7.85034C48.6172 7.67128 48.472 7.52612 48.293 7.52612C48.1139 7.52612 47.9688 7.67128 47.9688 7.85034C47.9688 8.02939 48.1139 8.17455 48.293 8.17455Z" fill="white"/>
<path d="M50.4297 17.5257C50.6087 17.5257 50.7539 17.3806 50.7539 17.2015C50.7539 17.0225 50.6087 16.8773 50.4297 16.8773C50.2506 16.8773 50.1055 17.0225 50.1055 17.2015C50.1055 17.3806 50.2506 17.5257 50.4297 17.5257Z" fill="white"/>
<path d="M47.0605 15.6998C47.2396 15.6998 47.3848 15.5547 47.3848 15.3756C47.3848 15.1965 47.2396 15.0514 47.0605 15.0514C46.8815 15.0514 46.7363 15.1965 46.7363 15.3756C46.7363 15.5547 46.8815 15.6998 47.0605 15.6998Z" fill="white"/>
<path d="M41.2871 18.1828C41.4662 18.1828 41.6113 18.0377 41.6113 17.8586C41.6113 17.6796 41.4662 17.5344 41.2871 17.5344C41.108 17.5344 40.9629 17.6796 40.9629 17.8586C40.9629 18.0377 41.108 18.1828 41.2871 18.1828Z" fill="white"/>
<path d="M66.7441 71.4034C66.9232 71.4034 67.0684 71.2583 67.0684 71.0792C67.0684 70.9002 66.9232 70.755 66.7441 70.755C66.5651 70.755 66.4199 70.9002 66.4199 71.0792C66.4199 71.2583 66.5651 71.4034 66.7441 71.4034Z" fill="white"/>
<path d="M23.6826 63.4454C23.8622 63.4454 24.0078 63.2998 24.0078 63.1202C24.0078 62.9406 23.8622 62.795 23.6826 62.795C23.503 62.795 23.3574 62.9406 23.3574 63.1202C23.3574 63.2998 23.503 63.4454 23.6826 63.4454Z" fill="white"/>
<path d="M46.251 67.6304C46.4305 67.6304 46.5761 67.4849 46.5761 67.3053C46.5761 67.1257 46.4305 66.9801 46.251 66.9801C46.0714 66.9801 45.9258 67.1257 45.9258 67.3053C45.9258 67.4849 46.0714 67.6304 46.251 67.6304Z" fill="white"/>
<path d="M30.3994 63.186C30.579 63.186 30.7246 63.0404 30.7246 62.8608C30.7246 62.6812 30.579 62.5356 30.3994 62.5356C30.2198 62.5356 30.0742 62.6812 30.0742 62.8608C30.0742 63.0404 30.2198 63.186 30.3994 63.186Z" fill="white"/>
<path d="M33.206 67.7679C33.3856 67.7679 33.5312 67.6223 33.5312 67.4427C33.5312 67.2631 33.3856 67.1176 33.206 67.1176C33.0264 67.1176 32.8809 67.2631 32.8809 67.4427C32.8809 67.6223 33.0264 67.7679 33.206 67.7679Z" fill="white"/>
<path d="M53.8711 64.881C54.0501 64.881 54.1953 64.7358 54.1953 64.5568C54.1953 64.3777 54.0501 64.2325 53.8711 64.2325C53.692 64.2325 53.5469 64.3777 53.5469 64.5568C53.5469 64.7358 53.692 64.881 53.8711 64.881Z" fill="white"/>
<path d="M65.2637 58.4516C65.4427 58.4516 65.5879 58.3065 65.5879 58.1274C65.5879 57.9484 65.4427 57.8032 65.2637 57.8032C65.0846 57.8032 64.9395 57.9484 64.9395 58.1274C64.9395 58.3065 65.0846 58.4516 65.2637 58.4516Z" fill="white"/>
<path d="M73.9004 62.3979C74.0794 62.3979 74.2246 62.2528 74.2246 62.0737C74.2246 61.8947 74.0794 61.7495 73.9004 61.7495C73.7213 61.7495 73.5762 61.8947 73.5762 62.0737C73.5762 62.2528 73.7213 62.3979 73.9004 62.3979Z" fill="white"/>
<path d="M76.8457 64.2817C77.0248 64.2817 77.1699 64.1366 77.1699 63.9575C77.1699 63.7785 77.0248 63.6333 76.8457 63.6333C76.6666 63.6333 76.5215 63.7785 76.5215 63.9575C76.5215 64.1366 76.6666 64.2817 76.8457 64.2817Z" fill="white"/>
<path d="M77.3281 59.1442C77.5072 59.1442 77.6523 58.999 77.6523 58.8199C77.6523 58.6409 77.5072 58.4957 77.3281 58.4957C77.1491 58.4957 77.0039 58.6409 77.0039 58.8199C77.0039 58.999 77.1491 59.1442 77.3281 59.1442Z" fill="white"/>
<path d="M34.3828 51.8711C34.5619 51.8711 34.707 51.7259 34.707 51.5469C34.707 51.3678 34.5619 51.2227 34.3828 51.2227C34.2038 51.2227 34.0586 51.3678 34.0586 51.5469C34.0586 51.7259 34.2038 51.8711 34.3828 51.8711Z" fill="white"/>
<path d="M34.5052 59.4263C34.7443 59.4263 34.9381 59.2324 34.9381 58.9934C34.9381 58.7543 34.7443 58.5604 34.5052 58.5604C34.2661 58.5604 34.0723 58.7543 34.0723 58.9934C34.0723 59.2324 34.2661 59.4263 34.5052 59.4263Z" fill="white"/>
<path d="M37.1028 64.9098C37.3419 64.9098 37.5358 64.716 37.5358 64.4769C37.5358 64.2378 37.3419 64.0439 37.1028 64.0439C36.8637 64.0439 36.6699 64.2378 36.6699 64.4769C36.6699 64.716 36.8637 64.9098 37.1028 64.9098Z" fill="white"/>
<path d="M68.2161 59.1953C68.4552 59.1953 68.6491 59.0015 68.6491 58.7624C68.6491 58.5233 68.4552 58.3295 68.2161 58.3295C67.977 58.3295 67.7832 58.5233 67.7832 58.7624C67.7832 59.0015 67.977 59.1953 68.2161 59.1953Z" fill="white"/>
<path d="M79.4134 58.5602C79.6525 58.5602 79.8463 58.3664 79.8463 58.1273C79.8463 57.8882 79.6525 57.6943 79.4134 57.6943C79.1743 57.6943 78.9805 57.8882 78.9805 58.1273C78.9805 58.3664 79.1743 58.5602 79.4134 58.5602Z" fill="white"/>
<path d="M73.8724 56.1937C74.1115 56.1937 74.3053 55.9999 74.3053 55.7608C74.3053 55.5217 74.1115 55.3279 73.8724 55.3279C73.6333 55.3279 73.4395 55.5217 73.4395 55.7608C73.4395 55.9999 73.6333 56.1937 73.8724 56.1937Z" fill="white"/>
<path d="M68.2161 56.4244C68.4552 56.4244 68.6491 56.2306 68.6491 55.9915C68.6491 55.7524 68.4552 55.5586 68.2161 55.5586C67.977 55.5586 67.7832 55.7524 67.7832 55.9915C67.7832 56.2306 67.977 56.4244 68.2161 56.4244Z" fill="white"/>
<path d="M56.5464 11.8216L57.6229 11.7186L56.5483 11.658C56.5146 11.4502 56.3482 11.2876 56.1385 11.2607L56.0355 10.189L55.974 11.2694C55.7796 11.3126 55.6305 11.4752 55.6065 11.6773L54.5059 11.7773L55.6141 11.837C55.6546 12.0226 55.8046 12.1679 55.9932 12.2025L56.0932 13.307L56.1519 12.2045C56.3511 12.1708 56.5089 12.0178 56.5464 11.8216Z" fill="white"/>
<path d="M38.3765 23.8072L39.453 23.7042L38.3784 23.6436C38.3457 23.4358 38.1783 23.2732 37.9685 23.2463L37.8656 22.1746L37.805 23.2549C37.6097 23.2982 37.4606 23.4608 37.4365 23.6629L36.3359 23.7629L37.4442 23.8226C37.4846 24.0082 37.6347 24.1535 37.8233 24.1881L37.9233 25.2926L37.983 24.1901C38.1821 24.1574 38.3399 24.0034 38.3765 23.8072Z" fill="white"/>
<path d="M78.6255 55.4952L79.702 55.3922L78.6274 55.3316C78.5947 55.1238 78.4273 54.9612 78.2176 54.9343L78.1146 53.8625L78.054 54.9429C77.8597 54.9862 77.7106 55.1488 77.6865 55.3508L76.5859 55.4509L77.6942 55.5105C77.7346 55.6962 77.8847 55.8415 78.0733 55.8761L78.1733 56.9806L78.233 55.8781C78.4302 55.8453 78.588 55.6924 78.6255 55.4952Z" fill="white"/>
<path d="M34.7417 72.0635L35.8182 71.9606L34.7436 71.9C34.7099 71.6922 34.5435 71.5296 34.3338 71.5027L34.2308 70.4319L34.1702 71.5113C33.9749 71.5546 33.8258 71.7172 33.8018 71.9192L32.7012 72.0193L33.8095 72.0789C33.8499 72.2646 33.9999 72.4108 34.1885 72.4445L34.2886 73.5489L34.3482 72.4464C34.5464 72.4137 34.7051 72.2598 34.7417 72.0635Z" fill="white"/>
<path d="M75.2056 63.9826L76.2821 63.8796L75.2075 63.819C75.1748 63.6112 75.0074 63.4486 74.7977 63.4217L74.6947 62.35L74.6341 63.4294C74.4398 63.4727 74.2907 63.6353 74.2666 63.8373L73.166 63.9374L74.2743 63.997C74.3147 64.1827 74.4648 64.328 74.6533 64.3626L74.7534 65.467L74.8131 64.3645C75.0103 64.3328 75.169 64.1788 75.2056 63.9826Z" fill="white"/>
<path d="M57.3722 34.042C52.8823 35.7872 48.503 37.3448 44.8078 38.5012C37.2989 40.8524 16.7543 47.2174 4.34375 55.2409L5.38277 55.645C12.9445 51.3735 17.8597 50.0314 22.5843 48.545C27.7217 46.9288 44.3296 43.0421 51.85 40.9255C54.3908 40.2107 57.3664 39.2747 60.5181 38.1356C59.785 37.1129 59.0115 36.0874 58.1976 35.0637C57.9254 34.7184 57.6493 34.3778 57.3722 34.042ZM62.8578 41.6028C61.7707 42.3369 60.8596 42.9228 60.2218 43.2922C56.5275 45.428 38.5169 57.723 34.4195 60.5515C30.3221 63.3799 18.9497 74.1164 15.6017 77.2335L15.4863 78.5024C26.2805 68.8049 29.667 66.4133 33.9577 63.149C39.2683 59.1084 50.254 51.6332 53.9877 49.2377C57.5569 46.948 60.776 44.8421 63.665 42.9151C63.6179 42.8362 63.5707 42.7573 63.5236 42.6774C63.3062 42.3205 63.0839 41.9626 62.8578 41.6028ZM79.7313 23.7817C74.4727 26.8641 66.1846 30.5844 58.1438 33.7409C58.3362 33.9766 58.5276 34.2142 58.7181 34.4538C59.6167 35.5852 60.4642 36.7242 61.2618 37.8643C67.5825 35.5361 74.5179 32.4114 80.0209 28.6295C77.3993 31.1135 68.7321 37.5911 63.4476 41.2017C63.7198 41.6452 63.9834 42.0887 64.2384 42.5302C72.2446 37.1726 77.6321 33.2291 80.7713 30.5921C85.1005 26.9555 94.9712 18.8166 98.7232 7.90686C92.1418 16.2777 84.3607 21.0678 79.7313 23.7817Z" fill="#AEB6C7"/>
<path d="M43.2461 52.8542C42.3947 51.7825 41.2171 50.3471 40.333 49.234C39.1506 47.7457 38.0568 46.242 37.0543 44.7402C36.7272 44.822 36.4011 44.9038 36.0749 44.9856C37.2852 46.8741 38.6292 48.7597 40.0934 50.603C41.1632 51.9499 42.1359 53.0341 42.6342 53.7085C42.7352 53.8451 42.9353 54.1472 43.2057 54.5493C43.5174 54.3377 43.832 54.1241 44.1495 53.9086C43.8426 53.5748 43.5395 53.2236 43.2461 52.8542ZM49.461 58.4957C48.7615 57.8338 47.0654 56.7284 45.3001 55.0698C44.9104 55.3373 44.517 55.6086 44.1225 55.8818C45.2625 57.4884 46.8153 59.4616 48.0313 60.0369C49.8631 60.9047 50.3566 59.3442 49.461 58.4957ZM58.7188 34.4539C48.6249 21.749 36.2943 14.7693 30.978 18.9937C26.8488 22.2743 28.544 31.8622 34.2355 41.9339C34.5299 41.8329 34.8214 41.7338 35.11 41.6357C29.3656 31.8227 27.7936 22.7034 31.688 19.6085C36.5819 15.7198 48.3988 22.7265 58.2003 35.0629C60.2292 37.6162 62.0129 40.1791 63.5233 42.6776C69.3072 52.25 71.0822 60.9066 67.0858 64.4402C65.863 65.5216 62.1264 65.9458 57.2315 63.7427C57.1632 63.8284 57.2728 64.0602 57.3585 64.117C61.5838 65.816 65.6312 66.4634 67.6746 64.8404C72.5849 60.9384 68.8127 47.1588 58.7188 34.4539Z" fill="white"/>
<path d="M15.4277 35.9615H21.8927L27.3187 45.1684C27.3187 45.1684 27.3187 38.5014 27.3187 37.9819C27.3187 37.1737 26.2941 36.1203 25.9334 35.9615C26.3663 35.9615 30.1472 35.9615 30.4069 35.9615C30.1327 36.0337 29.2525 37.1016 29.2525 37.9819C29.2525 38.4148 29.2525 48.0834 29.2525 48.5452C29.2525 49.1946 30.1905 50.0893 30.6378 50.4357H24.4037L18.8911 41.1855C18.8911 41.1855 18.8911 48.0834 18.8911 48.4586C18.8911 49.1802 19.5982 49.8729 20.3342 50.4645H15.572C16.2503 50.1759 16.8997 49.2668 16.9574 48.5452C17.0151 47.8237 16.9574 38.5158 16.9574 38.1117C16.9574 37.2315 16.106 36.5099 15.4277 35.9615Z" fill="white"/>
<path d="M74.5651 50.4357H83.1658C82.6896 50.3202 82.1557 49.7574 81.8671 49.007C81.5785 48.2566 77.0183 35.9615 77.0183 35.9615H73.7483C72.8209 36.6292 71.8271 37.3334 70.7659 38.0752C70.763 38.1021 70.7601 38.1291 70.7553 38.155C70.613 39.0209 68.0539 48.2893 67.898 48.7473C67.6816 49.3822 66.5704 50.0893 66.123 50.4645H70.7553C70.2935 49.945 69.9183 49.4399 70.0049 48.8627C70.0915 48.2855 70.3513 47.131 70.3513 47.131H75.1423C75.3588 47.7082 75.5204 48.2268 75.6041 48.7184C75.7051 49.3101 75.099 49.9739 74.5651 50.4357ZM70.7842 45.2839L72.4005 40.0022L74.5362 45.2839H70.7842ZM70.0559 36.4888C70.2936 36.3137 70.5321 36.1376 70.7698 35.9615H69.5143C69.6394 36.077 69.8462 36.2588 70.0559 36.4888Z" fill="white"/>
<path d="M37.1612 48.8627C37.2478 48.2855 37.5075 47.131 37.5075 47.131H42.2986C42.515 47.7082 42.6766 48.2268 42.7603 48.7184C42.8614 49.3101 42.2553 49.9739 41.7213 50.4357H49.2937C49.4514 50.3298 49.6083 50.224 49.7651 50.1191C49.4716 49.8594 49.2013 49.4698 49.0233 49.007C48.7347 48.2566 44.1746 35.9615 44.1746 35.9615H36.6705C37.0313 36.2935 38.0703 37.1882 37.9116 38.155C37.7702 39.0209 35.2101 48.2893 35.0543 48.7473C34.8378 49.3822 33.7267 50.0893 33.2793 50.4645H37.9116C37.4498 49.945 37.0746 49.4399 37.1612 48.8627ZM39.5567 40.0022L41.6925 45.2839H37.9405L39.5567 40.0022Z" fill="white"/>
<path d="M63.3181 43.1464C61.9058 44.0873 60.4156 45.0696 58.8455 46.0951C59.5498 46.4366 60.1106 46.8657 60.1645 47.4199C60.2646 48.4608 58.1731 48.964 56.2826 48.7475C55.9045 48.7042 55.5332 48.6051 55.1791 48.4723C54.7866 48.7254 54.3903 48.9803 53.9881 49.2381C53.5792 49.5008 53.0828 49.824 52.5162 50.1973V51.6914C52.8914 50.9554 53.712 50.2964 54.3489 50.2627C54.6231 50.2483 55.5755 51.1286 59.5007 50.9121C61.4056 50.8072 65.0854 48.7764 65.0277 46.4386C64.9931 45.057 64.2715 43.9795 63.3181 43.1464ZM52.5152 46.756V48.278C52.8625 48.0462 53.205 47.8181 53.5408 47.5959C53.0126 47.2284 52.6384 46.885 52.5152 46.756ZM61.9761 42.1911C61.6105 41.9746 61.2401 41.7851 60.8851 41.6177C59.0379 40.7519 57.1042 40.5931 56.7001 39.4242C56.4154 38.5997 57.2197 37.8368 59.1822 37.8657C61.1448 37.8946 62.9631 39.0634 63.4538 39.4819V35.7588C63.3095 35.9031 62.6764 36.6295 62.0973 36.5092C60.9861 36.2783 59.0957 35.9772 56.931 35.9897C54.4489 36.0041 52.3132 37.9225 52.241 40.3478C52.14 43.739 54.853 44.6626 56.3827 45.1965C56.5404 45.2514 56.7203 45.3101 56.9156 45.3726C58.3828 44.4182 59.543 43.6832 60.2222 43.2917C60.6782 43.029 61.2757 42.6519 61.9761 42.1911Z" fill="white"/>
</svg>
