<svg id="noaa" width="65" height="65" viewBox="0 0 65 65" fill="none" xmlns="http://www.w3.org/2000/svg">
<path d="M57.2624 20.3101C57.2775 20.3038 60.6521 26.9869 60.0533 34.0918C59.7276 46.0245 49.1817 59.5609 33.4654 60.0005L31.274 59.9549C15.0784 59.15 5.12593 45.4081 5.17154 32.9904C5.21153 30.682 5.20224 28.1014 6.17594 24.9097L7.16891 25.2064C11.3195 26.7752 15.7974 38.9025 30.3554 39.5928C30.9873 39.6227 32.2013 39.6507 32.1985 39.6558C31.2562 40.5959 25.8983 42.8059 23.4673 43.388C24.103 43.2358 23.4176 43.3723 23.4673 43.388C29.3223 47.0174 35.1774 40.0324 42.7787 39.0052L45.1071 38.8683C44.6619 37.4644 42.658 37.5829 42.4706 37.6014C37.2114 38.1191 38.5252 37.5159 38.3618 37.5671C46.4424 35.0334 51.0991 28.562 56.9149 20.6922L57.2624 20.3101Z" fill="#6B7C93"/>
<path fill-rule="evenodd" clip-rule="evenodd" d="M45.5181 8.22327C44.9534 7.92293 40.2108 5.07317 32.9292 4.95901C17.1438 5.01586 10.1936 16.6007 10.1936 16.6007C13.6861 18.3127 17.3102 23.4685 17.3612 23.5401C21.2697 29.0239 26.7166 37.5238 33.7739 37.6863C36.0335 37.7383 37.5365 36.3867 39.2521 34.7252C45.5173 28.6575 46.3944 17.4394 54.4205 15.8588C54.4205 15.8588 51.4416 11.3734 45.5181 8.22327ZM28.0286 15.6434H29.9046C30.6614 15.6434 31.2707 16.2526 31.2707 17.0095V21.5248C31.2707 22.2816 30.6614 22.8909 29.9046 22.8909H28.0286C27.2718 22.8909 26.6625 22.2816 26.6625 21.5248V17.0095C26.6625 16.2526 27.2718 15.6434 28.0286 15.6434ZM28.5284 16.887H29.4048C29.5792 16.887 29.7197 17.0274 29.7197 17.2019V21.3323C29.7197 21.5068 29.5792 21.6473 29.4048 21.6473H28.5284C28.3539 21.6473 28.2134 21.5068 28.2134 21.3323V17.2019C28.2134 17.0274 28.3539 16.887 28.5284 16.887ZM33.9624 15.6449C33.2056 15.6449 32.5971 16.2534 32.5971 17.0102V22.891H34.1464V19.9806H35.653V22.891H37.2024V17.0102C37.2024 16.2534 36.5939 15.6449 35.8371 15.6449H33.9624ZM34.4632 16.8861H35.3363C35.5108 16.8861 35.653 17.0283 35.653 17.2028V18.7394H34.1464V17.2028C34.1464 17.0283 34.2887 16.8861 34.4632 16.8861ZM39.8941 15.6449C39.1373 15.6449 38.5288 16.2534 38.5288 17.0102V22.891H40.0782V19.9806H41.5847V22.891H43.1341V17.0102C43.1341 16.2534 42.5256 15.6449 41.7688 15.6449H39.8941ZM40.3949 16.8861H41.268C41.4425 16.8861 41.5847 17.0283 41.5847 17.2028V18.7394H40.0782V17.2028C40.0782 17.0283 40.2204 16.8861 40.3949 16.8861ZM20.7265 15.6449V22.891H22.2801V17.2028C22.2801 17.0283 22.4181 16.8861 22.5926 16.8861H23.47C23.6445 16.8861 23.7867 17.0283 23.7867 17.2028V22.891H25.3361V17.0102C25.3361 16.2534 24.7276 15.6449 23.9707 15.6449H20.7265Z" fill="#6B7C93"/>
<path d="M5.21449 42.2504L2.45017 43.1141L2.32175 42.7031L3.92637 40.7846C3.96116 40.7421 3.99463 40.7042 4.02677 40.6708C4.05891 40.6374 4.08992 40.6092 4.11979 40.5861L1.87905 41.2863L1.76705 40.9278L4.53138 40.0641L4.65862 40.4713L3.03465 42.4268C3.00963 42.4566 2.98287 42.4852 2.95436 42.5127C2.92586 42.5401 2.89519 42.5672 2.86235 42.594L5.10309 41.8938L5.21449 42.2504ZM3.0998 39.2099L2.91328 38.327L1.75554 39.0297L3.0998 39.2099ZM4.45021 39.7807L1.39434 39.3271L1.30453 38.9019L3.91502 37.2472L4.0032 37.6647L3.22018 38.1436L3.45587 39.2593L4.36609 39.3825L4.45021 39.7807ZM3.80553 36.3161L1.28099 36.6316L1.39439 37.5388L1.04517 37.5825L0.769357 35.3759L1.11858 35.3323L1.23197 36.2395L3.75651 35.9239L3.80553 36.3161ZM3.63502 34.6597L0.745441 34.8542L0.719031 34.4619L3.60861 34.2673L3.63502 34.6597ZM2.10709 33.3455C2.47803 33.3467 2.76831 33.2621 2.97792 33.0917C3.18754 32.9213 3.29283 32.6847 3.29381 32.382C3.29478 32.0805 3.191 31.8446 2.98248 31.6741C2.77396 31.5037 2.48423 31.4179 2.11329 31.4167C1.74104 31.4155 1.45043 31.4995 1.24148 31.6685C1.03252 31.8376 0.927562 32.0729 0.926589 32.3744C0.925618 32.6771 1.02906 32.9144 1.23692 33.0861C1.44478 33.2578 1.73484 33.3443 2.10709 33.3455ZM2.10578 33.7525C1.62736 33.7509 1.25385 33.6282 0.985275 33.3842C0.716701 33.1401 0.583103 32.8032 0.584483 32.3733C0.585865 31.9446 0.721295 31.6098 0.990774 31.3689C1.26026 31.1279 1.63487 31.0082 2.1146 31.0097C2.59302 31.0113 2.96653 31.1334 3.23511 31.3761C3.50369 31.6188 3.63729 31.9545 3.63591 32.3831C3.63453 32.813 3.49877 33.1491 3.22863 33.3914C2.95849 33.6337 2.5842 33.754 2.10578 33.7525ZM3.59767 30.5202L0.717697 30.2149L0.763101 29.7867L2.99778 28.6633C3.04658 28.6382 3.09236 28.6167 3.13511 28.5988C3.17787 28.5809 3.21753 28.5674 3.25411 28.5581L0.919629 28.3105L0.959227 27.9371L3.8392 28.2425L3.79421 28.6667L1.5271 29.8163C1.4923 29.8337 1.45638 29.8493 1.41931 29.8632C1.38226 29.877 1.34335 29.8897 1.30258 29.9012L3.63706 30.1488L3.59767 30.5202ZM2.8638 26.8904L3.04291 26.0059L1.70137 26.1916L2.8638 26.8904ZM3.87691 27.9501L1.25185 26.3213L1.33808 25.8954L4.39082 25.4123L4.30615 25.8304L3.39738 25.9593L3.17106 27.077L3.95768 27.5512L3.87691 27.9501ZM4.48275 25.128L1.70061 24.3235L1.81093 23.942L4.24176 24.6449L4.64264 23.2586L4.99395 23.3601L4.48275 25.128ZM4.25206 21.1877C4.59213 21.3359 4.89217 21.3733 5.15215 21.3C5.41213 21.2266 5.60259 21.0512 5.72351 20.7736C5.84391 20.4972 5.84217 20.2395 5.71829 20.0003C5.59441 19.7612 5.36243 19.5676 5.02236 19.4195C4.68108 19.2708 4.38101 19.2326 4.12215 19.305C3.86329 19.3774 3.67366 19.5518 3.55326 19.8282C3.43234 20.1058 3.43325 20.3646 3.55601 20.6047C3.67876 20.8447 3.91078 21.0391 4.25206 21.1877ZM4.08952 21.5609C3.6509 21.3698 3.35667 21.109 3.20683 20.7785C3.05699 20.448 3.06792 20.0857 3.23962 19.6916C3.4108 19.2986 3.66785 19.0449 4.01078 18.9305C4.35371 18.8161 4.74508 18.8547 5.1849 19.0463C5.62351 19.2374 5.918 19.4976 6.06837 19.8269C6.21873 20.1562 6.20833 20.5173 6.03715 20.9102C5.86545 21.3044 5.60757 21.5591 5.26352 21.6745C4.91947 21.7898 4.52813 21.7519 4.08952 21.5609ZM6.80335 16.89L6.9909 16.5579C7.28954 16.7461 7.47495 16.9889 7.54711 17.2863C7.61926 17.5837 7.56834 17.8865 7.39432 18.1946C7.19388 18.5496 6.9158 18.7595 6.56007 18.8243C6.20435 18.8891 5.81249 18.8007 5.38447 18.559C4.98957 18.336 4.73559 18.0533 4.62256 17.711C4.50953 17.3687 4.5542 17.0184 4.75657 16.66C4.9177 16.3747 5.12328 16.1825 5.37331 16.0836C5.62335 15.9847 5.88368 15.9929 6.15431 16.108L5.96483 16.4436C5.78015 16.3815 5.60917 16.385 5.4519 16.4543C5.29463 16.5235 5.16186 16.654 5.05358 16.8458C4.90921 17.1014 4.88683 17.3503 4.98642 17.5925C5.08602 17.8346 5.29903 18.0479 5.62546 18.2322C5.93363 18.4062 6.22214 18.4724 6.491 18.4308C6.75986 18.3892 6.96261 18.2474 7.09925 18.0054C7.2159 17.7988 7.24725 17.5934 7.19328 17.3891C7.13932 17.1847 7.00934 17.0184 6.80335 16.89ZM8.18718 16.7002L5.80921 15.0471L6.98758 13.352L7.28301 13.5574L6.32684 14.9328L7.03717 15.4266L7.92039 14.1561L8.19807 14.3491L7.31484 15.6196L8.11235 16.174L9.0876 14.7711L9.38464 14.9776L8.18718 16.7002ZM9.08408 13.4376L9.66222 12.7446L8.39374 12.2701L9.08408 13.4376ZM9.47144 14.8515L7.93664 12.1704L8.21501 11.8368L11.1303 12.8633L10.857 13.1909L9.99621 12.8722L9.26566 13.7478L9.73217 14.539L9.47144 14.8515ZM11.3346 12.6509L9.29337 10.5964L9.59882 10.2929L12.0412 10.8319C12.0949 10.8432 12.144 10.8554 12.1884 10.8685C12.2329 10.8817 12.2722 10.8962 12.3065 10.912L10.6519 9.24668L10.9183 8.982L12.9595 11.0365L12.6568 11.3372L10.1728 10.7981C10.1348 10.7896 10.0971 10.7791 10.0596 10.7664C10.0221 10.7538 9.98387 10.7391 9.945 10.7223L11.5996 12.3876L11.3346 12.6509ZM13.4381 10.6353L11.5395 8.44832L11.8364 8.19054L13.735 10.3775L13.4381 10.6353ZM15.1756 7.87187L15.4797 7.6416C15.679 7.93299 15.7526 8.22947 15.7007 8.53106C15.6487 8.83264 15.4817 9.09026 15.1995 9.30391C14.8746 9.54999 14.536 9.6321 14.1838 9.55023C13.8316 9.46836 13.5071 9.23149 13.2104 8.83963C12.9366 8.47807 12.8159 8.11777 12.8482 7.75873C12.8805 7.39969 13.0607 7.09594 13.3888 6.84748C13.65 6.64966 13.915 6.55505 14.1838 6.56363C14.4525 6.57223 14.6882 6.68315 14.8908 6.89639L14.5835 7.12903C14.4388 6.99862 14.2804 6.93394 14.1086 6.935C13.9368 6.93605 13.7631 7.00305 13.5875 7.13598C13.3534 7.31323 13.234 7.53274 13.2292 7.79453C13.2244 8.05631 13.3351 8.33663 13.5614 8.63549C13.7751 8.91764 14.0135 9.09303 14.2768 9.16168C14.54 9.23033 14.7824 9.18078 15.0039 9.01303C15.1931 8.86981 15.3035 8.69372 15.3352 8.48477C15.3668 8.27582 15.3137 8.07152 15.1756 7.87187ZM17.3015 6.35285L18.0859 5.90668L17.0644 5.01743L17.3015 6.35285ZM17.1683 7.81287L16.6713 4.76375L17.049 4.54892L19.4191 6.53268L19.0483 6.74362L18.3539 6.14328L17.3627 6.70707L17.5221 7.61166L17.1683 7.81287ZM19.685 6.40546L18.4964 3.76449L18.889 3.58778L20.986 4.95103C21.0323 4.98049 21.0739 5.00918 21.1109 5.03709C21.1479 5.065 21.1797 5.0924 21.2062 5.11929L20.2427 2.97854L20.5851 2.82442L21.7737 5.46539L21.3847 5.64049L19.2487 4.26245C19.2162 4.24118 19.1845 4.21803 19.1539 4.19302C19.1232 4.16801 19.0926 4.14081 19.0622 4.1114L20.0256 6.25215L19.685 6.40546ZM22.5487 2.47292L21.9075 2.68788L22.6092 4.78137L23.2505 4.56641C23.5251 4.47434 23.7028 4.3156 23.7835 4.09018C23.8641 3.86477 23.8459 3.57745 23.7288 3.22822C23.6168 2.89391 23.4595 2.66185 23.257 2.53204C23.0545 2.40223 22.8184 2.38252 22.5487 2.47292ZM22.3488 5.2419L21.4284 2.49595L22.4742 2.14538C22.857 2.01708 23.1883 2.0332 23.4681 2.19376C23.748 2.35433 23.9602 2.65023 24.1048 3.08148C24.2543 3.52764 24.2653 3.91 24.1378 4.22855C24.0102 4.5471 23.7575 4.7697 23.3797 4.89634L22.3488 5.2419ZM26.4053 2.8252L27.2912 2.65332L26.6078 1.4841L26.4053 2.8252ZM25.8122 4.16596L26.3165 1.11803L26.743 1.03527L28.3542 3.67282L27.9354 3.75407L27.4695 2.96322L26.35 3.1804L26.2118 4.08845L25.8122 4.16596ZM29.2871 3.57867L29.0132 1.04929L28.1042 1.14774L28.0663 0.797848L30.2771 0.558382L30.315 0.908274L29.406 1.00673L29.68 3.53612L29.2871 3.57867ZM31.2699 0.933621L31.2991 3.40095L30.9374 3.40524L30.9031 0.509324L31.4653 0.502655L32.2092 2.70982C32.2309 2.77249 32.2469 2.82113 32.2571 2.85574C32.2674 2.89036 32.2753 2.92074 32.2808 2.94689C32.2907 2.89828 32.3007 2.8549 32.3108 2.81677C32.3208 2.77863 32.3315 2.74246 32.3429 2.70824L33.0598 0.483743L33.624 0.477051L33.6583 3.37297L33.2769 3.37749L33.2477 0.910162C33.239 0.952215 33.229 0.994608 33.2177 1.03734C33.2064 1.08008 33.1945 1.1225 33.1819 1.16459L32.463 3.38715L32.0914 3.39155L31.3378 1.18647C31.3242 1.14992 31.312 1.11074 31.301 1.06893C31.29 1.02711 31.2796 0.982009 31.2699 0.933621ZM34.7023 1.99482C34.666 2.36399 34.7228 2.66097 34.8726 2.88576C35.0224 3.11055 35.2479 3.23775 35.5493 3.26736C35.8493 3.29684 36.094 3.21585 36.2834 3.02438C36.4728 2.83292 36.5856 2.5526 36.6219 2.18344C36.6583 1.81297 36.6022 1.51573 36.4536 1.29171C36.3051 1.0677 36.0808 0.940958 35.7808 0.911474C35.4794 0.881867 35.2335 0.962404 35.0428 1.15309C34.8522 1.34377 34.7387 1.62435 34.7023 1.99482ZM34.2973 1.95502C34.3441 1.47889 34.5016 1.11867 34.7699 0.87438C35.0383 0.63009 35.3864 0.528966 35.8142 0.571006C36.2408 0.612924 36.5613 0.779415 36.7757 1.07048C36.9901 1.36155 37.0738 1.7458 37.0269 2.22324C36.9801 2.69937 36.8232 3.05965 36.5562 3.30407C36.2892 3.54849 35.9424 3.64974 35.5158 3.60783C35.0879 3.56578 34.7662 3.39884 34.5506 3.10699C34.3349 2.81514 34.2505 2.43115 34.2973 1.95502ZM37.4315 2.79142L37.8037 2.86546C37.7666 3.07192 37.8025 3.24945 37.9113 3.39805C38.02 3.54665 38.1856 3.64307 38.408 3.68731C38.6278 3.73105 38.8103 3.71923 38.9553 3.65186C39.1004 3.58449 39.1887 3.4711 39.2204 3.31169C39.2637 3.09443 39.0587 2.88192 38.6055 2.67416C38.5785 2.66211 38.5577 2.65262 38.543 2.64569C38.1755 2.47769 37.9409 2.32511 37.8393 2.18794C37.7376 2.05078 37.7073 1.87871 37.7485 1.67173C37.7989 1.41847 37.9319 1.23345 38.1476 1.11665C38.3633 0.999852 38.6248 0.972016 38.932 1.03314C39.2457 1.09554 39.4765 1.22532 39.6244 1.42246C39.7722 1.6196 39.8195 1.8592 39.766 2.14125L39.3973 2.0699C39.4223 1.87708 39.3867 1.71832 39.2906 1.59361C39.1945 1.46891 39.0455 1.38648 38.8436 1.34633C38.6547 1.30874 38.4954 1.32014 38.3657 1.38055C38.2361 1.44097 38.1576 1.53995 38.1303 1.67751C38.0865 1.89734 38.2879 2.1078 38.7343 2.30888C38.8004 2.3394 38.8512 2.36287 38.8867 2.37928C38.8942 2.38211 38.907 2.388 38.9253 2.39698C39.2167 2.53113 39.4041 2.6506 39.4875 2.75539C39.5505 2.83476 39.5928 2.92437 39.6144 3.02421C39.636 3.12406 39.6355 3.23055 39.613 3.34368C39.5585 3.6175 39.4172 3.81591 39.1889 3.93889C38.9606 4.06186 38.6793 4.09011 38.3451 4.02361C38.0006 3.95507 37.7495 3.81459 37.592 3.60216C37.4345 3.38973 37.381 3.11948 37.4315 2.79142ZM40.7441 2.89256L41.378 3.07856C41.5981 3.14315 41.7622 3.15305 41.8703 3.10826C41.9784 3.06348 42.0575 2.95556 42.1077 2.78451C42.156 2.61975 42.1473 2.48879 42.0816 2.39163C42.0158 2.29448 41.8817 2.21619 41.6792 2.15677L41.017 1.96247L40.7441 2.89256ZM39.9245 4.28923L40.7399 1.51028L41.7625 1.81032C41.9285 1.85903 42.0525 1.9043 42.1345 1.94611C42.2164 1.98793 42.2859 2.03767 42.3427 2.09533C42.4378 2.19017 42.4978 2.30682 42.5228 2.44528C42.5477 2.58374 42.5364 2.73409 42.4888 2.89633C42.4434 3.05104 42.3732 3.17864 42.2781 3.27915C42.183 3.37967 42.0673 3.44816 41.9309 3.48464C41.8525 3.50533 41.7658 3.51097 41.6709 3.50156C41.576 3.49215 41.4254 3.45719 41.2191 3.39666L40.6456 3.22837L40.3018 4.39995L39.9245 4.28923ZM42.3571 5.02463L43.4309 2.3349L43.7961 2.48068L43.3551 3.58543L44.7501 4.14233L45.1911 3.03758L45.5582 3.1841L44.4845 5.87383L44.1174 5.72732L44.6204 4.46736L43.2253 3.91046L42.7223 5.17042L42.3571 5.02463ZM45.046 6.13844L46.3692 3.56226L48.2055 4.50546L48.0411 4.82551L46.5511 4.06017L46.1558 4.82971L47.5322 5.53666L47.3777 5.83747L46.0013 5.13052L45.5575 5.9945L47.0774 6.77511L46.9121 7.09691L45.046 6.13844ZM49.0157 5.38379L48.4907 6.21258L49.0587 6.57243C49.2635 6.70221 49.4293 6.76071 49.5561 6.74793C49.6829 6.73516 49.7954 6.65127 49.8936 6.49625C49.9855 6.3512 50.0106 6.22353 49.9687 6.11323C49.9269 6.00293 49.7985 5.87974 49.5837 5.74365L49.0157 5.38379ZM48.8722 4.89023L49.8206 5.49104C49.9745 5.58855 50.0835 5.66692 50.1476 5.72615C50.2117 5.78538 50.2627 5.84874 50.3007 5.91622C50.3679 6.03793 50.3964 6.16617 50.3863 6.30095C50.3761 6.43574 50.3279 6.57122 50.2417 6.70742C50.1582 6.83918 50.0586 6.93396 49.9428 6.99174C49.8271 7.04953 49.6964 7.06958 49.5509 7.05187C49.6293 7.13878 49.6687 7.22658 49.6692 7.3153C49.6696 7.40402 49.6271 7.52683 49.5417 7.68373L49.3142 8.10521C49.265 8.19509 49.2355 8.26677 49.2257 8.32028C49.2158 8.37378 49.2225 8.42026 49.2456 8.45972L49.2024 8.52782L48.8188 8.28476C48.82 8.21418 48.8675 8.09144 48.9613 7.91653C48.9641 7.9121 48.9662 7.90878 48.9676 7.90656L49.1497 7.57504C49.2424 7.40416 49.2749 7.27576 49.2471 7.18986C49.2192 7.10397 49.088 6.98666 48.8532 6.83795L48.3151 6.49703L47.6512 7.54505L47.3223 7.33671L48.8722 4.89023ZM49.5622 8.81061L51.2646 6.46764L51.5827 6.69878L49.8804 9.04175L49.5622 8.81061ZM52.6464 9.88011L52.9393 10.1244C52.7004 10.3843 52.4281 10.5229 52.1226 10.5403C51.8171 10.5577 51.5284 10.4531 51.2566 10.2264C50.9436 9.96531 50.7872 9.65396 50.7875 9.29239C50.7879 8.93081 50.9454 8.56128 51.2603 8.18381C51.5508 7.83553 51.8745 7.63662 52.2316 7.5871C52.5887 7.53758 52.9252 7.64462 53.2413 7.90824C53.493 8.11813 53.6449 8.35496 53.6972 8.61872C53.7494 8.88248 53.6945 9.13709 53.5325 9.38255L53.2365 9.13572C53.3309 8.96525 53.3582 8.79643 53.3184 8.62925C53.2786 8.46208 53.1742 8.30798 53.0051 8.16693C52.7796 7.97887 52.5388 7.91201 52.2827 7.96636C52.0265 8.02071 51.7784 8.19183 51.5383 8.47972C51.3116 8.7515 51.1945 9.02337 51.187 9.29532C51.1795 9.56728 51.2825 9.79225 51.4959 9.97024C51.6781 10.1222 51.8745 10.19 52.0853 10.1738C52.296 10.1575 52.483 10.0596 52.6464 9.88011ZM54.6056 11.6076L55.2177 12.2708L55.8528 11.0747L54.6056 11.6076ZM53.1533 11.8081L56.0111 10.6344L56.3057 10.9537L54.9094 13.711L54.6201 13.3975L55.0478 12.5854L54.2744 11.7473L53.4293 12.1072L53.1533 11.8081ZM57.7798 13.2383L57.369 12.7011L55.6151 14.0423L56.0259 14.5796C56.2019 14.8097 56.4095 14.9264 56.6489 14.9298C56.8883 14.9332 57.1543 14.8231 57.4469 14.5993C57.727 14.3851 57.8957 14.1613 57.953 13.9277C58.0103 13.6941 57.9526 13.4643 57.7798 13.2383ZM55.0951 13.9449L57.3956 12.1857L58.0656 13.0619C58.3109 13.3826 58.4028 13.7013 58.3414 14.018C58.28 14.3348 58.0686 14.6313 57.7073 14.9076C57.3335 15.1934 56.9753 15.3275 56.6326 15.3099C56.2899 15.2922 55.9976 15.1251 55.7555 14.8086L55.0951 13.9449ZM59.1058 15.246L56.998 16.5289L56.8099 16.2199L59.2838 14.7142L59.5762 15.1945L58.0565 16.9596C58.0136 17.0102 57.9799 17.0487 57.9554 17.0752C57.9308 17.1017 57.9087 17.1239 57.889 17.1421C57.9359 17.1258 57.9783 17.1123 58.0162 17.1015C58.0541 17.0907 58.0907 17.0814 58.126 17.0738L60.4052 16.5566L60.6986 17.0386L58.2247 18.5443L58.0263 18.2185L60.1341 16.9356C60.0935 16.9496 60.052 16.9626 60.0094 16.9747C59.9669 16.9868 59.9243 16.9981 59.8817 17.0087L57.6031 17.5232L57.4099 17.2058L58.9228 15.4333C58.9474 15.4031 58.9748 15.3725 59.0052 15.3418C59.0356 15.311 59.0691 15.2791 59.1058 15.246ZM58.4935 19.1155L61.0737 17.8003L61.2523 18.1506L58.6721 19.4658L58.4935 19.1155ZM58.9697 20.026L61.6334 18.8892L61.8025 19.2852L60.3985 21.3551C60.3681 21.4009 60.3386 21.442 60.31 21.4784C60.2814 21.5148 60.2533 21.546 60.2259 21.572L62.3851 20.6505L62.5325 20.9959L59.8688 22.1327L59.7013 21.7403L61.1209 19.6317C61.1428 19.5995 61.1665 19.5684 61.1922 19.5382C61.2178 19.508 61.2456 19.478 61.2756 19.4481L59.1164 20.3696L58.9697 20.026ZM60.0639 22.7259L62.7988 21.7733L62.9282 22.1446L60.1932 23.0973L60.0639 22.7259ZM61.2904 23.3129L61.3924 23.6784C61.1914 23.7385 61.0492 23.8507 60.9657 24.0148C60.8822 24.179 60.8709 24.3702 60.9319 24.5887C60.9921 24.8045 61.085 24.962 61.2106 25.061C61.3362 25.16 61.4773 25.1876 61.6339 25.144C61.8472 25.0844 61.9443 24.8056 61.9251 24.3075C61.9236 24.2779 61.9227 24.2551 61.9223 24.2388C61.9062 23.8351 61.9365 23.5569 62.0129 23.4042C62.0894 23.2515 62.2293 23.1469 62.4326 23.0902C62.6813 23.0208 62.9064 23.0559 63.108 23.1956C63.3096 23.3353 63.4525 23.5561 63.5367 23.8578C63.6227 24.1659 63.6111 24.4304 63.5019 24.6514C63.3928 24.8723 63.2003 25.0226 62.9246 25.1023L62.8217 24.7411C63.0051 24.6763 63.1307 24.5729 63.1985 24.4308C63.2664 24.2887 63.2727 24.1186 63.2174 23.9204C63.1656 23.7348 63.0835 23.5978 62.971 23.5094C62.8586 23.421 62.7348 23.3957 62.5998 23.4334C62.3839 23.4936 62.287 23.7683 62.3092 24.2575C62.3118 24.3302 62.3138 24.3861 62.3152 24.4252C62.316 24.4331 62.3165 24.4473 62.3168 24.4676C62.3286 24.7882 62.3067 25.0093 62.2508 25.1311C62.2085 25.2232 62.1476 25.3014 62.0683 25.3657C61.9889 25.43 61.8937 25.4777 61.7826 25.5087C61.5137 25.5837 61.2728 25.5471 61.06 25.399C60.8472 25.2508 60.695 25.0126 60.6034 24.6844C60.509 24.346 60.521 24.0586 60.6394 23.8221C60.7578 23.5856 60.9748 23.4159 61.2904 23.3129ZM61.1947 26.8421L63.6943 26.3684L63.5241 25.4701L63.8699 25.4046L64.2839 27.5894L63.9382 27.6549L63.7679 26.7566L61.2682 27.2304L61.1947 26.8421ZM64.0669 28.5986L63.0908 28.6982L63.1591 29.3671C63.1837 29.6084 63.2403 29.7749 63.3287 29.8666C63.4171 29.9584 63.5526 29.995 63.7352 29.9763C63.906 29.9589 64.0218 29.8996 64.0826 29.7986C64.1435 29.6975 64.161 29.5205 64.1351 29.2675L64.0669 28.5986ZM64.3661 28.1806L64.4801 29.2975C64.4986 29.4788 64.5044 29.6129 64.4975 29.6999C64.4905 29.7869 64.4723 29.8662 64.4427 29.9377C64.3886 30.0658 64.3054 30.1675 64.1932 30.2428C64.081 30.3182 63.9447 30.3641 63.7843 30.3804C63.6291 30.3963 63.4931 30.3766 63.3761 30.3213C63.2591 30.266 63.1626 30.1758 63.0866 30.0505C63.0667 30.1658 63.0221 30.251 62.9526 30.3062C62.8831 30.3614 62.7603 30.4039 62.5842 30.4338L62.1123 30.5155C62.0112 30.5324 61.9366 30.5536 61.8885 30.5789C61.8403 30.6042 61.8079 30.6382 61.7912 30.6807L61.711 30.6889L61.6649 30.2371C61.7211 30.1944 61.847 30.1559 62.0424 30.1215C62.0476 30.1209 62.0515 30.1205 62.0541 30.1203L62.4273 30.0585C62.6189 30.0257 62.7399 29.9719 62.7902 29.8969C62.8406 29.8219 62.8516 29.6462 62.8234 29.3698L62.7587 28.736L61.5245 28.862L61.485 28.4747L64.3661 28.1806ZM62.9357 31.6384L62.947 32.5408L64.2193 32.0765L62.9357 31.6384ZM61.7221 30.8159L64.6314 31.855L64.6369 32.2895L61.7545 33.4051L61.7492 32.9785L62.6103 32.661L62.5961 31.5207L61.7272 31.2229L61.7221 30.8159ZM61.6827 34.3399L64.2206 34.5177L64.2845 33.6057L64.6356 33.6303L64.4802 35.8485L64.1291 35.824L64.193 34.9119L61.655 34.7342L61.6827 34.3399ZM61.5304 35.9981L64.4032 36.365L64.3533 36.7551L61.4806 36.3882L61.5304 35.9981ZM62.7757 37.5842C62.4121 37.511 62.1109 37.5376 61.8722 37.664C61.6335 37.7905 61.4842 38.0021 61.4245 38.2989C61.365 38.5945 61.4209 38.8461 61.5924 39.0537C61.7638 39.2614 62.0314 39.4019 62.395 39.4751C62.76 39.5485 63.0613 39.5226 63.2992 39.3974C63.537 39.2721 63.6856 39.0617 63.7451 38.7661C63.8049 38.4693 63.7495 38.2165 63.5789 38.0077C63.4084 37.7988 63.1407 37.6577 62.7757 37.5842ZM62.8561 37.1852C63.3251 37.2797 63.6676 37.4726 63.8837 37.7642C64.0998 38.0557 64.1654 38.4122 64.0805 38.8337C63.9959 39.2539 63.798 39.556 63.4869 39.74C63.1757 39.9241 62.785 39.9687 62.3147 39.8741C61.8457 39.7796 61.503 39.5873 61.2867 39.2971C61.0704 39.0068 61.0045 38.6516 61.0891 38.2314C61.1739 37.8099 61.3724 37.5066 61.6844 37.3214C61.9965 37.1362 62.387 37.0908 62.8561 37.1852ZM60.7637 40.066L63.5281 40.9297L63.3997 41.3407L60.9882 42.0044C60.9354 42.0195 60.8863 42.0316 60.8409 42.0408C60.7955 42.0499 60.7539 42.0555 60.7162 42.0574L62.957 42.7576L62.845 43.116L60.0806 42.2523L60.2079 41.8451L62.6563 41.162C62.6938 41.1517 62.7321 41.1434 62.7712 41.1371C62.8102 41.1308 62.8509 41.1259 62.8931 41.1227L60.6523 40.4225L60.7637 40.066Z" fill="#6B7C93"/>
<path d="M5.44989 47.2803L6.99478 46.3623L7.19565 46.7003L5.64738 47.6203C5.41413 47.7589 5.27235 47.9129 5.22206 48.0823C5.17177 48.2517 5.2109 48.4446 5.33946 48.6609C5.46668 48.875 5.61822 49.0011 5.79407 49.0392C5.96992 49.0773 6.17278 49.028 6.40266 48.8914L7.95093 47.9714L8.15281 48.3111L6.60792 49.2291C6.27437 49.4273 5.97091 49.4914 5.69752 49.4213C5.42413 49.3512 5.18834 49.1494 4.99014 48.8159C4.80534 48.5049 4.75125 48.2214 4.82788 47.9655C4.9045 47.7095 5.11184 47.4811 5.44989 47.2803ZM6.09164 50.4049L6.45324 50.1569L6.68118 50.4893L6.31958 50.7373L6.09164 50.4049ZM7.42134 50.6765L7.65457 50.9759C7.49155 51.1079 7.40262 51.2657 7.38778 51.4492C7.37293 51.6327 7.4352 51.814 7.57457 51.9928C7.71233 52.1696 7.85811 52.28 8.01191 52.3238C8.16571 52.3676 8.30671 52.3396 8.43492 52.2397C8.60966 52.1036 8.59348 51.8088 8.38639 51.3553C8.37384 51.3285 8.36428 51.3077 8.35771 51.2929C8.18944 50.9255 8.11166 50.6567 8.12439 50.4864C8.13712 50.3162 8.22672 50.1662 8.39319 50.0365C8.59687 49.8778 8.8185 49.8247 9.05807 49.8773C9.29763 49.9299 9.51369 50.0798 9.70624 50.3269C9.9028 50.5792 9.9926 50.8283 9.97563 51.0741C9.95865 51.32 9.83775 51.5322 9.61293 51.7107L9.38057 51.4157C9.52554 51.2861 9.60241 51.1427 9.61119 50.9855C9.61996 50.8283 9.5611 50.6685 9.43462 50.5062C9.31619 50.3542 9.18819 50.2587 9.05061 50.2196C8.91302 50.1806 8.78891 50.2042 8.67828 50.2904C8.50147 50.4282 8.51626 50.7191 8.72266 51.1631C8.75272 51.2294 8.77581 51.2804 8.79194 51.316C8.79574 51.323 8.80161 51.3359 8.80956 51.3546C8.94236 51.6466 9.00606 51.8595 9.00066 51.9933C8.99649 52.0946 8.96993 52.1901 8.92098 52.2797C8.87203 52.3694 8.80206 52.4497 8.71107 52.5206C8.49084 52.6922 8.25415 52.7499 8.00102 52.6937C7.74788 52.6375 7.51659 52.475 7.30712 52.2062C7.09122 51.9291 6.99309 51.6587 7.01276 51.3949C7.03242 51.1312 7.16861 50.8917 7.42134 50.6765ZM8.47683 53.5058L8.8057 53.2158L9.07226 53.5181L8.7434 53.8081L8.47683 53.5058ZM12.6115 54.0954L12.1149 53.6362L10.6158 55.2572L11.1124 55.7164C11.3251 55.9131 11.5496 55.9927 11.7861 55.9551C12.0225 55.9176 12.2658 55.7636 12.5159 55.4932C12.7553 55.2344 12.8832 54.9849 12.8998 54.745C12.9164 54.505 12.8203 54.2885 12.6115 54.0954ZM10.0868 55.2501L12.0532 53.1238L12.863 53.8727C13.1594 54.1468 13.3044 54.4451 13.298 54.7677C13.2915 55.0903 13.1339 55.4185 12.8251 55.7524C12.5056 56.0979 12.1756 56.2912 11.8349 56.3324C11.4942 56.3735 11.1776 56.2588 10.8851 55.9883L10.0868 55.2501ZM12.2799 57.2268L14.0534 54.9372L15.6855 56.2014L15.4652 56.4858L14.1408 55.46L13.6111 56.144L14.8344 57.0915L14.6273 57.3588L13.404 56.4113L12.8092 57.1792L14.16 58.2254L13.9385 58.5115L12.2799 57.2268ZM15.6009 57.7389L16.1548 58.0989C16.3472 58.2239 16.5015 58.2804 16.6179 58.2685C16.7343 58.2566 16.841 58.1759 16.9382 58.0265C17.0317 57.8825 17.061 57.7545 17.0258 57.6426C16.9907 57.5307 16.8847 57.4172 16.7077 57.3022L16.1291 56.9262L15.6009 57.7389ZM14.4152 58.8419L15.9933 56.4135L16.8868 56.9942C17.0319 57.0885 17.1377 57.1674 17.2042 57.231C17.2708 57.2945 17.323 57.3621 17.361 57.4336C17.4249 57.5518 17.4489 57.6807 17.4331 57.8205C17.4173 57.9603 17.3633 58.1011 17.2712 58.2429C17.1833 58.3781 17.0795 58.4802 16.9596 58.5492C16.8397 58.6182 16.7092 58.6507 16.5681 58.6465C16.487 58.6438 16.4023 58.6244 16.3141 58.5881C16.2259 58.5519 16.0916 58.4752 15.9114 58.3581L15.4102 58.0324L14.7449 59.0562L14.4152 58.8419ZM17.6732 59.4429L18.4681 59.8703L18.6784 58.5324L17.6732 59.4429ZM16.3657 60.1061L18.6844 58.0646L19.0671 58.2703L18.6463 61.3323L18.2705 61.1303L18.4101 60.2231L17.4057 59.683L16.7241 60.2988L16.3657 60.1061ZM20.3822 59.3044L19.9929 60.205L20.6101 60.4718C20.8327 60.568 21.0056 60.5999 21.1289 60.5675C21.2521 60.5351 21.3501 60.4346 21.423 60.2662C21.4911 60.1086 21.4959 59.9786 21.4373 59.8762C21.3788 59.7737 21.2328 59.6721 20.9994 59.5712L20.3822 59.3044ZM20.1634 58.8393L21.1939 59.2847C21.3611 59.357 21.481 59.4174 21.5536 59.4659C21.6262 59.5144 21.6865 59.569 21.7345 59.6297C21.8198 59.7395 21.868 59.8617 21.8791 59.9964C21.8901 60.1311 21.8636 60.2725 21.7997 60.4205C21.7378 60.5636 21.6542 60.6728 21.5489 60.7479C21.4436 60.8231 21.3177 60.8633 21.1712 60.8685C21.2622 60.9421 21.3148 61.0227 21.3291 61.1102C21.3434 61.1978 21.3206 61.3257 21.2607 61.4941L21.1018 61.9459C21.0672 62.0423 21.0493 62.1177 21.0479 62.1721C21.0465 62.2265 21.0603 62.2714 21.0893 62.3068L21.0573 62.3808L20.6404 62.2006C20.6307 62.1307 20.6584 62.002 20.7237 61.8146C20.7258 61.8098 20.7274 61.8062 20.7284 61.8038L20.8565 61.4479C20.9214 61.2646 20.9335 61.1327 20.8926 61.0522C20.8517 60.9717 20.7037 60.8764 20.4486 60.7661L19.8639 60.5134L19.3717 61.6522L19.0143 61.4977L20.1634 58.8393ZM22.1853 62.7711L23.0014 60.3614L22.1355 60.0681L22.2484 59.7348L24.3545 60.4481L24.2416 60.7814L23.3757 60.4882L22.5596 62.8979L22.1853 62.7711ZM24.7846 61.0122L24.2111 63.4122L23.8593 63.3281L24.5324 60.5113L25.0793 60.642L25.2623 62.9639C25.268 63.03 25.2717 63.081 25.2732 63.1171C25.2747 63.1532 25.2749 63.1846 25.2739 63.2113C25.2954 63.1666 25.3156 63.1269 25.3347 63.0924C25.3537 63.0579 25.3729 63.0254 25.3923 62.995L26.6301 61.0125L27.179 61.1437L26.5059 63.9605L26.1349 63.8719L26.7084 61.4719C26.6897 61.5106 26.6697 61.5493 26.6483 61.588C26.6269 61.6266 26.605 61.6649 26.5825 61.7026L25.3432 63.6827L24.9818 63.5963L24.7888 61.274C24.7845 61.2353 24.7822 61.1943 24.7818 61.151C24.7813 61.1078 24.7823 61.0615 24.7846 61.0122ZM27.2247 64.0771L27.6245 61.2087L29.6692 61.4938L29.6195 61.8501L27.9604 61.6188L27.841 62.4757L29.3735 62.6893L29.3268 63.0242L27.7943 62.8106L27.6602 63.7726L29.3524 64.0085L29.3025 64.3668L27.2247 64.0771ZM29.8762 64.4217L30.0214 61.5292L30.4514 61.5508L31.697 63.7197C31.7248 63.767 31.7488 63.8116 31.769 63.8533C31.7892 63.895 31.805 63.9338 31.8163 63.9698L31.934 61.6252L32.3091 61.644L32.1638 64.5365L31.7377 64.5151L30.4642 62.3152C30.4449 62.2815 30.4273 62.2464 30.4114 62.2102C30.3955 62.174 30.3807 62.1358 30.367 62.0958L30.2493 64.4404L29.8762 64.4217ZM33.5241 64.5086L33.44 61.9658L32.5263 61.996L32.5147 61.6443L34.7372 61.5708L34.7488 61.9226L33.835 61.9528L33.9191 64.4956L33.5241 64.5086ZM36.5378 62.8449C36.5962 63.2112 36.7262 63.4842 36.928 63.6637C37.1298 63.8433 37.3803 63.9093 37.6793 63.8616C37.977 63.8142 38.1932 63.6739 38.328 63.4408C38.4627 63.2076 38.5009 62.9079 38.4426 62.5416C38.3841 62.1739 38.2546 61.9006 38.0542 61.7214C37.8538 61.5423 37.6047 61.4765 37.307 61.5239C37.008 61.5715 36.7904 61.7117 36.6542 61.9444C36.5181 62.1771 36.4793 62.4773 36.5378 62.8449ZM36.1359 62.9089C36.0607 62.4364 36.1219 62.0481 36.3197 61.7438C36.5174 61.4396 36.8286 61.2536 37.2532 61.186C37.6765 61.1186 38.0287 61.1986 38.3097 61.4259C38.5908 61.6532 38.7691 62.0038 38.8445 62.4776C38.9198 62.95 38.8592 63.3383 38.6627 63.6423C38.4662 63.9464 38.1564 64.1321 37.7331 64.1995C37.3085 64.2671 36.955 64.187 36.6725 63.9593C36.39 63.7315 36.2111 63.3814 36.1359 62.9089ZM39.6588 63.7614L38.9507 60.9531L40.8362 60.4777L40.9252 60.8304L39.421 61.2097L39.6334 62.0523L40.947 61.7211L41.0335 62.0643L39.72 62.3955L40.0401 63.6652L39.6588 63.7614ZM44.6824 61.0304L45.0379 60.8923C45.1497 61.2272 45.1392 61.5325 45.0066 61.8083C44.8739 62.084 44.6426 62.286 44.3127 62.4141C43.9327 62.5617 43.5846 62.5478 43.2684 62.3725C42.9521 62.1972 42.705 61.8805 42.5271 61.4222C42.3629 60.9995 42.3456 60.6199 42.4751 60.2835C42.6046 59.947 42.8612 59.7043 43.2448 59.5553C43.5503 59.4367 43.8311 59.4184 44.0872 59.5003C44.3433 59.5823 44.5395 59.7536 44.6758 60.0142L44.3166 60.1537C44.2131 59.9886 44.0786 59.883 43.9131 59.8369C43.7475 59.7908 43.5621 59.8076 43.3568 59.8873C43.0831 59.9936 42.9081 60.1719 42.8317 60.4223C42.7553 60.6728 42.7849 60.9727 42.9206 61.3222C43.0487 61.6521 43.2299 61.8861 43.4643 62.0243C43.6986 62.1625 43.9453 62.1813 44.2044 62.0807C44.4255 61.9949 44.58 61.8558 44.6677 61.6635C44.7555 61.4713 44.7604 61.2602 44.6824 61.0304ZM45.5476 60.2442C45.7148 60.5753 45.9219 60.7956 46.1688 60.9051C46.4157 61.0147 46.6743 61.0012 46.9446 60.8647C47.2137 60.7288 47.3769 60.5293 47.4342 60.2662C47.4915 60.0031 47.4366 59.7059 47.2694 59.3748C47.1016 59.0425 46.895 58.8216 46.6495 58.7121C46.404 58.6025 46.1468 58.6157 45.8777 58.7516C45.6074 58.8881 45.4428 59.0879 45.3841 59.351C45.3253 59.6141 45.3798 59.9119 45.5476 60.2442ZM45.1843 60.4276C44.9687 60.0005 44.9087 59.612 45.0043 59.2619C45.1 58.9119 45.3397 58.64 45.7235 58.4462C46.1061 58.253 46.4659 58.2219 46.8029 58.3527C47.1398 58.4836 47.4165 58.7631 47.6327 59.1914C47.8483 59.6184 47.9089 60.0067 47.8144 60.3562C47.72 60.7056 47.4814 60.9769 47.0988 61.1701C46.715 61.3639 46.3539 61.3954 46.0155 61.2645C45.677 61.1336 45.4 60.8547 45.1843 60.4276ZM47.7778 57.9096L49.1129 59.9847L48.8086 60.1804L47.2416 57.7448L47.7145 57.4406L49.517 58.9158C49.5686 58.9574 49.608 58.9901 49.6351 59.014C49.6621 59.0379 49.685 59.0594 49.7036 59.0786C49.6861 59.0322 49.6715 58.9901 49.6598 58.9525C49.648 58.9148 49.6379 58.8785 49.6294 58.8435L49.0555 56.5779L49.5301 56.2726L51.097 58.7081L50.7763 58.9145L49.4412 56.8394C49.4562 56.8796 49.4702 56.9209 49.4834 56.9631C49.4965 57.0053 49.5089 57.0476 49.5206 57.0899L50.0917 59.3549L49.7792 59.556L47.9696 58.0878C47.9387 58.064 47.9075 58.0373 47.876 58.0077C47.8445 57.9781 47.8117 57.9454 47.7778 57.9096ZM50.4199 56.1339L51.9693 58.0543L51.6878 58.2815L49.8692 56.0275L50.3068 55.6744L52.2567 56.9483C52.3126 56.9841 52.3552 57.0124 52.3847 57.0333C52.4141 57.0541 52.4391 57.0731 52.4597 57.0902C52.4374 57.0459 52.4184 57.0057 52.4027 56.9695C52.387 56.9333 52.373 56.8983 52.3608 56.8643L51.5478 54.6732L51.987 54.3188L53.8055 56.5728L53.5087 56.8123L51.9593 54.8919C51.9785 54.9303 51.9968 54.9698 52.0144 55.0104C52.032 55.0509 52.0488 55.0916 52.065 55.1325L52.8752 57.3234L52.586 57.5568L50.6297 56.2906C50.5964 56.2702 50.5625 56.247 50.528 56.221C50.4935 56.1949 50.4575 56.1659 50.4199 56.1339ZM54.3375 56.0756L52.3135 54.0042L53.79 52.5614L54.0415 52.8187L52.8434 53.9895L53.448 54.6082L54.5547 53.5268L54.791 53.7687L53.6843 54.8501L54.3631 55.5448L55.5851 54.3507L55.838 54.6094L54.3375 56.0756ZM54.5499 52.2217L55.2924 52.863L55.732 52.3541C55.8905 52.1706 55.9727 52.0152 55.9788 51.8879C55.9848 51.7606 55.9184 51.637 55.7795 51.517C55.6495 51.4048 55.5269 51.3613 55.4117 51.3864C55.2964 51.4116 55.1557 51.5204 54.9895 51.7128L54.5499 52.2217ZM54.0406 52.291L54.7745 51.4414C54.8935 51.3035 54.9871 51.2072 55.0551 51.1525C55.1231 51.0978 55.1933 51.0567 55.2657 51.0291C55.3959 50.9805 55.527 50.9712 55.6588 51.001C55.7906 51.0309 55.9175 51.0985 56.0395 51.2039C56.1576 51.3058 56.2367 51.4183 56.2768 51.5413C56.3169 51.6643 56.3175 51.7964 56.2786 51.9378C56.3761 51.873 56.4688 51.847 56.5566 51.8596C56.6444 51.8722 56.7596 51.9323 56.9022 52.0399L57.2857 52.3269C57.3673 52.3888 57.4339 52.4285 57.4854 52.4461C57.5368 52.4637 57.5838 52.464 57.6262 52.447L57.6872 52.4997L57.3903 52.8434C57.3207 52.8318 57.2063 52.7667 57.0471 52.6482C57.0431 52.6448 57.0401 52.6422 57.0382 52.6405L56.7371 52.4116C56.5817 52.2948 56.4594 52.2438 56.3704 52.2586C56.2813 52.2735 56.146 52.3861 55.9644 52.5964L55.548 53.0785L56.4869 53.8894L56.2324 54.1841L54.0406 52.291ZM58.3365 49.7899L58.559 49.4801C58.8354 49.6997 58.9933 49.9612 59.0327 50.2647C59.0721 50.5682 58.9885 50.8636 58.782 51.151C58.5441 51.4821 58.2449 51.6605 57.8842 51.6862C57.5236 51.7119 57.1436 51.5814 56.7445 51.2946C56.3762 51.0299 56.1544 50.7213 56.0793 50.3688C56.0042 50.0162 56.0867 49.6728 56.3269 49.3385C56.5181 49.0724 56.7433 48.9038 57.0027 48.8327C57.262 48.7616 57.5199 48.798 57.7764 48.9419L57.5515 49.2549C57.3747 49.173 57.2043 49.158 57.0405 49.2097C56.8766 49.2614 56.7304 49.3767 56.6019 49.5555C56.4306 49.794 56.3813 50.039 56.4539 50.2905C56.5266 50.542 56.7151 50.7772 57.0196 50.9959C57.307 51.2024 57.5866 51.2996 57.8584 51.2875C58.1302 51.2754 58.3471 51.1565 58.5093 50.9309C58.6477 50.7382 58.7012 50.5374 58.6698 50.3284C58.6384 50.1194 58.5273 49.9399 58.3365 49.7899ZM59.7334 49.6229L57.242 48.1463L58.2945 46.3703L58.6041 46.5538L57.75 47.9948L58.4942 48.4359L59.2831 47.1048L59.574 47.2772L58.7851 48.6083L59.6207 49.1035L60.4918 47.6337L60.803 47.8182L59.7334 49.6229Z" fill="#6B7C93"/>
</svg>
