<svg id="redbull" width="162" height="64" viewBox="0 0 162 64" fill="none" xmlns="http://www.w3.org/2000/svg">
<path fill-rule="evenodd" clip-rule="evenodd" d="M15.4626 14.9674C16.204 16.203 17.5101 17.0149 19.028 17.0149C20.793 17.0149 22.1345 16.2383 22.8405 14.9674H22.8052L20.793 14.0143C20.5812 14.5085 20.087 14.8615 19.5222 14.9674C19.4163 14.9674 19.3104 15.0027 19.2045 15.0027C19.0986 15.0027 18.9927 15.0027 18.8868 14.9674H15.4626ZM11.5443 11.4374C13.2034 11.0491 14.4389 9.56645 14.4389 7.83672C14.4389 5.78928 12.7445 4.09485 10.6265 4.09485C10.5559 4.09485 10.2735 4.09485 10.2029 4.09485H5.79028V16.6972H8.47313V6.28349H10.0617C11.0501 6.28349 11.7914 7.0248 11.7914 7.94262C11.7914 8.86043 10.9795 9.60175 9.99106 9.60175H9.35564V12.6023L10.8736 14.9674L12.0032 16.7325H15.1802L13.9447 14.9674L11.5443 11.4374ZM18.9221 14.9674C18.1102 14.8262 17.5101 14.1908 17.5101 13.4142C17.5101 13.3436 17.4748 13.3789 17.5101 13.3083H23.0876C23.0876 13.1318 23.1229 12.9553 23.1229 12.7788C23.1582 10.0607 21.3579 8.54273 19.0633 8.54273C16.7688 8.54273 14.8978 10.4137 14.8978 12.7435C14.8978 13.5201 15.1096 14.2614 15.498 14.8968L18.9221 14.9674ZM17.5101 11.861C17.5101 11.0138 18.1808 10.3078 19.0633 10.3078C19.9458 10.3078 20.6165 11.0138 20.6165 11.861H17.5101ZM30.5713 3.35354V9.60175C29.9006 8.93103 29.0181 8.54273 28.0297 8.54273C25.9469 8.54273 24.2525 10.3784 24.2525 12.6729C24.2525 13.5201 24.4996 14.2967 24.8526 14.9321C25.5233 16.0618 26.6882 16.8031 27.9944 16.8031C28.9828 16.8031 29.8653 16.3795 30.536 15.7088V16.7325H33.0424V14.9674V3.35354C33.0777 3.35354 30.5713 3.35354 30.5713 3.35354ZM28.771 14.7909C27.7473 14.7909 26.9353 13.8731 26.9353 12.7788C26.9353 11.6492 27.7473 10.7667 28.771 10.7667C29.7947 10.7667 30.6066 11.6845 30.6066 12.7788C30.6066 13.8731 29.7947 14.7909 28.771 14.7909ZM56.0584 16.7325H58.5647V3.45944H56.0584V16.7325ZM43.7384 9.84885C44.4444 9.21344 44.8681 8.33092 44.8681 7.41311C44.8681 6.56589 44.5503 5.75398 43.9502 5.15387C43.3501 4.48316 42.2911 4.23605 40.8438 4.23605L36.5371 4.16545V16.7325H42.1146C43.5266 16.6972 44.7269 15.9912 45.3976 14.9674C45.7506 14.4379 45.9624 13.8025 45.9624 13.1318C45.9624 11.6492 45.4329 10.6255 43.7384 9.84885ZM41.6204 14.5085H39.22V6.35409H40.9144C41.6557 6.35409 42.2558 6.9542 42.2558 7.69551C42.2558 8.43683 41.6557 9.03694 40.9144 9.03694H40.0319V11.2962H41.6204C42.5029 11.2962 43.2089 12.0022 43.2089 12.92C43.1736 13.8378 42.6088 14.4732 41.6204 14.5085ZM60.3297 3.45944V16.7325H62.8361V3.45944H60.3297ZM52.2106 13.5554C52.2106 14.2967 51.5752 14.9321 50.7633 14.9321C49.9513 14.9321 49.3159 14.332 49.3159 13.5554L49.3512 9.00164H46.8449V14.0143C46.8449 14.332 46.9155 14.6497 47.0214 14.9321C47.5156 16.1677 48.9982 17.0855 50.7633 17.0855C52.5283 17.0855 54.0109 16.1677 54.5051 14.9321C54.611 14.6497 54.6816 14.332 54.6816 14.0143V9.03694H52.2106V13.5554Z" fill="#AEB6C7"/>
<path d="M83.698 9.60177C83.698 4.30667 88.0047 0 93.2998 0C98.6302 0 102.902 4.30667 102.902 9.60177C102.902 14.8969 98.5949 19.2035 93.2998 19.2035C88.0047 19.2388 83.698 14.9322 83.698 9.60177Z" fill="#BEC3CF"/>
<path fill-rule="evenodd" clip-rule="evenodd" d="M116.492 3.60067C116.457 3.63597 116.422 3.70657 116.386 3.74187C116.21 3.91837 115.998 3.95367 115.751 3.98897L115.363 4.09488C114.939 4.23608 113.915 4.65969 113.704 5.5069C113.704 5.5775 113.704 5.6128 113.704 5.68341C113.704 6.38942 114.233 6.88363 114.727 7.34253L115.186 7.80144C115.433 8.11915 115.68 8.40155 115.68 8.71926C115.68 8.75456 115.68 8.78986 115.68 8.82516C115.61 9.00166 115.504 9.10756 115.327 9.21347C114.727 9.42527 114.127 9.10756 113.598 8.78986L113.527 8.75456C112.645 8.11915 111.585 7.41314 110.35 7.27193C109.926 7.20133 109.503 6.91893 109.114 6.63652L108.832 6.46002C108.408 6.21291 107.95 6.07171 107.491 5.96581C107.279 5.93051 107.067 5.78931 106.891 5.6128L106.538 5.3657C106.043 5.04799 105.514 4.83619 104.949 4.73029L104.772 4.69499C104.631 4.65969 104.49 4.62439 104.419 4.55378C104.243 4.37728 104.031 4.13018 103.749 3.91837C103.184 3.53007 102.584 3.38886 102.019 3.45947C101.772 3.53007 101.56 3.67127 101.348 3.81247L101.172 3.95367H101.137L100.572 4.41258C100.289 4.62439 100.042 4.87149 99.7598 5.08329C98.3478 6.10701 97.8183 6.49532 97.1476 7.23663C96.2297 8.22505 95.9473 9.49587 95.7002 10.6961C95.4531 11.8257 95.206 12.92 94.4294 13.7319C94.0764 14.085 93.8999 14.2262 93.794 14.2968L93.7587 14.3321C93.6175 14.4027 93.5822 14.6851 93.6881 14.8616C93.7587 15.0028 93.9705 15.2146 94.5 15.1087C94.4647 15.1793 94.4294 15.2499 94.4294 15.3205C94.4294 15.3558 94.4294 15.3911 94.4294 15.4264C94.5 15.6029 94.7471 15.6735 94.9589 15.7088C95.7002 15.7088 96.3709 15.4264 96.8651 14.8616C97.2534 15.2852 97.7477 15.2499 98.1713 15.2146C98.3125 15.2146 98.4184 15.1793 98.5243 15.1793C98.7008 15.1793 98.9126 15.2852 99.1597 15.3558C99.4774 15.4617 99.7951 15.6029 100.042 15.6029C100.325 15.6029 100.572 15.4617 100.713 15.2499C100.889 15.0381 100.925 14.791 100.925 14.6145V14.5792C100.925 14.5792 100.925 14.5792 100.96 14.5792C101.031 14.8969 101.172 15.2146 101.207 15.3911C101.242 15.4617 101.313 15.6382 101.419 15.7441C101.56 15.9206 101.807 15.9206 102.019 15.9206C102.019 15.9206 102.125 15.9206 102.16 15.9206C102.196 15.9559 102.266 16.0265 102.266 16.0265C102.372 16.1324 102.478 16.203 102.619 16.2736C103.113 16.4148 103.678 16.556 104.208 16.7325C104.384 16.7678 104.561 16.8384 104.772 16.8031C105.267 16.6972 105.69 16.2736 105.796 15.8147V15.7794H105.867C105.937 15.7794 106.043 15.7794 106.079 15.7088C106.255 15.5676 106.396 15.3558 106.502 15.144L106.714 14.8263C106.82 14.6498 106.785 14.4733 106.749 14.3674C106.679 14.2262 106.573 14.1203 106.432 14.085C106.149 14.0144 105.831 14.0144 105.549 14.0144C105.549 14.0144 105.125 14.0144 105.055 14.0144C105.02 13.979 104.984 13.9437 104.984 13.9437C104.914 13.8731 104.843 13.8731 104.772 13.8378C104.808 13.8025 104.843 13.8025 104.843 13.7672C105.443 13.7672 106.008 13.7319 106.467 13.626C106.926 13.5201 107.349 13.4848 107.738 13.4848H107.985C108.444 13.5201 108.903 13.5554 109.362 13.4495C109.397 13.5554 109.397 13.6966 109.397 13.6966C109.467 14.1203 109.573 14.5086 109.891 14.8616C110.068 15.1087 110.35 15.2499 110.597 15.3911L110.95 15.6029C111.374 15.8147 111.833 15.6735 112.186 15.6029C112.962 15.6029 113.562 16.0265 114.198 16.5207C114.515 16.7325 114.939 16.6619 115.257 16.5207C115.363 16.6972 115.504 16.8384 115.68 16.9796C115.998 17.262 116.422 17.262 116.81 17.2267C116.81 17.2267 117.128 17.2267 117.163 17.2267C117.234 17.2973 117.304 17.3326 117.41 17.3326H117.445L118.434 17.0149L118.54 16.909C118.716 16.6619 118.575 16.4148 118.504 16.2383L118.434 16.1324L118.399 15.8853C118.399 15.7794 118.399 15.6735 118.363 15.5676C118.257 15.2499 117.975 15.0734 117.693 14.9675C117.693 14.8616 117.622 14.7557 117.551 14.6498L117.481 14.6145C117.198 14.4027 116.916 14.1909 116.633 13.9791H116.598C116.245 13.9084 116.033 14.1203 115.822 14.3321C115.822 14.3321 115.822 14.3321 115.786 14.3674C115.786 14.3674 115.751 14.3321 115.751 14.2968L115.61 13.9084C115.539 13.6966 115.469 13.4848 115.398 13.273C115.221 12.92 114.833 12.92 114.515 12.8847H114.445C114.304 12.8847 114.233 12.8847 114.162 12.8141C114.162 12.7082 114.198 12.6023 114.233 12.4611L114.304 12.1787C114.339 12.0022 114.374 11.7551 114.374 11.5433C114.374 11.3668 114.374 11.2256 114.339 11.0491C114.41 11.0491 114.48 11.0491 114.48 11.0491L114.692 11.0844C115.186 11.0844 115.645 11.0138 115.998 10.802C116.704 10.3784 117.163 9.67237 117.163 8.93106C117.128 8.54276 117.057 8.22505 116.845 7.83674C116.598 7.34253 116.21 6.88363 115.645 6.38942C115.927 6.31882 116.21 6.24821 116.457 6.07171C116.951 5.75401 117.234 5.2245 117.234 4.55378C117.234 4.44788 117.234 4.30668 117.198 4.16548V4.09488C117.163 3.88307 117.128 3.63597 116.916 3.49477C116.704 3.28296 116.563 3.49477 116.492 3.60067ZM101.031 13.3436C100.925 13.0965 100.784 12.8847 100.642 12.6376C100.96 12.7082 101.313 12.7082 101.49 12.7082C101.348 12.92 101.207 13.1671 101.066 13.4848C101.066 13.3789 101.031 13.3436 101.031 13.3436ZM69.366 3.53007C69.1189 3.95367 69.0483 4.37728 69.1542 4.80089C69.2954 5.4716 69.9661 6.07171 70.6721 6.21291L70.8839 6.24821H70.9192C70.5309 6.56592 70.1426 6.91893 69.8249 7.30723C69.5072 7.69554 69.3307 8.22505 69.3307 8.75456C69.3307 9.03696 69.4013 9.35467 69.5072 9.60177C69.7896 10.3078 70.4603 10.8726 71.2369 10.9785C71.6252 11.0491 72.0841 11.0138 72.4371 10.9785C72.4371 10.9785 72.4724 10.9785 72.543 10.9785C72.5783 11.508 72.6489 12.0375 72.896 12.4964C72.896 12.4964 72.896 12.567 72.896 12.6023C72.7195 12.7788 72.4724 12.8494 72.2606 12.92C72.2959 12.92 72.0488 12.92 72.0488 12.92C71.9429 12.92 71.837 12.92 71.7311 12.92C71.4134 12.9553 71.2369 13.273 71.1663 13.4495C71.0957 13.5554 71.0604 13.6966 71.0251 13.8378C70.9898 14.0144 70.9192 14.1556 70.778 14.2615C70.7074 14.1909 70.3897 13.9084 70.3897 13.9084C70.0014 13.6966 69.6837 13.9084 69.4013 14.085L69.1542 14.2262C68.9777 14.3321 68.8365 14.5086 68.8012 14.7204C68.5188 14.8616 68.2363 15.0381 68.1304 15.3205C68.0598 15.4617 68.0598 15.6029 68.0598 15.7441L68.0245 15.9206C68.0245 15.9559 67.9539 16.0265 67.9539 16.0265C67.8833 16.1324 67.8127 16.2736 67.8127 16.4148V16.4501C67.848 16.556 67.848 16.6972 67.9892 16.8031C68.2364 16.9443 68.5541 17.0502 68.8012 17.0855C68.9424 17.1208 69.0483 17.0502 69.1189 17.0149C69.1189 17.0149 69.1542 16.9796 69.1895 16.9796C69.5778 17.0855 70.072 17.1561 70.4956 17.0502C70.8133 16.9796 70.9545 16.6972 71.0957 16.4854C71.1663 16.3795 71.2369 16.2736 71.3075 16.203C71.3781 16.203 71.484 16.203 71.5899 16.2383L71.837 16.2736C72.1194 16.2736 72.3312 16.1324 72.5077 15.9912L72.8254 15.8147C72.8607 15.8147 73.1431 15.5676 73.1431 15.5676C73.1431 15.5676 73.3902 15.3558 73.4255 15.3558C73.602 15.2852 73.7432 15.2852 73.955 15.2852C74.5199 15.3911 75.1906 15.497 75.7201 15.2146L76.0025 15.0381C76.179 14.9322 76.3555 14.8263 76.5673 14.7557C76.885 14.5792 77.0262 14.3321 77.1321 14.0497C77.2027 13.8731 77.2733 13.7319 77.3792 13.626C77.3792 13.626 77.5204 13.3436 77.5557 13.273C77.8381 13.3083 78.1205 13.2377 78.3676 13.2024C78.6853 13.1318 78.9677 13.0612 79.2854 13.1318C79.9209 13.273 80.7681 13.3789 81.5094 13.2024C81.5447 13.2377 81.6506 13.3083 81.6506 13.3083C81.6859 13.3436 81.6859 13.3436 81.7212 13.3789C81.5447 13.4142 81.3682 13.4142 81.1917 13.5554C80.9093 13.4495 80.5563 13.4848 80.2739 13.5201L79.9915 13.5554C79.709 13.5554 79.4972 13.6966 79.356 13.9084C79.3207 13.979 79.2854 14.085 79.2854 14.1909C79.2854 14.2615 79.2854 14.3674 79.3207 14.438L79.8856 15.3558L79.9208 15.3911C79.9915 15.4617 80.0621 15.5676 80.2386 15.6029H80.4504C80.521 15.6029 80.5916 15.6029 80.6269 15.6029C80.7328 15.8147 80.874 16.0265 81.0858 16.2383C81.3682 16.4854 81.8271 16.5913 82.2507 16.4854L82.7096 16.3089C83.1685 16.1324 83.6627 15.9559 84.1216 15.7794C84.1569 15.7794 84.8982 15.6735 84.8982 15.6735C85.2159 15.5676 85.3571 15.2852 85.4983 15.0381C85.4983 15.0381 85.6042 14.8616 85.6748 14.6851C85.7101 14.8969 85.7454 15.1087 85.922 15.2852C86.0632 15.4264 86.3103 15.497 86.5927 15.497C86.8398 15.497 87.1575 15.3911 87.4046 15.2852C87.5811 15.2146 87.7576 15.1793 87.9341 15.144C88.0753 15.1087 88.2871 15.144 88.4636 15.144C88.746 15.1793 89.0637 15.1793 89.3461 15.0734C89.5579 15.0028 89.6991 14.8616 89.8403 14.791C89.8403 14.791 89.9109 14.7204 89.9462 14.7204C90.2286 14.9675 90.8993 15.497 91.9584 15.497C92.2761 15.497 92.4879 15.3558 92.5232 15.144C92.5232 15.1087 92.5232 15.0734 92.5232 15.0734C92.5232 15.0028 92.4879 14.8969 92.4526 14.8263C92.8409 14.8263 93.088 14.6498 93.1586 14.4733C93.1939 14.438 93.1939 14.3674 93.1939 14.3321C93.1939 14.2615 93.1586 14.1909 93.1233 14.1556C93.0174 14.0497 92.9468 14.0144 92.6644 13.8731C92.3114 13.6966 92.1349 13.3436 91.9937 13.0612C91.9231 12.92 91.8172 12.7435 91.7466 12.6376L91.5701 12.4611C91.4994 12.3905 91.3935 12.2846 91.3582 12.214C90.864 10.9079 90.6875 10.2019 90.5463 9.03696C90.4404 8.40155 90.0521 7.87204 89.4167 7.09543L89.1696 6.77772C88.9578 6.49532 88.6754 6.14231 88.4636 5.93051L87.8635 5.4363C87.1575 4.83619 86.7339 4.48318 86.1338 4.09488C85.9926 3.98898 85.8161 3.91837 85.6396 3.81247L85.6748 3.84777L85.6042 3.77717H85.5689C85.3218 3.67127 85.0394 3.60067 84.7217 3.60067C84.0863 3.56537 83.5568 3.77717 82.9567 4.23608C82.6037 4.48318 82.1801 4.58909 81.7212 4.76559C81.1917 4.94209 80.6269 5.1186 80.168 5.5069L79.9562 5.71871C79.8502 5.82461 79.7796 5.93051 79.6737 5.96581C79.6384 5.96581 79.356 6.00111 79.356 6.00111L78.8618 6.07171C78.297 6.21291 77.8028 6.53062 77.238 7.06013C76.9556 7.27193 76.6732 7.41313 76.3555 7.48374C75.5083 7.51904 74.8023 7.73084 74.2375 8.15445C73.6373 8.61336 73.0019 9.07226 72.2959 9.38997C71.9782 9.53117 71.484 9.53117 71.2016 9.24877C70.9898 9.07226 70.9192 8.89576 70.9192 8.68396C70.9192 8.57806 70.9545 8.50745 70.9545 8.40155C71.131 8.01325 71.484 7.62494 72.0135 7.23663C72.6489 6.74242 72.9666 6.21291 72.9666 5.68341C72.9666 5.5422 72.9313 5.4363 72.9313 5.2951C72.6842 4.44788 71.9076 4.27138 71.2016 4.09488C71.2016 4.09488 70.6721 3.95367 70.6368 3.95367C70.6015 3.95367 70.4603 3.84777 70.4603 3.84777L70.1426 3.63597C70.0367 3.56537 69.8955 3.45947 69.719 3.38886C69.5425 3.31826 69.4366 3.49477 69.366 3.53007ZM85.6396 12.6023C85.8161 12.567 86.0279 12.5317 86.275 12.4964C86.2044 12.6023 86.1338 12.7082 86.0632 12.7788C85.922 12.9553 85.7455 13.1318 85.6748 13.3789C85.463 13.0965 85.3571 12.8847 85.3218 12.6376C85.4277 12.6376 85.6396 12.6023 85.6396 12.6023Z" fill="#BEC3CF"/>
<path fill-rule="evenodd" clip-rule="evenodd" d="M85.3566 7.06015C85.5331 7.44846 85.5331 7.94266 85.3919 8.33097C85.3566 8.33097 85.3566 8.36627 85.3213 8.33097C85.2507 7.97796 85.1801 7.62496 85.0389 7.27195C84.9683 7.06015 84.7212 6.91895 84.8271 6.67184C84.8624 6.63654 84.9683 6.60124 85.0389 6.63654C85.2154 6.77774 85.286 6.91895 85.3566 7.06015ZM89.3808 10.5549C89.6632 10.8726 89.8397 11.2256 89.7691 11.6492C89.7338 11.7198 89.7338 11.861 89.6279 11.8963C89.5926 11.8963 89.522 11.8963 89.522 11.8257C89.522 11.5786 89.522 11.3668 89.3808 11.155C89.2396 10.9785 89.0631 10.6961 88.816 10.6961C88.6395 10.7667 88.5336 10.9432 88.4277 11.0844H88.3924C88.2865 10.8373 88.4983 10.6255 88.5689 10.449C88.7101 10.3078 88.6748 9.8842 88.9925 10.0254C89.169 10.1666 89.2043 10.3784 89.3808 10.5549ZM88.816 13.5202C88.816 13.6967 88.816 13.8732 88.7101 13.9791C88.5336 14.0497 88.3571 14.0497 88.1806 14.0497C88.1453 14.0497 88.0747 14.0144 88.11 13.9438C88.1806 13.6967 88.4277 13.4849 88.6395 13.4143C88.7101 13.4143 88.816 13.4143 88.816 13.5202ZM70.6715 4.4126C71.2716 4.5538 71.907 4.5891 72.3659 5.04801C72.613 5.36572 72.6483 5.85993 72.4365 6.17763C72.0835 6.77774 71.4128 7.09545 70.9539 7.58966C70.5303 7.94266 70.3891 8.50747 70.5303 9.03698C70.6715 9.49589 71.1304 9.8136 71.6246 9.8489C72.3659 9.8489 72.9307 9.49589 73.5309 9.14289C74.131 8.71928 74.6605 8.18977 75.3665 8.01326C75.7901 7.83676 76.3196 7.94266 76.7432 7.76616C77.2374 7.66026 77.5904 7.27195 77.9787 6.91895C78.4023 6.56594 78.8966 6.38944 79.4614 6.38944C79.9556 6.46004 80.238 6.00113 80.5557 5.71872C81.1205 5.18921 81.8971 5.15391 82.5325 4.83621C82.9914 4.69501 83.3797 4.342 83.8033 4.1302C84.2269 3.95369 84.7918 3.91839 85.2507 4.0949C85.5331 4.2361 85.8155 4.342 86.0626 4.5185L88.0747 6.21293C88.11 6.28353 88.1806 6.31884 88.2512 6.38944C88.816 7.09545 89.4161 7.76616 89.875 8.50747C90.0162 8.78988 90.0868 9.07228 90.1574 9.35469C90.2633 10.4843 90.5811 11.508 90.9341 12.4964C91.04 12.6729 91.2518 12.7789 91.3577 12.9201C91.6754 13.379 91.8872 13.9085 92.3814 14.2262L92.6991 14.3674C92.6991 14.4027 92.7344 14.438 92.6991 14.4733L92.6638 14.5086C92.0637 14.6145 91.5695 14.2262 91.2518 13.7673C91.04 13.379 90.7929 12.9554 90.334 12.7788C90.2987 12.7788 90.2987 12.7789 90.2634 12.8142C90.334 12.9554 90.4752 13.0613 90.5105 13.2025C90.687 13.4849 90.8282 13.8026 90.9341 14.0497C91.04 14.3674 91.393 14.6145 91.6754 14.791L92.0637 15.0028C92.099 15.0381 92.1343 15.1087 92.099 15.144L92.0284 15.1793C91.3577 15.1793 90.7576 14.9675 90.2986 14.4733C90.1927 14.3674 90.0516 14.2262 89.875 14.2262C89.5573 14.5086 89.2749 14.7557 88.8866 14.791C88.463 14.7204 88.0041 14.7204 87.6158 14.8616C87.2628 14.9675 86.9451 15.144 86.5568 15.144C86.3803 15.144 86.1685 15.0734 86.0979 14.8969C86.0979 14.6851 85.9214 14.438 86.0626 14.1909L86.3097 13.8026C86.3097 13.732 86.2744 13.6967 86.2391 13.6967C86.1332 13.6967 85.9567 13.8732 85.9214 13.6614C85.9567 13.2731 86.3097 13.0613 86.5568 12.7788C86.6274 12.4611 86.7333 12.214 86.9451 11.9669C86.9451 11.9316 86.9098 11.8963 86.8745 11.8963C86.5568 11.9669 86.2391 12.0375 85.8861 12.0375C85.6037 12.1787 85.286 12.2846 84.933 12.1787C84.8624 12.1434 84.8977 12.0728 84.8977 12.0022C85.2507 11.5433 85.3566 10.9432 85.286 10.3431C85.2507 10.3078 85.2507 10.2725 85.2154 10.2725C85.1801 10.2725 85.1448 10.3431 85.1448 10.3431C85.0742 10.8726 84.8977 11.3315 84.6153 11.7904C84.4034 12.0375 84.0504 12.0022 83.768 12.1081C83.6974 12.1434 83.6268 12.214 83.6268 12.2846C83.6268 12.4611 83.768 12.6023 83.8386 12.7788L84.5093 13.9791C84.5446 14.2968 84.4034 14.6145 84.2975 14.9322C84.3328 15.0028 84.3681 14.9675 84.4387 14.9322C84.6859 14.7204 84.8271 14.438 84.8977 14.1556C84.933 14.0144 84.8624 13.8732 84.8271 13.7673L84.1563 12.4258C84.1916 12.3552 84.2975 12.3552 84.3681 12.3199C84.5447 12.3199 84.6506 12.3905 84.7918 12.4258C84.933 12.8495 85.1095 13.2378 85.3919 13.5908C85.4625 13.8026 85.5331 14.1203 85.3566 14.2968C85.2154 14.5792 85.0742 14.8263 84.8624 15.1087C84.6859 15.2852 84.4387 15.2852 84.1916 15.2852H83.9798C83.3797 15.6029 82.7443 15.8147 82.1089 15.9912C81.8265 16.0971 81.5088 16.0265 81.297 15.85C81.0852 15.6735 80.9793 15.4264 80.8381 15.1793C80.6616 14.9675 80.3792 15.144 80.2027 15.0381C80.0262 14.7557 79.8497 14.4733 79.7085 14.1909C79.7085 14.1203 79.7085 14.0497 79.7791 13.9791C79.9909 13.9085 80.238 13.9085 80.4851 13.8732C80.6969 13.8732 80.944 13.8732 81.0852 14.0497C81.4029 14.4027 81.5088 14.8616 81.9677 15.1087C82.3207 15.144 82.6384 15.0381 82.9208 14.8616C83.0973 14.7557 83.3091 14.6145 83.3091 14.4027C83.2738 13.9791 82.9914 13.6261 82.6384 13.379C82.2501 13.1672 81.8618 12.9201 81.5794 12.567C81.4382 12.3905 81.4029 12.1434 81.3323 11.9316C81.297 11.8963 81.2264 11.861 81.1911 11.8963C81.0499 12.0375 81.1558 12.2493 81.1558 12.3905C81.1911 12.4964 81.2264 12.6023 81.1911 12.7082C80.9793 12.8848 80.6616 12.7789 80.3792 12.8142C79.8144 12.7789 79.3202 12.567 78.7554 12.6023C78.1905 12.6376 77.4492 12.9907 77.0609 12.4611C76.8491 11.9316 76.9197 11.3315 77.0256 10.802C77.0256 10.7314 76.955 10.6961 76.9197 10.6961C76.8844 10.6961 76.8138 10.6961 76.8138 10.7667C76.6726 11.2962 76.6373 11.861 76.5314 12.3905C76.3196 12.8848 76.0019 13.379 75.5077 13.6261C75.0841 13.8379 74.5899 13.9438 74.0604 13.9791C73.1072 13.9791 72.2247 14.1909 71.6599 15.0028C71.6246 15.0734 71.5187 15.144 71.554 15.2499C71.5893 15.2852 71.6599 15.3205 71.6952 15.2852C72.3306 14.5439 73.1778 14.2615 74.0957 14.2968C75.0135 14.2968 75.896 14.1556 76.4608 13.379C76.602 13.2025 76.7079 13.026 76.8138 12.8495C76.9197 12.8495 76.9903 12.9554 77.0609 13.026C77.0962 13.3084 76.8491 13.4849 76.7785 13.6967C76.6726 13.9438 76.5314 14.2262 76.2843 14.3674C76.0019 14.438 75.7195 14.6498 75.4724 14.791C75.19 14.9322 74.837 14.9675 74.5193 14.8969C74.0957 14.8263 73.5662 14.7204 73.1779 14.8969C72.966 15.0381 72.8248 15.2499 72.613 15.3558C72.3306 15.4617 72.0835 15.7088 71.7658 15.7088C71.554 15.6735 71.2716 15.497 71.0598 15.7088C70.8127 15.9559 70.7421 16.3089 70.4244 16.4854C70.0714 16.6972 69.6831 16.4854 69.2948 16.4501C69.3654 16.0971 69.4007 15.7088 69.6478 15.4617C69.789 15.4617 69.9302 15.4264 70.0361 15.3205C70.1773 15.1793 70.2832 15.0381 70.3891 14.8616C70.7068 14.6498 71.0951 14.5086 71.2716 14.1556C71.4128 13.8379 71.4481 13.5202 71.6952 13.2378L71.8364 13.1672L72.5071 13.1319C72.7895 13.026 73.0366 12.8848 73.2838 12.7082C73.3544 12.6376 73.3897 12.4964 73.3544 12.3905C73.2485 12.0728 73.1425 11.8257 73.0366 11.508C72.966 11.155 73.0013 10.802 72.966 10.4137C72.9307 10.3784 72.9307 10.3078 72.8601 10.3078C72.4012 10.4137 71.9776 10.5196 71.4834 10.449C70.8127 10.3784 70.1067 9.9195 69.8596 9.24879C69.6478 8.64868 69.6831 7.83676 70.1067 7.41315C70.495 6.91895 71.0245 6.53064 71.4834 6.14233C71.554 6.07173 71.554 6.00113 71.5893 5.93053C71.5893 5.82463 71.4834 5.75402 71.4128 5.71872C71.0951 5.64812 70.7774 5.75402 70.4597 5.61282C69.9655 5.43632 69.5419 4.94211 69.4713 4.4126C69.436 4.1655 69.5066 3.95369 69.6125 3.77719C70.0008 4.02429 70.2832 4.3067 70.6715 4.4126ZM69.1889 15.5323V15.6029C69.083 15.8853 68.9771 16.2736 68.8712 16.5913C68.6241 16.556 68.4476 16.4854 68.2711 16.4148C68.2358 16.3442 68.2711 16.3089 68.2711 16.2383C68.4829 16.0265 68.4123 15.7794 68.4829 15.497C68.5182 15.3558 68.6594 15.2146 68.8006 15.144C68.9771 15.2499 69.083 15.4264 69.1889 15.5323ZM70.2832 14.5086C70.142 14.7557 69.9655 15.0381 69.7184 15.2146C69.6125 15.2499 69.5066 15.2499 69.4007 15.2146C69.3654 15.1793 69.2595 15.1087 69.2595 15.0028C69.2595 14.8969 69.2242 14.791 69.3301 14.7204C69.5419 14.5792 69.7184 14.4733 69.9302 14.2968C70.0008 14.2968 70.0714 14.2615 70.1067 14.2968C70.1773 14.3321 70.2832 14.4027 70.2832 14.5086ZM82.7443 14.4027C82.7796 14.5086 82.9208 14.6498 82.8149 14.7204C82.6031 14.8616 82.3913 14.9675 82.1442 14.9322C81.9324 14.791 81.9677 14.5086 81.7912 14.2968C81.7559 14.1556 81.5088 14.1556 81.5794 13.9791L81.65 13.9085C81.9324 13.9085 82.2148 13.9085 82.4619 13.8732C82.709 13.9085 82.6384 14.2262 82.7443 14.4027Z" fill="#AEB6C7"/>
<path fill-rule="evenodd" clip-rule="evenodd" d="M98.4878 10.3431C98.629 10.5549 98.7702 10.7667 98.8408 10.9785C98.8408 11.0138 98.8408 11.0844 98.8408 11.1197C98.8055 11.155 98.7702 11.2256 98.6996 11.1903C98.5231 11.1197 98.5584 10.8726 98.3466 10.8726C98.1701 10.8726 98.0995 11.0138 97.9583 11.0844C97.7465 11.2962 97.4288 11.4727 97.3935 11.7904C97.3581 11.8963 97.3582 12.0729 97.2876 12.1082C97.217 12.1082 97.1464 12.0729 97.1464 12.0375C97.1111 11.6492 97.2522 11.2609 97.5347 11.0138C97.8171 10.7667 98.0289 10.4843 98.2407 10.2019C98.3113 10.1666 98.4172 10.2372 98.4878 10.3431ZM98.5584 13.6614C98.5937 13.7673 98.6996 13.9085 98.629 14.0144C98.5231 14.085 98.3466 14.0497 98.2054 14.0144C98.0642 13.9438 98.0289 13.732 97.9936 13.5908C97.9936 13.5555 97.9936 13.5202 98.0289 13.4849C98.276 13.4849 98.4525 13.5202 98.5584 13.6614ZM102.3 6.03644C102.371 6.14234 102.3 6.24825 102.23 6.31885C101.877 6.63655 101.453 6.98956 101.206 7.37787C101.1 7.51907 101.029 7.66027 100.959 7.80147C100.959 7.80147 100.924 7.83677 100.888 7.80147C100.818 7.58967 100.888 7.37787 100.959 7.20136C101.135 6.70715 101.524 6.28355 101.947 5.96584C102.088 5.93054 102.265 5.93054 102.3 6.03644ZM103.748 4.44791C104.03 4.62442 104.136 4.97742 104.454 5.04802C104.983 5.15393 105.548 5.29513 106.042 5.54223C106.395 5.71874 106.713 5.96584 107.031 6.24825C107.313 6.42475 107.701 6.38945 108.019 6.49535C108.478 6.60125 108.866 6.98956 109.29 7.23666C109.855 7.66027 110.631 7.58967 111.231 7.87208C112.22 8.18978 113.032 8.96639 113.949 9.4253C114.444 9.67241 115.15 9.77831 115.609 9.4959C115.926 9.2488 116.138 8.96639 116.067 8.54279C115.891 7.51907 114.761 6.98956 114.232 6.14234C114.126 5.93054 114.055 5.68344 114.126 5.43633C114.302 4.94212 114.867 4.69502 115.291 4.48321C115.644 4.30671 116.067 4.34201 116.42 4.13021C116.526 4.05961 116.632 3.95371 116.738 3.8831C116.809 3.8831 116.809 3.95371 116.844 4.02431C116.95 4.62442 116.844 5.22453 116.315 5.57753C116.103 5.71874 115.891 5.78934 115.644 5.82464C115.432 5.89524 115.044 5.75404 115.079 6.10704C115.114 6.28355 115.291 6.38945 115.397 6.49535C116.103 7.06016 116.738 7.80147 116.809 8.71929C116.844 9.4253 116.35 10.0254 115.75 10.3078C115.326 10.4843 114.761 10.5549 114.267 10.4137C114.126 10.4137 113.914 10.2725 113.844 10.449C113.808 10.6255 113.949 10.802 113.949 10.9785C113.985 11.2962 113.985 11.7198 113.879 12.0375C113.844 12.2847 113.561 12.5671 113.808 12.8495C114.02 13.2025 114.479 13.0966 114.867 13.1319C115.079 13.1672 115.15 13.379 115.185 13.5555C115.256 13.732 115.256 13.9791 115.361 14.1203C115.361 14.4733 115.785 14.6498 115.997 14.8969C116.244 15.1793 116.456 15.6382 116.915 15.6029C117.056 15.9206 117.126 16.1677 117.197 16.5207L117.126 16.556C116.773 16.556 116.315 16.6619 116.067 16.4148C115.75 16.203 115.679 15.6735 115.22 15.8147C115.044 15.9559 114.761 16.0265 114.514 15.9206C114.302 15.85 114.161 15.6382 113.949 15.5323C113.349 15.1087 112.573 14.8616 111.796 15.0381C111.337 15.144 111.019 14.8616 110.631 14.6498C110.172 14.438 110.031 13.9438 109.925 13.5202L109.855 12.9907C109.855 12.9554 109.89 12.8848 109.96 12.8848H110.031C110.313 13.4849 110.808 14.1909 111.478 14.4027C112.079 14.6498 112.679 14.3321 113.314 14.4733C113.949 14.5439 114.408 14.9322 114.903 15.3205C114.938 15.3205 114.973 15.2852 115.008 15.2499V15.2146C114.444 14.5086 113.632 14.1203 112.714 14.1909C111.937 14.3674 111.196 14.085 110.737 13.4496C110.49 13.0966 110.313 12.673 110.243 12.2494C110.172 11.7551 110.066 11.1903 109.89 10.7667C109.855 10.7314 109.784 10.6961 109.749 10.7314L109.713 10.802C109.784 11.2962 109.925 11.861 109.749 12.3553C109.643 12.7436 109.219 12.8848 108.831 12.9201C108.443 12.9554 108.09 12.8848 107.737 12.8848C106.819 12.8495 106.042 13.2025 105.124 13.1319C105.195 12.9201 105.336 12.673 105.265 12.4259C105.23 12.3906 105.16 12.3553 105.124 12.3906C104.948 12.4965 104.983 12.7083 104.877 12.8495C104.665 13.1672 104.312 13.4496 103.924 13.5555C103.642 13.7673 103.395 14.0497 103.183 14.2968C103.112 14.3674 103.112 14.5086 103.112 14.6145C103.289 15.0734 103.818 15.1087 104.206 15.2146C104.418 15.2146 104.595 15.144 104.701 15.0028C104.877 14.7204 104.912 14.2968 105.301 14.2262H106.183C106.254 14.2615 106.325 14.2968 106.36 14.3674L106.325 14.4733C106.148 14.7204 106.042 15.0028 105.795 15.1793C105.654 15.2146 105.477 15.1793 105.371 15.2852C105.336 15.5676 105.23 15.8853 104.948 16.0618C104.736 16.2736 104.383 16.1677 104.171 16.0971C103.712 15.9206 103.218 15.8147 102.759 15.6735C102.547 15.6029 102.477 15.3558 102.265 15.3205C102.053 15.2499 101.841 15.4264 101.665 15.2499C101.559 15.0381 101.524 14.8616 101.453 14.6498C101.382 14.5086 101.347 14.3321 101.312 14.1556C101.277 14.0144 101.312 13.9085 101.347 13.7673L101.983 12.6024C102.018 12.5318 102.088 12.4612 102.159 12.4259C102.3 12.4612 102.477 12.5318 102.618 12.6024L102.583 12.673L101.912 13.6967C101.771 14.0144 101.912 14.4027 102.053 14.6851C102.088 14.6851 102.088 14.7557 102.124 14.7557C102.124 14.5439 102.088 14.3321 102.124 14.1203C102.159 13.9438 102.3 13.732 102.406 13.5908L102.936 12.8142C103.006 12.673 102.971 12.4965 102.9 12.3553C102.689 12.1081 102.336 12.0729 102.159 11.7551C101.735 11.1903 101.7 10.5196 101.63 9.77831C101.63 9.70771 101.594 9.63711 101.524 9.63711C101.488 9.63711 101.418 9.67241 101.418 9.70771C101.277 10.1666 101.382 10.7667 101.488 11.155C101.559 11.4727 101.7 11.7904 101.841 12.1082C101.841 12.1788 101.806 12.2141 101.771 12.2494C101.418 12.2847 101.065 12.2494 100.747 12.2141C100.288 12.1435 99.9704 11.7904 99.6174 11.5433C99.5821 11.508 99.5468 11.5433 99.5115 11.5786C99.6174 12.0729 100.182 12.3553 100.359 12.8495C100.465 13.2025 100.818 13.5202 100.888 13.9085C100.888 13.9791 100.853 14.0144 100.782 14.0497C100.676 14.085 100.535 13.9791 100.429 14.0497C100.429 14.2615 100.535 14.4733 100.465 14.7204C100.359 14.8969 100.182 15.144 99.9351 15.144C99.4762 15.0028 99.0526 14.791 98.5937 14.6851C98.276 14.6498 97.9583 14.6851 97.6406 14.7557C97.3582 14.6851 97.1464 14.438 96.9345 14.2615C96.8639 14.2615 96.7933 14.2262 96.758 14.2968C96.2638 14.791 95.699 15.3558 94.9577 15.3205C94.9224 15.3205 94.8871 15.2499 94.8871 15.2146V15.1793C95.2048 14.8969 95.6284 14.5792 95.7343 14.1556C95.8402 13.8026 96.1579 13.5555 96.2638 13.2378C96.2638 13.1672 96.2285 13.1672 96.1932 13.1319L96.1226 13.1672C95.7696 13.5555 95.4872 13.9438 95.2048 14.3674C94.9224 14.6498 94.5341 14.8263 94.1105 14.7204C94.0752 14.6851 94.0752 14.6145 94.0752 14.5792C95.6284 13.6261 95.8049 11.9316 96.2285 10.4137C96.5462 9.39 96.758 8.33098 97.5347 7.51907C98.7349 6.21295 100.218 5.43633 101.524 4.27141C101.735 4.09491 101.912 3.91841 102.159 3.91841C102.759 3.8478 103.289 4.09491 103.748 4.44791ZM117.903 15.4617C118.044 15.6382 117.974 15.9206 118.009 16.0971C118.044 16.2383 118.221 16.3795 118.115 16.5207L117.585 16.6972C117.48 16.6972 117.515 16.5913 117.479 16.5207C117.409 16.203 117.338 15.9912 117.268 15.6735C117.232 15.497 117.409 15.3911 117.55 15.2852C117.727 15.2499 117.797 15.3558 117.903 15.4617ZM116.668 14.3321C116.879 14.5086 117.126 14.6498 117.303 14.8616C117.338 14.9675 117.268 15.0734 117.197 15.144C117.126 15.2146 117.021 15.2852 116.879 15.2852C116.773 15.2852 116.668 15.2146 116.562 15.1087C116.42 14.9322 116.244 14.7557 116.209 14.5439C116.315 14.4027 116.491 14.1909 116.668 14.3321ZM104.665 14.1556C104.63 14.4027 104.559 14.6498 104.454 14.8616C104.383 15.0028 104.171 14.9675 104.03 14.9322C103.889 14.8616 103.642 14.8616 103.606 14.6498C103.571 14.438 103.677 14.2615 103.783 14.1203C103.995 14.085 104.277 14.1203 104.524 14.085C104.595 14.0497 104.665 14.085 104.665 14.1556Z" fill="#AEB6C7"/>
<path d="M102.196 27.2521C100.078 27.4286 96.2303 27.8522 96.2303 27.8522L77.6975 54.2923H83.3103L102.196 27.2521Z" fill="#AEB6C7"/>
<path d="M122.739 41.3724H136.154L138.554 37.9129H125.034C125.034 37.9129 120.798 37.8776 119.457 38.513C117.727 39.3955 115.962 42.2196 114.832 43.8081C114.02 44.973 113.773 45.6437 113.844 46.4203C113.914 47.2323 114.832 47.8677 116.35 47.8677H123.481C126.446 47.8677 125.775 48.7149 125.352 49.2444C124.046 50.9035 121.963 50.6211 120.374 50.6211H95.5933L93.0164 54.2924C93.0164 54.2924 117.303 54.2924 120.692 54.2924C125.846 54.2924 127.576 54.0453 130.294 49.7033C130.612 49.1738 131.494 48.1854 131.882 47.4441C133.188 45.0789 131.318 44.1964 129.941 44.1964H121.786C121.045 44.1964 119.704 44.1964 120.304 43.208C120.692 42.6079 121.222 41.3018 122.739 41.3724Z" fill="#AEB6C7"/>
<path d="M104.984 48.5736C109.044 48.4324 111.762 46.6674 113.245 43.5257C113.774 42.4313 114.092 40.4545 112.997 39.2896C111.585 37.807 107.773 37.8776 107.773 37.8776H96.7945L85.3218 54.257H91.0405L95.0295 48.5384L104.984 48.5736ZM99.8303 41.7253C99.8303 41.7253 104.808 41.69 107.138 41.69C107.808 41.69 108.797 42.0077 107.985 43.0668C107.067 44.3376 105.62 44.7259 104.031 44.7259H97.7123L99.8303 41.7253Z" fill="#AEB6C7"/>
<path d="M81.4031 37.9482H73.6017H55.4219C55.4219 37.9482 78.9674 38.16 78.9674 41.5488C78.9674 41.5488 78.685 42.0784 77.5554 43.5963C77.3789 43.8434 77.2024 44.0905 76.9905 44.3729H69.648C67.7418 44.4082 65.7297 44.3376 64.0705 44.973C61.6701 45.7496 60.364 48.1148 58.9519 49.9857C58.3518 50.9388 57.434 51.8919 57.7164 53.0568C57.9988 54.1865 60.3287 54.2571 60.3287 54.2571H75.7197L83.3447 43.4198C86.0628 39.8191 85.3921 37.9482 81.4031 37.9482ZM72.5427 50.7976H65.6591C65.0589 50.7976 64.4941 50.8329 64.4941 50.2681C64.4941 49.5621 65.0942 48.9973 65.6591 48.5384C66.1886 48.1148 66.9652 47.8677 67.6712 47.8324C67.8124 47.8324 74.6254 47.8324 74.6254 47.8324C73.9547 48.7855 73.284 49.8092 72.5427 50.7976Z" fill="#AEB6C7"/>
<path fill-rule="evenodd" clip-rule="evenodd" d="M50.0563 51.7507C51.08 52.8097 51.1506 53.4098 53.6922 53.8688C56.0221 54.2924 56.5869 54.2924 56.5869 54.2924H43.9493L37.7364 45.7849C28.1346 51.3624 19.7683 57.6106 14.1908 64C11.6845 63.8588 12.5317 60.2582 13.2377 58.9167C16.2383 53.2686 24.5339 46.5968 31.4882 42.502C47.1616 33.2532 65.059 28.9818 83.2036 26.652C84.4038 26.5108 92.8759 25.5577 93.3348 25.6636C78.8969 27.4286 59.8346 33.9592 43.2786 42.7138L50.0563 51.7507ZM27.1109 21.604L37.454 34.8064C35.583 35.7948 33.7827 36.8186 32.053 37.9482L22.8395 26.1931L20.8274 23.8632C19.5212 22.8395 17.9327 22.4512 16.2383 22.3453C12.6023 22.0982 0.847215 21.6746 0 21.604H27.1109V21.604Z" fill="#AEB6C7"/>
<path d="M24.1804 43.7728C24.1804 43.7375 24.2157 43.7375 24.2157 43.7022L25.0277 42.9609C44.4077 25.6283 76.0371 22.0982 101.1 21.3569C107.666 21.1451 116.492 20.8627 123.057 20.9686C129.447 21.1098 135.766 21.1804 141.061 21.3922C153.981 21.8864 161.888 22.6277 161.888 22.6277C161.888 22.6277 147.768 21.8864 134.036 22.0276C125.917 22.0982 117.868 22.31 110.385 22.6983C94.3934 23.5455 77.6962 25.2047 62.0933 28.77C48.6085 31.8412 36.7828 36.8186 24.9218 43.5257C24.7453 43.561 24.1451 44.0199 24.1804 43.7728Z" fill="#BEC3CF"/>
</svg>
