<svg id="sanborn" width="187" height="63" viewBox="0 0 187 63" fill="none" xmlns="http://www.w3.org/2000/svg">
<path d="M72.9816 25.07C71.4089 25.07 70.5243 25.8563 70.5243 27.1341C70.5243 28.3136 71.2123 29.0017 72.3918 29.2965C73.5713 29.5914 74.0628 29.6897 75.4389 29.8863C79.0757 30.5743 80.55 31.8521 80.55 34.8009V35.2923C80.55 38.0445 78.191 39.912 75.2423 39.912H68.2636C68.2636 39.912 67.8704 39.8137 67.8704 39.5189V37.7496C67.8704 37.7496 67.9687 37.3565 68.2636 37.3565H75.144C76.7167 37.3565 77.7979 36.3735 77.7979 34.9975C77.7979 33.3265 76.6184 32.835 74.6525 32.4419C73.5713 32.2453 72.6867 32.0487 71.6055 31.8521C69.0499 31.2624 67.6738 29.788 67.6738 27.3307V26.741C67.6738 23.9888 69.9345 22.5144 72.785 22.5144H79.4688C79.4688 22.5144 79.862 22.6127 79.862 22.9076V24.6768C79.862 24.6768 79.7637 25.07 79.4688 25.07H72.9816Z" fill="#6B7C92"/>
<path d="M98.4391 39.5189C98.4391 39.5189 98.2425 39.9121 98.0459 39.9121H96.0801C96.0801 39.9121 95.6869 39.7155 95.6869 39.5189V35.5873L94.2125 37.3565C93.1313 38.6343 91.8535 40.207 89.3962 40.207H88.7082C85.5628 40.207 83.6953 38.2411 83.6953 34.7026V28.5103C83.6953 24.2837 86.8406 22.3179 90.2809 22.3179C92.4433 22.3179 94.3108 22.9076 95.6869 23.6939V23.0059C95.6869 23.0059 95.8835 22.6128 96.0801 22.6128H98.0459C98.0459 22.6128 98.4391 22.8093 98.4391 23.0059V39.6172V39.5189ZM95.6869 26.1512C94.4091 25.3649 92.7381 24.8735 90.7723 24.8735C88.4133 24.8735 86.4475 25.9547 86.4475 28.5103V34.8009C86.4475 36.5702 87.3321 37.6514 88.9048 37.6514H89.1996C90.8706 37.6514 91.7552 36.6685 93.033 35.2924L95.6869 32.3436V26.1512Z" fill="#6B7C92"/>
<path d="M117.212 39.519C117.212 39.519 117.114 39.9121 116.819 39.9121H114.853C114.853 39.9121 114.46 39.8138 114.46 39.519V27.5274C114.46 25.8564 113.378 24.8735 111.904 24.8735H111.609C110.037 24.8735 108.857 25.6598 107.481 27.2325L105.319 29.6898V39.4207C105.319 39.4207 105.122 39.8139 104.925 39.8139H102.96C102.96 39.8139 102.566 39.6173 102.566 39.4207V22.8094C102.566 22.8094 102.665 22.4162 102.96 22.4162H104.925C104.925 22.4162 105.319 22.5145 105.319 22.8094V26.2496L106.4 24.8735C107.579 23.3991 108.955 22.1213 111.216 22.1213H112.002C115.049 22.1213 117.114 23.8906 117.114 27.3308V39.3224L117.212 39.519Z" fill="#6B7C92"/>
<path d="M121.243 16.912C121.243 16.912 121.44 16.5188 121.637 16.5188H123.602C123.602 16.5188 123.996 16.7154 123.996 16.912V26.348L125.077 24.9719C126.256 23.4975 127.632 22.2197 129.893 22.2197H130.876C134.021 22.2197 135.889 24.1856 135.889 27.7241V33.6216C135.889 37.8481 132.645 39.8139 129.303 39.8139H121.44C121.44 39.8139 121.047 39.6173 121.047 39.4208V16.912H121.243ZM124.094 37.3566H128.714C131.269 37.3566 133.333 36.5703 133.333 33.7198V27.6258C133.333 25.8565 132.449 24.7753 130.876 24.7753H130.385C128.812 24.7753 127.632 25.5616 126.256 27.1343L124.094 29.5916V37.1601V37.3566Z" fill="#6B7C92"/>
<path d="M154.268 33.9164C154.268 38.143 151.024 40.0105 147.682 40.0105H146.011C142.669 40.0105 139.426 38.0447 139.426 33.9164V28.4121C139.426 24.1856 142.669 22.2197 146.011 22.2197H147.682C151.024 22.2197 154.268 24.1856 154.268 28.4121V33.9164ZM151.417 28.4121C151.417 25.5617 149.353 24.7753 146.798 24.7753C144.242 24.7753 142.178 25.5617 142.178 28.4121V33.9164C142.178 36.7669 144.242 37.5532 146.798 37.5532C149.353 37.5532 151.417 36.7669 151.417 33.9164V28.4121Z" fill="#6B7C92"/>
<path d="M168.718 25.7581C168.718 25.7581 168.521 25.8564 168.423 25.8564C168.423 25.8564 168.226 25.8564 168.128 25.7581C167.538 25.1684 167.047 24.7752 166.359 24.7752H166.064C165.081 24.7752 164.295 25.4633 163.41 26.6428L160.756 30.083V39.4207C160.756 39.4207 160.559 39.8139 160.363 39.8139H158.397C158.397 39.8139 158.004 39.6173 158.004 39.4207V22.8094C158.004 22.8094 158.2 22.4162 158.397 22.4162H160.363C160.363 22.4162 160.756 22.5145 160.756 22.8094V26.4462L162.329 24.2838C163.312 23.006 164.295 22.1213 165.769 22.1213H166.26C167.833 22.1213 169.111 22.7111 169.995 23.8906C169.995 23.9889 170.094 24.0872 170.094 24.1855C170.094 24.2838 170.094 24.382 169.995 24.4803L168.521 25.6598L168.718 25.7581Z" fill="#6B7C92"/>
<path d="M187.001 39.519C187.001 39.519 186.903 39.9121 186.608 39.9121H184.642C184.642 39.9121 184.249 39.8138 184.249 39.519V27.5274C184.249 25.8564 183.168 24.8735 181.693 24.8735H181.398C179.826 24.8735 178.646 25.6598 177.27 27.2325L175.108 29.6898V39.4207C175.108 39.4207 174.911 39.8139 174.714 39.8139H172.749C172.749 39.8139 172.355 39.6173 172.355 39.4207V22.8094C172.355 22.8094 172.454 22.4162 172.749 22.4162H174.714C174.714 22.4162 175.108 22.5145 175.108 22.8094V26.2496L176.189 24.8735C177.368 23.3991 178.744 22.1213 181.005 22.1213H181.791C184.839 22.1213 186.903 23.8906 186.903 27.3308V39.3224L187.001 39.519Z" fill="#6B7C92"/>
<path d="M38.3826 23.9888C37.6946 23.4973 37.2031 23.7922 37.2031 24.5786V38.0445C37.2031 38.8309 37.6946 39.1257 38.3826 38.6343L47.8186 32.0487C48.5067 31.5573 48.5067 30.8692 47.8186 30.3778L38.3826 23.7922V23.9888Z" fill="white"/>
<path d="M38.2846 17.0102L14.8912 0.693786C13.3185 -0.387423 10.8612 -0.190847 9.48515 1.18524L1.03206 9.63833C-0.344021 11.0144 -0.344021 13.2751 1.03206 14.6512L18.3314 31.2625L32.7803 17.4034C34.1564 16.0273 36.6137 15.8307 38.2846 17.0102Z" fill="url(#paint0_linear_865_36)"/>
<path d="M38.2846 45.5148L55.8788 33.3266C56.6652 32.7368 57.0583 32.0488 57.0583 31.2625C57.0583 31.0659 57.0583 30.8693 57.0583 30.6727C57.0583 30.4761 56.96 30.2796 56.8617 30.1813C56.6651 29.7881 56.3703 29.4932 55.9771 29.1983L38.3829 17.0102C36.8102 15.929 34.3529 16.1255 32.8786 17.4033L18.4297 31.2625L32.8786 45.1216C34.2547 46.4977 36.7119 46.6943 38.3829 45.5148H38.2846Z" fill="url(#paint1_linear_865_36)"/>
<path d="M38.3826 23.9888C37.6946 23.4973 37.2031 23.7922 37.2031 24.5786V38.0445C37.2031 38.8309 37.6946 39.1257 38.3826 38.6343L47.8186 32.0487C48.5067 31.5573 48.5067 30.8692 47.8186 30.4761L38.3826 23.8905V23.9888Z" fill="white"/>
<path d="M38.2846 45.5148L14.8912 61.8312C13.3185 62.9124 10.8612 62.7158 9.48515 61.3397L1.03206 52.8866C-0.344021 51.5105 -0.344021 49.2498 1.03206 47.8738L18.3314 31.2625L32.7803 45.1216C34.1564 46.4977 36.6137 46.6943 38.2846 45.5148Z" fill="url(#paint2_linear_865_36)"/>
<defs>
<linearGradient id="paint0_linear_865_36" x1="6.5364" y1="4.62545" x2="26.7845" y2="22.8094" gradientUnits="userSpaceOnUse">
<stop stop-color="#6B7C92"/>
<stop offset="1" stop-color="#C1CFE4"/>
</linearGradient>
<linearGradient id="paint1_linear_865_36" x1="24.5729" y1="34.4021" x2="54.0604" y2="34.4021" gradientUnits="userSpaceOnUse">
<stop stop-color="#6B7C92"/>
<stop offset="1" stop-color="#AEB6C7"/>
</linearGradient>
<linearGradient id="paint2_linear_865_36" x1="6.5364" y1="57.9978" x2="26.7845" y2="39.8138" gradientUnits="userSpaceOnUse">
<stop stop-color="#6B7C92"/>
<stop offset="1" stop-color="#C1CFE4"/>
</linearGradient>
</defs>
</svg>
