<svg id="siemens" width="146" height="25" viewBox="0 0 146 25" fill="none" xmlns="http://www.w3.org/2000/svg">
<path fill-rule="evenodd" clip-rule="evenodd" d="M144.016 1.7685V6.09187C141.776 5.24632 139.782 4.81879 138.036 4.81879C137.003 4.81879 136.179 5.01023 135.56 5.38034C134.941 5.75365 134.625 6.21314 134.625 6.75555C134.625 7.47664 135.324 8.11793 136.731 8.69231L140.796 10.6705C144.083 12.2372 145.713 14.3174 145.713 16.9306C145.713 19.1035 144.848 20.8361 143.103 22.1187C141.371 23.4142 139.038 24.0555 136.135 24.0555C134.795 24.0555 133.592 23.998 132.523 23.8768C131.454 23.762 130.226 23.5258 128.863 23.1876V18.6632C131.361 19.5088 133.636 19.9363 135.685 19.9363C138.129 19.9363 139.344 19.2279 139.344 17.7985C139.344 17.087 138.847 16.5127 137.835 16.0628L133.32 14.1388C131.655 13.3858 130.417 12.4733 129.606 11.3916C128.809 10.3004 128.404 9.04966 128.404 7.62024C128.404 5.61962 129.246 4.00832 130.911 2.78309C132.59 1.56743 134.817 0.958035 137.586 0.958035C138.486 0.958035 139.523 1.03777 140.672 1.18455C141.83 1.34091 142.944 1.53234 144.016 1.7685Z" fill="#6B7C93"/>
<path fill-rule="evenodd" clip-rule="evenodd" d="M16.1455 1.7685V6.09187C13.9056 5.24632 11.9146 4.81879 10.1693 4.81879C9.13229 4.81879 8.31233 5.01023 7.69329 5.38034C7.07433 5.75365 6.75844 6.21314 6.75844 6.75555C6.75844 7.47664 7.46677 8.11793 8.87388 8.69231L12.9388 10.6705C16.2124 12.2372 17.8461 14.3174 17.8461 16.9306C17.8461 19.1035 16.9783 20.8361 15.2457 22.1187C13.5004 23.4142 11.1807 24.0555 8.26767 24.0555C6.92755 24.0555 5.72145 23.998 4.65257 23.8768C3.58369 23.762 2.36802 23.5258 0.99608 23.1876V18.6632C3.50396 19.5088 5.77893 19.9363 7.81456 19.9363C10.2587 19.9363 11.4743 19.2279 11.4743 17.7985C11.4743 17.087 10.9797 16.5127 9.97784 16.0628L5.46304 14.1388C3.78469 13.3858 2.5467 12.4733 1.74907 11.3916C0.938598 10.3004 0.542969 9.04966 0.542969 7.62024C0.542969 5.61962 1.37895 4.00832 3.05403 2.78309C4.71962 1.56743 6.94987 0.958035 9.71943 0.958035C10.6288 0.958035 11.653 1.03777 12.8144 1.18455C13.9631 1.34091 15.0766 1.53234 16.1455 1.7685Z" fill="#6B7C93"/>
<path fill-rule="evenodd" clip-rule="evenodd" d="M20.804 1.36323H27.4247V23.6503H20.804V1.36323Z" fill="#6B7C93"/>
<path fill-rule="evenodd" clip-rule="evenodd" d="M48.7544 1.36323V5.48248H38.9174V10.4248H47.4494V14.1388H38.9174V19.3269H48.9554V23.6503H32.5457V1.36323H48.7544Z" fill="#6B7C93"/>
<path fill-rule="evenodd" clip-rule="evenodd" d="M79.6624 1.36323V23.6503H73.4817V8.95072L67.0688 23.8545H63.2528L57.0851 8.95072V23.6503H52.615V1.36323H60.697L66.2137 15.0067L71.9857 1.36323H79.6624Z" fill="#6B7C93"/>
<path fill-rule="evenodd" clip-rule="evenodd" d="M100.983 1.36323V5.48248H91.1999V10.4248H99.7318V14.1388H91.1999V19.3269H101.184V23.6503H84.7744V1.36323H100.983Z" fill="#6B7C93"/>
<path fill-rule="evenodd" clip-rule="evenodd" d="M124.214 1.36323V23.6503H117.192L109.311 9.35592V23.6503H104.844V1.36323H112.071L119.748 15.4119V1.36323H124.214Z" fill="#6B7C93"/>
</svg>
