<svg id="swisstopo" width="204" height="51" viewBox="0 0 204 51" fill="none" xmlns="http://www.w3.org/2000/svg">
<path d="M39.4401 9.27388C39.8407 9.52786 40.3093 9.67456 40.9447 9.67456C41.7855 9.67456 42.4795 9.24454 42.4795 8.27723C42.4795 6.93767 39.3521 6.77171 39.3521 4.98379C39.3521 3.88903 40.3102 3.20504 41.5122 3.20504C41.8441 3.20504 42.3814 3.25363 42.8509 3.42968L42.7436 4.04582C42.441 3.87895 41.9615 3.79184 41.5021 3.79184C40.7989 3.79184 40.0269 4.08525 40.0269 4.96454C40.0269 6.33344 43.1544 6.34261 43.1544 8.33683C43.1544 9.71491 41.9725 10.2623 40.9162 10.2623C40.2515 10.2623 39.7344 10.1257 39.3722 9.96888L39.4401 9.27388Z" fill="#0D0E0E"/>
<path d="M48.4511 5.82274C48.1192 5.67604 47.7186 5.56876 47.3857 5.56876C46.1837 5.56876 45.5089 6.43888 45.5089 7.65009C45.5089 8.78427 46.1929 9.73233 47.317 9.73233C47.7085 9.73233 48.0697 9.64431 48.4411 9.50769L48.4997 10.0844C48.0789 10.2311 47.6883 10.2605 47.2198 10.2605C45.6161 10.2605 44.835 9.03825 44.835 7.651C44.835 6.11614 45.8224 5.04156 47.2986 5.04156C47.8946 5.04156 48.3246 5.17817 48.5007 5.23685L48.4511 5.82274Z" fill="#0D0E0E"/>
<path d="M50.3076 2.81261H50.9238V5.99878H50.9439C51.208 5.4514 51.7645 5.04064 52.498 5.04064C53.8376 5.04064 54.1989 5.93001 54.1989 7.16139V10.1422H53.5836V7.17239C53.5836 6.31235 53.4177 5.56968 52.4009 5.56968C51.3061 5.56968 50.9247 6.60576 50.9247 7.47588V10.144H50.3095V2.81261H50.3076Z" fill="#0D0E0E"/>
<path d="M61.6267 10.1431H60.884L59.5252 5.83283H59.505L58.1462 10.1431H57.4035L55.8008 5.158H56.4747L57.784 9.46918H57.8042L59.1923 5.158H59.935L61.2544 9.46918H61.2737L62.6517 5.158H63.2679L61.6267 10.1431Z" fill="#0D0E0E"/>
<path d="M68.2143 9.98722C67.7843 10.1633 67.2268 10.2605 66.7674 10.2605C65.1161 10.2605 64.5 9.14644 64.5 7.651C64.5 6.12623 65.3408 5.04156 66.6015 5.04156C68.0089 5.04156 68.5856 6.17574 68.5856 7.51439V7.82704H65.1739C65.1739 8.88329 65.7415 9.73324 66.816 9.73324C67.2653 9.73324 67.9209 9.54712 68.2143 9.36191V9.98722ZM67.9108 7.29892C67.9108 6.4288 67.5587 5.56876 66.6409 5.56876C65.7314 5.56876 65.1748 6.47739 65.1748 7.29892H67.9108Z" fill="#0D0E0E"/>
<path d="M71.1357 3.82944H70.5205V3.00883H71.1357V3.82944ZM70.5205 5.15892H71.1357V10.144H70.5205V5.15892Z" fill="#0D0E0E"/>
<path d="M72.9937 9.62597L75.9946 5.68612H73.111V5.15892H76.7079V5.68704L73.7079 9.61588H76.7079V10.144H72.9946V9.62597H72.9937Z" fill="#0D0E0E"/>
<path d="M81.8969 9.98722C81.4669 10.1633 80.9094 10.2605 80.4501 10.2605C78.7988 10.2605 78.1826 9.14644 78.1826 7.651C78.1826 6.12623 79.0234 5.04156 80.2841 5.04156C81.6915 5.04156 82.2682 6.17574 82.2682 7.51439V7.82704H78.8565C78.8565 8.88329 79.4241 9.73324 80.4987 9.73324C80.9479 9.73324 81.6035 9.54712 81.8969 9.36191V9.98722ZM81.5934 7.29892C81.5934 6.4288 81.2413 5.56876 80.3235 5.56876C79.414 5.56876 78.8574 6.47739 78.8574 7.29892H81.5934Z" fill="#0D0E0E"/>
<path d="M84.2035 6.27293C84.2035 5.72555 84.2035 5.52017 84.165 5.15892H84.7803V6.11614H84.7995C85.0242 5.55959 85.445 5.04156 86.0804 5.04156C86.2271 5.04156 86.4031 5.0709 86.5104 5.10024V5.74572C86.383 5.7063 86.217 5.68704 86.0612 5.68704C85.0838 5.68704 84.8197 6.7818 84.8197 7.68126V10.1449H84.2035V6.27293Z" fill="#0D0E0E"/>
<path d="M88.8364 3.82944H88.2202V3.00883H88.8364V3.82944ZM88.2202 5.15892H88.8364V10.144H88.2202V5.15892Z" fill="#0D0E0E"/>
<path d="M90.7715 9.42059C91.1429 9.60671 91.593 9.73324 92.0717 9.73324C92.6585 9.73324 93.1756 9.4105 93.1756 8.84387C93.1756 7.66201 90.7807 7.84722 90.7807 6.40038C90.7807 5.41289 91.582 5.04156 92.4036 5.04156C92.6676 5.04156 93.1958 5.10024 93.6349 5.26711L93.5763 5.8044C93.2535 5.6577 92.8143 5.56968 92.4723 5.56968C91.8369 5.56968 91.3968 5.76498 91.3968 6.40038C91.3968 7.32918 93.8504 7.21182 93.8504 8.84387C93.8504 9.90012 92.8629 10.2605 92.1102 10.2605C91.6315 10.2605 91.152 10.2018 90.7119 10.0266L90.7715 9.42059Z" fill="#0D0E0E"/>
<path d="M98.9614 5.82274C98.6295 5.67604 98.2288 5.56876 97.896 5.56876C96.6939 5.56876 96.0191 6.43888 96.0191 7.65009C96.0191 8.78427 96.7031 9.73233 97.8272 9.73233C98.2187 9.73233 98.58 9.64431 98.9513 9.50769L99.01 10.0844C98.5901 10.2311 98.1986 10.2605 97.73 10.2605C96.1264 10.2605 95.3452 9.03825 95.3452 7.651C95.3452 6.11614 96.3327 5.04156 97.8089 5.04156C98.4048 5.04156 98.8349 5.17817 99.0109 5.23685L98.9614 5.82274Z" fill="#0D0E0E"/>
<path d="M100.818 2.81261H101.434V5.99878H101.453C101.717 5.4514 102.275 5.04064 103.007 5.04064C104.347 5.04064 104.708 5.93001 104.708 7.16139V10.1422H104.093V7.17239C104.093 6.31235 103.927 5.56968 102.911 5.56968C101.816 5.56968 101.435 6.60576 101.435 7.47588V10.144H100.819V2.81261H100.818Z" fill="#0D0E0E"/>
<path d="M110.358 9.98722C109.928 10.1633 109.37 10.2605 108.911 10.2605C107.26 10.2605 106.644 9.14644 106.644 7.651C106.644 6.12623 107.484 5.04156 108.745 5.04156C110.152 5.04156 110.729 6.17574 110.729 7.51439V7.82704H107.317C107.317 8.88329 107.885 9.73324 108.96 9.73324C109.409 9.73324 110.064 9.54712 110.358 9.36191V9.98722ZM110.054 7.29892C110.054 6.4288 109.702 5.56876 108.784 5.56876C107.875 5.56876 107.318 6.47739 107.318 7.29892H110.054Z" fill="#0D0E0E"/>
<path d="M115.919 3.32148H119.261V3.90829H116.593V6.34261H119.124V6.92942H116.593V9.55904H119.378V10.1458H115.919V3.32148Z" fill="#0D0E0E"/>
<path d="M122.115 3.82944H121.499V3.00883H122.115V3.82944ZM121.5 5.15892H122.116V10.144H121.5V5.15892Z" fill="#0D0E0E"/>
<path d="M128.38 10.1431H127.764V9.35182H127.745C127.412 9.98722 126.904 10.2604 126.191 10.2604C124.823 10.2604 124.139 9.12718 124.139 7.651C124.139 6.13631 124.725 5.04155 126.191 5.04155C127.168 5.04155 127.657 5.75489 127.745 5.9997H127.764V2.81261H128.38V10.1431ZM126.289 9.73324C127.384 9.73324 127.764 8.55963 127.764 7.651C127.764 6.74237 127.383 5.56968 126.289 5.56968C125.116 5.56968 124.813 6.68369 124.813 7.651C124.813 8.61923 125.115 9.73324 126.289 9.73324Z" fill="#0D0E0E"/>
<path d="M134.577 9.73324C134.577 11.1214 133.951 12.2547 132.241 12.2547C131.586 12.2547 130.99 12.0685 130.735 11.9906L130.784 11.3754C131.164 11.5716 131.712 11.7275 132.25 11.7275C133.833 11.7275 133.97 10.574 133.97 9.16661H133.95C133.618 9.89003 133.07 10.144 132.435 10.144C130.841 10.144 130.333 8.75585 130.333 7.65192C130.333 6.13723 130.92 5.04247 132.385 5.04247C133.05 5.04247 133.48 5.13049 133.94 5.72647H133.959V5.15892H134.575V9.73324H134.577ZM132.446 9.61588C133.56 9.61588 133.961 8.55963 133.961 7.651C133.961 6.44897 133.609 5.56968 132.485 5.56968C131.313 5.56968 131.009 6.68369 131.009 7.651C131.009 8.6284 131.4 9.61588 132.446 9.61588Z" fill="#0D0E0E"/>
<path d="M140.168 9.98722C139.738 10.1633 139.18 10.2605 138.721 10.2605C137.07 10.2605 136.454 9.14644 136.454 7.651C136.454 6.12623 137.294 5.04156 138.555 5.04156C139.963 5.04156 140.539 6.17574 140.539 7.51439V7.82704H137.128C137.128 8.88329 137.695 9.73324 138.77 9.73324C139.219 9.73324 139.875 9.54712 140.168 9.36191V9.98722ZM139.864 7.29892C139.864 6.4288 139.512 5.56876 138.595 5.56876C137.685 5.56876 137.128 6.47739 137.128 7.29892H139.864Z" fill="#0D0E0E"/>
<path d="M142.474 6.33161C142.474 5.95019 142.474 5.55959 142.435 5.158H143.031V6.04738H143.051C143.256 5.5981 143.627 5.04064 144.663 5.04064C145.895 5.04064 146.364 5.86125 146.364 6.95601V10.1422H145.749V7.11371C145.749 6.17574 145.417 5.56968 144.566 5.56968C143.442 5.56968 143.09 6.55716 143.09 7.38786V10.144H142.474V6.33161H142.474Z" fill="#0D0E0E"/>
<path d="M150.615 5.04156C152.228 5.04156 152.941 6.29218 152.941 7.651C152.941 9.00982 152.228 10.2605 150.615 10.2605C149.003 10.2605 148.289 9.00982 148.289 7.651C148.289 6.29218 149.003 5.04156 150.615 5.04156ZM150.615 9.73324C151.691 9.73324 152.266 8.80444 152.266 7.651C152.266 6.49756 151.691 5.56968 150.615 5.56968C149.541 5.56968 148.964 6.49848 148.964 7.651C148.964 8.80444 149.541 9.73324 150.615 9.73324Z" fill="#0D0E0E"/>
<path d="M154.486 9.42059C154.857 9.60671 155.307 9.73324 155.786 9.73324C156.373 9.73324 156.89 9.4105 156.89 8.84387C156.89 7.66201 154.495 7.84722 154.495 6.40038C154.495 5.41289 155.296 5.04156 156.118 5.04156C156.382 5.04156 156.91 5.10024 157.349 5.26711L157.291 5.8044C156.968 5.6577 156.529 5.56968 156.187 5.56968C155.551 5.56968 155.111 5.76498 155.111 6.40038C155.111 7.32918 157.564 7.21182 157.564 8.84387C157.564 9.90012 156.576 10.2605 155.825 10.2605C155.346 10.2605 154.866 10.2018 154.427 10.0266L154.486 9.42059Z" fill="#0D0E0E"/>
<path d="M159.05 9.42059C159.422 9.60671 159.871 9.73324 160.351 9.73324C160.937 9.73324 161.454 9.4105 161.454 8.84387C161.454 7.66201 159.06 7.84722 159.06 6.40038C159.06 5.41289 159.861 5.04156 160.682 5.04156C160.946 5.04156 161.475 5.10024 161.914 5.26711L161.855 5.8044C161.532 5.6577 161.093 5.56968 160.751 5.56968C160.116 5.56968 159.676 5.76498 159.676 6.40038C159.676 7.32918 162.128 7.21182 162.128 8.84387C162.128 9.90012 161.141 10.2605 160.389 10.2605C159.91 10.2605 159.431 10.2018 158.992 10.0266L159.05 9.42059Z" fill="#0D0E0E"/>
<path d="M167.338 9.98722C166.908 10.1633 166.351 10.2605 165.891 10.2605C164.24 10.2605 163.624 9.14644 163.624 7.651C163.624 6.12623 164.465 5.04156 165.726 5.04156C167.133 5.04156 167.71 6.17574 167.71 7.51439V7.82704H164.298C164.298 8.88329 164.865 9.73324 165.94 9.73324C166.389 9.73324 167.045 9.54712 167.338 9.36191V9.98722ZM167.035 7.29892C167.035 6.4288 166.683 5.56876 165.765 5.56876C164.855 5.56876 164.299 6.47739 164.299 7.29892H167.035Z" fill="#0D0E0E"/>
<path d="M169.645 6.33161C169.645 5.95019 169.645 5.55959 169.606 5.158H170.202V6.04738H170.222C170.426 5.5981 170.797 5.04064 171.834 5.04064C173.066 5.04064 173.534 5.86125 173.534 6.95601V10.1422H172.918V7.11371C172.918 6.17574 172.586 5.56968 171.735 5.56968C170.611 5.56968 170.259 6.55716 170.259 7.38786V10.144H169.643V6.33161H169.645Z" fill="#0D0E0E"/>
<path d="M175.461 9.42059C175.832 9.60671 176.282 9.73324 176.761 9.73324C177.347 9.73324 177.865 9.4105 177.865 8.84387C177.865 7.66201 175.47 7.84722 175.47 6.40038C175.47 5.41289 176.271 5.04156 177.093 5.04156C177.357 5.04156 177.885 5.10024 178.324 5.26711L178.265 5.8044C177.943 5.6577 177.503 5.56968 177.161 5.56968C176.526 5.56968 176.086 5.76498 176.086 6.40038C176.086 7.32918 178.539 7.21182 178.539 8.84387C178.539 9.90012 177.551 10.2605 176.799 10.2605C176.321 10.2605 175.841 10.2018 175.402 10.0266L175.461 9.42059Z" fill="#0D0E0E"/>
<path d="M183.651 5.82274C183.319 5.67604 182.919 5.56876 182.586 5.56876C181.384 5.56876 180.709 6.43888 180.709 7.65009C180.709 8.78427 181.393 9.73233 182.517 9.73233C182.909 9.73233 183.27 9.64431 183.641 9.50769L183.7 10.0844C183.279 10.2311 182.888 10.2605 182.42 10.2605C180.816 10.2605 180.035 9.03825 180.035 7.651C180.035 6.11614 181.023 5.04156 182.499 5.04156C183.095 5.04156 183.525 5.17817 183.701 5.23685L183.651 5.82274Z" fill="#0D0E0E"/>
<path d="M185.508 2.81261H186.123V5.99878H186.143C186.407 5.4514 186.964 5.04064 187.697 5.04064C189.037 5.04064 189.398 5.93001 189.398 7.16139V10.1422H188.782V7.17239C188.782 6.31235 188.615 5.56968 187.6 5.56968C186.505 5.56968 186.124 6.60576 186.124 7.47588V10.144H185.509V2.81261H185.508Z" fill="#0D0E0E"/>
<path d="M194.568 9.34173H194.548C194.275 9.93771 193.58 10.2605 192.965 10.2605C191.548 10.2605 191.323 9.30231 191.323 8.85304C191.323 7.18248 193.102 7.10454 194.392 7.10454H194.51V6.84965C194.51 5.99878 194.207 5.56968 193.377 5.56968C192.859 5.56968 192.371 5.68704 191.91 5.97953V5.38355C192.291 5.19743 192.936 5.04156 193.377 5.04156C194.608 5.04156 195.126 5.59902 195.126 6.89916V9.09876C195.126 9.49944 195.126 9.80201 195.176 10.144H194.569V9.34173H194.568ZM194.509 7.63175H194.334C193.268 7.63175 191.998 7.73994 191.998 8.8347C191.998 9.48935 192.467 9.73416 193.034 9.73416C194.48 9.73416 194.509 8.47345 194.509 7.93524V7.63175Z" fill="#0D0E0E"/>
<path d="M197.774 5.68612H196.768V5.15892H197.774V4.79767C197.774 3.75242 197.813 2.69617 199.094 2.69617C199.289 2.69617 199.554 2.72551 199.67 2.79428L199.631 3.33157C199.503 3.2628 199.318 3.2243 199.142 3.2243C198.301 3.2243 198.39 4.13293 198.39 4.7289V5.15892H199.513V5.68704H198.39V10.144H197.773V5.68612H197.774Z" fill="#0D0E0E"/>
<path d="M203.52 5.68612H202.387V8.91263C202.387 9.36191 202.553 9.73324 203.052 9.73324C203.286 9.73324 203.443 9.68465 203.618 9.61588L203.657 10.1238C203.511 10.1825 203.208 10.2605 202.905 10.2605C201.811 10.2605 201.771 9.50769 201.771 8.59906V5.68612H200.795V5.15892H201.771V3.95688L202.388 3.74142V5.158H203.521V5.68612H203.52Z" fill="#0D0E0E"/>
<path d="M44.229 17.5653C43.799 17.3406 43.1829 17.2719 42.7042 17.2719C40.9356 17.2719 39.938 18.5234 39.938 20.2141C39.938 21.9342 40.9062 23.1555 42.7042 23.1555C43.1535 23.1555 43.8384 23.0968 44.229 22.8621L44.2675 23.4489C43.8962 23.6744 43.1343 23.7423 42.7033 23.7423C40.5532 23.7423 39.2632 22.3248 39.2632 20.2141C39.2632 18.142 40.5927 16.686 42.7033 16.686C43.104 16.686 43.9154 16.7547 44.2675 16.9399L44.229 17.5653Z" fill="#0D0E0E"/>
<path d="M48.4604 18.5234C50.0732 18.5234 50.7875 19.774 50.7875 21.1328C50.7875 22.4917 50.0741 23.7423 48.4604 23.7423C46.8485 23.7423 46.1343 22.4917 46.1343 21.1328C46.1343 19.774 46.8485 18.5234 48.4604 18.5234ZM48.4604 23.2151C49.5359 23.2151 50.1117 22.2863 50.1117 21.1328C50.1117 19.9794 49.5359 19.0515 48.4604 19.0515C47.3858 19.0515 46.8091 19.9803 46.8091 21.1328C46.8091 22.2863 47.3858 23.2151 48.4604 23.2151Z" fill="#0D0E0E"/>
<path d="M52.7118 19.8134C52.7118 19.432 52.7118 19.0414 52.6733 18.6398H53.2693V19.5292H53.2895C53.494 19.0799 53.8653 18.5225 54.9014 18.5225C56.1337 18.5225 56.6022 19.3431 56.6022 20.4378V23.624H55.987V20.5937C55.987 19.6557 55.655 19.0497 54.8042 19.0497C53.6801 19.0497 53.328 20.0372 53.328 20.8679V23.624H52.7118V19.8134Z" fill="#0D0E0E"/>
<path d="M59.329 19.168H58.3223V18.6398H59.329V18.2786C59.329 17.2333 59.3675 16.1771 60.6484 16.1771C60.8446 16.1771 61.1078 16.2064 61.2251 16.2743L61.1866 16.8125C61.0592 16.7437 60.8739 16.7052 60.6979 16.7052C59.858 16.7052 59.9451 17.6138 59.9451 18.2098V18.6398H61.0692V19.168H59.9451V23.6249H59.3299V19.168H59.329Z" fill="#0D0E0E"/>
<path d="M66.269 23.4681C65.839 23.6442 65.2815 23.7414 64.8221 23.7414C63.1708 23.7414 62.5547 22.6274 62.5547 21.1319C62.5547 19.6071 63.3955 18.5225 64.6562 18.5225C66.0636 18.5225 66.6403 19.6567 66.6403 20.9953V21.308H63.2286C63.2286 22.3642 63.7961 23.2142 64.8707 23.2142C65.32 23.2142 65.9756 23.028 66.269 22.8428V23.4681ZM65.9655 20.7808C65.9655 19.9106 65.6134 19.0506 64.6956 19.0506C63.7861 19.0506 63.2286 19.9592 63.2286 20.7808H65.9655ZM64.9395 16.7144H65.7115L64.4792 18.1218H64.03L64.9395 16.7144Z" fill="#0D0E0E"/>
<path d="M72.5237 23.6249H71.9076V22.8327H71.8883C71.5555 23.4681 71.0475 23.7414 70.3342 23.7414C68.9662 23.7414 68.2822 22.6081 68.2822 21.1319C68.2822 19.6172 68.869 18.5225 70.3342 18.5225C71.3116 18.5225 71.8003 19.2358 71.8883 19.4806H71.9076V16.2945H72.5237V23.6249ZM70.4314 23.2151C71.5262 23.2151 71.9067 22.0415 71.9067 21.1328C71.9067 20.2242 71.5252 19.0515 70.4314 19.0515C69.2587 19.0515 68.9552 20.1655 68.9552 21.1328C68.9552 22.1002 69.2587 23.2151 70.4314 23.2151Z" fill="#0D0E0E"/>
<path d="M78.1142 23.4681C77.6842 23.6442 77.1267 23.7414 76.6674 23.7414C75.016 23.7414 74.3999 22.6274 74.3999 21.1319C74.3999 19.6071 75.2407 18.5225 76.5014 18.5225C77.9088 18.5225 78.4855 19.6567 78.4855 20.9953V21.308H75.0738C75.0738 22.3642 75.6414 23.2142 76.7159 23.2142C77.1652 23.2142 77.8208 23.028 78.1142 22.8428V23.4681ZM77.8107 20.7808C77.8107 19.9106 77.4586 19.0506 76.5408 19.0506C75.6313 19.0506 75.0747 19.9592 75.0747 20.7808H77.8107ZM76.7847 16.7144H77.5567L76.3254 18.1218H75.8761L76.7847 16.7144Z" fill="#0D0E0E"/>
<path d="M80.4213 19.7539C80.4213 19.2065 80.4213 19.0011 80.3828 18.6398H80.998V19.598H81.0173C81.2419 19.0405 81.6628 18.5225 82.2982 18.5225C82.4449 18.5225 82.6209 18.5518 82.7282 18.5812V19.2266C82.6007 19.1872 82.4348 19.168 82.2789 19.168C81.3015 19.168 81.0375 20.2627 81.0375 21.1622V23.6258H80.4213V19.7539Z" fill="#0D0E0E"/>
<path d="M87.3015 22.8236H87.2813C87.0081 23.4195 86.314 23.7423 85.6979 23.7423C84.2813 23.7423 84.0566 22.7841 84.0566 22.3349C84.0566 20.6643 85.8354 20.5864 87.1254 20.5864H87.2428V20.3324C87.2428 19.4815 86.9393 19.0524 86.1086 19.0524C85.5906 19.0524 85.1019 19.1698 84.6425 19.4623V18.8663C85.024 18.6802 85.6685 18.5243 86.1086 18.5243C87.34 18.5243 87.858 19.0818 87.858 20.3819V22.5815C87.858 22.9822 87.858 23.2848 87.9066 23.6268H87.3006V22.8236H87.3015ZM87.2428 21.1136H87.0668C86.0014 21.1136 84.7305 21.2209 84.7305 22.3156C84.7305 22.9703 85.2 23.2151 85.7666 23.2151C87.2126 23.2151 87.2428 21.9544 87.2428 21.4162V21.1136Z" fill="#0D0E0E"/>
<path d="M92.238 19.168H91.1038V22.3936C91.1038 22.8428 91.2707 23.2142 91.7685 23.2142C92.0033 23.2142 92.16 23.1656 92.3361 23.0968L92.3746 23.6048C92.2279 23.6634 91.9253 23.7414 91.6218 23.7414C90.5271 23.7414 90.4876 22.9886 90.4876 22.08V19.167H89.5103V18.6389H90.4876V17.4369L91.1029 17.2214V18.6389H92.2371V19.168H92.238Z" fill="#0D0E0E"/>
<path d="M94.7197 17.3104H94.1035V16.4897H94.7197V17.3104ZM94.1035 18.6398H94.7197V23.6249H94.1035V18.6398Z" fill="#0D0E0E"/>
<path d="M98.9809 18.5234C100.594 18.5234 101.307 19.774 101.307 21.1328C101.307 22.4917 100.594 23.7423 98.9809 23.7423C97.369 23.7423 96.6548 22.4917 96.6548 21.1328C96.6548 19.774 97.3681 18.5234 98.9809 18.5234ZM98.9809 23.2151C100.056 23.2151 100.632 22.2863 100.632 21.1328C100.632 19.9794 100.056 19.0515 98.9809 19.0515C97.9063 19.0515 97.3296 19.9803 97.3296 21.1328C97.3287 22.2863 97.9054 23.2151 98.9809 23.2151Z" fill="#0D0E0E"/>
<path d="M103.232 19.8134C103.232 19.432 103.232 19.0414 103.194 18.6398H103.79V19.5292H103.809C104.014 19.0799 104.385 18.5225 105.421 18.5225C106.653 18.5225 107.122 19.3431 107.122 20.4378V23.624H106.506V20.5937C106.506 19.6557 106.174 19.0497 105.324 19.0497C104.2 19.0497 103.848 20.0372 103.848 20.8679V23.624H103.231V19.8134H103.232Z" fill="#0D0E0E"/>
<path d="M112.429 22.9015C112.801 23.0876 113.25 23.2142 113.729 23.2142C114.316 23.2142 114.833 22.8914 114.833 22.3248C114.833 21.1429 112.438 21.3281 112.438 19.8813C112.438 18.8938 113.24 18.5225 114.061 18.5225C114.325 18.5225 114.854 18.5812 115.293 18.7471L115.234 19.2853C114.911 19.1386 114.472 19.0506 114.13 19.0506C113.495 19.0506 113.055 19.2459 113.055 19.8813C113.055 20.8101 115.507 20.6927 115.507 22.3248C115.507 23.381 114.52 23.7423 113.768 23.7423C113.289 23.7423 112.81 23.6836 112.371 23.5085L112.429 22.9015Z" fill="#0D0E0E"/>
<path d="M121.264 22.4522C121.264 22.8337 121.264 23.2243 121.304 23.6249H120.707V22.7356H120.688C120.482 23.1848 120.111 23.7414 119.075 23.7414C117.843 23.7414 117.374 22.9198 117.374 21.826V18.6398H117.989V21.6701C117.989 22.609 118.322 23.2151 119.172 23.2151C120.296 23.2151 120.647 22.2276 120.647 21.3969V18.6408H121.263V22.4522H121.264Z" fill="#0D0E0E"/>
<path d="M124.187 17.3104H123.571V16.4897H124.187V17.3104ZM123.571 18.6398H124.187V23.6249H123.571V18.6398Z" fill="#0D0E0E"/>
<path d="M126.122 22.9015C126.493 23.0876 126.943 23.2142 127.422 23.2142C128.009 23.2142 128.526 22.8914 128.526 22.3248C128.526 21.1429 126.131 21.3281 126.131 19.8813C126.131 18.8938 126.933 18.5225 127.754 18.5225C128.018 18.5225 128.546 18.5812 128.986 18.7471L128.927 19.2853C128.604 19.1386 128.165 19.0506 127.823 19.0506C127.188 19.0506 126.747 19.2459 126.747 19.8813C126.747 20.8101 129.201 20.6927 129.201 22.3248C129.201 23.381 128.214 23.7423 127.461 23.7423C126.982 23.7423 126.503 23.6836 126.062 23.5085L126.122 22.9015Z" fill="#0D0E0E"/>
<path d="M130.687 22.9015C131.058 23.0876 131.508 23.2142 131.987 23.2142C132.573 23.2142 133.091 22.8914 133.091 22.3248C133.091 21.1429 130.696 21.3281 130.696 19.8813C130.696 18.8938 131.497 18.5225 132.319 18.5225C132.583 18.5225 133.111 18.5812 133.55 18.7471L133.491 19.2853C133.169 19.1386 132.729 19.0506 132.387 19.0506C131.752 19.0506 131.312 19.2459 131.312 19.8813C131.312 20.8101 133.765 20.6927 133.765 22.3248C133.765 23.381 132.778 23.7423 132.025 23.7423C131.547 23.7423 131.067 23.6836 130.627 23.5085L130.687 22.9015Z" fill="#0D0E0E"/>
<path d="M138.974 23.4681C138.544 23.6442 137.987 23.7414 137.527 23.7414C135.876 23.7414 135.26 22.6274 135.26 21.1319C135.26 19.6071 136.101 18.5225 137.361 18.5225C138.769 18.5225 139.345 19.6567 139.345 20.9953V21.308H135.934C135.934 22.3642 136.501 23.2142 137.576 23.2142C138.025 23.2142 138.681 23.028 138.974 22.8428V23.4681ZM138.671 20.7808C138.671 19.9106 138.319 19.0506 137.402 19.0506C136.492 19.0506 135.935 19.9592 135.935 20.7808H138.671Z" fill="#0D0E0E"/>
<path d="M44.229 31.0462C43.799 30.8215 43.1829 30.7528 42.7042 30.7528C40.9356 30.7528 39.938 32.0043 39.938 33.695C39.938 35.4151 40.9062 36.6364 42.7042 36.6364C43.1535 36.6364 43.8384 36.5777 44.229 36.343L44.2675 36.9298C43.8962 37.1554 43.1343 37.2232 42.7033 37.2232C40.5532 37.2232 39.2632 35.8066 39.2632 33.695C39.2632 31.6229 40.5927 30.1669 42.7033 30.1669C43.104 30.1669 43.9154 30.2347 44.2675 30.4209L44.229 31.0462Z" fill="#0D0E0E"/>
<path d="M48.4604 32.0043C50.0732 32.0043 50.7875 33.2549 50.7875 34.6138C50.7875 35.9726 50.0741 37.2232 48.4604 37.2232C46.8485 37.2232 46.1343 35.9726 46.1343 34.6138C46.1343 33.2549 46.8485 32.0043 48.4604 32.0043ZM48.4604 36.696C49.5359 36.696 50.1117 35.7672 50.1117 34.6138C50.1117 33.4603 49.5359 32.5324 48.4604 32.5324C47.3858 32.5324 46.8091 33.4612 46.8091 34.6138C46.8091 35.7672 47.3858 36.696 48.4604 36.696Z" fill="#0D0E0E"/>
<path d="M52.7118 33.2944C52.7118 32.9129 52.7118 32.5224 52.6733 32.1208H53.2693V33.0101H53.2895C53.494 32.5609 53.8653 32.0034 54.9014 32.0034C56.1337 32.0034 56.6022 32.824 56.6022 33.9188V37.1068H55.987V34.0765C55.987 33.1385 55.655 32.5324 54.8042 32.5324C53.6801 32.5324 53.328 33.5199 53.328 34.3506V37.1068H52.7118V33.2944Z" fill="#0D0E0E"/>
<path d="M59.329 32.6489H58.3223V32.1208H59.329V31.7595C59.329 30.7143 59.3675 29.658 60.6484 29.658C60.8446 29.658 61.1078 29.6874 61.2251 29.7561L61.1866 30.2934C61.0592 30.2247 60.8739 30.1861 60.6979 30.1861C59.858 30.1861 59.9451 31.0948 59.9451 31.6907V32.1208H61.0692V32.6489H59.9451V37.1068H59.3299V32.6489H59.329Z" fill="#0D0E0E"/>
<path d="M66.269 36.95C65.839 37.126 65.2815 37.2232 64.8221 37.2232C63.1708 37.2232 62.5547 36.1092 62.5547 34.6138C62.5547 33.089 63.3955 32.0043 64.6562 32.0043C66.0636 32.0043 66.6403 33.1385 66.6403 34.4772V34.7898H63.2286C63.2286 35.8461 63.7961 36.696 64.8707 36.696C65.32 36.696 65.9756 36.5099 66.269 36.3247V36.95ZM65.9655 34.2626C65.9655 33.3925 65.6134 32.5324 64.6956 32.5324C63.7861 32.5324 63.2286 33.4411 63.2286 34.2626H65.9655Z" fill="#0D0E0E"/>
<path d="M72.5237 37.1068H71.9076V36.3146H71.8883C71.5555 36.95 71.0475 37.2232 70.3342 37.2232C68.9662 37.2232 68.2822 36.0899 68.2822 34.6138C68.2822 33.0991 68.869 32.0043 70.3342 32.0043C71.3116 32.0043 71.8003 32.7177 71.8883 32.9625H71.9076V29.7763H72.5237V37.1068ZM70.4314 36.696C71.5262 36.696 71.9067 35.5224 71.9067 34.6138C71.9067 33.7051 71.5252 32.5324 70.4314 32.5324C69.2587 32.5324 68.9552 33.6465 68.9552 34.6138C68.9552 35.582 69.2587 36.696 70.4314 36.696Z" fill="#0D0E0E"/>
<path d="M78.1142 36.95C77.6842 37.126 77.1267 37.2232 76.6674 37.2232C75.016 37.2232 74.3999 36.1092 74.3999 34.6138C74.3999 33.089 75.2407 32.0043 76.5014 32.0043C77.9088 32.0043 78.4855 33.1385 78.4855 34.4772V34.7898H75.0738C75.0738 35.8461 75.6414 36.696 76.7159 36.696C77.1652 36.696 77.8208 36.5099 78.1142 36.3247V36.95ZM77.8107 34.2626C77.8107 33.3925 77.4586 32.5324 76.5408 32.5324C75.6313 32.5324 75.0747 33.4411 75.0747 34.2626H77.8107Z" fill="#0D0E0E"/>
<path d="M80.4213 33.2357C80.4213 32.6883 80.4213 32.4829 80.3828 32.1217H80.998V33.0798H81.0173C81.2419 32.5233 81.6628 32.0052 82.2982 32.0052C82.4449 32.0052 82.6209 32.0346 82.7282 32.0639V32.7094C82.6007 32.67 82.4348 32.6507 82.2789 32.6507C81.3015 32.6507 81.0375 33.7455 81.0375 34.6449V37.1068H80.4213V33.2357Z" fill="#0D0E0E"/>
<path d="M87.3015 36.3054H87.2813C87.0081 36.9014 86.314 37.2241 85.6979 37.2241C84.2813 37.2241 84.0566 36.266 84.0566 35.8167C84.0566 34.1462 85.8354 34.0682 87.1254 34.0682H87.2428V33.8142C87.2428 32.9634 86.9393 32.5343 86.1086 32.5343C85.5906 32.5343 85.1019 32.6516 84.6425 32.9441V32.3481C85.024 32.162 85.6685 32.0062 86.1086 32.0062C87.34 32.0062 87.858 32.5636 87.858 33.8628V36.0624C87.858 36.4631 87.858 36.7657 87.9066 37.1077H87.3006V36.3054H87.3015ZM87.2428 34.5945H87.0668C86.0014 34.5945 84.7305 34.7027 84.7305 35.7975C84.7305 36.4521 85.2 36.6969 85.7666 36.6969C87.2126 36.6969 87.2428 35.4362 87.2428 34.898V34.5945Z" fill="#0D0E0E"/>
<path d="M89.6274 36.5887L92.6284 32.6489H89.7448V32.1208H93.3417V32.6489L90.3417 36.5777H93.3417V37.1068H89.6284V36.5887H89.6274Z" fill="#0D0E0E"/>
<path d="M95.8046 30.7922H95.1885V29.9716H95.8046V30.7922ZM95.1894 32.1217H95.8055V37.1068H95.1894V32.1217Z" fill="#0D0E0E"/>
<path d="M100.065 32.0043C101.678 32.0043 102.391 33.2549 102.391 34.6138C102.391 35.9726 101.678 37.2232 100.065 37.2232C98.453 37.2232 97.7388 35.9726 97.7388 34.6138C97.7388 33.2549 98.453 32.0043 100.065 32.0043ZM100.065 36.696C101.14 36.696 101.716 35.7672 101.716 34.6138C101.716 33.4603 101.14 32.5324 100.065 32.5324C98.9903 32.5324 98.4136 33.4612 98.4136 34.6138C98.4136 35.7672 98.9903 36.696 100.065 36.696Z" fill="#0D0E0E"/>
<path d="M104.317 33.2944C104.317 32.9129 104.317 32.5224 104.278 32.1208H104.874V33.0101H104.894C105.098 32.5609 105.469 32.0034 106.505 32.0034C107.738 32.0034 108.206 32.824 108.206 33.9188V37.1068H107.59V34.0765C107.59 33.1385 107.258 32.5324 106.408 32.5324C105.284 32.5324 104.932 33.5199 104.932 34.3506V37.1068H104.316V33.2944H104.317Z" fill="#0D0E0E"/>
<path d="M113.857 36.95C113.427 37.126 112.87 37.2232 112.411 37.2232C110.759 37.2232 110.143 36.1092 110.143 34.6138C110.143 33.089 110.984 32.0043 112.245 32.0043C113.652 32.0043 114.229 33.1385 114.229 34.4772V34.7898H110.817C110.817 35.8461 111.385 36.696 112.459 36.696C112.908 36.696 113.564 36.5099 113.857 36.3247V36.95ZM113.554 34.2626C113.554 33.3925 113.202 32.5324 112.284 32.5324C111.374 32.5324 110.817 33.4411 110.817 34.2626H113.554Z" fill="#0D0E0E"/>
<path d="M119.427 36.2366C119.828 36.4906 120.296 36.6373 120.931 36.6373C121.772 36.6373 122.466 36.2073 122.466 35.24C122.466 33.9004 119.339 33.7345 119.339 31.9456C119.339 30.8509 120.297 30.1669 121.499 30.1669C121.831 30.1669 122.368 30.2155 122.838 30.3915L122.73 31.0077C122.427 30.8408 121.948 30.7537 121.489 30.7537C120.786 30.7537 120.014 31.0471 120.014 31.9264C120.014 33.2953 123.141 33.3045 123.141 35.2987C123.141 36.6768 121.959 37.2241 120.903 37.2241C120.238 37.2241 119.72 37.0875 119.359 36.9307L119.427 36.2366Z" fill="#0D0E0E"/>
<path d="M126.924 37.1068H126.201L124.51 32.1217H125.185L126.563 36.4329H126.582L128.029 32.1217H128.674L126.924 37.1068Z" fill="#0D0E0E"/>
<path d="M130.912 30.7922H130.297V29.9716H130.912V30.7922ZM130.296 32.1217H130.911V37.1068H130.296V32.1217Z" fill="#0D0E0E"/>
<path d="M132.769 36.5887L135.77 32.6489H132.886V32.1208H136.483V32.6489L133.483 36.5777H136.483V37.1068H132.769V36.5887H132.769Z" fill="#0D0E0E"/>
<path d="M137.87 36.5887L140.871 32.6489H137.987V32.1208H141.584V32.6489L138.584 36.5777H141.584V37.1068H137.871V36.5887H137.87Z" fill="#0D0E0E"/>
<path d="M146.774 36.95C146.344 37.126 145.786 37.2232 145.327 37.2232C143.676 37.2232 143.06 36.1092 143.06 34.6138C143.06 33.089 143.9 32.0043 145.161 32.0043C146.568 32.0043 147.145 33.1385 147.145 34.4772V34.7898H143.733C143.733 35.8461 144.301 36.696 145.376 36.696C145.825 36.696 146.48 36.5099 146.774 36.3247V36.95ZM146.47 34.2626C146.47 33.3925 146.118 32.5324 145.2 32.5324C144.291 32.5324 143.734 33.4411 143.734 34.2626H146.47Z" fill="#0D0E0E"/>
<path d="M149.081 33.2357C149.081 32.6883 149.081 32.4829 149.042 32.1217H149.658V33.0798H149.677C149.902 32.5233 150.322 32.0052 150.958 32.0052C151.105 32.0052 151.281 32.0346 151.388 32.0639V32.7094C151.26 32.67 151.094 32.6507 150.939 32.6507C149.961 32.6507 149.697 33.7455 149.697 34.6449V37.1068H149.082V33.2357H149.081Z" fill="#0D0E0E"/>
<path d="M155.961 36.3054H155.941C155.668 36.9014 154.974 37.2241 154.358 37.2241C152.941 37.2241 152.716 36.266 152.716 35.8167C152.716 34.1462 154.495 34.0682 155.785 34.0682H155.902V33.8142C155.902 32.9634 155.599 32.5343 154.768 32.5343C154.25 32.5343 153.762 32.6516 153.302 32.9441V32.3481C153.684 32.162 154.328 32.0062 154.768 32.0062C156 32.0062 156.518 32.5636 156.518 33.8628V36.0624C156.518 36.4631 156.518 36.7657 156.566 37.1077H155.96V36.3054H155.961ZM155.902 34.5945H155.726C154.661 34.5945 153.39 34.7027 153.39 35.7975C153.39 36.4521 153.86 36.6969 154.426 36.6969C155.872 36.6969 155.902 35.4362 155.902 34.898V34.5945Z" fill="#0D0E0E"/>
<path d="M44.229 44.5271C43.799 44.3025 43.1829 44.2337 42.7042 44.2337C40.9356 44.2337 39.938 45.4852 39.938 47.176C39.938 48.896 40.9062 50.1173 42.7042 50.1173C43.1535 50.1173 43.8384 50.0586 44.229 49.8239L44.2675 50.4107C43.8962 50.6363 43.1343 50.7041 42.7033 50.7041C40.5532 50.7041 39.2632 49.2875 39.2632 47.176C39.2632 45.1038 40.5927 43.6478 42.7033 43.6478C43.104 43.6478 43.9154 43.7157 44.2675 43.9018L44.229 44.5271Z" fill="#0D0E0E"/>
<path d="M48.4604 45.4852C50.0732 45.4852 50.7875 46.7359 50.7875 48.0947C50.7875 49.4535 50.0741 50.7041 48.4604 50.7041C46.8485 50.7041 46.1343 49.4535 46.1343 48.0947C46.1343 46.7359 46.8485 45.4852 48.4604 45.4852ZM48.4604 50.1769C49.5359 50.1769 50.1117 49.2481 50.1117 48.0947C50.1117 46.9413 49.5359 46.0134 48.4604 46.0134C47.3858 46.0134 46.8091 46.9422 46.8091 48.0947C46.8091 49.2481 47.3858 50.1769 48.4604 50.1769Z" fill="#0D0E0E"/>
<path d="M52.7118 46.7753C52.7118 46.3939 52.7118 46.0033 52.6733 45.6017H53.2693V46.4911H53.2895C53.494 46.0418 53.8653 45.4843 54.9014 45.4843C56.1337 45.4843 56.6022 46.3058 56.6022 47.3997V50.5859H55.987V47.5556C55.987 46.6176 55.655 46.0115 54.8042 46.0115C53.6801 46.0115 53.328 46.999 53.328 47.8288V50.5849H52.7118V46.7753Z" fill="#0D0E0E"/>
<path d="M59.329 46.1298H58.3223V45.6017H59.329V45.2404C59.329 44.1952 59.3675 43.1389 60.6484 43.1389C60.8446 43.1389 61.1078 43.1683 61.2251 43.237L61.1866 43.7743C61.0592 43.7056 60.8739 43.6671 60.6979 43.6671C59.858 43.6671 59.9451 44.5757 59.9451 45.1717V45.6017H61.0692V46.1298H59.9451V50.5868H59.3299V46.1298H59.329Z" fill="#0D0E0E"/>
<path d="M66.269 50.4309C65.839 50.6069 65.2815 50.7041 64.8221 50.7041C63.1708 50.7041 62.5547 49.5901 62.5547 48.0947C62.5547 46.5699 63.3955 45.4852 64.6562 45.4852C66.0636 45.4852 66.6403 46.6194 66.6403 47.9581V48.2707H63.2286C63.2286 49.3261 63.7961 50.1769 64.8707 50.1769C65.32 50.1769 65.9756 49.9917 66.269 49.8056V50.4309ZM65.9655 47.7426C65.9655 46.8725 65.6134 46.0124 64.6956 46.0124C63.7861 46.0124 63.2286 46.9211 63.2286 47.7426H65.9655Z" fill="#0D0E0E"/>
<path d="M72.5237 50.5877H71.9076V49.7955H71.8883C71.5555 50.4309 71.0475 50.7041 70.3342 50.7041C68.9662 50.7041 68.2822 49.5709 68.2822 48.0947C68.2822 46.58 68.869 45.4852 70.3342 45.4852C71.3116 45.4852 71.8003 46.1986 71.8883 46.4434H71.9076V43.2572H72.5237V50.5877ZM70.4314 50.1769C71.5262 50.1769 71.9067 49.0033 71.9067 48.0947C71.9067 47.1861 71.5252 46.0134 70.4314 46.0134C69.2587 46.0134 68.9552 47.1274 68.9552 48.0947C68.9552 49.0629 69.2587 50.1769 70.4314 50.1769Z" fill="#0D0E0E"/>
<path d="M78.1142 50.4309C77.6842 50.6069 77.1267 50.7041 76.6674 50.7041C75.016 50.7041 74.3999 49.5901 74.3999 48.0947C74.3999 46.5699 75.2407 45.4852 76.5014 45.4852C77.9088 45.4852 78.4855 46.6194 78.4855 47.9581V48.2707H75.0738C75.0738 49.3261 75.6414 50.1769 76.7159 50.1769C77.1652 50.1769 77.8208 49.9917 78.1142 49.8056V50.4309ZM77.8107 47.7426C77.8107 46.8725 77.4586 46.0124 76.5408 46.0124C75.6313 46.0124 75.0747 46.9211 75.0747 47.7426H77.8107Z" fill="#0D0E0E"/>
<path d="M80.4213 46.7166C80.4213 46.1692 80.4213 45.9639 80.3828 45.6026H80.998V46.5607H81.0173C81.2419 46.0042 81.6628 45.4862 82.2982 45.4862C82.4449 45.4862 82.6209 45.5155 82.7282 45.5448V46.1903C82.6007 46.1509 82.4348 46.1316 82.2789 46.1316C81.3015 46.1316 81.0375 47.2264 81.0375 48.1259V50.5895H80.4213V46.7166Z" fill="#0D0E0E"/>
<path d="M87.3015 49.7854H87.2813C87.0081 50.3814 86.314 50.7041 85.6979 50.7041C84.2813 50.7041 84.0566 49.746 84.0566 49.2967C84.0566 47.6262 85.8354 47.5473 87.1254 47.5473H87.2428V47.2933C87.2428 46.4434 86.9393 46.0134 86.1086 46.0134C85.5906 46.0134 85.1019 46.1307 84.6425 46.4232V45.8272C85.024 45.6411 85.6685 45.4852 86.1086 45.4852C87.34 45.4852 87.858 46.0427 87.858 47.3428V49.5424C87.858 49.9431 87.858 50.2457 87.9066 50.5877H87.3006V49.7854H87.3015ZM87.2428 48.0754H87.0668C86.0014 48.0754 84.7305 48.1836 84.7305 49.2784C84.7305 49.933 85.2 50.1778 85.7666 50.1778C87.2126 50.1778 87.2428 48.9171 87.2428 48.3789V48.0754Z" fill="#0D0E0E"/>
<path d="M89.6274 50.0697L92.6284 46.1298H89.7448V45.6017H93.3417V46.1298L90.3417 50.0586H93.3417V50.5868H89.6284V50.0697H89.6274Z" fill="#0D0E0E"/>
<path d="M95.8046 44.2731H95.1885V43.4525H95.8046V44.2731ZM95.1894 45.6026H95.8055V50.5877H95.1894V45.6026Z" fill="#0D0E0E"/>
<path d="M102.01 49.4141C102.01 49.7955 102.01 50.1861 102.049 50.5868H101.452V49.6974H101.433C101.228 50.1467 100.857 50.7032 99.8204 50.7032C98.5891 50.7032 98.1196 49.8826 98.1196 48.7878V45.6017H98.7358V48.632C98.7358 49.5709 99.0686 50.1769 99.9186 50.1769C101.043 50.1769 101.394 49.1894 101.394 48.3587V45.6026H102.009V49.4141H102.01Z" fill="#0D0E0E"/>
<path d="M104.317 46.7753C104.317 46.3939 104.317 46.0033 104.278 45.6017H104.874V46.4911H104.894C105.098 46.0418 105.469 45.4843 106.505 45.4843C107.738 45.4843 108.206 46.3058 108.206 47.3997V50.5859H107.59V47.5556C107.59 46.6176 107.258 46.0115 106.408 46.0115C105.284 46.0115 104.932 46.999 104.932 47.8288V50.5849H104.316V46.7753H104.317Z" fill="#0D0E0E"/>
<path d="M113.514 49.8643C113.886 50.0504 114.335 50.1769 114.814 50.1769C115.401 50.1769 115.918 49.8542 115.918 49.2876C115.918 48.1048 113.523 48.2909 113.523 46.8441C113.523 45.8566 114.325 45.4852 115.146 45.4852C115.41 45.4852 115.938 45.5439 116.378 45.7099L116.319 46.2472C115.996 46.1005 115.557 46.0124 115.215 46.0124C114.58 46.0124 114.14 46.2077 114.14 46.8431C114.14 47.7719 116.592 47.6546 116.592 49.2866C116.592 50.3429 115.605 50.7032 114.853 50.7032C114.374 50.7032 113.895 50.6445 113.456 50.4694L113.514 49.8643Z" fill="#0D0E0E"/>
<path d="M120.189 50.5877H119.466L117.775 45.6026H118.45L119.828 49.9138H119.847L121.294 45.6026H121.938L120.189 50.5877Z" fill="#0D0E0E"/>
<path d="M124.177 44.2731H123.562V43.4525H124.177V44.2731ZM123.561 45.6026H124.176V50.5877H123.561V45.6026Z" fill="#0D0E0E"/>
<path d="M126.034 50.0697L129.035 46.1298H126.152V45.6017H129.748V46.1298L126.748 50.0586H129.748V50.5868H126.035V50.0697H126.034Z" fill="#0D0E0E"/>
<path d="M131.595 46.7166C131.595 46.1692 131.595 45.9639 131.557 45.6026H132.173V46.5607H132.192C132.417 46.0042 132.838 45.4862 133.473 45.4862C133.62 45.4862 133.796 45.5155 133.903 45.5448V46.1903C133.775 46.1509 133.61 46.1316 133.454 46.1316C132.476 46.1316 132.212 47.2264 132.212 48.1259V50.5895H131.596V46.7166H131.595Z" fill="#0D0E0E"/>
<path d="M138.475 49.7854H138.456C138.183 50.3814 137.489 50.7041 136.873 50.7041C135.455 50.7041 135.231 49.746 135.231 49.2967C135.231 47.6262 137.01 47.5473 138.3 47.5473H138.418V47.2933C138.418 46.4434 138.114 46.0134 137.283 46.0134C136.765 46.0134 136.277 46.1307 135.817 46.4232V45.8272C136.199 45.6411 136.843 45.4852 137.283 45.4852C138.515 45.4852 139.033 46.0427 139.033 47.3428V49.5424C139.033 49.9431 139.033 50.2457 139.081 50.5877H138.475V49.7854ZM138.418 48.0754H138.242C137.176 48.0754 135.905 48.1836 135.905 49.2784C135.905 49.933 136.375 50.1778 136.941 50.1778C138.387 50.1778 138.418 48.9171 138.418 48.3789V48.0754Z" fill="#0D0E0E"/>
<path d="M28.1754 3.0235C28.1754 3.0235 23.0061 0.759715 14.3516 0.759715H14.3489C5.69349 0.759715 0.523188 3.0235 0.523188 3.0235C0.523188 3.0235 0.0601624 13.0478 2.02229 18.7159C5.48811 28.6825 14.347 31.4817 14.347 31.4817H14.3498H14.3525C14.3525 31.4817 23.2096 28.6825 26.6773 18.7159C28.6394 13.0478 28.1754 3.0235 28.1754 3.0235Z" fill="#FF0000"/>
<path d="M23.537 11.6651V17.1884H17.0931V23.6323H11.5698V17.1884H5.12598V11.6651H11.5698V5.2231H17.0922L17.0931 11.6651H23.537Z" fill="white"/>
</svg>
