<svg width="16" height="16" viewBox="0 0 16 16" fill="none" xmlns="http://www.w3.org/2000/svg">
<path d="M5.66309 0.954102L10.0469 2.12891C10.3436 2.20841 10.6564 2.20841 10.9531 2.12891L14.9355 1.06152C15.0942 1.0192 15.25 1.13943 15.25 1.30371V13.5723C15.25 13.6854 15.1737 13.7842 15.0645 13.8135L10.5645 15.0195C10.5222 15.0308 10.4778 15.0308 10.4355 15.0195L6.05078 13.8447C5.75427 13.7653 5.44203 13.7653 5.14551 13.8447L1.06445 14.9385C0.905926 14.9808 0.750305 14.8613 0.75 14.6973V2.42773C0.75 2.31458 0.826251 2.21581 0.935547 2.18652L5.5332 0.954102C5.57559 0.942743 5.6207 0.942744 5.66309 0.954102Z" stroke="#333359" stroke-width="1.5"/>
<line x1="5.40001" y1="14" x2="5.40001" y2="1" stroke="#333359" stroke-width="1.6"/>
<line x1="10.4" y1="15" x2="10.4" y2="2" stroke="#333359" stroke-width="1.6"/>
</svg>
