<?xml version="1.0" encoding="UTF-8" standalone="no"?>
<svg
   width="40"
   height="35"
   viewBox="0 0 40 35"
   fill="#ffffff"
   version="1.1"
   id="svg1"
   sodipodi:docname="bsky-white.svg"
   inkscape:version="1.3.2 (091e20e, 2023-11-25)"
   xmlns:inkscape="http://www.inkscape.org/namespaces/inkscape"
   xmlns:sodipodi="http://sodipodi.sourceforge.net/DTD/sodipodi-0.dtd"
   xmlns="http://www.w3.org/2000/svg"
   xmlns:svg="http://www.w3.org/2000/svg"
   xmlns:rdf="http://www.w3.org/1999/02/22-rdf-syntax-ns#"
   xmlns:cc="http://creativecommons.org/ns#"
   xmlns:dc="http://purl.org/dc/elements/1.1/">
  <defs
     id="defs1" />
  <sodipodi:namedview
     id="namedview1"
     pagecolor="#ffff4a"
     bordercolor="#666666"
     borderopacity="1.0"
     inkscape:showpageshadow="2"
     inkscape:pageopacity="0.0"
     inkscape:pagecheckerboard="0"
     inkscape:deskcolor="#d1d1d1"
     inkscape:zoom="6.6890222"
     inkscape:cx="19.958074"
     inkscape:cy="17.566095"
     inkscape:window-width="1680"
     inkscape:window-height="938"
     inkscape:window-x="0"
     inkscape:window-y="25"
     inkscape:window-maximized="0"
     inkscape:current-layer="svg1" />
  <title
     id="title1">Bluesky butterfly logo</title>
  <path
     d="m 11.886749,10.638446 c 3.276561,2.459889 6.800676,7.447532 8.094749,10.123979 1.294072,-2.676398 4.818181,-7.66409 8.094742,-10.124028 2.364188,-1.774839 6.194925,-3.148204 6.194925,1.221867 0,0.872774 -0.500391,7.331656 -0.793882,8.380335 -1.020151,3.645529 -4.737479,4.57536 -8.044229,4.012579 5.780026,0.983675 7.250347,4.242122 4.074875,7.500569 -6.030844,6.188429 -8.667993,-1.552692 -9.343733,-3.536242 -0.12388,-0.363629 -0.181843,-0.533746 -0.182698,-0.389092 -6.25e-4,-0.144654 -0.05882,0.02547 -0.182698,0.389092 -0.67574,1.98355 -3.312889,9.724671 -9.343735,3.536242 C 7.2795949,28.4953 8.7498658,25.236853 14.529942,24.253128 11.223191,24.815909 7.5058633,23.886078 6.4857131,20.240549 6.1922159,19.19187 5.6918312,12.732939 5.6918312,11.860214 c 0,-4.370021 3.8307868,-2.996706 6.1949178,-1.221768 z"
     id="path1"
     style="stroke-width:0.718335" />
  <metadata
     id="metadata1">
    <rdf:RDF>
      <cc:Work
         rdf:about="">
        <dc:title>Bluesky butterfly logo</dc:title>
      </cc:Work>
    </rdf:RDF>
  </metadata>
</svg>
