<!-- Generated by IcoMoon.io -->
<svg version="1.1" xmlns="http://www.w3.org/2000/svg" width="24" height="24" viewBox="0 0 24 24">
<title>Bluesky</title>
<path fill="white" d="m 6.7977546,5.2852373 c 2.008222,1.50768 4.1681724,4.5646343 4.9613164,6.2050437 0.793144,-1.6403794 2.95309,-4.6973637 4.961312,-6.2050737 1.449024,-1.087808 3.796904,-1.929551 3.796904,0.748889 0,0.534928 -0.306693,4.4936137 -0.486575,5.1363547 -0.625256,2.234365 -2.903627,2.804263 -4.930352,2.459332 3.54261,0.6029 4.443777,2.60002 2.497513,4.59714 -3.696337,3.792922 -5.312661,-0.951654 -5.726825,-2.167382 -0.07593,-0.222871 -0.111453,-0.327136 -0.111977,-0.238477 -3.83e-4,-0.08866 -0.03605,0.01561 -0.111977,0.238477 -0.414164,1.215728 -2.030488,5.960304 -5.7268264,2.167382 -1.946263,-1.99712 -1.045126,-3.99424 2.497514,-4.597171 -2.026726,0.344932 -4.305096,-0.224967 -4.930352,-2.459332 -0.179886,-0.642741 -0.486575,-4.6014557 -0.486575,-5.1363537 0,-2.67841 2.347911,-1.836698 3.7969,-0.748829 z"></path>
</svg>
