<svg
   width="40"
   height="35.281689"
   viewBox="0 0 40 35.281689"
   fill="#ffffff"
   xmlns="http://www.w3.org/2000/svg">
  <title
     id="title1">Bluesky butterfly logo</title>
  <path
     d="M 8.7127335,2.3691523 C 13.27406,5.7935827 18.180009,12.73692 19.981498,16.462824 21.782986,12.736989 26.688926,5.7935827 31.250253,2.3690828 c 3.291204,-2.47076742 8.624004,-4.3826391 8.624004,1.7009717 0,1.2149959 -0.696598,10.2064565 -1.105169,11.6663305 -1.42016,5.07497 -6.595082,6.369396 -11.198435,5.585944 8.046419,1.369381 10.093265,5.905491 5.672666,10.441601 -8.395587,8.614962 -12.066783,-2.161515 -13.007486,-4.92283 -0.172454,-0.506211 -0.253145,-0.743032 -0.254335,-0.541659 -8.7e-4,-0.201373 -0.08188,0.03546 -0.254336,0.541659 C 18.78646,29.602415 15.115264,40.378892 6.7196755,31.76393 2.2990776,27.22782 4.3458535,22.69171 12.392343,21.322259 7.7889891,22.105711 2.6140677,20.811286 1.1939084,15.736315 0.78532864,14.276441 0.08873914,5.2849114 0.08873914,4.0699849 c 0,-6.0835412 5.33286876,-4.17173902 8.62399436,-1.7008326 z"
 />
</svg>
