<svg id="cluster-icon" width="100" height="100" viewBox="0 0 100 100" fill="none" xmlns="http://www.w3.org/2000/svg">
<path d="M18.9339 81.0661C9.28413 71.4164 4.45925 66.5915 2.22971 61.2091C-0.743235 54.0321 -0.743235 45.968 2.22971 38.7909C4.45925 33.4085 9.28413 28.5837 18.9339 18.9339C28.5837 9.28413 33.4085 4.45925 38.7909 2.22971C45.968 -0.743236 54.0321 -0.743234 61.2091 2.2297C66.5915 4.45925 71.4164 9.28413 81.0661 18.9339C90.7159 28.5837 95.5408 33.4085 97.7703 38.7909C100.743 45.968 100.743 54.0321 97.7703 61.2091C95.5408 66.5915 90.7159 71.4163 81.0661 81.0661C71.4164 90.7159 66.5915 95.5408 61.2091 97.7703C54.0321 100.743 45.968 100.743 38.7909 97.7703C33.4085 95.5408 28.5837 90.7159 18.9339 81.0661Z" fill="#F3A040"/>
<path d="M69.2894 43.494C65.7293 43.494 62.8419 46.3801 62.8419 49.9402C62.8419 52.0137 63.8213 53.8586 65.3421 55.0382L62.5927 60.1443C61.8051 59.8014 60.9358 59.6108 60.022 59.6108C56.8627 59.6108 54.2337 61.8837 53.6815 64.8833L47.6783 65.0079C47.2631 61.8482 44.5591 59.409 41.2856 59.409C40.2533 59.409 39.2779 59.652 38.4129 60.0834L35.4852 54.5366C36.9355 53.3543 37.8619 51.5538 37.8619 49.5371C37.8619 47.6593 37.059 45.9694 35.7779 44.7912L38.8106 39.1591C39.4416 39.3655 40.1153 39.4775 40.8153 39.4775C44.3766 39.4775 47.2628 36.5913 47.2628 33.0306C47.2628 29.4699 44.3766 26.5837 40.8153 26.5837C37.2551 26.5837 34.3689 29.4699 34.3689 33.0306C34.3689 35.0239 35.2736 36.8056 36.6944 37.9881L33.7186 43.5145C33.003 43.2406 32.2263 43.0901 31.4142 43.0901C27.8541 43.0901 24.968 45.9762 24.968 49.537C24.968 53.0972 27.8541 55.9845 31.4142 55.9845C32.0918 55.9845 32.7448 55.8797 33.3583 55.6859L36.4664 61.5746C35.4544 62.7131 34.8394 64.2123 34.8394 65.8553C34.8394 69.4155 37.7255 72.3028 41.2856 72.3028C44.3034 72.3028 46.8371 70.2288 47.5398 67.4292L53.6951 67.3016C54.2751 70.2664 56.8875 72.5046 60.022 72.5046C63.5822 72.5046 66.4694 69.6173 66.4694 66.0572C66.4694 64.2867 65.7553 62.6832 64.5996 61.5182L67.4978 56.1357C68.0667 56.3 68.6677 56.3883 69.2894 56.3883C72.8497 56.3883 75.7369 53.501 75.7369 49.9402C75.7369 46.3801 72.8497 43.494 69.2894 43.494Z" fill="white"/>
<path d="M50.1514 43.0881C46.5912 43.0881 43.7039 45.9743 43.7039 49.5344C43.7039 53.0953 46.5911 55.9826 50.1514 55.9826C53.7114 55.9826 56.5988 53.0953 56.5988 49.5344C56.5988 47.7228 55.8508 46.086 54.6473 44.9149L57.796 39.0672C58.4902 39.3228 59.2404 39.4626 60.0232 39.4626C63.5834 39.4626 66.4706 36.5752 66.4706 33.0144C66.4706 29.4543 63.5834 26.5681 60.0232 26.5681C56.4631 26.5681 53.5757 29.4543 53.5757 33.0144C53.5757 34.9224 54.4049 36.6368 55.7223 37.8174L52.6204 43.5782C51.8598 43.2626 51.0259 43.0881 50.1514 43.0881Z" fill="white"/>
</svg>
