<?xml version="1.0" encoding="UTF-8" standalone="no"?>
<svg
   xmlns:dc="http://purl.org/dc/elements/1.1/"
   xmlns:cc="http://creativecommons.org/ns#"
   xmlns:rdf="http://www.w3.org/1999/02/22-rdf-syntax-ns#"
   xmlns:svg="http://www.w3.org/2000/svg"
   xmlns="http://www.w3.org/2000/svg"
   xmlns:sodipodi="http://sodipodi.sourceforge.net/DTD/sodipodi-0.dtd"
   xmlns:inkscape="http://www.inkscape.org/namespaces/inkscape"
   inkscape:version="1.0beta2 (2b71d25, 2019-12-03)"
   sodipodi:docname="compass.svg"
   id="svg84"
   version="1.1"
   height="32"
   width="32">
  <metadata
     id="metadata90">
    <rdf:RDF>
      <cc:Work
         rdf:about="">
        <dc:format>image/svg+xml</dc:format>
        <dc:type
           rdf:resource="http://purl.org/dc/dcmitype/StillImage" />
      </cc:Work>
    </rdf:RDF>
  </metadata>
  <defs
     id="defs88" />
  <sodipodi:namedview
     inkscape:current-layer="g82"
     inkscape:window-maximized="0"
     inkscape:window-y="23"
     inkscape:window-x="0"
     inkscape:cy="16"
     inkscape:cx="16"
     inkscape:zoom="20.21875"
     showgrid="false"
     id="namedview86"
     inkscape:window-height="850"
     inkscape:window-width="1203"
     inkscape:pageshadow="2"
     inkscape:pageopacity="0"
     guidetolerance="10"
     gridtolerance="10"
     objecttolerance="10"
     borderopacity="1"
     inkscape:document-rotation="0"
     bordercolor="#666666"
     pagecolor="#ffffff" />
  <title
     id="title72">compass</title>
  <g
     id="g77">
    <title
       id="title74">background</title>
    <rect
       x="-1"
       y="-1"
       width="582"
       height="402"
       id="canvas_background"
       fill="none" />
  </g>
  <g
     id="g82">
    <title
       id="title79">Layer 1</title>
    <path
       sodipodi:nodetypes="sssssssssscccccccccsssss"
       inkscape:connector-curvature="0"
       fill="#5a90ff"
       d="M 2,16 C 2,23.732 8.268,30 16,30 23.732,30 30,23.732 30,16 30,8.268 23.732,2 16,2 8.268,2 2,8.268 2,16 Z m 26.443298,-0.0018 c 0,6.282 -6.161298,12.443298 -12.443298,12.443298 -6.282,0 -12.4432977,-6.161298 -12.4432977,-12.443298 C 3.5567023,9.7162183 9.718,3.5549207 16,3.5549207 c 6.282,0 12.443298,6.1612976 12.443298,12.4432973 z M 13.910082,13.9083 9.8022119,20.447788 9,23 11.552212,22.197788 18.0917,18.0917 22.19957,11.55043 23,9 20.44957,9.8004303 Z M 17.75,16 c 0,0.966 -0.784,1.75 -1.75,1.75 -0.966,0 -1.75,-0.784 -1.75,-1.75 0,-0.966 0.784,-1.75 1.75,-1.75 0.966,0 1.75,0.784 1.75,1.75 z"
       id="svg_1"
       transform="rotate(-45,16,16)" />
  </g>
</svg>
