<svg id="data-icon" width="111" height="110" viewBox="0 0 111 110" fill="none" xmlns="http://www.w3.org/2000/svg">
<path d="M10.0104 77.7821C-2.57183 65.1999 -2.57181 44.8001 10.0104 32.2179L32.7917 9.43664C45.3739 -3.14556 65.7736 -3.14554 78.3558 9.43666L101.137 32.2179C113.719 44.8001 113.719 65.1999 101.137 77.7821L78.3558 100.563C65.7736 113.146 45.3738 113.146 32.7916 100.563L10.0104 77.7821Z" fill="#64A856"/>
<path d="M47.041 72.8098C47.1406 72.9094 47.1406 72.9094 47.0908 72.8596C47.041 72.8098 47.041 72.8098 47.041 72.8098Z" fill="white"/>
<path d="M65.6045 61.8113C63.7133 60.7164 58.5374 57.2824 58.0895 56.9838C56.7956 56.1377 55.8002 55.4907 55.8002 55.4907L47.5885 60.2685L38.7297 65.3448C38.7297 65.3448 47.5387 74.0044 48.2852 74.6514C48.4345 74.751 55.203 80.6236 55.203 80.6236C55.203 80.6236 62.7677 74.2533 65.4552 71.6156C66.5501 70.5207 71.9748 65.2453 71.9748 65.2453C71.9748 65.2453 67.0478 62.6573 65.6045 61.8113Z" fill="white"/>
<path d="M50.475 56.4364C50.3754 56.5359 50.2261 56.6354 50.1266 56.6852C49.5791 57.0336 49.0814 57.382 48.534 57.6806C48.3847 57.7801 48.1856 57.8796 48.0363 57.9792C47.9865 58.0289 47.9368 58.0787 47.887 58.1285C47.2898 58.4769 46.6926 58.8252 46.0954 59.1736C46.0456 59.2234 45.9958 59.2234 45.9461 59.2731C45.7968 59.3727 45.5977 59.4722 45.4484 59.5718C45.2991 59.6713 45.1498 59.7211 45.0005 59.8206C44.9507 59.8704 44.9009 59.8704 44.8512 59.9201C44.7516 59.9699 44.6521 60.0197 44.6023 60.0694C44.5028 60.1192 44.453 60.1192 44.3535 60.169C44.2042 60.2685 44.1046 60.3183 43.9553 60.4178C43.806 60.5173 43.607 60.6169 43.4577 60.6667C42.8604 61.015 42.2632 61.3634 41.666 61.7118C41.5665 61.7118 41.5167 61.7615 41.4669 61.8113C40.0237 62.6076 38.5804 63.3541 37.1371 64.1504C34.5989 61.5127 32.2598 58.875 29.871 56.1378C26.2379 51.8577 25.5411 50.9619 23.0527 47.7767C24.9439 47.3288 26.8849 46.9307 28.7761 46.4827C28.8756 46.4827 28.9751 46.433 29.0747 46.433C29.6221 46.2837 30.1696 46.1841 30.717 46.0348C32.7077 45.5869 34.6487 45.0395 36.5897 44.5418C37.1371 44.3925 37.6846 44.2432 38.232 44.0939C40.5711 45.8855 42.96 47.7269 45.4981 49.4191C46.4437 50.0163 47.3396 50.6135 48.2354 51.1609C49.9773 52.3056 51.7192 53.4005 53.461 54.4954C52.4657 55.1922 51.4703 55.8391 50.475 56.4364Z" fill="white"/>
<path fill-rule="evenodd" clip-rule="evenodd" d="M57.6913 54.7937C60.2792 53.0519 62.9169 51.1607 65.4551 49.369C67.9435 47.6271 72.5222 44.3922 72.5222 44.3922C75.1101 45.2383 77.6981 45.9848 80.1865 46.7313C82.7246 47.4778 83.6205 47.8262 86.1586 48.6225C84.1181 51.4095 82.6749 53.2509 80.3358 55.9882C77.8971 58.7752 75.359 61.1641 72.771 63.8018C69.9342 62.259 68.69 61.4129 66.0026 59.7706C63.4146 58.178 60.329 56.5356 57.6913 54.7937Z" fill="white"/>
<path d="M64.8579 59.173C64.9077 59.173 64.9574 59.2227 64.9574 59.2227V59.173C64.9574 59.173 64.9077 59.173 64.8579 59.173Z" fill="white"/>
<path d="M38.3812 44.0439C37.8338 44.1933 37.2863 44.3426 36.7389 44.4919C37.2863 44.3426 37.8338 44.1933 38.3812 44.0439Z" fill="white"/>
<path d="M46.8915 65.0958C46.8915 65.1456 46.8418 65.1954 46.792 65.2949C46.9413 65.1456 46.9413 65.0958 46.8915 65.0958Z" fill="white"/>
<path d="M69.9841 43.795L70.4818 43.4466C70.4818 43.4466 70.3823 43.4466 70.233 43.3969C70.1832 43.4964 70.0837 43.6457 69.9841 43.795C69.9841 43.7452 69.9841 43.795 69.9841 43.795Z" fill="white"/>
<path d="M69.7352 43.9445C69.7849 43.8947 69.7849 43.7952 69.8347 43.7454C69.9342 43.5961 70.0338 43.4468 70.1333 43.3473C70.0836 43.3473 70.0836 43.3473 70.0338 43.2975C69.7849 43.5961 69.5859 43.9445 69.337 44.2431L69.7352 43.9445Z" fill="white"/>
<path d="M32.6085 35.434C34.2011 37.0266 35.8434 38.6689 37.5853 40.2117C39.4267 41.8541 41.4175 43.3471 43.3584 44.8899C45.2994 46.4327 47.1906 48.1249 49.3306 49.4188C51.6199 50.8621 53.8097 52.1063 55.7507 53.5994C57.7912 52.1561 59.9312 50.8123 62.121 49.4188C64.261 48.0253 66.3015 46.4825 68.342 44.9895C70.3825 43.4964 72.3732 41.9536 74.2146 40.361C76.0063 38.8182 77.6486 37.1759 79.291 35.5833C77.2007 35.3842 75.1105 35.1852 72.9704 34.9861C70.8802 34.787 68.7899 34.4884 66.6499 34.2396C64.5099 33.9907 62.4196 33.7419 60.3791 33.3437C58.6372 32.9456 57.1442 32.3981 55.7507 32C54.1581 32.3484 52.466 32.7465 50.6743 33.0949C48.8329 33.4433 46.8422 33.7419 44.9012 34.0405C42.9603 34.3391 41.0193 34.6875 38.9788 34.9363C36.8886 35.1354 34.7485 35.2847 32.6085 35.434Z" fill="white"/>
</svg>
