<svg id="desktop-icon" width="100" height="100" viewBox="0 0 100 100" fill="none" xmlns="http://www.w3.org/2000/svg">
<path d="M8.57876 70.711C-2.8596 59.2726 -2.85958 40.7274 8.57878 29.289L29.289 8.57876C40.7274 -2.8596 59.2726 -2.85958 70.711 8.57878L91.4212 29.289C102.86 40.7274 102.86 59.2726 91.4212 70.711L70.711 91.4212C59.2726 102.86 40.7274 102.86 29.289 91.4212L8.57876 70.711Z" fill="#714EAA"/>
<path d="M73.2756 31.6621H27.4298C26.0704 31.6621 24.9683 32.7642 24.9683 34.1236V58.4308C24.9683 59.7901 26.0705 60.8924 27.4298 60.8924H48.4042V66.1241H42.1994C40.8399 66.1241 39.7379 67.2251 39.7379 68.5856V71.0472H60.967V68.5856C60.967 67.225 59.8648 66.1241 58.5055 66.1241H52.3013V60.8924H73.2756C74.635 60.8924 75.7372 59.7901 75.7372 58.4308V34.1237C75.7372 32.7642 74.635 31.6621 73.2756 31.6621Z" fill="white"/>
</svg>
