<svg width="40" height="40" viewBox="0 0 40 40" fill="none" xmlns="http://www.w3.org/2000/svg">
<path d="M23.6601 10C23.406 10.4578 23.1779 10.9313 22.9705 11.4154C21.0001 11.1155 18.9934 11.1155 17.0179 11.4154C16.8157 10.9313 16.5823 10.4578 16.3283 10C14.4772 10.321 12.6727 10.884 10.9616 11.6785C7.57053 16.7772 6.65276 21.7443 7.10906 26.643C9.09496 28.1321 11.3194 29.2686 13.689 29.9947C14.2231 29.2686 14.695 28.4951 15.0994 27.6901C14.332 27.4007 13.5905 27.0376 12.8801 26.6167C13.0668 26.4799 13.2483 26.3378 13.4246 26.201C17.5883 28.19 22.4105 28.19 26.5793 26.201C26.7556 26.3483 26.9371 26.4904 27.1238 26.6167C26.4134 27.0429 25.6719 27.4007 24.8993 27.6954C25.3038 28.5004 25.7756 29.2739 26.3097 30C28.6793 29.2739 30.9037 28.1426 32.8898 26.6535C33.4289 20.9708 31.9667 16.0458 29.0266 11.6838C27.3208 10.8892 25.5164 10.3262 23.6653 10.0105L23.6601 10ZM15.6801 23.628C14.3994 23.628 13.3364 22.4494 13.3364 20.9919C13.3364 19.5344 14.3579 18.3504 15.675 18.3504C16.992 18.3504 18.0394 19.5396 18.0186 20.9919C17.9979 22.4441 16.9868 23.628 15.6801 23.628ZM24.3186 23.628C23.0327 23.628 21.9801 22.4494 21.9801 20.9919C21.9801 19.5344 23.0016 18.3504 24.3186 18.3504C25.6357 18.3504 26.6779 19.5396 26.6571 20.9919C26.6364 22.4441 25.6253 23.628 24.3186 23.628Z" fill="white"/>
</svg>
