<svg id="engine-icon" width="103" height="104" viewBox="0 0 103 104" fill="none" xmlns="http://www.w3.org/2000/svg">
<path d="M8.78679 73.2132C-2.92894 61.4975 -2.92892 42.5026 8.78681 30.7868L29.9993 9.57438C41.715 -2.14135 60.7099 -2.14132 72.4256 9.5744L93.6381 30.7869C105.354 42.5026 105.354 61.4975 93.6381 73.2132L72.4256 94.4257C60.7099 106.141 41.715 106.141 29.9992 94.4257L8.78679 73.2132Z" fill="#E98738"/>
<path d="M73.7771 56.991C70.9478 52.2652 72.6488 46.2099 77.5737 43.4579L72.2771 34.6059C70.7633 35.4628 69.0033 35.9531 67.1249 35.9531C61.4642 35.9531 56.8768 31.497 56.8768 26H46.2822C46.2963 27.6964 45.8575 29.4175 44.916 30.9885C42.0884 35.7144 35.802 37.3211 30.8695 34.582L25.5737 43.4333C27.0985 44.2704 28.4186 45.4936 29.3569 47.063C32.1798 51.7807 30.4888 57.8256 25.5818 60.582L30.8795 69.432C32.3873 68.5848 34.139 68.1008 36.007 68.1008C41.65 68.1008 46.2271 72.5281 46.255 78H56.8489C56.8436 76.3194 57.2849 74.6198 58.2155 73.063C61.0385 68.3469 67.3092 66.7344 72.2371 69.4579L77.5356 60.6058C76.0208 59.7695 74.7079 58.5494 73.7772 56.9874V56.991H73.7771ZM51.5733 62.5293C45.5459 62.5293 40.6597 57.816 40.6597 52.0018C40.6597 46.1871 45.5459 41.473 51.5733 41.473C57.6007 41.473 62.4863 46.1871 62.4863 52.0018C62.4863 57.816 57.6007 62.5293 51.5733 62.5293Z" fill="white"/>
</svg>
