<!-- Generated by IcoMoon.io -->
<svg version="1.1" xmlns="http://www.w3.org/2000/svg" width="24" height="24" viewBox="0 0 24 24">
<title>facebook</title>
<path fill="white" d="M8.854 11.377v-1.614c0-0.085 0.031-0.159 0.092-0.226 0.062-0.066 0.135-0.1 0.219-0.1h0.994v-0.81c0-1.898 0.969-2.85 2.91-2.855 0.651 0 1.266 0.084 1.844 0.248 0.175 0.052 0.252 0.166 0.23 0.341l-0.215 1.582c-0.021 0.085-0.064 0.153-0.127 0.207-0.085 0.054-0.168 0.069-0.246 0.048-0.187-0.043-0.379-0.074-0.576-0.096-0.2-0.022-0.376-0.032-0.53-0.032-0.281 0-0.455 0.043-0.521 0.131-0.067 0.088-0.1 0.266-0.1 0.537v0.699h1.772c0.074 0 0.152 0.037 0.23 0.111 0.053 0.053 0.080 0.129 0.080 0.23l-0.135 1.629c0 0.085-0.029 0.152-0.088 0.203-0.059 0.050-0.131 0.076-0.215 0.076h-1.646v6.232c0 0.084-0.030 0.158-0.092 0.219s-0.134 0.090-0.218 0.090h-2.051c-0.086 0-0.158-0.029-0.22-0.090-0.061-0.061-0.091-0.135-0.091-0.219v-6.232h-0.99c-0.084 0-0.157-0.030-0.219-0.092-0.060-0.059-0.091-0.133-0.091-0.217z"></path>
</svg>
