<svg width="40" height="40" viewBox="0 -1 40 40" fill="none" xmlns="http://www.w3.org/2000/svg">
<path fill-rule="evenodd" clip-rule="evenodd" d="M26.0308 38.3391C24.1315 38.9568 22.1045 39.2908 20 39.2908C17.8941 39.2908 15.8658 38.9564 13.9654 38.3378C14.8433 38.4431 15.1677 37.8715 15.1677 37.378C15.1677 37.1632 15.164 36.7842 15.1591 36.2773C15.1534 35.6908 15.1461 34.9329 15.1409 34.0595C9.7162 35.2388 8.57179 31.4435 8.57179 31.4435C7.68576 29.1898 6.40729 28.5897 6.40729 28.5897C4.63645 27.3785 6.54135 27.4031 6.54135 27.4031C8.49745 27.541 9.52729 29.4142 9.52729 29.4142C11.2677 32.3962 14.0915 31.5352 15.203 31.035C15.3797 29.7741 15.8843 28.914 16.4413 28.4263C12.111 27.9337 7.55901 26.2603 7.55901 18.783C7.55901 16.6523 8.31829 14.9109 9.56629 13.5461C9.3652 13.0523 8.6961 11.0691 9.75642 8.38235C9.75642 8.38235 11.3944 7.85787 15.1189 10.3825C16.6753 9.94942 18.3425 9.73379 20.0012 9.72499C21.6575 9.73349 23.326 9.94942 24.8835 10.3825C28.6056 7.85787 30.2399 8.38235 30.2399 8.38235C31.3039 11.0691 30.6348 13.0523 30.4337 13.5461C31.6842 14.9109 32.4386 16.6523 32.4386 18.783C32.4386 26.2785 27.8792 27.9288 23.5356 28.4117C24.2352 29.0142 24.8592 30.2044 24.8592 32.0254C24.8592 33.7698 24.8483 35.2883 24.841 36.2946C24.8375 36.7933 24.8348 37.1661 24.8348 37.3783C24.8348 37.8741 25.1513 38.4468 26.0308 38.3391Z" fill="white"/>
</svg>
