<svg width="24" height="24" viewBox="0 0 24 24" fill="none" xmlns="http://www.w3.org/2000/svg">
<path  d="M18 12C18 15.3137 15.3137 18 12 18C8.68629 18 6 15.3137 6 12C6 8.68629 8.68629 6 12 6C15.3137 6 18 8.68629 18 12ZM12.2075 16.9958C12.1387 16.9986 12.0695 17 12 17C11.9305 17 11.8613 16.9986 11.7925 16.9958C11.363 16.1949 11.0431 15.3566 10.8328 14.5H13.1672C12.9569 15.3566 12.637 16.1949 12.2075 16.9958ZM13.4229 16.7946C14.6603 16.428 15.6975 15.5953 16.3311 14.5H14.1942C14.0198 15.2816 13.7627 16.0505 13.4229 16.7946ZM16.7711 13.5C16.9198 13.0265 17 12.5226 17 12C17 11.4774 16.9198 10.9735 16.7711 10.5H14.3714C14.5028 11.496 14.5028 12.504 14.3714 13.5H16.7711ZM16.3311 9.5C15.6975 8.40469 14.6603 7.57203 13.4229 7.20537C13.7627 7.94946 14.0198 8.71836 14.1942 9.5H16.3311ZM12.2075 7.00423C12.637 7.80511 12.9569 8.6434 13.1672 9.5H10.8328C11.0431 8.6434 11.363 7.80511 11.7925 7.00423C11.8613 7.00142 11.9305 7 12 7C12.0695 7 12.1387 7.00142 12.2075 7.00423ZM10.5771 7.20537C9.33969 7.57203 8.30252 8.40469 7.66891 9.5H9.80579C9.98018 8.71836 10.2373 7.94946 10.5771 7.20537ZM7.2289 10.5C7.08018 10.9735 7 11.4774 7 12C7 12.5226 7.08018 13.0265 7.2289 13.5H9.6286C9.49722 12.504 9.49722 11.496 9.62861 10.5H7.2289ZM7.66891 14.5C8.30251 15.5953 9.33968 16.428 10.5771 16.7946C10.2373 16.0505 9.98016 15.2816 9.80578 14.5H7.66891ZM13.3619 10.5C13.506 11.4952 13.506 12.5048 13.3619 13.5H10.6381C10.494 12.5048 10.494 11.4952 10.6381 10.5H13.3619Z" fill="#212121"/>
</svg>
