<svg width="24" height="24" viewBox="0 0 24 24" fill="none" xmlns="http://www.w3.org/2000/svg">
<path d="M11.985 21.97C17.4996 21.97 21.97 17.4996 21.97 11.985C21.97 6.47044 17.4996 2 11.985 2C6.47044 2 2 6.47044 2 11.985C2 17.4996 6.47044 21.97 11.985 21.97Z" fill="#FFD65F"/>
<path d="M16.5871 8.64746L15.8192 7.93063L14.8444 8.84572L15.6123 9.56257L16.5871 8.64746ZM12.5296 6.65967H11.4403V8.15941H12.5296V6.65967ZM16.3421 12.7349H17.976V11.7181H16.3421V12.7349ZM10.3511 14.865V17.3103H13.6189V14.865C14.5938 14.3363 15.2528 13.3551 15.2528 12.2265C15.2528 10.5437 13.7877 9.17615 11.985 9.17615C10.1822 9.17615 8.71716 10.5437 8.71716 12.2265C8.71716 13.3551 9.37617 14.3363 10.3511 14.865ZM7.62789 12.7349V11.7181H5.99399V12.7349H7.62789ZM9.13108 8.84066L8.15619 7.92555L7.38825 8.64237L8.3686 9.55239L9.13108 8.84066Z" fill="white"/>
</svg>
