<svg width="40" height="40" viewBox="0 0 40 40" fill="none" xmlns="http://www.w3.org/2000/svg">
<path d="M15.9386 20.3657C15.9386 18.1222 17.7569 16.3029 20.0005 16.3029C22.2441 16.3029 24.0633 18.1222 24.0633 20.3657C24.0633 22.6093 22.2441 24.4285 20.0005 24.4285C17.7569 24.4285 15.9386 22.6093 15.9386 20.3657ZM13.7424 20.3657C13.7424 23.8221 16.5441 26.6239 20.0005 26.6239C23.4569 26.6239 26.2586 23.8221 26.2586 20.3657C26.2586 16.9093 23.4569 14.1076 20.0005 14.1076C16.5441 14.1076 13.7424 16.9093 13.7424 20.3657ZM25.0439 13.8595C25.0438 14.1487 25.1294 14.4315 25.29 14.6721C25.4506 14.9126 25.679 15.1002 25.9462 15.211C26.2133 15.3218 26.5074 15.3509 26.7911 15.2945C27.0748 15.2382 27.3355 15.099 27.5401 14.8946C27.7447 14.6901 27.8841 14.4296 27.9407 14.1459C27.9972 13.8623 27.9684 13.5682 27.8578 13.3009C27.7472 13.0336 27.5598 12.8051 27.3194 12.6443C27.0789 12.4835 26.7962 12.3977 26.507 12.3975H26.5064C26.1186 12.3977 25.7468 12.5518 25.4726 12.8259C25.1984 13.1 25.0442 13.4717 25.0439 13.8595V13.8595ZM15.0767 30.2861C13.8885 30.2319 13.2427 30.034 12.8135 29.8668C12.2445 29.6453 11.8385 29.3815 11.4116 28.9552C10.9848 28.5289 10.7205 28.1233 10.5 27.5543C10.3327 27.1253 10.1348 26.4793 10.0807 25.291C10.0217 24.0064 10.0099 23.6205 10.0099 20.3658C10.0099 17.1112 10.0226 16.7263 10.0807 15.4406C10.1349 14.2524 10.3342 13.6076 10.5 13.1773C10.7215 12.6083 10.9853 12.2023 11.4116 11.7755C11.8379 11.3486 12.2435 11.0844 12.8135 10.8639C13.2425 10.6966 13.8885 10.4986 15.0767 10.4446C16.3614 10.3855 16.7473 10.3737 20.0005 10.3737C23.2537 10.3737 23.64 10.3865 24.9257 10.4446C26.1139 10.4987 26.7587 10.6981 27.189 10.8639C27.758 11.0844 28.164 11.3492 28.5908 11.7755C29.0177 12.2018 29.2809 12.6083 29.5024 13.1773C29.6698 13.6063 29.8677 14.2524 29.9217 15.4406C29.9808 16.7263 29.9926 17.1112 29.9926 20.3658C29.9926 23.6205 29.9808 24.0053 29.9217 25.291C29.8676 26.4793 29.6687 27.1251 29.5024 27.5543C29.2809 28.1233 29.0171 28.5293 28.5908 28.9552C28.1646 29.3811 27.758 29.6453 27.189 29.8668C26.76 30.0341 26.1139 30.232 24.9257 30.2861C23.641 30.3451 23.2551 30.3569 20.0005 30.3569C16.7458 30.3569 16.361 30.3451 15.0767 30.2861V30.2861ZM14.9758 8.25203C13.6784 8.31112 12.7918 8.51684 12.0176 8.81812C11.2157 9.12924 10.5369 9.54664 9.85864 10.2239C9.18033 10.9011 8.764 11.581 8.45288 12.3828C8.15161 13.1575 7.94588 14.0436 7.8868 15.3411C7.82674 16.6405 7.81299 17.056 7.81299 20.3657C7.81299 23.6755 7.82674 24.0909 7.8868 25.3904C7.94588 26.6879 8.15161 27.5739 8.45288 28.3486C8.764 29.15 9.18043 29.8306 9.85864 30.5076C10.5368 31.1845 11.2157 31.6013 12.0176 31.9133C12.7933 32.2146 13.6784 32.4203 14.9758 32.4794C16.276 32.5385 16.6908 32.5532 20.0005 32.5532C23.3102 32.5532 23.7257 32.5395 25.0251 32.4794C26.3227 32.4203 27.2087 32.2146 27.9834 31.9133C28.7847 31.6013 29.464 31.1848 30.1423 30.5076C30.8206 29.8303 31.2361 29.15 31.5481 28.3486C31.8494 27.5739 32.0561 26.6878 32.1142 25.3904C32.1733 24.0899 32.187 23.6755 32.187 20.3657C32.187 17.056 32.1733 16.6405 32.1142 15.3411C32.0551 14.0435 31.8494 13.1571 31.5481 12.3828C31.2361 11.5815 30.8196 10.9022 30.1423 10.2239C29.4651 9.54556 28.7848 9.12924 27.9844 8.81812C27.2087 8.51684 26.3226 8.31014 25.0261 8.25203C23.7266 8.19295 23.3112 8.17822 20.0015 8.17822C16.6917 8.17822 16.276 8.19197 14.9758 8.25203Z" fill="white"/>
</svg>
