<svg xmlns="http://www.w3.org/2000/svg" width="100%" height="100%" viewBox="0 0 33 33" fill-rule="evenodd" stroke-linejoin="round" stroke-miterlimit="2">
<path d="M15.173 17.827l-5.106-2.067c-.176-.067-.314-.175-.415-.324a.88.88 0 0 1-.152-.506c0-.19.051-.355.152-.497a.88.88 0 0 1 .415-.314L22.346 9.56c.175-.068.341-.078.497-.031a.93.93 0 0 1 .628.628c.047.156.037.322-.031.497l-4.559 12.299c-.081.189-.195.328-.344.416s-.305.131-.467.131-.317-.047-.466-.142-.263-.229-.344-.405l-2.087-5.126zm2.857 2.533l3.161-8.551-8.551 3.161 3.851 1.539 1.539 3.851z" fill="#444952" fill-rule="nonzero"/>
<path d="M12.959 8.54l11.535 11.535-.506.506L12.452 9.047z" fill="#e50000"/>
</svg>