<!-- Generated by IcoMoon.io -->
<svg version="1.1" xmlns="http://www.w3.org/2000/svg" width="24" height="24" viewBox="0 0 24 24">
<title>medium</title>
<path fill="white" d="M2.846 6.36c0.030-0.295-0.083-0.586-0.303-0.784l-2.24-2.7v-0.403h6.957l5.378 11.795 4.728-11.795h6.634v0.403l-1.917 1.837c-0.165 0.126-0.247 0.333-0.213 0.538v13.5c-0.034 0.204 0.048 0.41 0.213 0.537l1.87 1.837v0.403h-9.41v-0.403l1.937-1.882c0.19-0.19 0.19-0.246 0.19-0.538v-10.911l-5.39 13.688h-0.727l-6.275-13.688v9.174c-0.052 0.386 0.076 0.774 0.347 1.053l2.52 3.060v0.402h-7.145v-0.403l2.52-3.060c0.27-0.278 0.39-0.67 0.326-1.052v-10.608z"></path>
</svg>
