<svg width="100" height="100" viewBox="0 0 100 100" fill="none" xmlns="http://www.w3.org/2000/svg">
<path d="M8.57876 70.711C-2.8596 59.2726 -2.85958 40.7274 8.57878 29.289L29.289 8.57876C40.7274 -2.8596 59.2726 -2.85958 70.711 8.57878L91.4212 29.289C102.86 40.7274 102.86 59.2726 91.4212 70.711L70.711 91.4212C59.2726 102.86 40.7274 102.86 29.289 91.4212L8.57876 70.711Z" fill="#23CCCE"/>
<path d="M62.1878 24.6155H39.2392C36.7488 24.6155 34.7314 26.599 34.7314 29.0458V70.9506C34.7314 73.3973 36.7488 75.3844 39.2392 75.3844H62.1878C64.6761 75.3844 66.6971 73.3973 66.6971 70.9506V29.0458C66.6971 26.5991 64.6761 24.6155 62.1878 24.6155ZM50.7125 72.319C49.0817 72.319 47.7636 71.0213 47.7636 69.4195C47.7636 67.8146 49.0817 66.5168 50.7125 66.5168C52.3415 66.5168 53.6648 67.8146 53.6648 69.4195C53.6649 71.0213 52.3415 72.319 50.7125 72.319ZM56.2039 28.9678H45.2231C43.9517 28.9678 43.9517 27.034 45.2231 27.034H56.2038C57.4695 27.034 57.4695 28.9678 56.2039 28.9678Z" fill="white"/>
</svg>
