<svg id="server-icon" width="103" height="104" viewBox="0 0 103 104" fill="none" xmlns="http://www.w3.org/2000/svg">
<path d="M19.8198 83.8194C9.93602 73.9357 4.99414 68.9938 2.71053 63.4809C-0.3345 56.1298 -0.3345 47.8702 2.71053 40.5191C4.99414 35.0062 9.93602 30.0643 19.8198 20.1806C29.7035 10.2968 34.6454 5.35495 40.1583 3.07134C47.5094 0.026309 55.769 0.0263107 63.1201 3.07134C68.633 5.35495 73.5749 10.2968 83.4586 20.1806C93.3424 30.0643 98.2842 35.0062 100.568 40.5191C103.613 47.8702 103.613 56.1298 100.568 63.4809C98.2842 68.9938 93.3424 73.9357 83.4586 83.8194C73.5749 93.7032 68.633 98.6451 63.1201 100.929C55.769 103.974 47.5094 103.974 40.1583 100.929C34.6454 98.6451 29.7035 93.7032 19.8198 83.8194Z" fill="#DD3637"/>
<path d="M74.8775 52.9184H27.1224C25.9502 52.9184 25 53.8685 25 55.0408V63.9551C25 65.1274 25.9502 66.0775 27.1224 66.0775H74.8775C76.0496 66.0775 76.9999 65.1274 76.9999 63.9551V55.0408C76.9999 53.8685 76.0495 52.9184 74.8775 52.9184ZM61.1563 60.1832H53.9888C53.5686 60.1832 53.2285 59.8871 53.2285 59.5222C53.2285 59.1572 53.5686 58.8612 53.9888 58.8612H61.1563C61.5764 58.8612 61.9166 59.1572 61.9166 59.5222C61.9166 59.8872 61.5764 60.1832 61.1563 60.1832ZM65.5387 61.2506C64.6009 61.2506 63.8407 60.527 63.8407 59.6343C63.8407 58.7418 64.6008 58.0184 65.5387 58.0184C66.4763 58.0184 67.2367 58.7418 67.2367 59.6343C67.2366 60.527 66.4763 61.2506 65.5387 61.2506ZM70.3981 61.2506C69.4604 61.2506 68.7001 60.527 68.7001 59.6343C68.7001 58.7418 69.4603 58.0184 70.3981 58.0184C71.3357 58.0184 72.0961 58.7418 72.0961 59.6343C72.0961 60.527 71.3358 61.2506 70.3981 61.2506Z" fill="white"/>
<path d="M74.8775 37H27.1224C25.9502 37 25 37.9502 25 39.1224V48.0367C25 49.2089 25.9502 50.1592 27.1224 50.1592H74.8775C76.0496 50.1592 76.9999 49.209 76.9999 48.0367V39.1224C76.9999 37.9503 76.0495 37 74.8775 37ZM61.1563 44.2648H53.9888C53.5686 44.2648 53.2285 43.9689 53.2285 43.6038C53.2285 43.2388 53.5686 42.9428 53.9888 42.9428H61.1563C61.5764 42.9428 61.9166 43.2389 61.9166 43.6038C61.9166 43.9689 61.5764 44.2648 61.1563 44.2648ZM65.5387 45.3322C64.6009 45.3322 63.8407 44.6087 63.8407 43.7161C63.8407 42.8237 64.6008 42.1001 65.5387 42.1001C66.4763 42.1001 67.2367 42.8237 67.2367 43.7161C67.2366 44.6087 66.4763 45.3322 65.5387 45.3322ZM70.3981 45.3322C69.4604 45.3322 68.7001 44.6087 68.7001 43.7161C68.7001 42.8237 69.4603 42.1001 70.3981 42.1001C71.3357 42.1001 72.0961 42.8237 72.0961 43.7161C72.0961 44.6087 71.3358 45.3322 70.3981 45.3322Z" fill="white"/>
</svg>
