<svg width="24" height="24" viewBox="0 0 24 24" fill="none" xmlns="http://www.w3.org/2000/svg">
<path fill-rule="evenodd" clip-rule="evenodd" d="M14.5302 12.3793C15.5999 12.3793 16.5023 13.0907 16.7927 14.0661H18.3254C18.6981 14.0661 19 14.368 19 14.7406C19 15.1132 18.698 15.4151 18.3254 15.4152H16.7927C16.5023 16.3905 15.5999 17.1019 14.5302 17.1019C13.4606 17.1019 12.5589 16.3904 12.2685 15.4152H5.67455C5.30195 15.4152 5.00005 15.1132 5 14.7406C5 14.368 5.30192 14.0661 5.67455 14.0661H12.2685C12.5589 13.0908 13.4606 12.3793 14.5302 12.3793ZM14.5302 13.7284C13.9712 13.7284 13.5179 14.1817 13.5179 14.7406C13.518 15.2996 13.9712 15.7528 14.5302 15.7528C15.0891 15.7528 15.5424 15.2996 15.5424 14.7406C15.5424 14.1817 15.0891 13.7284 14.5302 13.7284Z" fill="#333359"/>
<path fill-rule="evenodd" clip-rule="evenodd" d="M9.89152 6.89804C10.9612 6.89804 11.8636 7.60949 12.154 8.58483H18.3254C18.6981 8.58483 19 8.88675 19 9.25938C19 9.63201 18.6981 9.93392 18.3254 9.93393H12.154C11.8637 10.9093 10.9612 11.6207 9.89152 11.6207C8.82187 11.6207 7.92026 10.9092 7.62984 9.93393H5.67455C5.30192 9.93392 5 9.632 5 9.25938C5.00001 8.88675 5.30192 8.58483 5.67455 8.58483H7.62984C7.9203 7.6096 8.82192 6.89804 9.89152 6.89804ZM9.89152 8.24714C9.33259 8.24714 8.87932 8.70046 8.87928 9.25938C8.87928 9.81833 9.33257 10.2716 9.89152 10.2716C10.4505 10.2716 10.9038 9.81833 10.9038 9.25938C10.9037 8.70046 10.4504 8.24714 9.89152 8.24714Z" fill="#333359"/>
</svg>
