<!-- Generated by IcoMoon.io -->
<svg version="1.1" xmlns="http://www.w3.org/2000/svg" width="24" height="24" viewBox="0 0 24 24">
<title>twiter</title>
<path fill="white" d="M18.821 7.824c-0.497 0.219-1.029 0.368-1.588 0.435 0.57-0.344 1.008-0.885 1.216-1.531-0.535 0.312-1.127 0.539-1.757 0.666-0.504-0.539-1.221-0.876-2.018-0.876-1.527 0-2.765 1.238-2.765 2.764 0 0.219 0.025 0.43 0.071 0.632-2.299-0.108-4.337-1.212-5.7-2.881-0.24 0.406-0.374 0.877-0.374 1.391 0 0.961 0.489 1.806 1.23 2.302-0.454-0.015-0.88-0.14-1.252-0.346v0.034c0 1.341 0.951 2.459 2.218 2.713-0.232 0.062-0.477 0.096-0.728 0.096-0.177 0-0.346-0.017-0.515-0.048 0.355 1.098 1.374 1.898 2.588 1.921-0.944 0.742-2.141 1.183-3.43 1.183-0.219 0-0.438-0.013-0.658-0.038 1.231 0.784 2.68 1.242 4.248 1.242 5.089 0 7.868-4.213 7.868-7.861 0-0.118 0-0.236-0.008-0.354 0.54-0.387 1.012-0.877 1.383-1.432l-0.027-0.011z"></path>
</svg>
