<svg xmlns="http://www.w3.org/2000/svg">
  <g id="wind" fill="currentColor">
    <path id="Vector" d="M17.3549 13.1649C15.7791 13.1649 14.4977 11.8832 14.4977 10.3078C14.4977 9.91331 14.8172 9.59349 15.212 9.59349C15.6069 9.59349 15.9263 9.91331 15.9263 10.3078C15.9263 11.0957 16.5673 11.7363 17.3549 11.7363C18.1424 11.7363 18.7835 11.0957 18.7835 10.3078C18.7835 9.51987 18.1424 8.8792 17.3549 8.8792H0.98284C0.588019 8.8792 0.268555 8.55938 0.268555 8.16492C0.268555 7.77045 0.588019 7.45063 0.98284 7.45063H17.3549C18.9306 7.45063 20.212 8.73237 20.212 10.3078C20.212 11.8832 18.9306 13.1649 17.3549 13.1649Z"/>
    <path id="Vector_2" d="M12.8906 0.798828C11.3149 0.798828 10.0335 2.08057 10.0335 3.65597C10.0335 4.05043 10.3529 4.37026 10.7478 4.37026C11.1426 4.37026 11.4621 4.05043 11.4621 3.65597C11.4621 2.86807 12.1031 2.2274 12.8906 2.2274C13.6782 2.2274 14.3192 2.86807 14.3192 3.65597C14.3192 4.44387 13.6782 5.08454 12.8906 5.08454H3.60491C3.21009 5.08454 2.89062 5.40436 2.89062 5.79883C2.89062 6.19329 3.21009 6.51311 3.60491 6.51311H12.8906C14.4664 6.51311 15.7478 5.23137 15.7478 3.65597C15.7478 2.08057 14.4664 0.798828 12.8906 0.798828Z"/>
    <path id="Vector_3" d="M10.2119 9.86133H0.9262C0.531378 9.86133 0.211914 10.1811 0.211914 10.5756C0.211914 10.9701 0.531378 11.2899 0.9262 11.2899H10.2119C10.9995 11.2899 11.6405 11.9306 11.6405 12.7185C11.6405 13.5064 10.9995 14.147 10.2119 14.147C9.42437 14.147 8.78334 13.5064 8.78334 12.7185C8.78334 12.324 8.46388 12.0042 8.06906 12.0042C7.67423 12.0042 7.35477 12.324 7.35477 12.7185C7.35477 14.2939 8.63615 15.5756 10.2119 15.5756C11.7877 15.5756 13.0691 14.2939 13.0691 12.7185C13.0691 11.1431 11.7877 9.86133 10.2119 9.86133Z"/>
  </g>
  <g id="waves" fill="currentColor">
    <path d="M20.7119 10.1201C19.4367 10.1201 18.7872 9.66877 18.2481 9.30615C17.792 8.99944 17.4626 8.77783 16.7206 8.77783C15.9787 8.77783 15.6493 8.99944 15.1933 9.30615C14.6541 9.66877 13.9831 10.1201 12.7294 10.1201C11.4757 10.1201 10.8048 9.66877 10.2657 9.30615C9.8097 8.99944 9.48017 8.77783 8.73836 8.77783C7.99654 8.77783 7.66715 8.99944 7.21118 9.30615C6.67211 9.66877 6.00104 10.1201 4.74742 10.1201C3.49379 10.1201 2.8005 9.66877 2.26144 9.30615C1.80547 8.99944 1.45017 8.77783 0.711914 8.77783V7.09998C1.98708 7.09998 2.65883 7.55132 3.19789 7.91394C3.65393 8.22065 3.99446 8.44226 4.73628 8.44226C5.47816 8.44226 5.81312 8.22065 6.2691 7.91394C6.80816 7.55132 7.48198 7.09998 8.73561 7.09998C9.98923 7.09998 10.6616 7.55132 11.2007 7.91394C11.6567 8.22065 11.9869 8.44226 12.7288 8.44226C13.4707 8.44226 13.8004 8.22065 14.2564 7.91394C14.7955 7.55132 15.4668 7.09998 16.7205 7.09998C17.9742 7.09998 18.6453 7.55132 19.1845 7.91394C19.6404 8.22065 19.9737 8.44226 20.7119 8.44226V10.1201Z"/>
    <path d="M20.7119 6.69726C19.4367 6.69726 18.7872 6.24592 18.2481 5.8833C17.792 5.57659 17.4626 5.35498 16.7206 5.35498C15.9787 5.35498 15.6493 5.57659 15.1933 5.8833C14.6541 6.24592 13.9831 6.69726 12.7294 6.69726C11.4757 6.69726 10.8048 6.24592 10.2657 5.8833C9.8097 5.57659 9.48017 5.35498 8.73836 5.35498C7.99654 5.35498 7.66715 5.57659 7.21118 5.8833C6.67211 6.24592 6.00104 6.69726 4.74742 6.69726C3.49379 6.69726 2.8005 6.24592 2.26144 5.8833C1.80547 5.57659 1.45017 5.35498 0.711914 5.35498V3.67712C1.98708 3.67712 2.65883 4.12847 3.19789 4.49108C3.65393 4.7978 3.99446 5.01941 4.73628 5.01941C5.47816 5.01941 5.81312 4.7978 6.2691 4.49108C6.80816 4.12847 7.48198 3.67712 8.73561 3.67712C9.98923 3.67712 10.6616 4.12847 11.2007 4.49108C11.6567 4.7978 11.9869 5.01941 12.7288 5.01941C13.4707 5.01941 13.8004 4.7978 14.2564 4.49108C14.7955 4.12847 15.4668 3.67712 16.7205 3.67712C17.9742 3.67712 18.6453 4.12847 19.1845 4.49108C19.6404 4.7978 19.9737 5.01941 20.7119 5.01941V6.69726Z"/>
    <path d="M20.7119 3.27447C19.4367 3.27447 18.7872 2.82313 18.2481 2.46051C17.792 2.1538 17.4626 1.93219 16.7206 1.93219C15.9787 1.93219 15.6493 2.1538 15.1933 2.46051C14.6541 2.82313 13.9831 3.27447 12.7294 3.27447C11.4757 3.27447 10.8048 2.82313 10.2657 2.46051C9.8097 2.1538 9.48017 1.93219 8.73836 1.93219C7.99654 1.93219 7.66715 2.1538 7.21118 2.46051C6.67211 2.82313 6.00104 3.27447 4.74742 3.27447C3.49379 3.27447 2.8005 2.82313 2.26144 2.46051C1.80547 2.1538 1.45017 1.93219 0.711914 1.93219V0.254333C1.98708 0.254333 2.65883 0.705676 3.19789 1.06829C3.65393 1.375 3.99446 1.59662 4.73628 1.59662C5.47816 1.59662 5.81312 1.375 6.2691 1.06829C6.80816 0.705676 7.48198 0.254333 8.73561 0.254333C9.98923 0.254333 10.6616 0.705676 11.2007 1.06829C11.6567 1.375 11.9869 1.59662 12.7288 1.59662C13.4707 1.59662 13.8004 1.375 14.2564 1.06829C14.7955 0.705676 15.4668 0.254333 16.7205 0.254333C17.9742 0.254333 18.6453 0.705676 19.1845 1.06829C19.6404 1.375 19.9737 1.59662 20.7119 1.59662V3.27447Z"/>
  </g>
  <g id="clouds" fill="currentColor">
    <path fill-rule="evenodd" clip-rule="evenodd" d="M3.10547 6.83546C1.7859 6.83546 0.711914 7.91411 0.711914 9.24035C0.711914 10.5658 1.7859 11.6448 3.10547 11.6448H13.5123C15.1691 11.6448 16.5164 10.2905 16.5164 8.62593C16.5164 6.96132 15.1691 5.60702 13.5123 5.60702C13.204 5.60702 12.8975 5.65488 12.6021 5.74855L12.4096 5.81004L12.3416 5.61857C11.7057 3.82192 10.0057 2.61493 8.11203 2.61493C5.79688 2.61493 3.87539 4.35794 3.64226 6.66916L3.62069 6.88333L3.4083 6.85692C3.29048 6.84206 3.19425 6.83546 3.10547 6.83546Z"/>
    <path fill-rule="evenodd" clip-rule="evenodd" d="M20.7119 6.74756C20.7119 5.54264 19.7399 4.56302 18.5452 4.56302C18.4648 4.56302 18.3776 4.56921 18.2715 4.58242L18.079 4.60635L18.0595 4.41199C17.8483 2.31246 16.109 0.729553 14.0132 0.729553C12.7601 0.729553 11.6007 1.31561 10.8428 2.26857C11.8006 2.83159 12.5605 3.72352 12.9491 4.82128L13.0218 5.02606L13.2277 4.9603C13.5436 4.86011 13.8715 4.80892 14.2011 4.80892C15.9732 4.80892 17.4142 6.2574 17.4142 8.03776C17.4142 8.34762 17.3706 8.64742 17.2891 8.93128H18.5452C19.7399 8.93128 20.7119 7.95166 20.7119 6.74756Z"/>
  </g>
  <g id="thermo" fill="currentColor">
    <path d="M7.58646 10.2851V3.43832C7.58646 1.85083 6.29953 0.563904 4.71204 0.563904C3.12454 0.563904 1.83762 1.85083 1.83762 3.43832V10.285C0.955515 11.0746 0.400391 12.2219 0.400391 13.4988C0.400391 15.8801 2.3308 17.8105 4.71204 17.8105C7.09328 17.8105 9.02368 15.8801 9.02368 13.4988C9.02368 12.2219 8.46856 11.0745 7.58646 10.2851ZM4.71204 16.3733C3.12454 16.3733 1.83762 15.0863 1.83762 13.4988C1.83762 12.669 2.18932 11.8991 2.79612 11.356L3.27484 10.9275V3.43832C3.27484 2.64458 3.91832 2.0011 4.71207 2.0011C5.50582 2.0011 6.1493 2.64454 6.1493 3.43832V10.9275L6.62802 11.356C7.23482 11.8991 7.58652 12.6689 7.58652 13.4988C7.58645 15.0863 6.29953 16.3733 4.71204 16.3733Z"/>
    <path d="M5.43088 6.31281H3.99365V14.9361H5.43088V6.31281Z"/>
    <path d="M4.71198 15.6547C5.9026 15.6547 6.8678 14.6895 6.8678 13.4988C6.8678 12.3082 5.9026 11.343 4.71198 11.343C3.52135 11.343 2.55615 12.3082 2.55615 13.4988C2.55615 14.6895 3.52135 15.6547 4.71198 15.6547Z"/>
  </g>
  <g id="precipitation" fill="currentColor">
    <path d="M10.4167 19.0938L9.23958 17.9167L10.4167 16.7396L11.5938 17.9167L10.4167 19.0938ZM7.54167 17.8438L6.73958 17.0417L9.125 14.6562L9.92708 15.4583L7.54167 17.8438ZM12.9167 16.5938L11.7396 15.4167L12.9167 14.2396L14.0938 15.4167L12.9167 16.5938ZM5.41667 16.5938L4.23958 15.4167L5.41667 14.2396L6.59375 15.4167L5.41667 16.5938ZM6.25 13.2812C5 13.2812 3.93229 12.8385 3.04688 11.9531C2.16146 11.0677 1.71875 10 1.71875 8.75C1.71875 7.61111 2.09896 6.61458 2.85938 5.76042C3.61979 4.90625 4.55903 4.40625 5.67708 4.26042C6.12153 3.46875 6.72743 2.84722 7.49479 2.39583C8.26215 1.94444 9.09722 1.71875 10 1.71875C11.2361 1.71875 12.3125 2.11806 13.2292 2.91667C14.1458 3.71528 14.7014 4.71181 14.8958 5.90625C15.8472 5.98958 16.6493 6.38021 17.3021 7.07812C17.9549 7.77604 18.2812 8.61111 18.2812 9.58333C18.2812 10.6042 17.9201 11.4757 17.1979 12.1979C16.4757 12.9201 15.6042 13.2812 14.5833 13.2812H6.25ZM6.25 11.7188H14.5833C15.1806 11.7188 15.6858 11.5122 16.099 11.099C16.5122 10.6858 16.7188 10.1806 16.7188 9.58333C16.7188 8.98611 16.5122 8.4809 16.099 8.06771C15.6858 7.65451 15.1806 7.44792 14.5833 7.44792H13.3854V6.66667C13.3854 5.72917 13.0556 4.93056 12.3958 4.27083C11.7361 3.61111 10.9375 3.28125 10 3.28125C9.31944 3.28125 8.69965 3.46528 8.14062 3.83333C7.5816 4.20139 7.16319 4.69444 6.88542 5.3125L6.69792 5.78125H6.20833C5.39583 5.80903 4.70486 6.10764 4.13542 6.67708C3.56597 7.24653 3.28125 7.9375 3.28125 8.75C3.28125 9.56944 3.57118 10.2691 4.15104 10.849C4.7309 11.4288 5.43056 11.7188 6.25 11.7188Z"/>
  </g>
  <g id="temperature" fill="currentColor">
    <path d="M10.7708 8.97916V7.41666H14.7917V8.97916H10.7708ZM10.7708 5.85416V4.29166H17.1354V5.85416H10.7708ZM6.80169 17.2604C5.69778 17.2604 4.75694 16.8724 3.97917 16.0965C3.20139 15.3206 2.8125 14.3821 2.8125 13.2812C2.8125 12.6324 2.9566 12.0275 3.24479 11.4665C3.53299 10.9055 3.93403 10.434 4.44792 10.0521V5.07291C4.44792 4.42186 4.67535 3.86848 5.13021 3.41274C5.58507 2.95702 6.14062 2.72916 6.79688 2.72916C7.45312 2.72916 8.00868 2.95702 8.46354 3.41274C8.9184 3.86848 9.14583 4.42186 9.14583 5.07291V10.0521C9.66667 10.434 10.0712 10.9055 10.3594 11.4665C10.6476 12.0275 10.7917 12.6324 10.7917 13.2812C10.7917 14.3821 10.4026 15.3206 9.6246 16.0965C8.84655 16.8724 7.90558 17.2604 6.80169 17.2604ZM4.375 13.2812H9.22917C9.22917 12.8924 9.13889 12.5226 8.95833 12.1719C8.77778 11.8212 8.52083 11.5208 8.1875 11.2708L7.58333 10.8125V5.07291C7.58333 4.85763 7.50694 4.6736 7.35417 4.52082C7.20139 4.36805 7.01562 4.29166 6.79688 4.29166C6.57812 4.29166 6.39236 4.36805 6.23958 4.52082C6.08681 4.6736 6.01042 4.85763 6.01042 5.07291V10.8125L5.40625 11.2708C5.07986 11.5208 4.82639 11.8212 4.64583 12.1719C4.46528 12.5226 4.375 12.8924 4.375 13.2812Z"/>
  </g>
  <g id="wind" fill="currentColor">
    <path d="M9.59125 16.5C8.91928 16.5 8.34892 16.2726 7.88017 15.8177C7.41142 15.3628 7.17704 14.7986 7.17704 14.125H8.73954C8.73954 14.368 8.82151 14.5642 8.98544 14.7135C9.14935 14.8628 9.35248 14.9375 9.59481 14.9375C9.83713 14.9375 10.0399 14.8555 10.2031 14.6916C10.3663 14.5277 10.4479 14.3246 10.4479 14.0822C10.4479 13.8399 10.366 13.6371 10.2023 13.4739C10.0386 13.3108 9.83572 13.2292 9.59371 13.2292H1.82288V11.6667H9.59371C10.265 11.6667 10.8356 11.9019 11.3055 12.3722C11.7754 12.8426 12.0104 13.4138 12.0104 14.0858C12.0104 14.7578 11.7752 15.3281 11.3048 15.7969C10.8344 16.2656 10.2632 16.5 9.59125 16.5ZM1.82288 8.33332V6.77082H12.8645C13.2257 6.77082 13.5277 6.6493 13.7708 6.40624C14.0138 6.16318 14.1354 5.8611 14.1354 5.49999C14.1354 5.13888 14.0138 4.8368 13.7708 4.59374C13.5277 4.35068 13.2257 4.22916 12.8645 4.22916C12.5034 4.22916 12.2048 4.34374 11.9687 4.57291C11.7326 4.80207 11.6145 5.09721 11.6145 5.45832H10.052C10.052 4.65971 10.3211 3.99478 10.8593 3.46353C11.3975 2.93228 12.0659 2.66666 12.8645 2.66666C13.6632 2.66666 14.335 2.93987 14.8802 3.4863C15.4253 4.03273 15.6979 4.70396 15.6979 5.49999C15.6979 6.29602 15.4247 6.96725 14.8782 7.51368C14.3318 8.06011 13.6606 8.33332 12.8645 8.33332H1.82288ZM15.3854 14.875V13.3125C15.7534 13.3125 16.0503 13.1924 16.276 12.9521C16.5017 12.7119 16.6145 12.4081 16.6145 12.0407C16.6145 11.6733 16.4945 11.3698 16.2545 11.1302C16.0144 10.8906 15.7108 10.7708 15.3437 10.7708H1.82288V9.20832H15.3437C16.1397 9.20832 16.811 9.48154 17.3574 10.028C17.9038 10.5744 18.177 11.2456 18.177 12.0417C18.177 12.8377 17.9114 13.5089 17.3802 14.0553C16.8489 14.6018 16.184 14.875 15.3854 14.875Z"/>
  </g>
  <g id="pressure" fill="currentColor">
    <path d="M10 18.125C8.87629 18.125 7.82028 17.9114 6.83198 17.4841C5.84366 17.0568 4.98396 16.477 4.25288 15.7445C3.52179 15.0121 2.94271 14.1522 2.51562 13.1649C2.08854 12.1775 1.875 11.1226 1.875 10C1.875 8.87629 2.08863 7.82028 2.5159 6.83198C2.94316 5.84366 3.52302 4.98396 4.25548 4.25288C4.98794 3.52179 5.84783 2.94271 6.83515 2.51562C7.82248 2.08854 8.87743 1.875 10 1.875C11.1237 1.875 12.1797 2.08863 13.168 2.5159C14.1563 2.94316 15.016 3.52302 15.7471 4.25548C16.4782 4.98794 17.0573 5.84783 17.4844 6.83515C17.9115 7.82248 18.125 8.87743 18.125 10C18.125 11.1237 17.9114 12.1797 17.4841 13.168C17.0568 14.1563 16.477 15.016 15.7445 15.7471C15.0121 16.4782 14.1522 17.0573 13.1649 17.4844C12.1775 17.9115 11.1226 18.125 10 18.125ZM10 16.5625C11.8125 16.5625 13.3594 15.9219 14.6406 14.6406C15.9219 13.3594 16.5625 11.8125 16.5625 10C16.5625 8.1875 15.9219 6.64062 14.6406 5.35938C13.3594 4.07812 11.8125 3.4375 10 3.4375C8.1875 3.4375 6.64062 4.07812 5.35938 5.35938C4.07812 6.64062 3.4375 8.1875 3.4375 10C3.4375 11.8125 4.07812 13.3594 5.35938 14.6406C6.64062 15.9219 8.1875 16.5625 10 16.5625Z"/>
    <path d="M5.78948 9.92368C6.01316 9.92368 6.20139 9.84802 6.35417 9.6967C6.50694 9.5454 6.58333 9.3579 6.58333 9.1342C6.58333 8.91052 6.50767 8.72229 6.35635 8.56951C6.20505 8.41674 6.01755 8.34035 5.79385 8.34035C5.57017 8.34035 5.38194 8.41601 5.22917 8.56733C5.07639 8.71863 5 8.90613 5 9.12983C5 9.35351 5.07566 9.54174 5.22698 9.69451C5.37828 9.84729 5.56578 9.92368 5.78948 9.92368ZM8.24781 7.46535C8.47149 7.46535 8.65972 7.38969 8.8125 7.23837C8.96528 7.08706 9.04167 6.89956 9.04167 6.67587C9.04167 6.45219 8.96601 6.26396 8.81469 6.11118C8.66338 5.9584 8.47588 5.88201 8.25219 5.88201C8.02851 5.88201 7.84028 5.95768 7.6875 6.10899C7.53472 6.2603 7.45833 6.4478 7.45833 6.67149C7.45833 6.89518 7.53399 7.0834 7.68531 7.23618C7.83662 7.38896 8.02412 7.46535 8.24781 7.46535ZM13.9978 9.92368C14.2215 9.92368 14.4097 9.84802 14.5625 9.6967C14.7153 9.5454 14.7917 9.3579 14.7917 9.1342C14.7917 8.91052 14.716 8.72229 14.5647 8.56951C14.4134 8.41674 14.2259 8.34035 14.0022 8.34035C13.7785 8.34035 13.5903 8.41601 13.4375 8.56733C13.2847 8.71863 13.2083 8.90613 13.2083 9.12983C13.2083 9.35351 13.284 9.54174 13.4353 9.69451C13.5866 9.84729 13.7741 9.92368 13.9978 9.92368ZM9.89583 12.382C10.337 12.382 10.7146 12.2258 11.0288 11.9133C11.3429 11.6008 11.5 11.221 11.5 10.774C11.5 10.5979 11.4722 10.4252 11.4167 10.2558C11.3611 10.0865 11.2778 9.93414 11.1667 9.79868L12.2917 6.96535C12.3819 6.75702 12.3843 6.55088 12.2987 6.34693C12.2131 6.14299 12.0649 5.99496 11.8542 5.90285C11.6597 5.81257 11.4636 5.81024 11.2658 5.89585C11.0679 5.98146 10.9307 6.12963 10.8542 6.34035L9.70833 9.17368C9.29861 9.22924 8.96007 9.40892 8.69271 9.71274C8.42535 10.0166 8.29167 10.371 8.29167 10.7761C8.29167 11.2217 8.44874 11.6008 8.7629 11.9133C9.07703 12.2258 9.45468 12.382 9.89583 12.382Z"/>
  </g>
  <g id="radar" fill="currentColor">
    <path d="M9.99967 18.2812C8.85406 18.2812 7.77751 18.0639 6.77002 17.6291C5.76252 17.1943 4.88614 16.6042 4.14087 15.8589C3.39561 15.1135 2.8056 14.2371 2.37085 13.2295C1.93612 12.2219 1.71875 11.1453 1.71875 9.99967C1.71875 8.85406 1.93614 7.77751 2.37092 6.77002C2.80571 5.76252 3.39577 4.88614 4.1411 4.14088C4.88645 3.39561 5.76292 2.8056 6.7705 2.37085C7.7781 1.93612 8.85471 1.71875 10.0003 1.71875C11.1459 1.71875 12.2225 1.93614 13.23 2.37092C14.2375 2.80571 15.1139 3.39577 15.8591 4.1411C16.6044 4.88645 17.1944 5.76292 17.6291 6.7705C18.0639 7.7781 18.2812 8.85471 18.2812 10.0003C18.2812 11.1459 18.0639 12.2225 17.6291 13.23C17.1943 14.2375 16.6042 15.1139 15.8589 15.8591C15.1135 16.6044 14.2371 17.1944 13.2295 17.6291C12.2219 18.0639 11.1453 18.2812 9.99967 18.2812ZM10 16.7188C10.7917 16.7188 11.5399 16.592 12.2448 16.3385C12.9497 16.0851 13.5903 15.7292 14.1667 15.2708L12.9062 14.0104C12.502 14.3087 12.0525 14.5395 11.5577 14.7029C11.0628 14.8662 10.5436 14.9479 10 14.9479C8.62558 14.9479 7.45733 14.4668 6.49523 13.5046C5.53313 12.5424 5.05208 11.374 5.05208 9.9994C5.05208 8.6248 5.53319 7.4566 6.4954 6.49479C7.45762 5.53299 8.62602 5.05208 10.0006 5.05208C11.3752 5.05208 12.5434 5.53313 13.5052 6.49523C14.467 7.45733 14.9479 8.62558 14.9479 10C14.9479 10.5417 14.8646 11.0625 14.6979 11.5625C14.5312 12.0625 14.2986 12.5139 14 12.9167L15.2604 14.1667C15.7179 13.5886 16.0754 12.947 16.3327 12.242C16.5901 11.5369 16.7188 10.7896 16.7188 10C16.7188 8.13194 16.066 6.54514 14.7604 5.23958C13.4549 3.93403 11.8681 3.28125 10 3.28125C8.13194 3.28125 6.54514 3.93403 5.23958 5.23958C3.93403 6.54514 3.28125 8.13194 3.28125 10C3.28125 11.8681 3.93403 13.4549 5.23958 14.7604C6.54514 16.066 8.13194 16.7188 10 16.7188ZM10 13.3854C10.3264 13.3854 10.6372 13.342 10.9323 13.2552C11.2274 13.1684 11.5069 13.0451 11.7708 12.8854L10.4271 11.5521C10.3559 11.5799 10.2847 11.5972 10.2135 11.6042C10.1424 11.6111 10.0712 11.6146 10 11.6146C9.55599 11.6146 9.17589 11.4564 8.85971 11.1402C8.54351 10.8239 8.38542 10.4437 8.38542 9.99954C8.38542 9.5554 8.54356 9.17535 8.85983 8.85938C9.17611 8.5434 9.55632 8.38542 10.0005 8.38542C10.4446 8.38542 10.8247 8.54387 11.1406 8.86077C11.4566 9.17767 11.6146 9.55863 11.6146 10.0036C11.6146 10.0845 11.6094 10.1649 11.599 10.2448C11.5885 10.3247 11.5694 10.3993 11.5417 10.4688L12.8646 11.7917C13.0307 11.5295 13.159 11.2491 13.2495 10.9505C13.3401 10.6518 13.3854 10.335 13.3854 10C13.3854 9.0625 13.0556 8.26389 12.3958 7.60417C11.7361 6.94444 10.9375 6.61458 10 6.61458C9.0625 6.61458 8.26389 6.94444 7.60417 7.60417C6.94444 8.26389 6.61458 9.0625 6.61458 10C6.61458 10.9375 6.94444 11.7361 7.60417 12.3958C8.26389 13.0556 9.0625 13.3854 10 13.3854Z"/>
  </g>
</svg>
