<svg width="20" height="20" viewBox="-3 -3 31 31" fill="none" xmlns="http://www.w3.org/2000/svg">
<path d="M14.7676 0C16.2479 2.14395 17.4014 4.496 18.1905 6.97899C19.9959 6.69576 21.7348 6.0866 23.3224 5.18133L23.7884 4.89242C21.5782 2.0953 18.3176 0.326911 14.7676 0Z" fill="#6B7C93"/>
<path d="M16.8245 9.07227C15.7417 9.19627 14.6527 9.25852 13.5629 9.25863C12.473 9.25846 11.384 9.19627 10.3013 9.07227C10.0712 10.0521 9.92471 11.0497 9.86328 12.0543H17.2626C17.2011 11.0497 17.0546 10.0521 16.8245 9.07227Z" fill="#6B7C93"/>
<path d="M13.5655 18.5781C12.6473 18.5789 11.7298 18.6265 10.8164 18.7207C11.4883 20.727 12.4121 22.6399 13.5655 24.4137C14.719 22.6399 15.6427 20.7269 16.3147 18.7207C15.4013 18.6265 14.4837 18.5789 13.5655 18.5781Z" fill="#6B7C93"/>
<path d="M19.1203 13.918C19.0635 15.0175 18.9148 16.1105 18.6758 17.1852C20.6599 17.5148 22.5681 18.2006 24.3082 19.2093L24.8347 19.5373C25.8341 17.8215 26.4259 15.8989 26.5644 13.918H19.1203Z" fill="#6B7C93"/>
<path d="M24.8347 6.43555L24.3082 6.76361C22.5684 7.77399 20.6602 8.46128 18.6758 8.79235C18.9145 9.86531 19.0632 10.9563 19.1203 12.054H26.5644C26.4258 10.0734 25.834 8.15119 24.8347 6.43555Z" fill="#6B7C93"/>
<path d="M9.86328 13.918C9.92526 14.9227 10.0724 15.9203 10.3031 16.9C12.4705 16.6525 14.659 16.6525 16.8264 16.9C17.0559 15.9201 17.2018 14.9225 17.2626 13.918H9.86328Z" fill="#6B7C93"/>
<path d="M2.82056 6.76361L2.29402 6.43555C1.29478 8.15119 0.703037 10.0734 0.564453 12.054H8.0085C8.06562 10.9563 8.2143 9.86525 8.45303 8.79235C6.46857 8.46128 4.56034 7.77399 2.82056 6.76361Z" fill="#6B7C93"/>
<path d="M8.93775 18.9941C7.13244 19.2775 5.39359 19.8863 3.80578 20.7909L3.33984 21.0807C5.54987 23.8779 8.81068 25.6461 12.3606 25.9723C10.8801 23.8287 9.72655 21.477 8.93775 18.9941Z" fill="#6B7C93"/>
<path d="M13.5655 1.56055C12.4122 3.33407 11.4885 5.24667 10.8164 7.25258C11.7297 7.34727 12.6473 7.39483 13.5655 7.39515C14.4837 7.39483 15.4013 7.34721 16.3147 7.25258C15.6425 5.24667 14.7188 3.33407 13.5655 1.56055Z" fill="#6B7C93"/>
<path d="M23.3213 20.7909C21.7335 19.8863 19.9946 19.2775 18.1893 18.9941C17.3997 21.4771 16.2452 23.8288 14.7637 25.9722C18.3137 25.6461 21.5744 23.8779 23.7845 21.0807L23.3213 20.7909Z" fill="#6B7C93"/>
<path d="M3.34375 4.89242L3.8069 5.18133C5.3945 6.0866 7.1334 6.69571 8.93887 6.97899C9.72871 4.49578 10.8832 2.14379 12.3645 0C8.81459 0.326857 5.55399 2.09525 3.34375 4.89242Z" fill="#6B7C93"/>
<path d="M8.0085 13.918H0.564453C0.702873 15.8989 1.29461 17.8215 2.29408 19.5373L2.82062 19.2093C4.56072 18.2006 6.4689 17.5149 8.45303 17.1852C8.21392 16.1104 8.06523 15.0175 8.0085 13.918Z" fill="#6B7C93"/>
</svg>
