<svg width="40" height="40" viewBox="0 0 40 40" fill="none" xmlns="http://www.w3.org/2000/svg">
<path fill-rule="evenodd" clip-rule="evenodd" d="M30.4405 20.1376C30.1893 19.2048 29.4538 18.4693 28.521 18.2181C26.8168 17.7517 20 17.7517 20 17.7517C20 17.7517 13.1831 17.7517 11.4789 18.2002C10.564 18.4513 9.81058 19.2048 9.55944 20.1376C9.11096 21.8418 9.11096 25.3758 9.11096 25.3758C9.11096 25.3758 9.11096 28.9277 9.55944 30.614C9.81058 31.5468 10.5461 32.2823 11.4789 32.5335C13.2011 32.9999 20 32.9999 20 32.9999C20 32.9999 26.8168 32.9999 28.521 32.5514C29.4538 32.3003 30.1893 31.5648 30.4405 30.6319C30.889 28.9277 30.889 25.3937 30.889 25.3937C30.889 25.3937 30.9069 21.8418 30.4405 20.1376ZM25.9936 27.1017V27.4187C25.9936 27.8179 26.0053 28.1232 26.0288 28.3227C26.0523 28.5223 26.0992 28.675 26.1814 28.7571C26.2519 28.8511 26.3693 28.898 26.5336 28.898C26.745 28.898 26.8859 28.8158 26.968 28.6515C27.0502 28.4871 27.0854 28.2171 27.0972 27.8296L28.3065 27.9001C28.3182 27.9588 28.3182 28.0292 28.3182 28.1232C28.3182 28.6984 28.1656 29.1328 27.8486 29.4146C27.5316 29.6964 27.0854 29.8373 26.5102 29.8373C25.8175 29.8373 25.3361 29.6142 25.0543 29.1798C24.7726 28.7454 24.6317 28.0762 24.6317 27.1604V26.0686C24.6317 25.1293 24.7726 24.4484 25.0661 24.014C25.3596 23.5796 25.8527 23.3683 26.5454 23.3683C27.0267 23.3683 27.4024 23.4622 27.6607 23.6383C27.919 23.8144 28.0951 24.0962 28.2008 24.4601C28.3065 24.8358 28.3534 25.3524 28.3534 26.0099V27.0783H25.9936V27.1017ZM26.1697 24.4719C26.0992 24.5658 26.0523 24.7067 26.0288 24.9063C26.0053 25.1059 25.9936 25.4111 25.9936 25.822V26.2682H27.0267V25.822C27.0267 25.4228 27.015 25.1176 26.9915 24.9063C26.968 24.6949 26.9093 24.5541 26.8389 24.4719C26.7684 24.3897 26.651 24.3427 26.5102 24.3427C26.3458 24.331 26.2401 24.3779 26.1697 24.4719ZM19.2074 29.7669V23.5092H17.7986V28.4754C17.7516 28.5928 17.6694 28.6867 17.552 28.7572C17.4346 28.8394 17.3172 28.8746 17.1998 28.8746C17.0589 28.8746 16.9533 28.8159 16.8946 28.6985C16.8359 28.5811 16.8007 28.3815 16.8007 28.0997V23.5092H15.3918V28.1819C15.3918 28.7689 15.4857 29.1916 15.6853 29.4616C15.8849 29.7316 16.1901 29.8725 16.6011 29.8725C17.1998 29.8725 17.6577 29.579 17.9512 29.0037H17.9864L18.1038 29.7669H19.2074ZM15.8145 22.3351H14.4174V29.7551H13.0438V22.3351H11.6466V21.1963H15.8145V22.3351ZM23.4577 23.6501C23.6455 23.8262 23.7864 24.108 23.8686 24.5072C23.9508 24.8946 23.986 25.4464 23.9977 26.1626V27.1488C23.9977 28.0763 23.8803 28.7689 23.6572 29.2033C23.4342 29.6377 23.0937 29.8608 22.6123 29.8608C22.3423 29.8608 22.1075 29.7904 21.8844 29.673C21.6614 29.5438 21.497 29.3795 21.3913 29.1681H21.3561L21.2152 29.7551H20.0529V20.8793H21.4148V24.1784H21.4266C21.544 23.9436 21.7201 23.744 21.9431 23.6031C22.1662 23.4505 22.4128 23.3801 22.671 23.3801C22.9998 23.3801 23.2698 23.474 23.4577 23.6501ZM22.5184 28.1232C22.5536 27.8649 22.5771 27.5127 22.5771 27.0548H22.5889V26.233C22.5889 25.7516 22.5771 25.3759 22.5419 25.1059C22.5067 24.8476 22.4597 24.6598 22.3775 24.5424C22.3071 24.4367 22.1897 24.378 22.0488 24.378C21.9197 24.378 21.7905 24.4367 21.6731 24.5424C21.5557 24.6598 21.4735 24.8007 21.4266 24.965V28.5107C21.4853 28.6163 21.5674 28.6985 21.6614 28.7572C21.7553 28.8159 21.861 28.8394 21.9784 28.8394C22.1192 28.8394 22.2366 28.7807 22.3306 28.675C22.4128 28.5694 22.4832 28.3815 22.5184 28.1232Z" fill="white"/>
<path d="M18.6792 15.3828C18.3974 15.1949 18.1978 14.9014 18.0804 14.4905C17.963 14.0913 17.9043 13.5513 17.9043 12.8938V11.9898C17.9043 11.3206 17.9747 10.7805 18.1039 10.3696C18.2448 9.95869 18.4561 9.66518 18.7379 9.47733C19.0314 9.28948 19.4071 9.19556 19.8767 9.19556C20.3346 9.19556 20.7103 9.28948 20.992 9.47733C21.2738 9.66518 21.4734 9.97043 21.6025 10.3696C21.7317 10.7688 21.8021 11.3088 21.8021 11.9898V12.8938C21.8021 13.563 21.7434 14.0913 21.6143 14.5023C21.4851 14.9014 21.2856 15.2067 21.0038 15.3945C20.722 15.5824 20.3346 15.6763 19.8532 15.6763C19.3601 15.6646 18.9609 15.5706 18.6792 15.3828ZM20.2641 14.3966C20.3463 14.197 20.3815 13.8565 20.3815 13.3986V11.4497C20.3815 11.0036 20.3463 10.6749 20.2641 10.4635C20.1819 10.2522 20.0528 10.1583 19.8532 10.1583C19.6654 10.1583 19.5245 10.2639 19.454 10.4635C19.3719 10.6749 19.3366 11.0036 19.3366 11.4497V13.3986C19.3366 13.8565 19.3719 14.197 19.454 14.3966C19.5245 14.5962 19.6654 14.7018 19.865 14.7018C20.0528 14.7018 20.1819 14.6079 20.2641 14.3966Z" fill="white"/>
<path d="M15.2509 12.7882L13.6542 7.00012H15.0513L15.6148 9.61825C15.7557 10.264 15.8614 10.8158 15.9318 11.2737H15.967C16.014 10.9449 16.1197 10.4049 16.284 9.62999L16.8711 7.00012H18.2682L16.648 12.7882V15.5589H15.2626V12.7882H15.2509Z" fill="white"/>
<path d="M26.3458 9.31287V15.5705H25.2422L25.1248 14.8074H25.0896C24.7961 15.3827 24.3382 15.6762 23.7394 15.6762C23.3285 15.6762 23.0233 15.5353 22.8237 15.2653C22.6241 14.9953 22.5302 14.5726 22.5302 13.9856V9.31287H23.939V13.9034C23.939 14.1852 23.9742 14.3848 24.0329 14.5022C24.0916 14.6196 24.1973 14.6783 24.3382 14.6783C24.4556 14.6783 24.573 14.643 24.6904 14.5609C24.8078 14.4904 24.89 14.3965 24.9369 14.2791V9.31287H26.3458Z" fill="white"/>
</svg>
