<svg id="server" width="325" height="55" viewBox="0 0 325 55" fill="none" xmlns="http://www.w3.org/2000/svg">
<path d="M16 43.904C18.6516 46.5053 25.7101 53.5624 25.7068 53.5697C25.6817 53.6157 32.7196 46.685 35.5223 43.9367L25.7447 34.3457L16 43.904Z" fill="#3A1888"/>
<path d="M25.7451 34.3462L35.5232 43.9372C35.538 43.9202 35.5553 43.9024 35.5713 43.8891L45.3403 34.3066L35.5627 24.7168L25.7451 34.3462Z" fill="#03A1C4"/>
<path d="M45.3401 34.3067L45.3653 34.2808C50.7685 28.9817 50.7727 20.3927 45.3813 15.0859L35.5625 24.7165L45.3401 34.3067Z" fill="#05D0DF"/>
<path d="M15.9264 24.7168L6.18457 34.2727C6.18704 34.2763 6.18828 34.2791 6.19157 34.2811L15.9849 43.8895C15.9898 43.8948 15.9956 43.8992 16.0009 43.9048L25.7456 34.3466L15.9264 24.7168Z" fill="#761FE8"/>
<path d="M25.7451 15.0852L35.5627 24.7162L45.3815 15.0852C45.3733 15.0804 45.3704 15.0756 45.3655 15.0695L35.5713 5.46316C35.5693 5.46033 35.5656 5.45831 35.5627 5.45508L25.7451 15.0852Z" fill="#FFAA01"/>
<path d="M6.14171 15.1191C0.786593 20.4247 0.800181 28.9834 6.18412 34.2725L15.9259 24.7166L6.14171 15.1191Z" fill="#F1175D"/>
<path d="M25.7452 15.0857L15.9606 5.48828L6.19158 15.07C6.17511 15.0857 6.15987 15.1035 6.14258 15.1193L15.9264 24.7167L25.7452 15.0857Z" fill="#FB3A1B"/>
<path d="M35.5626 5.45596C30.1527 0.158857 21.3908 0.162088 15.9843 5.46403L15.96 5.48867L25.7446 15.0861L35.5626 5.45596Z" fill="#FBC935"/>
<path d="M76.0614 36.7087V26.8939C76.0614 24.4776 74.7726 22.2842 72.2322 22.2842C69.7304 22.2842 68.2539 24.4776 68.2539 26.8939V36.7087H63.6309V18.3441H67.9126L68.2539 20.5755C69.2392 18.7161 71.3996 18.0469 73.1788 18.0469C75.4166 18.0469 77.6519 18.9402 78.7134 21.4668C80.3805 18.8647 82.5422 18.1216 84.9665 18.1216C90.2735 18.1216 92.888 21.3178 92.888 26.8204V36.7087H88.2634V26.82C88.2634 24.4045 87.241 22.3581 84.7413 22.3581C82.2383 22.3581 80.684 24.4776 80.684 26.8935V36.7083H76.0614V36.7087Z" fill="currentColor"/>
<path d="M112.406 18.3825H116.841V36.7083H112.482L112.253 34.0323C111.193 36.1877 108.276 37.2269 106.191 37.2648C100.659 37.3036 96.5645 33.9568 96.5645 27.5252C96.5645 21.2067 100.849 17.8995 106.306 17.9358C108.807 17.9358 111.193 19.0881 112.253 20.9099L112.406 18.3825ZM101.188 27.5256C101.188 31.0191 103.651 33.1026 106.722 33.1026C113.997 33.1026 113.997 21.9878 106.722 21.9878C103.651 21.9874 101.188 24.033 101.188 27.5256Z" fill="currentColor"/>
<path d="M120.743 44.3683V18.3827H125.065L125.366 20.9101C126.807 18.865 129.309 17.9736 131.431 17.9736C137.189 17.9736 141.02 22.1746 141.02 27.5646C141.02 32.9175 137.57 37.1548 131.582 37.1548C129.613 37.1548 126.693 36.5595 125.366 34.5527V44.3687H120.743V44.3683ZM136.397 27.5642C136.397 24.702 134.425 22.3584 131.091 22.3584C127.754 22.3584 125.784 24.702 125.784 27.5642C125.784 30.4248 127.945 32.7696 131.091 32.7696C134.237 32.7696 136.397 30.4248 136.397 27.5642Z" fill="currentColor"/>
<path d="M149.283 12.8066V18.3448H155.65V19.8686H149.283V31.0581C149.283 33.5484 149.814 35.2967 152.732 35.2967C153.641 35.2967 154.664 34.9982 155.612 34.5524L156.256 36.0382C155.081 36.5967 153.905 36.9691 152.732 36.9691C148.753 36.9691 147.464 34.6638 147.464 31.0581V19.869H143.483V18.3453H147.464V12.9928L149.283 12.8066Z" fill="currentColor"/>
<path d="M162.396 12.3601C162.396 14.293 159.402 14.293 159.402 12.3601C159.403 10.4268 162.396 10.4268 162.396 12.3601ZM159.934 18.2699V36.7092H161.79V18.2699H159.934Z" fill="currentColor"/>
<path d="M168.952 10.6885V36.7091H167.095V10.6885H168.952Z" fill="currentColor"/>
<path d="M198.4 18.3442L198.475 21.6175C199.65 19.1244 202.304 18.1588 204.692 18.1588C206.095 18.1216 207.456 18.4928 208.709 19.2375L207.874 20.7241C206.89 20.1288 205.789 19.8679 204.692 19.8679C201.203 19.9063 198.513 22.6562 198.513 26.0023V36.7083H196.655V18.3442H198.4Z" fill="currentColor"/>
<path d="M175.268 30.6386C175.268 30.641 175.269 30.6418 175.269 30.645L190.427 26.7093C190.426 26.7045 190.425 26.6984 190.425 26.6924L175.268 30.6386Z" fill="currentColor"/>
<path d="M182.58 35.6026C179.28 35.6026 176.454 33.5756 175.271 30.6972H175.26L175.269 30.6948C175.269 30.6932 175.268 30.6908 175.267 30.6899L190.425 26.7438C190.425 26.7498 190.426 26.7555 190.427 26.7603L192.04 26.3415C191.388 21.6898 187.402 18.1104 182.579 18.1104C177.304 18.1104 173.026 22.3962 173.026 27.6836C173.026 32.9706 177.304 37.2572 182.579 37.2572C186.527 37.2572 189.913 34.859 191.371 31.4379L189.851 30.7897C188.645 33.6188 185.843 35.6026 182.58 35.6026ZM174.677 27.6836C174.677 23.3101 178.215 19.7646 182.579 19.7646C185.991 19.7646 188.898 21.9321 190.006 24.9692L174.776 28.9331C174.712 28.5256 174.677 28.1097 174.677 27.6836Z" fill="currentColor"/>
<path d="M235.409 22.5091C234.049 20.365 231.863 20.0512 229.758 20.0249C227.571 20.0249 224.105 20.8096 224.105 23.7381C224.105 26.0655 226.664 26.6144 229.81 27.1899C233.408 27.8696 237.142 28.4968 237.142 32.445C237.115 36.5765 232.876 37.5704 229.757 37.5704C226.851 37.5704 223.544 36.394 222.106 33.5956L223.385 32.968C224.532 35.1909 227.464 36.289 229.757 36.289C232.049 36.289 235.702 35.6614 235.702 32.4191C235.728 29.6737 232.636 29.0719 229.571 28.4964C226.159 27.8433 222.666 27.1636 222.666 23.7897C222.586 19.9195 226.691 18.7168 229.757 18.7168C232.423 18.7168 234.742 19.1352 236.582 21.829L235.409 22.5091Z" fill="currentColor"/>
<path d="M241.592 27.4246H252.521V28.706H241.592V35.9231H253.375V37.2829H240.179V18.9785H253.054V20.3121H241.592V27.4246H241.592Z" fill="currentColor"/>
<path d="M271.447 37.2833H269.553L263.102 30.3538H258.011V37.2833H256.571V18.9785C259.317 18.9785 262.035 18.9785 264.782 18.9785C268.834 18.9785 270.886 21.829 270.913 24.6787C270.939 27.66 268.941 30.2742 264.863 30.2742L271.447 37.2833ZM258.011 29.0198H264.622C267.874 29.0198 269.314 27.2158 269.34 24.6532C269.367 22.5087 267.874 20.2862 264.783 20.2862H258.011V29.0198H258.011Z" fill="currentColor"/>
<path d="M289.333 18.9785L281.655 37.3346H280.109L272.431 18.9785H273.976L280.881 35.7139L287.787 18.9785H289.333Z" fill="currentColor"/>
<path d="M293.22 27.4246H304.151V28.706H293.22V35.9231H305.003V37.2829H291.808V18.9785H304.684V20.3121H293.22V27.4246H293.22Z" fill="currentColor"/>
<path d="M323.076 37.2833H321.183L314.731 30.3538H309.64V37.2833H308.2V18.9785C310.946 18.9785 313.666 18.9785 316.411 18.9785C320.464 18.9785 322.516 21.829 322.543 24.6787C322.569 27.66 320.571 30.2742 316.492 30.2742L323.076 37.2833ZM309.64 29.0198H316.252C319.503 29.0198 320.944 27.2158 320.97 24.6532C320.996 22.5087 319.504 20.2862 316.412 20.2862H309.64V29.0198H309.64Z" fill="currentColor"/>
</svg>
