<svg id="sdk" width="318" height="42" viewBox="0 0 318 42" fill="none" xmlns="http://www.w3.org/2000/svg">
<path d="M11.9653 33.7428C14.0231 35.7685 19.4996 41.264 19.4971 41.2692C19.4774 41.3048 24.9382 35.9077 27.113 33.7681L19.526 26.3001L11.9653 33.7428Z" fill="#3A1888"/>
<path d="M19.5259 26.3003L27.1128 33.7682C27.1241 33.756 27.1378 33.7412 27.1503 33.7308L34.7301 26.2699L27.1434 18.8017L19.5259 26.3003Z" fill="#03A1C4"/>
<path d="M34.7298 26.27L34.7492 26.25C38.9416 22.1231 38.9447 15.4346 34.7617 11.3024L27.1436 18.8018L34.7298 26.27Z" fill="#05D0DF"/>
<path d="M11.9079 18.8017L4.34912 26.2429C4.35099 26.245 4.35193 26.2481 4.35474 26.2497L11.9532 33.7305C11.9573 33.7345 11.9613 33.7382 11.9657 33.7428L19.5261 26.3003L11.9079 18.8017Z" fill="#761FE8"/>
<path d="M19.5259 11.3027L27.1434 18.802L34.7616 11.3027C34.7553 11.2984 34.7531 11.295 34.7491 11.2901L27.1503 3.81016C27.1487 3.80771 27.1459 3.80617 27.1437 3.80402L19.5259 11.3027Z" fill="#FFAA01"/>
<path d="M4.31652 11.3285C0.161305 15.4604 0.171605 22.1242 4.34898 26.2431L11.9078 18.8019L4.31652 11.3285Z" fill="#F1175D"/>
<path d="M19.5258 11.3027L11.9339 3.82928L4.35448 11.2901C4.34137 11.3027 4.32983 11.3166 4.31641 11.3285L11.9077 18.8021L19.5258 11.3027Z" fill="#FB3A1B"/>
<path d="M27.1435 3.80382C22.9459 -0.320973 16.1477 -0.318514 11.9528 3.80996L11.9341 3.82901L19.526 11.3025L27.1435 3.80382Z" fill="#FBC935"/>
<path d="M58.5666 28.1395V20.4973C58.5666 18.6158 57.5663 16.9081 55.5953 16.9081C53.6539 16.9081 52.5085 18.6158 52.5085 20.4973V28.1395H48.9216V13.8399H52.2437L52.5085 15.5777C53.2731 14.1293 54.9489 13.6086 56.3297 13.6086C58.066 13.6086 59.8004 14.3041 60.6241 16.2715C61.9179 14.2455 63.5955 13.6666 65.4757 13.6666C69.5935 13.6666 71.6219 16.1553 71.6219 20.4402V28.1395H68.0338V20.4402C68.0338 18.559 67.24 16.9655 65.3009 16.9655C63.3586 16.9655 62.1532 18.6158 62.1532 20.4973V28.1395H58.5666Z" fill="currentColor"/>
<path d="M86.7654 13.8697H90.2063V28.1391H86.8239L86.6474 26.056C85.825 27.7342 83.561 28.5435 81.9429 28.5733C77.6514 28.6034 74.4741 25.997 74.4741 20.9889C74.4741 16.069 77.7982 13.4933 82.0326 13.5218C83.9726 13.5218 85.8243 14.419 86.6474 15.8376L86.7654 13.8697ZM78.0622 20.9892C78.0622 23.7099 79.9732 25.3315 82.3552 25.3315C88.0001 25.3315 88.0001 16.677 82.3552 16.677C79.9732 16.677 78.0622 18.2689 78.0622 20.9892Z" fill="currentColor"/>
<path d="M93.2356 34.1046V13.8699H96.589L96.8218 15.8379C97.9402 14.2454 99.8816 13.5513 101.528 13.5513C105.996 13.5513 108.968 16.8222 108.968 21.0192C108.968 25.1874 106.291 28.4872 101.645 28.4872C100.117 28.4872 97.8519 28.0229 96.8218 26.4609V34.1043H93.2356V34.1046ZM105.381 21.0192C105.381 18.7908 103.851 16.9657 101.264 16.9657C98.6758 16.9657 97.1459 18.7908 97.1459 21.0192C97.1459 23.2468 98.8227 25.0727 101.264 25.0727C103.705 25.0727 105.381 23.2471 105.381 21.0192Z" fill="currentColor"/>
<path d="M115.379 9.52759V13.8398H120.319V15.0264H115.379V23.7393C115.379 25.6786 115.791 27.0397 118.055 27.0397C118.76 27.0397 119.554 26.8078 120.289 26.4606L120.789 27.6168C119.877 28.0537 118.965 28.3422 118.055 28.3422C114.968 28.3422 113.967 26.5472 113.967 23.7396V15.0267H110.879V13.8401H113.967V9.67229L115.379 9.52759Z" fill="currentColor"/>
<path d="M125.554 9.17984C125.554 10.685 123.23 10.685 123.23 9.17984C123.23 7.67524 125.554 7.67524 125.554 9.17984ZM123.643 13.7824V28.14H125.082V13.7824H123.643Z" fill="currentColor"/>
<path d="M130.64 7.8783V28.1397H129.199V7.8783H130.64Z" fill="currentColor"/>
<path d="M153.488 13.8401L153.547 16.3887C154.459 14.4478 156.518 13.696 158.37 13.696C159.459 13.6668 160.515 13.9559 161.486 14.536L160.839 15.6934C160.076 15.2304 159.221 15.027 158.37 15.027C155.663 15.0568 153.576 17.198 153.576 19.8038V28.1399H152.135V13.8401H153.488Z" fill="currentColor"/>
<path d="M135.54 23.414C135.541 23.4153 135.543 23.4172 135.543 23.4184L147.303 20.3539C147.302 20.3493 147.302 20.3453 147.302 20.341L135.54 23.414Z" fill="currentColor"/>
<path d="M141.214 27.2798C138.654 27.2798 136.461 25.7009 135.543 23.4583H135.535L135.542 23.4571C135.542 23.4561 135.541 23.4546 135.54 23.4536L147.301 20.3803C147.301 20.3855 147.302 20.3895 147.303 20.3941L148.555 20.0678C148.049 16.4457 144.956 13.6583 141.214 13.6583C137.12 13.6583 133.802 16.996 133.802 21.1131C133.802 25.2302 137.12 28.569 141.214 28.569C144.276 28.569 146.905 26.7004 148.035 24.0365L146.855 23.5317C145.921 25.7343 143.747 27.2798 141.214 27.2798ZM135.083 21.1128C135.083 17.7076 137.828 14.9463 141.214 14.9463C143.862 14.9463 146.117 16.6337 146.976 18.9989L135.16 22.0855C135.11 21.7684 135.083 21.4443 135.083 21.1128Z" fill="currentColor"/>
<path d="M165.48 15.0567C165.48 13.8217 166.482 12.8206 167.717 12.8206H196.6L192.26 29.8116H167.717C166.482 29.8116 165.48 28.8104 165.48 27.5754V15.0567Z" fill="#E15042"/>
<path d="M173.75 19.6834C173.714 19.3466 173.562 19.0843 173.295 18.8966C173.03 18.7089 172.685 18.6151 172.261 18.6151C171.963 18.6151 171.707 18.6601 171.494 18.7501C171.28 18.84 171.117 18.9622 171.004 19.1164C170.891 19.2707 170.833 19.4468 170.83 19.6448C170.83 19.8094 170.868 19.9521 170.942 20.0729C171.019 20.1938 171.123 20.2966 171.255 20.3814C171.386 20.4637 171.531 20.5331 171.69 20.5897C171.85 20.6463 172.01 20.6938 172.172 20.7324L172.913 20.9175C173.211 20.987 173.498 21.0808 173.773 21.1991C174.051 21.3173 174.299 21.4665 174.517 21.6465C174.738 21.8264 174.913 22.0437 175.042 22.2982C175.17 22.5528 175.235 22.851 175.235 23.193C175.235 23.6558 175.116 24.0633 174.88 24.4156C174.643 24.7653 174.301 25.0391 173.854 25.2371C173.409 25.4325 172.87 25.5302 172.238 25.5302C171.623 25.5302 171.09 25.4351 170.637 25.2448C170.187 25.0545 169.835 24.7768 169.581 24.4117C169.329 24.0466 169.192 23.6018 169.172 23.0773H170.58C170.6 23.3524 170.685 23.5813 170.834 23.7638C170.983 23.9464 171.177 24.0826 171.416 24.1726C171.658 24.2626 171.928 24.3076 172.226 24.3076C172.538 24.3076 172.81 24.2613 173.044 24.1688C173.281 24.0736 173.466 23.9425 173.599 23.7754C173.733 23.6057 173.801 23.4077 173.804 23.1814C173.801 22.9757 173.741 22.806 173.623 22.6723C173.504 22.5361 173.338 22.4229 173.125 22.333C172.914 22.2404 172.667 22.1581 172.385 22.0861L171.486 21.8547C170.835 21.6876 170.321 21.4343 169.943 21.0949C169.568 20.753 169.38 20.2992 169.38 19.7335C169.38 19.2681 169.506 18.8606 169.758 18.5109C170.013 18.1613 170.358 17.89 170.796 17.6972C171.233 17.5018 171.728 17.4041 172.28 17.4041C172.841 17.4041 173.332 17.5018 173.754 17.6972C174.178 17.89 174.511 18.1587 174.753 18.5032C174.994 18.8452 175.119 19.2386 175.127 19.6834H173.75Z" fill="white"/>
<path d="M179.187 25.4106H176.51V17.512H179.241C180.025 17.512 180.699 17.6702 181.262 17.9864C181.827 18.3001 182.262 18.7513 182.565 19.3401C182.869 19.9289 183.02 20.6334 183.02 21.4536C183.02 22.2764 182.867 22.9835 182.561 23.5748C182.258 24.1662 181.82 24.62 181.246 24.9362C180.676 25.2525 179.989 25.4106 179.187 25.4106ZM177.941 24.1726H179.117C179.668 24.1726 180.127 24.0723 180.494 23.8718C180.862 23.6687 181.138 23.3666 181.323 22.9655C181.509 22.5618 181.601 22.0578 181.601 21.4536C181.601 20.8494 181.509 20.348 181.323 19.9495C181.138 19.5484 180.865 19.2489 180.502 19.0509C180.142 18.8503 179.695 18.7501 179.16 18.7501H177.941V24.1726Z" fill="white"/>
<path d="M184.38 25.4106V17.512H185.811V21.1412H185.907L188.989 17.512H190.736L187.681 21.0564L190.763 25.4106H189.043L186.686 22.0244L185.811 23.058V25.4106H184.38Z" fill="white"/>
<path d="M215.07 26.4675C215.07 27.7025 214.069 28.7036 212.834 28.7036H194.109L197.698 13.9288H212.834C214.069 13.9288 215.07 14.93 215.07 16.165V26.4675Z" fill="#FBC935"/>
<path d="M202.579 17.3612H203.998V22.9149C203.996 23.4239 203.888 23.8623 203.674 24.23C203.461 24.5951 203.163 24.8766 202.78 25.0746C202.399 25.27 201.956 25.3677 201.449 25.3677C200.986 25.3677 200.57 25.2855 200.199 25.1209C199.832 24.9538 199.54 24.7069 199.324 24.3804C199.108 24.0539 199 23.6476 199 23.1617H200.423C200.426 23.3751 200.472 23.5589 200.562 23.7132C200.655 23.8675 200.782 23.9857 200.944 24.068C201.106 24.1503 201.292 24.1914 201.503 24.1914C201.732 24.1914 201.926 24.1439 202.085 24.0487C202.245 23.951 202.366 23.807 202.448 23.6168C202.533 23.4265 202.576 23.1925 202.579 22.9149V17.3612Z" fill="currentColor"/>
<path d="M209.843 19.5325C209.807 19.1957 209.656 18.9334 209.388 18.7457C209.123 18.558 208.779 18.4642 208.355 18.4642C208.056 18.4642 207.8 18.5092 207.587 18.5992C207.374 18.6892 207.21 18.8113 207.097 18.9656C206.984 19.1198 206.926 19.296 206.924 19.4939C206.924 19.6585 206.961 19.8012 207.035 19.922C207.113 20.0429 207.217 20.1457 207.348 20.2306C207.479 20.3128 207.624 20.3823 207.784 20.4388C207.943 20.4954 208.104 20.543 208.266 20.5815L209.006 20.7667C209.305 20.8361 209.591 20.9299 209.866 21.0482C210.144 21.1665 210.392 21.3156 210.611 21.4956C210.832 21.6756 211.007 21.8928 211.135 22.1474C211.264 22.4019 211.328 22.7002 211.328 23.0421C211.328 23.5049 211.21 23.9125 210.973 24.2647C210.737 24.6144 210.395 24.8882 209.947 25.0862C209.503 25.2816 208.964 25.3793 208.331 25.3793C207.717 25.3793 207.183 25.2842 206.731 25.0939C206.281 24.9036 205.929 24.626 205.674 24.2609C205.422 23.8958 205.286 23.4509 205.265 22.9264H206.673C206.694 23.2015 206.778 23.4304 206.928 23.6129C207.077 23.7955 207.271 23.9317 207.51 24.0217C207.752 24.1117 208.022 24.1567 208.32 24.1567C208.631 24.1567 208.903 24.1104 209.137 24.0179C209.374 23.9227 209.559 23.7916 209.693 23.6245C209.826 23.4548 209.895 23.2568 209.897 23.0306C209.895 22.8249 209.834 22.6552 209.716 22.5215C209.598 22.3852 209.432 22.2721 209.218 22.1821C209.008 22.0895 208.761 22.0072 208.478 21.9352L207.579 21.7038C206.929 21.5367 206.415 21.2835 206.037 20.9441C205.661 20.6021 205.474 20.1483 205.474 19.5826C205.474 19.1173 205.6 18.7097 205.851 18.3601C206.106 18.0104 206.452 17.7391 206.889 17.5463C207.326 17.3509 207.821 17.2532 208.374 17.2532C208.934 17.2532 209.425 17.3509 209.847 17.5463C210.271 17.7391 210.604 18.0078 210.846 18.3523C211.088 18.6943 211.212 19.0877 211.22 19.5325H209.843Z" fill="currentColor"/>
</svg>
