<svg id="engine" width="341" height="55" viewBox="0 0 341 55" fill="none" xmlns="http://www.w3.org/2000/svg">
<path d="M15.4561 44.1886C18.1373 46.8222 25.2732 53.9682 25.2695 53.975C25.2444 54.0215 32.3598 47.0035 35.1931 44.2213L25.3073 34.5107L15.4561 44.1886Z" fill="#3A1888"/>
<path d="M25.3076 34.5101L35.193 44.2206C35.2078 44.2053 35.2255 44.1859 35.2419 44.1718L45.1178 34.4701L35.2333 24.7588L25.3076 34.5101Z" fill="#03A1C4"/>
<path d="M45.1184 34.4705L45.1438 34.4446C50.6066 29.0777 50.6103 20.3812 45.1603 15.0078L35.2334 24.7591L45.1184 34.4705Z" fill="#05D0DF"/>
<path d="M15.381 24.7588L5.53223 34.435C5.53469 34.4382 5.53552 34.4419 5.53922 34.4443L15.4398 44.1718C15.4451 44.177 15.4505 44.1819 15.4562 44.1879L25.3075 34.5101L15.381 24.7588Z" fill="#761FE8"/>
<path d="M25.3076 15.0074L35.2333 24.7591L45.1597 15.0074C45.1515 15.0021 45.1486 14.9977 45.1433 14.9912L35.2419 5.26491C35.2398 5.26209 35.2361 5.25966 35.2333 5.25684L25.3076 15.0074Z" fill="#FFAA01"/>
<path d="M5.4894 15.042C0.075597 20.4146 0.0891634 29.0804 5.53216 34.4356L15.3809 24.7598L5.4894 15.042Z" fill="#F1175D"/>
<path d="M25.3073 15.0074L15.4153 5.29004L5.539 14.9913C5.52215 15.0074 5.50694 15.0252 5.48926 15.0418L15.3808 24.7596L25.3073 15.0074Z" fill="#FB3A1B"/>
<path d="M35.2326 5.25676C29.7629 -0.106573 20.9049 -0.103746 15.4393 5.26483L15.415 5.28987L25.307 15.0073L35.2326 5.25676Z" fill="#FBC935"/>
<path d="M76.1758 36.9021V26.965C76.1758 24.518 74.8726 22.2975 72.3044 22.2975C69.7749 22.2975 68.2822 24.518 68.2822 26.965V36.9021H63.6084V18.3077H67.9373L68.2818 20.5673C69.2783 18.6841 71.4617 18.0068 73.2611 18.0068C75.5234 18.0068 77.7832 18.9115 78.8562 21.47C80.5417 18.8352 82.7275 18.0824 85.1777 18.0824C90.5434 18.0824 93.186 21.3185 93.186 26.8903V36.9021H88.5109V26.8903C88.5109 24.4445 87.477 22.3722 84.95 22.3722C82.4196 22.3722 80.848 24.5175 80.848 26.965V36.9021H76.1758Z" fill="currentColor"/>
<path d="M112.919 18.3458H117.402V36.9014H112.995L112.764 34.1923C111.693 36.3751 108.743 37.4268 106.635 37.466C101.042 37.5048 96.9033 34.1159 96.9033 27.6036C96.9033 21.206 101.234 17.8567 106.752 17.8939C109.28 17.8939 111.693 19.0606 112.764 20.9051L112.919 18.3458ZM101.578 27.6036C101.578 31.141 104.068 33.25 107.172 33.25C114.528 33.25 114.528 21.9959 107.172 21.9959C104.068 21.9959 101.578 24.0657 101.578 27.6036Z" fill="currentColor"/>
<path d="M121.349 44.6578V18.346H125.718L126.022 20.9049C127.479 18.8343 130.009 17.9316 132.154 17.9316C137.976 17.9316 141.849 22.1856 141.849 27.6426C141.849 33.0629 138.36 37.3535 132.307 37.3535C130.316 37.3535 127.364 36.7502 126.022 34.7187V44.6578H121.349ZM137.174 27.6426C137.174 24.7448 135.181 22.3717 131.81 22.3717C128.437 22.3717 126.444 24.7444 126.444 27.6426C126.444 30.5395 128.63 32.9138 131.81 32.9138C134.991 32.9138 137.174 30.5395 137.174 27.6426Z" fill="currentColor"/>
<path d="M150.201 12.6992V18.3069H156.638V19.8501H150.201V31.1797C150.201 33.701 150.739 35.4712 153.688 35.4712C154.607 35.4712 155.642 35.1695 156.6 34.718L157.251 36.2211C156.063 36.7894 154.874 37.165 153.688 37.165C149.665 37.165 148.362 34.831 148.362 31.1797V19.8501H144.338V18.3069H148.362V12.8874L150.201 12.6992Z" fill="currentColor"/>
<path d="M163.458 12.2468C163.458 14.2048 160.432 14.2048 160.432 12.2468C160.432 10.2901 163.458 10.2901 163.458 12.2468ZM160.969 18.2317V36.9016H162.845V18.2317H160.969Z" fill="currentColor"/>
<path d="M170.086 10.5547V36.9012H168.209V10.5547H170.086Z" fill="currentColor"/>
<path d="M199.858 18.3072L199.933 21.6213C201.121 19.0972 203.804 18.1198 206.218 18.1198C207.637 18.0818 209.012 18.4578 210.279 19.2123L209.434 20.7171C208.44 20.1149 207.327 19.8508 206.218 19.8508C202.691 19.8895 199.971 22.6738 199.971 26.0622V36.902H198.094V18.3072H199.858Z" fill="currentColor"/>
<path d="M176.472 30.7566C176.473 30.7586 176.474 30.7606 176.474 30.7626L191.798 26.7777C191.797 26.7716 191.796 26.7668 191.796 26.7607L176.472 30.7566Z" fill="currentColor"/>
<path d="M183.864 35.783C180.529 35.783 177.672 33.7298 176.476 30.8139H176.465L176.474 30.8123C176.474 30.8111 176.473 30.809 176.472 30.8082L191.796 26.8116C191.796 26.8184 191.797 26.8237 191.798 26.8293L193.428 26.4053C192.769 21.6954 188.74 18.0703 183.864 18.0703C178.53 18.0703 174.206 22.4107 174.206 27.7639C174.206 33.1175 178.53 37.4591 183.864 37.4591C187.855 37.4591 191.279 35.0294 192.752 31.5655L191.215 30.9092C189.997 33.7738 187.164 35.783 183.864 35.783ZM175.876 27.7639C175.876 23.3359 179.452 19.7455 183.864 19.7455C187.314 19.7455 190.253 21.9397 191.372 25.0152L175.975 29.0292C175.91 28.6164 175.876 28.1952 175.876 27.7639Z" fill="currentColor"/>
<path d="M226.466 27.5007H237.516V28.7987H226.466V36.1058H238.379V37.4826H225.038V18.9492H238.054V20.2997H226.466V27.5007H226.466Z" fill="currentColor"/>
<path d="M242.796 18.9492L255.49 34.2787V18.9492H256.919V37.4826H256.352L243.632 22.1789V37.4826H242.176V18.9492H242.796Z" fill="currentColor"/>
<path d="M275.969 22.3644C274.327 20.7752 272.035 19.9812 269.906 19.9812C264.381 19.9812 261.552 23.9524 261.578 28.2415C261.578 32.6105 264.408 36.3705 269.906 36.3705C271.928 36.3705 274.029 35.6819 275.647 34.2268V29.0363H269.07V27.7916H277.021V34.7284C275.054 36.6609 272.709 37.721 269.906 37.721C263.491 37.721 260.177 33.3257 260.177 28.2693C260.149 22.4698 264.166 18.6836 269.906 18.6836C272.386 18.6836 274.893 19.6105 276.805 21.4634L275.969 22.3644Z" fill="currentColor"/>
<path d="M280.979 37.4826V18.9492H282.407V37.4826H280.979Z" fill="currentColor"/>
<path d="M287.205 18.9492L299.898 34.2787V18.9492H301.326V37.4826H300.761L288.041 22.1789V37.4826H286.584V18.9492H287.205Z" fill="currentColor"/>
<path d="M306.957 27.5007H318.007V28.7987H306.957V36.1058H318.87V37.4826H305.529V18.9492H318.545V20.2997H306.957V27.5007H306.957Z" fill="currentColor"/>
</svg>
