<svg id="cluster" width="341" height="55" viewBox="0 0 341 55" fill="none" xmlns="http://www.w3.org/2000/svg">
<path d="M15.5425 44.2003C18.2116 46.8319 25.316 53.9702 25.3123 53.9779C25.2869 54.0243 32.3704 47.0128 35.1915 44.2338L25.3504 34.5317L15.5425 44.2003Z" fill="#3A1888"/>
<path d="M25.3506 34.5317L35.1921 44.2338C35.2073 44.2172 35.2249 44.1986 35.2408 44.1845L45.0733 34.4921L35.2322 24.7909L25.3506 34.5317Z" fill="#03A1C4"/>
<path d="M45.0734 34.4921L45.0984 34.4667C50.5366 29.1054 50.5411 20.417 45.1144 15.0488L35.2319 24.7909L45.0734 34.4921Z" fill="#05D0DF"/>
<path d="M15.4676 24.7909L5.6626 34.4574C5.66506 34.4602 5.66629 34.4647 5.66997 34.4663L15.5266 44.1841C15.532 44.1898 15.5373 44.1942 15.543 44.1999L25.3505 34.5317L15.4676 24.7909Z" fill="#761FE8"/>
<path d="M25.3506 15.0488L35.2322 24.7913L45.1147 15.0488C45.1069 15.0432 45.1037 15.0387 45.0988 15.0323L35.2409 5.31567C35.2388 5.31244 35.2351 5.31042 35.2322 5.30719L25.3506 15.0488Z" fill="#FFAA01"/>
<path d="M5.62027 15.0824C0.230009 20.4498 0.243528 29.1074 5.66246 34.4574L15.4679 24.7909L5.62027 15.0824Z" fill="#F1175D"/>
<path d="M25.3503 15.0489L15.5022 5.34033L5.66969 15.0323C5.65289 15.0489 5.63773 15.0666 5.62012 15.0828L15.4678 24.7913L25.3503 15.0489Z" fill="#FB3A1B"/>
<path d="M35.2321 5.30722C29.7869 -0.0504616 20.968 -0.0476346 15.5261 5.3157L15.502 5.34074L25.35 15.0493L35.2321 5.30722Z" fill="#FBC935"/>
<path d="M75.9943 36.9206V26.9932C75.9943 24.549 74.6968 22.3305 72.1399 22.3305C69.6216 22.3305 68.1357 24.549 68.1357 26.9932V36.9206H63.4824V18.3452H67.7923L68.1357 20.602C69.1275 18.7204 71.3017 18.0443 73.0925 18.0443C75.3449 18.0443 77.5945 18.9478 78.6634 21.5034C80.3411 18.871 82.5173 18.119 84.957 18.119C90.2985 18.119 92.9295 21.352 92.9295 26.9184V36.9206H88.2751V26.9184C88.2751 24.4755 87.2459 22.4053 84.73 22.4053C82.2105 22.4053 80.6463 24.549 80.6463 26.9932V36.9206H75.9943Z" fill="currentColor"/>
<path d="M112.575 18.3839H117.038V36.9209H112.651L112.421 34.2146C111.354 36.3951 108.418 37.446 106.319 37.4851C100.751 37.5239 96.6299 34.1379 96.6299 27.6324C96.6299 21.2413 100.941 17.8952 106.435 17.932C108.951 17.932 111.354 19.0976 112.42 20.9404L112.575 18.3839ZM101.284 27.632C101.284 31.1659 103.763 33.2728 106.853 33.2728C114.176 33.2728 114.176 22.03 106.853 22.03C103.763 22.03 101.284 24.0978 101.284 27.632Z" fill="currentColor"/>
<path d="M120.967 44.6691V18.3839H125.317L125.62 20.9404C127.071 18.8714 129.589 17.97 131.725 17.97C137.521 17.97 141.376 22.2194 141.376 27.6712C141.376 33.0862 137.903 37.3725 131.877 37.3725C129.894 37.3725 126.956 36.7695 125.62 34.7405V44.6695H120.967V44.6691ZM136.723 27.6708C136.723 24.7763 134.738 22.4052 131.381 22.4052C128.024 22.4052 126.04 24.7759 126.04 27.6708C126.04 30.5649 128.215 32.9368 131.381 32.9368C134.549 32.9368 136.723 30.5649 136.723 27.6708Z" fill="currentColor"/>
<path d="M149.692 12.7427V18.3452H156.1V19.8867H149.692V31.2046C149.692 33.7235 150.227 35.4925 153.164 35.4925C154.078 35.4925 155.109 35.1908 156.063 34.7401L156.711 36.2416C155.527 36.8091 154.345 37.1843 153.164 37.1843C149.159 37.1843 147.862 34.8528 147.862 31.2046V19.8867H143.855V18.3452H147.862V12.9309L149.692 12.7427Z" fill="currentColor"/>
<path d="M162.891 12.2909C162.891 14.246 159.878 14.246 159.878 12.2909C159.878 10.3357 162.891 10.3357 162.891 12.2909ZM160.413 18.2693V36.921H162.28V18.2693H160.413Z" fill="currentColor"/>
<path d="M169.489 10.5999V36.9206H167.62V10.5999H169.489Z" fill="currentColor"/>
<path d="M199.129 18.3452L199.204 21.6557C200.387 19.1344 203.058 18.1574 205.461 18.1574C206.873 18.1194 208.243 18.495 209.504 19.2486L208.663 20.7518C207.674 20.1501 206.565 19.8868 205.461 19.8868C201.95 19.9255 199.242 22.7069 199.242 26.0917V36.9206H197.373V18.3452H199.129Z" fill="currentColor"/>
<path d="M175.846 30.7822C175.847 30.7843 175.848 30.7859 175.848 30.7879L191.105 26.807C191.104 26.8009 191.103 26.7961 191.103 26.79L175.846 30.7822Z" fill="currentColor"/>
<path d="M183.206 35.8039C179.886 35.8039 177.04 33.7527 175.85 30.8396H175.84L175.848 30.8376C175.848 30.8372 175.847 30.8352 175.846 30.834L191.103 26.8409C191.103 26.8482 191.104 26.8531 191.105 26.8587L192.728 26.4346C192.072 21.7292 188.06 18.1082 183.206 18.1082C177.895 18.1082 173.591 22.4436 173.591 27.792C173.591 33.1404 177.895 37.4771 183.206 37.4771C187.18 37.4771 190.588 35.0499 192.055 31.59L190.525 30.9337C189.312 33.7967 186.491 35.8039 183.206 35.8039ZM175.252 27.7924C175.252 23.3685 178.813 19.7818 183.206 19.7818C186.64 19.7818 189.566 21.974 190.68 25.047L175.351 29.0565C175.287 28.6442 175.252 28.2234 175.252 27.7924Z" fill="currentColor"/>
<path d="M239.707 34.9382C237.828 36.7899 235.334 37.7156 232.865 37.7156C226.533 37.7156 223.231 33.3514 223.205 28.3511C223.152 23.4054 226.425 18.7763 232.865 18.7763C235.334 18.7763 237.828 19.7024 239.707 21.5541L238.714 22.4002C237.104 20.813 234.984 20.0461 232.865 20.0461C227.391 20.0461 224.574 23.8549 224.6 28.2995C224.655 32.6366 227.445 36.3925 232.865 36.3925C234.985 36.3925 237.131 35.5993 238.741 34.0388L239.707 34.9382Z" fill="currentColor"/>
<path d="M244.264 18.9869V36.1532H254.837V37.5017H242.816V18.9869H244.264Z" fill="currentColor"/>
<path d="M270.854 18.9869V30.4935C270.854 40.1741 256.472 40.2012 256.472 30.4935V18.9869H257.893V30.4935C257.893 38.4553 269.431 38.4278 269.431 30.4935V18.9869H270.854Z" fill="currentColor"/>
<path d="M286.977 22.5575C285.609 20.3883 283.409 20.0709 281.289 20.0446C279.088 20.0446 275.601 20.8382 275.601 23.8006C275.601 26.1543 278.176 26.7096 281.343 27.2928C284.965 27.9798 288.722 28.6147 288.722 32.6093C288.695 36.7885 284.429 37.7933 281.289 37.7933C278.364 37.7933 275.037 36.6035 273.588 33.7728L274.876 33.138C276.029 35.3863 278.982 36.4965 281.289 36.4965C283.597 36.4965 287.273 35.8616 287.273 32.5822C287.299 29.8049 284.186 29.197 281.101 28.6147C277.667 27.9535 274.152 27.2658 274.152 23.8535C274.071 19.9388 278.204 18.722 281.289 18.722C283.973 18.722 286.306 19.1456 288.159 21.8701L286.977 22.5575Z" fill="currentColor"/>
<path d="M297.117 20.2825H290.329V19.0128H305.354V20.2825H298.566V37.5017H297.117V20.2825H297.117Z" fill="currentColor"/>
<path d="M309.51 27.5299H320.511V28.8267H309.51V36.1266H321.37V37.5017H308.089V18.9869H321.048V20.3358H309.51V27.5299H309.51Z" fill="currentColor"/>
<path d="M339.56 37.5017H337.655L331.161 30.4931H326.036V37.5017H324.586V18.9869C327.351 18.9869 330.088 18.9869 332.851 18.9869C336.93 18.9869 338.996 21.8701 339.024 24.7533C339.05 27.769 337.038 30.4143 332.932 30.4143L339.56 37.5017ZM326.036 29.1442H332.69C335.964 29.1442 337.413 27.3187 337.44 24.7271C337.467 22.5575 335.964 20.3092 332.851 20.3092H326.036V29.1442Z" fill="currentColor"/>
</svg>
