<svg id="mobile" width="318" height="42" viewBox="0 0 318 42" fill="none" xmlns="http://www.w3.org/2000/svg">
<path d="M11.9653 33.7428C14.0231 35.7685 19.4996 41.264 19.4971 41.2692C19.4774 41.3048 24.9382 35.9077 27.113 33.7681L19.526 26.3001L11.9653 33.7428Z" fill="#3A1888"/>
<path d="M19.5259 26.3003L27.1128 33.7682C27.1241 33.756 27.1378 33.7412 27.1503 33.7308L34.7301 26.2699L27.1434 18.8017L19.5259 26.3003Z" fill="#03A1C4"/>
<path d="M34.7298 26.27L34.7492 26.25C38.9416 22.1231 38.9447 15.4346 34.7617 11.3024L27.1436 18.8018L34.7298 26.27Z" fill="#05D0DF"/>
<path d="M11.9079 18.8017L4.34912 26.2429C4.35099 26.245 4.35193 26.2481 4.35474 26.2497L11.9532 33.7305C11.9573 33.7345 11.9613 33.7382 11.9657 33.7428L19.5261 26.3003L11.9079 18.8017Z" fill="#761FE8"/>
<path d="M19.5259 11.3027L27.1434 18.802L34.7616 11.3027C34.7553 11.2984 34.7531 11.295 34.7491 11.2901L27.1503 3.81016C27.1487 3.80771 27.1459 3.80617 27.1437 3.80402L19.5259 11.3027Z" fill="#FFAA01"/>
<path d="M4.31652 11.3285C0.161305 15.4604 0.171605 22.1242 4.34898 26.2431L11.9078 18.8019L4.31652 11.3285Z" fill="#F1175D"/>
<path d="M19.5258 11.3027L11.9339 3.82928L4.35448 11.2901C4.34137 11.3027 4.32983 11.3166 4.31641 11.3285L11.9077 18.8021L19.5258 11.3027Z" fill="#FB3A1B"/>
<path d="M27.1435 3.80382C22.9459 -0.320973 16.1477 -0.318514 11.9528 3.80996L11.9341 3.82901L19.526 11.3025L27.1435 3.80382Z" fill="#FBC935"/>
<path d="M58.5666 28.1395V20.4973C58.5666 18.6158 57.5663 16.9081 55.5953 16.9081C53.6539 16.9081 52.5085 18.6158 52.5085 20.4973V28.1395H48.9216V13.8399H52.2437L52.5085 15.5777C53.2731 14.1293 54.9489 13.6086 56.3297 13.6086C58.066 13.6086 59.8004 14.3041 60.6241 16.2715C61.9179 14.2455 63.5955 13.6666 65.4757 13.6666C69.5935 13.6666 71.6219 16.1553 71.6219 20.4402V28.1395H68.0338V20.4402C68.0338 18.559 67.24 16.9655 65.3009 16.9655C63.3586 16.9655 62.1532 18.6158 62.1532 20.4973V28.1395H58.5666Z" fill="currentColor"/>
<path d="M86.7654 13.8697H90.2063V28.1391H86.8239L86.6474 26.056C85.825 27.7342 83.561 28.5435 81.9429 28.5733C77.6514 28.6034 74.4741 25.997 74.4741 20.9889C74.4741 16.069 77.7982 13.4933 82.0326 13.5218C83.9726 13.5218 85.8243 14.419 86.6474 15.8376L86.7654 13.8697ZM78.0622 20.9892C78.0622 23.7099 79.9732 25.3315 82.3552 25.3315C88.0001 25.3315 88.0001 16.677 82.3552 16.677C79.9732 16.677 78.0622 18.2689 78.0622 20.9892Z" fill="currentColor"/>
<path d="M93.2356 34.1046V13.8699H96.589L96.8218 15.8379C97.9402 14.2454 99.8816 13.5513 101.528 13.5513C105.996 13.5513 108.968 16.8222 108.968 21.0192C108.968 25.1874 106.291 28.4872 101.645 28.4872C100.117 28.4872 97.8519 28.0229 96.8218 26.4609V34.1043H93.2356V34.1046ZM105.381 21.0192C105.381 18.7908 103.851 16.9657 101.264 16.9657C98.6758 16.9657 97.1459 18.7908 97.1459 21.0192C97.1459 23.2468 98.8227 25.0727 101.264 25.0727C103.705 25.0727 105.381 23.2471 105.381 21.0192Z" fill="currentColor"/>
<path d="M115.379 9.52759V13.8398H120.319V15.0264H115.379V23.7393C115.379 25.6786 115.791 27.0397 118.055 27.0397C118.76 27.0397 119.554 26.8078 120.289 26.4606L120.789 27.6168C119.877 28.0537 118.965 28.3422 118.055 28.3422C114.968 28.3422 113.967 26.5472 113.967 23.7396V15.0267H110.879V13.8401H113.967V9.67229L115.379 9.52759Z" fill="currentColor"/>
<path d="M125.554 9.17984C125.554 10.685 123.23 10.685 123.23 9.17984C123.23 7.67524 125.554 7.67524 125.554 9.17984ZM123.643 13.7824V28.14H125.082V13.7824H123.643Z" fill="currentColor"/>
<path d="M130.64 7.8783V28.1397H129.199V7.8783H130.64Z" fill="currentColor"/>
<path d="M153.488 13.8401L153.547 16.3887C154.459 14.4478 156.518 13.696 158.37 13.696C159.459 13.6668 160.515 13.9559 161.486 14.536L160.839 15.6934C160.076 15.2304 159.221 15.027 158.37 15.027C155.663 15.0568 153.576 17.198 153.576 19.8038V28.1399H152.135V13.8401H153.488Z" fill="currentColor"/>
<path d="M135.54 23.414C135.541 23.4153 135.543 23.4172 135.543 23.4184L147.303 20.3539C147.302 20.3493 147.302 20.3453 147.302 20.341L135.54 23.414Z" fill="currentColor"/>
<path d="M141.214 27.2798C138.654 27.2798 136.461 25.7009 135.543 23.4583H135.535L135.542 23.4571C135.542 23.4561 135.541 23.4546 135.54 23.4536L147.301 20.3803C147.301 20.3855 147.302 20.3895 147.303 20.3941L148.555 20.0678C148.049 16.4457 144.956 13.6583 141.214 13.6583C137.12 13.6583 133.802 16.996 133.802 21.1131C133.802 25.2302 137.12 28.569 141.214 28.569C144.276 28.569 146.905 26.7004 148.035 24.0365L146.855 23.5317C145.921 25.7343 143.747 27.2798 141.214 27.2798ZM135.083 21.1128C135.083 17.7076 137.828 14.9463 141.214 14.9463C143.862 14.9463 146.117 16.6337 146.976 18.9989L135.16 22.0855C135.11 21.7684 135.083 21.4443 135.083 21.1128Z" fill="currentColor"/>
<path d="M183.529 15.8564L178.025 24.4078H177.655L172.11 15.8564V28.8304H171V14.2296C171.534 14.2296 171.781 14.2296 172.314 14.2296L177.819 22.7386L183.261 14.2296H184.618V28.8304H183.528V15.8564H183.529Z" fill="currentColor"/>
<path d="M201.663 21.5504C201.642 25.388 199.24 29.0791 194.412 29.0791C189.586 29.0791 187.162 25.3676 187.162 21.5081C187.162 17.5873 189.566 14 194.412 14C199.26 14 201.683 17.608 201.663 21.5504ZM188.25 21.5291C188.271 24.8244 190.324 28.0369 194.412 28.0369C198.521 28.0369 200.594 24.8244 200.594 21.5291C200.594 18.151 198.54 15.0429 194.412 15.0429C190.285 15.0429 188.23 18.0882 188.25 21.5291Z" fill="currentColor"/>
<path d="M214.929 18.2133C214.929 19.7153 214.024 20.8829 212.587 21.3421C214.394 21.843 215.422 23.3236 215.422 25.0132C215.422 28.0165 212.669 28.8304 210.204 28.8304C208.109 28.8304 206.405 28.8304 204.309 28.8304V14.2296C206.383 14.2296 208.109 14.2296 210.204 14.2296C212.628 14.2296 214.929 15.4392 214.929 18.2133ZM205.419 20.8412H210.348C212.073 20.8412 213.881 20.2989 213.881 18.2133C213.881 16.0863 211.992 15.189 210.204 15.189H205.419V20.8412ZM205.419 27.7455H210.204C212.012 27.7455 214.332 27.3076 214.332 24.9918C214.312 22.7186 212.278 21.9054 210.348 21.9054C208.622 21.9054 207.143 21.9054 205.419 21.9054V27.7455Z" fill="currentColor"/>
<path d="M218.09 28.8304V14.2296H219.178V28.8304H218.09Z" fill="currentColor"/>
<path d="M223.449 14.2296V27.7659H231.542V28.8304H222.339V14.2296H223.449Z" fill="currentColor"/>
<path d="M234.723 20.9667H243.144V21.9884H234.723V27.7455H243.802V28.8304H233.635V14.2296H243.555V15.2934H234.723V20.9667Z" fill="currentColor"/>
</svg>
