<svg id="cloud" width="318" height="42" viewBox="0 0 318 42" fill="none" xmlns="http://www.w3.org/2000/svg">
<path d="M11.9653 33.7428C14.0231 35.7685 19.4996 41.264 19.4971 41.2692C19.4774 41.3048 24.9382 35.9077 27.113 33.7681L19.526 26.3001L11.9653 33.7428Z" fill="#3A1888"/>
<path d="M19.5259 26.3003L27.1128 33.7682C27.1241 33.756 27.1378 33.7412 27.1503 33.7308L34.7301 26.2699L27.1434 18.8017L19.5259 26.3003Z" fill="#03A1C4"/>
<path d="M34.7298 26.27L34.7492 26.25C38.9416 22.1231 38.9447 15.4346 34.7617 11.3024L27.1436 18.8018L34.7298 26.27Z" fill="#05D0DF"/>
<path d="M11.9079 18.8017L4.34912 26.2429C4.35099 26.245 4.35193 26.2481 4.35474 26.2497L11.9532 33.7305C11.9573 33.7345 11.9613 33.7382 11.9657 33.7428L19.5261 26.3003L11.9079 18.8017Z" fill="#761FE8"/>
<path d="M19.5259 11.3027L27.1434 18.802L34.7616 11.3027C34.7553 11.2984 34.7531 11.295 34.7491 11.2901L27.1503 3.81016C27.1487 3.80771 27.1459 3.80617 27.1437 3.80402L19.5259 11.3027Z" fill="#FFAA01"/>
<path d="M4.31652 11.3285C0.161305 15.4604 0.171605 22.1242 4.34898 26.2431L11.9078 18.8019L4.31652 11.3285Z" fill="#F1175D"/>
<path d="M19.5258 11.3027L11.9339 3.82928L4.35448 11.2901C4.34137 11.3027 4.32983 11.3166 4.31641 11.3285L11.9077 18.8021L19.5258 11.3027Z" fill="#FB3A1B"/>
<path d="M27.1435 3.80382C22.9459 -0.320973 16.1477 -0.318514 11.9528 3.80996L11.9341 3.82901L19.526 11.3025L27.1435 3.80382Z" fill="#FBC935"/>
<path d="M58.5666 28.1395V20.4973C58.5666 18.6158 57.5663 16.9081 55.5953 16.9081C53.6539 16.9081 52.5085 18.6158 52.5085 20.4973V28.1395H48.9216V13.8399H52.2437L52.5085 15.5777C53.2731 14.1293 54.9489 13.6086 56.3297 13.6086C58.066 13.6086 59.8004 14.3041 60.6241 16.2715C61.9179 14.2455 63.5955 13.6666 65.4757 13.6666C69.5935 13.6666 71.6219 16.1553 71.6219 20.4402V28.1395H68.0338V20.4402C68.0338 18.559 67.24 16.9655 65.3009 16.9655C63.3586 16.9655 62.1532 18.6158 62.1532 20.4973V28.1395H58.5666Z" fill="currentColor"/>
<path d="M86.7654 13.8697H90.2063V28.1391H86.8239L86.6474 26.056C85.825 27.7342 83.561 28.5435 81.9429 28.5733C77.6514 28.6034 74.4741 25.997 74.4741 20.9889C74.4741 16.069 77.7982 13.4933 82.0326 13.5218C83.9726 13.5218 85.8243 14.419 86.6474 15.8376L86.7654 13.8697ZM78.0622 20.9892C78.0622 23.7099 79.9732 25.3315 82.3552 25.3315C88.0001 25.3315 88.0001 16.677 82.3552 16.677C79.9732 16.677 78.0622 18.2689 78.0622 20.9892Z" fill="currentColor"/>
<path d="M93.2356 34.1046V13.8699H96.589L96.8218 15.8379C97.9402 14.2454 99.8816 13.5513 101.528 13.5513C105.996 13.5513 108.968 16.8222 108.968 21.0192C108.968 25.1874 106.291 28.4872 101.645 28.4872C100.117 28.4872 97.8519 28.0229 96.8218 26.4609V34.1043H93.2356V34.1046ZM105.381 21.0192C105.381 18.7908 103.851 16.9657 101.264 16.9657C98.6758 16.9657 97.1459 18.7908 97.1459 21.0192C97.1459 23.2468 98.8227 25.0727 101.264 25.0727C103.705 25.0727 105.381 23.2471 105.381 21.0192Z" fill="currentColor"/>
<path d="M115.379 9.52759V13.8398H120.319V15.0264H115.379V23.7393C115.379 25.6786 115.791 27.0397 118.055 27.0397C118.76 27.0397 119.554 26.8078 120.289 26.4606L120.789 27.6168C119.877 28.0537 118.965 28.3422 118.055 28.3422C114.968 28.3422 113.967 26.5472 113.967 23.7396V15.0267H110.879V13.8401H113.967V9.67229L115.379 9.52759Z" fill="currentColor"/>
<path d="M125.554 9.17984C125.554 10.685 123.23 10.685 123.23 9.17984C123.23 7.67524 125.554 7.67524 125.554 9.17984ZM123.643 13.7824V28.14H125.082V13.7824H123.643Z" fill="currentColor"/>
<path d="M130.64 7.8783V28.1397H129.199V7.8783H130.64Z" fill="currentColor"/>
<path d="M153.488 13.8401L153.547 16.3887C154.459 14.4478 156.518 13.696 158.37 13.696C159.459 13.6668 160.515 13.9559 161.486 14.536L160.839 15.6934C160.076 15.2304 159.221 15.027 158.37 15.027C155.663 15.0568 153.576 17.198 153.576 19.8038V28.1399H152.135V13.8401H153.488Z" fill="currentColor"/>
<path d="M135.54 23.414C135.541 23.4153 135.543 23.4172 135.543 23.4184L147.303 20.3539C147.302 20.3493 147.302 20.3453 147.302 20.341L135.54 23.414Z" fill="currentColor"/>
<path d="M141.214 27.2798C138.654 27.2798 136.461 25.7009 135.543 23.4583H135.535L135.542 23.4571C135.542 23.4561 135.541 23.4546 135.54 23.4536L147.301 20.3803C147.301 20.3855 147.302 20.3895 147.303 20.3941L148.555 20.0678C148.049 16.4457 144.956 13.6583 141.214 13.6583C137.12 13.6583 133.802 16.996 133.802 21.1131C133.802 25.2302 137.12 28.569 141.214 28.569C144.276 28.569 146.905 26.7004 148.035 24.0365L146.855 23.5317C145.921 25.7343 143.747 27.2798 141.214 27.2798ZM135.083 21.1128C135.083 17.7076 137.828 14.9463 141.214 14.9463C143.862 14.9463 146.117 16.6337 146.976 18.9989L135.16 22.0855C135.11 21.7684 135.083 21.4443 135.083 21.1128Z" fill="currentColor"/>
<path d="M184.721 25.5019C183.273 26.9275 181.35 27.6401 179.447 27.6401C174.565 27.6401 172.02 24.2806 172 20.4317C171.959 16.6243 174.483 13.0609 179.447 13.0609C181.35 13.0609 183.273 13.7737 184.721 15.199L183.955 15.8507C182.715 14.6288 181.081 14.0386 179.447 14.0386C175.227 14.0386 173.056 16.9703 173.076 20.3921C173.118 23.7307 175.269 26.6216 179.447 26.6216C181.081 26.6216 182.736 26.011 183.977 24.8097L184.721 25.5019Z" fill="currentColor"/>
<path d="M188.234 13.2243V26.439H196.385V27.4769H187.118V13.2243H188.234Z" fill="currentColor"/>
<path d="M212.042 20.3705C212.021 24.1174 209.601 27.722 204.74 27.722C199.88 27.722 197.438 24.0968 197.438 20.3306C197.438 16.5023 199.859 13 204.74 13C209.621 13 212.062 16.5232 212.042 20.3705ZM198.534 20.3506C198.555 23.5683 200.623 26.7032 204.74 26.7032C208.877 26.7032 210.966 23.5683 210.966 20.3506C210.966 17.052 208.898 14.0185 204.74 14.0185C200.582 14.0185 198.514 16.9914 198.534 20.3506Z" fill="currentColor"/>
<path d="M225.773 13.2243V22.0822C225.773 29.5339 214.686 29.5551 214.686 22.0822V13.2243H215.782V22.0822C215.782 28.2115 224.677 28.1897 224.677 22.0822V13.2243H225.773Z" fill="currentColor"/>
<path d="M240.953 20.1884C241.036 23.812 238.678 27.4769 233.61 27.4769C231.975 27.4769 230.342 27.4769 228.708 27.4769V13.2243C230.342 13.2243 231.975 13.2243 233.61 13.2243C238.513 13.2243 240.87 16.6858 240.953 20.1884ZM229.825 14.2628V26.4181H233.61C237.913 26.4181 239.898 23.2418 239.836 20.188C239.774 17.2148 237.788 14.2628 233.61 14.2628H229.825Z" fill="currentColor"/>
</svg>
