<svg id="desktop" width="347" height="57" viewBox="0 0 347 57" fill="none" xmlns="http://www.w3.org/2000/svg">
<path d="M15.3491 45.7841C18.0282 48.5034 25.1571 55.8837 25.1534 55.8908C25.1282 55.9385 32.2369 48.6913 35.0676 45.8184L25.1921 35.7891L15.3491 45.7841Z" fill="#3A1888"/>
<path d="M25.1919 35.7898L35.0674 45.8191C35.0823 45.8015 35.0996 45.7831 35.1165 45.7685L44.9834 35.7479L35.1074 25.7207L25.1919 35.7898Z" fill="#03A1C4"/>
<path d="M44.9834 35.7478L45.0089 35.721C50.466 30.1798 50.4701 21.1986 45.0254 15.6494L35.1074 25.7206L44.9834 35.7478Z" fill="#05D0DF"/>
<path d="M15.2743 25.7207L5.43457 35.7128C5.43704 35.7161 5.43828 35.7191 5.44158 35.7212L15.3336 45.7685C15.3386 45.7735 15.3435 45.7785 15.3493 45.7848L25.1918 35.7898L15.2743 25.7207Z" fill="#761FE8"/>
<path d="M25.1919 15.65L35.1074 25.7208L45.025 15.65C45.0168 15.6441 45.0139 15.64 45.0085 15.6328L35.1165 5.58845C35.1144 5.5851 35.1107 5.58343 35.1074 5.58008L25.1919 15.65Z" fill="#FFAA01"/>
<path d="M5.39214 15.6846C-0.0171535 21.2329 -0.00314009 30.1824 5.43459 35.7127L15.2743 25.7202L5.39214 15.6846Z" fill="#F1175D"/>
<path d="M25.1918 15.6493L15.3088 5.61328L5.44155 15.6321C5.42465 15.6493 5.40981 15.6673 5.39209 15.684L15.2742 25.7201L25.1918 15.6493Z" fill="#FB3A1B"/>
<path d="M35.1075 5.58013C29.6438 0.0406041 20.7937 0.0439523 15.3333 5.58808L15.3086 5.61362L25.1916 15.6496L35.1075 5.58013Z" fill="#FBC935"/>
<path d="M76.012 38.2602V27.9969C76.012 25.4701 74.7104 23.1769 72.1446 23.1769C69.6176 23.1769 68.126 25.4701 68.126 27.9969V38.2602H63.4565V19.0567H67.7818L68.126 21.3901C69.1218 19.4451 71.303 18.7461 73.1004 18.7461C75.3608 18.7461 77.6182 19.6799 78.6907 22.3222C80.3744 19.6012 82.558 18.8239 85.0063 18.8239C90.3661 18.8239 93.0069 22.1657 93.0069 27.9195V38.2602H88.3358V27.9195C88.3358 25.3939 87.3033 23.2543 84.7784 23.2543C82.2501 23.2543 80.6802 25.4701 80.6802 27.9973V38.2606H76.012V38.2602Z" fill="currentColor"/>
<path d="M112.72 19.0965H117.199V38.2598H112.796L112.566 35.4614C111.495 37.714 108.548 38.8019 106.442 38.842C100.855 38.8826 96.7197 35.3823 96.7197 28.6574C96.7197 22.0506 101.046 18.5917 106.559 18.6302C109.084 18.6302 111.495 19.8344 112.566 21.7396L112.72 19.0965ZM101.39 28.657C101.39 32.3101 103.878 34.4879 106.979 34.4879C114.328 34.4879 114.328 22.8659 106.979 22.8659C103.878 22.8659 101.39 25.0043 101.39 28.657Z" fill="currentColor"/>
<path d="M121.142 46.2677V19.0961H125.507L125.811 21.7389C127.267 19.6001 129.794 18.668 131.938 18.668C137.754 18.668 141.622 23.0611 141.622 28.6965C141.622 34.2946 138.137 38.7262 132.09 38.7262C130.101 38.7262 127.153 38.1034 125.811 36.0044V46.2677H121.142ZM136.953 28.6965C136.953 25.7038 134.961 23.2536 131.593 23.2536C128.224 23.2536 126.233 25.7038 126.233 28.6965C126.233 31.6883 128.416 34.1401 131.593 34.1401C134.771 34.1401 136.953 31.6883 136.953 28.6965Z" fill="currentColor"/>
<path d="M149.968 13.2656V19.0563H156.398V20.6501H149.968V32.3503C149.968 34.9537 150.505 36.7819 153.451 36.7819C154.37 36.7819 155.402 36.4705 156.36 36.0047L157.011 37.5579C155.824 38.1422 154.636 38.5315 153.451 38.5315C149.432 38.5315 148.131 36.1206 148.131 32.3503V20.6505H144.11V19.0567H148.131V13.4603L149.968 13.2656Z" fill="currentColor"/>
<path d="M163.212 12.7981C163.212 14.8197 160.188 14.8197 160.188 12.7981C160.188 10.7769 163.212 10.7769 163.212 12.7981ZM160.726 18.9784V38.2598H162.599V18.9784H160.726Z" fill="currentColor"/>
<path d="M169.834 11.0508V38.2596H167.958V11.0508H169.834Z" fill="currentColor"/>
<path d="M199.577 19.0568L199.652 22.4793C200.839 19.8726 203.52 18.863 205.931 18.863C207.348 18.8241 208.723 19.2121 209.989 19.9906L209.145 21.5451C208.152 20.9231 207.04 20.6506 205.931 20.6506C202.408 20.6904 199.69 23.5659 199.69 27.0654V38.2604H197.814V19.0568H199.577Z" fill="currentColor"/>
<path d="M176.214 31.914C176.214 31.9157 176.216 31.9165 176.216 31.919L191.525 27.8047C191.524 27.7992 191.523 27.7934 191.523 27.7871L176.214 31.914Z" fill="currentColor"/>
<path d="M183.598 37.1042C180.266 37.1042 177.411 34.985 176.217 31.9748H176.206L176.216 31.9727C176.216 31.9706 176.214 31.9685 176.214 31.9677L191.523 27.8408C191.523 27.8475 191.524 27.8533 191.525 27.8588L193.155 27.4206C192.495 22.5562 188.47 18.8135 183.598 18.8135C178.269 18.8135 173.949 23.2953 173.949 28.824C173.949 34.3526 178.269 38.8353 183.598 38.8353C187.586 38.8353 191.007 36.3265 192.479 32.7496L190.942 32.0719C189.725 35.0302 186.895 37.1042 183.598 37.1042ZM175.616 28.8231C175.616 24.2505 179.19 20.5425 183.598 20.5425C187.044 20.5425 189.981 22.8085 191.099 25.9854L175.717 30.1298C175.652 29.7042 175.616 29.2689 175.616 28.8231Z" fill="currentColor"/>
<path d="M240.54 29.073C240.648 33.9403 237.578 38.8624 230.981 38.8624C228.854 38.8624 226.727 38.8624 224.599 38.8624V19.7217C226.727 19.7217 228.854 19.7217 230.981 19.7217C237.362 19.7217 240.431 24.3697 240.54 29.073ZM226.054 21.1159V37.4402H230.981C236.582 37.4402 239.167 33.1735 239.086 29.0725C239.005 25.08 236.419 21.1155 230.981 21.1155H226.054V21.1159Z" fill="currentColor"/>
<path d="M245.249 28.5531H256.289V29.8929H245.249V37.4406H257.149V38.8624H243.821V19.7217H256.827V21.1163H245.249V28.5531Z" fill="currentColor"/>
<path d="M273.143 23.4122C271.768 21.17 269.56 20.8419 267.433 20.8147C265.226 20.8147 261.724 21.6346 261.724 24.6967C261.724 27.1306 264.309 27.7044 267.487 28.3063C271.121 29.017 274.892 29.6729 274.892 33.8015C274.865 38.1226 270.583 39.1615 267.432 39.1615C264.497 39.1615 261.158 37.9313 259.705 35.0052L260.997 34.349C262.156 36.6727 265.117 37.8217 267.432 37.8217C269.748 37.8217 273.438 37.1654 273.438 33.7747C273.464 30.9043 270.342 30.2748 267.244 29.6729C263.798 28.9898 260.27 28.2791 260.27 24.7516C260.19 20.7046 264.336 19.4473 267.432 19.4473C270.124 19.4473 272.468 19.8851 274.326 22.7015L273.143 23.4122Z" fill="currentColor"/>
<path d="M291.205 38.8624H289.375L279.439 29.4279V38.834H277.984V19.7217H279.439V28.4435L288.594 19.7217H290.344V19.8581L280.866 28.8817L291.205 38.7524V38.8624H291.205Z" fill="currentColor"/>
<path d="M298.473 21.0602H291.662V19.748H306.74V21.0602H299.929V38.8616H298.474V21.0602H298.473Z" fill="currentColor"/>
<path d="M327.685 29.3182C327.658 34.3492 324.508 39.1885 318.18 39.1885C311.852 39.1885 308.675 34.3224 308.675 29.2634C308.675 24.1228 311.825 19.4199 318.18 19.4199C324.534 19.4203 327.712 24.1504 327.685 29.3182ZM310.103 29.2906C310.13 33.6105 312.822 37.8224 318.18 37.8224C323.565 37.8224 326.284 33.6105 326.284 29.2906C326.284 24.8615 323.592 20.7873 318.18 20.7873C312.768 20.7873 310.075 24.7799 310.103 29.2906Z" fill="currentColor"/>
<path d="M332.582 32.2452V38.8629H331.128V19.7217C333.875 19.7217 336.648 19.7217 339.394 19.7217C347.579 19.7217 347.579 32.2452 339.394 32.2452H332.582ZM332.582 21.0887V30.9054H339.393C345.668 30.9054 345.668 21.0887 339.393 21.0887H332.582Z" fill="currentColor"/>
</svg>
