<svg id="alternative terrain" width="296" height="53" viewBox="0 0 296 53" fill="none" xmlns="http://www.w3.org/2000/svg">
<path d="M14.3097 43.1645C17.0095 45.8116 24.1945 52.9929 24.1912 52.9997C24.1654 53.0463 31.3299 45.9935 34.1833 43.1974L24.2293 33.4385L14.3097 43.1645Z" fill="#3A1888"/>
<path d="M24.2305 33.4386L34.1845 43.1976C34.1993 43.1815 34.2173 43.1622 34.2337 43.1486L44.1782 33.3989L34.2247 23.6395L24.2305 33.4386Z" fill="#03A1C4"/>
<path d="M44.1781 33.3988L44.2035 33.3727C49.7039 27.9798 49.708 19.2394 44.2199 13.8396L34.225 23.6395L44.1781 33.3988Z" fill="#05D0DF"/>
<path d="M14.2346 23.6395L4.31744 33.3635C4.3199 33.3664 4.32113 33.3704 4.32481 33.3724L14.294 43.1482C14.2993 43.1534 14.3046 43.1582 14.3103 43.1642L24.2295 33.4386L14.2346 23.6395Z" fill="#761FE8"/>
<path d="M24.2305 13.8396L34.2247 23.6395L44.2196 13.8396C44.2114 13.834 44.2085 13.8296 44.2032 13.8232L34.2337 4.04856C34.2316 4.04535 34.2279 4.04334 34.2251 4.04053L24.2305 13.8396Z" fill="#FFAA01"/>
<path d="M4.27566 13.8735C-1.17594 19.273 -1.16242 27.9812 4.31825 33.3637L14.2354 23.6397L4.27566 13.8735Z" fill="#F1175D"/>
<path d="M24.232 13.8397L14.2714 4.07349L4.32724 13.8232C4.31004 13.8397 4.29489 13.8577 4.27728 13.8734L14.237 23.6396L24.232 13.8397Z" fill="#FB3A1B"/>
<path d="M34.2264 4.04043C28.7191 -1.34975 19.7999 -1.34654 14.2963 4.04846L14.2717 4.07336L24.2323 13.8395L34.2264 4.04043Z" fill="#FBC935"/>
<path d="M75.4521 35.8415V25.8549C75.4521 23.3961 74.1396 21.1645 71.5537 21.1645C69.0066 21.1645 67.5038 23.3961 67.5038 25.8549V35.8415H62.7979V17.1551H67.1565L67.5038 19.426C68.507 17.5333 70.7056 16.8528 72.5172 16.8528C74.7952 16.8528 77.0708 17.7618 78.1514 20.3326C79.8488 17.6851 82.0498 16.9287 84.5166 16.9287C89.9191 16.9287 92.5804 20.1808 92.5804 25.7802V35.8415H87.8728V25.7802C87.8728 23.3218 86.8315 21.2396 84.2873 21.2396C81.739 21.2396 80.1576 23.3961 80.1576 25.8549V35.8415H75.4521Z" fill="#333359"/>
<path d="M112.45 17.1941H116.964V35.8411H112.527L112.294 33.1189C111.215 35.3119 108.246 36.3695 106.123 36.4084C100.492 36.4478 96.3233 33.0418 96.3233 26.4973C96.3233 20.068 100.684 16.7022 106.24 16.7396C108.785 16.7396 111.215 17.912 112.294 19.7657L112.45 17.1941ZM101.031 26.4977C101.031 30.053 103.538 32.1722 106.663 32.1722C114.07 32.1722 114.07 20.8626 106.663 20.8626C103.538 20.8626 101.031 22.9428 101.031 26.4977Z" fill="#333359"/>
<path d="M120.937 43.6362V17.1939H125.336L125.643 19.7656C127.11 17.6846 129.657 16.7776 131.817 16.7776C137.679 16.7776 141.578 21.052 141.578 26.5365C141.578 31.9833 138.066 36.2955 131.971 36.2955C129.966 36.2955 126.994 35.6888 125.642 33.6476V43.6358H120.937V43.6362ZM136.872 26.5365C136.872 23.6244 134.865 21.2395 131.47 21.2395C128.074 21.2395 126.067 23.6244 126.067 26.5365C126.067 29.4474 128.268 31.8336 131.47 31.8336C134.673 31.8336 136.872 29.4478 136.872 26.5365Z" fill="#333359"/>
<path d="M149.99 11.5198V17.1549H156.471V18.7055H149.99V30.0913C149.99 32.6256 150.531 34.4043 153.501 34.4043C154.426 34.4043 155.468 34.1011 156.432 33.6474L157.088 35.1583C155.892 35.7292 154.695 36.1063 153.501 36.1063C149.45 36.1063 148.138 33.7607 148.138 30.0917V18.7059H144.086V17.1553H148.138V11.7089L149.99 11.5198Z" fill="#333359"/>
<path d="M163.338 11.0645C163.338 13.0314 160.29 13.0314 160.29 11.0645C160.29 9.0983 163.338 9.0983 163.338 11.0645ZM160.831 17.079V35.8412H162.72V17.079H160.831Z" fill="#333359"/>
<path d="M170.012 9.36426V35.8414H168.122V9.36426H170.012Z" fill="#333359"/>
<path d="M199.988 17.155L200.064 20.4855C201.261 17.9492 203.962 16.9667 206.393 16.9667C207.821 16.9286 209.207 17.3064 210.481 18.0644L209.631 19.5769C208.631 18.9718 207.51 18.7061 206.393 18.7061C202.841 18.745 200.103 21.5431 200.103 24.9482V35.8418H198.212V17.155H199.988Z" fill="#333359"/>
<path d="M176.443 29.6666C176.444 29.6682 176.445 29.6706 176.445 29.6722L191.876 25.6676C191.874 25.6616 191.873 25.6564 191.873 25.6508L176.443 29.6666Z" fill="#333359"/>
<path d="M183.883 34.7185C180.525 34.7185 177.647 32.6552 176.444 29.7246H176.433L176.442 29.723C176.442 29.7218 176.441 29.7198 176.439 29.7186L191.87 25.7023C191.87 25.7091 191.871 25.7144 191.872 25.7204L193.514 25.294C192.851 20.5607 188.793 16.9182 183.883 16.9182C178.512 16.9182 174.159 21.2797 174.159 26.6599C174.159 32.04 178.512 36.4032 183.883 36.4032C187.902 36.4032 191.349 33.9612 192.833 30.4802L191.284 29.8205C190.059 32.6989 187.206 34.7185 183.883 34.7185ZM175.84 26.6595C175.84 22.2096 179.441 18.6013 183.884 18.6013C187.357 18.6013 190.316 20.8064 191.444 23.8971L175.94 27.9307C175.874 27.5163 175.84 27.0927 175.84 26.6595Z" fill="#333359"/>
<path d="M230.95 16.9104C228.737 16.9104 226.525 16.9104 224.312 16.9104V36.5146C226.525 36.5146 228.737 36.5146 230.95 36.5146C237.811 36.5146 241.004 31.4735 240.892 26.4885C240.78 21.6714 237.587 16.9104 230.95 16.9104ZM230.95 18.3387C236.607 18.3387 239.295 22.3996 239.379 26.4885C239.463 30.6894 236.775 35.0583 230.95 35.0583H225.824V18.3387H230.95Z" fill="#333359"/>
<path d="M261.665 36.5146L252.871 16.9104H251.219L242.425 36.5146H244.049L246.178 31.6976H257.884L260.041 36.5146H261.665ZM246.766 30.2973L252.031 18.3667L257.296 30.2973H246.766Z" fill="#333359"/>
<path d="M266.694 36.5146H268.207V18.2827H275.292V16.9384H259.609V18.2827H266.694V36.5146Z" fill="#333359"/>
<path d="M295.517 36.5146L286.723 16.9104H285.071L276.277 36.5146H277.901L280.03 31.6976H291.736L293.893 36.5146H295.517ZM280.618 30.2973L285.883 18.3667L291.148 30.2973H280.618Z" fill="#333359"/>
</svg>
