<svg id="mobile" width="323" height="57" viewBox="0 0 323 57" fill="none" xmlns="http://www.w3.org/2000/svg">
<path d="M15.6924 45.7552C18.3785 48.4825 25.5263 55.8812 25.523 55.8887C25.4975 55.9373 32.6251 48.67 35.4637 45.7891L25.5614 35.7334L15.6924 45.7552Z" fill="#3A1888"/>
<path d="M25.5615 35.7334L35.4635 45.7891C35.4783 45.7711 35.496 45.7527 35.5121 45.7381L45.4058 35.6912L35.5039 25.6367L25.5615 35.7334Z" fill="#03A1C4"/>
<path d="M45.4063 35.6911L45.4318 35.6643C50.9038 30.1088 50.9079 21.1033 45.4483 15.5391L35.5039 25.637L45.4063 35.6911Z" fill="#05D0DF"/>
<path d="M15.6171 25.6367L5.75098 35.656C5.75345 35.6589 5.75469 35.6623 5.7584 35.664L15.676 45.7381C15.681 45.7435 15.6867 45.7481 15.6921 45.7552L25.5611 35.7334L15.6171 25.6367Z" fill="#761FE8"/>
<path d="M25.5615 15.5391L35.5039 25.6371L45.4479 15.5391C45.4396 15.5337 45.4367 15.5291 45.4314 15.5219L35.5125 5.45075C35.5109 5.44782 35.5072 5.44573 35.5039 5.44238L25.5615 15.5391Z" fill="#FFAA01"/>
<path d="M5.70859 15.5742C0.284847 21.1376 0.298861 30.1109 5.75145 35.6567L15.6176 25.6374L5.70859 15.5742Z" fill="#F1175D"/>
<path d="M25.5615 15.539L15.6522 5.47656L5.75886 15.5218C5.74196 15.539 5.72671 15.5574 5.70898 15.5737L15.618 25.6365L25.5615 15.539Z" fill="#FB3A1B"/>
<path d="M35.5041 5.44231C30.0251 -0.111443 21.1519 -0.108095 15.6767 5.45068L15.6523 5.47663L25.5617 15.539L35.5041 5.44231Z" fill="#FBC935"/>
<path d="M76.5176 38.2105V27.92C76.5176 25.3866 75.2123 23.087 72.6395 23.087C70.1059 23.087 68.6105 25.3866 68.6105 27.92V38.2105H63.9287V18.9559H68.2652L68.6105 21.2952C69.6084 19.3452 71.7962 18.6445 73.5982 18.6445C75.8643 18.6445 78.128 19.5812 79.2033 22.2298C80.8916 19.5013 83.081 18.722 85.5359 18.722C90.9102 18.722 93.5579 22.0729 93.5579 27.8426V38.2105H88.8753V27.8426C88.8753 25.31 87.8395 23.1649 85.308 23.1649C82.7731 23.1649 81.199 25.3866 81.199 27.92V38.2105H76.5176Z" fill="currentColor"/>
<path d="M113.325 18.9966H117.816V38.2114H113.401L113.17 35.4055C112.096 37.6644 109.142 38.7547 107.03 38.7945C101.428 38.8355 97.2812 35.3255 97.2812 28.5827C97.2812 21.9582 101.62 18.4901 107.147 18.5286C109.679 18.5286 112.097 19.7362 113.17 21.6468L113.325 18.9966ZM101.964 28.5827C101.964 32.2454 104.458 34.4294 107.568 34.4294C114.936 34.4294 114.936 22.7761 107.568 22.7761C104.458 22.7761 101.964 24.9208 101.964 28.5827Z" fill="currentColor"/>
<path d="M121.769 46.2416V18.9964H126.146L126.451 21.6467C127.911 19.502 130.444 18.5674 132.593 18.5674C138.425 18.5674 142.304 22.9722 142.304 28.6231C142.304 34.2359 138.81 38.6796 132.746 38.6796C130.751 38.6796 127.795 38.0543 126.451 35.9498V46.2416H121.769ZM137.622 28.6227C137.622 25.6216 135.625 23.1648 132.248 23.1648C128.869 23.1648 126.873 25.6216 126.873 28.6227C126.873 31.6224 129.062 34.0806 132.248 34.0806C135.435 34.0806 137.622 31.6224 137.622 28.6227Z" fill="currentColor"/>
<path d="M150.672 13.1494V18.956H157.12V20.5536H150.672V32.2856C150.672 34.8961 151.21 36.7293 154.165 36.7293C155.086 36.7293 156.122 36.4167 157.081 35.9496L157.734 37.507C156.544 38.093 155.353 38.4831 154.165 38.4831C150.135 38.4831 148.829 36.0659 148.829 32.2856V20.5536H144.799V18.956H148.829V13.344L150.672 13.1494Z" fill="currentColor"/>
<path d="M163.952 12.6808C163.952 14.7078 160.921 14.7078 160.921 12.6808C160.921 10.6546 163.952 10.6546 163.952 12.6808ZM161.459 18.8779V38.2108H163.338V18.8779H161.459Z" fill="currentColor"/>
<path d="M170.591 10.9287V38.2111H168.711V10.9287H170.591Z" fill="currentColor"/>
<path d="M200.415 18.9561L200.49 22.3874C201.681 19.7739 204.368 18.7614 206.786 18.7614C208.207 18.7225 209.586 19.1118 210.854 19.8924L210.008 21.4506C209.013 20.8274 207.897 20.5537 206.786 20.5537C203.253 20.5943 200.529 23.4773 200.529 26.9851V38.2107H198.647V18.9561H200.415Z" fill="currentColor"/>
<path d="M176.988 31.8468C176.99 31.8485 176.991 31.8497 176.991 31.8518L192.342 27.7266C192.34 27.7215 192.34 27.7153 192.34 27.709L176.988 31.8468Z" fill="currentColor"/>
<path d="M184.394 37.051C181.053 37.051 178.19 34.926 176.992 31.9074H176.982L176.991 31.9058C176.991 31.9037 176.989 31.9016 176.988 31.9003L192.339 27.7629C192.339 27.7696 192.34 27.7755 192.341 27.7805L193.975 27.3415C193.314 22.4645 189.278 18.7109 184.394 18.7109C179.051 18.7109 174.719 23.2049 174.719 28.7482C174.719 34.2915 179.051 38.7859 184.394 38.7859C188.392 38.7859 191.821 36.2713 193.298 32.6843L191.758 32.0045C190.537 34.9717 187.7 37.051 184.394 37.051ZM176.391 28.7482C176.391 24.163 179.974 20.4454 184.394 20.4454C187.849 20.4454 190.793 22.7173 191.914 25.9021L176.491 30.0583C176.426 29.6309 176.391 29.1944 176.391 28.7482Z" fill="currentColor"/>
<path d="M242.135 21.7595L234.9 33.0001H234.414L227.125 21.7595V38.8134H225.666V19.6211C226.368 19.6211 226.692 19.6211 227.393 19.6211L234.629 30.806L241.783 19.6211H243.566V38.8134H242.134V21.7595H242.135Z" fill="currentColor"/>
<path d="M265.972 29.244C265.944 34.2884 262.786 39.1403 256.441 39.1403C250.097 39.1403 246.911 34.2616 246.911 29.1884C246.911 24.0347 250.07 19.3193 256.441 19.3193C262.813 19.3193 265.998 24.0619 265.972 29.244ZM248.341 29.216C248.368 33.5476 251.067 37.7703 256.441 37.7703C261.841 37.7703 264.567 33.5476 264.567 29.216C264.567 24.7756 261.867 20.6901 256.441 20.6901C251.015 20.6901 248.315 24.6931 248.341 29.216Z" fill="currentColor"/>
<path d="M283.409 24.8576C283.409 26.8319 282.22 28.3667 280.331 28.9703C282.706 29.6287 284.057 31.5749 284.057 33.7958C284.057 37.7435 280.439 38.8134 277.198 38.8134C274.445 38.8134 272.204 38.8134 269.449 38.8134V19.6211C272.176 19.6211 274.445 19.6211 277.198 19.6211C280.384 19.6211 283.409 21.2112 283.409 24.8576ZM270.908 28.3119H277.387C279.655 28.3119 282.032 27.5991 282.032 24.8576C282.032 22.0617 279.548 20.8822 277.198 20.8822H270.908V28.3119ZM270.908 37.3873H277.198C279.575 37.3873 282.624 36.8118 282.624 33.7677C282.598 30.7797 279.925 29.7107 277.387 29.7107C275.119 29.7107 273.175 29.7107 270.908 29.7107V37.3873Z" fill="currentColor"/>
<path d="M287.564 38.8134V19.6211H288.994V38.8134H287.564Z" fill="currentColor"/>
<path d="M294.608 19.6211V37.4141H305.246V38.8134H293.15V19.6211H294.608Z" fill="currentColor"/>
<path d="M309.428 28.4768H320.497V29.8199H309.428V37.3873H321.362V38.8134H307.998V19.6211H321.037V21.0195H309.428V28.4768H309.428Z" fill="currentColor"/>
</svg>
