<svg width="180" height="202" viewBox="0 0 180 202" fill="none" xmlns="http://www.w3.org/2000/svg">
<path d="M53.0841 163.712C63.1225 173.748 89.8434 200.987 89.8309 201.015C89.7334 201.193 116.376 174.442 126.988 163.837L89.9725 126.824L53.0841 163.712Z" fill="#3A1888"/>
<path d="M89.9727 126.824L126.988 163.837C127.043 163.775 127.111 163.706 127.17 163.651L164.149 126.67L127.138 89.6575L89.9727 126.824Z" fill="#03A1C4"/>
<path d="M164.149 126.67L164.244 126.574C184.7 106.121 184.716 72.9708 164.305 52.4919L127.138 89.6574L164.149 126.67Z" fill="#05D0DF"/>
<path d="M52.8053 89.6575L15.9233 126.538C15.9338 126.551 15.9401 126.563 15.9529 126.574L53.0232 163.651C53.0441 163.67 53.0653 163.689 53.0845 163.712L89.9728 126.824L52.8053 89.6575Z" fill="#761FE8"/>
<path d="M89.9727 52.4895L127.138 89.6574L164.306 52.4919C164.276 52.4707 164.266 52.4494 164.244 52.4284L127.17 15.3558C127.162 15.3451 127.149 15.3348 127.138 15.3242L89.9727 52.4895Z" fill="#FFAA01"/>
<path d="M15.7666 52.6185C-4.50707 73.0976 -4.45626 106.125 15.923 126.538L52.805 89.6575L15.7666 52.6185Z" fill="#F1175D"/>
<path d="M89.9723 52.4895L52.9317 15.4489L15.9524 52.4282C15.8888 52.4916 15.8318 52.5595 15.7662 52.6184L52.8048 89.6572L89.9723 52.4895Z" fill="#FB3A1B"/>
<path d="M127.138 15.3242C106.657 -5.11876 73.4892 -5.10788 53.0233 15.3558L52.9324 15.4489L89.973 52.4893L127.138 15.3242Z" fill="#FBC935"/>
</svg>
