<svg id="geodata-hosting" width="30" height="30" viewBox="0 0 30 30" fill="none" xmlns="http://www.w3.org/2000/svg">
<circle cx="15" cy="15" r="15" fill="#0E61C6"/>
<path d="M15.0008 22.2405L8.44175 18.2556L7 19.1319L15.0097 23.9999L23.0195 19.1319L21.5688 18.2486L15.0008 22.2405ZM15.0097 20.4741L21.5599 16.4892L23.0195 15.606L15.0097 10.7379L7 15.606L8.45065 16.4892L15.0097 20.4741Z" fill="white"/>
<path d="M14.8674 6.52509C12.6533 6.52509 10.8625 8.12795 10.8625 10.1098C10.8625 12.7983 14.8674 16.767 14.8674 16.767C14.8674 16.767 18.8723 12.7983 18.8723 10.1098C18.8723 8.12795 17.0815 6.52509 14.8674 6.52509ZM14.8674 11.39C14.0779 11.39 13.4371 10.8165 13.4371 10.1098C13.4371 9.40307 14.0779 8.82952 14.8674 8.82952C15.6569 8.82952 16.2977 9.40307 16.2977 10.1098C16.2977 10.8165 15.6569 11.39 14.8674 11.39Z" fill="white"/>
<path fill-rule="evenodd" clip-rule="evenodd" d="M10.3373 10.1098C10.3373 7.78472 12.4194 5.99994 14.8674 5.99994C17.3153 5.99994 19.3975 7.78472 19.3975 10.1098C19.3975 10.9006 19.1068 11.7388 18.7162 12.5193C18.3214 13.3081 17.8007 14.0843 17.2892 14.7628C16.7765 15.4431 16.265 16.0357 15.8822 16.4578C15.6906 16.6692 15.5305 16.8385 15.4179 16.9556C15.3615 17.0141 15.317 17.0596 15.2862 17.0908C15.2708 17.1064 15.2589 17.1184 15.2506 17.1267L15.241 17.1363L15.2375 17.1398L15.2372 17.14C15.2372 17.14 15.2371 17.1402 14.8674 16.7671C14.4977 17.1402 14.4975 17.14 14.4975 17.14L14.4972 17.1398L14.4938 17.1363L14.4842 17.1267C14.4759 17.1184 14.4639 17.1064 14.4485 17.0908C14.4178 17.0596 14.3732 17.0141 14.3169 16.9556C14.2042 16.8385 14.0442 16.6692 13.8525 16.4578C13.4698 16.0357 12.9583 15.4431 12.4455 14.7628C11.934 14.0843 11.4134 13.3081 11.0186 12.5193C10.6279 11.7388 10.3373 10.9006 10.3373 10.1098ZM14.8674 16.7671L14.4977 17.1402L14.8674 17.5066L15.2371 17.1402L14.8674 16.7671ZM14.8674 16.0094C14.9384 15.9334 15.0178 15.8473 15.104 15.7522C15.4722 15.3461 15.9619 14.7785 16.4504 14.1305C16.9401 13.4808 17.4207 12.7607 17.7768 12.0492C18.137 11.3295 18.347 10.6633 18.347 10.1098C18.347 8.47134 16.8477 7.0504 14.8674 7.0504C12.8871 7.0504 11.3877 8.47134 11.3877 10.1098C11.3877 10.6633 11.5977 11.3295 11.958 12.0492C12.3141 12.7607 12.7946 13.4808 13.2844 14.1305C13.7728 14.7785 14.2625 15.3461 14.6307 15.7522C14.7169 15.8473 14.7964 15.9334 14.8674 16.0094ZM12.9118 10.1098C12.9118 9.05985 13.844 8.30438 14.8674 8.30438C15.8907 8.30438 16.8229 9.05985 16.8229 10.1098C16.8229 11.1599 15.8907 11.9153 14.8674 11.9153C13.844 11.9153 12.9118 11.1599 12.9118 10.1098Z" fill="#0E61C6"/>
</svg>
