<svg id="geodata-processing" width="30" height="30" viewBox="0 0 30 30" fill="none" xmlns="http://www.w3.org/2000/svg">
<circle cx="15" cy="15" r="15" fill="#593895"/>
<path d="M20.2933 17.0136C20.3256 16.7716 20.3417 16.5215 20.3417 16.2553C20.3417 15.9972 20.3256 15.739 20.2853 15.497L21.9229 14.2223C22.0682 14.1094 22.1085 13.8916 22.0197 13.7302L20.4708 11.0519C20.374 10.8744 20.1723 10.8179 19.9948 10.8744L18.0668 11.6489C17.6634 11.3423 17.2358 11.0842 16.7599 10.8905L16.4694 8.84144C16.4372 8.64783 16.2758 8.51068 16.0822 8.51068H12.9843C12.7907 8.51068 12.6374 8.64783 12.6052 8.84144L12.3148 10.8905C11.8388 11.0842 11.4031 11.3504 11.0078 11.6489L9.07976 10.8744C8.90228 10.8099 8.70059 10.8744 8.60378 11.0519L7.06293 13.7302C6.96612 13.8997 6.99839 14.1094 7.15973 14.2223L8.7974 15.497C8.75706 15.739 8.72479 16.0052 8.72479 16.2553C8.72479 16.5054 8.74093 16.7716 8.78127 17.0136L7.1436 18.2883C6.99839 18.4012 6.95805 18.619 7.04679 18.7804L8.59572 21.4587C8.69253 21.6362 8.89421 21.6927 9.07169 21.6362L10.9998 20.8618C11.4031 21.1683 11.8307 21.4265 12.3067 21.6201L12.5971 23.6692C12.6374 23.8628 12.7907 23.9999 12.9843 23.9999H16.0822C16.2758 23.9999 16.4372 23.8628 16.4614 23.6692L16.7518 21.6201C17.2278 21.4265 17.6634 21.1683 18.0587 20.8618L19.9868 21.6362C20.1643 21.7008 20.3659 21.6362 20.4628 21.4587L22.0117 18.7804C22.1085 18.6029 22.0682 18.4012 21.9149 18.2883L20.2933 17.0136ZM14.5333 19.1596C12.9359 19.1596 11.629 17.8526 11.629 16.2553C11.629 14.658 12.9359 13.3511 14.5333 13.3511C16.1306 13.3511 17.4375 14.658 17.4375 16.2553C17.4375 17.8526 16.1306 19.1596 14.5333 19.1596Z" fill="white"/>
<path d="M14.3997 6.49402C12.3173 6.49402 10.6331 8.00154 10.6331 9.86547C10.6331 12.3941 14.3997 16.1267 14.3997 16.1267C14.3997 16.1267 18.1663 12.3941 18.1663 9.86547C18.1663 8.00154 16.4821 6.49402 14.3997 6.49402ZM14.3997 11.0696C13.6571 11.0696 13.0545 10.5301 13.0545 9.86547C13.0545 9.20081 13.6571 8.66138 14.3997 8.66138C15.1423 8.66138 15.7449 9.20081 15.7449 9.86547C15.7449 10.5301 15.1423 11.0696 14.3997 11.0696Z" fill="white"/>
<path fill-rule="evenodd" clip-rule="evenodd" d="M10.1389 9.86543C10.1389 7.67862 12.0972 6 14.3995 6C16.7019 6 18.6602 7.67862 18.6602 9.86543C18.6602 10.6092 18.3868 11.3975 18.0194 12.1316C17.6481 12.8734 17.1584 13.6034 16.6773 14.2416C16.1951 14.8814 15.714 15.4388 15.354 15.8358C15.1738 16.0346 15.0233 16.1938 14.9173 16.3039C14.8643 16.359 14.8224 16.4018 14.7934 16.4311C14.779 16.4458 14.7677 16.4571 14.76 16.4649L14.7509 16.4739L14.7477 16.4772L14.7474 16.4774C14.7474 16.4774 14.7473 16.4776 14.3995 16.1267C14.0518 16.4776 14.0517 16.4774 14.0517 16.4774L14.0514 16.4772L14.0482 16.4739L14.0391 16.4649C14.0313 16.4571 14.0201 16.4458 14.0056 16.4311C13.9767 16.4018 13.9348 16.359 13.8818 16.3039C13.7758 16.1938 13.6253 16.0346 13.445 15.8358C13.0851 15.4388 12.604 14.8814 12.1217 14.2416C11.6407 13.6034 11.151 12.8734 10.7797 12.1316C10.4122 11.3975 10.1389 10.6092 10.1389 9.86543ZM14.3995 16.1267L14.0518 16.4776L14.3995 16.8221L14.7473 16.4776L14.3995 16.1267ZM14.3995 15.414C14.4663 15.3426 14.541 15.2616 14.6221 15.1721C14.9684 14.7903 15.429 14.2564 15.8884 13.6469C16.349 13.0359 16.8009 12.3586 17.1359 11.6894C17.4747 11.0125 17.6722 10.386 17.6722 9.86543C17.6722 8.32439 16.262 6.98797 14.3995 6.98797C12.537 6.98797 11.1269 8.32439 11.1269 9.86543C11.1269 10.386 11.3244 11.0125 11.6632 11.6894C11.9981 12.3586 12.4501 13.0359 12.9107 13.6469C13.3701 14.2564 13.8307 14.7903 14.1769 15.1721C14.2581 15.2616 14.3328 15.3426 14.3995 15.414ZM12.5603 9.86543C12.5603 8.87789 13.4371 8.16736 14.3995 8.16736C15.362 8.16736 16.2387 8.87789 16.2387 9.86543C16.2387 10.853 15.362 11.5635 14.3995 11.5635C13.4371 11.5635 12.5603 10.853 12.5603 9.86543Z" fill="#593895"/>
</svg>
