<svg id="geolocation" width="30" height="30" viewBox="0 0 30 30" fill="none" xmlns="http://www.w3.org/2000/svg">
<circle cx="15" cy="15" r="15" fill="#1F65C3"/>
<path fill-rule="evenodd" clip-rule="evenodd" d="M15.2749 21.5017C18.7138 21.5017 21.5016 18.714 21.5016 15.2751C21.5016 11.8362 18.7138 9.04837 15.2749 9.04837C11.836 9.04837 9.04825 11.8362 9.04825 15.2751C9.04825 18.714 11.836 21.5017 15.2749 21.5017ZM15.2749 22.6087C19.3252 22.6087 22.6086 19.3253 22.6086 15.2751C22.6086 11.2248 19.3252 7.94141 15.2749 7.94141C11.2247 7.94141 7.94128 11.2248 7.94128 15.2751C7.94128 19.3253 11.2247 22.6087 15.2749 22.6087Z" fill="white"/>
<path fill-rule="evenodd" clip-rule="evenodd" d="M17.4335 16.8351C16.9788 17.5465 16.182 18.0182 15.275 18.0182C13.8612 18.0182 12.7151 16.8721 12.7151 15.4583C12.7151 14.0446 13.8612 12.8985 15.275 12.8985C16.1389 12.8985 16.9029 13.3264 17.3664 13.9819L18.328 13.4267C17.6707 12.4409 16.5487 11.7915 15.275 11.7915C13.2498 11.7915 11.6082 13.4332 11.6082 15.4583C11.6082 17.4835 13.2498 19.1252 15.275 19.1252C16.5917 19.1252 17.7463 18.4312 18.393 17.389L17.4335 16.8351ZM17.5779 14.3392C17.7425 14.6773 17.8348 15.057 17.8348 15.4583C17.8348 15.8169 17.7611 16.1583 17.628 16.4681L18.5915 17.0243C18.8162 16.5494 18.9418 16.0186 18.9418 15.4583C18.9418 14.8554 18.7963 14.2864 18.5384 13.7846L17.5779 14.3392Z" fill="white"/>
<path fill-rule="evenodd" clip-rule="evenodd" d="M16.1428 14.5138L14.9185 15.2751L16.1428 16.0363C15.9258 16.3531 15.5768 16.5585 15.1833 16.5585C14.5251 16.5585 13.9916 15.9839 13.9916 15.2751C13.9916 14.5663 14.5251 13.9917 15.1833 13.9917C15.5768 13.9917 15.9258 14.1971 16.1428 14.5138ZM16.3222 14.8963L15.7129 15.2751L16.3222 15.6539C16.3565 15.5342 16.375 15.407 16.375 15.2751C16.375 15.1432 16.3565 15.016 16.3222 14.8963Z" fill="white"/>
<path fill-rule="evenodd" clip-rule="evenodd" d="M9.82688 20.7587L7.97693 22.6087L7.3913 22.0231L9.27252 20.1418C9.44627 20.3573 9.63136 20.5632 9.82688 20.7587ZM20.7587 9.82694L22.6086 7.97699L22.023 7.39136L20.1418 9.27258C20.3572 9.44634 20.5632 9.63142 20.7587 9.82694Z" fill="white"/>
<path fill-rule="evenodd" clip-rule="evenodd" d="M20.7632 20.8273L22.566 22.6087L23.1587 22.0231L21.3317 20.2178C21.1532 20.4309 20.9634 20.6344 20.7632 20.8273ZM9.70052 9.89639C9.8958 9.69853 10.1017 9.51098 10.3174 9.33464L8.35068 7.39136L7.758 7.97699L9.70052 9.89639Z" fill="white"/>
<path d="M15.275 15.275L19.4918 12.8916L19.4918 17.6584L15.275 15.275Z" fill="white"/>
<path fill-rule="evenodd" clip-rule="evenodd" d="M15.0916 13.8083L15.0916 12.5249L15.275 12.5249L15.275 13.8083L15.0916 13.8083Z" fill="white"/>
<path fill-rule="evenodd" clip-rule="evenodd" d="M15.0916 18.0251L15.0916 16.925L15.275 16.925L15.275 18.0251L15.0916 18.0251Z" fill="white"/>
<path fill-rule="evenodd" clip-rule="evenodd" d="M13.6249 15.4582L12.3415 15.4582L12.3415 15.0916L13.6249 15.0916L13.6249 15.4582Z" fill="white"/>
<path fill-rule="evenodd" clip-rule="evenodd" d="M18.0251 15.4582L16.7417 15.4582L16.7417 15.0916L18.0251 15.0916L18.0251 15.4582Z" fill="white"/>
</svg>
