<svg id="map-server" width="30" height="30" viewBox="0 0 30 30" fill="none" xmlns="http://www.w3.org/2000/svg">
<circle cx="15" cy="15" r="15" fill="#64A856"/>
<path d="M7 22.5C7 22.7762 7.22386 23 7.5 23H21.862C22.1381 23 22.362 22.7762 22.362 22.5V20.3796C22.362 20.1035 22.1381 19.8796 21.862 19.8796H7.5C7.22386 19.8796 7 20.1035 7 20.3796V22.5ZM8.5362 21.1597C8.5362 20.8836 8.76006 20.6597 9.0362 20.6597H9.5724C9.84854 20.6597 10.0724 20.8836 10.0724 21.1597V21.7199C10.0724 21.996 9.84854 22.2199 9.5724 22.2199H9.0362C8.76006 22.2199 8.5362 21.9961 8.5362 21.7199V21.1597ZM7.5 10.5184C7.22386 10.5184 7 10.7423 7 11.0184V13.1388C7 13.4149 7.22386 13.6388 7.5 13.6388H21.862C22.1381 13.6388 22.362 13.4149 22.362 13.1388V11.0184C22.362 10.7423 22.1381 10.5184 21.862 10.5184H7.5ZM10.0724 12.3587C10.0724 12.6348 9.84854 12.8587 9.5724 12.8587H9.0362C8.76006 12.8587 8.5362 12.6348 8.5362 12.3587V11.7985C8.5362 11.5224 8.76006 11.2985 9.0362 11.2985H9.5724C9.84854 11.2985 10.0724 11.5224 10.0724 11.7985V12.3587ZM7 17.8194C7 18.0955 7.22386 18.3194 7.5 18.3194H21.862C22.1381 18.3194 22.362 18.0955 22.362 17.8194V15.699C22.362 15.4229 22.1381 15.199 21.862 15.199H7.5C7.22386 15.199 7 15.4229 7 15.699V17.8194ZM8.5362 16.4791C8.5362 16.203 8.76006 15.9791 9.0362 15.9791H9.5724C9.84854 15.9791 10.0724 16.203 10.0724 16.4791V17.0393C10.0724 17.3154 9.84854 17.5393 9.5724 17.5393H9.0362C8.76006 17.5393 8.5362 17.3154 8.5362 17.0393V16.4791Z" fill="white"/>
<circle cx="17.0233" cy="11.6063" r="5.60626" fill="#64A856"/>
<path d="M20.6558 9.18431L20.5213 9.22916L19.8037 9.27401L19.5794 9.58796L19.4449 9.54311L18.9067 9.09461L18.817 8.78066L18.6824 8.46671L18.3685 8.19761L17.92 8.10791V8.28731L18.3685 8.69096L18.5927 8.96006L18.3236 9.09461L18.1442 9.04976L17.92 8.87036V8.64611L17.5612 8.51156L17.3818 9.00491L17.023 9.13946L17.0678 9.40856L17.5163 9.45341L17.606 9.00491L18.0097 9.04976L18.1891 9.13946H18.503L18.7273 9.54311L19.2206 10.0813V10.3056L18.7721 10.2607L18.0545 10.6644L17.5612 11.2923L17.4715 11.6062H17.2921L16.9333 11.4268L16.5745 11.6062L16.6642 12.0099L16.8436 11.8305H17.1127V12.1893L17.3369 12.2341L17.5612 12.5032L17.92 12.4135L18.3685 12.5032L18.817 12.6378L19.0861 12.6826L19.4897 13.1311L20.2522 13.5796L19.7588 14.5215L19.2655 14.7457L19.0412 15.2839L18.2788 15.7773L18.0994 16.0912C20.0728 15.6427 21.508 13.8936 21.508 11.7856C21.4183 10.7541 21.1492 9.90191 20.6558 9.18431Z" fill="white"/>
<path d="M17.4716 13.9385L17.1128 13.3554L17.4267 12.7275L17.1128 12.6378L16.754 12.279L16.0364 12.0996L15.8121 11.6063V11.9202H15.7224L15.0945 11.0681V10.3505L14.646 9.63286L13.9284 9.76741H13.3902L13.1211 9.58801L13.4799 9.31891L13.1211 9.40861C12.7623 10.0814 12.5381 10.8438 12.5381 11.6511C12.5381 14.1179 14.5563 16.0913 16.9782 16.0913C17.1576 16.0913 17.3819 16.0913 17.5164 16.0464L17.4716 15.4634L17.6958 14.6561C17.6958 14.6112 17.4716 13.9385 17.4716 13.9385Z" fill="white"/>
<path d="M14.1527 8.60121L14.96 8.46666L15.3637 8.24241L15.8122 8.37696L16.4401 8.33211L16.6643 7.97331L16.9783 8.06301L17.7407 8.01816L17.965 7.74906L18.2789 7.52481L18.7274 7.61451L18.9068 7.56966C18.3686 7.30056 17.6959 7.12115 17.0231 7.12115C15.6776 7.12115 14.4218 7.74906 13.6145 8.73576L14.1527 8.60121ZM17.1577 7.61451L17.6062 7.34541L17.9201 7.56966L17.4716 7.92846L17.068 7.97331L16.8437 7.83876L17.1577 7.61451ZM15.8122 7.65936L15.9916 7.74906L16.2607 7.65936L16.3952 7.92846L15.8122 8.10786L15.5431 7.92846C15.5431 7.92846 15.8122 7.70421 15.8122 7.65936Z" fill="white"/>
</svg>
