<svg id="static-maps" width="30" height="30" viewBox="0 0 30 30" fill="none" xmlns="http://www.w3.org/2000/svg">
<circle cx="15" cy="15" r="15" fill="#0E61C6"/>
<path fill-rule="evenodd" clip-rule="evenodd" d="M10.8466 9.51057C10.9051 10.0448 10.9964 10.6357 11.1413 11.2209L12.0221 11.2209C11.8627 10.6358 11.7589 10.0117 11.694 9.41789C11.6246 8.78396 11.6017 8.20778 11.5962 7.78995C11.5948 7.68935 11.5945 7.5981 11.5948 7.51762L15.4957 8.56286L16.9389 11.2209L17.9089 11.2209L16.6308 8.867L24.6952 11.0279L23.9704 13.733C23.7337 13.6967 23.4568 13.6604 23.1577 13.6329L23.1546 13.6326L23.1546 14.4888C23.3681 14.5098 23.5687 14.5354 23.7483 14.5616L23.1546 16.7774L23.1546 20.8942L25.8347 10.892C25.9261 10.5509 25.7237 10.2004 25.3826 10.109L10.6652 6.16546C10.3242 6.07408 9.97365 6.27647 9.88227 6.61751L8.64879 11.2209L9.75187 11.2209L10.7424 7.52426C10.7421 7.60685 10.7425 7.6996 10.7439 7.80121C10.7496 8.23852 10.7736 8.84288 10.8466 9.51057Z" fill="white"/>
<path fill-rule="evenodd" clip-rule="evenodd" d="M7.06568 22.7282V13.1526C7.08683 13.2325 7.11118 13.322 7.13877 13.4198C7.25754 13.8407 7.4371 14.4183 7.68046 15.0443C8.15789 16.2725 8.91475 17.7791 10.0072 18.5946C10.2192 18.7528 10.4364 18.8751 10.656 18.9691L8.77641 22.7282H7.06568ZM9.72942 22.7282L11.4913 19.2044C12.0508 19.2921 12.6027 19.2598 13.1013 19.2306C13.15 19.2277 13.1983 19.2249 13.2459 19.2222C14.2629 19.1651 15.0507 19.1656 15.7136 19.8322C16.2221 20.3435 16.5956 21.2455 16.8432 22.0816C16.9115 22.3123 16.9685 22.5319 17.0152 22.7282H9.72942ZM9.19667 23.7937L6.63948 23.7937C6.28641 23.7937 6.00018 23.5074 6.00018 23.1544V12.4994C6.00018 12.1463 6.28641 11.8601 6.63948 11.8601H21.8761C22.2291 11.8601 22.5154 12.1463 22.5154 12.4994V23.1544C22.5154 23.5074 22.2291 23.7937 21.8761 23.7937L9.19667 23.7937ZM21.2282 22.7282H17.8898C17.8333 22.4739 17.7577 22.1678 17.6605 21.8396C17.4319 21.0675 17.0652 20.1066 16.5012 19.4324C16.6113 19.2976 16.7624 19.1178 16.943 18.9157C17.0447 18.8018 17.155 18.6818 17.272 18.5592L21.2282 22.7282ZM21.4499 21.7234L17.8815 17.9632C18.0513 17.8095 18.2269 17.6616 18.4042 17.5273C18.9819 17.0897 19.9256 16.8273 20.7834 16.6799C21.0224 16.6388 21.2486 16.6076 21.4499 16.584V21.7234ZM17.2946 17.3447C17.4856 17.1712 17.6854 17.0024 17.8895 16.8478C18.6424 16.2776 19.7641 15.9901 20.639 15.8398C20.935 15.7889 21.2119 15.7523 21.4499 15.7261V12.9256H13.1009L17.2946 17.3447ZM16.6846 17.9402L11.9258 12.9256H7.88734C7.9079 13.0034 7.93182 13.0915 7.95914 13.1883C8.07261 13.5905 8.24389 14.1411 8.47494 14.7355C8.94631 15.9481 9.63251 17.2512 10.5171 17.9115C11.278 18.4796 12.1232 18.4318 13.1336 18.3748L13.1981 18.3712C14.0408 18.3238 15.0085 18.2808 15.8691 18.8589C15.9827 18.7207 16.1318 18.5442 16.3074 18.3477C16.4218 18.2197 16.5484 18.082 16.6846 17.9402Z" fill="white"/>
</svg>
