<svg id="maps-platform" width="30" height="30" viewBox="0 0 30 30" fill="none" xmlns="http://www.w3.org/2000/svg">
<circle cx="15" cy="15" r="15" fill="#0E61C6"/>
<path fill-rule="evenodd" clip-rule="evenodd" d="M21.643 14.5C21.643 14.7922 21.6253 15.0667 21.5899 15.3323L23.3696 16.7312C23.5378 16.8552 23.5821 17.0766 23.4758 17.2714L21.7758 20.2109C21.6696 20.4057 21.4482 20.4766 21.2534 20.4057L19.1373 19.5557C18.7034 19.8922 18.2253 20.1755 17.7029 20.388L17.3842 22.637C17.3576 22.8495 17.1805 23 16.968 23H13.568C13.3555 23 13.1873 22.8495 13.143 22.637L12.8243 20.388C12.3019 20.1755 11.8326 19.8922 11.3899 19.5557L9.27375 20.4057C9.07896 20.4677 8.8576 20.4057 8.75135 20.2109L7.05135 17.2714C6.95396 17.0943 6.99823 16.8552 7.1576 16.7312L8.955 15.3323C8.91073 15.0667 8.89302 14.7745 8.89302 14.5C8.89302 14.2255 8.92844 13.9333 8.97271 13.6677L7.17531 12.2687C6.99823 12.1448 6.96281 11.9146 7.06906 11.7286L8.76021 8.78906C8.86646 8.59427 9.08781 8.52344 9.2826 8.59427L11.3988 9.44427C11.8326 9.11667 12.3107 8.82448 12.8331 8.61198L13.1519 6.36302C13.1873 6.15052 13.3555 6 13.568 6H16.968C17.1805 6 17.3576 6.15052 17.393 6.36302L17.7118 8.61198C18.2342 8.82448 18.7034 9.10781 19.1461 9.44427L21.2623 8.59427C21.4571 8.53229 21.6784 8.59427 21.7847 8.78906L23.4847 11.7286C23.5821 11.9057 23.5378 12.1448 23.3784 12.2687L21.581 13.6677C21.6253 13.9333 21.643 14.2167 21.643 14.5ZM15.4115 18.8385C17.8565 18.8385 19.8385 16.8565 19.8385 14.4115C19.8385 11.9664 17.8565 9.98438 15.4115 9.98438C12.9664 9.98438 10.9844 11.9664 10.9844 14.4115C10.9844 16.8565 12.9664 18.8385 15.4115 18.8385Z" fill="white"/>
<path d="M13.9051 15.646C13.8765 15.5516 13.8441 15.4546 13.8077 15.355C13.7739 15.2554 13.7401 15.1558 13.7063 15.0562H12.6534C12.6196 15.1558 12.5846 15.2554 12.5482 15.355C12.5144 15.4546 12.4832 15.5516 12.4546 15.646H11.8229C11.9243 15.3524 12.0204 15.0811 12.1114 14.8321C12.2024 14.5831 12.2908 14.3486 12.3766 14.1284C12.465 13.9082 12.5508 13.6999 12.6339 13.5033C12.7197 13.3041 12.8081 13.1101 12.8991 12.9214H13.4801C13.5685 13.1101 13.6556 13.3041 13.7414 13.5033C13.8272 13.6999 13.9129 13.9082 13.9987 14.1284C14.0871 14.3486 14.1768 14.5831 14.2678 14.8321C14.3588 15.0811 14.455 15.3524 14.5563 15.646H13.9051ZM13.176 13.5387C13.163 13.578 13.1435 13.6317 13.1175 13.6999C13.0915 13.768 13.0616 13.8466 13.0278 13.9357C12.994 14.0249 12.9563 14.1231 12.9147 14.2306C12.8757 14.3381 12.8354 14.4508 12.7938 14.5687H13.562C13.5204 14.4508 13.4801 14.3381 13.4411 14.2306C13.4021 14.1231 13.3644 14.0249 13.328 13.9357C13.2942 13.8466 13.2643 13.768 13.2384 13.6999C13.2124 13.6317 13.1916 13.578 13.176 13.5387Z" fill="white"/>
<path d="M15.7172 12.89C16.1201 12.89 16.4295 12.962 16.6452 13.1062C16.861 13.2477 16.9689 13.481 16.9689 13.806C16.9689 14.1336 16.8597 14.3708 16.6414 14.5176C16.423 14.6618 16.111 14.7338 15.7055 14.7338H15.5144V15.646H14.9061V12.9607C15.0387 12.9345 15.1791 12.9162 15.3273 12.9057C15.4754 12.8952 15.6054 12.89 15.7172 12.89ZM15.7562 13.4128C15.712 13.4128 15.6678 13.4142 15.6236 13.4168C15.582 13.4194 15.5456 13.422 15.5144 13.4246V14.2109H15.7055C15.9161 14.2109 16.0746 14.1821 16.1812 14.1245C16.2878 14.0668 16.3411 13.9593 16.3411 13.8021C16.3411 13.7261 16.3268 13.6632 16.2982 13.6134C16.2722 13.5636 16.2332 13.5242 16.1812 13.4954C16.1318 13.464 16.0707 13.443 15.998 13.4325C15.9252 13.4194 15.8446 13.4128 15.7562 13.4128Z" fill="white"/>
<path d="M17.4156 12.9214H18.0239V15.646H17.4156V12.9214Z" fill="white"/>
</svg>
