<svg id="sdk" width="50" height="17" viewBox="0 0 50 17" fill="none" xmlns="http://www.w3.org/2000/svg">
<path d="M0 2.23615C0 1.00116 1.00116 0 2.23615 0H31.1194L26.7793 16.991H2.23615C1.00116 16.991 0 15.9898 0 14.7549V2.23615Z" fill="#E15042"/>
<path d="M8.26935 6.86282C8.23335 6.526 8.08165 6.26375 7.81425 6.07605C7.54942 5.88836 7.20489 5.79451 6.78065 5.79451C6.48239 5.79451 6.22656 5.8395 6.01316 5.9295C5.79975 6.01949 5.63648 6.14162 5.52335 6.29588C5.41022 6.45015 5.35237 6.62628 5.3498 6.82426C5.3498 6.98881 5.38708 7.13151 5.46165 7.25235C5.53878 7.3732 5.64291 7.47604 5.77404 7.56089C5.90517 7.64317 6.05044 7.71259 6.20985 7.76916C6.36926 7.82572 6.52996 7.87329 6.69194 7.91185L7.43244 8.09698C7.73069 8.1664 8.01737 8.26025 8.29249 8.37852C8.57017 8.49679 8.81829 8.64592 9.03684 8.8259C9.25795 9.00588 9.43279 9.22314 9.56135 9.47769C9.68991 9.73223 9.75419 10.0305 9.75419 10.3724C9.75419 10.8353 9.63591 11.2428 9.39937 11.595C9.16282 11.9447 8.82086 12.2185 8.37348 12.4165C7.92867 12.6119 7.39001 12.7096 6.75751 12.7096C6.143 12.7096 5.60949 12.6145 5.15696 12.4242C4.70701 12.234 4.35476 11.9563 4.10022 11.5912C3.84825 11.2261 3.71198 10.7813 3.69141 10.2567H5.09911C5.11968 10.5319 5.20453 10.7607 5.35366 10.9432C5.50278 11.1258 5.69691 11.2621 5.93602 11.3521C6.17771 11.442 6.44768 11.487 6.74594 11.487C7.05705 11.487 7.32959 11.4408 7.56356 11.3482C7.80011 11.2531 7.98523 11.1219 8.11893 10.9548C8.25263 10.7851 8.32077 10.5871 8.32334 10.3609C8.32077 10.1552 8.26035 9.98549 8.14207 9.85179C8.0238 9.71552 7.85796 9.60239 7.64456 9.5124C7.43372 9.41984 7.18689 9.33756 6.90406 9.26557L6.00545 9.03416C5.35494 8.86704 4.84071 8.61378 4.46275 8.27439C4.08736 7.93242 3.89967 7.47862 3.89967 6.91296C3.89967 6.44758 4.02566 6.04005 4.27763 5.69038C4.53217 5.3407 4.87799 5.06944 5.31509 4.87661C5.75219 4.6812 6.24713 4.5835 6.79993 4.5835C7.36044 4.5835 7.85153 4.6812 8.2732 4.87661C8.69744 5.06944 9.03041 5.33813 9.2721 5.68266C9.51378 6.02463 9.63849 6.41801 9.6462 6.86282H8.26935Z" fill="white"/>
<path d="M13.7064 12.5901H11.0298V4.69148H13.7604C14.5446 4.69148 15.2182 4.84961 15.7813 5.16586C16.3469 5.47954 16.7815 5.93078 17.0849 6.51958C17.3883 7.10837 17.54 7.81287 17.54 8.63306C17.54 9.45583 17.387 10.1629 17.081 10.7543C16.7776 11.3456 16.3392 11.7994 15.7659 12.1157C15.1951 12.4319 14.5086 12.5901 13.7064 12.5901ZM12.4606 11.3521H13.637C14.1872 11.3521 14.6461 11.2518 15.0138 11.0512C15.3815 10.8481 15.6579 10.546 15.843 10.1449C16.0281 9.74123 16.1207 9.23728 16.1207 8.63306C16.1207 8.02884 16.0281 7.52747 15.843 7.12894C15.6579 6.72784 15.3841 6.4283 15.0215 6.23032C14.6616 6.02977 14.2142 5.9295 13.6794 5.9295H12.4606V11.3521Z" fill="white"/>
<path d="M18.8995 12.5901V4.69148H20.3303V8.32067H20.4267L23.5083 4.69148H25.2554L22.2008 8.23582L25.2824 12.5901H23.5623L21.2058 9.20386L20.3303 10.2375V12.5901H18.8995Z" fill="white"/>
<path d="M49.5898 13.6469C49.5898 14.8819 48.5887 15.8831 47.3537 15.8831H28.6281L32.2172 1.10827H47.3537C48.5887 1.10827 49.5898 2.10943 49.5898 3.34442V13.6469Z" fill="#FBC935"/>
<path d="M37.0986 4.54061H38.5179V10.0943C38.5153 10.6034 38.4073 11.0418 38.1939 11.4094C37.9805 11.7745 37.6822 12.0561 37.2991 12.2541C36.9186 12.4495 36.4751 12.5472 35.9686 12.5472C35.5057 12.5472 35.0892 12.4649 34.719 12.3003C34.3513 12.1332 34.0595 11.8864 33.8435 11.5599C33.6275 11.2333 33.5195 10.8271 33.5195 10.3411H34.9427C34.9452 10.5545 34.9915 10.7384 35.0815 10.8926C35.1741 11.0469 35.3013 11.1652 35.4633 11.2475C35.6253 11.3297 35.8117 11.3709 36.0225 11.3709C36.2514 11.3709 36.4455 11.3233 36.6049 11.2282C36.7643 11.1305 36.8852 10.9865 36.9674 10.7962C37.0523 10.606 37.096 10.372 37.0986 10.0943V4.54061Z" fill="#333359"/>
<path d="M44.3627 6.71195C44.3267 6.37512 44.175 6.11287 43.9076 5.92517C43.6428 5.73748 43.2983 5.64363 42.874 5.64363C42.5758 5.64363 42.3199 5.68863 42.1065 5.77862C41.8931 5.86861 41.7299 5.99074 41.6167 6.14501C41.5036 6.29928 41.4458 6.4754 41.4432 6.67338C41.4432 6.83793 41.4805 6.98063 41.555 7.10148C41.6322 7.22232 41.7363 7.32517 41.8674 7.41001C41.9986 7.49229 42.1438 7.56171 42.3032 7.61828C42.4626 7.67484 42.6233 7.72241 42.7853 7.76098L43.5258 7.9461C43.8241 8.01552 44.1108 8.10937 44.3859 8.22764C44.6636 8.34591 44.9117 8.49504 45.1302 8.67502C45.3513 8.855 45.5262 9.07226 45.6547 9.32681C45.7833 9.58135 45.8476 9.87961 45.8476 10.2216C45.8476 10.6844 45.7293 11.0919 45.4928 11.4442C45.2562 11.7938 44.9142 12.0677 44.4669 12.2656C44.0221 12.461 43.4834 12.5587 42.8509 12.5587C42.2364 12.5587 41.7029 12.4636 41.2503 12.2734C40.8004 12.0831 40.4481 11.8054 40.1936 11.4403C39.9416 11.0752 39.8054 10.6304 39.7848 10.1059H41.1925C41.2131 10.381 41.2979 10.6098 41.447 10.7924C41.5962 10.9749 41.7903 11.1112 42.0294 11.2012C42.2711 11.2912 42.5411 11.3362 42.8393 11.3362C43.1504 11.3362 43.423 11.2899 43.6569 11.1973C43.8935 11.1022 44.0786 10.9711 44.2123 10.8039C44.346 10.6342 44.4142 10.4363 44.4167 10.21C44.4142 10.0043 44.3537 9.83461 44.2355 9.70091C44.1172 9.56464 43.9513 9.45151 43.7379 9.36152C43.5271 9.26896 43.2803 9.18668 42.9974 9.11469L42.0988 8.88329C41.4483 8.71616 40.9341 8.4629 40.5561 8.12351C40.1807 7.78155 39.9931 7.32774 39.9931 6.76208C39.9931 6.2967 40.119 5.88918 40.371 5.5395C40.6256 5.18982 40.9714 4.91857 41.4085 4.72573C41.8456 4.53032 42.3405 4.43262 42.8933 4.43262C43.4538 4.43262 43.9449 4.53032 44.3666 4.72573C44.7908 4.91857 45.1238 5.18725 45.3655 5.53179C45.6072 5.87375 45.7319 6.26714 45.7396 6.71195H44.3627Z" fill="#333359"/>
</svg>
