<svg id="search" width="30" height="30" viewBox="0 0 30 30" fill="none" xmlns="http://www.w3.org/2000/svg">
<circle cx="15" cy="15" r="15" fill="#0E61C6"/>
<path d="M18.031 16.8202H17.3933L17.1673 16.6022C17.9583 15.6821 18.4346 14.4874 18.4346 13.1879C18.4346 10.2901 16.0856 7.94116 13.1879 7.94116C10.2901 7.94116 7.94116 10.2901 7.94116 13.1879C7.94116 16.0856 10.2901 18.4346 13.1879 18.4346C14.4874 18.4346 15.6821 17.9583 16.6022 17.1673L16.8202 17.3933V18.031L20.8561 22.0588L22.0588 20.8561L18.031 16.8202ZM13.1879 16.8202C11.178 16.8202 9.55553 15.1977 9.55553 13.1879C9.55553 11.178 11.178 9.55553 13.1879 9.55553C15.1977 9.55553 16.8202 11.178 16.8202 13.1879C16.8202 15.1977 15.1977 16.8202 13.1879 16.8202Z" fill="white"/>
</svg>
