<svg id="self-hosted-maps" width="30" height="30" viewBox="0 0 30 30" fill="none" xmlns="http://www.w3.org/2000/svg">
<circle cx="15" cy="15" r="15" fill="#64A856"/>
<path fill-rule="evenodd" clip-rule="evenodd" d="M15 22.0588H13.2353H8.82357V15H6.17651L15 7.05882L23.8236 15H21.1765V22.0588H16.7647H15.7721H15ZM11.0882 20.2941C10.8121 20.2941 10.5882 20.0702 10.5882 19.7941V19.0294C10.5882 18.7533 10.8121 18.5294 11.0882 18.5294H18.9118C19.1879 18.5294 19.4118 18.7533 19.4118 19.0294V19.7941C19.4118 20.0702 19.1879 20.2941 18.9118 20.2941H11.0882ZM11.9118 18.9706C11.6681 18.9706 11.4706 19.1681 11.4706 19.4117C11.4706 19.6554 11.6681 19.8529 11.9118 19.8529C12.1554 19.8529 12.3529 19.6554 12.3529 19.4117C12.3529 19.1681 12.1554 18.9706 11.9118 18.9706ZM10.5882 13.7353C10.5882 13.4591 10.8121 13.2353 11.0882 13.2353H18.9118C19.1879 13.2353 19.4118 13.4591 19.4118 13.7353V14.5C19.4118 14.7761 19.1879 15 18.9118 15H11.0882C10.8121 15 10.5882 14.7761 10.5882 14.5V13.7353ZM11.9118 14.5588C12.1554 14.5588 12.3529 14.3613 12.3529 14.1176C12.3529 13.874 12.1554 13.6765 11.9118 13.6765C11.6681 13.6765 11.4706 13.874 11.4706 14.1176C11.4706 14.3613 11.6681 14.5588 11.9118 14.5588ZM11.0882 17.647C10.8121 17.647 10.5882 17.4232 10.5882 17.147V16.3823C10.5882 16.1062 10.8121 15.8823 11.0882 15.8823H18.9118C19.1879 15.8823 19.4118 16.1062 19.4118 16.3823V17.147C19.4118 17.4232 19.1879 17.647 18.9118 17.647H11.0882ZM11.9118 16.3235C11.6681 16.3235 11.4706 16.521 11.4706 16.7647C11.4706 17.0083 11.6681 17.2059 11.9118 17.2059C12.1554 17.2059 12.3529 17.0083 12.3529 16.7647C12.3529 16.521 12.1554 16.3235 11.9118 16.3235Z" fill="white"/>
</svg>
