<svg id="static-maps" width="30" height="30" viewBox="0 0 30 30" fill="none" xmlns="http://www.w3.org/2000/svg">
<circle cx="15" cy="15" r="15" fill="#0E61C6"/>
<path fill-rule="evenodd" clip-rule="evenodd" d="M22.1946 7L22.1946 20.6364L17.1562 22.6518L12.0913 20.9635L7 23L7 9.36361L12.0385 7.34822L17.1033 9.03651L22.1946 7ZM12.0913 9.14544L8.68829 10.5066L8.68829 20.5063L12.0385 19.1663L17.1033 20.8546L20.5063 19.4934L20.5063 9.49366L17.1562 10.8337L12.0913 9.14544Z" fill="white"/>
<path d="M13.1435 16.6883L12.7075 15.521H11.0035L10.5675 16.6883H9.79626L11.4546 12.4676H12.2655L13.9208 16.6883H13.1435ZM12.5185 14.9287L12.0948 13.7786C12.0785 13.7288 12.0552 13.6588 12.0247 13.5687C11.9942 13.4767 11.9637 13.3838 11.9332 13.2899C11.9027 13.194 11.8773 13.1135 11.857 13.0483C11.8367 13.1269 11.8113 13.2151 11.7808 13.3129C11.7524 13.4087 11.7239 13.4988 11.6955 13.5831C11.669 13.6675 11.6487 13.7326 11.6345 13.7786L11.2077 14.9287H12.5185Z" fill="white"/>
<path d="M15.8048 12.4848C16.3799 12.4848 16.7996 12.596 17.0638 12.8183C17.328 13.0407 17.4601 13.3522 17.4601 13.7528C17.4601 13.9348 17.4296 14.1083 17.3686 14.2732C17.3097 14.4361 17.2121 14.5808 17.076 14.7073C16.9398 14.8319 16.76 14.9306 16.5364 15.0034C16.3149 15.0763 16.0415 15.1127 15.7164 15.1127H15.2408V16.6883H14.5092V12.4848H15.8048ZM15.756 13.057H15.2408V14.5377H15.6402C15.8698 14.5377 16.0649 14.5128 16.2255 14.4629C16.386 14.4112 16.508 14.3297 16.5913 14.2185C16.6746 14.1074 16.7163 13.9607 16.7163 13.7786C16.7163 13.5352 16.638 13.3541 16.4815 13.2352C16.3271 13.1164 16.0852 13.057 15.756 13.057Z" fill="white"/>
<path d="M18.3502 16.6883V12.4848H19.0819V16.6883H18.3502Z" fill="white"/>
</svg>
