<svg id="weather-visualization" width="30" height="30" viewBox="0 0 30 30" fill="none" xmlns="http://www.w3.org/2000/svg">
<circle cx="15" cy="15" r="15" fill="#0E61C6"/>
<path d="M13.9743 8.43174L12.9586 7.4171L12.163 8.21634L13.173 9.23099L13.9743 8.43174ZM12.4169 11.6401H10.7241V12.7737H12.4169V11.6401ZM17.4953 6H16.3668V7.67218H17.4953V6ZM21.699 8.21634L20.9034 7.4171L19.8934 8.43174L20.689 9.23099L21.699 8.21634ZM19.8878 15.982L20.8978 17.0024L21.6934 16.2031L20.6777 15.1885L19.8878 15.982ZM21.4451 11.6401V12.7737H23.1379V11.6401H21.4451ZM16.931 8.80586C15.0633 8.80586 13.5454 10.3307 13.5454 12.2069C13.5454 14.0831 15.0633 15.6079 16.931 15.6079C18.7987 15.6079 20.3166 14.0831 20.3166 12.2069C20.3166 10.3307 18.7987 8.80586 16.931 8.80586ZM16.3668 18.4138H17.4953V16.7416H16.3668V18.4138ZM12.163 16.1974L12.9586 16.9967L13.9686 15.9764L13.173 15.1771L12.163 16.1974Z" fill="white"/>
<path d="M18.6302 17.5836C18.2433 15.576 16.5193 14.0689 14.4483 14.0689C12.804 14.0689 11.3759 15.0232 10.6647 16.4198C8.95211 16.606 7.62073 18.0898 7.62073 19.8879C7.62073 21.814 9.15124 23.3793 11.0345 23.3793H18.4311C20.0014 23.3793 21.2759 22.0758 21.2759 20.4698C21.2759 18.9336 20.1095 17.6883 18.6302 17.5836Z" fill="white"/>
<path fill-rule="evenodd" clip-rule="evenodd" d="M10.2767 15.8644C11.1275 14.4183 12.6773 13.4482 14.4483 13.4482C16.6681 13.4482 18.5376 14.9656 19.1235 17.0474C20.7023 17.3621 21.8966 18.7715 21.8966 20.4827C21.8966 22.4244 20.3566 24 18.4589 24H11.0106C8.79774 24 7 22.1606 7 19.8965C7 17.8894 8.41042 16.2156 10.2767 15.8644ZM14.4483 14.6206C13.0147 14.6206 11.7679 15.4525 11.1463 16.6735L11.0044 16.9524L10.6988 16.9856C9.26311 17.1418 8.14589 18.3874 8.14589 19.8965C8.14589 21.5131 9.43059 22.8275 11.0106 22.8275H18.4589C19.7238 22.8275 20.7507 21.7769 20.7507 20.4827C20.7507 19.2491 19.815 18.2446 18.6198 18.1599L18.1821 18.1289L18.0973 17.6885C17.7596 15.9353 16.2547 14.6206 14.4483 14.6206Z" fill="#0E61C6"/>
</svg>
