<!-- Generated by IcoMoon.io -->
<svg version="1.1" xmlns="http://www.w3.org/2000/svg" width="24" height="24" viewBox="0 0 24 24">
<title>add_layer</title>
<path fill="currentColor" d="M16.588 4.285h-2.723v-1.541h2.723v-2.744h1.541v2.744h2.723v1.541h-2.723v2.709h-1.541z"></path>
<path fill="currentColor" d="M1.237 18.627c2.994 1.675 5.538 3.090 8.532 4.765 0 0 1.565 1.133 3.164 0.26 3.188-1.739 5.974-3.245 9.162-4.984 0.771-0.344 1.543-1.097-0.047-1.943-0.456-0.243-0.906-0.482-1.35-0.718l-0.122 0.076-0.378 0.21-0.389 0.193-0.399 0.175-0.409 0.156-0.419 0.137-0.427 0.117-0.435 0.097-0.443 0.076-0.45 0.055-0.456 0.034-0.461 0.011-0.461-0.011-0.456-0.033-0.45-0.055-0.443-0.077-0.436-0.097-0.428-0.117-0.419-0.137-0.409-0.156-0.399-0.175-0.389-0.193-0.378-0.21-0.366-0.227-0.354-0.243-0.341-0.259-0.328-0.275-0.314-0.29-0.3-0.304-0.285-0.318-0.269-0.331-0.253-0.344-0.119-0.18c-2.243 1.136-4.33 2.182-6.732 3.41-0.679 0.316-1.746 1.197-0.342 1.905z"></path>
<path fill="currentColor" d="M15.257 9.37v2.712h1.543v-2.712h2.726v-1.543h-2.726v-2.748h-1.543v2.748h-2.727v1.543h2.727zM23.459 8.56c0 4.031-3.381 7.298-7.55 7.298-4.17 0-7.551-3.267-7.551-7.298s3.381-7.298 7.551-7.298c4.169 0 7.55 3.267 7.55 7.298z"></path>
</svg>
