<svg id="airbus" width="136" height="26" viewBox="0 0 136 26" fill="none" xmlns="http://www.w3.org/2000/svg">
<path d="M62.8855 9.21328C62.8855 4.65019 59.8919 1.18201 53.7225 1.18201H41.3105V25.1662H47.1517V6.36549H53.759C56.2051 6.36549 57.0807 7.75317 57.0807 9.35915C57.0807 11.002 56.1682 12.3528 53.7221 12.3528H48.0638L56.0951 25.1662H62.7393C62.7393 25.1662 57.2631 16.5507 57.3 16.5507C60.6954 15.7479 62.8855 13.375 62.8855 9.21328Z" fill="#6B7C93"/>
<path d="M37.3685 1.18201H31.5273V25.1665H37.3685V1.18201Z" fill="#6B7C93"/>
<path d="M16.5964 16.1127H11.681L15.3184 8.73876H15.3919L23.569 25.1662H30.286L18.0565 1.18201H12.8731L0.643555 25.1662H7.21438L9.19537 21.1507H19.0421L16.5964 16.1127Z" fill="#6B7C93"/>
<path d="M84.2061 12.718C86.0683 11.6955 87.0539 10.053 87.0539 7.64351C87.0539 3.77392 84.1699 1.18201 79.3147 1.18201H65.6606V25.1662H79.8623C84.8268 25.1662 88.076 22.5011 88.076 18.4491C88.0757 15.6386 86.5063 13.5212 84.2061 12.718ZM71.5024 6.25617H79.3147C80.4831 6.25617 81.3956 7.16865 81.3956 8.37356C81.3956 9.57847 80.4831 10.491 79.2778 10.491H71.5021V6.25617H71.5024ZM79.4603 20.1282H71.5021V15.2365H79.4603C80.8841 15.2365 81.9794 16.259 81.9794 17.646C81.9797 19.0695 80.8841 20.1282 79.4603 20.1282Z" fill="#6B7C93"/>
<path d="M106.511 14.5795C106.511 18.22 104.832 20.2379 101.51 20.2379C98.2247 20.2379 96.5452 18.22 96.5452 14.5795V1.18201H90.5586V14.1416C90.5586 21.5524 94.4647 25.6776 101.51 25.6776C108.555 25.6776 112.498 21.5524 112.498 14.1416V1.18201H106.511V14.5795Z" fill="#6B7C93"/>
<path d="M128.086 10.7102C122.541 9.36013 121.333 9.23117 121.333 7.64347C121.333 6.4152 122.72 5.81816 125.056 5.81816C128.159 5.81816 131.463 6.59662 133.343 7.75313L135.205 2.86139C132.796 1.58371 129.254 0.670898 125.129 0.670898C118.959 0.670898 115.491 3.73766 115.491 7.86245C115.491 12.301 118.082 14.1043 124.034 15.3826C128.667 16.4041 129.655 17.0414 129.655 18.3394C129.655 19.7494 128.378 20.384 125.859 20.384C122.208 20.384 118.904 19.4973 116.258 18.0477L114.469 23.1584C117.353 24.6916 121.661 25.6775 126.005 25.6775C132.065 25.6775 135.679 22.8663 135.679 18.157C135.679 14.3788 133.235 11.9517 128.086 10.7102Z" fill="#6B7C93"/>
</svg>
