<!-- Generated by IcoMoon.io -->
<svg version="1.1" xmlns="http://www.w3.org/2000/svg" width="21" height="24" viewBox="0 0 21 24">
<title>apple</title>
<path fill="currentColor" d="M20.623 17.608c-0.564 1.249-0.834 1.806-1.559 2.912-1.012 1.542-2.439 3.461-4.208 3.476-1.572 0.015-1.975-1.022-4.107-1.010s-2.578 1.030-4.15 1.015c-1.769-0.016-3.121-1.749-4.134-3.291-2.832-4.311-3.127-9.37-1.381-12.059 1.241-1.911 3.199-3.030 5.040-3.030 1.874 0 3.053 1.028 4.603 1.028 1.504 0 2.419-1.030 4.586-1.030 1.639 0 3.373 0.892 4.61 2.434-4.052 2.22-3.393 8.007 0.7 9.555z"></path>
<path fill="currentColor" d="M13.669 3.896c0.786-1.010 1.385-2.438 1.168-3.896-1.287 0.089-2.791 0.907-3.669 1.974-0.797 0.968-1.455 2.405-1.199 3.801 1.405 0.044 2.856-0.795 3.7-1.878z"></path>
</svg>
