<svg id="bentleyData" width="160" height="40" viewBox="0 0 160 40" fill="none" xmlns="http://www.w3.org/2000/svg"><g clip-path="url(#clip0_35_3317)" fill="#6B7C93"><path d="M152.558 14.9869c0 1.5746-1.269 2.8342-2.829 2.8342-1.585 0-2.854-1.2596-2.854-2.8342 0-1.5503 1.269-2.8099 2.854-2.8099 1.536-.0242 2.829 1.2354 2.829 2.8099zm-5.268 0c0 1.3323 1.073 2.3982 2.414 2.3982 1.342 0 2.415-1.0659 2.415-2.3982s-1.073-2.3981-2.415-2.3981c-1.341 0-2.414 1.0658-2.414 2.3981zm1.878 1.623h-.537v-3.246h1.293c.634 0 .926.4118.926.7994s-.292.6783-.707.751v.0242c.415.0484.561.1695.586.8236 0 .1453.048.654.121.8478h-.512c-.122-.218-.097-.654-.146-1.0901-.049-.3391-.341-.3633-.488-.3633h-.536v1.4534zm0-1.8652h.683c.317 0 .487-.2422.487-.5329 0-.2423-.122-.4845-.487-.4845h-.683v1.0174zM9.2627 20.5342H6.23877v-4.433h3.04831V6H22.8704c3.8774 0 7.3403 2.2528 7.3403 6.7584 0 2.3255-1.2193 4.1907-3.1215 5.0385 2.6338.8478 4.5359 2.931 4.5359 6.1528 0 4.5056-3.3653 7.3155-7.828 7.3155H9.2627v-10.731zm4.7066-4.433h8.3402c2.0728 0 3.1702-1.3323 3.1702-2.8583 0-1.5019-1.0974-2.81-3.1702-2.81h-8.3402v5.6683zm0 10.7553h9.2669c2.0972 0 3.6579-1.3807 3.6579-3.149 0-1.8168-1.5363-3.1733-3.6579-3.1733h-9.2669v6.3223zM54.1093 27.0503c-2.3411 2.931-5.5845 4.6993-9.1206 4.7478-6.8526 0-10.8276-5.1112-10.8276-10.2708 0-5.1597 3.975-10.2708 10.8276-10.2708 4.097 0 10.1692 3.3428 10.1692 10.949v.7752H38.8677c.2439 2.9795 3.0483 5.1112 5.9991 5.1112 2.268 0 4.2189-1.0901 5.6821-3.028l3.5604 1.9864zm-3.8775-7.5094c-.9023-2.9795-3.1214-4.554-5.8039-4.554-2.6826 0-4.853 1.6472-5.5602 4.554h11.3641zM59.3769 11.8136h4.2189v2.4465h.0731c1.1706-1.8167 3.3166-2.9795 5.9991-2.9795 4.1457 0 7.6086 3.4156 7.6086 8.2603v11.7484h-4.2188V20.4614c0-3.5367-1.8534-4.9901-4.6579-4.9901-2.7069 0-4.8285 1.7199-4.8285 4.9174v10.9006h-4.2189V11.8136h.0244zM82.8855 15.7378h-2.3899v-3.9242h2.3899V6.6055l4.2188-1.11429v6.32239h2.9996v3.9242h-2.9996v15.5515h-4.2188V15.7378zM97.4201 6v17.441c0 2.2528.4877 3.0522 1.7558 3.7789l2.2681 1.2838-1.8535 3.2944c-4.3408-2.059-6.3649-3.5366-6.3649-7.6062V6h4.1945zM122.392 27.0503c-2.341 2.931-5.585 4.6993-9.121 4.7478-6.852 0-10.827-5.1112-10.827-10.2708 0-5.1597 3.975-10.2708 10.827-10.2708 4.097 0 10.17 3.3428 10.17 10.949v.7752H107.15c.244 2.9795 3.049 5.1112 6 5.1112 2.267 0 4.218-1.0901 5.682-3.028l3.56 1.9864zm-3.902-7.5094c-.902-2.9795-3.121-4.554-5.804-4.554-2.682 0-4.853 1.6472-5.56 4.554h11.364zM126.952 11.8136h4.219v11.4335c0 3.2702 2.024 4.6268 4.609 4.6268 3.292 0 4.853-2.0106 4.853-5.0386V11.8136h4.243v18.8702c0 5.959-5.316 8.5751-8.95 8.5751-4.414 0-6.413-1.6472-8.315-3.8273l3.56-2.1801c1.341 1.2838 2.682 2.059 4.487 2.059 2.805 0 5.219-1.6957 5.219-5.1112v-1.0416h-.073c-1.659 1.841-3.195 2.6646-5.926 2.6646-4.365 0-7.95-3.246-7.95-8.7447v-11.264h.024z"/></g><defs><clipPath id="clip0_35_3317"><path fill="#fff" transform="translate(.995605 .355835)" d="M0 0h159v39H0z"/></clipPath></defs></svg>