<svg id="bentley2" width="160" height="40" viewBox="0 0 160 40" fill="none" xmlns="http://www.w3.org/2000/svg">
<g clip-path="url(#clip0_35_3375)">
<path d="M151.886 15.1311C151.886 16.7056 150.618 17.9652 149.057 17.9652C147.472 17.9652 146.204 16.7056 146.204 15.1311C146.204 13.5808 147.472 12.3211 149.057 12.3211C150.594 12.2969 151.886 13.5565 151.886 15.1311ZM146.619 15.1311C146.619 16.4634 147.692 17.5292 149.033 17.5292C150.374 17.5292 151.447 16.4634 151.447 15.1311C151.447 13.7988 150.374 12.7329 149.033 12.7329C147.692 12.7329 146.619 13.7988 146.619 15.1311ZM148.496 16.7541H147.96V13.5081H149.252C149.886 13.5081 150.179 13.9199 150.179 14.3075C150.179 14.6951 149.886 14.9857 149.472 15.0584V15.0826C149.886 15.1311 150.033 15.2522 150.057 15.9062C150.057 16.0516 150.106 16.5603 150.179 16.7541H149.667C149.545 16.5361 149.569 16.1 149.521 15.664C149.472 15.3249 149.179 15.3007 149.033 15.3007H148.496V16.7541ZM148.496 14.8888H149.179C149.496 14.8888 149.667 14.6466 149.667 14.3559C149.667 14.1137 149.545 13.8715 149.179 13.8715H148.496V14.8888Z" fill="#6B7C93"/>
<path d="M8.59131 20.6782H5.56738V16.2453H8.6157V6.14404H22.199C26.0764 6.14404 29.5393 8.39684 29.5393 12.9024C29.5393 15.2279 28.32 17.0931 26.4178 17.9409C29.0516 18.7888 30.9537 20.872 30.9537 24.0937C30.9537 28.5993 27.5884 31.4093 23.1257 31.4093H8.59131V20.6782ZM13.2979 16.2453H21.6381C23.7109 16.2453 24.8083 14.913 24.8083 13.3869C24.8083 11.885 23.7109 10.577 21.6381 10.577H13.2979V16.2453ZM13.2979 27.0006H22.5648C24.662 27.0006 26.2228 25.6198 26.2228 23.8515C26.2228 22.0347 24.6864 20.6782 22.5648 20.6782H13.2979V27.0006Z" fill="#6B7C93"/>
<path d="M53.4379 27.1942C51.0968 30.1252 47.8534 31.8936 44.3174 31.942C37.4647 31.942 33.4897 26.8308 33.4897 21.6712C33.4897 16.5116 37.4647 11.4004 44.3174 11.4004C48.4143 11.4004 54.4865 14.7433 54.4865 22.3495V23.1246H38.1963C38.4402 26.1041 41.2447 28.2358 44.1954 28.2358C46.4634 28.2358 48.4143 27.1457 49.8775 25.2078L53.4379 27.1942ZM49.5604 19.6849C48.6581 16.7054 46.439 15.1308 43.7565 15.1308C41.0739 15.1308 38.9036 16.778 38.1963 19.6849H49.5604Z" fill="#6B7C93"/>
<path d="M58.7055 11.9577H62.9244V14.4043H62.9976C64.1681 12.5875 66.3141 11.4248 68.9966 11.4248C73.1423 11.4248 76.6052 14.8403 76.6052 19.6851V31.4335H72.3864V20.6055C72.3864 17.0689 70.533 15.6155 67.7285 15.6155C65.0216 15.6155 62.9 17.3354 62.9 20.5329V31.4335H58.6812V11.9577H58.7055Z" fill="#6B7C93"/>
<path d="M82.2141 15.8818H79.8242V11.9576H82.2141V6.74954L86.433 5.63525V11.9576H89.4325V15.8818H86.433V31.4334H82.2141V15.8818Z" fill="#6B7C93"/>
<path d="M96.7487 6.14404V23.585C96.7487 25.8378 97.2364 26.6372 98.5045 27.3639L100.772 28.6478L98.9191 31.9422C94.5783 29.8832 92.5542 28.4055 92.5542 24.336V6.14404H96.7487Z" fill="#6B7C93"/>
<path d="M121.721 27.1942C119.38 30.1252 116.136 31.8936 112.6 31.942C105.747 31.942 101.772 26.8308 101.772 21.6712C101.772 16.5116 105.747 11.4004 112.6 11.4004C116.697 11.4004 122.769 14.7433 122.769 22.3495V23.1246H106.479C106.723 26.1041 109.527 28.2358 112.478 28.2358C114.746 28.2358 116.697 27.1457 118.16 25.2078L121.721 27.1942ZM117.819 19.6849C116.916 16.7054 114.697 15.1308 112.015 15.1308C109.332 15.1308 107.162 16.778 106.455 19.6849H117.819Z" fill="#6B7C93"/>
<path d="M126.281 11.9575H130.5V23.3911C130.5 26.6612 132.524 28.0178 135.109 28.0178C138.401 28.0178 139.962 26.0072 139.962 22.9793V11.9575H144.205V30.8277C144.205 36.7867 138.889 39.4029 135.255 39.4029C130.841 39.4029 128.841 37.7557 126.939 35.5755L130.5 33.3954C131.841 34.6793 133.182 35.4544 134.987 35.4544C137.791 35.4544 140.205 33.7588 140.205 30.3432V29.3016H140.132C138.474 31.1426 136.938 31.9662 134.206 31.9662C129.841 31.9662 126.256 28.7203 126.256 23.2215V11.9575H126.281Z" fill="#6B7C93"/>
</g>
<defs>
<clipPath id="clip0_35_3375">
<rect width="159" height="39" fill="white" transform="translate(0.324219 0.5)"/>
</clipPath>
</defs>
</svg>
