<svg id="bosch" width="111" height="26" viewBox="0 0 111 26" fill="none" xmlns="http://www.w3.org/2000/svg">
<path d="M13.6569 17.5111C13.6569 16.1247 12.6335 15.1647 10.4856 15.1647H6.18203V19.8936H10.5907C12.3884 19.8936 13.6569 19.2535 13.6569 17.5111ZM12.8826 8.12565C12.8826 6.77387 11.9643 5.84933 10.5907 5.84933H6.18203V10.3296H10.4856C12.0343 10.3296 12.8826 9.19221 12.8826 8.12565ZM20.0734 18.1862C20.0734 22.24 16.3379 24.9066 12.5635 24.9066H0.259705V0.835981H11.5401C15.8788 0.835981 19.015 3.00335 19.015 7.44937C19.015 11.2541 15.7037 12.3915 15.7037 12.3915C15.7037 12.4273 20.0734 13.4227 20.0734 18.1862Z" fill="#6B7C93"/>
<path d="M38.4903 12.854C38.4903 9.08505 36.7626 6.02739 33.3462 6.02739C29.9259 6.02739 28.2332 9.08544 28.2332 12.854C28.2332 16.658 29.9259 19.7153 33.3462 19.7153C36.7626 19.7153 38.4903 16.658 38.4903 12.854ZM44.4126 12.854C44.4126 19.9289 40.358 25.4753 33.3462 25.4753C26.3655 25.4753 22.2759 19.9289 22.2759 12.854C22.2759 5.81416 26.3655 0.232702 33.3423 0.232702C40.358 0.232702 44.4126 5.81416 44.4126 12.854Z" fill="#6B7C93"/>
<path d="M65.0861 17.6176C65.0861 22.915 60.2923 25.4753 55.782 25.4753C50.5644 25.4753 47.8834 23.4842 45.7705 20.9597L49.6111 17.1903C51.2337 19.253 53.3505 20.2838 55.7124 20.2838C57.6506 20.2838 58.9537 19.3238 58.9537 17.9016C58.9537 16.3728 57.8019 15.8969 54.6501 15.235L53.8057 15.0576C50.0119 14.261 46.895 12.1069 46.895 7.80486C46.895 3.07712 50.7395 0.232307 55.8174 0.232307C60.1172 0.232307 62.9032 2.0806 64.5959 3.99894L60.8565 7.69824C59.6926 6.45347 57.9303 5.45811 55.9225 5.45811C54.5489 5.45811 52.9964 6.09782 52.9964 7.69824C52.9964 9.15587 54.6112 9.68468 56.6618 10.1158L57.5097 10.2936C60.9421 11.0147 65.0861 12.0719 65.0861 17.6176Z" fill="#6B7C93"/>
<path d="M87.9817 20.2484C85.5147 23.8037 83.2228 25.4753 78.464 25.4753C71.6973 25.4753 67.3236 19.8577 67.3236 12.7112C67.3236 5.92077 71.2735 0.267322 78.534 0.267322C82.5185 0.267322 85.375 1.83195 87.8066 5.4943L82.9427 8.72979C81.9543 7.02274 80.6858 6.02739 78.5694 6.02739C75.8919 6.02739 73.3164 8.42277 73.3164 12.7116C73.3164 17.5179 76.1024 19.7153 78.7484 19.7153C81.0368 19.7153 82.0948 18.5779 83.0835 16.942L87.9817 20.2484Z" fill="#6B7C93"/>
<path d="M110.562 24.9061H104.215V15.4133H96.9152V24.9061H90.6081V0.835524H96.9152V9.68944H104.215V0.835912H110.562V24.9061Z" fill="#6B7C93"/>
</svg>
