<svg id="icon" width="46" height="51" viewBox="0 0 46 51" fill="none" xmlns="http://www.w3.org/2000/svg">
<path fill-rule="evenodd" clip-rule="evenodd" d="M24.0209 5.03609C24.0209 5.5139 23.6336 5.90124 23.1558 5.90124C22.6779 5.90124 22.2906 5.5139 22.2906 5.03609V1.81413C22.2906 1.33632 22.6779 0.948975 23.1558 0.948975C23.6336 0.948975 24.0209 1.33632 24.0209 1.81413V5.03609ZM10.6146 10.9039C10.9524 10.5661 10.9524 10.0183 10.6146 9.6804L8.33629 7.40214C7.99843 7.06427 7.45064 7.06427 7.11278 7.40214C6.77491 7.74 6.77491 8.28779 7.11278 8.62565L9.39104 10.9039C9.72891 11.2418 10.2767 11.2418 10.6146 10.9039ZM37.3568 23.3535C37.3568 26.7389 36.1721 29.8475 34.1948 32.2876C33.4995 33.3306 32.5689 34.7073 31.808 35.764C30.3986 37.7213 29.4213 40.7759 29.4213 40.7759H16.8915C16.8915 40.7759 15.9142 37.7213 14.5049 35.764C13.7444 34.7079 12.8145 33.3323 12.1193 32.2895C10.141 29.8492 8.95581 26.7398 8.95581 23.3535C8.95581 15.5108 15.3136 9.15304 23.1563 9.15304C30.999 9.15304 37.3568 15.5108 37.3568 23.3535ZM29.4224 42.6256H16.8627V45.9669H29.4224V42.6256ZM17.338 47.6077H29.0026L26.616 50.949H19.7246L17.338 47.6077ZM5.4353 23.443C5.4353 22.9652 5.04796 22.5778 4.57014 22.5778H1.34819C0.870375 22.5778 0.483032 22.9652 0.483032 23.443C0.483032 23.9208 0.870374 24.3082 1.34819 24.3082H4.57014C5.04796 24.3082 5.4353 23.9208 5.4353 23.443ZM44.6646 22.5778C45.1424 22.5778 45.5297 22.9652 45.5297 23.443C45.5297 23.9208 45.1424 24.3082 44.6646 24.3082H41.4426C40.9648 24.3082 40.5774 23.9208 40.5774 23.443C40.5774 22.9652 40.9648 22.5778 41.4426 22.5778H44.6646ZM35.6048 10.9039C35.9427 11.2418 36.4904 11.2418 36.8283 10.9039L39.1066 8.62565C39.4444 8.28779 39.4444 7.74 39.1066 7.40214C38.7687 7.06427 38.2209 7.06427 37.8831 7.40214L35.6048 9.6804C35.2669 10.0183 35.2669 10.5661 35.6048 10.9039Z" fill="currentColor"/>
</svg>
