<svg id="cisco" width="77" height="41" viewBox="0 0 77 41" fill="none" xmlns="http://www.w3.org/2000/svg">
<path d="M52.3974 31.1183C52.2594 31.0482 51.1809 30.4085 49.5779 30.4085C47.4113 30.4085 45.9082 31.9175 45.9082 33.9547C45.9082 35.9302 47.3466 37.5041 49.5779 37.5041C51.1533 37.5041 52.2499 36.8771 52.3974 36.7985V40.367C51.977 40.4839 50.8316 40.8399 49.3433 40.8399C45.5738 40.8399 42.2649 38.2384 42.2649 33.9536C42.2649 29.9844 45.2585 27.0726 49.3433 27.0726C50.9144 27.0726 52.08 27.4552 52.3974 27.5498V31.1183ZM17.4163 31.1183C17.2815 31.0482 16.204 30.4085 14.6011 30.4085C12.4302 30.4085 10.9281 31.9175 10.9281 33.9547C10.9281 35.9302 12.3676 37.5041 14.6011 37.5041C16.1764 37.5041 17.2719 36.8771 17.4163 36.7985V40.367C17.0002 40.4839 15.8558 40.8399 14.359 40.8399C10.5927 40.8399 7.28809 38.2384 7.28809 33.9536C7.28809 29.9844 10.2816 27.0726 14.3601 27.0726C15.9376 27.0726 17.101 27.4552 17.4163 27.5498V31.1183ZM62.9396 30.4584C60.9513 30.4584 59.4747 32.0248 59.4747 33.9547C59.4747 35.8888 60.9513 37.4542 62.9396 37.4542C64.9258 37.4542 66.4066 35.8888 66.4066 33.9547C66.4066 32.0248 64.9258 30.4584 62.9396 30.4584ZM69.9575 33.9547C69.9575 37.7581 67.0244 40.8399 62.9407 40.8399C58.8548 40.8399 55.926 37.7581 55.926 33.9536C55.926 30.1577 58.8559 27.0726 62.9396 27.0726C67.0244 27.0726 69.9575 30.1576 69.9575 33.9547ZM38.0835 30.3309C38.0336 30.3149 36.6228 29.9249 35.4636 29.9249C34.1208 29.9249 33.3904 30.3755 33.3904 31.0142C33.3904 31.824 34.3755 32.1066 34.9265 32.2809L35.8511 32.5753C38.0273 33.2682 39.0177 34.7591 39.0177 36.3787C39.0177 39.7188 36.0836 40.8409 33.5189 40.8409C31.7365 40.8409 30.0667 40.5115 29.9022 40.4775V37.4169C30.1973 37.4913 31.6028 37.9122 33.0667 37.9122C34.7344 37.9122 35.5008 37.4233 35.5008 36.671C35.5008 35.9972 34.8373 35.6082 34.0061 35.3468C33.8044 35.2788 33.4987 35.1831 33.2906 35.1151C31.4245 34.5242 29.8682 33.4254 29.8682 31.2257C29.8682 28.7389 31.728 27.0694 34.8171 27.0694C36.4487 27.0694 37.9837 27.4658 38.0835 27.4924V30.3298V30.3309Z" fill="#6B7C93"/>
<path d="M3.73371 13.0206C3.73371 12.1045 2.98638 11.3617 2.07027 11.3617C1.15415 11.3617 0.405762 12.1045 0.405762 13.0195V16.5105C0.416725 16.945 0.59685 17.358 0.90771 17.6615C1.21857 17.9649 1.63556 18.1347 2.06974 18.1347C2.50391 18.1347 2.9209 17.9649 3.23176 17.6615C3.54262 17.358 3.72275 16.945 3.73371 16.5105V13.0206ZM12.8726 8.44034C12.8726 7.99854 12.6972 7.57484 12.3852 7.26244C12.0731 6.95005 11.6499 6.77455 11.2086 6.77455C10.7673 6.77455 10.344 6.95005 10.032 7.26244C9.71992 7.57484 9.54461 7.99854 9.54461 8.44034V16.5105C9.54461 16.9523 9.71992 17.376 10.032 17.6884C10.344 18.0008 10.7673 18.1763 11.2086 18.1763C11.6499 18.1763 12.0731 18.0008 12.3852 17.6884C12.6972 17.376 12.8726 16.9523 12.8726 16.5105V8.43924V8.44034ZM22.0125 2.17252C22.0125 1.25647 21.2651 0.512566 20.349 0.512566C19.4318 0.512566 18.6845 1.25647 18.6845 2.17252V19.8271C18.6955 20.2617 18.8756 20.6747 19.1865 20.9781C19.4973 21.2816 19.9143 21.4514 20.3485 21.4514C20.7827 21.4514 21.1997 21.2816 21.5105 20.9781C21.8214 20.6747 22.0015 20.2617 22.0125 19.8271V2.17252ZM31.1513 8.44034C31.1513 7.99854 30.976 7.57484 30.6639 7.26244C30.3519 6.95005 29.9286 6.77455 29.4873 6.77455C29.046 6.77455 28.6228 6.95005 28.3107 7.26244C27.9987 7.57484 27.8234 7.99854 27.8234 8.44034V16.5105C27.8234 16.9523 27.9987 17.376 28.3107 17.6884C28.6228 18.0008 29.046 18.1763 29.4873 18.1763C29.9286 18.1763 30.3519 18.0008 30.6639 17.6884C30.976 17.376 31.1513 16.9523 31.1513 16.5105V8.43924V8.44034ZM40.2806 13.0206C40.2809 12.5811 40.1068 12.1595 39.7967 11.8484C39.4866 11.5373 39.0657 11.3622 38.6267 11.3617C38.1867 11.3614 37.7646 11.5358 37.4528 11.8465C37.141 12.1573 36.965 12.579 36.9633 13.0195V16.5105C36.9633 16.9509 37.138 17.3732 37.4491 17.6846C37.7601 17.996 38.182 18.171 38.6219 18.171C39.0618 18.171 39.4837 17.996 39.7948 17.6846C40.1058 17.3732 40.2806 16.9509 40.2806 16.5105V13.0206ZM49.4237 8.44034C49.4128 8.00723 49.2332 7.59551 48.9233 7.29306C48.6135 6.9906 48.1978 6.82131 47.765 6.82131C47.3323 6.82131 46.9166 6.9906 46.6067 7.29306C46.2969 7.59551 46.1173 8.00723 46.1064 8.44034V16.5105C46.1064 16.9509 46.2811 17.3732 46.5922 17.6846C46.9032 17.996 47.3251 18.171 47.765 18.171C48.2049 18.171 48.6268 17.996 48.9379 17.6846C49.2489 17.3732 49.4237 16.9509 49.4237 16.5105V8.43924V8.44034ZM58.5689 2.17252C58.5689 1.73213 58.3942 1.30978 58.0831 0.998383C57.772 0.686983 57.3501 0.512045 56.9102 0.512045C56.4703 0.512045 56.0484 0.686983 55.7374 0.998383C55.4263 1.30978 55.2516 1.73213 55.2516 2.17252V19.8271C55.2418 20.0513 55.2774 20.2752 55.3563 20.4852C55.4353 20.6952 55.5558 20.887 55.7108 21.0491C55.8658 21.2113 56.052 21.3403 56.2581 21.4284C56.4643 21.5165 56.6861 21.562 56.9102 21.562C57.1344 21.562 57.3562 21.5165 57.5624 21.4284C57.7685 21.3403 57.9547 21.2113 58.1096 21.0491C58.2646 20.887 58.3852 20.6952 58.4642 20.4852C58.5431 20.2752 58.5787 20.0513 58.5689 19.8271V2.17252ZM67.712 8.44034C67.712 7.52323 66.97 6.77825 66.0326 6.77825C65.5928 6.77853 65.171 6.95363 64.8601 7.2651C64.5492 7.57657 64.3745 7.99889 64.3745 8.43924V16.5105C64.3745 17.4318 65.1176 18.1747 66.0326 18.1747C66.97 18.1747 67.712 17.4318 67.712 16.5105V8.43924V8.44034ZM76.8381 13.0206C76.8381 12.5798 76.6632 12.157 76.3518 11.8453C76.0405 11.5336 75.6182 11.3585 75.1778 11.3585C74.7375 11.3585 74.3152 11.5336 74.0039 11.8453C73.6925 12.157 73.5176 12.5798 73.5176 13.0206V16.5105C73.5176 17.4318 74.2617 18.1757 75.1778 18.1757C76.0929 18.1757 76.837 17.4318 76.837 16.5105V13.0206H76.8381Z" fill="#6B7C93"/>
<path d="M74.9197 38.8527V39.0609H74.3274V40.6029H74.0832V39.062H73.4888V38.8527H74.9197ZM75.0439 38.8527H75.425L75.9484 40.2884H75.9569L76.4632 38.8537H76.8369V40.6029H76.5874V39.1683H76.5789L76.0481 40.6029H75.8178L75.2998 39.1683H75.2881V40.6029H75.0439V38.8527Z" fill="#6B7C93"/>
<path d="M25.3743 40.6043H22.0229V27.3088H25.3743V40.6043Z" fill="#6B7C93"/>
</svg>
