<svg id="cisco2" width="73" height="38" viewBox="0 0 73 38" fill="none" xmlns="http://www.w3.org/2000/svg"><g clip-path="url(#clip0_35_3337)" fill="#6B7C93"><path d="M23.845 25.2451h-3.157v12.511h3.157v-12.511zM49.3013 28.83c-.127-.066-1.142-.6681-2.652-.6681-2.045 0-3.46 1.421-3.46 3.337 0 1.859 1.356 3.3401 3.46 3.3401 1.484 0 2.516-.5891 2.652-.6641v3.3581c-.392.111-1.469.445-2.879.445-3.549 0-6.662-2.4481-6.662-6.4791 0-3.736 2.82-6.476 6.662-6.476 1.486 0 2.582.3611 2.879.4491v3.358zM16.3476 28.83c-.127-.066-1.142-.6681-2.652-.6681-2.045 0-3.46 1.421-3.46 3.337 0 1.859 1.356 3.3401 3.46 3.3401 1.484 0 2.516-.5891 2.652-.6641v3.3581c-.392.111-1.469.445-2.879.445-3.54896 0-6.66196-2.4481-6.66196-6.4791 0-3.736 2.82-6.476 6.66196-6.476 1.486 0 2.582.3611 2.879.4491v3.358zM59.2325 28.2089c-1.873 0-3.264 1.474-3.264 3.29 0 1.82 1.391 3.2931 3.264 3.2931 1.871 0 3.266-1.4731 3.266-3.2931 0-1.816-1.395-3.29-3.266-3.29zm6.611 3.29c0 3.579-2.763 6.479-6.611 6.479s-6.607-2.9-6.607-6.479c0-3.573 2.759-6.476 6.607-6.476 3.848 0 6.611 2.903 6.611 6.476zM35.8176 28.0885c-.047-.015-1.376-.382-2.468-.382-1.265 0-1.953.424-1.953 1.025 0 .762.928 1.028 1.447 1.192l.871.277c2.049.652 2.983 2.055 2.983 3.579 0 3.143-2.764 4.199-5.18 4.199-1.679 0-3.252-.309-3.407-.342v-2.879c.278.07 1.602.465 2.981.465 1.571 0 2.293-.459 2.293-1.168 0-.634-.625-1-1.408-1.246-.191-.064-.478-.154-.674-.218-1.758-.556-3.224-1.589-3.224-3.66 0-2.34 1.752-3.911 4.662-3.911 1.537 0 2.983.373 3.077.398v2.671zM3.45922 11.7998c0-.862-.704-1.561-1.567-1.561s-1.568001.699-1.568001 1.561v3.284c0 .867.705001 1.567 1.568001 1.567s1.567-.7 1.567-1.567v-3.284zM12.0686 7.48927c0-.862-.704-1.563-1.567-1.563-.86401 0-1.56801.701-1.56801 1.563v7.59503c0 .867.704 1.566 1.56801 1.566.863 0 1.567-.699 1.567-1.566V7.48927zM20.678 1.59179c0-.862005-.704-1.562005-1.567-1.562005-.864 0-1.568.7-1.568 1.562005V18.2048c0 .867.704 1.567 1.568 1.567.863 0 1.567-.7 1.567-1.567V1.59179zM29.2873 7.48927c0-.862-.704-1.563-1.567-1.563-.864 0-1.568.701-1.568 1.563v7.59503c0 .867.704 1.566 1.568 1.566.863 0 1.567-.699 1.567-1.566V7.48927zM37.8867 11.7998c0-.862-.699-1.561-1.558-1.561-.863 0-1.567.699-1.567 1.561v3.284c0 .867.704 1.567 1.567 1.567.859 0 1.558-.7 1.558-1.567v-3.284z"/><path d="M37.8909 11.7998c0-.862-.704-1.561-1.567-1.561s-1.568.699-1.568 1.561v3.284c0 .867.705 1.567 1.568 1.567.863 0 1.567-.7 1.567-1.567v-3.284zM46.5002 7.48927c0-.862-.704-1.563-1.567-1.563-.864 0-1.568.701-1.568 1.563v7.59503c0 .867.704 1.566 1.568 1.566.863 0 1.567-.699 1.567-1.566V7.48927zM55.1096 1.59179c0-.862005-.704-1.562005-1.567-1.562005-.864 0-1.568.7-1.568 1.562005V18.2048c0 .867.704 1.567 1.568 1.567.863 0 1.567-.7 1.567-1.567V1.59179zM63.719 7.48927c0-.862-.704-1.563-1.567-1.563-.864 0-1.568.701-1.568 1.563v7.59503c0 .867.704 1.566 1.568 1.566.863 0 1.567-.699 1.567-1.566V7.48927zM72.3184 11.7998c0-.862-.699-1.561-1.558-1.561-.863 0-1.567.699-1.567 1.561v3.284c0 .867.704 1.567 1.567 1.567.859 0 1.558-.7 1.558-1.567v-3.284zM70.5179 36.1084v.196h-.558v1.451h-.229v-1.451h-.561v-.196h1.348zM70.6348 36.1084h.359l.493 1.351h.008l.477-1.351h.352v1.647h-.235v-1.35h-.008l-.5 1.35h-.217l-.488-1.35h-.011v1.35h-.23v-1.647z"/></g><defs><clipPath id="clip0_35_3337"><path fill="#fff" transform="translate(.324219)" d="M0 0h72v38H0z"/></clipPath></defs></svg>