<svg id="ciscoData" width="73" height="39" viewBox="0 0 73 39" fill="none" xmlns="http://www.w3.org/2000/svg">
<g clip-path="url(#clip0_35_3295)">
<path d="M23.5984 25.4988H20.4414V38.0098H23.5984V25.4988Z" fill="#6B7C93"/>
<path d="M49.0547 29.0838C48.9277 29.0178 47.9127 28.4158 46.4027 28.4158C44.3577 28.4158 42.9427 29.8368 42.9427 31.7528C42.9427 33.6118 44.2987 35.0928 46.4027 35.0928C47.8867 35.0928 48.9187 34.5038 49.0547 34.4288V37.7868C48.6627 37.8978 47.5857 38.2318 46.1757 38.2318C42.6267 38.2318 39.5137 35.7838 39.5137 31.7528C39.5137 28.0168 42.3337 25.2768 46.1757 25.2768C47.6617 25.2768 48.7577 25.6378 49.0547 25.7258V29.0838Z" fill="#6B7C93"/>
<path d="M16.1011 29.0838C15.9741 29.0178 14.9591 28.4158 13.4491 28.4158C11.4041 28.4158 9.98906 29.8368 9.98906 31.7528C9.98906 33.6118 11.3451 35.0928 13.4491 35.0928C14.9331 35.0928 15.9651 34.5038 16.1011 34.4288V37.7868C15.7091 37.8978 14.6321 38.2318 13.2221 38.2318C9.67306 38.2318 6.56006 35.7838 6.56006 31.7528C6.56006 28.0168 9.38006 25.2768 13.2221 25.2768C14.7081 25.2768 15.8041 25.6378 16.1011 25.7258V29.0838Z" fill="#6B7C93"/>
<path d="M58.9859 28.4627C57.1129 28.4627 55.7219 29.9367 55.7219 31.7527C55.7219 33.5727 57.1129 35.0457 58.9859 35.0457C60.8569 35.0457 62.2519 33.5727 62.2519 31.7527C62.2519 29.9367 60.8569 28.4627 58.9859 28.4627ZM65.5969 31.7527C65.5969 35.3317 62.8339 38.2317 58.9859 38.2317C55.1379 38.2317 52.3789 35.3317 52.3789 31.7527C52.3789 28.1797 55.1379 25.2767 58.9859 25.2767C62.8339 25.2767 65.5969 28.1797 65.5969 31.7527Z" fill="#6B7C93"/>
<path d="M35.571 28.3426C35.524 28.3276 34.195 27.9606 33.103 27.9606C31.838 27.9606 31.15 28.3846 31.15 28.9856C31.15 29.7476 32.078 30.0136 32.597 30.1776L33.468 30.4546C35.517 31.1066 36.451 32.5096 36.451 34.0336C36.451 37.1766 33.687 38.2326 31.271 38.2326C29.592 38.2326 28.019 37.9236 27.864 37.8906V35.0116C28.142 35.0816 29.466 35.4766 30.845 35.4766C32.416 35.4766 33.138 35.0176 33.138 34.3086C33.138 33.6746 32.513 33.3086 31.73 33.0626C31.539 32.9986 31.252 32.9086 31.056 32.8446C29.298 32.2886 27.832 31.2556 27.832 29.1846C27.832 26.8446 29.584 25.2736 32.494 25.2736C34.031 25.2736 35.477 25.6466 35.571 25.6716V28.3426Z" fill="#6B7C93"/>
<path d="M3.21264 12.0535C3.21264 11.1915 2.50864 10.4925 1.64564 10.4925C0.782637 10.4925 0.0776367 11.1915 0.0776367 12.0535V15.3375C0.0776367 16.2045 0.782637 16.9045 1.64564 16.9045C2.50864 16.9045 3.21264 16.2045 3.21264 15.3375V12.0535Z" fill="#6B7C93"/>
<path d="M11.822 7.74299C11.822 6.88099 11.118 6.17999 10.255 6.17999C9.39101 6.17999 8.68701 6.88099 8.68701 7.74299V15.338C8.68701 16.205 9.39101 16.904 10.255 16.904C11.118 16.904 11.822 16.205 11.822 15.338V7.74299Z" fill="#6B7C93"/>
<path d="M20.4314 1.84551C20.4314 0.983508 19.7274 0.283508 18.8644 0.283508C18.0004 0.283508 17.2964 0.983508 17.2964 1.84551V18.4585C17.2964 19.3255 18.0004 20.0255 18.8644 20.0255C19.7274 20.0255 20.4314 19.3255 20.4314 18.4585V1.84551Z" fill="#6B7C93"/>
<path d="M29.0408 7.74299C29.0408 6.88099 28.3368 6.17999 27.4738 6.17999C26.6098 6.17999 25.9058 6.88099 25.9058 7.74299V15.338C25.9058 16.205 26.6098 16.904 27.4738 16.904C28.3368 16.904 29.0408 16.205 29.0408 15.338V7.74299Z" fill="#6B7C93"/>
<path d="M37.6401 12.0535C37.6401 11.1915 36.9411 10.4925 36.0821 10.4925C35.2191 10.4925 34.5151 11.1915 34.5151 12.0535V15.3375C34.5151 16.2045 35.2191 16.9045 36.0821 16.9045C36.9411 16.9045 37.6401 16.2045 37.6401 15.3375V12.0535Z" fill="#6B7C93"/>
<path d="M37.6443 12.0535C37.6443 11.1915 36.9403 10.4925 36.0773 10.4925C35.2143 10.4925 34.5093 11.1915 34.5093 12.0535V15.3375C34.5093 16.2045 35.2143 16.9045 36.0773 16.9045C36.9403 16.9045 37.6443 16.2045 37.6443 15.3375V12.0535Z" fill="#6B7C93"/>
<path d="M46.2537 7.74299C46.2537 6.88099 45.5497 6.17999 44.6867 6.17999C43.8227 6.17999 43.1187 6.88099 43.1187 7.74299V15.338C43.1187 16.205 43.8227 16.904 44.6867 16.904C45.5497 16.904 46.2537 16.205 46.2537 15.338V7.74299Z" fill="#6B7C93"/>
<path d="M54.863 1.84551C54.863 0.983508 54.159 0.283508 53.296 0.283508C52.432 0.283508 51.728 0.983508 51.728 1.84551V18.4585C51.728 19.3255 52.432 20.0255 53.296 20.0255C54.159 20.0255 54.863 19.3255 54.863 18.4585V1.84551Z" fill="#6B7C93"/>
<path d="M63.4724 7.74299C63.4724 6.88099 62.7684 6.17999 61.9054 6.17999C61.0414 6.17999 60.3374 6.88099 60.3374 7.74299V15.338C60.3374 16.205 61.0414 16.904 61.9054 16.904C62.7684 16.904 63.4724 16.205 63.4724 15.338V7.74299Z" fill="#6B7C93"/>
<path d="M72.0718 12.0535C72.0718 11.1915 71.3728 10.4925 70.5138 10.4925C69.6508 10.4925 68.9468 11.1915 68.9468 12.0535V15.3375C68.9468 16.2045 69.6508 16.9045 70.5138 16.9045C71.3728 16.9045 72.0718 16.2045 72.0718 15.3375V12.0535Z" fill="#6B7C93"/>
<path d="M70.2713 36.3621V36.5581H69.7133V38.0091H69.4843V36.5581H68.9233V36.3621H70.2713Z" fill="#6B7C93"/>
<path d="M70.3882 36.3621H70.7472L71.2402 37.7131H71.2482L71.7252 36.3621H72.0772V38.0091H71.8422V36.6591H71.8342L71.3342 38.0091H71.1172L70.6292 36.6591H70.6182V38.0091H70.3882V36.3621Z" fill="#6B7C93"/>
</g>
<defs>
<clipPath id="clip0_35_3295">
<rect width="72" height="38" fill="white" transform="translate(0.0776367 0.253906)"/>
</clipPath>
</defs>
</svg>
