<!-- Generated by IcoMoon.io -->
<svg version="1.1" xmlns="http://www.w3.org/2000/svg" width="32" height="24" viewBox="0 0 32 24">
<title>cluster_icon</title>
<path fill="currentColor" d="M27.347 1.764h-22.846c-0.684 0-1.239 0.555-1.239 1.239v14.421c0 0.684 0.554 1.239 1.239 1.239h22.846c0.684 0 1.239-0.555 1.239-1.239v-14.421c0-0.684-0.554-1.239-1.239-1.239zM27.57 17.624h-23.293v-14.819h23.293v14.819z"></path>
<path fill="currentColor" d="M20.446 19.729h-8.87c-0.301 0-0.546 0.244-0.546 0.545 0 0.303 0.245 0.545 0.546 0.545h8.87c0.302 0 0.545-0.242 0.545-0.545 0-0.301-0.243-0.545-0.545-0.545z"></path>
<path fill="currentColor" d="M6.991 15.566c0.315 0 0.57-0.254 0.57-0.57v-2.031c0-0.316-0.255-0.57-0.57-0.57s-0.569 0.254-0.569 0.57v2.031c-0.001 0.316 0.254 0.57 0.569 0.57z"></path>
<path fill="currentColor" d="M9.073 15.517c0.315 0 0.57-0.256 0.57-0.57v-5.204c0-0.315-0.255-0.57-0.57-0.57s-0.57 0.255-0.57 0.57v5.204c0 0.315 0.255 0.57 0.57 0.57z"></path>
<path fill="currentColor" d="M11.13 15.517c0.301 0 0.545-0.244 0.545-0.545v-4.164c0-0.301-0.244-0.545-0.545-0.545s-0.545 0.244-0.545 0.545v4.164c0 0.301 0.243 0.545 0.545 0.545z"></path>
<path fill="currentColor" d="M13.31 15.566c0.301 0 0.545-0.244 0.545-0.545v-6.293c0-0.301-0.244-0.545-0.545-0.545s-0.546 0.244-0.546 0.545v6.294c0 0.3 0.245 0.544 0.546 0.544z"></path>
<path fill="currentColor" d="M15.366 15.517c0.315 0 0.57-0.256 0.57-0.57v-9.416c0-0.315-0.255-0.57-0.57-0.57s-0.57 0.255-0.57 0.57v9.416c0 0.315 0.255 0.57 0.57 0.57z"></path>
<path fill="currentColor" d="M19.628 13.435h5.353c0.287 0 0.519-0.232 0.519-0.519s-0.232-0.519-0.519-0.519h-5.353c-0.287 0-0.519 0.232-0.519 0.519s0.232 0.519 0.519 0.519z"></path>
<path fill="currentColor" d="M19.628 15.517h5.353c0.287 0 0.519-0.232 0.519-0.521 0-0.287-0.232-0.519-0.519-0.519h-5.353c-0.287 0-0.519 0.232-0.519 0.519-0.001 0.289 0.232 0.521 0.519 0.521z"></path>
<path fill="currentColor" d="M22.342 10.796c1.631 0 2.975-1.184 3.17-2.713h-1.024c-0.182 1.021-1.073 1.797-2.146 1.797-1.204 0-2.18-0.975-2.18-2.181 0-1.132 0.864-2.064 1.969-2.17v-0.92c-1.667 0.104-2.987 1.448-2.987 3.090 0 1.711 1.433 3.097 3.198 3.097z"></path>
</svg>
