<!-- Generated by IcoMoon.io -->
<svg version="1.1" xmlns="http://www.w3.org/2000/svg" width="32" height="24" viewBox="0 0 32 24">
<title>desktop-slider</title>
<path fill="currentColor" d="M25.64 11.112h-3.482c-0.369-1.456-1.676-2.53-3.249-2.53s-2.88 1.074-3.25 2.53h-9.212c-0.472 0-0.835 0.361-0.835 0.835 0 0.472 0.363 0.834 0.835 0.834h9.212c0.37 1.457 1.676 2.531 3.251 2.531 1.572 0 2.877-1.074 3.249-2.531h3.482c0.472 0 0.835-0.36 0.835-0.834-0.001-0.474-0.364-0.835-0.837-0.835zM18.91 13.645c-0.948 0-1.696-0.75-1.696-1.696 0-0.948 0.749-1.699 1.696-1.699 0.942 0 1.696 0.75 1.696 1.699 0 0.945-0.75 1.696-1.696 1.696z"></path>
<path fill="currentColor" d="M25.64 18.733h-9.211c-0.37-1.457-1.676-2.531-3.25-2.531-1.572 0-2.877 1.074-3.25 2.531h-3.48c-0.472 0-0.835 0.363-0.835 0.835s0.363 0.835 0.835 0.835h3.48c0.373 1.457 1.678 2.531 3.25 2.531 1.574 0 2.88-1.074 3.25-2.531h9.211c0.472 0 0.835-0.363 0.835-0.835s-0.363-0.835-0.835-0.835zM13.179 21.264c-0.945 0-1.695-0.749-1.695-1.696 0-0.945 0.75-1.696 1.695-1.696 0.946 0 1.698 0.75 1.698 1.696 0 0.948-0.752 1.696-1.698 1.696z"></path>
<path fill="currentColor" d="M6.448 5.159h3.48c0.373 1.457 1.678 2.531 3.25 2.531 1.574 0 2.88-1.074 3.25-2.529h9.211c0.472 0 0.835-0.364 0.835-0.837s-0.363-0.834-0.835-0.834h-9.211c-0.372-1.459-1.676-2.533-3.25-2.533-1.572 0-2.877 1.074-3.25 2.531h-3.48c-0.472 0-0.835 0.363-0.835 0.835-0.001 0.472 0.361 0.834 0.835 0.834zM13.179 2.628c0.946 0 1.698 0.752 1.698 1.699s-0.752 1.695-1.698 1.695c-0.945 0-1.695-0.75-1.695-1.696s0.749-1.698 1.695-1.698z"></path>
</svg>
