<svg id="ec" width="317" height="50" viewBox="0 0 317 50" fill="none" xmlns="http://www.w3.org/2000/svg">
<rect opacity="0.4" y="0.0396729" width="317" height="49" rx="6" fill="white"/>
<path d="M223.171 14.4829V18.2397H212.414V22.6031H222.308V26.1031H212.414V31.0966H223.428V34.8766H207.911V14.4829H223.171Z" fill="#2567AA"/>
<path d="M238.058 19.9197C237.801 19.4764 237.451 19.103 237.055 18.7763C236.658 18.4497 236.215 18.2163 235.701 18.0297C235.211 17.843 234.675 17.7497 234.138 17.7497C233.111 17.7497 232.248 17.9363 231.571 18.333C230.871 18.7297 230.311 19.243 229.868 19.9197C229.401 20.5731 229.098 21.3197 228.911 22.1597C228.725 23.0231 228.608 23.8631 228.608 24.7731C228.608 25.6365 228.725 26.4765 228.911 27.2932C229.098 28.1099 229.401 28.8332 229.868 29.4866C230.311 30.1166 230.871 30.6532 231.571 31.0499C232.271 31.4466 233.135 31.6333 234.138 31.6333C235.491 31.6333 236.565 31.1899 237.358 30.3732C238.128 29.5332 238.571 28.4365 238.758 27.0365H243.098C242.982 28.3199 242.678 29.4866 242.212 30.5132C241.745 31.5399 241.115 32.4266 240.321 33.15C239.528 33.8733 238.641 34.41 237.591 34.8067C236.541 35.18 235.375 35.3667 234.138 35.3667C232.575 35.3667 231.175 35.0867 229.915 34.5267C228.678 33.99 227.628 33.2433 226.741 32.2866C225.901 31.3299 225.225 30.2099 224.781 28.9265C224.314 27.6665 224.104 26.2665 224.104 24.7731C224.104 23.2564 224.314 21.8331 224.781 20.5264C225.248 19.243 225.901 18.0763 226.741 17.1197C227.628 16.163 228.678 15.3929 229.915 14.8329C231.151 14.2729 232.551 13.9929 234.138 13.9929C235.258 13.9929 236.331 14.1563 237.311 14.4829C238.315 14.8096 239.225 15.2763 239.995 15.9063C240.788 16.513 241.441 17.283 241.955 18.193C242.445 19.103 242.795 20.1297 242.912 21.3197H238.571C238.501 20.8297 238.315 20.3397 238.058 19.9197Z" fill="#2567AA"/>
<path d="M251.172 14.4829L255.955 28.5065H256.002L260.529 14.4829H266.829V34.8766H262.629V20.433H262.582L257.588 34.8766H254.135L249.118 20.5497H249.072V34.8766H244.872V14.4829H251.172Z" fill="#2567AA"/>
<path d="M284.586 34.8766L281.132 20.993H281.086L277.679 34.8766H273.129L267.762 14.4829H272.242L275.462 28.3665H275.509L279.056 14.4829H283.256L286.733 28.5532H286.803L290.139 14.4829H294.526L289.043 34.8766H284.586Z" fill="#2567AA"/>
<path d="M309.786 14.4829V18.2397H299.939V22.9531H308.479V26.4531H299.939V34.8766H295.459V14.4829H309.786Z" fill="#2567AA"/>
<path d="M169.9 25.9165H179.934V23.1864H169.9C169.737 24.0964 169.76 25.0298 169.9 25.9165Z" fill="#2567AA"/>
<path d="M203.291 26.8498C202.241 32.4499 197.294 36.6033 191.624 36.6033C189.967 36.6033 188.194 36.16 186.7 35.53C185.137 36.2767 183.41 36.6033 181.66 36.6033C175.967 36.6033 171.02 32.5199 170.017 26.8965L177.32 26.8732C178.137 28.6932 179.98 29.8599 181.964 29.8599C184.11 29.8599 186.094 28.4132 186.817 26.4298C187.494 28.4598 189.477 29.8599 191.647 29.8599C193.677 29.8599 195.567 28.6699 196.337 26.8732L203.291 26.8498Z" fill="#2567AA"/>
<path d="M203.291 22.2297C202.241 16.6296 197.294 12.4762 191.624 12.4762C189.967 12.4762 188.194 12.8962 186.7 13.5496C185.137 12.8029 183.41 12.4762 181.66 12.4762C175.967 12.4762 171.02 16.5363 170.017 22.1831H177.32C178.137 20.363 179.98 19.1963 181.964 19.1963C184.11 19.1963 186.094 20.6664 186.817 22.6497C187.494 20.5964 189.477 19.1963 191.647 19.1963C193.677 19.1963 195.567 20.3864 196.337 22.2064L203.291 22.2297Z" fill="#2567AA"/>
<path d="M18.3232 35.8553C20.1204 37.652 24.9043 42.5287 24.9021 42.5337C24.8846 42.5655 29.6545 37.7763 31.5543 35.8776L24.9274 29.251L18.3232 35.8553Z" fill="#3A1888"/>
<path d="M24.9272 29.251L31.5542 35.8775C31.564 35.8665 31.5761 35.854 31.5868 35.8441L38.2072 29.2233L31.581 22.597L24.9272 29.251Z" fill="#03A1C4"/>
<path d="M38.2073 29.2234L38.2243 29.2063C41.8865 25.5445 41.8895 19.6096 38.2353 15.9432L31.5811 22.597L38.2073 29.2234Z" fill="#05D0DF"/>
<path d="M18.273 22.597L11.6699 29.1999C11.6718 29.2021 11.6729 29.2044 11.6752 29.2063L18.312 35.8442C18.3158 35.8476 18.3196 35.8511 18.323 35.8552L24.9272 29.251L18.273 22.597Z" fill="#761FE8"/>
<path d="M24.9272 15.9428L31.581 22.5971L38.2352 15.9432C38.2299 15.9394 38.228 15.9356 38.2242 15.9319L31.5868 9.29473C31.5852 9.29284 31.583 9.29095 31.581 9.28906L24.9272 15.9428Z" fill="#FFAA01"/>
<path d="M11.6421 15.9659C8.01245 19.6323 8.02155 25.5453 11.6701 29.1999L18.2731 22.5971L11.6421 15.9659Z" fill="#F1175D"/>
<path d="M24.9273 15.9427L18.2959 9.31134L11.6754 15.9318C11.664 15.9431 11.6538 15.9553 11.6421 15.9658L18.2731 22.5969L24.9273 15.9427Z" fill="#FB3A1B"/>
<path d="M31.5811 9.289C27.9145 5.62912 21.9763 5.63108 18.3122 9.29467L18.2959 9.31133L24.9274 15.9427L31.5811 9.289Z" fill="#FBC935"/>
<path d="M59.0279 30.883V24.1017C59.0279 22.4322 58.1544 20.9173 56.4325 20.9173C54.7368 20.9173 53.7363 22.4322 53.7363 24.1017V30.883H50.603V18.1942H53.5052L53.7363 19.7356C54.4042 18.4509 55.8684 17.9892 57.0743 17.9892C58.5911 17.9892 60.1057 18.606 60.8254 20.352C61.9555 18.554 63.42 18.0404 65.063 18.0404C68.6596 18.0404 70.4315 20.249 70.4315 24.0506V30.8829H67.2978V24.0506C67.2978 22.3818 66.6045 20.968 64.9103 20.968C63.214 20.968 62.1608 22.4322 62.1608 24.1017V30.883H59.0279Z" fill="#333359"/>
<path d="M83.6593 18.2207H86.665V30.883H83.7104L83.5559 29.0343C82.8372 30.5232 80.8597 31.2418 79.4467 31.2683C75.6978 31.2941 72.9229 28.9825 72.9229 24.5387C72.9229 20.1725 75.8262 17.8867 79.5248 17.9124C81.2196 17.9124 82.8372 18.7084 83.5559 19.9672L83.6593 18.2207ZM76.0566 24.5387C76.0566 26.9523 77.7261 28.3915 79.8067 28.3915C84.738 28.3915 84.738 20.7115 79.8067 20.7115C77.7261 20.7115 76.0566 22.1246 76.0566 24.5387Z" fill="#333359"/>
<path d="M89.3105 36.1749V18.2207H92.2393L92.4439 19.9671C93.4205 18.554 95.1161 17.9377 96.5542 17.9377C100.457 17.9377 103.053 20.8407 103.053 24.5644C103.053 28.2637 100.715 31.1917 96.6565 31.1917C95.3219 31.1917 93.3432 30.7795 92.4439 29.393V36.1749H89.3105V36.1749ZM99.919 24.5644C99.919 22.5867 98.5833 20.968 96.3231 20.968C94.0622 20.968 92.7265 22.5867 92.7265 24.5644C92.7265 26.5415 94.191 28.161 96.3231 28.161C98.4559 28.161 99.919 26.5415 99.919 24.5644Z" fill="#333359"/>
<path d="M108.652 14.3676V18.1942H112.967V19.2474H108.652V26.9791C108.652 28.6994 109.012 29.9067 110.989 29.9067C111.606 29.9067 112.299 29.7011 112.941 29.393L113.378 30.4196C112.581 30.8061 111.785 31.0626 110.989 31.0626C108.293 31.0626 107.419 29.4699 107.419 26.9791V19.2474H104.722V18.1942H107.419V14.496L108.652 14.3676Z" fill="#333359"/>
<path d="M117.539 14.0589C117.539 15.3946 115.51 15.3946 115.51 14.0589C115.51 12.7239 117.539 12.7239 117.539 14.0589ZM115.871 18.1427V30.883H117.128V18.1427H115.871Z" fill="#333359"/>
<path d="M121.983 12.9042V30.883H120.724V12.9042H121.983Z" fill="#333359"/>
<path d="M141.94 18.1942L141.991 20.4555C142.787 18.7332 144.586 18.0661 146.204 18.0661C147.155 18.0405 148.078 18.2976 148.927 18.8114L148.361 19.8383C147.694 19.4274 146.948 19.2475 146.204 19.2475C143.84 19.274 142.017 21.1741 142.017 23.4862V30.8831H140.758V18.1942H141.94Z" fill="#333359"/>
<path d="M131.22 30.1196C128.983 30.1196 127.068 28.7186 126.266 26.7294L126.259 26.7297L126.266 26.728C126.265 26.7269 126.265 26.7258 126.264 26.7247L136.537 23.9981C136.537 24.002 136.537 24.0059 136.538 24.0097L137.631 23.7204C137.19 20.5062 134.488 18.0327 131.22 18.0327C127.643 18.0327 124.745 20.9944 124.745 24.6477C124.745 28.301 127.643 31.2628 131.22 31.2628C133.895 31.2628 136.19 29.6055 137.178 27.2414L136.148 26.7936C135.331 28.7487 133.432 30.1196 131.22 30.1196ZM125.864 24.6479C125.864 21.6257 128.262 19.176 131.22 19.176C133.532 19.176 135.503 20.6737 136.252 22.7713L125.931 25.5109C125.887 25.2297 125.864 24.9417 125.864 24.6479Z" fill="#333359"/>
<line x1="158.5" y1="12.0397" x2="158.5" y2="37.0397" stroke="#333359"/>
</svg>
