<svg id="enedis" width="159" height="33" viewBox="0 0 159 33" fill="none" xmlns="http://www.w3.org/2000/svg">
<g clip-path="url(#clip0_1125_1871)">
<path d="M72.8326 26.9717C69.5397 26.9717 66.8608 24.4871 66.8608 21.3946L66.8725 20.3828H79.6078C84.0148 20.3828 87.5992 17.0168 87.5992 12.879V8.12452C87.5992 3.98673 84.0148 0.62085 79.6078 0.62085H68.4955C67.8784 0.62085 67.2541 0.626739 66.6402 0.763761C63.0269 1.5739 60.5169 4.63814 60.5169 8.12454V10.8843C60.5169 11.516 60.9743 12.0306 61.5373 12.0306H65.8505C66.4135 12.0306 66.8714 11.516 66.8714 10.8843V10.1922V9.1028C66.8714 7.66317 68.1416 6.49139 69.7033 6.49139H78.4164C79.9776 6.49139 81.2478 7.66317 81.2478 9.1028V11.9252C81.2478 13.3636 79.9776 14.5343 78.4164 14.5343H56.8755V20.3829H60.5027V21.3937C60.5027 27.7266 66.0593 32.8414 72.8542 32.8414H91.2476V26.9709L72.8326 26.9717Z" fill="#AEB6C7"/>
<path d="M44.5536 6.49605C47.8467 6.49605 50.5253 9.01354 50.5253 12.107V31.8101C50.5253 32.379 51.0342 32.8404 51.6589 32.8404H55.741C56.3668 32.8404 56.8752 32.379 56.8752 31.8101V12.107C56.8752 5.77291 51.3478 0.62085 44.5536 0.62085H31.4226C30.8592 0.62085 30.4009 1.13529 30.4009 1.76822V31.6953C30.4009 32.327 30.8592 32.8404 31.4226 32.8404H35.7361C36.3001 32.8404 36.759 32.327 36.759 31.6953V6.49303L44.5536 6.49605Z" fill="#6B7C92"/>
<path d="M8.91034 6.4927H25.6459C26.2586 6.4927 26.7578 6.03945 26.7578 5.48192V1.63438C26.7578 1.0756 26.2821 0.620117 25.6459 0.620117H8.79383C4.10102 0.620117 0.283203 4.16872 0.283203 8.53967V24.9217C0.283203 29.2915 4.10102 32.8415 8.79383 32.8415H25.6459C26.2586 32.8415 26.7578 32.3872 26.7578 31.8297V27.9826C26.7578 27.425 26.2586 26.9718 25.6459 26.9718H8.91034C7.6792 26.9718 6.63859 25.9866 6.63859 24.8205V20.325H16.6476C17.2604 20.325 17.7588 19.8705 17.7588 19.3132V15.5472C17.7588 14.9886 17.2604 14.5344 16.6476 14.5344H6.63859V8.64513C6.63859 7.47784 7.6792 6.4927 8.91034 6.4927Z" fill="#6B7C92"/>
<path d="M158.122 21.7377C158.122 21.4469 158.121 21.1485 158.092 20.8247C157.778 17.2459 154.127 14.5343 150.278 14.5343H140.731L140.487 14.533C138.957 14.533 137.715 13.1641 137.715 11.4835L137.723 9.29524C137.723 7.75132 139.078 6.49485 140.743 6.49485H144.51L144.547 6.49605H154.068C154.554 6.49605 154.986 6.20988 155.141 5.78327C155.181 5.66955 155.201 5.56534 155.201 5.46456V1.65114C155.201 1.08221 154.692 0.62085 154.068 0.62085L139.215 0.623798C134.911 0.623798 131.358 3.90512 131.358 7.93639L131.359 12.4984C131.359 16.846 134.608 20.3836 138.6 20.3836H149.008C150.536 20.3836 151.766 21.7523 151.766 23.4342V24.1654C151.766 25.7093 150.426 26.9646 148.762 26.9646H132.493C132.005 26.9646 131.574 27.2498 131.421 27.674C131.378 27.7899 131.358 27.8953 131.358 27.9951V31.8083C131.358 32.3775 131.867 32.84 132.493 32.84H145.809L150.326 32.8371C154.629 32.8371 158.122 29.5558 158.122 25.5213L158.122 21.7377Z" fill="#6B7C92"/>
<path d="M106.111 0.619629H92.2688C91.7058 0.619629 91.2474 1.13526 91.2474 1.76819V20.7166C91.2474 21.3493 91.7043 21.8629 92.2673 21.8629H96.5759C97.1389 21.8629 97.5968 21.3493 97.5968 20.7166L97.6026 6.48972L105.399 6.49266C108.692 6.49266 111.371 9.01015 111.371 12.1048V22.4518C111.371 25.5453 108.692 26.9571 105.399 26.9571L91.2471 26.9721V32.8414L105.399 32.8326C112.193 32.8326 117.722 28.7852 117.722 22.4521V12.0378C117.722 5.96098 112.675 0.619629 106.111 0.619629Z" fill="#6B7C92"/>
<path d="M127.717 20.9166L127.706 10.1459C127.706 9.51414 127.248 9.00073 126.685 9.00073H122.386C121.823 9.00073 121.365 9.51414 121.365 10.1459V20.9166L121.375 31.6871C121.375 32.3188 121.833 32.8323 122.396 32.8323H126.696C127.258 32.8323 127.717 32.3188 127.717 31.6871V20.9166Z" fill="#6B7C92"/>
<path d="M127.717 3.06706L127.706 1.76501C127.706 1.13334 127.248 0.619873 126.685 0.619873H122.386C121.823 0.619873 121.365 1.13334 121.365 1.76501V3.06706L121.375 5.34734C121.375 5.97906 121.833 6.49246 122.396 6.49246H126.696C127.258 6.49246 127.717 5.97906 127.717 5.34734V3.06706Z" fill="#6B7C92"/>
</g>
<defs>
<clipPath id="clip0_1125_1871">
<rect width="158" height="32" fill="white" transform="translate(0.120117 0.786133)"/>
</clipPath>
</defs>
</svg>
