<!-- Generated by IcoMoon.io -->
<svg version="1.1" xmlns="http://www.w3.org/2000/svg" width="28" height="24" viewBox="0 0 28 24">
<title>engine_icon</title>
<path fill="currentColor" d="M25.559 0.36h-23.154c-1.067 0-1.93 0.863-1.93 1.93v19.296c0 1.066 0.863 1.929 1.93 1.929h23.153c1.064 0 1.931-0.865 1.931-1.929v-19.296c0.001-1.067-0.866-1.93-1.93-1.93zM6.747 1.808c0.532 0 0.965 0.429 0.965 0.965 0 0.532-0.433 0.962-0.965 0.962-0.537 0-0.968-0.429-0.968-0.962 0.002-0.535 0.434-0.965 0.968-0.965zM3.851 1.808c0.534 0 0.965 0.429 0.965 0.965 0 0.532-0.43 0.962-0.965 0.962-0.533 0-0.965-0.429-0.965-0.962 0-0.535 0.43-0.965 0.965-0.965zM25.559 21.588h-23.154v-16.383h23.153v16.383z"></path>
<path fill="currentColor" d="M11.29 9.169l-6.197-2.833v1.366l4.792 2.047v0.027l-4.792 2.048v1.365l6.197-2.834z"></path>
<path fill="currentColor" d="M14.208 9.112h3.376v1.302h-3.376v-1.302z"></path>
</svg>
