<!-- Generated by IcoMoon.io -->
<svg version="1.1" xmlns="http://www.w3.org/2000/svg" width="32" height="24" viewBox="0 0 32 24">
<title>engine_eye</title>
<path fill="currentColor" d="M31.476 12.081c-0.323-0.293-8.039-7.159-15.321-7.159s-15 6.866-15.325 7.159c-0.212 0.191-0.333 0.461-0.333 0.747s0.121 0.557 0.333 0.747c0.325 0.292 8.042 7.157 15.325 7.157s15-6.865 15.322-7.157c0.215-0.19 0.336-0.462 0.336-0.747s-0.122-0.556-0.337-0.747zM16.155 18.519c-3.138 0-5.69-2.555-5.69-5.69 0-3.137 2.552-5.69 5.69-5.69s5.69 2.553 5.69 5.69c0 3.135-2.553 5.69-5.69 5.69zM9.712 8.616c-0.795 1.214-1.262 2.658-1.262 4.212 0 1.551 0.465 2.995 1.259 4.208-2.882-1.358-5.37-3.195-6.638-4.211 1.269-1.014 3.758-2.853 6.641-4.209zM22.597 17.039c0.791-1.212 1.261-2.658 1.261-4.211s-0.466-2.998-1.261-4.209c2.882 1.356 5.371 3.196 6.641 4.209-1.27 1.015-3.758 2.854-6.641 4.211z"></path>
<path fill="currentColor" d="M16.155 9.59c-1.79 0-3.238 1.45-3.238 3.239s1.449 3.237 3.238 3.237c1.789 0 3.238-1.449 3.238-3.237-0.001-1.793-1.451-3.239-3.238-3.239zM16.155 11.639c-0.656 0-1.19 0.532-1.19 1.19 0 0.278-0.225 0.503-0.502 0.503-0.279 0-0.504-0.224-0.504-0.503 0-1.211 0.984-2.198 2.196-2.198 0.279 0 0.503 0.227 0.503 0.504-0.001 0.278-0.225 0.504-0.504 0.504z"></path>
</svg>
