<!-- Generated by IcoMoon.io -->
<svg version="1.1" xmlns="http://www.w3.org/2000/svg" width="24" height="24" viewBox="0 0 24 24">
<title>engine_speed</title>
<path fill="currentColor" d="M9.559 15.752c-0.208 0.595-0.168 1.233 0.114 1.798s0.769 0.988 1.375 1.192c0.251 0.085 0.513 0.128 0.777 0.128 1.023 0 1.933-0.64 2.266-1.59 0.033-0.095 0.057-0.189 0.076-0.284 0.047-0.072 0.081-0.152 0.097-0.239l2.068-11.101c0.061-0.328-0.131-0.649-0.452-0.759-0.32-0.107-0.675 0.032-0.83 0.326l-5.306 10.011c-0.042 0.080-0.066 0.165-0.073 0.25-0.042 0.086-0.081 0.175-0.114 0.269zM0.562 16.69c0 0.37 0.306 0.672 0.685 0.672 0.378 0 0.685-0.301 0.685-0.672 0-5.36 4.438-9.722 9.894-9.722 0.378 0 0.684-0.301 0.684-0.672s-0.306-0.672-0.684-0.672c-6.212 0.001-11.264 4.964-11.265 11.066zM17.939 8.182c-0.237 0.288-0.193 0.713 0.103 0.946 2.336 1.857 3.676 4.612 3.676 7.562 0 0.371 0.306 0.673 0.685 0.673s0.685-0.302 0.685-0.673c0-3.358-1.526-6.494-4.185-8.609-0.295-0.232-0.726-0.187-0.964 0.101z"></path>
</svg>
