<!-- Generated by IcoMoon.io -->
<svg version="1.1" xmlns="http://www.w3.org/2000/svg" width="24" height="24" viewBox="0 0 24 24">
<title>geo_line</title>
<path fill="currentColor" d="M8.7 4.1c2.6 0 4.6 1.7 4.6 4.5s-4.7 7.4-4.8 7.4c-0.1 0-4.5-4.6-4.5-7.4 0.1-2.8 2.2-4.5 4.7-4.5z"></path>
<path fill="currentColor" d="M12.4 16.2c0.3 0 0.6 0.1 0.8 0.2l3.4-3.5c-0.2-0.3-0.2-0.6-0.2-0.9 0-1 0.8-1.8 1.8-1.8s1.8 0.8 1.8 1.8-0.8 1.8-1.8 1.8c-0.4 0-0.7-0.1-1-0.3l-3.4 3.5c0.2 0.3 0.3 0.7 0.3 1.1 0 1-0.8 1.8-1.8 1.8s-1.8-0.8-1.8-1.8c0-1 0.8-1.9 1.9-1.9z"></path>
</svg>
