<!-- Generated by IcoMoon.io -->
<svg version="1.1" xmlns="http://www.w3.org/2000/svg" width="31" height="24" viewBox="0 0 31 24">
<title>geopackage_icon</title>
<path fill="currentColor" d="M5.102 7.039l2.72-1.57 0.018-0.057 0.062-0.177 0.066-0.176 0.071-0.174 0.076-0.172 0.079-0.17 0.083-0.168 0.087-0.166 0.092-0.165 0.095-0.162 0.1-0.16 0.104-0.158 0.108-0.156 0.111-0.153 0.116-0.151 0.119-0.148 0.123-0.146 0.088-0.1-8.408 4.675 4.089-0.348zM26.108 7.258l-3.341-1.627-0.051-0.161-0.061-0.181-0.067-0.179-0.070-0.177-0.076-0.175-0.080-0.174-0.084-0.172-0.087-0.169-0.093-0.168-0.096-0.166-0.101-0.163-0.105-0.161-0.109-0.158-0.113-0.156-0.117-0.153-0.121-0.151-0.002-0.002 8.050 3.947-3.277 0.345zM15.5 12.217l4.959 4.915 10.463-5.907-4.814-3.966-7.475 3.494zM5.109 7.129l-4.608 4.613 10.559 5.95 4.441-5.476-10.392-5.088zM5.106 17.836l-0.029-2.602 5.979 3.57 4.468-5.516 4.85 4.83 5.58-3.16c-0.007 0.846-0.012 1.691-0.018 2.536-0.002 0.232-0.002 0.214-0.203 0.329-3.183 1.812-6.279 3.79-9.562 5.416-0.491 0.243-0.942 0.197-1.345-0.047l-9.719-5.356z"></path>
<path fill="currentColor" d="M20.358 2.935c1.353 1.352 2.098 3.15 2.098 5.063 0 0.098-0.003 0.195-0.006 0.292l-1.497 0.7c-0.126-0.98-1.047-0.346-1.627-0.703-0.615 0.414-1.999-0.807-1.764 0.571 0.363 0.621 1.958-0.831 1.163 0.483-0.137 0.248-0.335 0.577-0.548 0.946l-2.643 1.236-0.976-0.478c-0.112-0.525-0.304-0.977-0.718-1.192-1.046-0.046-1.944-0.141-2.349-1.309-0.244-0.837 0.259-2.082 1.156-2.275 1.313-0.824 1.781 0.966 3.012 1 0.382-0.4 1.424-0.527 1.51-0.975-0.808-0.143 1.024-0.679-0.077-0.984-0.608 0.071-1 0.63-0.676 1.104-1.178 0.275-1.216-1.705-2.349-1.080-0.029 0.987-1.849 0.32-0.629 0.12 0.418-0.183-0.684-0.713-0.088-0.617 0.292-0.016 1.277-0.36 1.011-0.593 0.548-0.34 1.009 0.815 1.546-0.026 0.388-0.647-0.162-0.766-0.648-0.438-0.274-0.307 0.483-0.969 1.151-1.255 0.223-0.095 0.435-0.147 0.598-0.133 0.336 0.389 0.959 0.456 0.991-0.047-0.833-0.399-1.751-0.61-2.703-0.61-1.365 0-2.664 0.434-3.738 1.236 0.289 0.133 0.453 0.297 0.175 0.508-0.217 0.644-1.093 1.509-1.864 1.387-0.399 0.689-0.662 1.448-0.775 2.244 0.645 0.213 0.793 0.636 0.655 0.777-0.186 0.163-0.332 0.364-0.442 0.589l-1.17-0.573c0.025-1.876 0.767-3.636 2.097-4.966 1.352-1.352 3.15-2.097 5.063-2.097s3.71 0.745 5.063 2.097z"></path>
</svg>
