<!-- Generated by IcoMoon.io -->
<svg version="1.1" xmlns="http://www.w3.org/2000/svg" width="24" height="24" viewBox="0 0 24 24">
<title>georeferenecer</title>
<path fill="currentColor" d="M12 19.5c-2.5 0-4.4-2-4.4-4.4s2-4.4 4.4-4.4 4.4 2 4.4 4.4-1.9 4.4-4.4 4.4zM17.7 14.4c-0.3-2.7-2.4-4.8-5.1-5.1v-1.3h-1.2v1.3c-2.7 0.3-4.8 2.4-5.1 5.1h-1.3v1.2h1.3c0.3 2.7 2.4 4.8 5.1 5.1v1.3h1.2v-1.3c2.7-0.3 4.8-2.4 5.1-5.1h1.3v-1.2c0 0-1.3 0-1.3 0z"></path>
<path fill="currentColor" d="M14.1 7h-1l-2.5-4v0.2c0 0.4 0 0.8 0 1.2v2.6h-0.7v-5h1l2.5 4c0-0.1 0-0.2 0-0.6 0-0.3 0-0.6 0-0.8v-2.6h0.7v5z"></path>
</svg>
