<!-- Generated by IcoMoon.io -->
<svg version="1.1" xmlns="http://www.w3.org/2000/svg" width="24" height="24" viewBox="0 0 24 24">
<title>georeferencer</title>
<path fill="currentColor" d="M11.086 0v1.266c-2.611 0.221-4.957 1.372-6.703 3.117s-2.896 4.092-3.117 6.703h-1.266v1.828h1.266c0.22 2.611 1.372 4.957 3.117 6.703s4.092 2.897 6.703 3.117v1.266h1.828v-1.266c2.611-0.221 4.957-1.372 6.703-3.117s2.896-4.092 3.117-6.703h1.266v-1.828h-1.266c-0.221-2.611-1.373-4.958-3.117-6.703-1.746-1.745-4.092-2.896-6.703-3.117v-1.266zM11.086 3.258v1.922c-1.533 0.206-2.918 0.905-3.961 1.945-1.040 1.041-1.741 2.427-1.945 3.961h-1.922c0.216-2.055 1.145-3.909 2.531-5.297 1.39-1.387 3.243-2.315 5.297-2.531zM12.914 3.258c2.055 0.216 3.909 1.145 5.297 2.531 1.386 1.39 2.315 3.243 2.531 5.297h-1.922c-0.205-1.534-0.905-2.918-1.945-3.961-1.040-1.039-2.427-1.741-3.961-1.945zM11.086 6.633c0.888-0.098 1.219-0.099 1.828 0 1.134 0.195 2.148 0.743 2.93 1.523s1.329 1.796 1.523 2.93c0.094 0.733 0.077 1.084 0 1.828-0.195 1.133-0.743 2.148-1.523 2.93s-1.796 1.328-2.93 1.523c-0.756 0.136-0.83 0.155-1.828 0-1.133-0.194-2.147-0.743-2.93-1.523-0.781-0.782-1.329-1.797-1.523-2.93-0.084-0.643-0.086-1.093 0-1.828 0.194-1.134 0.743-2.147 1.523-2.93 0.781-0.781 1.797-1.329 2.93-1.523zM3.258 12.914h1.922c0.205 1.532 0.906 2.919 1.945 3.961 1.041 1.040 2.427 1.741 3.961 1.945v1.922c-2.054-0.216-3.908-1.146-5.297-2.531-1.386-1.39-2.315-3.243-2.531-5.297zM18.82 12.914h1.922c-0.216 2.054-1.146 3.909-2.531 5.297-1.39 1.387-3.242 2.315-5.297 2.531v-1.922c1.533-0.205 2.919-0.906 3.961-1.945 1.040-1.040 1.741-2.427 1.945-3.961z"></path>
</svg>
