<!-- Generated by IcoMoon.io -->
<svg version="1.1" xmlns="http://www.w3.org/2000/svg" width="24" height="24" viewBox="0 0 24 24">
<title>github</title>
<path fill="currentColor" d="M20.571 12q0 3.362-1.962 6.047t-5.069 3.717q-0.362 0.067-0.529-0.094t-0.167-0.402v-2.826q0-1.299-0.696-1.902 0.763-0.080 1.373-0.241t1.259-0.522 1.085-0.891 0.71-1.406 0.275-2.016q0-1.621-1.058-2.759 0.496-1.219-0.107-2.732-0.375-0.121-1.085 0.147t-1.232 0.589l-0.509 0.321q-1.246-0.348-2.571-0.348t-2.571 0.348q-0.214-0.147-0.569-0.362t-1.118-0.516-1.152-0.181q-0.589 1.513-0.094 2.732-1.058 1.138-1.058 2.759 0 1.138 0.275 2.009t0.703 1.406 1.078 0.897 1.259 0.522 1.373 0.241q-0.536 0.482-0.656 1.379-0.281 0.134-0.603 0.201t-0.763 0.067-0.877-0.288-0.743-0.837q-0.254-0.429-0.65-0.696t-0.663-0.321l-0.268-0.040q-0.281 0-0.388 0.060t-0.067 0.154 0.121 0.188 0.174 0.161l0.094 0.067q0.295 0.134 0.583 0.509t0.422 0.683l0.134 0.308q0.174 0.509 0.589 0.824t0.897 0.402 0.931 0.094 0.743-0.047l0.308-0.054q0 0.509 0.007 1.192t0.007 0.723q0 0.241-0.174 0.402t-0.536 0.094q-3.107-1.031-5.069-3.717t-1.962-6.047q0-2.799 1.379-5.163t3.743-3.743 5.163-1.379 5.163 1.379 3.743 3.743 1.379 5.163z"></path>
</svg>
