<svg id="gulf" width="192" height="28" viewBox="0 0 192 28" fill="none" xmlns="http://www.w3.org/2000/svg"><g clip-path="url(#clip0_35_3357)" fill="#6B7C93"><path d="M142.607 8.09863c-3.053 0-5.142 1.41199-5.142 1.41199-2.116 1.41198-2.116 3.43668-2.116 3.43668 0 1.0124.643 1.6784.643 1.6785.643.666 1.607.666 1.607.666.884 0 1.526-.6128 1.526-.6128.643-.6127.643-1.4652.643-1.4652 0-1.0124-.857-1.492-.857-1.492l-.589-.3996-.107-.3729c0-.2665.268-.5862.268-.5862.267-.37294.723-.61271.723-.61271 1.339-.85252 3.16-.85252 3.16-.85252 2.249 0 3.133 1.03901 3.133 1.03901.857 1.06562.857 3.83632.857 3.83632l-.027 2.6908-3.856.746c-3.91.7459-5.945 2.371-5.945 2.371-2.036 1.5719-2.036 3.863-2.036 3.863 0 2.078 1.42 3.3302 1.42 3.3302 1.419 1.2255 3.802 1.2255 3.802 1.2255 2.304 0 3.991-1.1456 3.991-1.1456 1.687-1.1189 2.624-3.3035 2.624-3.3035.107 2.451.911 3.4634.911 3.4634.83.9857 2.758.9857 2.758.9857 2.062 0 3.053-1.2788 3.053-1.2788.964-1.3054.964-4.0495.964-4.0495v-.373h-.803c-.027 2.3178-.536 3.3835-.536 3.3835-.509 1.0656-1.553 1.0656-1.553 1.0656-.536 0-.75-.4529-.75-.4529-.214-.4529-.214-1.5718-.214-1.5718v-9.804c0-2.0247-.482-3.2769-.482-3.2769-.482-1.2521-1.58-2.02472-1.58-2.02471-.991-.69268-2.464-1.11894-2.464-1.11894-1.473-.39962-3.026-.39962-3.026-.39962zm3.722 9.08467v1.1189c0 2.6375-.214 3.7565-.214 3.7565-.241 1.1455-1.044 2.3444-1.044 2.3444-.67 1.0657-1.768 1.7317-1.768 1.7317-1.098.6927-2.116.6927-2.116.6927-1.124 0-1.767-.9591-1.767-.9591-.643-.9591-.643-2.6642-.643-2.6642 0-2.4776 1.473-3.8896 1.473-3.8896.884-.8259 2.276-1.3054 2.276-1.3054 1.313-.4529 3.803-.8259 3.803-.8259z"/><path d="M171.101 8.73802s1.259.63939 1.875 1.73168l.562 1.3854.375 2.1845s.857-2.9305 2.705-4.42241c0 0 1.848-1.51856 4.606-1.51856 0 0 3.348 0 4.874 1.89153 0 0 .67.87914.857 1.75834 0 0 .188.8525.188 3.0105v9.0047s0 1.7583.696 2.3178c0 0 .697.5595 3.214.746v.6394h-11.569v-.6394s2.49-.1865 3.187-.746c0 0 .696-.5595.696-2.3178V14.679s0-3.3301-.509-4.2892c0 0-.509-.93246-2.33-.93246 0 0-2.062 0-3.589 1.22546 0 0-1.553 1.1989-2.169 3.3568 0 0-.428 1.4387-.589 2.9572 0 0-.161 1.4919-.161 4.1827v2.5309s0 1.785.723 2.3711c0 0 .697.5595 3.187.746v.6394h-11.569v-.6394s2.491-.1865 3.187-.746c0 0 .696-.5595.696-2.3178V13.1338s0-1.9448-.669-2.7973c0 0-.697-.87916-2.196-.87916 0 0-1.795 0-3.241 1.11896 0 0-1.499 1.1455-2.249 3.117 0 0-.616 1.5985-.83 3.1703 0 0-.215 1.5985-.215 4.609v2.2378s0 1.785.697 2.3711c0 0 .723.5595 3.186.746v.6394h-11.569v-.6394s2.491-.1865 3.214-.746c0 0 .696-.5595.696-2.3178V12.3612s0-1.5185-.187-2.0247c0 0-.188-.47954-.884-.71931l-2.839-.34634v-.69267l7.686-.47955v5.94097s.991-2.8506 2.946-4.39577c0 0 1.902-1.5452 4.446-1.5452 0 0 1.553 0 2.865.63939zM55.9711 0v23.7108s0 1.8116.6963 2.371c0 0 .6427.5062 2.8387.7193 0 0 2.1693-.2131 2.8388-.7193 0 0 .6963-.5594.6963-2.3178V9.45766h-3.91v-.79924h3.91s.1875-2.47764.7766-4.02283c0 0 .616-1.5452 1.9015-2.71742 0 0 1.9817-1.91817 4.7669-1.91817 0 0 2.0354 0 3.428 1.01237 0 0 1.3658 1.01237 1.3658 2.50428 0 0 0 .93245-.5624 1.51855 0 0-.5356.58611-1.4462.58611 0 0-.9373 0-1.4729-.53282 0 0-.5356-.55947-.5356-1.49192 0 0 0-.5861.5088-1.41198l.1607-.39962s0-.39962-.5089-.66604c0 0-.5088-.29305-1.2051-.29305 0 0-1.9818 0-2.7048 1.38535 0 0-.6963 1.3587-.6963 5.11513v1.33206h5.3026v.79924H66.844V23.764s-.0267 1.7584.6963 2.3178c0 0 .6963.5595 3.1602.746v.6394l-24.6115.1598-2.8655.1865-.7499.0799v-5.7811s-.5892 1.3853-1.0712 2.1313l-1.1516 1.4652s-1.0177 1.0923-2.4638 1.7051c0 0-1.3926.5861-2.9459.5861 0 0-1.339 0-2.4638-.4795 0 0-1.1516-.5062-1.7943-1.3854 0 0-.7231-.9324-.9909-2.1047 0 0-.2678-1.1722-.2678-3.2502v-8.4186s0-1.5452-.1875-2.0248c0 0-.2142-.47952-.9373-.71929l-3.053-.34634V8.5785l7.9539-.47955V21.7127s0 2.6108.6963 3.8629c0 0 .723 1.2522 2.196 1.2522 0 0 1.7139 0 3.3208-1.4386 0 0 1.6068-1.4653 2.4102-3.7298 0 0 .7499-2.0514.7499-5.4082v-3.8896s0-1.5719-.1607-2.0248c0 0-.1874-.47952-.9105-.71929l-2.9459-.34634V8.5785l7.8467-.47955V23.7108s0 1.8116.6963 2.371c0 0 .5624.4529 2.2496.6661 0 0 1.6604-.2132 2.2228-.6661 0 0 .7231-.5594.7231-2.3178V4.36917s0-1.57183-.1875-2.05138c0 0-.1874-.4529-.9105-.69267l-2.812-.39962V.586108h.241l3.91-.239771 3.1602-.266413L55.9711 0z"/><path d="M85.6706 8.36505v7.08655h-.6427s-.4821-3.0637-2.1425-4.822c0 0-1.6336-1.73173-4.0707-1.73173 0 0-1.6336 0-2.7584.85252 0 0-1.1248.85251-1.1248 2.10471 0 0 0 1.2521 1.0445 1.9714 0 0 1.0712.7193 4.5795 1.8649l2.7852.9591s.7498.293 1.4997.7726c0 0 1.0177.6394 1.6336 1.785 0 0 .5892 1.1455.5892 2.451 0 0 0 2.6641-2.1692 4.5023 0 0-2.1693 1.8383-5.3294 1.8383 0 0-2.6781 0-4.8473-1.3587l-1.339-.9058-.2679-.1066s-.3481 0-.5891.6394l-.1607.5595-.3214 1.0656h-.6427V19.288h.6427s2.2228 7.9391 7.5254 7.9391c0 0 1.8746 0 3.1869-1.0923 0 0 1.339-1.1189 1.339-2.6908 0 0 0-1.5452-.9641-2.2911 0 0-.9641-.746-4.5527-1.9182 0 0-2.8923-.8792-4.2046-1.6518 0 0-2.4102-1.3853-2.4102-3.8896 0 0 0-2.3444 1.9818-3.96955 0 0 1.9817-1.62512 4.874-1.62512 0 0 2.3032 0 4.4189 1.19886 0 0 .7498.4529.9373.4529 0 0 .241 0 .4285-.29305l.4017-1.09229h.6695zM104.631 8.36505l3.589-.26642v4.23597s.83-2.1579 2.169-3.19696c0 0 1.339-1.03901 3.321-1.03901 0 0 1.741 0 2.865.90581 0 0 1.098.9058 1.098 2.34446 0 0 0 1.0656-.669 1.7849 0 0-.67.7194-1.634.7194 0 0-.991 0-1.66-.6394 0 0-.67-.6661-.67-1.5985 0 0 0-.6128.215-.9857l.776-.85257.161-.23977s0-.18649-.321-.29305l-.777-.13321s-1.152 0-2.223.87916c0 0-1.044.85254-1.633 2.26454 0 0-.59 1.3853-.804 2.8506 0 0-.214 1.4653-.214 3.863v4.7421s0 1.785.75 2.3711c0 0 .75.5595 3.374.746v.6394h-11.837v-.6394s2.491-.1865 3.187-.746c0 0 .696-.5595.696-2.3178V12.3612s0-1.5718-.187-2.0247c0 0-.188-.47954-.938-.71931l-3.053-.34634v-.69267l4.419-.21313z"/><path d="M92.6604 4.31589S93.0621 2.82398 93.3032 0h.6695v8.60514h5.9721v.82588h-5.9721V22.1123s0 2.7707.5088 3.7031c0 0 .4821.9058 2.0086.9058 0 0 1.8746 0 2.7048-1.3853 0 0 .8034-1.3854.9371-4.8754l.054-.5062h.803v.4529s0 1.8383-.187 2.9839c0 0-.188 1.0656-.67 2.0247 0 0-.6425 1.2521-1.8744 1.9182 0 0-1.2319.666-2.8655.666 0 0-1.6337 0-2.8924-.666 0 0-1.2854-.6661-1.7943-1.7584 0 0-.4552-1.0123-.5088-2.371V9.45766h-3.91v-.71932s3.669-.21313 5.1687-2.02473c0 0 .7766-.90581 1.2051-2.39772zM6.56045 4.12891S4.52511 7.45907 4.52511 13.9063c0 0 0 6.7402 1.92821 10.0171 0 0 1.90143 3.3035 5.81138 3.3035 0 0 1.5265 0 2.8924-.5062 0 0 1.3658-.5062 2.2763-1.412 0 0 1.0177-1.0123 1.4462-2.371 0 0 .4552-1.3587.4552-3.4101v-1.7051s0-2.1046-.6427-2.6375c0 0-.6695-.5594-3.5618-.7459v-.6927h12.5869v.6394s-3.0262.2398-3.7225.7992c0 0-.7231.5329-.7231 2.6375v9.9372h-.6427s-.5356-2.2112-.9374-3.0371c0 0-.4552-.8791-1.0444-.8791 0 0-.4285 0-1.1784.7193 0 0-1.9282 1.9448-3.5082 2.6908 0 0-1.5801.7459-3.6958.7459 0 0-4.71337 0-8.46267-4.2626 0 0-3.749296-4.2626-3.749296-9.6175 0 0 0-5.46147 3.829646-9.77736 0 0 3.82964-4.342528 8.67692-4.342528 0 0 2.9191 0 5.4365 1.784968l.857.61275s.7231.47954 1.1516.47954c0 0 .8302 0 1.58-2.584204h.6695l.0804 10.496634h-.6428l-1.0444-3.14364-1.2587-2.50428s-1.2855-2.26451-2.9191-3.30352c0 0-1.6336-1.012368-3.9368-1.012368 0 0-3.9635 0-5.97205 3.303518zM125.949 8.17871c-3.776 0-6.615 2.98379-6.615 2.98379-2.839 2.9839-2.839 6.9801-2.839 6.9801 0 4.156 2.839 7.0066 2.839 7.0066 2.839 2.8506 6.936 2.8506 6.936 2.8506 3.267 0 5.356-1.8382 5.356-1.8382 2.062-1.8383 2.491-5.1151 2.491-5.1151h-.804c-.482 3.0371-2.249 4.6089-2.249 4.6089-1.768 1.5718-4.687 1.5718-4.687 1.5718-2.972 0-4.365-1.9181-4.365-1.9181-1.419-1.9182-1.419-5.9144-1.419-5.9144l.053-1.9981 13.31.0266.054-.8525c0-3.7031-2.25-6.0476-2.25-6.0476-2.276-2.34439-5.811-2.34439-5.811-2.34439zm-.081.79924c4.232 0 4.232 5.40815 4.232 5.40815 0 1.4919-.456 1.8916-.456 1.8916-.401.3463-1.365.3463-1.365.3463h-7.526c.214-4.1294 1.393-5.8877 1.393-5.8877 1.178-1.75835 3.722-1.75836 3.722-1.75835z"/></g><defs><clipPath id="clip0_35_3357"><path fill="#fff" transform="translate(.052734)" d="M0 0h191v28H0z"/></clipPath></defs></svg>