<!-- Generated by IcoMoon.io -->
<svg version="1.1" xmlns="http://www.w3.org/2000/svg" width="24" height="24" viewBox="0 0 24 24">
<title>maptiler_logo</title>
<path fill="currentColor" d="M10.172 22.077c0.432 0.439 0.879 0.895 1.227 1.25 0.145 0.148 0.266 0.271 0.354 0.362 0.382-0.38 1.377-1.377 2.274-2.277 0.663-0.665 1.346-1.349 1.828-1.831l-4.089-4.089-4.074 4.074c0.707 0.709 1.838 1.858 2.48 2.511z"></path>
<path fill="currentColor" d="M16.183 19.252l4.107-4.107-4.088-4.088-4.107 4.107 2.046 2.046z"></path>
<path fill="currentColor" d="M16.53 10.728l4.086 4.086c2.141-2.299 2.148-5.882 0.018-8.189l-4.104 4.103z"></path>
<path fill="currentColor" d="M7.33 11.056l-4.073 4.073 4.107 4.107 4.074-4.074z"></path>
<path fill="currentColor" d="M20.309 6.292l-4.107-4.107-4.107 4.107 4.107 4.107 1.108-1.108z"></path>
<path fill="currentColor" d="M2.931 14.797l4.070-4.069-4.088-4.088c-2.108 2.3-2.101 5.866 0.018 8.157z"></path>
<path fill="currentColor" d="M7.33 10.399l4.107-4.107-4.092-4.092-4.107 4.107z"></path>
<path fill="currentColor" d="M7.676 1.873l4.089 4.089 4.104-4.104c-1.116-1.033-2.559-1.6-4.089-1.6-1.537 0-2.986 0.571-4.104 1.614z"></path>
</svg>
