<svg id="policeData" width="172" height="46" viewBox="0 0 172 46" fill="none" xmlns="http://www.w3.org/2000/svg">
<g clip-path="url(#clip0_35_3185)">
<path d="M170.588 44.801H50.188V1.17786H170.588V44.801Z" fill="#6B7C92"/>
<path d="M90.1234 18.3182H87.9954V9.54422H92.2918C93.3986 9.58446 94.2438 10.3441 94.4299 11.1944C94.596 11.8735 94.4953 12.0697 94.4651 12.4672C94.3242 13.5539 93.5344 14.0016 92.9508 14.2481L92.8099 14.3135C93.9066 14.7613 94.3192 15.9939 94.5556 17.0101C94.6663 17.4428 94.7418 17.8402 94.772 18.3181H92.6389C92.5282 17.488 92.347 16.6378 92.015 15.8127C91.849 15.3398 91.5522 15.0179 91.1346 15.0128H90.1234L90.1234 18.3182ZM60.1894 9.53918H63.3992L65.3361 15.3801L67.1522 9.53918H70.3821L70.6236 18.3182H68.4754L68.2842 11.2497L66.0152 18.3182H63.9475L61.7037 11.5113L61.3566 18.3182H59.792L60.1894 9.53918ZM75.0156 16.7938H78.8844V18.3081H72.8875V9.53918H78.6077L78.6228 11.0132H75.0055L75.0156 13.0759L78.0039 13.086V14.4745H75.0055L75.0156 16.7938ZM123.816 18.3182V9.54422H125.944V16.7988L129.4 16.7938V18.3182L123.816 18.3182ZM133.128 9.53918L133.118 18.3182H130.909V9.53918H133.128ZM139.245 18.3182H137.087V11.0132H134.697V9.54422H141.605V11.0132H139.245V18.3182ZM151.848 9.56434H154.177L157.799 16.1549V9.53918H159.515V18.3182H156.683L153.523 12.5527L153.533 18.3182H151.848L151.848 9.56434Z" fill="white"/>
<path d="M91.2754 10.8573C92.1106 10.9731 92.2565 11.3453 92.3369 11.6975C92.4024 12.1905 92.4325 12.759 92.1106 13.1716C91.6477 13.6646 90.8528 13.6193 90.1133 13.5942V10.8523C90.4956 10.8423 90.8277 10.8725 91.2754 10.8573Z" fill="#6B7C92"/>
<path d="M74.6131 25.6785C74.6131 25.6785 76.7663 25.4219 78.1096 25.3565C79.4579 25.2911 80.6703 25.3867 80.6703 25.3867L81.7218 25.5225C83.216 25.8646 85.0321 26.6193 85.2937 28.2694C85.6811 29.824 84.9265 31.137 83.7392 31.952C83.3317 32.2287 82.9443 32.44 82.2752 32.6161C81.0879 33.0136 79.5585 32.8626 78.1851 32.8325L78.1901 35.7906H74.603L74.6131 25.6785ZM132.117 28.8178C130.959 27.6808 129.244 27.2833 127.76 27.8669C126.819 28.2392 126.356 28.6618 126.004 29.8089C125.632 31.0264 125.959 32.8928 127.101 33.7078C128.303 34.5581 130.396 34.5883 131.739 33.894C132.041 33.7481 132.252 33.6324 132.252 33.6324L132.987 35.6045C132.232 36.1126 131.261 36.2686 130.275 36.4547C129.506 36.5906 128.228 36.5805 126.884 36.3742C125.204 36.0221 123.559 35.2523 122.724 33.6777C121.984 32.2137 121.874 29.7183 122.875 28.3449C123.811 26.7903 124.847 26.1916 126.432 25.7137C127.629 25.4521 129.012 25.4621 129.903 25.5779C130.768 25.6936 132.046 26.0206 132.851 26.4834L132.117 28.8178ZM107.168 25.6684V33.6525H112.471L112.466 35.7906H103.516V25.6684H107.168ZM115.414 25.6684H119.041V35.7906H115.414V25.6684ZM145.393 25.6684V27.555H140.04V29.6781H144.075V31.4993H140.04V33.6525H145.796V35.7906H136.488V25.6684H145.393Z" fill="white"/>
<path d="M81.4248 28.8527C81.4449 29.6778 81.2688 30.201 80.5796 30.6437C79.7746 31.0865 78.8842 31.0915 78.1748 30.6739V27.4642C78.849 27.0818 79.9356 27.0617 80.6148 27.4491C81.0173 27.6604 81.4047 27.9874 81.4248 28.8527Z" fill="#6B7C92"/>
<path d="M144.266 9.53918L141.354 18.3232H143.542L144.236 16.2907H147.129L147.813 18.3232H150.002L147.089 9.53918H144.266Z" fill="white"/>
<path d="M146.666 14.8466H144.633L145.655 11.5111L146.666 14.8466Z" fill="#6B7C92"/>
<path d="M84.3229 18.3282H82.1646V11.0183H79.7749V9.54925H86.6824V11.0183H84.3229V18.3282ZM108.356 15.2292V18.3232H106.222V9.53918H109.94C111.852 9.53918 112.632 10.5102 112.632 12.5125C112.632 14.1073 111.515 15.4052 108.351 15.2292H108.356Z" fill="white"/>
<path d="M109.306 10.837C110.141 10.9527 110.438 11.3552 110.519 11.7023C110.634 12.1652 110.715 12.7437 110.267 13.267C109.809 13.76 109.085 13.755 108.345 13.7298V10.8421C108.728 10.827 108.884 10.837 109.306 10.837Z" fill="#6B7C92"/>
<path d="M104.17 13.8609C104.18 14.9325 103.939 16.0191 103.456 16.7587C102.605 18.0365 101.554 18.4038 100.226 18.4088H100.236C98.9079 18.4038 97.8514 18.0365 97.0062 16.7587C96.5182 16.0191 96.2818 14.9325 96.2918 13.8609V13.9917C96.2815 12.9201 96.5182 11.8334 97.0062 11.0939C97.8514 9.81601 98.9029 9.44876 100.226 9.44373C101.554 9.44875 102.606 9.81601 103.456 11.0939C103.939 11.8334 104.18 12.9201 104.17 13.9917L104.17 13.8609Z" fill="white"/>
<path d="M101.997 13.8606C101.997 14.2832 102.002 14.6807 101.946 15.0177C101.785 15.9283 101.383 16.9144 100.21 16.9194H100.221C99.0486 16.9144 98.6411 15.9283 98.4851 15.0177C98.4247 14.6807 98.4347 14.2832 98.4347 13.8606V13.9914C98.4347 13.5688 98.4244 13.1714 98.4851 12.8343C98.6411 11.9237 99.0486 10.9376 100.221 10.9326L100.21 10.9376C101.383 10.9376 101.785 11.9237 101.946 12.8343C102.002 13.1714 101.997 13.5688 101.997 13.9914V13.8606Z" fill="#6B7C92"/>
<path d="M121.788 13.8456C121.798 14.9172 121.562 16.0089 121.079 16.7434C120.229 18.0263 119.172 18.3885 117.844 18.3936H117.854C116.531 18.3936 115.475 18.0263 114.624 16.7434C114.141 16.0089 113.9 14.9172 113.91 13.8456V13.9764C113.9 12.9098 114.141 11.8181 114.624 11.0786C115.475 9.80073 116.531 9.43347 117.854 9.43347H117.844C119.172 9.43347 120.229 9.80073 121.079 11.0786C121.562 11.8181 121.798 12.9098 121.788 13.9814V13.8456Z" fill="white"/>
<path d="M119.615 13.8458C119.615 14.2684 119.625 14.6659 119.564 15.0029C119.403 15.9135 119.001 16.8996 117.829 16.9046H117.839C116.667 16.8996 116.264 15.9135 116.103 15.0029C116.043 14.6659 116.053 14.2684 116.053 13.8458V13.9766C116.053 13.554 116.043 13.1566 116.103 12.8245C116.264 11.9089 116.667 10.9229 117.839 10.9229H117.829C119.001 10.9229 119.403 11.9089 119.564 12.8245C119.625 13.1566 119.615 13.554 119.615 13.9817V13.8458Z" fill="#6B7C92"/>
<path d="M100.382 31.2125C100.382 31.4439 100.361 31.7609 100.336 31.9923C100.261 32.2992 100.13 32.8576 99.9639 33.1947C99.2244 35.0008 97.3931 36.017 95.4814 36.3692C95.0789 36.4396 94.6161 36.4799 94.1582 36.4849L94.1281 36.4899C93.6703 36.4849 93.2074 36.4446 92.81 36.3742C90.8982 36.0221 89.062 35.0058 88.3224 33.1997C88.1564 32.8626 88.0306 32.3042 87.9501 31.9973C87.925 31.7609 87.9099 31.4238 87.9048 31.1974V30.8C87.9099 30.5685 87.9249 30.2566 87.9501 30.0252C88.0306 29.7183 88.1564 29.1599 88.3224 28.8228C89.062 27.0217 90.8982 26.0005 92.805 25.6483C93.2074 25.5829 93.6703 25.5376 94.1281 25.5326L94.1582 25.5376C94.6161 25.5426 95.0789 25.5829 95.4814 25.6533C97.3931 26.0055 99.2244 27.0217 99.9639 28.8278C100.13 29.1649 100.261 29.7183 100.336 30.0302C100.361 30.2617 100.382 30.5484 100.382 30.7798V31.2125Z" fill="white"/>
<path d="M96.7995 31.1973C96.7995 31.5797 96.5882 34.246 94.1432 34.2611L94.1131 34.2662C91.668 34.246 91.4266 31.5495 91.4266 31.1671V30.82C91.4266 30.4326 91.668 27.7763 94.1131 27.7561L94.1432 27.7612C96.5882 27.7763 96.7995 30.4628 96.7995 30.8502V31.1973ZM48.8196 1.18782V44.8009H0.945312V1.17273L48.8196 1.18782Z" fill="#6B7C92"/>
<path d="M25.5616 4.93581C25.3352 5.05152 25.2798 5.26785 25.2798 5.56971C26.2357 5.56971 27.2419 4.56352 28.2279 5.454C28.7059 5.98225 28.6958 6.34951 28.6405 6.85763C28.5851 7.42109 28.4191 7.74307 28.2481 8.24617C28.1827 8.382 28.082 8.63355 27.8154 8.53293C27.5437 8.42728 27.4985 8.30654 27.589 8.06002C27.7047 7.7632 28.3336 6.84254 28.1072 6.11305C28.0217 5.85145 27.8406 5.55965 27.3475 5.50431C26.8042 5.48922 25.8282 6.06274 25.3704 6.23883L25.3603 8.03487L24.6409 8.03989V6.23882C23.9064 5.95709 23.0612 5.16723 22.216 5.73069C21.8236 6.01243 21.8236 6.46521 21.8789 6.91296C21.9896 7.36575 22.1858 7.65251 22.3569 8.04995C22.4474 8.26125 22.3669 8.40212 22.2361 8.48261C22.2361 8.48261 21.9997 8.61342 21.8286 8.47257C21.5821 8.28139 20.9734 6.57591 21.5972 5.73071C21.9343 5.3383 22.3267 5.11191 22.7795 5.11191C23.514 5.05657 24.007 5.52444 24.7516 5.55966C24.7717 5.31314 24.7516 5.05657 24.4699 4.94086C24.4699 4.45789 24.7264 4.24659 25.0082 4.08057C25.2899 4.24659 25.5465 4.40757 25.5616 4.93581Z" fill="white"/>
<path d="M25.5616 4.93581C25.3352 5.05152 25.2798 5.26785 25.2798 5.56971C26.2357 5.56971 27.2419 4.56352 28.2279 5.454C28.7059 5.98225 28.6958 6.34951 28.6405 6.85763C28.5851 7.42109 28.4191 7.74307 28.2481 8.24617C28.1827 8.382 28.0821 8.63355 27.8154 8.53293C27.5437 8.42728 27.4985 8.30654 27.589 8.06002C27.7047 7.7632 28.3336 6.84254 28.1072 6.11305C28.0217 5.85144 27.8406 5.55965 27.3475 5.50431C26.8042 5.48922 25.8282 6.06274 25.3704 6.23883L25.3603 8.03487L24.6409 8.03989V6.23882C23.9064 5.95709 23.0612 5.16723 22.216 5.73069C21.8236 6.01243 21.8236 6.46521 21.8789 6.91296C21.9896 7.36575 22.1858 7.65251 22.3569 8.04995C22.4474 8.26125 22.3669 8.40212 22.2361 8.48261C22.2361 8.48261 21.9997 8.61342 21.8286 8.47257C21.5821 8.28139 20.9734 6.57591 21.5972 5.73071C21.9343 5.3383 22.3267 5.11191 22.7795 5.11191C23.514 5.05656 24.007 5.52444 24.7516 5.55966C24.7717 5.31314 24.7516 5.05657 24.4699 4.94086C24.4699 4.45789 24.7264 4.24659 25.0082 4.08057C25.2899 4.24659 25.5465 4.40756 25.5616 4.93581Z" stroke="white" stroke-width="0.146359"/>
<path d="M27.7397 8.82982C27.8504 8.89019 27.8706 9.07634 27.8152 9.18702L27.7699 9.17697C26.0745 8.87008 23.7955 8.89021 22.1604 9.17195C22.0447 9.0009 22.2158 8.82985 22.3818 8.77451C23.9615 8.26638 26.1097 8.25126 27.7397 8.82982Z" fill="white"/>
<path d="M27.7397 8.82982C27.8504 8.89019 27.8706 9.07634 27.8152 9.18702L27.7699 9.17697C26.0745 8.87009 23.7955 8.89021 22.1604 9.17195C22.0447 9.0009 22.2158 8.82985 22.3818 8.77451C23.9615 8.26638 26.1097 8.25126 27.7397 8.82982Z" stroke="white" stroke-width="0.146359" stroke-miterlimit="2" stroke-linecap="square"/>
<path d="M37.1578 9.68513C37.1779 9.77066 37.3993 10.2939 36.8761 10.3593C36.0007 10.3945 36.3176 9.46377 35.3517 9.29272C34.1141 9.12167 33.6764 10.5555 33.123 11.3906C32.3331 12.7993 31.2968 14.701 29.4353 14.8167C28.8165 14.8167 28.3084 14.701 27.8556 14.3086C27.7449 14.1375 27.9109 13.9664 28.082 13.9111C28.3637 13.9111 28.5197 14.1979 28.8165 14.3086C29.2643 14.4192 29.7975 14.4092 30.1648 14.0922C31.5181 12.7389 32.0262 11.0384 33.3796 9.62979C34.1141 8.95061 35.07 8.61354 36.0862 8.89528C36.4937 9.00596 36.9314 9.23235 37.1578 9.68513Z" fill="white"/>
<path d="M37.1578 9.68513C37.1779 9.77066 37.3993 10.2939 36.8761 10.3593C36.0007 10.3945 36.3176 9.46377 35.3517 9.29272C34.1141 9.12167 33.6764 10.5555 33.123 11.3906C32.3331 12.7993 31.2968 14.701 29.4353 14.8167C28.8165 14.8167 28.3084 14.701 27.8556 14.3086C27.7449 14.1375 27.9109 13.9664 28.082 13.9111C28.3637 13.9111 28.5197 14.1979 28.8165 14.3086C29.2643 14.4192 29.7975 14.4092 30.1648 14.0922C31.5181 12.7389 32.0262 11.0385 33.3796 9.62979C34.1141 8.95062 35.07 8.61354 36.0862 8.89528C36.4937 9.00596 36.9314 9.23235 37.1578 9.68513Z" stroke="white" stroke-width="0.146359" stroke-miterlimit="2" stroke-linecap="square"/>
<path d="M19.8666 14.0672C20.1936 14.3841 21.5117 14.3137 21.2048 14.7866C20.5004 15.179 19.2779 14.7966 18.1057 13.1214C17.2605 11.8837 16.1688 9.7607 15.3538 9.34816C15.0721 9.23748 14.7249 9.2878 14.3828 9.45884C13.8797 9.74058 13.8194 10.7568 13.0346 10.304C12.8635 10.1934 12.8434 9.87641 12.9742 9.68524C13.5377 8.89538 14.6092 8.66899 15.5148 8.95072C17.0442 9.30288 17.7133 11.114 18.5635 12.3567C18.956 13.0308 19.1874 13.6194 19.8666 14.0672Z" fill="white"/>
<path d="M19.8666 14.0672C20.1936 14.3841 21.5117 14.3137 21.2048 14.7866C20.5004 15.179 19.2779 14.7966 18.1057 13.1214C17.2605 11.8837 16.1688 9.7607 15.3538 9.34816C15.0721 9.23748 14.7249 9.2878 14.3828 9.45884C13.8797 9.74058 13.8194 10.7568 13.0346 10.304C12.8635 10.1934 12.8434 9.87641 12.9742 9.68524C13.5377 8.89538 14.6092 8.66899 15.5148 8.95072C17.0442 9.30288 17.7133 11.114 18.5635 12.3567C18.956 13.0308 19.1874 13.6194 19.8666 14.0672Z" stroke="white" stroke-width="0.146359" stroke-miterlimit="2" stroke-linecap="square"/>
<path d="M30.995 9.62988C31.4427 10.138 31.166 10.8122 31.166 11.431C31.166 11.5467 31.2214 11.768 30.995 11.8284C30.7686 11.8284 30.7133 11.4863 30.6579 11.3203C30.5422 10.6964 30.7133 9.82106 30.0944 9.56951C29.8832 9.50411 29.697 9.51417 29.5863 9.62988C29.1335 9.96695 29.7523 11.0033 28.9072 10.6964C28.6455 10.5807 28.7965 10.0776 28.9072 9.85627C29.0782 9.51417 29.4153 9.28777 29.8127 9.23243C30.2554 9.18213 30.7133 9.28778 30.995 9.62988Z" fill="white"/>
<path d="M30.995 9.62988C31.4427 10.138 31.166 10.8122 31.166 11.431C31.166 11.5467 31.2214 11.768 30.995 11.8284C30.7686 11.8284 30.7133 11.4863 30.6579 11.3203C30.5422 10.6964 30.7133 9.82106 30.0944 9.56951C29.8832 9.50411 29.697 9.51417 29.5863 9.62988C29.1335 9.96695 29.7523 11.0033 28.9072 10.6964C28.6455 10.5807 28.7965 10.0776 28.9072 9.85627C29.0782 9.51417 29.4153 9.28777 29.8127 9.23243C30.2554 9.18213 30.7133 9.28778 30.995 9.62988Z" stroke="white" stroke-width="0.146359"/>
<path d="M21.1693 9.79579C21.3353 10.0222 21.3957 10.3593 21.28 10.641C21.2246 10.812 20.968 10.8271 20.8272 10.7014C20.5505 10.3592 20.8372 9.57442 20.3241 9.51405C19.1468 9.39331 19.9266 11.2648 19.1368 11.8283C18.8047 11.8132 19.1368 11.2749 18.9104 10.7567C18.7997 10.4146 18.855 10.0222 19.0261 9.74045C19.2525 9.45871 19.4889 9.33294 19.826 9.2776C20.2788 9.22226 20.8875 9.34804 21.1693 9.79579Z" fill="white"/>
<path d="M21.1693 9.79579C21.3353 10.0222 21.3957 10.3593 21.28 10.641C21.2246 10.812 20.968 10.8271 20.8272 10.7014C20.5505 10.3593 20.8372 9.57443 20.3241 9.51405C19.1468 9.39331 19.9266 11.2648 19.1368 11.8283C18.8047 11.8132 19.1368 11.2749 18.9104 10.7567C18.7997 10.4146 18.855 10.0222 19.0261 9.74045C19.2525 9.45871 19.4889 9.33294 19.826 9.2776C20.2788 9.22226 20.8875 9.34804 21.1693 9.79579Z" stroke="white" stroke-width="0.146359"/>
<path d="M27.8004 9.74062C27.9211 9.87143 27.8507 9.95695 27.7954 10.0173C25.944 9.9167 24.2033 9.93179 22.2161 10.0173C22.1004 9.95696 22.2161 9.79093 22.2714 9.73559C23.7958 9.22747 26.276 9.28281 27.6746 9.67019L27.8004 9.74062Z" fill="white" stroke="white" stroke-width="0.146359" stroke-miterlimit="2" stroke-linecap="square"/>
<path d="M25.5113 10.4196C25.783 10.5101 26.4421 10.6057 27.2973 11.4761C27.4281 11.6572 27.1112 12.12 26.8143 11.9188C26.3112 11.6371 26.3917 11.5918 25.8635 11.2497C25.2799 10.9579 24.9378 11.144 24.475 11.3704L23.3782 11.9892C23.177 12.115 22.8449 11.9037 22.7896 11.7327C22.7091 11.3352 23.3531 11.0786 23.7505 10.8371C24.8221 10.2938 24.9982 10.3844 25.5113 10.4196Z" fill="white"/>
<path d="M36.0912 12.0245C36.6798 12.2258 36.9867 13.0257 36.7654 13.5187C36.6496 13.7451 36.4233 14.1375 36.1415 14.1375C35.9151 14.1375 35.8095 14.0369 35.6938 13.8709C35.4925 13.3527 36.5993 13.2018 36.2321 12.5176C36.0208 12.2358 35.7541 12.1906 35.4674 12.3918C34.5668 13.0659 33.8021 14.4947 32.5343 13.8558L32.479 13.7904C32.489 13.5388 32.9117 13.73 33.2085 13.5741C34.1141 13.0106 34.7932 11.5516 36.0359 12.0044L36.0912 12.0245Z" fill="white" stroke="white" stroke-width="0.146359"/>
<path d="M17.5973 13.745L17.6527 13.8003C17.4866 14.0821 17.2804 14.0569 16.9383 14.0569C15.4843 14.0669 15.3435 12.0496 14.0455 12.5023C13.6983 12.6935 13.5977 12.9551 13.7637 13.2369C13.9901 13.4633 14.4429 13.4633 14.4983 13.8003C14.4429 14.0267 14.2618 14.2129 13.9901 14.1927C13.7084 14.1374 13.482 13.8557 13.3713 13.5739C13.2556 13.2922 13.316 12.8394 13.482 12.5577C13.8744 12.0496 14.5536 11.9942 15.1171 12.1653C16.0176 12.5023 16.5257 13.8557 17.5973 13.745Z" fill="white"/>
<path d="M17.5973 13.745L17.6527 13.8003C17.4866 14.0821 17.2804 14.0569 16.9383 14.0569C15.4843 14.0669 15.3435 12.0496 14.0455 12.5023C13.6983 12.6935 13.5977 12.9551 13.7637 13.2369C13.9901 13.4632 14.4429 13.4632 14.4983 13.8003C14.4429 14.0267 14.2618 14.2129 13.9901 14.1927C13.7084 14.1374 13.482 13.8557 13.3713 13.5739C13.2556 13.2922 13.316 12.8394 13.482 12.5577C13.8744 12.0496 14.5536 11.9942 15.1171 12.1653C16.0176 12.5023 16.5257 13.8557 17.5973 13.745Z" stroke="white" stroke-width="0.146359"/>
<path d="M25.6773 14.3991L25.2195 14.6204L23.2927 15.5461C22.7745 15.1487 22.2764 14.7563 21.8287 14.4192C21.7079 14.2582 21.723 14.1274 21.7784 14.072C21.9192 13.8909 22.0249 13.9161 22.2764 14.0821L23.3279 14.882L25.3755 13.911C25.5968 13.8104 25.8635 14.1978 25.6773 14.3991Z" fill="white"/>
<path d="M25.6773 14.3991L25.2195 14.6204L23.2927 15.5461C22.7745 15.1487 22.2764 14.7563 21.8287 14.4192C21.7079 14.2582 21.723 14.1274 21.7784 14.072C21.9192 13.8909 22.0249 13.9161 22.2764 14.0821L23.3279 14.882L25.3755 13.911C25.5968 13.8104 25.8635 14.1978 25.6773 14.3991Z" stroke="white" stroke-width="0.146359"/>
<path d="M20.3241 19.3143C20.9781 19.274 22.1755 19.435 22.3868 19.0426C22.6132 19.3797 22.9955 19.752 23.388 19.752C24.6306 19.8576 25.8883 17.7346 27.6139 18.2477C27.6139 18.2477 26.0543 17.4377 26.6882 15.7624C26.8593 15.4203 26.9197 15.1487 27.463 14.7562C27.4479 14.7562 27.7498 14.5701 27.629 14.9273C27.3473 15.4908 26.9901 16.1951 27.1913 16.9246C27.5687 18.0515 28.7056 17.8754 28.4491 18.6049C28.283 18.8715 27.6944 18.7558 27.2165 18.781C25.5814 18.6653 24.6105 20.9845 23.0106 20.2802L22.2208 19.9129L18.0451 19.9079L18.0501 23.7214C18.7796 24.3402 18.9507 25.1854 18.9507 26.0859C18.9507 26.3123 18.7595 26.5135 18.4979 26.5387C17.9898 26.5387 17.1496 26.7148 17.0339 26.0859C16.9182 25.6381 17.0892 24.9036 16.4704 24.7326C16.2994 24.6772 15.9271 24.6018 15.8265 24.7929C15.7108 25.0143 15.7359 25.296 15.3988 25.4117C14.2166 25.5828 14.1009 24.2244 13.5374 23.6056C13.3714 23.495 13.2557 23.3239 13.316 23.1579C13.4267 22.9315 13.6531 22.9868 13.8191 23.0422C14.443 23.5503 14.443 24.3955 15.0618 24.8483C15.5699 24.8483 15.2429 24.2597 15.6353 24.2043C16.1887 24.1087 16.6968 24.2245 17.0892 24.5112C17.4313 24.9036 17.4313 25.4671 17.542 25.9199C17.6074 26.1312 18.0803 26.1664 18.3117 26.0809C18.5583 25.9752 18.523 25.7086 18.3319 25.0143C18.0451 23.7465 15.8516 23.7214 14.9511 22.4234C14.7247 22.1417 14.4983 21.7492 14.6643 21.3518C14.8354 21.0147 15.2328 21.1254 15.4542 20.9594C15.6152 20.738 14.8957 19.9633 15.0618 19.7721C16.1887 19.0426 17.542 18.0817 17.9898 16.7887C18.1608 16.3913 17.4917 16.1146 17.542 15.8832L18.1055 15.3801C18.3872 15.3851 18.4174 16.0291 18.5985 15.9033L18.84 15.6014C19.1016 15.4455 19.6248 15.8832 19.8512 16.2202C20.2034 16.7586 20.3442 17.4428 20.1329 17.5685C19.7959 17.8301 19.8059 18.0263 19.972 18.3785L20.3241 19.3143Z" fill="white" stroke="white" stroke-width="0.146359"/>
<path d="M38.1136 15.3801C38.8783 15.3852 40.0757 15.2342 40.3675 15.6015C40.5939 15.9436 40.5435 16.5926 40.8756 16.6731C41.273 16.7284 41.7359 16.6681 41.9069 17.0655C42.1082 17.639 42.0075 17.9711 41.8365 18.3635C41.7208 18.5899 41.4843 18.7861 41.2579 18.9521C41.2579 19.5206 41.6604 20.3457 41.3535 20.718C41.2428 20.884 40.8756 20.7129 40.8856 20.8789C40.9712 21.533 41.0466 22.3681 40.6492 22.9869C40.2568 23.324 39.809 22.675 39.6883 23.0271C39.8543 25.2257 40.4832 27.1022 41.7811 28.7926C42.2842 29.3561 43.0188 29.7485 43.7533 29.4114C44.0903 29.2454 44.3167 28.8479 44.3721 28.5109C44.4274 26.5941 42.1736 25.5829 41.7811 23.8321C41.5548 23.0422 41.7208 22.197 42.2842 21.6336C42.9081 21.0701 43.9193 20.9594 44.7092 21.2412C44.9909 21.2965 45.2525 21.5279 45.2776 21.9354C45.2877 22.192 45.2173 22.4788 44.8802 22.5341C44.5985 22.5945 44.2061 22.5945 44.0903 22.2524C44.035 21.9707 43.8086 21.8197 43.5269 21.8046C43.1345 21.8046 42.7924 21.9707 42.566 22.2524C42.0226 23.0523 42.5106 24.0585 42.9634 24.7326C43.9193 26.2017 45.9518 27.6657 44.7645 29.5271C44.4274 29.9749 44.0199 30.2163 43.5168 30.2767C42.6113 30.3321 41.9472 29.9195 41.3837 29.3007C40.936 30.0352 41.2177 30.9911 41.6101 31.6652C42.4553 32.8224 43.6426 34.4775 43.1898 35.3881C42.9081 35.7252 42.2289 35.1064 42.2842 35.8409V38.4318C42.2691 39.0607 41.434 38.8595 41.0466 38.8243C40.8756 38.7689 40.785 38.4771 40.8957 38.3061C41.0668 38.0847 41.6252 38.3866 41.6654 38.0948C41.7811 37.1892 41.6654 36.2333 41.7811 35.2724C41.8365 35.0511 42.0075 34.88 42.2289 34.88C42.3999 34.8247 42.6263 34.9907 42.6817 34.7693C42.3446 32.8525 39.975 31.6652 40.5938 29.4667L40.8756 28.6215C39.8141 26.8003 39.1298 24.9037 39.1298 22.7605C39.1852 22.5341 39.1852 22.3128 39.4116 22.2524C39.809 22.197 40.1863 22.5693 40.3322 22.4184C40.5586 21.7996 40.3121 21.1255 40.2568 20.5066C40.3121 20.1142 40.9913 20.562 40.936 20.0589L40.6492 18.7609C40.936 18.5345 41.3837 18.3081 41.439 17.8604C41.5648 17.5233 41.3837 17.1259 40.9913 17.1259C40.5385 17.1812 40.1461 16.9548 40.0908 16.5624C40.0304 16.2807 40.0153 15.9587 39.5826 15.9436C39.0745 15.8832 38.511 15.8832 38.0583 15.9436C37.8319 15.7172 37.6105 15.3801 37.2684 15.4908C36.876 15.7172 36.7049 16.0543 36.6496 16.4517L36.7049 17.0705C36.3377 17.3925 35.4221 17.7698 35.5227 18.1371C35.6334 18.4188 36.0861 18.4188 35.9755 18.7609C35.7491 18.9873 35.5176 18.8867 35.2007 18.6855C34.8485 18.449 34.8687 18.0063 35.0347 17.7799C35.2611 17.3271 35.7541 17.0655 36.1968 16.8441C36.0861 16.336 36.1968 15.8279 36.4836 15.4355C36.7049 15.1537 36.9867 14.9274 37.2684 14.872C37.6659 14.8117 37.9476 15.1537 38.1136 15.3801Z" fill="white"/>
<path d="M38.1136 15.3801C38.8783 15.3852 40.0757 15.2342 40.3675 15.6015C40.5939 15.9436 40.5435 16.5926 40.8756 16.6731C41.273 16.7284 41.7359 16.6681 41.9069 17.0655C42.1082 17.639 42.0075 17.9711 41.8365 18.3635C41.7208 18.5899 41.4843 18.7861 41.2579 18.9521C41.2579 19.5206 41.6604 20.3457 41.3535 20.718C41.2428 20.884 40.8756 20.7129 40.8856 20.8789C40.9712 21.533 41.0466 22.3681 40.6492 22.9869C40.2568 23.324 39.809 22.675 39.6883 23.0271C39.8543 25.2257 40.4832 27.1022 41.7811 28.7926C42.2842 29.3561 43.0188 29.7485 43.7533 29.4114C44.0903 29.2454 44.3167 28.8479 44.3721 28.5109C44.4274 26.5941 42.1736 25.5829 41.7811 23.8321C41.5548 23.0422 41.7208 22.197 42.2842 21.6336C42.9081 21.0701 43.9193 20.9594 44.7091 21.2412C44.9909 21.2965 45.2525 21.5279 45.2776 21.9354C45.2877 22.192 45.2173 22.4788 44.8802 22.5341C44.5985 22.5945 44.2061 22.5945 44.0903 22.2524C44.035 21.9707 43.8086 21.8197 43.5269 21.8046C43.1345 21.8046 42.7924 21.9707 42.566 22.2524C42.0226 23.0523 42.5106 24.0585 42.9634 24.7326C43.9193 26.2017 45.9518 27.6657 44.7645 29.5271C44.4274 29.9749 44.0199 30.2163 43.5168 30.2767C42.6113 30.3321 41.9472 29.9195 41.3837 29.3007C40.936 30.0352 41.2177 30.9911 41.6101 31.6653C42.4553 32.8224 43.6426 34.4775 43.1898 35.3881C42.9081 35.7252 42.2289 35.1064 42.2842 35.8409V38.4318C42.2691 39.0607 41.434 38.8595 41.0466 38.8243C40.8756 38.7689 40.785 38.4771 40.8957 38.3061C41.0668 38.0847 41.6252 38.3866 41.6654 38.0948C41.7811 37.1892 41.6654 36.2333 41.7811 35.2724C41.8365 35.0511 42.0075 34.88 42.2289 34.88C42.3999 34.8247 42.6263 34.9907 42.6817 34.7693C42.3446 32.8525 39.975 31.6652 40.5938 29.4667L40.8756 28.6215C39.8141 26.8003 39.1298 24.9037 39.1298 22.7605C39.1852 22.5341 39.1852 22.3128 39.4116 22.2524C39.809 22.197 40.1863 22.5693 40.3322 22.4184C40.5586 21.7996 40.3121 21.1255 40.2568 20.5067C40.3121 20.1142 40.9913 20.562 40.936 20.0589L40.6492 18.7609C40.936 18.5345 41.3837 18.3081 41.439 17.8604C41.5648 17.5233 41.3837 17.1259 40.9913 17.1259C40.5385 17.1812 40.1461 16.9548 40.0908 16.5624C40.0304 16.2807 40.0153 15.9587 39.5826 15.9436C39.0745 15.8832 38.511 15.8832 38.0583 15.9436C37.8319 15.7172 37.6105 15.3801 37.2684 15.4908C36.876 15.7172 36.7049 16.0543 36.6496 16.4517L36.7049 17.0705C36.3377 17.3925 35.4221 17.7698 35.5227 18.1371C35.6334 18.4188 36.0861 18.4188 35.9755 18.7609C35.7491 18.9873 35.5176 18.8867 35.2007 18.6855C34.8485 18.449 34.8687 18.0063 35.0347 17.7799C35.2611 17.3271 35.7541 17.0655 36.1968 16.8441C36.0861 16.336 36.1968 15.8279 36.4836 15.4355C36.7049 15.1537 36.9867 14.9274 37.2684 14.872C37.6659 14.8117 37.9476 15.1537 38.1136 15.3801Z" stroke="white" stroke-width="0.146359"/>
<path d="M13.6533 15.4907C13.9903 15.8831 14.0457 16.4466 13.9903 16.9547C14.4431 17.1258 14.9512 17.5182 15.1173 17.971C15.4493 18.5697 14.7198 18.7558 14.4431 18.8715C14.3274 18.9269 14.1614 18.8162 14.1614 18.7055C14.101 18.3634 14.8003 18.4288 14.5789 18.0163C14.3526 17.5081 13.7639 17.4075 13.4269 17.1258C13.5979 16.673 13.5376 16.1095 13.2005 15.7725C13.0345 15.6014 12.7728 15.3348 12.471 15.6014C11.9981 16.3711 11.0925 15.8077 10.4838 15.9234C9.84988 16.029 10.197 17.0503 9.31157 17.1258C9.08518 17.1811 8.70786 17.1862 8.65252 17.5232C8.57202 17.9005 8.80345 18.3081 9.14555 18.5344C9.84988 18.8111 9.4625 19.3092 9.29648 19.8022C9.21095 20.0488 9.13046 20.2802 9.34176 20.3305C9.56815 20.3858 9.90522 20.25 9.90522 20.5871C9.84988 21.2059 9.6738 22.3831 9.93038 22.5139C10.1517 22.6095 10.5291 22.041 10.8359 22.368C11.0573 22.7051 11.002 23.2132 10.9466 23.666C10.8359 24.9036 10.4938 26.0305 9.99075 27.1021L9.25624 28.7372C9.70399 29.6377 9.64865 30.991 9.14555 31.8362C8.57706 32.8525 7.34448 34.1152 7.45013 34.8799C7.43 35.1013 8.32048 34.6334 8.3557 35.217C8.40098 36.1829 8.40098 37.1942 8.46638 38.15C8.49657 38.4267 9.2009 38.0343 9.25624 38.4871C9.26126 38.7537 9.25121 38.8845 8.91916 38.8845C8.52172 38.8845 7.86267 39.0254 7.84758 38.3764L7.79223 35.6144C7.69664 35.1717 7.05771 35.8358 6.88666 35.3327C6.49425 32.9631 9.7241 31.7255 8.76823 29.3006L8.57705 29.5471C7.95825 30.2213 7.25895 30.4175 6.30308 30.1358C5.56856 29.854 5.12081 29.2755 5.0554 28.4454C5.11075 26.2469 7.84757 25.13 7.79223 22.9315C7.79223 22.5391 7.56584 22.1416 7.16839 21.9706C6.94703 21.8045 6.54959 21.8045 6.26786 21.9706C5.93079 22.1416 6.04147 22.5843 5.60881 22.6548C5.30192 22.7252 4.9246 22.5944 4.86926 22.2523C4.8089 21.9354 4.87931 21.548 5.25161 21.3518C5.98613 21.0147 7.05771 21.07 7.73689 21.5228C8.41103 22.0863 8.57705 23.0422 8.29532 23.832C7.95825 25.4117 6.15718 26.428 5.75973 27.9473C5.64905 28.4001 5.75974 28.7925 5.98613 29.1296C6.26786 29.4717 6.60493 29.5824 7.00237 29.5824C8.1293 29.4717 8.71792 28.4554 9.16567 27.6102C9.84485 26.2569 10.4133 24.8281 10.4687 23.2535C10.5995 22.5692 9.6587 23.5251 9.48262 23.0422C9.14555 22.368 9.26126 21.5027 9.35684 20.8235C9.13045 20.7682 8.69276 20.7883 8.69276 20.4512C8.69276 19.9431 8.98959 19.3444 8.91915 19.0426C8.57705 18.7608 8.2601 18.3785 8.1293 17.8553C8.07395 17.5232 8.07395 17.1711 8.32047 16.9447C8.71791 16.6076 9.53293 16.9346 9.53796 16.2253C9.61342 15.9133 9.68385 15.526 10.1568 15.4354C10.7756 15.3197 11.7264 15.5964 11.9629 15.4354C12.1842 15.2643 12.3553 14.9273 12.6923 14.9273C13.0395 14.9021 13.4269 15.1537 13.6533 15.4907Z" fill="white"/>
<path d="M13.6533 15.4907C13.9903 15.8831 14.0457 16.4466 13.9903 16.9547C14.4431 17.1258 14.9512 17.5182 15.1173 17.971C15.4493 18.5697 14.7198 18.7558 14.4431 18.8715C14.3274 18.9269 14.1614 18.8162 14.1614 18.7055C14.101 18.3634 14.8003 18.4288 14.5789 18.0163C14.3526 17.5081 13.7639 17.4075 13.4269 17.1258C13.5979 16.673 13.5376 16.1095 13.2005 15.7725C13.0345 15.6014 12.7728 15.3348 12.471 15.6014C11.9981 16.3711 11.0925 15.8077 10.4838 15.9234C9.84988 16.029 10.197 17.0503 9.31157 17.1258C9.08518 17.1811 8.70786 17.1861 8.65252 17.5232C8.57202 17.9005 8.80345 18.3081 9.14555 18.5344C9.84988 18.8111 9.4625 19.3092 9.29648 19.8022C9.21095 20.0488 9.13046 20.2802 9.34176 20.3305C9.56815 20.3858 9.90522 20.25 9.90522 20.5871C9.84988 21.2059 9.6738 22.3831 9.93038 22.5139C10.1517 22.6095 10.5291 22.041 10.8359 22.368C11.0573 22.7051 11.002 23.2132 10.9466 23.666C10.8359 24.9036 10.4938 26.0305 9.99075 27.1021L9.25624 28.7372C9.70399 29.6377 9.64865 30.991 9.14555 31.8362C8.57706 32.8525 7.34448 34.1152 7.45013 34.8799C7.43 35.1013 8.32048 34.6334 8.3557 35.217C8.40098 36.1829 8.40098 37.1942 8.46638 38.15C8.49657 38.4267 9.2009 38.0343 9.25624 38.4871C9.26126 38.7537 9.25121 38.8845 8.91916 38.8845C8.52172 38.8845 7.86267 39.0254 7.84758 38.3764L7.79223 35.6144C7.69664 35.1717 7.05771 35.8358 6.88666 35.3327C6.49425 32.9631 9.72411 31.7255 8.76823 29.3006L8.57705 29.5471C7.95825 30.2213 7.25895 30.4175 6.30308 30.1358C5.56856 29.854 5.12081 29.2755 5.0554 28.4454C5.11075 26.2469 7.84757 25.13 7.79223 22.9315C7.79223 22.5391 7.56584 22.1416 7.16839 21.9706C6.94703 21.8045 6.54959 21.8045 6.26786 21.9706C5.93079 22.1416 6.04147 22.5843 5.60881 22.6548C5.30192 22.7252 4.9246 22.5944 4.86926 22.2523C4.8089 21.9354 4.87931 21.548 5.25161 21.3518C5.98613 21.0147 7.05771 21.07 7.73689 21.5228C8.41103 22.0863 8.57705 23.0422 8.29532 23.832C7.95825 25.4117 6.15718 26.428 5.75974 27.9473C5.64905 28.4001 5.75974 28.7925 5.98613 29.1296C6.26786 29.4717 6.60493 29.5824 7.00237 29.5824C8.1293 29.4717 8.71792 28.4554 9.16567 27.6102C9.84485 26.2569 10.4133 24.8281 10.4687 23.2535C10.5995 22.5692 9.6587 23.5251 9.48262 23.0422C9.14555 22.368 9.26126 21.5027 9.35684 20.8235C9.13045 20.7682 8.69276 20.7883 8.69276 20.4512C8.69276 19.9431 8.98958 19.3444 8.91915 19.0426C8.57705 18.7608 8.2601 18.3785 8.1293 17.8553C8.07395 17.5232 8.07395 17.1711 8.32047 16.9447C8.71791 16.6076 9.53292 16.9346 9.53796 16.2252C9.61342 15.9133 9.68385 15.526 10.1568 15.4354C10.7756 15.3197 11.7264 15.5964 11.9629 15.4354C12.1842 15.2643 12.3553 14.9273 12.6923 14.9273C13.0395 14.9021 13.4269 15.1537 13.6533 15.4907Z" stroke="white" stroke-width="0.146359"/>
<path d="M25.8079 15.843L25.174 16.1951L23.7402 16.9749C23.9666 17.2013 24.198 17.4982 23.9616 17.795C23.7352 18.132 23.5541 18.3937 23.1617 18.62C22.9906 18.6754 22.7642 18.5396 22.7642 18.3685C22.8799 17.9157 23.5994 17.7346 23.2925 17.312L21.9945 16.0191C21.8838 15.8782 21.8587 15.8329 21.9442 15.6669C22.0851 15.526 22.2008 15.5361 22.3919 15.7323L23.2824 16.4517L25.3753 15.3952C25.8884 15.1135 26.0394 15.692 25.8079 15.843Z" fill="white"/>
<path d="M25.8079 15.843L25.174 16.1951L23.7402 16.9749C23.9666 17.2013 24.198 17.4982 23.9616 17.795C23.7352 18.132 23.5541 18.3937 23.1617 18.6201C22.9906 18.6754 22.7642 18.5396 22.7642 18.3685C22.8799 17.9157 23.5994 17.7346 23.2925 17.312L21.9945 16.0191C21.8838 15.8782 21.8587 15.8329 21.9442 15.6669C22.0851 15.526 22.2008 15.5361 22.3919 15.7323L23.2824 16.4517L25.3753 15.3952C25.8884 15.1135 26.0394 15.6921 25.8079 15.843Z" stroke="white" stroke-width="0.146359"/>
<path d="M12.8583 17.1108C12.7124 17.4378 12.3351 17.4177 12.1238 17.7598C11.9729 17.8252 11.9024 17.5636 11.9024 17.5636C11.827 17.0454 12.486 16.7788 12.8533 16.6479C12.8986 16.6932 12.9338 17.0454 12.8583 17.1108Z" fill="white"/>
<path d="M12.8583 17.1108C12.7124 17.4378 12.3351 17.4177 12.1238 17.7598C11.9729 17.8252 11.9024 17.5636 11.9024 17.5636C11.827 17.0454 12.486 16.7788 12.8533 16.6479C12.8986 16.6932 12.9338 17.0454 12.8583 17.1108Z" stroke="white" stroke-width="0.146359" stroke-miterlimit="2" stroke-linecap="square"/>
<path d="M11.1628 18.1821C11.2886 18.4185 10.8912 18.2374 10.4837 18.3884C10.4032 18.4336 10.0912 18.5745 9.87995 18.3884L9.67871 18.2123C10.046 17.9557 10.8962 17.4325 11.1628 18.1821Z" fill="white"/>
<path d="M11.1628 18.1821C11.2886 18.4186 10.8912 18.2374 10.4837 18.3884C10.4032 18.4336 10.0912 18.5745 9.87995 18.3884L9.67871 18.2123C10.046 17.9557 10.8962 17.4325 11.1628 18.1821Z" stroke="white" stroke-width="0.146359" stroke-miterlimit="2" stroke-linecap="square"/>
<path d="M12.5163 18.811C12.5163 18.9669 12.3955 19.1782 12.6622 19.1531C12.9489 19.0826 13.2659 18.9066 13.5476 18.816C13.5929 19.7165 12.627 19.5405 12.1289 19.4348C11.9729 19.8976 11.1982 20.8586 10.6699 20.1894C10.6699 20.1089 11.5604 19.7668 11.5403 19.6109C11.5956 19.3996 10.9466 19.309 11.2535 18.9216C11.4698 18.7305 11.9277 19.3141 12.0333 18.8864C12.0685 18.333 12.5817 18.3431 12.5163 18.811Z" fill="white"/>
<path d="M12.5163 18.811C12.5163 18.9669 12.3955 19.1782 12.6622 19.1531C12.9489 19.0826 13.2659 18.9066 13.5476 18.816C13.5929 19.7165 12.627 19.5405 12.1289 19.4348C11.9729 19.8976 11.1982 20.8586 10.6699 20.1894C10.6699 20.1089 11.5604 19.7668 11.5403 19.6109C11.5956 19.3996 10.9466 19.309 11.2535 18.9216C11.4698 18.7305 11.9277 19.3141 12.0333 18.8864C12.0685 18.333 12.5817 18.3431 12.5163 18.811Z" stroke="white" stroke-width="0.146359" stroke-miterlimit="2" stroke-linecap="square"/>
<path d="M13.8243 20.4412C13.9702 20.6475 13.4369 20.9544 13.125 21.1154C12.7879 21.2864 12.1591 21.5128 11.9528 21.387C11.8773 21.3417 11.8119 21.1455 11.9276 21.0097C12.0635 20.8085 13.1351 20.3406 13.3464 20.2702C13.618 20.1645 13.7287 20.2299 13.8243 20.4412Z" fill="white"/>
<path d="M13.8243 20.4412C13.9702 20.6475 13.4369 20.9544 13.125 21.1154C12.7879 21.2864 12.1591 21.5128 11.9528 21.387C11.8773 21.3417 11.8119 21.1455 11.9276 21.0097C12.0635 20.8085 13.1351 20.3406 13.3464 20.2702C13.618 20.1645 13.7287 20.2299 13.8243 20.4412Z" stroke="white" stroke-width="0.146359" stroke-miterlimit="2" stroke-linecap="square"/>
<path d="M29.7825 31.4287C29.7825 31.4287 29.7926 32.6462 29.3952 32.6663C28.9474 32.6462 28.9776 31.3884 28.9776 31.3884H27.6092C27.6092 31.3884 27.6092 32.6361 27.2369 32.6663C26.8344 32.6512 26.8193 31.3884 26.8193 31.3884H25.3956C25.3956 31.3884 25.4107 32.6512 25.0082 32.6965C24.6208 32.6512 24.6057 31.3884 24.6057 31.3884H23.1971C23.1971 31.3884 23.2675 32.6663 22.8298 32.6814C22.3519 32.6361 22.3921 31.3884 22.3921 31.3884H20.9985C20.9985 31.3884 21.069 32.621 20.6262 32.611C20.1634 32.611 20.2238 31.4136 20.2238 31.4136V20.9644H29.7825V31.4287Z" fill="white"/>
<path d="M21.0337 21.6488H22.4273V23.3442H21.0337V21.6488ZM23.1819 21.6337H24.5956V23.3291H23.1819V21.6337ZM25.3955 21.6337H26.8193V23.3291H25.3955V21.6337ZM27.6091 21.6337H28.9775V23.3291H27.6091V21.6337Z" fill="#6B7C92"/>
<path d="M36.8661 24.7126C37.3138 26.0659 38.8483 26.7652 39.13 28.1738C39.1854 29.4115 37.7767 30.0353 37.9477 31.2729C38.2848 32.1734 38.7326 32.6665 38.969 34.0802C39.4771 34.0802 39.7337 33.1042 39.9199 33.0186C40.2368 32.8325 40.4833 33.3507 40.7298 33.7179C41.248 34.5832 41.3285 35.8963 40.9361 36.7969L40.2972 37.9691C40.2418 38.2458 40.3777 38.8243 40.0306 38.8847C39.8645 38.94 39.7186 38.8344 39.6281 38.6935C39.5375 38.5577 39.6029 37.8131 39.6935 37.6974C39.8042 37.5565 40.8204 35.8963 40.5387 34.8247C40.428 34.4877 40.3123 34.2059 40.0859 33.9795C39.6935 34.4273 39.13 34.7694 38.5112 34.709C38.2898 34.704 38.3251 33.7179 38.1691 33.3004C37.8924 32.2338 36.8208 31.2729 37.495 30.0906C37.8924 29.3008 39.0193 28.5109 38.1691 27.555C37.5503 26.8205 36.8661 26.2873 36.529 25.3867C36.4737 25.105 36.4737 24.6572 36.8661 24.7126Z" fill="white"/>
<path d="M36.8661 24.7126C37.3138 26.0659 38.8483 26.7652 39.13 28.1738C39.1854 29.4115 37.7767 30.0353 37.9477 31.2729C38.2848 32.1734 38.7326 32.6665 38.969 34.0802C39.4771 34.0802 39.7337 33.1042 39.9199 33.0186C40.2368 32.8325 40.4833 33.3507 40.7298 33.7179C41.248 34.5832 41.3285 35.8963 40.9361 36.7969L40.2972 37.9691C40.2418 38.2458 40.3777 38.8243 40.0306 38.8847C39.8645 38.94 39.7186 38.8344 39.6281 38.6935C39.5375 38.5577 39.6029 37.8131 39.6935 37.6974C39.8042 37.5565 40.8204 35.8963 40.5387 34.8247C40.428 34.4877 40.3123 34.2059 40.0859 33.9795C39.6935 34.4273 39.13 34.7694 38.5112 34.709C38.2898 34.704 38.3251 33.7179 38.1691 33.3004C37.8924 32.2338 36.8208 31.2729 37.495 30.0906C37.8924 29.3008 39.0193 28.5109 38.1691 27.555C37.5503 26.8205 36.8661 26.2873 36.529 25.3867C36.4737 25.105 36.4737 24.6572 36.8661 24.7126Z" stroke="white" stroke-width="0.146359"/>
<path d="M13.6282 24.959C13.5728 26.1463 12.5264 26.8205 11.8472 27.7764C11.0121 28.8178 13.0295 29.7535 12.8635 31.1018C12.7528 31.952 12.2799 32.5407 11.9981 33.3255L11.6108 34.6436C11.4095 34.9505 10.7605 34.5379 10.3631 34.1958C10.2524 34.1405 10.1568 33.8638 9.9908 34.0348C9.48268 34.709 9.42231 35.6146 9.6487 36.4044C9.81975 36.9679 10.4335 37.4609 10.4939 37.8684C10.5392 38.1552 10.5895 38.8696 10.2725 38.94C9.58833 38.9651 10.0461 38.1501 9.81975 37.8131C9.18082 36.993 8.84375 36.0522 8.99971 34.8901C9.15567 34.1757 9.59839 33.3054 10.0461 33.1393C10.3379 33.1293 10.3782 33.4311 10.6599 33.7531C10.8461 33.894 11.1529 34.2109 11.1379 33.9845L11.5504 32.7771C11.8573 32.0124 12.7477 31.132 11.9629 30.2013C11.3995 29.4114 10.6247 28.4857 11.2435 27.5248C11.9227 26.5689 12.8383 25.8042 13.1804 24.7327C13.4018 24.4509 13.6282 24.793 13.6282 24.959Z" fill="white"/>
<path d="M13.6282 24.959C13.5728 26.1463 12.5264 26.8205 11.8472 27.7764C11.0121 28.8178 13.0295 29.7535 12.8635 31.1018C12.7528 31.952 12.2799 32.5407 11.9981 33.3255L11.6108 34.6436C11.4095 34.9505 10.7605 34.5379 10.3631 34.1958C10.2524 34.1405 10.1568 33.8638 9.9908 34.0348C9.48268 34.709 9.42231 35.6146 9.6487 36.4044C9.81975 36.9679 10.4335 37.4609 10.4939 37.8684C10.5392 38.1552 10.5895 38.8696 10.2725 38.94C9.58833 38.9651 10.0461 38.1501 9.81975 37.8131C9.18082 36.993 8.84375 36.0522 8.99971 34.8901C9.15567 34.1757 9.59839 33.3054 10.0461 33.1393C10.3379 33.1293 10.3782 33.4311 10.6599 33.7531C10.8461 33.894 11.1529 34.2109 11.1379 33.9845L11.5504 32.7771C11.8573 32.0124 12.7477 31.132 11.9629 30.2013C11.3995 29.4114 10.6247 28.4857 11.2435 27.5248C11.9227 26.5689 12.8383 25.8042 13.1804 24.7327C13.4018 24.4509 13.6282 24.793 13.6282 24.959Z" stroke="white" stroke-width="0.146359"/>
<path d="M22.3921 25.7587H20.9985V24.0482H22.3921V25.7587ZM23.182 24.0482H24.5956V25.7587H23.182V24.0482ZM26.8193 25.7587H25.3905L25.3956 24.0482H26.8193L26.8193 25.7587ZM28.9776 25.7587H27.5991L27.6092 24.0482H28.9776L28.9776 25.7587Z" fill="#6B7C92"/>
<path d="M37.2381 27.7664C37.4092 27.8217 37.6305 27.8217 37.6305 28.0481C37.6305 28.2191 37.5199 28.3298 37.3488 28.3298C36.559 28.1638 36.086 27.3287 35.3515 27.1023C34.9591 26.9916 34.6774 27.3287 34.5063 27.6104L33.7416 29.4366C33.968 29.7184 34.5868 29.3813 34.5868 29.8894C34.6422 31.449 34.2246 32.908 32.8159 33.5268C31.689 34.1959 32.1468 34.7241 31.9708 34.8801C31.8601 34.9958 31.689 34.9958 31.5783 34.9354C31.3519 34.7141 31.4073 34.3166 31.4626 34.0349C31.8601 33.079 33.0977 33.1344 33.4951 32.1181C33.8322 31.5547 34.0837 30.8453 34.0234 30.1108C33.797 29.9448 33.2335 30.0554 33.2335 29.6077C33.3492 28.6468 33.802 27.8116 34.28 27.1023C34.5063 26.8206 34.7881 26.5388 35.1302 26.5388C35.9754 26.5942 36.4483 27.54 37.2381 27.7664Z" fill="white"/>
<path d="M37.2381 27.7664C37.4092 27.8217 37.6305 27.8217 37.6305 28.0481C37.6305 28.2191 37.5199 28.3298 37.3488 28.3298C36.559 28.1638 36.086 27.3287 35.3515 27.1023C34.9591 26.9916 34.6774 27.3287 34.5063 27.6104L33.7416 29.4366C33.968 29.7184 34.5868 29.3813 34.5868 29.8894C34.6422 31.449 34.2246 32.908 32.8159 33.5268C31.689 34.1959 32.1468 34.7241 31.9708 34.8801C31.8601 34.9958 31.689 34.9958 31.5783 34.9354C31.3519 34.7141 31.4073 34.3166 31.4626 34.0349C31.8601 33.079 33.0977 33.1344 33.4951 32.1181C33.8322 31.5547 34.0837 30.8453 34.0234 30.1108C33.797 29.9448 33.2335 30.0554 33.2335 29.6077C33.3492 28.6468 33.802 27.8116 34.28 27.1023C34.5063 26.8206 34.7881 26.5388 35.1302 26.5388C35.9754 26.5942 36.4483 27.54 37.2381 27.7664Z" stroke="white" stroke-width="0.146359"/>
<path d="M15.8166 27.1928L16.8027 29.0593C16.9435 29.3863 16.9787 29.7435 16.8127 29.8038L16.1587 30.0353C15.8971 30.0956 16.1285 31.8816 16.9989 32.7167C17.6177 33.3959 18.971 33.6173 18.6339 34.7492C18.6339 34.8599 18.5786 35.0259 18.4629 35.0259C17.8994 35.0863 18.2063 34.2814 17.9598 34.1254C17.2806 33.4513 16.3901 33.2802 15.9675 32.2136C15.6254 31.5345 15.4292 29.99 15.5298 29.7485C15.7009 29.4668 16.4253 29.6378 16.2845 29.2856L15.4191 27.4745C15.1978 27.1928 14.9462 26.9765 14.5739 27.1928C13.8998 27.4745 13.6633 28.0933 12.9339 28.204C12.6521 28.2644 12.4509 27.9122 12.637 27.7814L13.0144 27.6154C13.8596 27.2682 13.9099 26.9513 14.6897 26.574C15.0267 26.413 15.5198 26.6092 15.8166 27.1928Z" fill="white"/>
<path d="M15.8166 27.1928L16.8027 29.0593C16.9435 29.3863 16.9787 29.7435 16.8127 29.8038L16.1587 30.0353C15.8971 30.0956 16.1285 31.8816 16.9989 32.7167C17.6177 33.3959 18.971 33.6173 18.6339 34.7492C18.6339 34.8599 18.5786 35.0259 18.4629 35.0259C17.8994 35.0863 18.2063 34.2814 17.9598 34.1254C17.2806 33.4513 16.3901 33.2802 15.9675 32.2136C15.6254 31.5345 15.4292 29.99 15.5298 29.7485C15.7009 29.4668 16.4253 29.6378 16.2845 29.2856L15.4191 27.4745C15.1978 27.1928 14.9462 26.9765 14.5739 27.1928C13.8998 27.4745 13.6633 28.0933 12.9339 28.204C12.6521 28.2644 12.4509 27.9122 12.637 27.7814L13.0144 27.6154C13.8596 27.2682 13.9099 26.9513 14.6897 26.574C15.0267 26.413 15.5198 26.6092 15.8166 27.1928Z" stroke="white" stroke-width="0.146359"/>
<path d="M20.9985 26.4583H22.3921V28.1839H20.9985V26.4583ZM23.182 26.4583H24.5956V28.1839H23.182V26.4583ZM26.8193 28.1839H25.3956L25.3905 26.4583H26.8193L26.8193 28.1839ZM27.6092 26.4583H28.9776V28.1839H27.6092V26.4583Z" fill="#6B7C92"/>
<path d="M32.8865 27.7761C33.0978 31.2173 31.02 34.3515 27.9813 36.3438C27.0204 36.9676 26.2406 37.4154 24.998 37.7223C21.6625 36.4998 17.8792 33.3001 17.3711 29.5269C17.2604 28.7924 17.1547 28.1635 17.2705 27.3736C17.5522 27.429 17.844 27.3938 18.0653 27.4541C17.844 31.0009 19.8513 33.9239 22.8397 35.725C23.5742 36.1224 24.3037 36.5148 25.0382 36.7412C28.1926 35.6697 31.4627 32.7366 31.9708 29.3558C32.0815 28.6817 32.1217 28.1132 32.0664 27.4391C32.333 27.3887 32.5645 27.3737 32.8311 27.3284L32.8865 27.7761Z" fill="white" stroke="white" stroke-width="0.146359"/>
<path d="M20.9985 28.878H22.3921V30.5734H20.9985V28.878ZM24.5906 30.5734H23.182V28.8629H24.5906V30.5734ZM26.8193 30.5734H25.3905V28.8629H26.8193V30.5734ZM28.9776 30.5734H27.6092V28.8629H28.9776V30.5734Z" fill="#6B7C92"/>
<path d="M37.2585 29.1195C37.3138 29.2302 37.3138 29.4012 37.2031 29.4566C36.8057 29.5672 36.3881 29.3962 36.1064 29.8993C35.5983 30.5785 35.9907 31.479 36.2724 32.1582C36.3277 32.3544 36.1064 32.4399 35.9353 32.3795C35.5983 32.3242 35.5429 31.8764 35.4272 31.65C35.1455 30.9155 35.2008 29.8993 35.7693 29.3358C36.1617 28.8881 37.0925 28.873 37.2585 29.1195Z" fill="white"/>
<path d="M37.2585 29.1195C37.3138 29.2302 37.3138 29.4012 37.2031 29.4566C36.8057 29.5672 36.3881 29.3962 36.1064 29.8993C35.5983 30.5785 35.9907 31.479 36.2724 32.1582C36.3277 32.3544 36.1064 32.4399 35.9353 32.3795C35.5983 32.3242 35.5429 31.8764 35.4272 31.65C35.1455 30.9155 35.2008 29.8993 35.7693 29.3358C36.1617 28.8881 37.0924 28.873 37.2585 29.1195Z" stroke="white" stroke-width="0.146359"/>
<path d="M14.4785 29.4516C14.9866 30.0704 14.9866 31.0313 14.7049 31.7608C14.5942 32.0224 14.4634 32.5758 13.9452 32.4601L13.8195 32.2689C13.6886 31.952 14.7502 30.4327 13.9452 29.7837C13.5126 29.3359 12.8485 30.0906 12.8686 29.2705C12.8586 28.9184 13.9 28.8529 14.4785 29.4516Z" fill="white"/>
<path d="M14.4785 29.4516C14.9866 30.0704 14.9866 31.0313 14.7049 31.7608C14.5942 32.0224 14.4634 32.5758 13.9452 32.4601L13.8195 32.2689C13.6886 31.952 14.7502 30.4327 13.9452 29.7837C13.5126 29.3359 12.8485 30.0906 12.8686 29.2705C12.8586 28.9183 13.9 28.8529 14.4785 29.4516Z" stroke="white" stroke-width="0.146359"/>
<path d="M35.2362 32.9381C35.2261 33.3054 34.9796 33.2953 34.8438 33.4362C34.396 33.9997 34.396 34.9002 33.6062 35.1266C33.3244 35.1819 33.0075 35.197 32.8163 35.0662C32.7056 34.9556 32.7056 34.7845 32.761 34.6738C32.932 34.3921 33.2641 34.6537 33.4854 34.548C34.1646 34.1003 34.0036 33.0941 34.7884 32.7017C34.9796 32.6464 35.1758 32.6111 35.2362 32.9381Z" fill="white"/>
<path d="M35.2362 32.9381C35.2261 33.3054 34.9796 33.2953 34.8438 33.4362C34.396 33.9997 34.396 34.9002 33.6062 35.1266C33.3244 35.1819 33.0075 35.197 32.8163 35.0662C32.7056 34.9556 32.7056 34.7845 32.761 34.6738C32.932 34.3921 33.2641 34.6537 33.4854 34.548C34.1646 34.1003 34.0036 33.0941 34.7884 32.7017C34.9796 32.6464 35.1758 32.6111 35.2362 32.9381Z" stroke="white" stroke-width="0.146359"/>
<path d="M16.2845 34.3265C16.5159 34.8447 17.6076 34.2209 17.3863 35.0812C17.2353 35.217 16.7272 35.1315 16.4455 35.0762C15.5449 34.7391 15.7512 33.6725 14.9614 33.2197C14.8155 33.1191 14.8456 32.767 15.072 32.767C15.9776 32.8223 15.9273 33.6826 16.2845 34.3265Z" fill="white"/>
<path d="M16.2845 34.3265C16.5159 34.8447 17.6076 34.2209 17.3863 35.0812C17.2353 35.217 16.7272 35.1315 16.4455 35.0762C15.5449 34.7391 15.7512 33.6725 14.9614 33.2198C14.8155 33.1191 14.8456 32.767 15.072 32.767C15.9776 32.8223 15.9273 33.6826 16.2845 34.3265Z" stroke="white" stroke-width="0.146359"/>
<path d="M27.1665 33.5266C27.237 33.7932 26.92 34.0951 26.6785 34.1403C26.4119 34.2057 26.2257 33.929 26.0949 33.7278C26.0949 33.7278 25.8987 33.3002 26.0647 33.4662C26.3716 33.6926 26.9653 33.1895 27.1665 33.5266Z" fill="white"/>
<path d="M27.1665 33.5266C27.237 33.7932 26.92 34.0951 26.6785 34.1403C26.4119 34.2057 26.2257 33.929 26.0949 33.7278C26.0949 33.7278 25.8987 33.3002 26.0647 33.4662C26.3716 33.6926 26.9653 33.1895 27.1665 33.5266Z" stroke="white" stroke-width="0.146359" stroke-miterlimit="2" stroke-linecap="square"/>
<path d="M24.0924 33.441C24.2282 33.7076 23.8962 34.0145 23.7 34.0749C23.4987 34.1403 23.1667 34.0749 23.0309 33.8083C22.9604 33.7378 22.9604 33.5366 23.0309 33.4008C23.1164 33.1593 23.7553 33.7076 24.0924 33.441Z" fill="white"/>
<path d="M24.0924 33.441C24.2282 33.7076 23.8962 34.0145 23.7 34.0749C23.4987 34.1403 23.1667 34.0749 23.0309 33.8083C22.9604 33.7378 22.9604 33.5366 23.0309 33.4008C23.1164 33.1593 23.7553 33.7076 24.0924 33.441Z" stroke="white" stroke-width="0.146359" stroke-miterlimit="2" stroke-linecap="square"/>
<path d="M24.9628 35.886C24.349 35.5792 24.1428 34.1554 24.9628 33.4712C25.8331 33.9843 25.6822 35.6244 24.9628 35.886Z" fill="white"/>
<path d="M24.9628 35.886C24.349 35.5791 24.1428 34.1554 24.9628 33.4712C25.8331 33.9843 25.6822 35.6244 24.9628 35.886Z" stroke="white" stroke-width="0.146359" stroke-miterlimit="2" stroke-linecap="square"/>
<path d="M22.7695 7.22004L23.3984 7.96462L24.0474 7.21501L23.3984 6.47546L22.7695 7.22004Z" fill="white"/>
<path d="M23.3981 6.47546L22.7642 7.22004L23.3981 7.96462L24.047 7.21501L23.3981 6.47546Z" stroke="white" stroke-width="0.146359"/>
<path d="M25.979 7.22004L26.6079 7.96462L27.2569 7.21501L26.6079 6.47546L25.979 7.22004Z" fill="white"/>
<path d="M26.6079 6.47546L25.979 7.22004L26.6079 7.96462L27.2569 7.21501L26.6079 6.47546Z" stroke="white" stroke-width="0.146359"/>
<path d="M31.5783 15.7726C31.7494 15.9034 31.7947 15.2594 32.0764 15.2544L32.6298 15.7726C32.6801 15.999 31.8903 16.2304 32.1619 16.8542C32.7807 17.9812 33.9429 19.0427 35.0145 19.6615C35.3063 19.8376 34.6271 20.4564 34.6271 20.9645C34.9038 21.0953 35.5528 21.0802 35.5628 21.4676C35.8697 23.651 31.1155 23.5957 31.8198 25.9401C31.9607 26.2218 32.333 26.1514 32.4889 26.0105C32.7204 25.8697 32.6499 25.1854 32.816 24.788C33.0977 24.1692 33.8322 24.1139 34.5063 24.1139C34.9038 24.1692 34.6372 24.9691 35.1252 24.788C35.6936 24.2296 35.749 23.3793 36.4231 22.9869C36.5942 22.9316 36.7652 22.9869 36.8206 23.158C36.7652 23.5504 36.4332 23.8875 36.2118 24.2044C35.9854 24.5968 35.8043 25.1301 35.2962 25.2961C35.0698 25.4118 34.7327 25.4118 34.5667 25.2408C34.285 25.0748 34.451 24.6773 34.1139 24.622C33.7769 24.622 33.4348 24.6773 33.2687 25.0144C33.0423 25.5225 33.2989 26.4231 32.5342 26.579C32.1418 26.6344 31.679 26.735 31.3972 26.3426C31.1507 26.0005 30.9847 24.5113 32.0613 23.7818V19.908H26.0645C26.2355 19.5709 26.7386 19.3697 27.131 19.3144H29.8075C30.0288 18.927 30.2552 18.1321 30.2552 18.1321C30.3558 17.9057 30.0842 17.79 29.9986 17.5435C29.9383 17.3825 29.9131 17.2517 29.903 17.0655C29.9282 16.5574 30.1496 16.2908 30.5621 15.8833C30.7885 15.7172 31.196 15.3751 31.4073 15.5462L31.5783 15.7726Z" fill="white" stroke="white" stroke-width="0.146359"/>
<path d="M30.4819 19.3143H32.7911L32.8112 23.3591L32.8666 23.3289C33.7017 22.9516 34.3255 22.7705 34.9041 22.0913C35.4173 21.387 34.3909 21.5228 34.1092 21.3568C33.8225 21.1757 34.3356 20.5066 34.3909 20.0035C32.9269 19.269 31.8554 17.6893 31.2315 16.2806C30.9548 15.9989 30.5825 16.5825 30.502 16.8441C30.3863 17.0705 30.5574 17.3522 30.7838 17.5232C30.9498 17.6339 31.0504 17.8704 30.9397 18.0968C30.7284 18.5898 30.6932 18.7558 30.6932 18.7558C30.6077 18.952 30.5423 19.3545 30.4819 19.3143Z" fill="#6B7C92"/>
<path d="M30.4819 19.3143H32.7911L32.8112 23.3591L32.8666 23.3289C33.7017 22.9516 34.3255 22.7705 34.9041 22.0913C35.4173 21.387 34.3909 21.5228 34.1092 21.3568C33.8225 21.1757 34.3356 20.5066 34.3909 20.0035C32.9269 19.269 31.8554 17.6893 31.2315 16.2806C30.9548 15.9989 30.5825 16.5825 30.502 16.8441C30.3863 17.0705 30.5574 17.3522 30.7838 17.5232C30.9498 17.6339 31.0504 17.8704 30.9397 18.0968C30.7284 18.5898 30.6932 18.7558 30.6932 18.7558C30.6077 18.952 30.5423 19.3545 30.4819 19.3143Z" stroke="white" stroke-width="0.146359"/>
<path d="M19.1823 17.966C19.0716 17.5182 19.7408 17.4931 19.6301 17.0403C19.5244 16.663 19.137 16.1599 18.9509 16.2806C18.5585 16.7284 18.3874 17.4075 17.995 17.971C17.4316 18.8162 16.5813 19.5507 15.7361 19.9985C15.6003 20.1544 16.2241 21.1053 16.0732 21.3518C15.7965 21.5228 15.062 21.3518 15.233 21.8599C15.6808 22.6498 16.526 23.0573 17.3158 23.3943V19.2941H19.6552L19.1823 17.966Z" fill="#6B7C92" stroke="white" stroke-width="0.146359"/>
<path d="M22.6338 13.0458C22.6338 12.7338 22.8853 12.4823 23.1973 12.4823C23.5142 12.4823 23.7657 12.7338 23.7657 13.0458C23.7657 13.3627 23.5142 13.6143 23.1973 13.6143C22.8853 13.6143 22.6338 13.3627 22.6338 13.0458ZM37.3291 17.1661C37.475 17.4881 37.8523 17.4679 38.0636 17.8101C38.2146 17.8805 38.29 17.6189 38.29 17.6189C38.3605 17.1007 37.7064 16.8341 37.3342 16.7032C37.2889 16.7485 37.2537 17.1007 37.3291 17.1661Z" fill="white"/>
<path d="M37.3291 17.1658C37.475 17.4878 37.8523 17.4677 38.0636 17.8098C38.2146 17.8802 38.29 17.6186 38.29 17.6186C38.3605 17.1004 37.7064 16.8338 37.3342 16.703C37.2889 16.7483 37.2537 17.1004 37.3291 17.1658Z" stroke="white" stroke-width="0.146359" stroke-miterlimit="2" stroke-linecap="square"/>
<path d="M39.0241 18.2378C38.8984 18.4692 39.2958 18.2931 39.7083 18.4441C39.7838 18.4893 40.0957 18.6252 40.307 18.439L40.5083 18.268C40.141 18.0064 39.2908 17.4831 39.0241 18.2378Z" fill="white"/>
<path d="M39.0241 18.2378C38.8984 18.4692 39.2958 18.2931 39.7083 18.4441C39.7838 18.4893 40.0957 18.6252 40.307 18.439L40.5083 18.268C40.141 18.0064 39.2908 17.4831 39.0241 18.2378Z" stroke="white" stroke-width="0.146359" stroke-miterlimit="2" stroke-linecap="square"/>
<path d="M37.6711 18.8615C37.6711 19.0175 37.7918 19.2288 37.5302 19.2086C37.2384 19.1382 36.9215 18.9621 36.6397 18.8665C36.5944 19.7721 37.5604 19.596 38.0584 19.4853C38.2144 19.9532 38.9892 20.9091 39.5174 20.24C39.5174 20.1645 38.6269 19.8174 38.6521 19.6665C38.5917 19.4552 39.2407 19.3596 38.9338 18.9722C38.7225 18.7861 38.2647 19.3696 38.1591 18.937C38.1238 18.3836 37.6057 18.3987 37.6711 18.8615Z" fill="white"/>
<path d="M37.6711 18.8615C37.6711 19.0175 37.7918 19.2288 37.5302 19.2086C37.2384 19.1382 36.9215 18.9621 36.6397 18.8665C36.5944 19.7721 37.5604 19.596 38.0584 19.4853C38.2144 19.9532 38.9892 20.9091 39.5174 20.24C39.5174 20.1645 38.6269 19.8174 38.6521 19.6665C38.5917 19.4552 39.2407 19.3596 38.9338 18.9722C38.7225 18.7861 38.2647 19.3696 38.1591 18.937C38.1238 18.3836 37.6057 18.3987 37.6711 18.8615Z" stroke="white" stroke-width="0.146359" stroke-miterlimit="2" stroke-linecap="square"/>
<path d="M36.3627 20.4918C36.2168 20.698 36.75 21.0099 37.062 21.1709C37.399 21.337 38.0279 21.5684 38.2342 21.4376C38.3096 21.3923 38.3801 21.2011 38.2643 21.0603C38.1235 20.859 37.0519 20.3962 36.8406 20.3207C36.5689 20.2151 36.4582 20.2805 36.3627 20.4918Z" fill="white"/>
<path d="M36.3627 20.4918C36.2168 20.698 36.75 21.0099 37.062 21.1709C37.399 21.337 38.0279 21.5684 38.2342 21.4376C38.3096 21.3923 38.3801 21.2011 38.2643 21.0603C38.1235 20.859 37.0519 20.3962 36.8406 20.3207C36.5689 20.2151 36.4582 20.2805 36.3627 20.4918Z" stroke="white" stroke-width="0.146359" stroke-miterlimit="2" stroke-linecap="square"/>
<path d="M24.4448 12.8698C24.4448 12.5528 24.6964 12.3013 25.0133 12.3013C25.3252 12.3013 25.5818 12.5528 25.5818 12.8698C25.5818 13.1817 25.3252 13.4332 25.0133 13.4332C24.6964 13.4332 24.4448 13.1817 24.4448 12.8698ZM26.271 13.066C26.271 12.749 26.5226 12.4975 26.8345 12.4975C27.1464 12.4975 27.403 12.749 27.403 13.066C27.403 13.3779 27.1464 13.6294 26.8345 13.6294C26.5226 13.6294 26.271 13.3779 26.271 13.066Z" fill="white"/>
</g>
<defs>
<clipPath id="clip0_35_3185">
<rect width="171" height="44.9853" fill="white" transform="translate(0.266602 0.494263)"/>
</clipPath>
</defs>
</svg>
