<!-- Generated by IcoMoon.io -->
<svg version="1.1" xmlns="http://www.w3.org/2000/svg" width="32" height="24" viewBox="0 0 32 24">
<title>mobile_icon</title>
<path fill="currentColor" d="M0.6 19.503h10.423c0.13-0.711 0.39-1.359 0.778-1.879l-7.38-7.443c-2.202 2.524-3.629 5.761-3.82 9.322z"></path>
<path fill="currentColor" d="M13.158 16.201c0.583-0.389 1.231-0.647 1.879-0.776v-10.424c-3.496 0.194-6.733 1.619-9.259 3.819l7.38 7.381z"></path>
<path fill="currentColor" d="M17.043 15.425c0.713 0.13 1.359 0.389 1.878 0.776l7.448-7.38c-2.526-2.202-5.764-3.626-9.259-3.819v10.424h-0.066z"></path>
<path fill="currentColor" d="M20.344 17.56c0.39 0.582 0.648 1.23 0.779 1.878h10.423c-0.194-3.496-1.62-6.733-3.819-9.258l-7.383 7.38z"></path>
</svg>
