<!-- Generated by IcoMoon.io -->
<svg version="1.1" xmlns="http://www.w3.org/2000/svg" width="23" height="24" viewBox="0 0 23 24">
<title>MobileDevices-icon</title>
<path fill="currentColor" d="M12.52 8.586c0-0.009 0.001-0.017 0.001-0.026-0.022 0.124 0.015 0.254 0.015 0.384l-0.008 11.041-0.009-0.007v-11.392z"></path>
<path fill="currentColor" d="M15.955 6.772h-1.282c-0.060 0-0.119 0.003-0.178 0.008h1.461v-0.008z"></path>
<path fill="currentColor" d="M20.663 6.78h-3.636v-0.008h-1.072v0.008h-1.461c-0.995 0.080-1.802 0.821-1.973 1.78-0 0.009-0.001 0.017-0.001 0.026v11.392l0.005 0.141-0.005 3.472 1.774 0.003c0.008 0 0.016 0.001 0.024 0.001l1.434-0.001c0 0 0 0 0.001 0l4.91-0.005c0.991 0 1.797-0.806 1.797-1.797l0.006-13.205c0-0.994-0.809-1.808-1.803-1.808zM16.679 7.865h1.615c0.2 0 0.362 0.162 0.362 0.362s-0.162 0.361-0.362 0.361h-1.615c-0.2 0-0.362-0.162-0.362-0.361s0.162-0.362 0.362-0.362zM15.339 7.989c0.132-0.136 0.376-0.136 0.51 0 0.069 0.067 0.107 0.159 0.107 0.255s-0.038 0.188-0.107 0.255c-0.067 0.069-0.161 0.107-0.255 0.107-0.096 0-0.188-0.038-0.255-0.107-0.069-0.067-0.107-0.159-0.107-0.255s0.038-0.188 0.107-0.255zM17.494 23.077c-0.555 0-1.006-0.452-1.006-1.007s0.451-1.007 1.006-1.007c0.555 0 1.007 0.452 1.007 1.007s-0.452 1.007-1.007 1.007zM21.56 20.52h-8.136v-10.848h8.136v10.848z"></path>
<path fill="currentColor" d="M17.027 5.211l-0.001-3.484c0-0.705-0.574-1.275-1.279-1.275h-13.7c-0.705 0-1.279 0.574-1.279 1.28l0.006 20.582c0 0.705 0.574 1.28 1.279 1.28h9.124c-0.056-0.192-0.088-0.394-0.088-0.604v-3.012h-9.235v-16.091h14.102v1.324h1.071zM8.827 20.719c0.597 0 1.082 0.485 1.082 1.082s-0.485 1.082-1.082 1.082-1.082-0.485-1.082-1.082 0.486-1.082 1.082-1.082zM6.798 2.52c-0.067 0.069-0.161 0.107-0.255 0.107-0.096 0-0.188-0.038-0.257-0.107-0.067-0.067-0.105-0.159-0.105-0.255-0-0.094 0.038-0.188 0.105-0.255 0.136-0.136 0.378-0.136 0.512 0 0.069 0.067 0.107 0.161 0.107 0.255 0 0.096-0.038 0.188-0.107 0.255zM10.18 2.622h-2.56c-0.2 0-0.362-0.162-0.362-0.362s0.162-0.362 0.362-0.362h2.56c0.2 0 0.362 0.162 0.362 0.362s-0.162 0.362-0.362 0.362z"></path>
</svg>
