<svg id="nasa" width="98" height="28" viewBox="0 0 98 28" fill="none" xmlns="http://www.w3.org/2000/svg">
<path d="M19.2632 27.0077C18.0286 26.8488 16.6554 26.3906 15.8059 25.8551C14.6771 25.1435 13.9628 24.2108 13.5553 22.9148C13.3713 22.3297 10.2317 11.7127 9.66187 9.74868C8.91347 7.16908 8.70584 6.74962 8.0783 6.54818C7.79088 6.45593 7.68203 6.46572 7.38298 6.61106C7.18116 6.70896 6.95145 6.92471 6.85073 7.11109C6.68262 7.42323 6.67371 7.91724 6.67371 16.9268V26.4135L0.911595 26.3634V16.1501C0.911595 4.66289 0.886803 5.09327 1.63597 3.58338C2.51569 1.80993 4.05548 1.04293 6.97159 0.925833C9.4829 0.824923 11.2048 1.45072 12.8871 3.07507C14.1937 4.33757 14.2599 4.50249 16.4063 11.867C18.5934 19.3724 19.0869 20.8879 19.4619 21.252C19.8264 21.6064 20.4226 21.6214 20.7693 21.2848L21.0064 21.0536V1.4654H26.9195L26.8901 11.8433C26.8626 21.5646 26.8494 22.2604 26.6832 22.8335C26.0956 24.8622 24.9134 26.1443 23.0718 26.7505C22.4183 26.9655 22.1262 27.0039 20.9579 27.0258C20.2122 27.0401 19.4495 27.0318 19.2632 27.0077ZM46.5216 26.3868C44.5038 20.3469 42.5018 14.3017 40.4898 8.25951C40.2946 7.67363 40.0568 7.11297 39.9615 7.01357C39.5563 6.59073 38.9016 6.73042 38.6084 7.30237L32.2753 26.3634L26.0704 26.2863L33.3758 4.01451C33.9146 3.06979 34.78 2.30807 35.9495 1.74855C37.1705 1.16455 37.9801 0.994738 39.5423 0.994738C41.6643 0.994738 42.8737 1.4462 44.2035 2.73506C45.5473 4.0371 45.3265 3.8575 49.4291 16.2913L50.943 20.8797C50.9988 21.0476 51.452 21.045 58.0318 21.045H65.0293L65.5549 20.7392C65.9795 20.4922 66.1368 20.3258 66.3734 19.8743C66.6183 19.4089 66.6671 19.2056 66.6671 18.6506C66.6671 18.0971 66.6233 17.913 66.4044 17.5519C65.8981 16.7149 66.2781 16.7687 60.4692 16.7126C54.7667 16.658 55.1103 16.6957 53.6925 15.9765C52.9097 15.5792 51.7572 14.5189 51.1785 13.6638C50.2391 12.2752 49.8223 10.7969 49.8223 8.8548C49.8223 6.84827 50.2209 5.49766 51.2223 4.10977C52.1636 2.80547 53.8591 1.85662 55.7723 1.5633C56.162 1.50343 59.2505 1.46653 63.883 1.46615L71.3643 1.4654V6.73682L64.4645 6.7372C59.7518 6.73757 57.4419 6.77033 57.1773 6.84112C56.652 6.98156 56.035 7.6179 55.8231 8.2388C55.4361 9.3714 55.7584 10.617 56.5742 11.1422L56.9693 11.3964L61.2857 11.4472C65.4763 11.4965 65.6212 11.5044 66.2324 11.7149C68.9971 12.6668 71.5572 14.9565 72.2452 17.0914C72.8894 19.0908 72.2967 21.7894 70.7747 23.7865C69.5564 25.3845 68.1395 26.1936 66.1836 26.4075C64.8182 26.5574 46.5793 26.5378 46.5216 26.3868ZM91.7112 26.3352L85.1573 7.01206C84.8533 6.68561 84.29 6.70632 83.9286 7.05725L77.4262 26.4109H74.3467C72.6531 26.4109 71.2675 26.374 71.2675 26.3292C71.2675 26.2527 77.2891 7.37956 77.9391 5.41934C78.3296 4.24156 78.8223 3.45385 79.6172 2.73769C80.923 1.56104 82.5511 0.995114 84.6317 0.995114C87.5664 0.995114 89.4397 2.0799 90.6994 4.50852L97.5458 26.4335C97.521 26.4726 96.2187 26.505 94.6525 26.505C92.0083 26.5046 91.798 26.4926 91.7112 26.3352Z" fill="#6B7C93"/>
</svg>
