<svg id="nasaData" width="98" height="27" viewBox="0 0 98 27" fill="none" xmlns="http://www.w3.org/2000/svg">
<path d="M18.8483 26.2875C17.6137 26.1286 16.2405 25.6703 15.391 25.1349C14.2622 24.4233 13.5479 23.4906 13.1404 22.1946C12.9564 21.6095 9.81677 10.9924 9.24695 9.02846C8.49856 6.44885 8.29093 6.0294 7.66339 5.82796C7.37596 5.73571 7.26711 5.7455 6.96806 5.89084C6.76624 5.98873 6.53653 6.20449 6.43582 6.39087C6.2677 6.70301 6.25879 7.19702 6.25879 16.2066V25.6933L0.496678 25.6432V15.4298C0.496678 3.94267 0.471886 4.37304 1.22106 2.86316C2.10077 1.0897 3.64056 0.322711 6.55668 0.20561C9.06799 0.1047 10.7898 0.730493 12.4722 2.35484C13.7788 3.61735 13.845 3.78227 15.9914 11.1468C18.1785 18.6522 18.672 20.1677 19.047 20.5318C19.4115 20.8861 20.0077 20.9012 20.3544 20.5646L20.5914 20.3334V0.745178H26.5046L26.4752 11.1231C26.4477 20.8443 26.4345 21.5402 26.2683 22.1133C25.6807 24.142 24.4984 25.4241 22.6569 26.0303C22.0034 26.2453 21.7113 26.2837 20.543 26.3055C19.7973 26.3198 19.0346 26.3116 18.8483 26.2875ZM46.1066 25.6666C44.0888 19.6266 42.0869 13.5815 40.0749 7.53928C39.8797 6.9534 39.6418 6.39275 39.5466 6.29335C39.1414 5.8705 38.4867 6.0102 38.1935 6.58215L31.8604 25.6432L25.6555 25.566L32.9609 3.29429C33.4997 2.34957 34.3651 1.58785 35.5346 1.02833C36.7556 0.44433 37.5652 0.274515 39.1274 0.274515C41.2494 0.274515 42.4588 0.725975 43.7886 2.01484C45.1324 3.31688 44.9116 3.13727 49.0142 15.571L50.5281 20.1594C50.5839 20.3274 51.0371 20.3247 57.6169 20.3247H64.6143L65.14 20.019C65.5646 19.772 65.7218 19.6056 65.9585 19.1541C66.2033 18.6887 66.2521 18.4854 66.2521 17.9304C66.2521 17.3769 66.2084 17.1928 65.9895 16.8317C65.4832 15.9946 65.8632 16.0485 60.0542 15.9924C54.3518 15.9378 54.6954 15.9754 53.2776 15.2563C52.4947 14.859 51.3423 13.7987 50.7636 12.9436C49.8242 11.555 49.4074 10.0767 49.4074 8.13458C49.4074 6.12805 49.806 4.77744 50.8074 3.38955C51.7487 2.08525 53.4442 1.13639 55.3574 0.843076C55.7471 0.783207 58.8356 0.746307 63.4681 0.745931L70.9494 0.745178V6.0166L64.0496 6.01697C59.3368 6.01735 57.027 6.05011 56.7624 6.1209C56.2371 6.26134 55.62 6.89768 55.4081 7.51858C55.0212 8.65118 55.3435 9.89674 56.1593 10.422L56.5544 10.6762L60.8708 10.727C65.0614 10.7763 65.2063 10.7842 65.8175 10.9947C68.5822 11.9466 71.1423 14.2362 71.8303 16.3712C72.4745 18.3705 71.8818 21.0691 70.3598 23.0662C69.1415 24.6642 67.7245 25.4734 65.7687 25.6873C64.4032 25.8371 46.1644 25.8176 46.1066 25.6666ZM91.2963 25.615L84.7424 6.29184C84.4383 5.96539 83.8751 5.9861 83.5137 6.33702L77.0113 25.6907H73.9317C72.2382 25.6907 70.8525 25.6538 70.8525 25.609C70.8525 25.5325 76.8742 6.65933 77.5242 4.69912C77.9147 3.52133 78.4074 2.73363 79.2023 2.01747C80.5081 0.840816 82.1362 0.274892 84.2168 0.274892C87.1515 0.274892 89.0248 1.35967 90.2845 3.78829L97.1309 25.7133C97.1061 25.7524 95.8037 25.7848 94.2376 25.7848C91.5934 25.7844 91.3831 25.7724 91.2963 25.615Z" fill="#6B7C93"/>
</svg>
