<!-- Generated by IcoMoon.io -->
<svg version="1.1" xmlns="http://www.w3.org/2000/svg" width="21" height="24" viewBox="0 0 21 24">
<title>octogeo_vertical</title>
<path fill="currentColor" d="M18.51 15.819c-0.697 0.133-2.4 1.098-2.61 1.204-1.245 0.281-2.128-0.562-2.128-0.562s1.847 0.923 3.854-1.847c0.883-1.606 2.289-0.683 2.289-0.683s-0.482-1.726-2.529-0.482c-0.562 0.321-1.643 1.834-2.409 1.927-0.948 0.116-1.337-0.155-1.496-0.406-1.391 1.785-2.629 3.016-2.629 3.016s-0.772-0.867-2.362-2.343c-0.243 0.308-0.305 0.594-1.583 0.134-1.138-0.41-3.292-2.851-4.577-2.851-2.088 0-2.088 1.807-2.088 1.807s0.642-1.124 2.088-0.923c0.8 0.111 2.784 2.219 3.533 2.73 0.883 0.602 2.369 0.763 2.369 0.763s-0.232 0.4-1.084 0.321c-0.899-0.083-2.716-0.643-3.252-0.602-1.044 0.080-1.445 0.923-1.445 0.923s0.429-0.579 1.686-0.361c0.893 0.155 2.36 1.032 3.694 1.365 3.212 0.803 4.256-1.285 4.256-1.285s2.088 1.686 4.938-0.442c2.489-1.726 3.493 0.080 3.493 0.080s-0.321-1.807-2.008-1.486z"></path>
<path fill="currentColor" d="M10.951 12.124c-3.176 0-5.75-2.483-5.75-5.547s2.575-5.547 5.75-5.547 5.75 2.483 5.75 5.547c0 3.063-2.575 5.547-5.75 5.547zM10.894 0.081c-3.694 0-6.689 2.906-6.689 6.49 0 3.833 6.689 11.235 6.689 11.235s6.69-7.117 6.69-11.235c0-3.585-2.995-6.49-6.69-6.49z"></path>
<path fill="currentColor" d="M2.746 22.815c0.181-0.219 0.271-0.507 0.271-0.865s-0.090-0.647-0.271-0.866c-0.181-0.219-0.44-0.328-0.778-0.328s-0.598 0.109-0.778 0.328c-0.181 0.219-0.271 0.507-0.271 0.866s0.090 0.647 0.271 0.865c0.181 0.219 0.44 0.328 0.778 0.328s0.598-0.109 0.778-0.328zM1.085 23.534c-0.26-0.151-0.464-0.363-0.612-0.637s-0.221-0.589-0.221-0.948c0-0.358 0.074-0.674 0.221-0.948s0.351-0.486 0.612-0.637c0.26-0.151 0.555-0.226 0.883-0.226s0.623 0.075 0.883 0.226c0.26 0.151 0.464 0.363 0.612 0.637s0.221 0.589 0.221 0.948c0 0.358-0.074 0.674-0.221 0.948s-0.352 0.486-0.612 0.637c-0.26 0.151-0.555 0.226-0.883 0.226s-0.623-0.075-0.883-0.226z"></path>
<path fill="currentColor" d="M4.567 23.569c-0.197-0.114-0.346-0.269-0.445-0.465s-0.149-0.413-0.149-0.652c0-0.242 0.050-0.462 0.149-0.659s0.249-0.353 0.448-0.468 0.441-0.172 0.726-0.172c0.255 0 0.477 0.053 0.666 0.159l-0.050 0.497c-0.179-0.093-0.365-0.139-0.557-0.139-0.235 0-0.419 0.071-0.552 0.214s-0.199 0.332-0.199 0.567c0 0.226 0.068 0.412 0.204 0.56s0.317 0.221 0.542 0.221c0.189 0 0.378-0.055 0.567-0.164l0.055 0.522c-0.090 0.047-0.195 0.083-0.316 0.109s-0.248 0.040-0.38 0.040c-0.275 0-0.512-0.057-0.709-0.172z"></path>
<path fill="currentColor" d="M6.698 23.549c-0.113-0.128-0.169-0.281-0.169-0.46v-1.378h-0.353l0.055-0.507h0.298v-0.547l0.617-0.065v0.612h0.547v0.507h-0.547v1.124c0 0.133 0.007 0.225 0.022 0.276s0.046 0.085 0.095 0.099c0.048 0.015 0.135 0.022 0.261 0.022h0.169l-0.055 0.507h-0.443c-0.219 0-0.385-0.064-0.497-0.192z"></path>
<path fill="currentColor" d="M9.699 23.019c0.114-0.143 0.172-0.332 0.172-0.567 0-0.239-0.057-0.43-0.172-0.574s-0.273-0.216-0.475-0.216c-0.202 0-0.361 0.072-0.475 0.216s-0.172 0.336-0.172 0.574c0 0.235 0.057 0.424 0.172 0.567s0.273 0.214 0.475 0.214c0.202 0 0.361-0.071 0.475-0.214zM8.543 23.566c-0.192-0.116-0.34-0.272-0.443-0.468s-0.154-0.411-0.154-0.647c0-0.235 0.051-0.453 0.154-0.652s0.25-0.356 0.443-0.473c0.192-0.116 0.419-0.174 0.681-0.174s0.489 0.058 0.681 0.174c0.192 0.116 0.34 0.274 0.443 0.473s0.154 0.416 0.154 0.652c0 0.235-0.051 0.451-0.154 0.647s-0.25 0.352-0.443 0.468c-0.192 0.116-0.42 0.174-0.681 0.174s-0.489-0.058-0.681-0.174z"></path>
<path fill="currentColor" d="M11.58 23.536c-0.264-0.149-0.465-0.361-0.604-0.634s-0.209-0.593-0.209-0.957c0-0.358 0.077-0.674 0.231-0.948s0.369-0.485 0.644-0.634c0.275-0.149 0.59-0.224 0.945-0.224 0.179 0 0.353 0.018 0.522 0.055s0.315 0.086 0.438 0.149l-0.070 0.607c-0.288-0.133-0.585-0.199-0.89-0.199-0.371 0-0.652 0.109-0.841 0.326s-0.284 0.503-0.284 0.858c0 0.368 0.093 0.662 0.279 0.883s0.454 0.331 0.806 0.331c0.143 0 0.302-0.018 0.477-0.055v-0.622h-0.477v-0.527h1.114v1.552c-0.129 0.076-0.294 0.139-0.495 0.189s-0.415 0.075-0.644 0.075c-0.365 0-0.679-0.075-0.943-0.224z"></path>
<path fill="currentColor" d="M14.278 20.209h2.228v0.617h-1.577v0.741h1.224v0.617h-1.224v0.89h1.626v0.617h-2.278v-3.482z"></path>
<path fill="currentColor" d="M19.344 22.815c0.181-0.219 0.271-0.507 0.271-0.865s-0.090-0.647-0.271-0.866c-0.181-0.219-0.44-0.328-0.778-0.328s-0.598 0.109-0.778 0.328c-0.181 0.219-0.271 0.507-0.271 0.866s0.090 0.647 0.271 0.865c0.181 0.219 0.44 0.328 0.778 0.328s0.598-0.109 0.778-0.328zM17.682 23.534c-0.26-0.151-0.464-0.363-0.612-0.637s-0.221-0.589-0.221-0.948c0-0.358 0.074-0.674 0.221-0.948s0.351-0.486 0.612-0.637c0.26-0.151 0.555-0.226 0.883-0.226s0.623 0.075 0.883 0.226c0.26 0.151 0.464 0.363 0.612 0.637s0.221 0.589 0.221 0.948c0 0.358-0.074 0.674-0.221 0.948s-0.352 0.486-0.612 0.637c-0.26 0.151-0.555 0.226-0.883 0.226s-0.623-0.075-0.883-0.226z"></path>
<path fill="currentColor" d="M14.398 6.482c0 1.876-1.521 3.397-3.397 3.397s-3.397-1.521-3.397-3.397c0-1.876 1.521-3.397 3.397-3.397s3.397 1.521 3.397 3.397z"></path>
</svg>
