<!-- Generated by IcoMoon.io -->
<svg version="1.1" xmlns="http://www.w3.org/2000/svg" width="24" height="24" viewBox="0 0 24 24">
<title>open_layers</title>
<path fill="currentColor" d="M9.204 18.099c0.037 0.035 0.044 0.040 0.026 0.020-0.029-0.024-0.039-0.032-0.026-0.020z"></path>
<path fill="currentColor" d="M16.052 14.023c-0.69-0.395-2.6-1.667-2.772-1.778-0.484-0.314-0.837-0.544-0.837-0.544l-6.327 3.636c0 0 3.251 3.203 3.529 3.442 0.048 0.041 2.549 2.204 2.549 2.204s2.795-2.36 3.782-3.32c0.413-0.402 2.416-2.351 2.416-2.351s-1.8-0.979-2.339-1.289z"></path>
<path fill="currentColor" d="M10.473 12.052c-0.044 0.029-0.089 0.057-0.133 0.085-0.195 0.125-0.39 0.249-0.586 0.372-0.060 0.038-0.12 0.075-0.181 0.112-0.023 0.014-0.046 0.029-0.070 0.043-0.216 0.133-0.434 0.264-0.653 0.393-0.019 0.011-0.039 0.023-0.058 0.034-0.061 0.035-0.121 0.071-0.182 0.106-0.054 0.031-0.108 0.062-0.162 0.093-0.021 0.012-0.042 0.024-0.063 0.036-0.032 0.018-0.064 0.037-0.096 0.055-0.026 0.015-0.051 0.029-0.077 0.044-0.053 0.030-0.106 0.060-0.16 0.090-0.058 0.032-0.115 0.065-0.173 0.097-0.224 0.125-0.448 0.249-0.671 0.371-0.024 0.013-0.048 0.027-0.073 0.040-0.532 0.292-1.065 0.579-1.593 0.87-0 0-0 0-0 0-0.94-0.985-1.799-1.946-2.679-2.97-1.351-1.574-1.607-1.894-2.521-3.087 0.701-0.157 1.405-0.311 2.111-0.472 0.037-0.008 0.075-0.017 0.112-0.026 0.203-0.046 0.407-0.093 0.61-0.141 0.735-0.173 1.461-0.362 2.177-0.558 0.203-0.055 0.405-0.111 0.606-0.167 0 0 0 0 0.001 0.001 0.861 0.662 1.75 1.336 2.685 1.971 0.329 0.223 0.66 0.442 0.992 0.658 0.639 0.416 1.283 0.823 1.925 1.236-0.361 0.239-0.723 0.478-1.089 0.715z"></path>
<path fill="currentColor" d="M13.123 11.438c0.969-0.639 1.943-1.335 2.885-1.999 0.921-0.65 2.602-1.833 2.602-1.833 0.954 0.313 1.908 0.58 2.835 0.855 0.928 0.275 1.265 0.405 2.214 0.69-0.752 1.027-1.285 1.718-2.155 2.716-0.894 1.026-1.844 1.916-2.8 2.892-1.050-0.567-1.51-0.887-2.502-1.493-0.959-0.585-2.096-1.18-3.078-1.828z"></path>
<path fill="currentColor" d="M9.148 15.249c-0.009 0.021-0.021 0.044-0.038 0.070 0.044-0.067 0.054-0.085 0.038-0.070z"></path>
<path fill="currentColor" d="M3.876 4.279c0.594 0.584 1.199 1.189 1.842 1.769 0.665 0.601 1.395 1.157 2.124 1.73 0.721 0.567 1.422 1.187 2.214 1.678 0.838 0.52 1.645 0.981 2.356 1.538 0.761-0.523 1.547-1.022 2.353-1.543 0.791-0.512 1.539-1.082 2.289-1.639 0.751-0.558 1.489-1.115 2.169-1.714 0.654-0.576 1.263-1.18 1.866-1.76-0.769-0.076-1.548-0.144-2.338-0.225-0.78-0.079-1.552-0.182-2.327-0.282-0.783-0.101-1.571-0.184-2.31-0.338-0.636-0.132-1.186-0.321-1.694-0.476-0.599 0.129-1.222 0.273-1.872 0.399-0.693 0.135-1.417 0.243-2.133 0.358-0.719 0.116-1.444 0.242-2.191 0.322-0.782 0.084-1.571 0.125-2.348 0.182z"></path>
</svg>
