<svg id="oracle" width="146" height="20" viewBox="0 0 146 20" fill="none" xmlns="http://www.w3.org/2000/svg">
<path d="M63.1156 12.5168H72.719L67.6463 4.32494L58.3203 19.1206H54.0794L65.4219 1.36958C65.6692 1.01536 65.9977 0.72556 66.3801 0.52445C66.7624 0.323339 67.1873 0.216778 67.6193 0.213692C68.0512 0.210607 68.4777 0.311087 68.8628 0.506716C69.248 0.702345 69.5806 0.987424 69.8329 1.33807L81.2069 19.1206H76.9661L74.9686 15.8124H65.2518L63.1345 12.5168H63.1156ZM107.2 15.8124V0.392862H103.596V17.331C103.595 17.5664 103.642 17.7995 103.734 18.0161C103.826 18.2327 103.962 18.4284 104.131 18.5913C104.302 18.7659 104.506 18.9043 104.731 18.9985C104.956 19.0927 105.198 19.1406 105.442 19.1395H121.826L123.962 15.8313H107.181L107.2 15.8124ZM47.6079 13.0587C49.2875 13.0587 50.8983 12.3915 52.0859 11.2038C53.2736 10.0162 53.9408 8.40536 53.9408 6.72577C53.9408 5.04618 53.2736 3.43538 52.0859 2.24773C50.8983 1.06008 49.2875 0.392862 47.6079 0.392862H31.8544V19.1206H35.4525V3.7074H47.3873C48.1912 3.7074 48.9621 4.02673 49.5305 4.59515C50.099 5.16357 50.4183 5.93451 50.4183 6.73837C50.4183 7.54224 50.099 8.31318 49.5305 8.8816C48.9621 9.45002 48.1912 9.76935 47.3873 9.76935H37.2358L47.986 19.1206H53.2098L45.9884 13.0587H47.6079ZM9.72384 19.1206H20.6064C23.0469 19.0573 25.3663 18.0433 27.0701 16.2947C28.7739 14.5462 29.7274 12.2013 29.7274 9.7599C29.7274 7.3185 28.7739 4.97364 27.0701 3.22507C25.3663 1.4765 23.0469 0.462491 20.6064 0.399164H9.72384C8.47413 0.366737 7.23059 0.584876 6.06653 1.04072C4.90248 1.49656 3.84149 2.18087 2.94612 3.05331C2.05076 3.92574 1.33915 4.96862 0.85327 6.12046C0.367388 7.2723 0.117065 8.50977 0.117065 9.7599C0.117065 11.01 0.367388 12.2475 0.85327 13.3993C1.33915 14.5512 2.05076 15.5941 2.94612 16.4665C3.84149 17.3389 4.90248 18.0232 6.06653 18.4791C7.23059 18.9349 8.47413 19.1531 9.72384 19.1206ZM20.3606 15.825H9.96329C8.39022 15.7743 6.89855 15.1137 5.80372 13.983C4.7089 12.8523 4.09676 11.3401 4.09676 9.7662C4.09676 8.19231 4.7089 6.68012 5.80372 5.54941C6.89855 4.4187 8.39022 3.75814 9.96329 3.7074H20.3606C21.1727 3.68121 21.9818 3.81854 22.7397 4.11123C23.4977 4.40393 24.1891 4.84601 24.7728 5.41121C25.3565 5.97641 25.8207 6.65319 26.1377 7.40132C26.4546 8.14946 26.618 8.95368 26.618 9.7662C26.618 10.5787 26.4546 11.3829 26.1377 12.1311C25.8207 12.8792 25.3565 13.556 24.7728 14.1212C24.1891 14.6864 23.4977 15.1285 22.7397 15.4212C21.9818 15.7139 21.1727 15.8512 20.3606 15.825ZM88.7245 19.1206H99.8339L101.939 15.825H88.9703C88.1582 15.8512 87.3491 15.7139 86.5911 15.4212C85.8332 15.1285 85.1418 14.6864 84.5581 14.1212C83.9743 13.556 83.5102 12.8792 83.1932 12.1311C82.8762 11.3829 82.7129 10.5787 82.7129 9.7662C82.7129 8.95368 82.8762 8.14946 83.1932 7.40132C83.5102 6.65319 83.9743 5.97641 84.5581 5.41121C85.1418 4.84601 85.8332 4.40393 86.5911 4.11123C87.3491 3.81854 88.1582 3.68121 88.9703 3.7074H99.5251L101.655 0.399164H88.7245C87.4748 0.366737 86.2313 0.584876 85.0672 1.04072C83.9032 1.49656 82.8422 2.18087 81.9468 3.05331C81.0514 3.92574 80.3398 4.96862 79.854 6.12046C79.3681 7.2723 79.1177 8.50977 79.1177 9.7599C79.1177 11.01 79.3681 12.2475 79.854 13.3993C80.3398 14.5512 81.0514 15.5941 81.9468 16.4665C82.8422 17.3389 83.9032 18.0232 85.0672 18.4791C86.2313 18.9349 87.4748 19.1531 88.7245 19.1206ZM132.752 15.825C131.432 15.8255 130.148 15.3949 129.095 14.5988C128.041 13.8026 127.277 12.6844 126.917 11.414H142.305L144.423 8.11208H126.917C127.276 6.84118 128.04 5.72235 129.094 4.92603C130.147 4.12971 131.432 3.69956 132.752 3.7011H143.314L145.425 0.392862H132.507C130.066 0.45619 127.747 1.4702 126.043 3.21877C124.339 4.96734 123.386 7.3122 123.386 9.7536C123.386 12.195 124.339 14.5398 126.043 16.2884C127.747 18.037 130.066 19.051 132.507 19.1143H143.616L145.727 15.8187H132.746" fill="#6B7C93"/>
</svg>
