<svg id="oracleData" width="147" height="20" viewBox="0 0 147 20" fill="none" xmlns="http://www.w3.org/2000/svg"><g clip-path="url(#clip0_35_3315)"><path d="M63.8037 13.1516h9.6322L68.348 4.91822 58.9939 19.7889h-4.2536L66.1169 1.94789c.248-.35602.5776-.64729.961-.84942.3835-.202126.8097-.309228 1.243-.312329.4332-.003101.8609.097889 1.2472.294509.3863.19662.72.48314.9731.83557L81.9494 19.7889h-4.2536l-2.0036-3.325h-9.7459l-2.1237-3.3123m44.1984 3.3123V.966219h-3.615V17.9902c-.001.2366.046.4708.139.6886.092.2177.227.4144.398.5781.171.1754.375.3146.601.4092.226.0947.469.1429.713.1418h16.433l2.143-3.325h-16.831m-59.7527-2.7867c1.6846 0 3.3003-.6706 4.4915-1.8642 1.1912-1.1937 1.8604-2.81268 1.8604-4.50078s-.6692-3.30707-1.8604-4.50074C51.5496 1.63682 49.9339.966219 48.2493.966219H32.4484V19.7889h3.609V4.29755h11.9707c.8063 0 1.5795.32095 2.1497.89225.5701.5713.8904 1.34615.8904 2.15409 0 .80793-.3203 1.58278-.8904 2.15408-.5702.57133-1.3434.89223-2.1497.89223H37.846l10.7825 9.3987h5.2396l-7.2431-6.0927h1.6243zm-37.9979 6.0927h10.9152c2.4479-.0637 4.7742-1.0828 6.4831-2.8402 1.709-1.7575 2.6653-4.1142 2.6653-6.568 0-2.45375-.9563-4.81049-2.6653-6.56792-1.7089-1.75744-4.0352-2.77658-6.4831-2.840227H10.2514c-1.25348-.032592-2.50077.186657-3.66832.644807-1.16756.45815-2.23174 1.14593-3.1298 2.02278-.89805.87686-1.6118 1.92503-2.09914 3.0827C.866798 7.88052.615723 9.12426.615723 10.3807c0 1.2565.251075 2.5002.738417 3.6579.48734 1.1577 1.20109 2.2058 2.09914 3.0827.89806.8768 1.96224 1.5646 3.1298 2.0228 1.16755.4581 2.41484.6774 3.66832.6448zm10.6687-3.3123H10.4916c-1.57785-.051-3.07401-.715-4.17212-1.8514-1.09812-1.1364-1.7121-2.6563-1.7121-4.2381 0-1.58191.61398-3.10177 1.7121-4.2382 1.09811-1.13644 2.59427-1.80035 4.17212-1.85135h10.4285c.8146-.02632 1.6261.1117 2.3863.40588.7602.29418 1.4537.7385 2.0392 1.30657.5855.56806 1.051 1.24827 1.3689 2.00019.318.75193.4818 1.56023.4818 2.37691 0 .8166-.1638 1.6249-.4818 2.3768-.3179.7519-.7834 1.4321-1.3689 2.0002s-1.279 1.0124-2.0392 1.3066c-.7602.2942-1.5717.4322-2.3863.4059zm68.5695 3.3123h11.1424l2.111-3.3123H89.736c-.8145.0263-1.626-.1117-2.3862-.4059-.7603-.2942-1.4537-.7385-2.0392-1.3066-.5855-.5681-1.051-1.2483-1.369-2.0002-.3179-.7519-.4817-1.5602-.4817-2.3768 0-.81668.1638-1.62498.4817-2.37691.318-.75192.7835-1.43213 1.369-2.00019.5855-.56807 1.2789-1.01239 2.0392-1.30657.7602-.29418 1.5717-.4322 2.3862-.40588h10.587l2.136-3.324997H89.4896c-1.2535-.032592-2.5008.186657-3.6683.644807-1.1676.45815-2.2318 1.14593-3.1298 2.02278-.8981.87686-1.6118 1.92503-2.0992 3.0827-.4873 1.15768-.7384 2.40142-.7384 3.65786 0 1.2565.2511 2.5002.7384 3.6579.4874 1.1577 1.2011 2.2058 2.0992 3.0827.898.8768 1.9622 1.5646 3.1298 2.0228 1.1675.4581 2.4148.6774 3.6683.6448zm44.1604-3.3123c-1.324.0005-2.613-.4323-3.669-1.2325-1.056-.8002-1.823-1.9241-2.184-3.2009h15.434l2.124-3.31865h-17.558c.36-1.27734 1.126-2.40184 2.183-3.20219 1.057-.80036 2.345-1.23269 3.67-1.23114h10.593L146.36.966219h-12.957c-2.448.063651-4.774 1.082791-6.483 2.840231-1.709 1.75743-2.665 4.11417-2.665 6.56795 0 2.4538.956 4.8105 2.665 6.5679 1.709 1.7575 4.035 2.7766 6.483 2.8403h11.143l2.117-3.3124h-13.02" fill="#6B7C93"/></g><defs><clipPath id="clip0_35_3315"><path fill="#fff" transform="translate(.859375 .78894)" d="M0 0h146v19H0z"/></clipPath></defs></svg>