<svg id="osce3" width="140" height="44" viewBox="0 0 140 44" fill="none" xmlns="http://www.w3.org/2000/svg">
<path fill-rule="evenodd" clip-rule="evenodd" d="M35.3217 40.8374H3.30054V3.8374H35.3217V40.8374Z" fill="#6B7C92"/>
<path fill-rule="evenodd" clip-rule="evenodd" d="M69.0046 40.8374H37.4282V3.8374H69.0046V40.8374Z" fill="#6B7C92"/>
<path fill-rule="evenodd" clip-rule="evenodd" d="M102.711 40.8374H71.1348V3.8374H102.711V40.8374Z" fill="#6B7C92"/>
<path fill-rule="evenodd" clip-rule="evenodd" d="M136.3 40.8374H104.677V3.8374H136.3V40.8374Z" fill="#6B7C92"/>
<path fill-rule="evenodd" clip-rule="evenodd" d="M130.013 30.0383C128.466 30.9228 127.169 31.5576 126.123 31.8984C125.077 32.2392 124.028 32.3979 122.961 32.3979C121.414 32.3979 119.911 32.0338 118.455 31.3102C117.022 30.5821 115.885 29.4501 115.042 27.9284C114.223 26.3856 113.813 24.3901 113.769 21.8951H122.142C124.007 21.8951 125.894 21.8508 127.759 21.7131C128.738 21.6454 129.875 21.51 131.128 21.2836C131.195 20.5788 131.219 19.9883 131.219 19.5122C131.219 17.5843 130.854 15.8619 130.126 14.3401C129.398 12.8207 128.26 11.6188 126.692 10.7342C125.121 9.84963 123.37 9.39453 121.435 9.39453C119.843 9.39453 118.364 9.69093 116.999 10.2581C115.953 10.6665 114.906 11.2337 113.86 11.9595C112.814 12.662 112.039 13.2969 111.517 13.864C110.833 14.6132 110.218 15.7919 109.672 17.4023C109.127 18.9917 108.853 20.7842 108.853 22.7797C108.853 25.3214 109.378 27.5199 110.4 29.4268C111.426 31.3102 112.858 32.7386 114.7 33.6909C116.542 34.6221 118.614 35.0982 120.889 35.0982C122.05 35.0982 123.141 34.9839 124.187 34.7341C125.234 34.4844 126.168 34.167 126.987 33.8052C127.532 33.5765 128.396 33.0794 129.604 32.3302L130.421 30.47L130.013 30.0383ZM115.611 13.2525C116.795 11.8218 118.387 11.096 120.367 11.096C122.233 11.096 123.71 11.7541 124.826 13.0705C125.941 14.3868 126.509 16.429 126.509 19.2181C126.509 19.4445 126.509 19.7852 126.486 20.217C125.734 20.2847 124.234 20.3291 121.912 20.3291C120.936 20.3291 119.138 20.2847 116.542 20.217C115.18 20.126 114.246 20.0583 113.769 20.0116C113.79 16.9262 114.405 14.6576 115.611 13.2525Z" fill="white"/>
<path fill-rule="evenodd" clip-rule="evenodd" d="M96.9107 31.3545L95.8856 33.0793C94.7035 33.7374 93.519 34.1902 92.3604 34.5076C91.1993 34.8017 89.8792 34.9394 88.4234 34.9394C84.8069 34.9394 81.9161 33.8495 79.779 31.6719C77.6162 29.4943 76.5488 26.4765 76.5488 22.6652C76.5488 20.6464 76.8437 18.9006 77.4126 17.4022C78.0024 15.9061 78.7092 14.7485 79.5519 13.9549C80.1185 13.3878 81.2115 12.6386 82.8032 11.733C84.3973 10.8251 85.5114 10.258 86.1482 9.98491C87.3091 9.48544 88.7206 9.23804 90.3567 9.23804C91.9039 9.23804 93.292 9.39442 94.5443 9.71416C95.3402 9.91721 96.1125 10.258 96.9107 10.7341C96.7048 12.0504 96.5457 13.0704 96.4543 13.7519C96.3631 14.4101 96.2507 15.6564 96.1126 17.4489H94.6122C94.4975 15.7917 94.4062 14.7718 94.2939 14.3634C94.226 14.1137 94.0879 13.8872 93.8374 13.6842C93.2242 13.2057 92.4493 12.7973 91.4733 12.4589C90.516 12.1181 89.4485 11.9361 88.3086 11.9361C86.876 11.9361 85.6262 12.2301 84.5775 12.8206C83.5312 13.4111 82.7142 14.3634 82.1455 15.6564C81.5533 16.9494 81.2794 18.5365 81.2794 20.4433C81.2794 22.8029 81.689 24.9128 82.5083 26.794C83.3276 28.7008 84.4418 30.0615 85.8766 30.9461C87.2857 31.8073 88.8563 32.239 90.6072 32.239C91.4944 32.239 92.337 32.1247 93.1797 31.9216C93.9965 31.6952 95.0663 31.2868 96.3865 30.673L96.9107 31.3545Z" fill="white"/>
<path fill-rule="evenodd" clip-rule="evenodd" d="M44.3546 26.4322H45.8573C45.8783 27.4311 45.9252 28.2247 46.0164 28.7918C46.1077 29.38 46.2435 29.9471 46.4472 30.5143C46.6531 31.0604 46.9715 31.5365 47.4045 31.9216C47.8352 32.3067 48.2916 32.6032 48.7926 32.8062C49.3145 33.0326 49.8154 33.1703 50.3397 33.238C50.8617 33.3057 51.6576 33.35 52.7273 33.35C54.457 33.35 55.8896 32.8739 57.0272 31.945C58.1414 31.0137 58.7102 29.7674 58.7102 28.157C58.7102 27.4311 58.53 26.794 58.1648 26.2502C57.823 25.683 57.3011 25.2746 56.641 24.9571C55.981 24.6397 54.5484 24.2313 52.3644 23.7552C50.1782 23.2557 48.7691 22.8939 48.109 22.6652C47.154 22.3035 46.3792 21.8717 45.8104 21.3512C45.2417 20.8284 44.7875 20.1936 44.4692 19.4C44.1275 18.6065 43.9449 17.7429 43.9449 16.814C43.9449 15.4743 44.3101 14.228 45.0381 13.0937C45.7659 11.9361 46.8801 11.0072 48.4273 10.3023C49.9746 9.5998 51.6576 9.23804 53.4787 9.23804C54.5929 9.23804 55.8451 9.37342 57.3011 9.66749C58.7336 9.96157 59.8946 10.3023 60.8028 10.7341C60.7583 12.6619 60.7349 14.6365 60.7138 16.632H59.2111C59.1199 15.3833 59.0075 14.5454 58.8928 14.1603C58.8014 13.7519 58.6423 13.4111 58.4386 13.0937C58.256 12.7763 57.9377 12.4589 57.4602 12.0948C57.0038 11.754 56.3905 11.4366 55.6625 11.1425C54.9112 10.8695 54.0006 10.7341 52.9333 10.7341C51.4071 10.7341 50.1782 11.1869 49.2466 12.0715C48.3361 12.9793 47.8585 14.0226 47.8585 15.2246C47.8585 15.9061 47.9944 16.4733 48.2682 16.9494C48.542 17.4488 48.8815 17.834 49.3379 18.128C49.7709 18.4244 50.4077 18.6975 51.2035 18.9449L55.4566 20.0115C57.6194 20.5553 59.0964 21.0338 59.9156 21.4189C60.7138 21.8273 61.3739 22.4388 61.8726 23.2557C62.3734 24.0959 62.6005 25.0925 62.6005 26.2735C62.6005 28.5864 61.6454 30.6286 59.7354 32.3534C57.823 34.0759 55.253 34.9394 52.0461 34.9394C50.5668 34.9394 48.61 34.713 46.1521 34.2579C44.7875 34.0082 44.0595 33.8261 43.9683 33.7141C43.9004 33.6674 43.8536 33.5764 43.8536 33.4644C43.8536 33.35 43.877 33.1913 43.9004 33.0116C44.0595 32.2857 44.172 31.5575 44.2187 30.855C44.2866 30.1525 44.3311 28.6775 44.3546 26.4322Z" fill="white"/>
<path fill-rule="evenodd" clip-rule="evenodd" d="M8.11312 28.4511C8.54372 29.5177 9.18274 30.5609 10.0232 31.5809C10.8658 32.6031 11.9566 33.4644 13.3236 34.1225C14.6648 34.8017 16.3267 35.1425 18.2812 35.1425C20.7857 35.1425 23.082 34.5543 25.1746 33.35C27.2461 32.1714 28.8613 30.5376 29.9988 28.4511C31.1365 26.3412 31.7286 24.0492 31.7286 21.5099C31.7286 17.9016 30.6145 14.9539 28.3838 12.6619C26.1765 10.37 23.288 9.23804 19.7606 9.23804C16.0083 9.23804 12.935 10.461 10.5475 12.9117C8.13643 15.3623 6.95203 18.5155 6.95203 22.3945C6.95203 24.5487 7.33827 26.5676 8.11312 28.4511ZM13.6185 13.2758C14.9152 11.7097 16.6217 10.9371 18.7143 10.9371C20.1936 10.9371 21.5582 11.3456 22.7871 12.1858C24.016 13.0027 25.0154 14.4311 25.8137 16.4499C26.6095 18.4688 26.9957 20.8517 26.9957 23.6198C26.9957 26.9527 26.3357 29.4266 24.9944 31.0371C23.6742 32.6475 22.0123 33.441 20.0344 33.441C18.4872 33.441 17.0547 32.9206 15.7345 31.8983C14.391 30.8784 13.3914 29.2679 12.7079 27.067C12.0033 24.8451 11.6616 22.6652 11.6616 20.511C11.6616 17.2458 12.2984 14.8162 13.6185 13.2758Z" fill="white"/>
</svg>
