<!-- Generated by IcoMoon.io -->
<svg version="1.1" xmlns="http://www.w3.org/2000/svg" width="24" height="24" viewBox="0 0 24 24">
<title>pinterest</title>
<path fill="currentColor" d="M12.3 5.599c-3.494 0-5.256 2.505-5.256 4.594 0 1.265 0.479 2.391 1.506 2.81 0.168 0.069 0.319 0.003 0.368-0.184 0.034-0.129 0.115-0.455 0.15-0.591 0.049-0.184 0.030-0.249-0.105-0.409-0.297-0.35-0.486-0.802-0.486-1.442 0-1.858 1.391-3.522 3.621-3.522 1.974 0 3.060 1.206 3.060 2.818 0 2.12-0.939 3.91-2.332 3.91-0.769 0-1.344-0.636-1.16-1.417 0.221-0.932 0.649-1.937 0.649-2.609 0-0.602-0.323-1.104-0.992-1.104-0.786 0-1.417 0.813-1.417 1.903 0 0.694 0.235 1.164 0.235 1.164s-0.805 3.41-0.946 4.008c-0.281 1.188-0.042 2.647-0.022 2.795 0.012 0.087 0.124 0.107 0.175 0.041 0.072-0.093 1.009-1.25 1.328-2.406 0.090-0.327 0.517-2.021 0.517-2.021 0.256 0.486 1.002 0.916 1.797 0.916 2.365 0 3.967-2.155 3.967-5.040-0.002-2.183-1.85-4.214-4.657-4.214z"></path>
</svg>
