<!-- Generated by IcoMoon.io -->
<svg version="1.1" xmlns="http://www.w3.org/2000/svg" width="24" height="24" viewBox="0 0 24 24">
<title>print_img</title>
<path fill="currentColor" d="M9.403 15.464h4.329v0.866h-4.329v-0.866z"></path>
<path fill="currentColor" d="M8.537 5.938h6.927v1.732h0.866v-1.732c0-0.478-0.387-0.866-0.866-0.866h-6.927c-0.478 0-0.866 0.388-0.866 0.866v1.732h0.866v-1.732z"></path>
<path fill="currentColor" d="M9.403 13.732h5.195v0.866h-5.195v-0.866z"></path>
<path fill="currentColor" d="M18.062 8.536h-12.123c-0.478 0-0.866 0.388-0.866 0.866v5.196c0 0.479 0.388 0.866 0.866 0.866h1.732v2.598c0 0.479 0.388 0.866 0.866 0.866h6.927c0.479 0 0.866-0.387 0.866-0.866v-2.598h1.732c0.479 0 0.866-0.387 0.866-0.866v-5.196c-0-0.478-0.387-0.866-0.866-0.866zM15.464 18.062h-6.927v-5.196h6.927v5.196zM17.196 11.134c-0.479 0-0.866-0.387-0.866-0.866s0.387-0.866 0.866-0.866c0.479 0 0.866 0.388 0.866 0.866s-0.388 0.866-0.866 0.866z"></path>
<path fill="currentColor" d="M12 0h0v0.003c3.315 0 6.315 1.342 8.485 3.512s3.512 5.169 3.512 8.484h0.003v0.001h-0.003c0 3.315-1.342 6.315-3.512 8.484s-5.169 3.512-8.484 3.512v0.003h-0.001v-0.003c-3.315 0-6.315-1.342-8.485-3.512s-3.512-5.169-3.512-8.484h-0.003v-0.001h0.003c0-3.315 1.342-6.315 3.512-8.485s5.169-3.512 8.484-3.512v-0.003h0.001zM12 1.525v0.003h-0.001v-0.003c-2.889 0-5.506 1.174-7.403 3.070s-3.071 4.515-3.071 7.404h0.003v0.001h-0.003c0 2.889 1.174 5.507 3.070 7.403s4.515 3.070 7.404 3.070v-0.003h0.001v0.003c2.889 0 5.507-1.174 7.403-3.070s3.071-4.515 3.071-7.404h-0.003v-0.001h0.003c-0-2.889-1.174-5.507-3.070-7.403s-4.515-3.071-7.404-3.071z"></path>
</svg>
