<!-- Generated by IcoMoon.io -->
<svg version="1.1" xmlns="http://www.w3.org/2000/svg" width="24" height="24" viewBox="0 0 24 24">
<title>raster</title>
<path fill="currentColor" d="M12.020 1.466v0.002h-0.003v-0.002c-2.91 0-5.548 1.182-7.458 3.093s-3.093 4.548-3.093 7.46h0.002v0.003h-0.002c0 2.91 1.182 5.548 3.093 7.458s4.548 3.093 7.46 3.093v-0.002h0.003v0.002c2.91-0 5.548-1.182 7.458-3.093s3.093-4.549 3.093-7.46h-0.002v-0.003h0.002c-0-2.91-1.182-5.548-3.093-7.458s-4.549-3.093-7.459-3.093zM12.019 0.264h0.001v0.002c3.247 0 6.186 1.315 8.311 3.441s3.44 5.064 3.441 8.31h0.002v0.003h-0.002c-0 3.247-1.315 6.186-3.441 8.311s-5.064 3.44-8.31 3.441v0.002h-0.003v-0.002c-3.247-0-6.186-1.315-8.311-3.441s-3.44-5.064-3.441-8.31h-0.002v-0.003h0.002c0-3.247 1.316-6.186 3.441-8.311s5.064-3.44 8.31-3.441v-0.002h0.002z"></path>
<path fill="currentColor" d="M3.316 8.433h17.784v1.205h-17.784v-1.205z"></path>
<path fill="currentColor" d="M9.603 3.541l0.048 17.35h-1.2l-0.048-17.35z"></path>
<path fill="currentColor" d="M16.013 3.541l0.048 17.35h-1.2l-0.048-17.35z"></path>
<path fill="currentColor" d="M3.316 14.795h17.784v1.205h-17.784v-1.205z"></path>
<path fill="currentColor" d="M6.408 8.45l2.027-1.941 0.294 0.306-2.027 1.941z"></path>
<path fill="currentColor" d="M4.724 8.538l3.71-3.666 0.297 0.302-3.71 3.666z"></path>
<path fill="currentColor" d="M3.948 7.546l3.571-3.505 0.297 0.302-3.571 3.505z"></path>
<path fill="currentColor" d="M18.047 15.959l-2.027 1.941-0.294-0.306 2.027-1.941z"></path>
<path fill="currentColor" d="M19.731 15.871l-3.71 3.667-0.297-0.302 3.71-3.666z"></path>
<path fill="currentColor" d="M20.507 16.863l-3.499 3.455-0.297-0.302 3.499-3.455z"></path>
<path fill="currentColor" d="M13.303 9.66l-3.71 3.666-0.297-0.302 3.71-3.666z"></path>
<path fill="currentColor" d="M12.527 8.797l-3.71 3.666-0.297-0.302 3.71-3.666z"></path>
<path fill="currentColor" d="M15.073 9.745l-5.435 5.392-0.299-0.301 5.435-5.392z"></path>
<path fill="currentColor" d="M15.174 11.405l-3.71 3.667-0.297-0.302 3.71-3.666z"></path>
<path fill="currentColor" d="M15.846 12.337l-3.405 3.362-0.297-0.302 3.405-3.362z"></path>
<path fill="currentColor" d="M15.422 8.667l3.304-3.24 0.297 0.302-3.304 3.24z"></path>
<path fill="currentColor" d="M19.905 6.726l-2.459 2.459-0.301-0.301 2.459-2.459 0.301 0.301z"></path>
<path fill="currentColor" d="M20.768 7.588l-1.898 1.898-0.3-0.3 1.898-1.898 0.3 0.3z"></path>
<path fill="currentColor" d="M18.223 4.914l-2.502 2.502-0.301-0.301 2.502-2.502 0.301 0.301z"></path>
<path fill="currentColor" d="M15.203 5.694l1.769-1.812 0.304 0.296-1.769 1.812z"></path>
<path fill="currentColor" d="M5.633 18.585l3.276-3.189 0.296 0.304-3.276 3.189-0.296-0.304z"></path>
<path fill="currentColor" d="M4.723 17.64l2.459-2.459 0.3 0.3-2.459 2.459-0.3-0.3z"></path>
<path fill="currentColor" d="M3.86 16.777l1.898-1.898 0.301 0.301-1.898 1.898-0.301-0.301z"></path>
<path fill="currentColor" d="M6.405 19.452l2.502-2.502 0.301 0.301-2.502 2.502-0.301-0.301z"></path>
<path fill="currentColor" d="M9.425 18.671l-1.769 1.812-0.304-0.296 1.769-1.812z"></path>
</svg>
