<svg id="icon" width="25" height="25" viewBox="0 0 25 25" fill="none" xmlns="http://www.w3.org/2000/svg">
<path d="M4.9582 19.9766C2.64225 17.6607 1.48428 16.5027 0.949192 15.2109C0.235686 13.4884 0.235686 11.5531 0.949192 9.83057C1.48428 8.5388 2.64225 7.38083 4.9582 5.06489C7.27414 2.74894 8.43211 1.59097 9.72388 1.05588C11.4464 0.342376 13.3818 0.342376 15.1042 1.05588C16.396 1.59097 17.554 2.74894 19.8699 5.06489C22.1859 7.38083 23.3438 8.5388 23.8789 9.83057C24.5924 11.5531 24.5924 13.4884 23.8789 15.2109C23.3438 16.5027 22.1859 17.6607 19.8699 19.9766C17.554 22.2926 16.396 23.4505 15.1042 23.9856C13.3818 24.6991 11.4464 24.6991 9.72388 23.9856C8.43211 23.4505 7.27414 22.2926 4.9582 19.9766Z" fill="currentColor"/>
</svg>
