<!-- Generated by IcoMoon.io -->
<svg version="1.1" xmlns="http://www.w3.org/2000/svg" width="24" height="24" viewBox="0 0 24 24">
<title>settings</title>
<path fill="currentColor" d="M20.3 13.9c-1-1.9-0.3-4.1 1.5-5.3l-2-3.4c-0.6 0.3-1.2 0.6-2 0.6-2.1 0-3.8-1.8-3.8-3.8h-4c0 0.7-0.1 1.4-0.5 2-1.1 1.7-3.5 2.3-5.3 1.2l-2 3.4c0.6 0.3 1 0.8 1.4 1.5 1 1.9 0.5 4.2-1.4 5.3l2 3.4c0.6-0.3 1.2-0.6 2-0.6 2.1 0 3.8 1.8 3.8 3.8h4c0-0.7 0.1-1.4 0.5-2 1-1.9 3.4-2.5 5.3-1.4l2-3.4c-0.6-0.1-1.2-0.6-1.5-1.3v0zM11.9 16c-2.2 0-4-1.9-4-4.1s1.8-4.1 4-4.1 4.1 1.9 4.1 4.1-1.8 4.1-4.1 4.1z"></path>
</svg>
