<svg id="icon" width="51" height="51" viewBox="0 0 51 51" fill="none" xmlns="http://www.w3.org/2000/svg">
<path fill-rule="evenodd" clip-rule="evenodd" d="M50.2546 25.9306C50.2546 39.7378 39.0617 50.9306 25.2546 50.9306C11.4475 50.9306 0.254608 39.7378 0.254608 25.9306C0.254608 12.1235 11.4475 0.930634 25.2546 0.930634C39.0617 0.930634 50.2546 12.1235 50.2546 25.9306ZM34.2227 23.3335C36.3953 23.3335 38.1566 21.5722 38.1566 19.3996C38.1566 17.2269 36.3953 15.4656 34.2227 15.4656C32.0501 15.4656 30.2888 17.2269 30.2888 19.3996C30.2888 21.5722 32.0501 23.3335 34.2227 23.3335ZM20.6224 19.3996C20.6224 21.5722 18.8612 23.3335 16.6885 23.3335C14.5159 23.3335 12.7546 21.5722 12.7546 19.3996C12.7546 17.2269 14.5159 15.4656 16.6885 15.4656C18.8612 15.4656 20.6224 17.2269 20.6224 19.3996ZM25.255 39.743C19.27 39.743 14.1337 36.1088 11.9327 30.9267H16.364C18.2336 33.862 21.5169 35.8091 25.255 35.8091C28.9931 35.8091 32.2764 33.862 34.1461 30.9267H38.5774C36.3763 36.1088 31.2401 39.743 25.255 39.743Z" fill="currentColor"/>
</svg>
