<!-- Generated by IcoMoon.io -->
<svg version="1.1" xmlns="http://www.w3.org/2000/svg" width="24" height="24" viewBox="0 0 24 24">
<title>square</title>
<path fill="currentColor" d="M5.9 16.1c0.9 0.3 1.7 1 2 2h8.3c0.3-0.9 1-1.7 2-2v-8.3c-0.9-0.3-1.7-1-2-2h-8.4c-0.3 0.9-1 1.7-2 2l0.1 8.3zM7.8 19.8c-0.3 1.2-1.5 2.1-2.8 2.1-1.6 0-3-1.3-3-3 0-1.3 0.9-2.5 2.1-2.9v-8.2c-1.2-0.3-2.1-1.5-2.1-2.8 0-1.6 1.3-3 3-3 1.3 0 2.5 0.9 2.9 2.1h8.3c0.3-1.2 1.5-2.1 2.8-2.1 1.6 0 3 1.3 3 3 0 1.3-0.9 2.5-2.1 2.9v8.3c1.2 0.4 2.1 1.5 2.1 2.9 0 1.6-1.3 3-3 3-1.3 0-2.5-0.9-2.9-2.1 0.1-0.2-8.3-0.2-8.3-0.2z"></path>
</svg>
