<svg width="188" height="167" viewBox="0 0 188 167" fill="none" xmlns="http://www.w3.org/2000/svg">
<path fill-rule="evenodd" clip-rule="evenodd" d="M45.4856 32.9478C46.034 37.9615 46.8912 43.5079 48.2515 49L56.5178 49C55.0217 43.508 54.0478 37.6514 53.4382 32.078C52.7874 26.1284 52.5722 20.7207 52.5204 16.7992C52.508 15.8551 52.505 14.9987 52.5076 14.2433L89.1185 24.0532L102.664 49L111.767 49L99.7716 26.9077L175.459 47.188L168.656 72.5761C166.435 72.2355 163.836 71.8948 161.029 71.6369L161 71.6342L161 79.6702C163.004 79.8672 164.886 80.1069 166.572 80.3533L161 101.149L161 139.786L186.153 45.9125C187.011 42.7117 185.112 39.4217 181.911 38.564L43.7833 1.55291C40.5826 0.695263 37.2925 2.59476 36.4349 5.79555L24.8583 49L35.211 49L44.5074 14.3057C44.5051 15.0808 44.5085 15.9513 44.5211 16.9049C44.5753 21.0092 44.8002 26.6813 45.4856 32.9478Z" fill="#333359"/>
<path fill-rule="evenodd" clip-rule="evenodd" d="M10 157V67.1308C10.1985 67.8801 10.427 68.72 10.686 69.6379C11.8007 73.5884 13.4859 79.009 15.7699 84.8846C20.2507 96.4117 27.3541 110.552 37.6071 118.205C39.5963 119.69 41.6348 120.838 43.6959 121.72L26.0558 157H10ZM35 157L51.5358 123.928C56.7865 124.751 61.9669 124.448 66.6459 124.174C67.1034 124.147 67.5561 124.121 68.0036 124.096C77.5481 123.559 84.9422 123.565 91.1637 129.821C95.9358 134.619 99.4416 143.085 101.765 150.932C102.406 153.097 102.941 155.158 103.379 157H35ZM30 167L6 167C2.6863 167 0 164.314 0 161V61C0 57.6863 2.68629 55 6 55H149C152.314 55 155 57.6863 155 61V161C155 164.314 152.314 167 149 167L30 167ZM142.92 157H111.587C111.057 154.614 110.348 151.741 109.436 148.661C107.29 141.414 103.848 132.396 98.555 126.068C99.5889 124.803 101.006 123.116 102.702 121.219C103.656 120.15 104.692 119.023 105.79 117.873L142.92 157ZM145 147.57L111.51 112.279C113.104 110.837 114.752 109.449 116.415 108.188C121.838 104.081 130.694 101.619 138.745 100.235C140.988 99.8494 143.111 99.5566 145 99.3352V147.57ZM106.002 106.475C107.794 104.847 109.669 103.262 111.585 101.811C118.651 96.4591 129.178 93.7617 137.39 92.3505C140.168 91.8731 142.766 91.5296 145 91.2837V65H66.6428L106.002 106.475ZM100.276 112.064L55.6139 65H17.7115C17.9045 65.7303 18.129 66.5568 18.3854 67.4655C19.4504 71.2399 21.0579 76.4076 23.2263 81.9861C27.6503 93.367 34.0905 105.597 42.3925 111.795C49.5342 117.126 57.4659 116.678 66.9492 116.142L67.5548 116.108C75.4633 115.664 84.5462 115.26 92.6224 120.686C93.689 119.389 95.0884 117.733 96.736 115.888C97.8101 114.686 98.9983 113.395 100.276 112.064Z" fill="#333359"/>
</svg>
