<svg id="surfline" width="184" height="33" viewBox="0 0 184 33" fill="none" xmlns="http://www.w3.org/2000/svg">
<path fill-rule="evenodd" clip-rule="evenodd" d="M105.419 1.20311C107.691 0.7262 110.021 1.00532 112.3 1.2651C112.219 3.82763 111.474 6.29707 111.25 8.84018C110.567 8.58819 109.807 8.17719 109.129 8.6696C107.919 9.15411 107.71 10.542 107.629 11.6779C108.664 11.5809 109.695 11.4608 110.73 11.3328C110.412 13.8139 109.92 16.2679 109.606 18.749C108.61 18.745 107.621 18.683 106.632 18.6171C105.931 22.5674 105.369 26.5411 104.737 30.5031C101.616 30.4874 98.4952 30.4914 95.3745 30.4991C95.9017 26.5294 96.6499 22.5869 97.2004 18.6171C96.3475 18.6792 95.4985 18.7373 94.6496 18.7955C95.0683 16.3067 95.514 13.8256 95.8048 11.3173C96.619 11.4221 97.433 11.5344 98.251 11.643C98.7317 9.72402 98.8208 7.68489 99.7203 5.88994C100.744 3.54071 102.903 1.72642 105.419 1.20311ZM114.843 1.16818C117.979 1.17597 121.12 1.16434 124.26 1.17597C122.635 10.9374 121.112 20.7145 119.612 30.4991C116.475 30.4952 113.347 30.4874 110.215 30.5031C111.722 20.7183 113.289 10.9452 114.843 1.16818ZM131.276 0.989815C133.184 0.753337 135.572 1.07906 136.526 2.99026C137.39 5.19993 136.444 7.96785 134.339 9.10379C132.769 10.0962 130.796 10.0109 129.036 9.72402C127.039 9.27433 125.934 7.00259 126.551 5.10685C126.962 2.8507 129.059 1.22245 131.276 0.989815ZM39.748 3.59115C44.0627 2.11409 49.0636 2.66454 52.8705 5.2116C51.5951 7.53753 50.312 9.86358 49.083 12.2168C47.2648 11.0188 45.1559 9.88293 42.9036 10.2358C42.0817 10.3675 41.1241 10.9955 41.256 11.9493C41.6321 12.7479 42.6748 12.6781 43.3997 12.9688C45.8576 13.5038 48.6333 14.062 50.2382 16.2019C51.7153 18.2256 51.4284 20.9431 50.7112 23.1994C49.4358 26.7543 46.1406 29.2625 42.5857 30.2588C37.6778 31.8289 32.2815 30.7317 27.7573 28.5104C29.0134 25.8626 30.6183 23.3971 31.9015 20.7571C33.3708 21.7456 34.7431 22.9939 36.5341 23.3738C38.1004 23.808 40.4225 23.7344 41.0777 21.9317C41.0467 20.9198 39.9224 20.6447 39.1122 20.5438C36.5419 20.1601 33.6267 19.6018 32.0024 17.3534C30.5447 15.3026 30.9402 12.5966 31.8317 10.4025C33.2468 7.07621 36.3443 4.65336 39.748 3.59115ZM90.1642 11.4724C91.4552 10.8212 92.9244 10.8405 94.3317 10.8328C93.8045 14.0311 93.3548 17.241 92.7849 20.4276C91.8157 19.6987 90.645 19.1405 89.4005 19.4041C87.6095 19.4894 86.2294 21.0865 85.9541 22.7846C85.613 25.3548 85.0083 27.8863 84.8066 30.4798C81.6472 30.5148 78.4838 30.4837 75.3243 30.5031C76.3516 24.0988 77.4216 17.7023 78.3442 11.2863C81.4882 11.2785 84.6323 11.2708 87.7762 11.2863C87.5785 12.178 87.3614 13.0658 87.1327 13.9496C88.0515 13.027 88.9237 11.9725 90.1642 11.4724ZM146.899 14.4574C148.555 12.7789 150.485 11.0305 152.967 10.8676C155.11 10.6235 157.677 11.3444 158.654 13.4378C159.898 15.8104 159.27 18.5551 158.782 21.0401C158.413 24.2073 157.727 27.3203 157.351 30.4874C154.203 30.4874 151.059 30.5262 147.915 30.4644C148.256 28.0374 148.807 25.6417 149.055 23.1994C149.171 21.8851 149.772 20.5865 149.505 19.2568C149.229 18.3768 148.094 18.4117 147.392 18.6908C146.175 19.8345 146.368 21.6603 146.07 23.1683C145.523 25.5913 145.391 28.0802 144.864 30.5069C141.751 30.4837 138.642 30.4991 135.533 30.4991C136.432 24.0833 137.596 17.7023 138.51 11.2863C141.573 11.263 144.636 11.3057 147.702 11.2592C147.404 12.3175 147.117 13.3797 146.899 14.4574ZM164.759 13.9496C167.485 11.6159 171.191 10.5537 174.746 10.8948C177.525 11.1584 180.375 12.302 182.069 14.6203C183.658 16.8649 184.034 19.8615 183.282 22.4899C178.785 22.459 174.284 22.4861 169.787 22.4705C169.803 23.5095 169.388 25.1378 170.648 25.6106C171.904 26.1031 173.079 25.2153 173.606 24.1221C176.638 24.06 179.673 24.0949 182.708 24.1104C181.371 27.2427 178.374 29.3826 175.164 30.2936C171.59 31.4567 167.504 31.2126 164.197 29.3826C162.069 28.1965 160.712 25.8898 160.584 23.4707C160.441 19.8926 161.988 16.2446 164.759 13.9496ZM170.4 18.5125C171.858 18.5241 173.315 18.5163 174.773 18.5202C174.819 17.3688 174.145 15.8957 172.788 16.0276C171.435 16.0547 170.675 17.3379 170.4 18.5125ZM54.3321 11.2747C57.4024 11.2863 60.4766 11.2825 63.5508 11.2785C63.1244 14.9925 62.2521 18.6482 61.9342 22.3776C61.942 24.0213 64.6401 23.7266 64.8301 22.3038C65.5667 18.683 66.1365 15.0118 66.563 11.3444C69.7069 11.201 72.8587 11.3173 76.0066 11.2825C75.3243 15.0738 74.8242 18.8924 74.1807 22.6838C73.5953 25.696 71.436 28.2313 68.6835 29.5183C64.8689 31.2938 60.2556 31.5846 56.3789 29.8208C54.2312 28.8438 52.5255 26.7116 52.4751 24.2926C52.3666 21.4278 53.2543 18.6482 53.5567 15.8182C53.7118 14.2869 54.0801 12.7905 54.3321 11.2747ZM126.066 11.2785C129.171 11.2825 132.281 11.2863 135.386 11.2747C134.417 17.6906 133.42 24.1026 132.327 30.4991C129.21 30.4914 126.097 30.4914 122.98 30.4991C124.031 24.0949 124.965 17.6751 126.066 11.2785Z" fill="#6B7C93"/>
<path fill-rule="evenodd" clip-rule="evenodd" d="M9.96836 3.35213C10.6485 2.53775 11.2871 1.68636 12.0251 0.922852C14.8477 4.28911 17.6008 7.71786 20.1875 11.2669C21.7398 13.4371 23.2922 15.7529 23.7017 18.4459C24.1876 20.5652 23.8406 22.7885 23.1026 24.806C21.7283 28.4313 18.4684 31.3094 14.6626 32.1191C11.8586 32.7901 8.81157 32.3598 6.28975 30.9693C3.22661 29.3082 0.947712 26.2311 0.341484 22.7908C-0.384911 19.5356 0.56361 16.0768 2.40527 13.3514C4.69571 9.85327 7.3424 6.60269 9.96836 3.35213ZM9.3483 13.2635C6.89586 14.1427 4.96867 16.3498 4.45739 18.9087C4.29088 19.7184 4.08724 20.6415 4.53381 21.3981C5.00809 22.3327 6.31749 22.6937 7.20363 22.1338C7.97172 21.7706 8.2239 20.8428 8.2239 20.0585C8.32107 16.801 10.8522 13.9067 13.9708 13.1062C12.4786 12.5833 10.8243 12.7661 9.3483 13.2635ZM16.3839 19.2395C15.9096 19.6999 15.7847 20.3778 15.78 21.014C15.6829 24.2738 13.1287 27.1774 9.99839 27.9479C13.8227 29.1902 18.2833 26.673 19.3661 22.8325C19.6391 21.7613 20.0463 20.4935 19.3777 19.487C18.7507 18.4968 17.1751 18.3788 16.3839 19.2395Z" fill="#6B7C93"/>
</svg>
