<svg id="thales" width="231" height="27" viewBox="0 0 231 27" fill="none" xmlns="http://www.w3.org/2000/svg">
<g clip-path="url(#clip0_1125_1855)">
<path d="M230.551 19.8873C230.551 23.5029 229.474 24.569 226.527 25.4376C223.333 26.3839 217.664 26.9684 214.288 26.9684C210.293 26.9684 205.315 26.7121 201.067 25.7625V21.5818H224.501V15.9007H207.916C202.929 15.9007 201.073 14.5599 201.073 9.80246V7.3205C201.073 3.57093 202.209 2.43931 205.324 1.65176C208.46 0.858854 213.599 0.348145 216.952 0.348145C221.026 0.348145 225.921 0.657339 230.181 1.5788V5.76084H207.122V10.5651H223.71C228.695 10.5651 230.551 11.8783 230.551 16.6358V19.8873Z" fill="#6B7C92"/>
<path d="M190.584 25.768C185.727 26.7089 180.836 26.9684 176.103 26.9684C171.369 26.9684 166.389 26.7089 161.53 25.768V1.5788C166.389 0.637886 171.309 0.348145 176.043 0.348145C180.78 0.348145 185.612 0.637886 190.469 1.5788V5.89437H168.528V10.7275H182.814V15.7465H168.528V21.4524H190.584V25.768Z" fill="#6B7C92"/>
<path d="M153.154 25.7672C148.795 26.7116 144.4 26.9675 140.177 26.9675C135.955 26.9675 131.47 26.7116 127.112 25.7672V0.94751H134.106V21.1336H153.154V25.7672Z" fill="#6B7C92"/>
<path d="M118.724 25.9186C116.396 26.5724 113.317 26.8049 111.023 26.8437L100.254 5.59076H99.6512L88.884 26.8437C86.5879 26.8049 83.8842 26.5724 81.5576 25.9186L95.1944 0.959961H104.918L118.724 25.9186Z" fill="#6B7C92"/>
<path d="M104.515 19.5756C104.515 22.0178 102.457 23.9999 99.9576 23.9999C97.4542 23.9999 95.4307 22.0142 95.4307 19.5756C95.4307 17.1351 97.4597 15.1541 99.9576 15.1541C102.452 15.1541 104.515 17.1299 104.515 19.5756Z" fill="#AEB6C7"/>
<path d="M73.1259 25.9478C70.8931 26.5751 68.5035 26.8035 66.13 26.844V16.0007H48.7543V26.844C46.3789 26.8035 43.9926 26.5751 41.7598 25.9478V1.42551C43.9926 0.796405 46.3789 0.569041 48.7543 0.526611V10.9913H66.13V0.526611C68.5035 0.569041 70.8895 0.796405 73.1259 1.42551V25.9478Z" fill="#6B7C92"/>
<path d="M32.0147 5.95775H19.7465V26.4095H12.821V5.95775H0.552734V1.59125C5.83536 0.652029 11.1417 0.360596 16.2999 0.360596C21.451 0.360596 26.7428 0.653861 32.0147 1.59125V5.95775Z" fill="#6B7C92"/>
</g>
<defs>
<clipPath id="clip0_1125_1855">
<rect width="230" height="26" fill="white" transform="translate(0.459473 0.905518)"/>
</clipPath>
</defs>
</svg>
