<svg id="trimble" width="155" height="37" viewBox="0 0 155 37" fill="none" xmlns="http://www.w3.org/2000/svg">
<path d="M3.44838 27.3327C3.22819 27.0697 3.03333 26.821 2.85116 26.5707V36.4496L11.168 31.9442C10.8638 31.8777 10.5565 31.8032 10.2444 31.7129C6.51849 30.6357 4.24838 28.2895 3.44838 27.3327ZM25.7835 22.2808C25.5965 22.4931 25.3969 22.6959 25.1894 22.8891C25.2147 23.1188 25.2322 23.3438 25.2448 23.5656C25.4334 23.1727 25.6171 22.745 25.7835 22.2808ZM5.38898 18.5311C5.02938 17.907 4.72363 17.2511 4.48442 16.5715C3.81749 14.6689 3.71135 12.7569 4.14858 10.9905C3.82858 11.4436 3.51967 11.9378 3.2472 12.4828C3.2472 12.4842 3.2472 12.4842 3.2472 12.4842C3.09195 12.7883 2.9668 13.0719 2.85116 13.3444V22.504C3.36442 21.2129 4.24046 19.8584 5.38898 18.5309M19.2425 23.6859C20.768 23.472 22.1082 22.9397 23.206 22.1508C22.9336 20.8518 22.4187 19.4609 21.6916 18.0637C20.993 18.4534 20.1993 18.7259 19.328 18.8478C16.391 19.2566 13.2781 17.8799 11.4531 15.6035C10.0654 16.5746 8.79017 17.6423 7.70661 18.7385C10.2729 22.1825 14.8892 24.2942 19.2425 23.6859ZM22.2143 15.1347C22.8116 14.1509 22.905 12.9406 22.4773 11.7208C22.4773 11.7194 22.4773 11.7194 22.4773 11.7194C22.4425 11.6149 22.3949 11.5135 22.3522 11.4105C21.511 11.3947 20.524 11.5246 19.4421 11.7955C20.4718 12.8806 21.3811 14.0323 22.1573 15.2125C22.1763 15.1856 22.1953 15.1602 22.2143 15.1349M6.94938 5.97348C7.91888 5.43646 8.84245 4.92795 10.4916 4.47805L2.85116 0.341797V9.67725C4.60957 7.32477 6.66265 6.13348 6.94938 5.97348ZM19.0745 17.0373C19.7066 16.9485 20.2785 16.7569 20.7791 16.4812C19.8682 15.0491 18.7514 13.6582 17.4682 12.4068C17.2496 12.486 17.031 12.5699 16.8092 12.6602C15.507 13.1862 14.2143 13.8499 12.9803 14.6056C14.4139 16.3244 16.8092 17.3541 19.0745 17.0373ZM11.949 12.8234C11.9743 12.8931 12.006 12.9596 12.0329 13.0277C13.2844 12.2721 14.5961 11.5988 15.9379 11.0428C14.8211 10.1398 13.69 9.4222 12.5985 8.89942C12.4575 9.05941 12.3244 9.22733 12.2135 9.40952C11.6147 10.3917 11.5213 11.602 11.949 12.8218V12.8232M6.70859 17.1227C7.81908 16.036 9.09433 14.9904 10.4725 14.0368C10.3823 13.8372 10.2967 13.636 10.2238 13.4284C10.2238 13.4271 10.2238 13.4271 10.2238 13.4284C9.61235 11.6843 9.76601 9.91794 10.6547 8.4621C10.707 8.37498 10.7688 8.29735 10.8258 8.21338C9.81195 7.91874 8.8678 7.82209 8.04403 7.9409C7.53393 8.39873 7.08403 8.91834 6.72443 9.50922C6.05274 10.6086 5.71373 11.8617 5.71373 13.1718C5.71373 14.0875 5.87849 15.0284 6.20957 15.9726C6.3474 16.3671 6.52166 16.752 6.70859 17.1275M19.4943 25.495C14.6278 26.1746 9.46502 23.8918 6.45987 20.1104C5.33037 21.476 4.54462 22.8399 4.26264 24.0518C4.15017 24.5286 4.12957 24.9485 4.18502 25.3144C4.38304 25.5853 4.60007 25.8609 4.84878 26.1587C5.54423 26.9904 7.50859 29.0213 10.7514 29.9591C11.8967 30.2902 12.9739 30.4249 13.9355 30.4439L23.3074 25.3667C23.3803 24.996 23.4231 24.5999 23.4262 24.1865C22.273 24.8455 20.9486 25.2922 19.4943 25.495ZM15.3518 7.50536C14.9969 7.55764 14.6595 7.63844 14.3427 7.74775C15.5324 8.41626 16.7395 9.28122 17.9149 10.3252C18.7355 10.0717 19.5181 9.88794 20.2579 9.76913L15.987 7.45626C15.7763 7.45626 15.5625 7.47845 15.3518 7.50536ZM27.4136 23.1442L36.1819 18.3965L27.648 13.7723C28.8472 17.5204 28.3181 20.7616 27.4136 23.1442ZM12.6856 5.91011C12.6413 5.91011 12.5985 5.91011 12.5557 5.91011C11.9426 5.99883 11.3613 6.13981 10.81 6.32992C11.2852 6.43923 11.7684 6.5913 12.2595 6.77507C12.6428 6.51052 13.0658 6.29189 13.5157 6.1129L13.0674 5.8721C12.9423 5.88794 12.8108 5.88794 12.6856 5.90694M23.7732 16.0852C23.5957 16.3751 23.3882 16.638 23.1664 16.8883C23.8524 18.1541 24.3831 19.4262 24.7379 20.6618C24.8789 20.4749 25.0167 20.2864 25.1403 20.0852C26.254 18.2571 26.4472 16.0234 25.7042 13.7771C25.6536 13.7058 25.6092 13.6297 25.5775 13.5458C25.5126 13.3573 25.4286 13.1719 25.351 12.9866C25.2654 12.9073 25.1957 12.8091 25.1482 12.6982C25.0738 12.5367 24.9803 12.3925 24.8646 12.2658L24.4448 12.0376C24.7284 13.4729 24.505 14.8844 23.7732 16.0852ZM2.76086 22.7244C2.36165 21.739 2.07333 20.5129 2.01789 20.0377C1.8864 18.9002 1.8864 18.9002 1.87531 17.7771C1.87215 17.427 1.91175 16.9153 1.97353 16.5319C2.11611 15.6527 2.28403 14.6737 2.85116 13.3446V9.67725C2.40918 10.2666 1.9862 10.924 1.61551 11.6606C0.585807 13.7026 0.346598 15.1679 0.169172 16.2373C0.0915484 16.7299 0.0424391 17.3414 0.0471917 17.7961C0.0598666 19.0032 0.0598665 19.027 0.204023 20.2483C0.289568 20.985 0.695113 22.6341 1.2369 23.8048C1.6567 24.7204 2.04482 25.4286 2.5169 26.1161C2.5565 26.1905 2.60244 26.2571 2.65789 26.3157C2.71809 26.4012 2.78621 26.4852 2.85116 26.5707V22.5042C2.82106 22.5786 2.7862 22.6515 2.76086 22.7244ZM13.6013 5.82616C13.6979 5.82616 13.8009 5.82616 13.9023 5.82616C14.086 5.82616 14.2682 5.82372 14.452 5.8286C14.1256 5.90304 13.8151 6.00759 13.5157 6.12482L15.987 7.46503C17.9229 7.40325 19.8761 8.26662 21.1878 9.65592C20.8852 9.68444 20.5747 9.72721 20.2579 9.7779L24.4448 12.0464C24.4338 12.0005 24.429 11.953 24.4195 11.9054C24.5922 12.0132 24.7395 12.1335 24.8646 12.2745L27.648 13.7811C27.6116 13.6749 27.5846 13.5704 27.5498 13.4642C27.5276 13.404 27.5007 13.347 27.4658 13.29C27.4373 13.2013 27.4136 13.1141 27.3819 13.0254C26.5787 10.7379 25.0421 8.72918 23.0904 7.19098C23.0397 7.11651 22.9795 7.0484 22.905 6.99137C19.9094 4.67057 16.8979 4.14462 15.3692 4.0369C15.2868 4.0369 15.2108 4.0369 15.1316 4.02104C14.2128 3.94975 13.286 3.96876 12.372 4.09706C12.3181 4.09706 12.2627 4.11608 12.2072 4.12242C11.8143 4.17787 11.4722 4.24123 11.1981 4.3046C10.9462 4.36322 10.7133 4.42342 10.4916 4.48203L13.0674 5.87926C13.2464 5.8617 13.4254 5.84122 13.6013 5.83015M23.3074 25.3667C23.225 25.796 23.0967 26.1984 22.9114 26.5549C22.848 26.6784 22.8163 26.8099 22.8116 26.9367C22.5391 27.2075 22.3458 27.3707 22.2904 27.4198C20.7949 28.6697 19.6242 29.3224 17.8104 29.9101C17.1403 30.1272 15.743 30.4851 13.9355 30.4439L11.168 31.9442C14.5328 32.6777 17.286 31.9996 18.3743 31.6479C20.4116 30.9889 21.7914 30.2222 23.4611 28.8202C23.7985 28.5398 25.5585 27.0048 26.772 24.5984C26.9953 24.1596 27.214 23.6733 27.4136 23.1442L23.3074 25.3667ZM3.44838 27.3327C3.22819 27.0697 3.03333 26.821 2.85116 26.5707V36.4496L11.168 31.9442C10.8638 31.8777 10.5565 31.8032 10.2444 31.7129C6.51849 30.6357 4.24838 28.2895 3.44838 27.3327ZM25.7835 22.2808C25.5965 22.4931 25.3969 22.6959 25.1894 22.8891C25.2147 23.1188 25.2322 23.3438 25.2448 23.5656C25.4334 23.1727 25.6171 22.745 25.7835 22.2808ZM5.38898 18.5311C5.02938 17.907 4.72363 17.2511 4.48442 16.5715C3.81749 14.6689 3.71135 12.7569 4.14858 10.9905C3.82858 11.4436 3.51967 11.9378 3.2472 12.4828C3.2472 12.4842 3.2472 12.4842 3.2472 12.4842C3.09195 12.7883 2.9668 13.0719 2.85116 13.3444V22.504C3.36442 21.2129 4.24046 19.8584 5.38898 18.5309M19.2425 23.6859C20.768 23.472 22.1082 22.9397 23.206 22.1508C22.9336 20.8518 22.4187 19.4609 21.6916 18.0637C20.993 18.4534 20.1993 18.7259 19.328 18.8478C16.391 19.2566 13.2781 17.8799 11.4531 15.6035C10.0654 16.5746 8.79017 17.6423 7.70661 18.7385C10.2729 22.1825 14.8892 24.2942 19.2425 23.6859ZM22.2143 15.1347C22.8116 14.1509 22.905 12.9406 22.4773 11.7208C22.4773 11.7194 22.4773 11.7194 22.4773 11.7194C22.4425 11.6149 22.3949 11.5135 22.3522 11.4105C21.511 11.3947 20.524 11.5246 19.4421 11.7955C20.4718 12.8806 21.3811 14.0323 22.1573 15.2125C22.1763 15.1856 22.1953 15.1602 22.2143 15.1349M6.94938 5.97348C7.91888 5.43646 8.84245 4.92795 10.4916 4.47805L2.85116 0.341797V9.67725C4.60957 7.32477 6.66265 6.13348 6.94938 5.97348ZM19.0745 17.0373C19.7066 16.9485 20.2785 16.7569 20.7791 16.4812C19.8682 15.0491 18.7514 13.6582 17.4682 12.4068C17.2496 12.486 17.031 12.5699 16.8092 12.6602C15.507 13.1862 14.2143 13.8499 12.9803 14.6056C14.4139 16.3244 16.8092 17.3541 19.0745 17.0373ZM11.949 12.8234C11.9743 12.8931 12.006 12.9596 12.0329 13.0277C13.2844 12.2721 14.5961 11.5988 15.9379 11.0428C14.8211 10.1398 13.69 9.4222 12.5985 8.89942C12.4575 9.05941 12.3244 9.22733 12.2135 9.40952C11.6147 10.3917 11.5213 11.602 11.949 12.8218V12.8232M6.70859 17.1227C7.81908 16.036 9.09433 14.9904 10.4725 14.0368C10.3823 13.8372 10.2967 13.636 10.2238 13.4284C10.2238 13.4271 10.2238 13.4271 10.2238 13.4284C9.61235 11.6843 9.76601 9.91794 10.6547 8.4621C10.707 8.37498 10.7688 8.29735 10.8258 8.21338C9.81195 7.91874 8.8678 7.82209 8.04403 7.9409C7.53393 8.39873 7.08403 8.91834 6.72443 9.50922C6.05274 10.6086 5.71373 11.8617 5.71373 13.1718C5.71373 14.0875 5.87849 15.0284 6.20957 15.9726C6.3474 16.3671 6.52166 16.752 6.70859 17.1275M19.4943 25.495C14.6278 26.1746 9.46502 23.8918 6.45987 20.1104C5.33037 21.476 4.54462 22.8399 4.26264 24.0518C4.15017 24.5286 4.12957 24.9485 4.18502 25.3144C4.38304 25.5853 4.60007 25.8609 4.84878 26.1587C5.54423 26.9904 7.50859 29.0213 10.7514 29.9591C11.8967 30.2902 12.9739 30.4249 13.9355 30.4439L23.3074 25.3667C23.3803 24.996 23.4231 24.5999 23.4262 24.1865C22.273 24.8455 20.9486 25.2922 19.4943 25.495ZM15.3518 7.50536C14.9969 7.55764 14.6595 7.63844 14.3427 7.74775C15.5324 8.41626 16.7395 9.28122 17.9149 10.3252C18.7355 10.0717 19.5181 9.88794 20.2579 9.76913L15.987 7.45626C15.7763 7.45626 15.5625 7.47845 15.3518 7.50536ZM27.4136 23.1442L36.1819 18.3965L27.648 13.7723C28.8472 17.5204 28.3181 20.7616 27.4136 23.1442ZM12.6856 5.91011C12.6413 5.91011 12.5985 5.91011 12.5557 5.91011C11.9426 5.99883 11.3613 6.13981 10.81 6.32992C11.2852 6.43923 11.7684 6.5913 12.2595 6.77507C12.6428 6.51052 13.0658 6.29189 13.5157 6.1129L13.0674 5.8721C12.9423 5.88794 12.8108 5.88794 12.6856 5.90694M23.7732 16.0852C23.5957 16.3751 23.3882 16.638 23.1664 16.8883C23.8524 18.1541 24.3831 19.4262 24.7379 20.6618C24.8789 20.4749 25.0167 20.2864 25.1403 20.0852C26.254 18.2571 26.4472 16.0234 25.7042 13.7771C25.6536 13.7058 25.6092 13.6297 25.5775 13.5458C25.5126 13.3573 25.4286 13.1719 25.351 12.9866C25.2654 12.9073 25.1957 12.8091 25.1482 12.6982C25.0738 12.5367 24.9803 12.3925 24.8646 12.2658L24.4448 12.0376C24.7284 13.4729 24.505 14.8844 23.7732 16.0852ZM2.76086 22.7244C2.36165 21.739 2.07333 20.5129 2.01789 20.0377C1.8864 18.9002 1.8864 18.9002 1.87531 17.7771C1.87215 17.427 1.91175 16.9153 1.97353 16.5319C2.11611 15.6527 2.28403 14.6737 2.85116 13.3446V9.67725C2.40918 10.2666 1.9862 10.924 1.61551 11.6606C0.585807 13.7026 0.346598 15.1679 0.169172 16.2373C0.0915484 16.7299 0.0424391 17.3414 0.0471917 17.7961C0.0598666 19.0032 0.0598665 19.027 0.204023 20.2483C0.289568 20.985 0.695113 22.6341 1.2369 23.8048C1.6567 24.7204 2.04482 25.4286 2.5169 26.1161C2.5565 26.1905 2.60244 26.2571 2.65789 26.3157C2.71809 26.4012 2.78621 26.4852 2.85116 26.5707V22.5042C2.82106 22.5786 2.7862 22.6515 2.76086 22.7244ZM13.6013 5.82616C13.6979 5.82616 13.8009 5.82616 13.9023 5.82616C14.086 5.82616 14.2682 5.82372 14.452 5.8286C14.1256 5.90304 13.8151 6.00759 13.5157 6.12482L15.987 7.46503C17.9229 7.40325 19.8761 8.26662 21.1878 9.65592C20.8852 9.68444 20.5747 9.72721 20.2579 9.7779L24.4448 12.0464C24.4338 12.0005 24.429 11.953 24.4195 11.9054C24.5922 12.0132 24.7395 12.1335 24.8646 12.2745L27.648 13.7811C27.6116 13.6749 27.5846 13.5704 27.5498 13.4642C27.5276 13.404 27.5007 13.347 27.4658 13.29C27.4373 13.2013 27.4136 13.1141 27.3819 13.0254C26.5787 10.7379 25.0421 8.72918 23.0904 7.19098C23.0397 7.11651 22.9795 7.0484 22.905 6.99137C19.9094 4.67057 16.8979 4.14462 15.3692 4.0369C15.2868 4.0369 15.2108 4.0369 15.1316 4.02104C14.2128 3.94975 13.286 3.96876 12.372 4.09706C12.3181 4.09706 12.2627 4.11608 12.2072 4.12242C11.8143 4.17787 11.4722 4.24123 11.1981 4.3046C10.9462 4.36322 10.7133 4.42342 10.4916 4.48203L13.0674 5.87926C13.2464 5.8617 13.4254 5.84122 13.6013 5.83015M23.3074 25.3667C23.225 25.796 23.0967 26.1984 22.9114 26.5549C22.848 26.6784 22.8163 26.8099 22.8116 26.9367C22.5391 27.2075 22.3458 27.3707 22.2904 27.4198C20.7949 28.6697 19.6242 29.3224 17.8104 29.9101C17.1403 30.1272 15.743 30.4851 13.9355 30.4439L11.168 31.9442C14.5328 32.6777 17.286 31.9996 18.3743 31.6479C20.4116 30.9889 21.7914 30.2222 23.4611 28.8202C23.7985 28.5398 25.5585 27.0048 26.772 24.5984C26.9953 24.1596 27.214 23.6733 27.4136 23.1442L23.3074 25.3667ZM36.3052 3.98051V9.4848H42.7238V32.3858H49.9043V9.4848H56.3291V3.98051H36.3052ZM67.8253 4.05366V9.81396H74.3048V4.05366H67.8253ZM105.221 4.18167V32.5809H108.574L109.775 29.7098C111.05 31.6267 112.684 32.8186 115.2 32.8186C120.624 32.8186 122.539 26.9127 122.539 22.3281C122.539 16.5444 120.149 12.0815 115.675 12.0815C114.364 12.0815 112.684 12.7551 111.768 13.7151H111.689V4.18167H105.221ZM124.221 4.18167V32.5809H130.683V4.18167H124.221ZM141.258 11.478C135.315 11.478 132.365 16.2638 132.365 21.9319C132.365 27.4733 135.156 32.4589 141.338 32.4589C147.087 32.4589 149.081 27.9164 149.359 26.9912L145.013 25.3942C144.611 27.0338 143.297 28.1555 141.74 28.1555C139.18 28.1555 138.826 25.161 138.826 23.401H149.64V22.0477C149.64 16.8263 147.484 11.478 141.258 11.478ZM66.1368 12.0815C63.5847 12.0815 60.7146 13.0724 59.9193 15.5864H59.834V12.557H53.4946V32.5809H59.9559V19.6217C60.6767 18.6237 61.3552 18.0612 63.5096 18.0612C64.4284 18.0612 65.2576 18.302 66.1368 18.622V12.0815ZM88.733 12.0815C86.4186 12.0815 84.3868 13.1896 83.0276 15.2268H82.9483V12.557H76.4871V32.5809H82.9483V17.9393L83.308 17.4639C83.75 16.9047 84.3078 16.6288 84.9843 16.6288C86.1835 16.6288 86.5386 17.3484 86.5386 18.4209V32.5809H92.9999V17.9393L93.3596 17.4639C93.7999 16.9047 94.3515 16.6288 95.0358 16.6288C96.2303 16.6288 96.5902 17.3484 96.5902 18.4209V32.5809H103.051V16.3484C103.051 13.4779 101.135 12.0815 98.5469 12.0815C96.2324 12.0815 94.2006 13.1896 92.8414 15.2268H92.7622C92.6418 13.3084 90.6895 12.0815 88.733 12.0815ZM67.8375 12.557V32.5809H74.3048V12.557H67.8375ZM141.222 15.5438C143.459 15.5438 143.616 17.7021 143.654 19.5729H138.826C138.826 17.7021 139.387 15.5438 141.222 15.5438ZM113.847 15.6657C115.84 15.6657 115.834 17.7419 115.834 21.7308V23.2486C115.834 26.9555 115.597 28.7528 113.804 28.7528C112.572 28.7528 111.573 27.8351 111.689 26.1622V16.8238L112.049 16.4703C112.446 16.1487 113.047 15.6657 113.847 15.6657ZM30.0755 28.8991C29.0997 28.8991 28.3078 29.662 28.3078 30.5998C28.3078 31.5566 29.0997 32.3248 30.0755 32.3248C31.0482 32.3248 31.831 31.5566 31.831 30.5998C31.831 29.662 31.0482 28.8991 30.0755 28.8991ZM152.297 29.0942C151.32 29.0942 150.53 29.8631 150.53 30.801C150.53 31.7546 151.32 32.526 152.297 32.526C153.269 32.526 154.047 31.7546 154.047 30.801C154.047 29.8631 153.269 29.0942 152.297 29.0942ZM30.0755 29.2344C30.8597 29.2344 31.5019 29.8394 31.5019 30.5998C31.5019 31.3808 30.8597 31.9896 30.0755 31.9896C29.2771 31.9896 28.6431 31.3808 28.6431 30.5998C28.6431 29.8394 29.2771 29.2344 30.0755 29.2344ZM152.297 29.4355C153.082 29.4355 153.718 30.0421 153.718 30.801C153.718 31.5819 153.082 32.1907 152.297 32.1907C151.497 32.1907 150.865 31.5819 150.865 30.801C150.865 30.0421 151.497 29.4355 152.297 29.4355ZM29.4172 29.6489V31.569H29.7098V30.6851H30.0511L30.618 31.569H30.9533L30.3559 30.6851C30.7092 30.6788 30.9777 30.5366 30.9777 30.1548C30.9777 29.9964 30.9024 29.8227 30.7582 29.7403C30.6077 29.6627 30.4398 29.6489 30.2767 29.6489H29.4172ZM151.633 29.85V31.7701H151.926V30.8863H152.273L152.84 31.7701H153.175L152.578 30.8863C152.93 30.8768 153.193 30.7378 153.193 30.356C153.193 30.1976 153.126 30.0254 152.98 29.9415C152.831 29.8639 152.663 29.85 152.499 29.85H151.633ZM29.7098 29.8683H30.2218C30.4674 29.8683 30.6851 29.9 30.6851 30.1487C30.6851 30.4941 30.3056 30.4474 30.0268 30.4474H29.7098V29.8683ZM151.926 30.0695H152.438C152.685 30.0695 152.907 30.098 152.907 30.3499C152.907 30.692 152.521 30.6425 152.243 30.6425H151.926V30.0695Z" fill="#6B7C92"/>
</svg>
