<svg id="icon" width="51" height="45" viewBox="0 0 51 45" fill="none" xmlns="http://www.w3.org/2000/svg">
<path fill-rule="evenodd" clip-rule="evenodd" d="M22.0355 15.4546L24.7919 18.211C26.2306 19.6496 28.5631 19.6496 30.0018 18.211C31.4405 16.7723 31.4405 14.4397 30.0018 13.001L23.7055 6.70476C23.6244 6.6236 23.5404 6.54703 23.4538 6.47503C20.632 3.53084 16.3459 0.949005 12.7911 0.949005C5.86781 0.949005 0.255371 6.56145 0.255371 13.4847C0.255371 17.0398 2.71963 21.1493 5.32955 23.6246L7.64754 26.0153L20.0661 13.5967L22.0355 15.4546ZM20.0191 17.6695C19.5986 18.1489 19.1586 18.6114 18.7004 19.0557L10.1882 27.3087C8.47612 28.9687 7.6868 31.724 9.37575 33.4076C11.0573 35.0839 14.0207 33.7994 14.0207 33.7994C14.0207 33.7994 11.8797 36.8714 14.4684 38.892C16.7475 40.6711 18.7216 38.892 18.7216 38.892C18.7216 38.892 17.226 41.927 18.7216 43.5929C20.8999 46.0194 23.667 44.8034 25.9727 42.4977L26.2206 42.2498L26.2214 42.2491L23.4686 39.4963C21.6338 37.6615 21.6338 34.6869 23.4686 32.8521C24.3865 31.9342 25.5898 31.4755 26.793 31.4761C26.7629 30.2358 27.2211 28.9859 28.1676 28.0393C29.131 27.0759 30.4087 26.6184 31.6706 26.6667C31.5801 25.3582 32.0351 24.019 33.0354 23.0187C34.8701 21.184 37.8448 21.184 39.6795 23.0187L43.2908 26.63L43.3453 26.5801L46.7445 23.0852C51.4696 18.227 51.4157 10.4744 46.6237 5.68231C41.7842 0.842809 33.9378 0.842806 29.0983 5.68231L28.6051 6.17554C28.3694 6.41126 28.1428 6.65579 27.926 6.90858L32.1525 11.1351C34.73 13.7126 34.73 17.8916 32.1525 20.469C29.575 23.0465 25.3961 23.0465 22.8186 20.469L20.0191 17.6695ZM25.5368 34.8748C24.7553 35.6562 24.7553 36.9232 25.5368 37.7047L29.6463 41.8142C30.4278 42.5957 31.6947 42.5957 32.4762 41.8142C33.2576 41.0328 33.2576 39.7658 32.4762 38.9843L28.3666 34.8748C27.5852 34.0933 26.3182 34.0933 25.5368 34.8748ZM30.4229 32.82C29.6415 32.0386 29.6415 30.7716 30.4229 29.9902C31.2044 29.2087 32.4714 29.2087 33.2528 29.9902L37.3624 34.0997C38.1438 34.8812 38.1438 36.1481 37.3624 36.9296C36.5809 37.711 35.3139 37.711 34.5325 36.9296L30.4229 32.82ZM35.306 25.4012C34.5246 26.1826 34.5246 27.4496 35.306 28.231L39.4156 32.3406C40.197 33.1221 41.464 33.1221 42.2455 32.3406C43.0269 31.5592 43.0269 30.2922 42.2455 29.5107L38.1359 25.4012C37.3545 24.6197 36.0875 24.6197 35.306 25.4012Z" fill="currentColor"/>
</svg>
