<svg id="vaisala" width="116" height="32" viewBox="0 0 116 32" fill="none" xmlns="http://www.w3.org/2000/svg"><path d="M18.6046 1.23564l-4.4663-.00419c-.2773-.0007-.5422.21444-.5909.49593L10.4079 18.1419 7.59369 1.72738c-.04736-.28149-.30612-.50082-.58342-.50012l-5.03529-.0007c-.2773.0007-.48184.24098-.43311.52247L7.12283 30.3507c.04805.2815.32672.5197.60402.5183l4.40245.0035c.0041 0 .0089-.0021.0137-.0021l1.2396.0021c.2773.0007.5464-.2403.5944-.5218l5.0559-28.60167c.0481-.28149-.151-.51269-.4283-.51339zM35.8216 30.3423L30.2407 1.73918c-.0481-.28079-.3288-.5078-.6383-.5078l-.67.00139c-.0103-.00069-.0199-.00279-.0302-.00279l-4.9261.0014c-.2766-.0007-.5409.22631-.5896.5078L18.3306 30.3416c-.048.2815.092.526.37.5267l4.526.0027c.2766.0007.5408-.2263.5889-.5078l.4866-2.5438h5.0312l.4358 2.5438c.0481.2815.3123.5085.5903.5078l5.0044-.0027c.2773-.0014.5073-.2445.4578-.526zm-10.4824-7.9446l1.6165-8.4489 1.4475 8.4489h-3.064zM80.6652 30.3424L75.0835 1.73925c-.048-.28079-.3129-.5085-.5896-.5078l-2.6466-.00489-3.0277.00489c-.2779-.0007-.5422.22631-.5896.5078L63.1742 30.3417c-.0495.2815.1462.5259.4248.5273l4.4697.0021c.2766.0007.5416-.2263.5903-.5078l.4867-2.5439h5.0305l.4351 2.5439c.0488.2815.3123.5085.5903.5078l5.0497-.0028c.2766-.0014.462-.2444.4139-.5259zm-10.4824-7.9446l1.615-8.449 1.449 8.449h-3.064zM114.65 30.3424l-5.58-28.60315c-.049-.28079-.314-.5085-.591-.5078l-.77.0007c-.004 0-.008-.0007-.011-.0007h-4.893c-.278-.0007-.541.22631-.589.5078L97.1593 30.3417c-.048.2815.2004.5259.4777.5266l4.418.0028c.277.0007.541-.2263.59-.5078l.486-2.5439h5.03l.437 2.5439c.047.2815.311.5085.589.5078l5.009-.0028c.279-.0007.503-.2444.454-.5259zm-10.481-7.9446l1.615-8.4483 1.448 8.4483h-3.063zM44.2354 30.3665c0 .2815-.2334.5092-.5203.5092h-5.1705c-.2883 0-.5217-.2277-.5217-.5092V1.73967c0-.28219.2334-.5092.5217-.5092h5.1705c.2869 0 .5203.22701.5203.5092V30.3665zM94.8739 24.5614l-5.9613.0007V1.73897c0-.28149-.223-.5085-.4996-.5085h-4.9756c-.2766 0-.5004.22701-.5004.5085V30.3644c0 .2822.2238.5099.5004.5099h4.9756c.0137 0 .0281-.0035.0418-.0042h6.4191c.2766 0 .5017-.2165.5017-.4826v-5.3428c0-.2668-.2251-.4833-.5017-.4833zM60.4446 17.4152s-6.0202-5.6584-6.3813-5.9329c-.6053-.4631-.7529-1.57931-.7811-1.8601v-.06705h-.0054V7.8222h.013c.0741-.84098.7557-1.50175 1.6027-1.50175.8902 0 1.6144.7355 1.6144 1.64284 0 .05588.0027 2.53691.0027 2.53691 0 .2508.1977.4505.44.4505l4.9419.0112c.243 0 .4187-.1809.4187-.4268 0 0 .0089-1.90056-.0075-1.94736-.033-4.5758-3.3571-7.681978-7.6264-7.681978-4.4375 0-8.0293 3.656588-8.0293 8.169518 0 .27242.0144.53994.0405.80397 0 .03632-.0034.06984-.0014.10756.1778 3.15229 2.9851 5.87849 2.9851 5.87849s4.6784 4.1972 5.3627 4.9732c.6747.7656.7324 1.4417.7351 1.6184v1.851h-.0117c-.0727.8242-.7763 1.471-1.6452 1.471-.9157 0-1.6556-.8347-1.6556-1.728 0-.0559-.0123-1.8524-.0123-1.8524 0-.2417-.1881-.4387-.4366-.4387l-5.0572-.0014c-.2512 0-.4311.1768-.4311.417 0 0-.0082 1.5849.0069 1.631.0343 4.485 3.447 7.288 7.8337 7.288 4.552 0 8.2448-3.5881 8.2448-8.0179 0-.1439-.0117-.2857-.0199-.4282h.0199c.0487-3.125-2.1601-5.2331-2.1601-5.2331z" fill="#6B7C93"/></svg>