<!-- Generated by IcoMoon.io -->
<svg version="1.1" xmlns="http://www.w3.org/2000/svg" width="24" height="24" viewBox="0 0 24 24">
<title>vectordata</title>
<path fill="currentColor" d="M9.1 2c-4 0-7.1 3.2-7.1 7 0 2.1 1.1 4.3 2.7 5.7l4.3 4.3 4.3-4.3c1.6-1.3 2.7-3.2 2.7-5.7 0.1-3.8-3-7-6.9-7zM9.1 12.4c-1.8 0-3.3-1.5-3.3-3.3s1.5-3.3 3.3-3.3 3.3 1.5 3.3 3.3-1.5 3.3-3.3 3.3z"></path>
<path fill="currentColor" d="M15.6 19c0.2 0 0.5 0 0.7 0.2l2.8-2.9c-0.1-0.2-0.2-0.5-0.2-0.8 0-0.8 0.7-1.5 1.6-1.5s1.6 0.7 1.6 1.6c0 0.8-0.7 1.5-1.6 1.5-0.3 0-0.6-0.1-0.8-0.2l-2.8 2.8c0.2 0.2 0.3 0.6 0.3 0.9 0 0.8-0.7 1.5-1.6 1.5s-1.5-0.7-1.5-1.5c-0.1-0.9 0.6-1.6 1.5-1.6v0z"></path>
</svg>
