<!-- Generated by IcoMoon.io -->
<svg version="1.1" xmlns="http://www.w3.org/2000/svg" width="25" height="24" viewBox="0 0 25 24">
<title>vector</title>
<path fill="currentColor" d="M12.4 0h0v0.003c3.315 0 6.315 1.342 8.485 3.512 0.978 0.978 1.788 2.125 2.383 3.394-0.501-0.087-1.060-0.070-1.681 0.060-0.481-0.875-1.082-1.673-1.782-2.374-1.897-1.897-4.515-3.071-7.404-3.071v0.003h-0.001v-0.003c-2.889 0-5.507 1.174-7.403 3.070-0.175 0.175-0.344 0.356-0.506 0.543l-0.069-0.060-0.133-0.105-0.139-0.099-0.143-0.092-0.148-0.085-0.153-0.078-0.157-0.071-0.161-0.063-0.165-0.055-0.108-0.031c0.253-0.309 0.52-0.604 0.802-0.886 2.17-2.17 5.169-3.512 8.484-3.512v-0.003h0.001zM24.286 13.642c-0.364 2.658-1.596 5.037-3.401 6.843-2.17 2.17-5.169 3.512-8.484 3.512v0.003h-0.001v-0.003c-3.315 0-6.315-1.342-8.485-3.512s-3.512-5.169-3.512-8.484h-0.003v-0.001h0.003c0-0.37 0.017-0.737 0.050-1.098l0.030 0.017 0.153 0.078 0.157 0.070 0.161 0.063 0.165 0.056 0.169 0.048 0.172 0.039 0.174 0.031 0.177 0.022 0.137 0.011c-0.014 0.219-0.021 0.44-0.021 0.663h0.003v0.001h-0.003c0 2.889 1.174 5.507 3.070 7.403s4.515 3.070 7.404 3.070v-0.003h0.001v0.003c2.889 0 5.507-1.174 7.403-3.070 1.436-1.436 2.457-3.286 2.869-5.353l0.1-0.001 0.174-0.011 0.171-0.019 0.17-0.028 0.167-0.036 0.166-0.044 0.162-0.052 0.159-0.059 0.156-0.067 0.153-0.074 0.033-0.018zM2.17 7.546l0.029 0.002 0.026 0.004 0.024 0.006 0.023 0.009 0.022 0.011 0.022 0.013 0.021 0.016 0.019 0.017 0.017 0.019 0.015 0.021 0.013 0.022 0.011 0.022 0.008 0.023 0.006 0.024 0.004 0.026 0.001 0.029-0.001 0.029-0.004 0.026-0.006 0.024-0.008 0.023-0.011 0.023-0.013 0.022-0.015 0.020-0.018 0.019-0.019 0.018-0.020 0.015-0.022 0.013-0.023 0.011-0.023 0.009-0.024 0.006-0.026 0.004-0.029 0.001-0.029-0.001-0.026-0.004-0.024-0.006-0.023-0.009-0.022-0.011-0.022-0.013-0.020-0.015-0.019-0.017-0.017-0.019-0.015-0.021-0.013-0.022-0.011-0.022-0.008-0.023-0.006-0.024-0.004-0.026-0.001-0.029 0.001-0.029 0.004-0.026 0.006-0.025 0.009-0.023 0.010-0.022 0.013-0.022 0.016-0.021 0.017-0.019 0.019-0.017 0.021-0.016 0.022-0.013 0.022-0.011 0.023-0.008 0.024-0.006 0.026-0.004 0.029-0.002z"></path>
<path fill="currentColor" d="M2.17 5.639h0v0.002c0.6 0 1.143 0.242 1.534 0.634s0.633 0.933 0.634 1.534h0.002v0.001h-0.002c0 0.601-0.242 1.143-0.634 1.534s-0.934 0.633-1.534 0.633v0.002h-0.001v-0.002c-0.6 0-1.143-0.242-1.534-0.634s-0.633-0.933-0.634-1.534h-0.002v-0.001h0.002c0-0.601 0.242-1.143 0.634-1.534s0.933-0.633 1.534-0.633v-0.002h0.001zM2.17 6.713v0.002h-0.001v-0.002c-0.3 0-0.573 0.123-0.772 0.322s-0.323 0.473-0.323 0.773h0.002v0.001h-0.002c0 0.3 0.123 0.573 0.322 0.772s0.473 0.322 0.773 0.323v-0.002h0.001v0.002c0.3-0 0.573-0.123 0.772-0.322s0.323-0.473 0.323-0.773h-0.002v-0.001h0.002c0-0.3-0.123-0.574-0.322-0.772s-0.473-0.323-0.773-0.323z"></path>
<path fill="currentColor" d="M7.608 14.021h0v0.002c0.601 0 1.143 0.242 1.534 0.634s0.633 0.933 0.634 1.534h0.002v0.001h-0.002c0 0.6-0.242 1.143-0.634 1.534s-0.933 0.633-1.534 0.634v0.002h-0.001v-0.002c-0.6-0-1.143-0.242-1.534-0.634s-0.633-0.934-0.634-1.534h-0.002v-0.001h0.002c0-0.601 0.242-1.143 0.634-1.534s0.933-0.633 1.534-0.633v-0.002h0.001zM7.608 15.096v0.002h-0.001v-0.002c-0.3 0-0.574 0.123-0.773 0.322s-0.322 0.473-0.322 0.773h0.002v0.001h-0.002c0 0.3 0.123 0.574 0.322 0.773s0.473 0.322 0.773 0.323v-0.002h0.001v0.002c0.3-0 0.573-0.124 0.772-0.323s0.322-0.473 0.323-0.773h-0.002v-0.001h0.002c-0-0.3-0.124-0.574-0.323-0.773s-0.473-0.322-0.773-0.322z"></path>
<path fill="currentColor" d="M12.945 5.645h0v0.002c0.601 0 1.143 0.242 1.534 0.634s0.633 0.933 0.634 1.534h0.002v0.001h-0.002c-0 0.6-0.242 1.143-0.634 1.534s-0.933 0.633-1.534 0.633v0.002h-0.001v-0.002c-0.601 0-1.143-0.242-1.534-0.634s-0.633-0.933-0.633-1.534h-0.002v-0.001h0.002c0-0.6 0.242-1.143 0.634-1.534s0.933-0.633 1.534-0.633v-0.002h0zM12.945 6.72v0.002h-0.001v-0.002c-0.3 0-0.574 0.123-0.773 0.322s-0.322 0.473-0.322 0.773h0.002v0.001h-0.002c0 0.3 0.123 0.573 0.322 0.772s0.473 0.323 0.773 0.323v-0.002h0.001v0.002c0.3 0 0.574-0.123 0.773-0.322s0.322-0.473 0.322-0.773h-0.002v-0.001h0.002c0-0.3-0.123-0.574-0.322-0.772s-0.472-0.323-0.773-0.323z"></path>
<path fill="currentColor" d="M23.194 8.419h0l-0.001 0.002c0.58 0.156 1.041 0.53 1.318 1.009s0.37 1.066 0.215 1.646l0.002 0v0.001l-0.002-0.001c-0.155 0.58-0.53 1.041-1.009 1.318s-1.066 0.37-1.645 0.215l-0.001 0.002-0.001-0h-0l0.001-0.002c-0.58-0.156-1.041-0.53-1.318-1.009s-0.37-1.066-0.215-1.646l-0.002-0 0-0.001v-0l0.002 0.001c0.155-0.58 0.53-1.041 1.009-1.318s1.066-0.37 1.646-0.215l0.001-0.002h0.001zM22.916 9.457l-0 0.002h-0l-0.001-0 0.001-0.002c-0.29-0.078-0.586-0.029-0.83 0.111s-0.434 0.373-0.512 0.663l0.002 0v0.001l-0.002-0.001c-0.078 0.29-0.030 0.586 0.111 0.83s0.373 0.434 0.663 0.512l0.001-0.002h0.001l-0.001 0.002c0.29 0.078 0.586 0.029 0.83-0.111s0.434-0.373 0.512-0.663l-0.002-0.001v-0l0-0.001 0.002 0.001c0.078-0.29 0.030-0.586-0.111-0.83s-0.373-0.434-0.663-0.512z"></path>
<path fill="currentColor" d="M4.214 9.925l2.178 3.773-0.929 0.538-2.178-3.773z"></path>
<path fill="currentColor" d="M11.931 10.463l-2.178 3.773-0.929-0.538 2.178-3.773z"></path>
<path fill="currentColor" d="M19.775 10.305l-4.208-1.127 0.278-1.036 4.208 1.127-0.278 1.036z"></path>
</svg>
