<svg id="veolia" width="212" height="54" viewBox="0 0 212 54" fill="none" xmlns="http://www.w3.org/2000/svg">
<path d="M23.2608 52.3553C12.3133 50.6192 3.84059 42.5944 1.59383 31.8335C1.15342 29.7241 1.00737 25.8198 1.28823 23.6632C2.80008 12.0547 11.4408 3.17819 23.0907 1.26594C25.3502 0.89506 29.8674 0.998682 32.0249 1.47088C41.2533 3.49067 48.467 9.92426 51.3808 18.7337C52.2638 21.4034 52.6617 23.9015 52.6617 26.7757C52.6617 38.885 44.3681 49.2234 32.4305 51.995C30.5432 52.4332 25.1004 52.6471 23.2608 52.3553ZM25.9362 40.636C24.5869 39.0621 22.5191 35.7733 21.8868 34.1959C21.3121 32.762 21.2515 32.4177 21.2484 30.569C21.2453 28.723 21.2991 28.4092 21.8075 27.3084C22.8075 25.143 24.6276 23.9316 26.9008 23.9185C30.2267 23.8993 32.6727 26.7562 32.6575 30.642C32.6475 33.1886 31.3171 36.1668 28.6742 39.5587L27.1466 41.5193L28.6223 41.3856C32.9064 40.9974 36.9236 39.0864 39.9683 35.9883C41.6029 34.325 42.434 33.1412 43.4318 31.0554C44.7465 28.307 45.1442 26.5073 45.1516 23.2741C45.1566 21.0977 45.0716 20.2068 44.7286 18.8386C42.5121 9.99649 33.9794 4.0405 24.9926 5.0624C17.4099 5.92464 11.0907 11.4506 9.23861 18.8386C8.62261 21.2958 8.63026 25.3143 9.25537 27.6511C11.1354 34.6787 16.7317 39.9027 23.743 41.175C24.5089 41.314 25.4751 41.4356 25.8902 41.4452L26.6449 41.4628L25.9362 40.636ZM128.626 41.9448C126.753 41.5997 124.467 40.8317 123.289 40.1514C120.472 38.5251 118.638 35.4692 118.004 31.3472C117.721 29.5067 117.896 25.4645 118.332 23.7605C119.103 20.7466 120.688 18.384 122.985 16.825C125.279 15.2681 130.049 14.3863 133.995 14.7894C138.031 15.2016 140.464 16.1946 142.513 18.2649C144.041 19.8085 144.859 21.3519 145.488 23.8728C146.069 26.1983 146.112 31.1059 145.572 33.1952C144.391 37.7554 141.68 40.4959 137.186 41.6738C135.118 42.2155 130.832 42.3512 128.626 41.9448ZM135.23 37.0152C136.692 36.3656 137.343 35.7769 138.033 34.4817C138.873 32.906 139.221 31.1326 139.221 28.4292C139.221 22.1332 137.007 19.3883 131.933 19.3961C129.591 19.3997 128.266 19.8135 127.026 20.9289C125.356 22.4303 124.641 24.6783 124.641 28.4292C124.641 33.625 126.261 36.5204 129.644 37.3724C130.953 37.702 134.143 37.4981 135.23 37.0152ZM72.1397 41.2469C72.0403 40.9912 69.4991 35.2308 66.4928 28.446C63.4864 21.6613 61.0266 16.0369 61.0266 15.9474C61.0266 15.8579 62.1508 15.7847 63.5249 15.7847C65.7636 15.7847 66.1123 15.8316 66.8806 16.2367C67.3559 16.4874 67.9609 17.0291 68.2384 17.4526C68.5137 17.8726 70.168 21.5866 71.9146 25.7058C73.6612 29.825 75.1519 33.3144 75.2273 33.4601C75.3089 33.6178 76.6449 30.525 78.5266 25.8224C80.2658 21.476 81.8763 17.6429 82.1056 17.3044C82.3347 16.966 82.9081 16.4856 83.3796 16.2369C84.1605 15.825 84.4838 15.7847 87.0045 15.7847H89.7721L84.4298 27.6024C81.4915 34.1022 78.8704 39.7055 78.6051 40.0542C77.788 41.1283 76.7877 41.5001 74.4128 41.6127C72.3458 41.7107 72.3183 41.7063 72.1397 41.2469ZM99.641 41.2351C95.9931 40.5445 92.912 37.3227 91.729 32.9619C91.1213 30.7215 91.1238 26.4165 91.7341 24.2578C92.6778 20.9197 94.6024 18.2534 96.9846 16.9837C99.1895 15.8084 99.9273 15.7142 107.033 15.7001L113.453 15.6874V18.0218V20.3562L107.904 20.4534L102.355 20.5507L101.074 21.1817C100.179 21.6222 99.6289 22.0492 99.2495 22.5967C98.7128 23.3712 98.1819 24.9854 98.1819 25.8431V26.2847L105.525 26.3357L112.869 26.3866V28.6238V30.8608L105.525 30.9118L98.1819 30.9628V31.3854C98.1819 31.6178 98.3251 32.3182 98.5001 32.9418C98.9318 34.4803 99.9856 35.6598 101.447 36.2395C102.492 36.6542 102.891 36.6853 108.054 36.7533L113.55 36.8257V39.1442V41.4628L107.082 41.441C103.524 41.4291 100.176 41.3364 99.641 41.2351ZM156.998 41.0766C156.233 40.876 155.236 40.5227 154.782 40.2915C153.612 39.6942 152.124 38.1326 151.567 36.9166C150.69 35.0001 150.624 34.1435 150.616 24.6359L150.608 15.6874H152.651C154.417 15.6874 154.786 15.7452 155.374 16.1141C156.676 16.9296 156.629 16.5991 156.736 25.7058L156.833 33.9734L157.32 34.8383C157.669 35.4604 158.077 35.8426 158.773 36.2C159.719 36.6861 159.841 36.6982 164.463 36.7606L169.186 36.8244V39.1436V41.4628L163.788 41.4521C159.157 41.4429 158.192 41.3895 156.998 41.0766ZM172.925 29.4505C172.977 18.023 172.997 17.4117 173.349 16.8933C173.965 15.9844 174.723 15.7154 176.919 15.6266L178.912 15.546V27.5414C178.912 40.779 178.955 40.3086 177.687 41.0816C177.171 41.3961 176.704 41.4615 174.968 41.4621L172.871 41.4628L172.925 29.4505ZM182.126 41.234C182.18 41.0924 184.488 35.7679 187.254 29.4019C192.886 16.4395 192.93 16.3615 194.858 15.8644C196.212 15.5152 199.603 15.4942 199.875 15.8333C200.028 16.0248 210.42 39.8171 210.925 41.133C211.04 41.4327 210.819 41.4628 208.496 41.4628C204.709 41.4628 204.108 41.0811 202.63 37.7385L201.739 35.7241L196.547 35.6723L191.355 35.6205L191.156 36.1447C191.046 36.433 190.573 37.4686 190.104 38.446C189.423 39.8652 189.085 40.3383 188.427 40.7944C187.624 41.3518 187.537 41.3671 184.815 41.4285C182.562 41.4794 182.045 41.442 182.126 41.234ZM200.251 30.715C198.767 27.1527 196.732 22.4576 196.621 22.3383C196.503 22.2111 195.07 25.3573 192.984 30.3259L192.719 30.9581H196.536C199.514 30.9581 200.33 30.9047 200.251 30.715Z" fill="#6B7C92"/>
</svg>
