<svg id="icon" width="51" height="51" viewBox="0 0 51 51" fill="none" xmlns="http://www.w3.org/2000/svg">
<path fill-rule="evenodd" clip-rule="evenodd" d="M47.5454 21.9846L47.5461 21.9851L47.5469 21.9858C48.8162 23.0297 50.2549 24.2129 50.2549 25.949C50.2549 27.6851 48.8161 28.8683 47.5471 29.9119L47.5464 29.9124L47.5423 29.9158C46.9564 30.398 46.0745 31.1237 45.9736 31.5009C45.8604 31.9251 46.2582 32.9932 46.5489 33.7725L46.5495 33.7741C47.1124 35.2847 47.7502 36.9965 46.9075 38.4528C46.0541 39.9276 44.2364 40.2304 42.6324 40.4975L42.6297 40.4979C41.8656 40.6253 40.7132 40.8175 40.4183 41.1124C40.1234 41.4073 39.9312 42.5597 39.8038 43.3238L39.8034 43.3264L39.8033 43.3268C39.5363 44.9308 39.2337 46.7483 37.7591 47.6016C36.3031 48.4439 34.5922 47.8067 33.0825 47.2444L33.0788 47.243C32.2991 46.9523 31.2318 46.5548 30.8068 46.6674C30.4289 46.7684 29.7011 47.6535 29.2193 48.2395L29.2187 48.2402L29.2181 48.241C28.1741 49.5103 26.991 50.949 25.2549 50.949C23.5187 50.949 22.3355 49.5102 21.2919 48.2412L21.2914 48.2405L21.288 48.2364C20.8058 47.6505 20.0801 46.7686 19.703 46.6677C19.2792 46.5548 18.2107 46.9523 17.4313 47.243L17.4302 47.2434C15.9195 47.8064 14.2072 48.4444 12.7511 47.6016C11.2763 46.7482 10.9734 44.9305 10.7064 43.3264L10.7059 43.3238C10.5785 42.5597 10.3864 41.4073 10.0915 41.1124C9.79655 40.8175 8.64418 40.6253 7.88008 40.4979L7.87741 40.4975L7.8771 40.4974C6.2731 40.2304 4.45557 39.9278 3.60228 38.4532C2.75942 36.9963 3.39752 35.2843 3.96048 33.7739L3.96086 33.7729L3.96152 33.7712C4.25214 32.9916 4.64971 31.9251 4.5365 31.5009C4.43545 31.123 3.55033 30.3952 2.96438 29.9134L2.9637 29.9128L2.96288 29.9122C1.69355 28.8682 0.254883 27.6851 0.254883 25.949C0.254883 24.2128 1.69368 23.0296 2.96267 21.986L2.96332 21.9855L2.96742 21.9821C3.55338 21.4999 4.43526 20.7742 4.53612 20.3971C4.64941 19.9729 4.25154 18.9048 3.96086 18.1254L3.96028 18.1239C3.39737 16.6132 2.75952 14.9015 3.60228 13.4452C4.45563 11.9704 6.27333 11.6675 7.87741 11.4005L7.88008 11.4C8.64418 11.2726 9.79655 11.0805 10.0915 10.7856C10.3864 10.4906 10.5785 9.33827 10.7059 8.57417L10.7064 8.5715L10.7064 8.5712C10.9735 6.96719 11.276 5.14966 12.7507 4.29637C14.2076 3.45352 15.9195 4.09161 17.4299 4.65457L17.4309 4.65495C18.2107 4.94563 19.278 5.34351 19.703 5.23059C20.0809 5.12954 20.8087 4.24442 21.2905 3.65847L21.291 3.65779L21.2917 3.65698C22.3356 2.38764 23.5188 0.948975 25.2549 0.948975C26.991 0.948975 28.1743 2.38777 29.2178 3.65676L29.2184 3.65741L29.2217 3.66151C29.7039 4.24747 30.4296 5.12936 30.8068 5.23021C31.231 5.34312 32.2991 4.94563 33.0784 4.65495L33.0795 4.65455C34.5903 4.0916 36.3026 3.45353 37.7587 4.29637C39.2335 5.14972 39.5363 6.96742 39.8034 8.5715L39.8038 8.57417C39.9312 9.33827 40.1234 10.4906 40.4183 10.7856C40.7132 11.0805 41.8656 11.2726 42.6297 11.4L42.6324 11.4005L42.6327 11.4005C44.2367 11.6675 46.0542 11.9701 46.9075 13.4448C47.7503 14.9017 47.1122 16.6136 46.5493 18.124L46.5489 18.125L46.5483 18.1268C46.2576 18.9064 45.8601 19.9728 45.9733 20.3971C46.0743 20.775 46.9594 21.5028 47.5454 21.9846ZM22.1481 31.5777C22.58 32.0096 23.1475 32.2232 23.7135 32.2184C24.2812 32.2244 24.8508 32.0109 25.2839 31.5778L33.4479 23.4137C34.3022 22.5595 34.3022 21.1744 33.4479 20.3202C32.5936 19.4659 31.2086 19.4659 30.3543 20.3202L23.716 26.9585L20.1593 23.4018C19.3051 22.5475 17.92 22.5475 17.0658 23.4018C16.2115 24.2561 16.2115 25.6411 17.0658 26.4954L22.1481 31.5777Z" fill="currentColor"/>
</svg>
