<!-- Generated by IcoMoon.io -->
<svg version="1.1" xmlns="http://www.w3.org/2000/svg" width="24" height="24" viewBox="0 0 24 24">
<title>web_service</title>
<path fill="currentColor" d="M9.344 8.319c-0.052-0.052-0.123-0.081-0.196-0.079s-0.143 0.034-0.192 0.088c-1.613 1.775-0.736 5.614-0.644 5.992l-1.617 1.617c-0.050 0.050-0.078 0.118-0.078 0.189s0.028 0.14 0.078 0.19l0.974 0.974c0.052 0.051 0.121 0.078 0.191 0.078 0.068 0 0.136-0.027 0.189-0.078l1.616-1.616c0.786 0.202 1.771 0.322 2.639 0.322 1.044 0 2.472-0.167 3.352-0.965 0.054-0.049 0.085-0.12 0.088-0.192 0.003-0.074-0.026-0.145-0.078-0.197l-6.323-6.323z"></path>
<path fill="currentColor" d="M11.679 9.917c0.053 0.052 0.122 0.078 0.19 0.078s0.137-0.026 0.19-0.078l2.002-2.004c0.143-0.142 0.221-0.331 0.221-0.532s-0.078-0.389-0.221-0.53c-0.142-0.143-0.33-0.221-0.53-0.221s-0.389 0.078-0.532 0.221l-2.003 2.002c-0.105 0.105-0.105 0.276 0 0.38l0.683 0.683z"></path>
<path fill="currentColor" d="M17.162 9.952c-0.142-0.142-0.33-0.221-0.531-0.221s-0.39 0.079-0.53 0.22l-2.003 2.003c-0.051 0.050-0.079 0.119-0.079 0.19s0.028 0.14 0.079 0.19l0.682 0.683c0.052 0.052 0.121 0.078 0.19 0.078 0.068 0 0.137-0.026 0.19-0.078l2.003-2.004c0.293-0.293 0.293-0.77-0.001-1.062z"></path>
<path fill="currentColor" d="M12 0h0v0.003c3.315 0 6.315 1.342 8.485 3.512s3.512 5.169 3.512 8.484h0.003v0.001h-0.003c0 3.315-1.342 6.315-3.512 8.484s-5.169 3.512-8.484 3.512v0.003h-0.001v-0.003c-3.315 0-6.315-1.342-8.485-3.512s-3.512-5.169-3.512-8.484h-0.003v-0.001h0.003c0-3.315 1.342-6.315 3.512-8.485s5.169-3.512 8.484-3.512v-0.003h0.001zM12 1.525v0.003h-0.001v-0.003c-2.889 0-5.506 1.174-7.403 3.070s-3.071 4.515-3.071 7.404h0.003v0.001h-0.003c0 2.889 1.174 5.507 3.070 7.403s4.515 3.071 7.404 3.071v-0.003h0.001v0.003c2.889-0 5.507-1.174 7.403-3.070s3.071-4.515 3.071-7.404h-0.003v-0.001h0.003c-0-2.889-1.174-5.506-3.070-7.403s-4.515-3.071-7.404-3.071z"></path>
</svg>
