<svg id="wetter" width="177" height="37" viewBox="0 0 177 37" fill="none" xmlns="http://www.w3.org/2000/svg">
<g clip-path="url(#clip0_10126_692)">
<path d="M176.325 18.7021C176.325 28.5197 168.372 36.4722 158.555 36.4722H18.1184C8.30092 36.4722 0.348389 28.5197 0.348389 18.7021V17.928C0.348389 8.11049 8.30092 0.157959 18.1184 0.157959H158.555C168.372 0.157959 176.325 8.11049 176.325 17.928V18.7021Z" fill="#6B7C93"/>
<path d="M17.1331 26.0213L13.2624 13.3535H18.1184L20.1593 22.3265H20.1945L22.4114 13.3535H27.7248L29.9065 22.2913H29.9417L32.1585 13.3535H36.3811L32.4048 26.0213H27.1618L24.8745 17.1891H24.8394L22.3762 26.0213H17.1331ZM42.152 20.6375C42.1168 22.2913 42.539 23.6989 44.3336 23.6989C45.6708 23.6989 46.5153 23.0655 46.6912 21.8691H51.125C50.9842 23.5229 49.9286 24.6841 48.7322 25.3879C47.6061 26.0917 46.1986 26.3732 44.7207 26.3732C39.6536 26.3732 37.6479 24.1915 37.6479 19.23C37.6479 15.2185 40.6389 12.9313 44.4744 12.9313C49.6119 12.9313 51.2657 15.8871 51.2657 20.6023H42.152V20.6375ZM46.6912 18.0688C46.6912 17.4002 46.4801 16.6964 46.1282 16.1686C45.7412 15.6408 45.1781 15.3241 44.4744 15.3593C42.8205 15.4296 42.3983 16.626 42.2927 18.0688H46.6912ZM54.9957 13.3535V11.4534L59.7812 9.6236V13.3535H62.5611V16.3797H59.7812V21.4116C59.7812 21.7283 59.5701 23.3822 60.6961 23.3822C61.3295 23.3822 61.9981 23.3822 62.5259 23.3118V26.1621C61.4351 26.3732 60.661 26.4084 59.9572 26.4084C56.7199 26.4084 54.7493 25.9509 54.9957 22.0802V16.3797H52.5325V13.3535H54.9957ZM66.0799 13.3535V11.4534L70.8655 9.6236V13.3535H73.6454V16.3797H70.8655V21.4116C70.8655 21.7283 70.6544 23.3822 71.7804 23.3822C72.4138 23.3822 73.0824 23.3822 73.6102 23.3118V26.1621C72.5194 26.3732 71.7452 26.4084 71.0415 26.4084C67.8042 26.4084 65.8336 25.9509 66.0799 22.0802V16.3797H63.6168V13.3535H66.0799ZM79.7681 20.6375C79.733 22.2913 80.1552 23.6989 81.9498 23.6989C83.287 23.6989 84.1315 23.0655 84.3074 21.8691H88.7411C88.6004 23.5229 87.5447 24.6841 86.3483 25.3879C85.2223 26.0917 83.8148 26.3732 82.3369 26.3732C77.2698 26.3732 75.2641 24.1915 75.2641 19.23C75.2641 15.2185 78.2551 12.9313 82.0906 12.9313C87.228 12.9313 88.8819 15.8871 88.8819 20.6023H79.7681V20.6375ZM84.3074 18.0688C84.3074 17.4002 84.0963 16.6964 83.7444 16.1686C83.3573 15.6408 82.7943 15.3241 82.0906 15.3593C80.4367 15.4296 80.0145 16.626 79.9089 18.0688H84.3074ZM96.2714 15.7112H96.3066C96.8696 13.5999 98.4179 12.8961 100.529 12.9665V17.0131C100.177 16.9779 99.8606 16.9779 99.5087 16.9779C97.0104 17.0131 96.1659 18.491 96.2362 20.919V25.9861H91.4506V16.626C91.4506 15.5 91.4154 14.7259 91.3099 13.3887H96.1658L96.2714 15.7112ZM101.092 26.0213V22.221H105.631V26.0213H101.092ZM117.208 17.7873C117.208 17.1539 117.103 16.6612 116.821 16.3094C116.54 15.9575 116.047 15.7463 115.343 15.7463C113.619 15.7463 113.514 18.3855 113.514 19.6874C113.514 20.9894 113.619 23.6285 115.343 23.6285C116.997 23.4877 117.208 22.221 117.208 21.0949H121.994C121.994 22.8895 121.22 24.1915 120.023 25.0712C118.827 25.9157 117.208 26.3732 115.519 26.4084C110.734 26.4084 108.552 24.0859 108.552 19.6874C108.552 15.0778 111.719 12.9665 115.519 12.9665C118.721 12.9313 121.748 14.1629 121.994 17.7873H117.208ZM138.708 19.6874C138.708 24.3675 135.295 26.4084 131.354 26.4084C127.413 26.4084 124 24.3675 124 19.6874C124 15.0074 127.413 12.9665 131.354 12.9665C135.295 12.9665 138.708 15.0074 138.708 19.6874ZM131.319 23.6285C133.325 23.6285 133.782 21.482 133.782 19.6874C133.782 17.8928 133.36 15.7463 131.319 15.7463C129.313 15.7463 128.856 17.8928 128.856 19.6874C128.891 21.482 129.313 23.6285 131.319 23.6285ZM145.887 15.4648H145.922C146.802 13.7406 148.456 13.072 150.356 13.072C151.904 13.072 153.628 13.8814 154.156 15.4296C155.001 13.9166 156.76 13.072 158.66 13.0017C161.37 13.0017 163.41 14.7611 163.41 17.5761V26.0565H158.625V18.5614C158.59 17.3298 158.273 15.9927 156.795 15.9927C154.438 15.9927 154.719 18.5966 154.719 18.7373V25.9861H149.933V18.5614C149.898 17.3298 149.582 15.9927 148.104 15.9927C145.746 15.9927 146.028 18.5966 146.028 18.7373V25.9861H141.242V16.626C141.242 15.5 141.207 14.7259 141.101 13.3887H145.852L145.887 15.4648Z" fill="white"/>
</g>
<defs>
<clipPath id="clip0_10126_692">
<rect width="175.976" height="36.3142" fill="white" transform="translate(0.348389 0.157959)"/>
</clipPath>
</defs>
</svg>
